<?xml version="1.0" encoding="UTF-8" standalone="no"?>
<!DOCTYPE svg PUBLIC "-//W3C//DTD SVG 1.1//EN"
 "http://www.w3.org/Graphics/SVG/1.1/DTD/svg11.dtd">
<!-- Generated by graphviz version 2.43.0 (0)
 -->
<!-- Title: include/rendering/Camera.hpp Pages: 1 -->
<svg width="1364pt" height="357pt"
 viewBox="0.00 0.00 1363.50 357.00" xmlns="http://www.w3.org/2000/svg" xmlns:xlink="http://www.w3.org/1999/xlink">
<g id="graph0" class="graph" transform="scale(1 1) rotate(0) translate(4 353)">
<title>include/rendering/Camera.hpp</title>
<!-- Node1 -->
<g id="Node000001" class="node">
<title>Node1</title>
<g id="a_Node000001"><a xlink:title="Defines the Camera class for view and projection.">
<polygon fill="#999999" stroke="#666666" points="336,-349 172,-349 172,-330 336,-330 336,-349"/>
<text text-anchor="middle" x="254" y="-337" font-family="Helvetica,sans-Serif" font-size="10.00">include/rendering/Camera.hpp</text>
</a>
</g>
</g>
<!-- Node2 -->
<g id="Node000002" class="node">
<title>Node2</title>
<g id="a_Node000002"><a xlink:href="Matrix4_8hpp.html" target="_top" xlink:title="Defines the Matrix4 class for 3D transformation operations.">
<polygon fill="white" stroke="#666666" points="173,-184 69,-184 69,-165 173,-165 173,-184"/>
<text text-anchor="middle" x="121" y="-172" font-family="Helvetica,sans-Serif" font-size="10.00">math/Matrix4.hpp</text>
</a>
</g>
</g>
<!-- Node1&#45;&gt;Node2 -->
<g id="edge1_Node000001_Node000002" class="edge">
<title>Node1&#45;&gt;Node2</title>
<g id="a_edge1_Node000001_Node000002"><a xlink:title=" ">
<path fill="none" stroke="#63b8ff" d="M179.37,-329.95C122.67,-319.11 48.28,-294.55 11,-239 -6.47,-212.98 29.37,-196.27 64.71,-186.57"/>
<polygon fill="#63b8ff" stroke="#63b8ff" points="65.81,-189.9 74.62,-184.01 64.06,-183.12 65.81,-189.9"/>
</a>
</g>
</g>
<!-- Node4 -->
<g id="Node000004" class="node">
<title>Node4</title>
<g id="a_Node000004"><a xlink:href="Vector3_8hpp.html" target="_top" xlink:title="Defines the Vector3 class.">
<polygon fill="white" stroke="#666666" points="222,-74 148,-74 148,-55 222,-55 222,-74"/>
<text text-anchor="middle" x="185" y="-62" font-family="Helvetica,sans-Serif" font-size="10.00">Vector3.hpp</text>
</a>
</g>
</g>
<!-- Node1&#45;&gt;Node4 -->
<g id="edge11_Node000001_Node000004" class="edge">
<title>Node1&#45;&gt;Node4</title>
<g id="a_edge11_Node000001_Node000004"><a xlink:title=" ">
<path fill="none" stroke="#63b8ff" d="M254,-329.82C254,-311.48 254,-267.44 254,-230.5 254,-230.5 254,-230.5 254,-173.5 254,-135.59 223.44,-100.3 202.99,-80.94"/>
<polygon fill="#63b8ff" stroke="#63b8ff" points="205.23,-78.24 195.48,-74.1 200.52,-83.42 205.23,-78.24"/>
</a>
</g>
</g>
<!-- Node9 -->
<g id="Node000009" class="node">
<title>Node9</title>
<g id="a_Node000009"><a xlink:href="Object_8hpp.html" target="_top" xlink:title="Defines the Object class, a special ECS entity wrapper.">
<polygon fill="white" stroke="#666666" points="390.5,-294 283.5,-294 283.5,-275 390.5,-275 390.5,-294"/>
<text text-anchor="middle" x="337" y="-282" font-family="Helvetica,sans-Serif" font-size="10.00">objects/Object.hpp</text>
</a>
</g>
</g>
<!-- Node1&#45;&gt;Node9 -->
<g id="edge12_Node000001_Node000009" class="edge">
<title>Node1&#45;&gt;Node9</title>
<g id="a_edge12_Node000001_Node000009"><a xlink:title=" ">
<path fill="none" stroke="#63b8ff" d="M267.34,-329.98C280.09,-321.84 299.55,-309.41 314.67,-299.76"/>
<polygon fill="#63b8ff" stroke="#63b8ff" points="316.88,-302.5 323.42,-294.17 313.11,-296.6 316.88,-302.5"/>
</a>
</g>
</g>
<!-- Node3 -->
<g id="Node000003" class="node">
<title>Node3</title>
<g id="a_Node000003"><a xlink:href="Quaternion_8hpp.html" target="_top" xlink:title="Defines the Quaternion class for representing 3D rotations.">
<polygon fill="white" stroke="#666666" points="92,-129 0,-129 0,-110 92,-110 92,-129"/>
<text text-anchor="middle" x="46" y="-117" font-family="Helvetica,sans-Serif" font-size="10.00">Quaternion.hpp</text>
</a>
</g>
</g>
<!-- Node2&#45;&gt;Node3 -->
<g id="edge2_Node000002_Node000003" class="edge">
<title>Node2&#45;&gt;Node3</title>
<g id="a_edge2_Node000002_Node000003"><a xlink:title=" ">
<path fill="none" stroke="#63b8ff" d="M108.95,-164.98C97.54,-156.92 80.17,-144.65 66.57,-135.03"/>
<polygon fill="#63b8ff" stroke="#63b8ff" points="68.46,-132.08 58.27,-129.17 64.42,-137.8 68.46,-132.08"/>
</a>
</g>
</g>
<!-- Node2&#45;&gt;Node4 -->
<g id="edge8_Node000002_Node000004" class="edge">
<title>Node2&#45;&gt;Node4</title>
<g id="a_edge8_Node000002_Node000004"><a xlink:title=" ">
<path fill="none" stroke="#63b8ff" d="M126.24,-164.66C136.79,-146.85 160.78,-106.37 174.63,-83.01"/>
<polygon fill="#63b8ff" stroke="#63b8ff" points="177.78,-84.55 179.87,-74.16 171.76,-80.98 177.78,-84.55"/>
</a>
</g>
</g>
<!-- Node6 -->
<g id="Node000006" class="node">
<title>Node6</title>
<g id="a_Node000006"><a xlink:title=" ">
<polygon fill="#e0e0e0" stroke="#999999" points="213,-19 157,-19 157,0 213,0 213,-19"/>
<text text-anchor="middle" x="185" y="-7" font-family="Helvetica,sans-Serif" font-size="10.00">sstream</text>
</a>
</g>
</g>
<!-- Node2&#45;&gt;Node6 -->
<g id="edge10_Node000002_Node000006" class="edge">
<title>Node2&#45;&gt;Node6</title>
<g id="a_edge10_Node000002_Node000006"><a xlink:title=" ">
<path fill="none" stroke="#63b8ff" d="M120.49,-164.89C119.66,-144.54 119.73,-92.35 139,-55 144.93,-43.51 154.97,-33.27 164.17,-25.52"/>
<polygon fill="#63b8ff" stroke="#63b8ff" points="166.56,-28.09 172.23,-19.13 162.22,-22.6 166.56,-28.09"/>
</a>
</g>
</g>
<!-- Node8 -->
<g id="Node000008" class="node">
<title>Node8</title>
<g id="a_Node000008"><a xlink:title=" ">
<polygon fill="#e0e0e0" stroke="#999999" points="905,-74 849,-74 849,-55 905,-55 905,-74"/>
<text text-anchor="middle" x="877" y="-62" font-family="Helvetica,sans-Serif" font-size="10.00">iomanip</text>
</a>
</g>
</g>
<!-- Node2&#45;&gt;Node8 -->
<g id="edge9_Node000002_Node000008" class="edge">
<title>Node2&#45;&gt;Node8</title>
<g id="a_edge9_Node000002_Node000008"><a xlink:title=" ">
<path fill="none" stroke="#63b8ff" d="M173.22,-172.03C267.09,-168.73 470.29,-158.52 639,-129 712,-116.23 795.22,-91.65 841.38,-77.1"/>
<polygon fill="#63b8ff" stroke="#63b8ff" points="842.45,-80.44 850.92,-74.07 840.33,-73.76 842.45,-80.44"/>
</a>
</g>
</g>
<!-- Node3&#45;&gt;Node4 -->
<g id="edge3_Node000003_Node000004" class="edge">
<title>Node3&#45;&gt;Node4</title>
<g id="a_edge3_Node000003_Node000004"><a xlink:title=" ">
<path fill="none" stroke="#63b8ff" d="M68.33,-109.98C91.2,-101.27 126.96,-87.63 152.86,-77.75"/>
<polygon fill="#63b8ff" stroke="#63b8ff" points="154.16,-81 162.26,-74.17 151.67,-74.46 154.16,-81"/>
</a>
</g>
</g>
<!-- Node5 -->
<g id="Node000005" class="node">
<title>Node5</title>
<g id="a_Node000005"><a xlink:title=" ">
<polygon fill="#e0e0e0" stroke="#999999" points="122.5,-19 75.5,-19 75.5,0 122.5,0 122.5,-19"/>
<text text-anchor="middle" x="99" y="-7" font-family="Helvetica,sans-Serif" font-size="10.00">cmath</text>
</a>
</g>
</g>
<!-- Node3&#45;&gt;Node5 -->
<g id="edge7_Node000003_Node000005" class="edge">
<title>Node3&#45;&gt;Node5</title>
<g id="a_edge7_Node000003_Node000005"><a xlink:title=" ">
<path fill="none" stroke="#63b8ff" d="M50.34,-109.66C59.04,-91.93 78.77,-51.73 90.26,-28.32"/>
<polygon fill="#63b8ff" stroke="#63b8ff" points="93.49,-29.68 94.75,-19.16 87.2,-26.59 93.49,-29.68"/>
</a>
</g>
</g>
<!-- Node4&#45;&gt;Node5 -->
<g id="edge4_Node000004_Node000005" class="edge">
<title>Node4&#45;&gt;Node5</title>
<g id="a_edge4_Node000004_Node000005"><a xlink:title=" ">
<path fill="none" stroke="#63b8ff" d="M171.18,-54.98C157.85,-46.77 137.42,-34.18 121.69,-24.49"/>
<polygon fill="#63b8ff" stroke="#63b8ff" points="123.42,-21.44 113.07,-19.17 119.75,-27.4 123.42,-21.44"/>
</a>
</g>
</g>
<!-- Node4&#45;&gt;Node6 -->
<g id="edge5_Node000004_Node000006" class="edge">
<title>Node4&#45;&gt;Node6</title>
<g id="a_edge5_Node000004_Node000006"><a xlink:title=" ">
<path fill="none" stroke="#63b8ff" d="M185,-54.75C185,-47.8 185,-37.85 185,-29.13"/>
<polygon fill="#63b8ff" stroke="#63b8ff" points="188.5,-29.09 185,-19.09 181.5,-29.09 188.5,-29.09"/>
</a>
</g>
</g>
<!-- Node7 -->
<g id="Node000007" class="node">
<title>Node7</title>
<g id="a_Node000007"><a xlink:title=" ">
<polygon fill="#e0e0e0" stroke="#999999" points="362,-19 318,-19 318,0 362,0 362,-19"/>
<text text-anchor="middle" x="340" y="-7" font-family="Helvetica,sans-Serif" font-size="10.00">string</text>
</a>
</g>
</g>
<!-- Node4&#45;&gt;Node7 -->
<g id="edge6_Node000004_Node000007" class="edge">
<title>Node4&#45;&gt;Node7</title>
<g id="a_edge6_Node000004_Node000007"><a xlink:title=" ">
<path fill="none" stroke="#63b8ff" d="M209.9,-54.98C236.54,-45.88 278.88,-31.4 307.98,-21.45"/>
<polygon fill="#63b8ff" stroke="#63b8ff" points="309.34,-24.68 317.67,-18.13 307.08,-18.06 309.34,-24.68"/>
</a>
</g>
</g>
<!-- Node10 -->
<g id="Node000010" class="node">
<title>Node10</title>
<g id="a_Node000010"><a xlink:href="Entity_8hpp.html" target="_top" xlink:title="Defines the Entity class, which serves as a wrapper for ECS entities.">
<polygon fill="white" stroke="#666666" points="623.5,-184 558.5,-184 558.5,-165 623.5,-165 623.5,-184"/>
<text text-anchor="middle" x="591" y="-172" font-family="Helvetica,sans-Serif" font-size="10.00">Entity.hpp</text>
</a>
</g>
</g>
<!-- Node9&#45;&gt;Node10 -->
<g id="edge13_Node000009_Node000010" class="edge">
<title>Node9&#45;&gt;Node10</title>
<g id="a_edge13_Node000009_Node000010"><a xlink:title=" ">
<path fill="none" stroke="#63b8ff" d="M357.36,-274.84C402.15,-255.8 509.39,-210.2 561.54,-188.03"/>
<polygon fill="#63b8ff" stroke="#63b8ff" points="563.07,-191.18 570.9,-184.05 560.33,-184.74 563.07,-191.18"/>
</a>
</g>
</g>
<!-- Node24 -->
<g id="Node000024" class="node">
<title>Node24</title>
<g id="a_Node000024"><a xlink:href="TransformComponent_8hpp.html" target="_top" xlink:title="Defines the TransformComponent for ECS&#45;based spatial transformations.">
<polygon fill="white" stroke="#666666" points="226,-239 20,-239 20,-220 226,-220 226,-239"/>
<text text-anchor="middle" x="123" y="-227" font-family="Helvetica,sans-Serif" font-size="10.00">components/TransformComponent.hpp</text>
</a>
</g>
</g>
<!-- Node9&#45;&gt;Node24 -->
<g id="edge30_Node000009_Node000024" class="edge">
<title>Node9&#45;&gt;Node24</title>
<g id="a_edge30_Node000009_Node000024"><a xlink:title=" ">
<path fill="none" stroke="#63b8ff" d="M302.62,-274.98C265.91,-265.89 207.62,-251.46 167.45,-241.51"/>
<polygon fill="#63b8ff" stroke="#63b8ff" points="168.2,-238.09 157.65,-239.08 166.52,-244.88 168.2,-238.09"/>
</a>
</g>
</g>
<!-- Node25 -->
<g id="Node000025" class="node">
<title>Node25</title>
<g id="a_Node000025"><a xlink:href="Mesh_8hpp.html" target="_top" xlink:title="Defines the Mesh class for managing 3D geometry.">
<polygon fill="white" stroke="#666666" points="395.5,-129 282.5,-129 282.5,-110 395.5,-110 395.5,-129"/>
<text text-anchor="middle" x="339" y="-117" font-family="Helvetica,sans-Serif" font-size="10.00">rendering/Mesh.hpp</text>
</a>
</g>
</g>
<!-- Node9&#45;&gt;Node25 -->
<g id="edge34_Node000009_Node000025" class="edge">
<title>Node9&#45;&gt;Node25</title>
<g id="a_edge34_Node000009_Node000025"><a xlink:title=" ">
<path fill="none" stroke="#63b8ff" d="M337.11,-274.74C337.42,-249.31 338.33,-175.08 338.76,-139.69"/>
<polygon fill="#63b8ff" stroke="#63b8ff" points="342.27,-139.35 338.89,-129.31 335.27,-139.26 342.27,-139.35"/>
</a>
</g>
</g>
<!-- Node11 -->
<g id="Node000011" class="node">
<title>Node11</title>
<g id="a_Node000011"><a xlink:href="Logger_8hpp.html" target="_top" xlink:title="Provides logging functionality.">
<polygon fill="white" stroke="#666666" points="1098,-129 1028,-129 1028,-110 1098,-110 1098,-129"/>
<text text-anchor="middle" x="1063" y="-117" font-family="Helvetica,sans-Serif" font-size="10.00">Logger.hpp</text>
</a>
</g>
</g>
<!-- Node10&#45;&gt;Node11 -->
<g id="edge14_Node000010_Node000011" class="edge">
<title>Node10&#45;&gt;Node11</title>
<g id="a_edge14_Node000010_Node000011"><a xlink:title=" ">
<path fill="none" stroke="#63b8ff" d="M623.82,-169.82C706.43,-160.54 923.16,-136.2 1017.75,-125.58"/>
<polygon fill="#63b8ff" stroke="#63b8ff" points="1018.31,-129.04 1027.86,-124.45 1017.53,-122.08 1018.31,-129.04"/>
</a>
</g>
</g>
<!-- Node17 -->
<g id="Node000017" class="node">
<title>Node17</title>
<g id="a_Node000017"><a xlink:href="Registry_8hpp.html" target="_top" xlink:title="Defines the Registry class for managing ECS entities and components.">
<polygon fill="white" stroke="#666666" points="629.5,-129 552.5,-129 552.5,-110 629.5,-110 629.5,-129"/>
<text text-anchor="middle" x="591" y="-117" font-family="Helvetica,sans-Serif" font-size="10.00">Registry.hpp</text>
</a>
</g>
</g>
<!-- Node10&#45;&gt;Node17 -->
<g id="edge23_Node000010_Node000017" class="edge">
<title>Node10&#45;&gt;Node17</title>
<g id="a_edge23_Node000010_Node000017"><a xlink:title=" ">
<path fill="none" stroke="#63b8ff" d="M591,-164.75C591,-157.8 591,-147.85 591,-139.13"/>
<polygon fill="#63b8ff" stroke="#63b8ff" points="594.5,-139.09 591,-129.09 587.5,-139.09 594.5,-139.09"/>
</a>
</g>
</g>
<!-- Node11&#45;&gt;Node6 -->
<g id="edge21_Node000011_Node000006" class="edge">
<title>Node11&#45;&gt;Node6</title>
<g id="a_edge21_Node000011_Node000006"><a xlink:title=" ">
<path fill="none" stroke="#63b8ff" d="M1039.81,-109.84C1017.19,-101.25 981.92,-87.45 952,-74 934.78,-66.26 932.24,-59.88 914,-55 783.9,-20.18 443.41,-27.61 309,-19 280.17,-17.15 247.58,-14.91 223.05,-13.2"/>
<polygon fill="#63b8ff" stroke="#63b8ff" points="223.29,-9.71 213.07,-12.5 222.8,-16.69 223.29,-9.71"/>
</a>
</g>
</g>
<!-- Node11&#45;&gt;Node7 -->
<g id="edge22_Node000011_Node000007" class="edge">
<title>Node11&#45;&gt;Node7</title>
<g id="a_edge22_Node000011_Node000007"><a xlink:title=" ">
<path fill="none" stroke="#63b8ff" d="M1073.57,-109.77C1088.29,-96.61 1111.51,-71.45 1096,-55 1070.81,-28.28 513.72,-14.3 372.38,-11.18"/>
<polygon fill="#63b8ff" stroke="#63b8ff" points="372.27,-7.68 362.19,-10.96 372.11,-14.68 372.27,-7.68"/>
</a>
</g>
</g>
<!-- Node11&#45;&gt;Node8 -->
<g id="edge18_Node000011_Node000008" class="edge">
<title>Node11&#45;&gt;Node8</title>
<g id="a_edge18_Node000011_Node000008"><a xlink:title=" ">
<path fill="none" stroke="#63b8ff" d="M1033.12,-109.98C1001.06,-100.85 950.05,-86.32 915.13,-76.36"/>
<polygon fill="#63b8ff" stroke="#63b8ff" points="915.86,-72.93 905.29,-73.56 913.94,-79.67 915.86,-72.93"/>
</a>
</g>
</g>
<!-- Node12 -->
<g id="Node000012" class="node">
<title>Node12</title>
<g id="a_Node000012"><a xlink:title=" ">
<polygon fill="#e0e0e0" stroke="#999999" points="1193,-74 1143,-74 1143,-55 1193,-55 1193,-74"/>
<text text-anchor="middle" x="1168" y="-62" font-family="Helvetica,sans-Serif" font-size="10.00">chrono</text>
</a>
</g>
</g>
<!-- Node11&#45;&gt;Node12 -->
<g id="edge15_Node000011_Node000012" class="edge">
<title>Node11&#45;&gt;Node12</title>
<g id="a_edge15_Node000011_Node000012"><a xlink:title=" ">
<path fill="none" stroke="#63b8ff" d="M1079.87,-109.98C1096.61,-101.54 1122.5,-88.47 1141.89,-78.68"/>
<polygon fill="#63b8ff" stroke="#63b8ff" points="1143.47,-81.8 1150.82,-74.17 1140.32,-75.55 1143.47,-81.8"/>
</a>
</g>
</g>
<!-- Node13 -->
<g id="Node000013" class="node">
<title>Node13</title>
<g id="a_Node000013"><a xlink:title=" ">
<polygon fill="#e0e0e0" stroke="#999999" points="1282.5,-74 1211.5,-74 1211.5,-55 1282.5,-55 1282.5,-74"/>
<text text-anchor="middle" x="1247" y="-62" font-family="Helvetica,sans-Serif" font-size="10.00">fmt/printf.h</text>
</a>
</g>
</g>
<!-- Node11&#45;&gt;Node13 -->
<g id="edge16_Node000011_Node000013" class="edge">
<title>Node11&#45;&gt;Node13</title>
<g id="a_edge16_Node000011_Node000013"><a xlink:title=" ">
<path fill="none" stroke="#63b8ff" d="M1092.56,-109.98C1123.72,-101.01 1172.97,-86.82 1207.46,-76.89"/>
<polygon fill="#63b8ff" stroke="#63b8ff" points="1208.57,-80.21 1217.21,-74.08 1206.63,-73.49 1208.57,-80.21"/>
</a>
</g>
</g>
<!-- Node14 -->
<g id="Node000014" class="node">
<title>Node14</title>
<g id="a_Node000014"><a xlink:title=" ">
<polygon fill="#e0e0e0" stroke="#999999" points="1355.5,-74 1300.5,-74 1300.5,-55 1355.5,-55 1355.5,-74"/>
<text text-anchor="middle" x="1328" y="-62" font-family="Helvetica,sans-Serif" font-size="10.00">fstream</text>
</a>
</g>
</g>
<!-- Node11&#45;&gt;Node14 -->
<g id="edge17_Node000011_Node000014" class="edge">
<title>Node11&#45;&gt;Node14</title>
<g id="a_edge17_Node000011_Node000014"><a xlink:title=" ">
<path fill="none" stroke="#63b8ff" d="M1098.01,-112.15C1141.07,-104.23 1216.65,-90.02 1290.22,-74.32"/>
<polygon fill="#63b8ff" stroke="#63b8ff" points="1291.07,-77.72 1300.12,-72.2 1289.61,-70.88 1291.07,-77.72"/>
</a>
</g>
</g>
<!-- Node15 -->
<g id="Node000015" class="node">
<title>Node15</title>
<g id="a_Node000015"><a xlink:title=" ">
<polygon fill="#e0e0e0" stroke="#999999" points="1021,-74 961,-74 961,-55 1021,-55 1021,-74"/>
<text text-anchor="middle" x="991" y="-62" font-family="Helvetica,sans-Serif" font-size="10.00">iostream</text>
</a>
</g>
</g>
<!-- Node11&#45;&gt;Node15 -->
<g id="edge19_Node000011_Node000015" class="edge">
<title>Node11&#45;&gt;Node15</title>
<g id="a_edge19_Node000011_Node000015"><a xlink:title=" ">
<path fill="none" stroke="#63b8ff" d="M1051.43,-109.98C1040.58,-102 1024.12,-89.88 1011.12,-80.31"/>
<polygon fill="#63b8ff" stroke="#63b8ff" points="1012.91,-77.28 1002.78,-74.17 1008.76,-82.92 1012.91,-77.28"/>
</a>
</g>
</g>
<!-- Node16 -->
<g id="Node000016" class="node">
<title>Node16</title>
<g id="a_Node000016"><a xlink:title=" ">
<polygon fill="#e0e0e0" stroke="#999999" points="1087,-74 1039,-74 1039,-55 1087,-55 1087,-74"/>
<text text-anchor="middle" x="1063" y="-62" font-family="Helvetica,sans-Serif" font-size="10.00">mutex</text>
</a>
</g>
</g>
<!-- Node11&#45;&gt;Node16 -->
<g id="edge20_Node000011_Node000016" class="edge">
<title>Node11&#45;&gt;Node16</title>
<g id="a_edge20_Node000011_Node000016"><a xlink:title=" ">
<path fill="none" stroke="#63b8ff" d="M1063,-109.75C1063,-102.8 1063,-92.85 1063,-84.13"/>
<polygon fill="#63b8ff" stroke="#63b8ff" points="1066.5,-84.09 1063,-74.09 1059.5,-84.09 1066.5,-84.09"/>
</a>
</g>
</g>
<!-- Node18 -->
<g id="Node000018" class="node">
<title>Node18</title>
<g id="a_Node000018"><a xlink:title=" ">
<polygon fill="#e0e0e0" stroke="#999999" points="769,-74 705,-74 705,-55 769,-55 769,-74"/>
<text text-anchor="middle" x="737" y="-62" font-family="Helvetica,sans-Serif" font-size="10.00">algorithm</text>
</a>
</g>
</g>
<!-- Node17&#45;&gt;Node18 -->
<g id="edge24_Node000017_Node000018" class="edge">
<title>Node17&#45;&gt;Node18</title>
<g id="a_edge24_Node000017_Node000018"><a xlink:title=" ">
<path fill="none" stroke="#63b8ff" d="M614.46,-109.98C638.58,-101.23 676.37,-87.51 703.6,-77.62"/>
<polygon fill="#63b8ff" stroke="#63b8ff" points="704.91,-80.87 713.12,-74.17 702.52,-74.29 704.91,-80.87"/>
</a>
</g>
</g>
<!-- Node19 -->
<g id="Node000019" class="node">
<title>Node19</title>
<g id="a_Node000019"><a xlink:title=" ">
<polygon fill="#e0e0e0" stroke="#999999" points="831,-74 787,-74 787,-55 831,-55 831,-74"/>
<text text-anchor="middle" x="809" y="-62" font-family="Helvetica,sans-Serif" font-size="10.00">bitset</text>
</a>
</g>
</g>
<!-- Node17&#45;&gt;Node19 -->
<g id="edge25_Node000017_Node000019" class="edge">
<title>Node17&#45;&gt;Node19</title>
<g id="a_edge25_Node000017_Node000019"><a xlink:title=" ">
<path fill="none" stroke="#63b8ff" d="M628.7,-109.92C664.46,-101.7 719.95,-88.72 776.8,-74.25"/>
<polygon fill="#63b8ff" stroke="#63b8ff" points="777.85,-77.59 786.67,-71.72 776.12,-70.81 777.85,-77.59"/>
</a>
</g>
</g>
<!-- Node20 -->
<g id="Node000020" class="node">
<title>Node20</title>
<g id="a_Node000020"><a xlink:title=" ">
<polygon fill="#e0e0e0" stroke="#999999" points="492,-74 434,-74 434,-55 492,-55 492,-74"/>
<text text-anchor="middle" x="463" y="-62" font-family="Helvetica,sans-Serif" font-size="10.00">memory</text>
</a>
</g>
</g>
<!-- Node17&#45;&gt;Node20 -->
<g id="edge26_Node000017_Node000020" class="edge">
<title>Node17&#45;&gt;Node20</title>
<g id="a_edge26_Node000017_Node000020"><a xlink:title=" ">
<path fill="none" stroke="#63b8ff" d="M570.43,-109.98C549.57,-101.34 517.03,-87.87 493.23,-78.02"/>
<polygon fill="#63b8ff" stroke="#63b8ff" points="494.52,-74.76 483.94,-74.17 491.84,-81.23 494.52,-74.76"/>
</a>
</g>
</g>
<!-- Node21 -->
<g id="Node000021" class="node">
<title>Node21</title>
<g id="a_Node000021"><a xlink:title=" ">
<polygon fill="#e0e0e0" stroke="#999999" points="575.5,-74 510.5,-74 510.5,-55 575.5,-55 575.5,-74"/>
<text text-anchor="middle" x="543" y="-62" font-family="Helvetica,sans-Serif" font-size="10.00">stdexcept</text>
</a>
</g>
</g>
<!-- Node17&#45;&gt;Node21 -->
<g id="edge27_Node000017_Node000021" class="edge">
<title>Node17&#45;&gt;Node21</title>
<g id="a_edge27_Node000017_Node000021"><a xlink:title=" ">
<path fill="none" stroke="#63b8ff" d="M583.07,-109.75C576.15,-102.11 565.93,-90.82 557.55,-81.56"/>
<polygon fill="#63b8ff" stroke="#63b8ff" points="560.09,-79.15 550.78,-74.09 554.9,-83.85 560.09,-79.15"/>
</a>
</g>
</g>
<!-- Node22 -->
<g id="Node000022" class="node">
<title>Node22</title>
<g id="a_Node000022"><a xlink:title=" ">
<polygon fill="#e0e0e0" stroke="#999999" points="686.5,-74 593.5,-74 593.5,-55 686.5,-55 686.5,-74"/>
<text text-anchor="middle" x="640" y="-62" font-family="Helvetica,sans-Serif" font-size="10.00">unordered_map</text>
</a>
</g>
</g>
<!-- Node17&#45;&gt;Node22 -->
<g id="edge28_Node000017_Node000022" class="edge">
<title>Node17&#45;&gt;Node22</title>
<g id="a_edge28_Node000017_Node000022"><a xlink:title=" ">
<path fill="none" stroke="#63b8ff" d="M599.09,-109.75C606.16,-102.11 616.59,-90.82 625.15,-81.56"/>
<polygon fill="#63b8ff" stroke="#63b8ff" points="627.84,-83.81 632.06,-74.09 622.7,-79.06 627.84,-83.81"/>
</a>
</g>
</g>
<!-- Node23 -->
<g id="Node000023" class="node">
<title>Node23</title>
<g id="a_Node000023"><a xlink:title=" ">
<polygon fill="#e0e0e0" stroke="#999999" points="415.5,-74 368.5,-74 368.5,-55 415.5,-55 415.5,-74"/>
<text text-anchor="middle" x="392" y="-62" font-family="Helvetica,sans-Serif" font-size="10.00">vector</text>
</a>
</g>
</g>
<!-- Node17&#45;&gt;Node23 -->
<g id="edge29_Node000017_Node000023" class="edge">
<title>Node17&#45;&gt;Node23</title>
<g id="a_edge29_Node000017_Node000023"><a xlink:title=" ">
<path fill="none" stroke="#63b8ff" d="M559.03,-109.98C522.47,-100.25 462.89,-84.38 425.65,-74.46"/>
<polygon fill="#63b8ff" stroke="#63b8ff" points="426.34,-71.02 415.78,-71.83 424.54,-77.79 426.34,-71.02"/>
</a>
</g>
</g>
<!-- Node24&#45;&gt;Node2 -->
<g id="edge31_Node000024_Node000002" class="edge">
<title>Node24&#45;&gt;Node2</title>
<g id="a_edge31_Node000024_Node000002"><a xlink:title=" ">
<path fill="none" stroke="#63b8ff" d="M122.67,-219.75C122.41,-212.8 122.03,-202.85 121.7,-194.13"/>
<polygon fill="#63b8ff" stroke="#63b8ff" points="125.2,-193.95 121.32,-184.09 118.2,-194.21 125.2,-193.95"/>
</a>
</g>
</g>
<!-- Node24&#45;&gt;Node3 -->
<g id="edge32_Node000024_Node000003" class="edge">
<title>Node24&#45;&gt;Node3</title>
<g id="a_edge32_Node000024_Node000003"><a xlink:title=" ">
<path fill="none" stroke="#63b8ff" d="M104.09,-219.93C89.79,-212.47 70.82,-200.28 60,-184 51.12,-170.63 47.78,-152.52 46.57,-139.07"/>
<polygon fill="#63b8ff" stroke="#63b8ff" points="50.07,-138.84 45.98,-129.06 43.08,-139.25 50.07,-138.84"/>
</a>
</g>
</g>
<!-- Node24&#45;&gt;Node4 -->
<g id="edge33_Node000024_Node000004" class="edge">
<title>Node24&#45;&gt;Node4</title>
<g id="a_edge33_Node000024_Node000004"><a xlink:title=" ">
<path fill="none" stroke="#63b8ff" d="M141.86,-219.99C155.69,-212.62 173.49,-200.54 182,-184 198.41,-152.09 193.86,-108.66 189.28,-84.22"/>
<polygon fill="#63b8ff" stroke="#63b8ff" points="192.65,-83.24 187.19,-74.16 185.8,-84.66 192.65,-83.24"/>
</a>
</g>
</g>
<!-- Node25&#45;&gt;Node4 -->
<g id="edge35_Node000025_Node000004" class="edge">
<title>Node25&#45;&gt;Node4</title>
<g id="a_edge35_Node000025_Node000004"><a xlink:title=" ">
<path fill="none" stroke="#63b8ff" d="M314.26,-109.98C288.63,-101.16 248.37,-87.31 219.59,-77.41"/>
<polygon fill="#63b8ff" stroke="#63b8ff" points="220.53,-74.03 209.94,-74.08 218.25,-80.65 220.53,-74.03"/>
</a>
</g>
</g>
<!-- Node25&#45;&gt;Node7 -->
<g id="edge37_Node000025_Node000007" class="edge">
<title>Node25&#45;&gt;Node7</title>
<g id="a_edge37_Node000025_Node000007"><a xlink:title=" ">
<path fill="none" stroke="#63b8ff" d="M339.08,-109.66C339.24,-92.17 339.61,-52.8 339.83,-29.27"/>
<polygon fill="#63b8ff" stroke="#63b8ff" points="343.33,-29.19 339.92,-19.16 336.33,-29.13 343.33,-29.19"/>
</a>
</g>
</g>
<!-- Node25&#45;&gt;Node23 -->
<g id="edge38_Node000025_Node000023" class="edge">
<title>Node25&#45;&gt;Node23</title>
<g id="a_edge38_Node000025_Node000023"><a xlink:title=" ">
<path fill="none" stroke="#63b8ff" d="M347.75,-109.75C355.47,-102.03 366.9,-90.6 376.22,-81.28"/>
<polygon fill="#63b8ff" stroke="#63b8ff" points="378.81,-83.64 383.41,-74.09 373.86,-78.69 378.81,-83.64"/>
</a>
</g>
</g>
<!-- Node26 -->
<g id="Node000026" class="node">
<title>Node26</title>
<g id="a_Node000026"><a xlink:title=" ">
<polygon fill="#e0e0e0" stroke="#999999" points="311.5,-74 240.5,-74 240.5,-55 311.5,-55 311.5,-74"/>
<text text-anchor="middle" x="276" y="-62" font-family="Helvetica,sans-Serif" font-size="10.00">glad/glad.h</text>
</a>
</g>
</g>
<!-- Node25&#45;&gt;Node26 -->
<g id="edge36_Node000025_Node000026" class="edge">
<title>Node25&#45;&gt;Node26</title>
<g id="a_edge36_Node000025_Node000026"><a xlink:title=" ">
<path fill="none" stroke="#63b8ff" d="M328.88,-109.98C319.56,-102.15 305.53,-90.34 294.26,-80.86"/>
<polygon fill="#63b8ff" stroke="#63b8ff" points="296.21,-77.93 286.31,-74.17 291.71,-83.29 296.21,-77.93"/>
</a>
</g>
</g>
</g>
</svg>
