<?xml version="1.0" encoding="UTF-8" standalone="no"?>
<!DOCTYPE svg PUBLIC "-//W3C//DTD SVG 1.1//EN"
 "http://www.w3.org/Graphics/SVG/1.1/DTD/svg11.dtd">
<!-- Generated by graphviz version 2.43.0 (0)
 -->
<!-- Title: include/rendering/Camera.hpp Pages: 1 -->
<svg width="1364pt" height="357pt"
 viewBox="0.00 0.00 1364.00 357.00" xmlns="http://www.w3.org/2000/svg" xmlns:xlink="http://www.w3.org/1999/xlink">
<g id="graph0" class="graph" transform="scale(1 1) rotate(0) translate(4 353)">
<title>include/rendering/Camera.hpp</title>
<!-- Node1 -->
<g id="Node000001" class="node">
<title>Node1</title>
<g id="a_Node000001"><a xlink:title="Defines the Camera class for view and projection.">
<polygon fill="#999999" stroke="#666666" points="336,-349 172,-349 172,-330 336,-330 336,-349"/>
<text text-anchor="middle" x="254" y="-337" font-family="Helvetica,sans-Serif" font-size="10.00">include/rendering/Camera.hpp</text>
</a>
</g>
</g>
<!-- Node2 -->
<g id="Node000002" class="node">
<title>Node2</title>
<g id="a_Node000002"><a xlink:href="Matrix4_8hpp.html" target="_top" xlink:title="Defines the Matrix4 class for 3D transformation operations.">
<polygon fill="white" stroke="#666666" points="173,-184 69,-184 69,-165 173,-165 173,-184"/>
<text text-anchor="middle" x="121" y="-172" font-family="Helvetica,sans-Serif" font-size="10.00">math/Matrix4.hpp</text>
</a>
</g>
</g>
<!-- Node1&#45;&gt;Node2 -->
<g id="edge1_Node000001_Node000002" class="edge">
<title>Node1&#45;&gt;Node2</title>
<g id="a_edge1_Node000001_Node000002"><a xlink:title=" ">
<path fill="none" stroke="#63b8ff" d="M179.37,-329.95C122.67,-319.11 48.28,-294.55 11,-239 -6.47,-212.98 29.37,-196.27 64.71,-186.57"/>
<polygon fill="#63b8ff" stroke="#63b8ff" points="65.81,-189.9 74.62,-184.01 64.06,-183.12 65.81,-189.9"/>
</a>
</g>
</g>
<!-- Node4 -->
<g id="Node000004" class="node">
<title>Node4</title>
<g id="a_Node000004"><a xlink:href="Vector3_8hpp.html" target="_top" xlink:title="Defines the Vector3 class.">
<polygon fill="white" stroke="#666666" points="222,-74 148,-74 148,-55 222,-55 222,-74"/>
<text text-anchor="middle" x="185" y="-62" font-family="Helvetica,sans-Serif" font-size="10.00">Vector3.hpp</text>
</a>
</g>
</g>
<!-- Node1&#45;&gt;Node4 -->
<g id="edge11_Node000001_Node000004" class="edge">
<title>Node1&#45;&gt;Node4</title>
<g id="a_edge11_Node000001_Node000004"><a xlink:title=" ">
<path fill="none" stroke="#63b8ff" d="M254,-329.82C254,-311.48 254,-267.44 254,-230.5 254,-230.5 254,-230.5 254,-173.5 254,-135.59 223.44,-100.3 202.99,-80.94"/>
<polygon fill="#63b8ff" stroke="#63b8ff" points="205.23,-78.24 195.48,-74.1 200.52,-83.42 205.23,-78.24"/>
</a>
</g>
</g>
<!-- Node9 -->
<g id="Node000009" class="node">
<title>Node9</title>
<g id="a_Node000009"><a xlink:href="Object_8hpp.html" target="_top" xlink:title="Defines the Object class, a special ECS entity wrapper.">
<polygon fill="white" stroke="#666666" points="390.5,-294 283.5,-294 283.5,-275 390.5,-275 390.5,-294"/>
<text text-anchor="middle" x="337" y="-282" font-family="Helvetica,sans-Serif" font-size="10.00">objects/Object.hpp</text>
</a>
</g>
</g>
<!-- Node1&#45;&gt;Node9 -->
<g id="edge12_Node000001_Node000009" class="edge">
<title>Node1&#45;&gt;Node9</title>
<g id="a_edge12_Node000001_Node000009"><a xlink:title=" ">
<path fill="none" stroke="#63b8ff" d="M267.34,-329.98C280.09,-321.84 299.55,-309.41 314.67,-299.76"/>
<polygon fill="#63b8ff" stroke="#63b8ff" points="316.88,-302.5 323.42,-294.17 313.11,-296.6 316.88,-302.5"/>
</a>
</g>
</g>
<!-- Node3 -->
<g id="Node000003" class="node">
<title>Node3</title>
<g id="a_Node000003"><a xlink:href="Quaternion_8hpp.html" target="_top" xlink:title="Defines the Quaternion class for representing 3D rotations.">
<polygon fill="white" stroke="#666666" points="92,-129 0,-129 0,-110 92,-110 92,-129"/>
<text text-anchor="middle" x="46" y="-117" font-family="Helvetica,sans-Serif" font-size="10.00">Quaternion.hpp</text>
</a>
</g>
</g>
<!-- Node2&#45;&gt;Node3 -->
<g id="edge2_Node000002_Node000003" class="edge">
<title>Node2&#45;&gt;Node3</title>
<g id="a_edge2_Node000002_Node000003"><a xlink:title=" ">
<path fill="none" stroke="#63b8ff" d="M108.95,-164.98C97.54,-156.92 80.17,-144.65 66.57,-135.03"/>
<polygon fill="#63b8ff" stroke="#63b8ff" points="68.46,-132.08 58.27,-129.17 64.42,-137.8 68.46,-132.08"/>
</a>
</g>
</g>
<!-- Node2&#45;&gt;Node4 -->
<g id="edge8_Node000002_Node000004" class="edge">
<title>Node2&#45;&gt;Node4</title>
<g id="a_edge8_Node000002_Node000004"><a xlink:title=" ">
<path fill="none" stroke="#63b8ff" d="M126.24,-164.66C136.79,-146.85 160.78,-106.37 174.63,-83.01"/>
<polygon fill="#63b8ff" stroke="#63b8ff" points="177.78,-84.55 179.87,-74.16 171.76,-80.98 177.78,-84.55"/>
</a>
</g>
</g>
<!-- Node6 -->
<g id="Node000006" class="node">
<title>Node6</title>
<g id="a_Node000006"><a xlink:title=" ">
<polygon fill="#e0e0e0" stroke="#999999" points="213,-19 157,-19 157,0 213,0 213,-19"/>
<text text-anchor="middle" x="185" y="-7" font-family="Helvetica,sans-Serif" font-size="10.00">sstream</text>
</a>
</g>
</g>
<!-- Node2&#45;&gt;Node6 -->
<g id="edge10_Node000002_Node000006" class="edge">
<title>Node2&#45;&gt;Node6</title>
<g id="a_edge10_Node000002_Node000006"><a xlink:title=" ">
<path fill="none" stroke="#63b8ff" d="M120.49,-164.89C119.66,-144.54 119.73,-92.35 139,-55 144.93,-43.51 154.97,-33.27 164.17,-25.52"/>
<polygon fill="#63b8ff" stroke="#63b8ff" points="166.56,-28.09 172.23,-19.13 162.22,-22.6 166.56,-28.09"/>
</a>
</g>
</g>
<!-- Node8 -->
<g id="Node000008" class="node">
<title>Node8</title>
<g id="a_Node000008"><a xlink:title=" ">
<polygon fill="#e0e0e0" stroke="#999999" points="905,-74 849,-74 849,-55 905,-55 905,-74"/>
<text text-anchor="middle" x="877" y="-62" font-family="Helvetica,sans-Serif" font-size="10.00">iomanip</text>
</a>
</g>
</g>
<!-- Node2&#45;&gt;Node8 -->
<g id="edge9_Node000002_Node000008" class="edge">
<title>Node2&#45;&gt;Node8</title>
<g id="a_edge9_Node000002_Node000008"><a xlink:title=" ">
<path fill="none" stroke="#63b8ff" d="M173.37,-172.52C269.54,-169.98 480.44,-160.92 655,-129 723.09,-116.55 800.31,-92.01 843.38,-77.35"/>
<polygon fill="#63b8ff" stroke="#63b8ff" points="844.74,-80.58 853.06,-74.03 842.46,-73.96 844.74,-80.58"/>
</a>
</g>
</g>
<!-- Node3&#45;&gt;Node4 -->
<g id="edge3_Node000003_Node000004" class="edge">
<title>Node3&#45;&gt;Node4</title>
<g id="a_edge3_Node000003_Node000004"><a xlink:title=" ">
<path fill="none" stroke="#63b8ff" d="M68.33,-109.98C91.2,-101.27 126.96,-87.63 152.86,-77.75"/>
<polygon fill="#63b8ff" stroke="#63b8ff" points="154.16,-81 162.26,-74.17 151.67,-74.46 154.16,-81"/>
</a>
</g>
</g>
<!-- Node5 -->
<g id="Node000005" class="node">
<title>Node5</title>
<g id="a_Node000005"><a xlink:title=" ">
<polygon fill="#e0e0e0" stroke="#999999" points="122.5,-19 75.5,-19 75.5,0 122.5,0 122.5,-19"/>
<text text-anchor="middle" x="99" y="-7" font-family="Helvetica,sans-Serif" font-size="10.00">cmath</text>
</a>
</g>
</g>
<!-- Node3&#45;&gt;Node5 -->
<g id="edge7_Node000003_Node000005" class="edge">
<title>Node3&#45;&gt;Node5</title>
<g id="a_edge7_Node000003_Node000005"><a xlink:title=" ">
<path fill="none" stroke="#63b8ff" d="M50.34,-109.66C59.04,-91.93 78.77,-51.73 90.26,-28.32"/>
<polygon fill="#63b8ff" stroke="#63b8ff" points="93.49,-29.68 94.75,-19.16 87.2,-26.59 93.49,-29.68"/>
</a>
</g>
</g>
<!-- Node4&#45;&gt;Node5 -->
<g id="edge4_Node000004_Node000005" class="edge">
<title>Node4&#45;&gt;Node5</title>
<g id="a_edge4_Node000004_Node000005"><a xlink:title=" ">
<path fill="none" stroke="#63b8ff" d="M171.18,-54.98C157.85,-46.77 137.42,-34.18 121.69,-24.49"/>
<polygon fill="#63b8ff" stroke="#63b8ff" points="123.42,-21.44 113.07,-19.17 119.75,-27.4 123.42,-21.44"/>
</a>
</g>
</g>
<!-- Node4&#45;&gt;Node6 -->
<g id="edge5_Node000004_Node000006" class="edge">
<title>Node4&#45;&gt;Node6</title>
<g id="a_edge5_Node000004_Node000006"><a xlink:title=" ">
<path fill="none" stroke="#63b8ff" d="M185,-54.75C185,-47.8 185,-37.85 185,-29.13"/>
<polygon fill="#63b8ff" stroke="#63b8ff" points="188.5,-29.09 185,-19.09 181.5,-29.09 188.5,-29.09"/>
</a>
</g>
</g>
<!-- Node7 -->
<g id="Node000007" class="node">
<title>Node7</title>
<g id="a_Node000007"><a xlink:title=" ">
<polygon fill="#e0e0e0" stroke="#999999" points="362,-19 318,-19 318,0 362,0 362,-19"/>
<text text-anchor="middle" x="340" y="-7" font-family="Helvetica,sans-Serif" font-size="10.00">string</text>
</a>
</g>
</g>
<!-- Node4&#45;&gt;Node7 -->
<g id="edge6_Node000004_Node000007" class="edge">
<title>Node4&#45;&gt;Node7</title>
<g id="a_edge6_Node000004_Node000007"><a xlink:title=" ">
<path fill="none" stroke="#63b8ff" d="M209.9,-54.98C236.54,-45.88 278.88,-31.4 307.98,-21.45"/>
<polygon fill="#63b8ff" stroke="#63b8ff" points="309.34,-24.68 317.67,-18.13 307.08,-18.06 309.34,-24.68"/>
</a>
</g>
</g>
<!-- Node10 -->
<g id="Node000010" class="node">
<title>Node10</title>
<g id="a_Node000010"><a xlink:href="Entity_8hpp.html" target="_top" xlink:title="Defines the Entity class, which serves as a wrapper for ECS entities.">
<polygon fill="white" stroke="#666666" points="874.5,-184 809.5,-184 809.5,-165 874.5,-165 874.5,-184"/>
<text text-anchor="middle" x="842" y="-172" font-family="Helvetica,sans-Serif" font-size="10.00">Entity.hpp</text>
</a>
</g>
</g>
<!-- Node9&#45;&gt;Node10 -->
<g id="edge13_Node000009_Node000010" class="edge">
<title>Node9&#45;&gt;Node10</title>
<g id="a_edge13_Node000009_Node000010"><a xlink:title=" ">
<path fill="none" stroke="#63b8ff" d="M377.05,-274.94C470.68,-254.91 703.25,-205.17 799.38,-184.62"/>
<polygon fill="#63b8ff" stroke="#63b8ff" points="800.28,-188 809.33,-182.49 798.82,-181.16 800.28,-188"/>
</a>
</g>
</g>
<!-- Node24 -->
<g id="Node000024" class="node">
<title>Node24</title>
<g id="a_Node000024"><a xlink:href="TransformComponent_8hpp.html" target="_top" xlink:title="Defines the TransformComponent for ECS&#45;based spatial transformations.">
<polygon fill="white" stroke="#666666" points="226,-239 20,-239 20,-220 226,-220 226,-239"/>
<text text-anchor="middle" x="123" y="-227" font-family="Helvetica,sans-Serif" font-size="10.00">components/TransformComponent.hpp</text>
</a>
</g>
</g>
<!-- Node9&#45;&gt;Node24 -->
<g id="edge31_Node000009_Node000024" class="edge">
<title>Node9&#45;&gt;Node24</title>
<g id="a_edge31_Node000009_Node000024"><a xlink:title=" ">
<path fill="none" stroke="#63b8ff" d="M302.62,-274.98C265.91,-265.89 207.62,-251.46 167.45,-241.51"/>
<polygon fill="#63b8ff" stroke="#63b8ff" points="168.2,-238.09 157.65,-239.08 166.52,-244.88 168.2,-238.09"/>
</a>
</g>
</g>
<!-- Node25 -->
<g id="Node000025" class="node">
<title>Node25</title>
<g id="a_Node000025"><a xlink:href="Mesh_8hpp.html" target="_top" xlink:title="Defines the Mesh class for managing 3D geometry.">
<polygon fill="white" stroke="#666666" points="395.5,-129 282.5,-129 282.5,-110 395.5,-110 395.5,-129"/>
<text text-anchor="middle" x="339" y="-117" font-family="Helvetica,sans-Serif" font-size="10.00">rendering/Mesh.hpp</text>
</a>
</g>
</g>
<!-- Node9&#45;&gt;Node25 -->
<g id="edge35_Node000009_Node000025" class="edge">
<title>Node9&#45;&gt;Node25</title>
<g id="a_edge35_Node000009_Node000025"><a xlink:title=" ">
<path fill="none" stroke="#63b8ff" d="M337.11,-274.74C337.42,-249.31 338.33,-175.08 338.76,-139.69"/>
<polygon fill="#63b8ff" stroke="#63b8ff" points="342.27,-139.35 338.89,-129.31 335.27,-139.26 342.27,-139.35"/>
</a>
</g>
</g>
<!-- Node11 -->
<g id="Node000011" class="node">
<title>Node11</title>
<g id="a_Node000011"><a xlink:href="Logger_8hpp.html" target="_top" xlink:title="Provides logging functionality.">
<polygon fill="white" stroke="#666666" points="1113,-129 1043,-129 1043,-110 1113,-110 1113,-129"/>
<text text-anchor="middle" x="1078" y="-117" font-family="Helvetica,sans-Serif" font-size="10.00">Logger.hpp</text>
</a>
</g>
</g>
<!-- Node10&#45;&gt;Node11 -->
<g id="edge14_Node000010_Node000011" class="edge">
<title>Node10&#45;&gt;Node11</title>
<g id="a_edge14_Node000010_Node000011"><a xlink:title=" ">
<path fill="none" stroke="#63b8ff" d="M874.81,-166.13C915.91,-156.9 986.52,-141.04 1032.73,-130.67"/>
<polygon fill="#63b8ff" stroke="#63b8ff" points="1033.78,-134.02 1042.77,-128.41 1032.25,-127.19 1033.78,-134.02"/>
</a>
</g>
</g>
<!-- Node15 -->
<g id="Node000015" class="node">
<title>Node15</title>
<g id="a_Node000015"><a xlink:title=" ">
<polygon fill="#e0e0e0" stroke="#999999" points="1356,-74 1296,-74 1296,-55 1356,-55 1356,-74"/>
<text text-anchor="middle" x="1326" y="-62" font-family="Helvetica,sans-Serif" font-size="10.00">iostream</text>
</a>
</g>
</g>
<!-- Node10&#45;&gt;Node15 -->
<g id="edge30_Node000010_Node000015" class="edge">
<title>Node10&#45;&gt;Node15</title>
<g id="a_edge30_Node000010_Node000015"><a xlink:title=" ">
<path fill="none" stroke="#63b8ff" d="M874.63,-169.86C927.17,-163.66 1033.57,-149.68 1122,-129 1183.27,-114.68 1252.91,-91.45 1292.92,-77.42"/>
<polygon fill="#63b8ff" stroke="#63b8ff" points="1294.17,-80.69 1302.44,-74.06 1291.84,-74.09 1294.17,-80.69"/>
</a>
</g>
</g>
<!-- Node17 -->
<g id="Node000017" class="node">
<title>Node17</title>
<g id="a_Node000017"><a xlink:href="Registry_8hpp.html" target="_top" xlink:title="Defines the Registry class for managing ECS entities and components.">
<polygon fill="white" stroke="#666666" points="645.5,-129 568.5,-129 568.5,-110 645.5,-110 645.5,-129"/>
<text text-anchor="middle" x="607" y="-117" font-family="Helvetica,sans-Serif" font-size="10.00">Registry.hpp</text>
</a>
</g>
</g>
<!-- Node10&#45;&gt;Node17 -->
<g id="edge23_Node000010_Node000017" class="edge">
<title>Node10&#45;&gt;Node17</title>
<g id="a_edge23_Node000010_Node000017"><a xlink:title=" ">
<path fill="none" stroke="#63b8ff" d="M809.32,-166.13C769.23,-157.09 700.9,-141.68 654.88,-131.3"/>
<polygon fill="#63b8ff" stroke="#63b8ff" points="655.36,-127.82 644.84,-129.03 653.82,-134.65 655.36,-127.82"/>
</a>
</g>
</g>
<!-- Node11&#45;&gt;Node6 -->
<g id="edge21_Node000011_Node000006" class="edge">
<title>Node11&#45;&gt;Node6</title>
<g id="a_edge21_Node000011_Node000006"><a xlink:title=" ">
<path fill="none" stroke="#63b8ff" d="M1051.34,-109.97C1025.8,-101.57 986.34,-88.01 953,-74 935.22,-66.53 932.65,-59.89 914,-55 783.72,-20.85 443.41,-27.61 309,-19 280.17,-17.15 247.58,-14.91 223.05,-13.2"/>
<polygon fill="#63b8ff" stroke="#63b8ff" points="223.29,-9.71 213.07,-12.5 222.8,-16.69 223.29,-9.71"/>
</a>
</g>
</g>
<!-- Node11&#45;&gt;Node7 -->
<g id="edge22_Node000011_Node000007" class="edge">
<title>Node11&#45;&gt;Node7</title>
<g id="a_edge22_Node000011_Node000007"><a xlink:title=" ">
<path fill="none" stroke="#63b8ff" d="M1113.04,-110.68C1151.78,-100.53 1205.65,-80.99 1181,-55 1152.69,-25.15 523.84,-13.39 372.53,-10.98"/>
<polygon fill="#63b8ff" stroke="#63b8ff" points="372.14,-7.48 362.08,-10.82 372.03,-14.48 372.14,-7.48"/>
</a>
</g>
</g>
<!-- Node11&#45;&gt;Node8 -->
<g id="edge18_Node000011_Node000008" class="edge">
<title>Node11&#45;&gt;Node8</title>
<g id="a_edge18_Node000011_Node000008"><a xlink:title=" ">
<path fill="none" stroke="#63b8ff" d="M1045.71,-109.98C1010.2,-100.62 953.2,-85.59 915.43,-75.63"/>
<polygon fill="#63b8ff" stroke="#63b8ff" points="915.88,-72.13 905.32,-72.97 914.09,-78.9 915.88,-72.13"/>
</a>
</g>
</g>
<!-- Node12 -->
<g id="Node000012" class="node">
<title>Node12</title>
<g id="a_Node000012"><a xlink:title=" ">
<polygon fill="#e0e0e0" stroke="#999999" points="1278,-74 1228,-74 1228,-55 1278,-55 1278,-74"/>
<text text-anchor="middle" x="1253" y="-62" font-family="Helvetica,sans-Serif" font-size="10.00">chrono</text>
</a>
</g>
</g>
<!-- Node11&#45;&gt;Node12 -->
<g id="edge15_Node000011_Node000012" class="edge">
<title>Node11&#45;&gt;Node12</title>
<g id="a_edge15_Node000011_Node000012"><a xlink:title=" ">
<path fill="none" stroke="#63b8ff" d="M1106.12,-109.98C1136.59,-100.76 1185.25,-86.02 1218.13,-76.06"/>
<polygon fill="#63b8ff" stroke="#63b8ff" points="1219.24,-79.38 1227.79,-73.13 1217.21,-72.68 1219.24,-79.38"/>
</a>
</g>
</g>
<!-- Node13 -->
<g id="Node000013" class="node">
<title>Node13</title>
<g id="a_Node000013"><a xlink:title=" ">
<polygon fill="#e0e0e0" stroke="#999999" points="1032.5,-74 961.5,-74 961.5,-55 1032.5,-55 1032.5,-74"/>
<text text-anchor="middle" x="997" y="-62" font-family="Helvetica,sans-Serif" font-size="10.00">fmt/printf.h</text>
</a>
</g>
</g>
<!-- Node11&#45;&gt;Node13 -->
<g id="edge16_Node000011_Node000013" class="edge">
<title>Node11&#45;&gt;Node13</title>
<g id="a_edge16_Node000011_Node000013"><a xlink:title=" ">
<path fill="none" stroke="#63b8ff" d="M1064.99,-109.98C1052.54,-101.84 1033.54,-89.41 1018.79,-79.76"/>
<polygon fill="#63b8ff" stroke="#63b8ff" points="1020.54,-76.72 1010.25,-74.17 1016.7,-82.57 1020.54,-76.72"/>
</a>
</g>
</g>
<!-- Node14 -->
<g id="Node000014" class="node">
<title>Node14</title>
<g id="a_Node000014"><a xlink:title=" ">
<polygon fill="#e0e0e0" stroke="#999999" points="1105.5,-74 1050.5,-74 1050.5,-55 1105.5,-55 1105.5,-74"/>
<text text-anchor="middle" x="1078" y="-62" font-family="Helvetica,sans-Serif" font-size="10.00">fstream</text>
</a>
</g>
</g>
<!-- Node11&#45;&gt;Node14 -->
<g id="edge17_Node000011_Node000014" class="edge">
<title>Node11&#45;&gt;Node14</title>
<g id="a_edge17_Node000011_Node000014"><a xlink:title=" ">
<path fill="none" stroke="#63b8ff" d="M1078,-109.75C1078,-102.8 1078,-92.85 1078,-84.13"/>
<polygon fill="#63b8ff" stroke="#63b8ff" points="1081.5,-84.09 1078,-74.09 1074.5,-84.09 1081.5,-84.09"/>
</a>
</g>
</g>
<!-- Node11&#45;&gt;Node15 -->
<g id="edge19_Node000011_Node000015" class="edge">
<title>Node11&#45;&gt;Node15</title>
<g id="a_edge19_Node000011_Node000015"><a xlink:title=" ">
<path fill="none" stroke="#63b8ff" d="M1113.14,-111.07C1152.73,-102.69 1219.28,-88.57 1285.94,-74.22"/>
<polygon fill="#63b8ff" stroke="#63b8ff" points="1286.73,-77.63 1295.77,-72.1 1285.26,-70.79 1286.73,-77.63"/>
</a>
</g>
</g>
<!-- Node16 -->
<g id="Node000016" class="node">
<title>Node16</title>
<g id="a_Node000016"><a xlink:title=" ">
<polygon fill="#e0e0e0" stroke="#999999" points="1172,-74 1124,-74 1124,-55 1172,-55 1172,-74"/>
<text text-anchor="middle" x="1148" y="-62" font-family="Helvetica,sans-Serif" font-size="10.00">mutex</text>
</a>
</g>
</g>
<!-- Node11&#45;&gt;Node16 -->
<g id="edge20_Node000011_Node000016" class="edge">
<title>Node11&#45;&gt;Node16</title>
<g id="a_edge20_Node000011_Node000016"><a xlink:title=" ">
<path fill="none" stroke="#63b8ff" d="M1089.25,-109.98C1099.8,-102 1115.8,-89.88 1128.44,-80.31"/>
<polygon fill="#63b8ff" stroke="#63b8ff" points="1130.69,-83 1136.55,-74.17 1126.46,-77.42 1130.69,-83"/>
</a>
</g>
</g>
<!-- Node18 -->
<g id="Node000018" class="node">
<title>Node18</title>
<g id="a_Node000018"><a xlink:title=" ">
<polygon fill="#e0e0e0" stroke="#999999" points="498,-74 434,-74 434,-55 498,-55 498,-74"/>
<text text-anchor="middle" x="466" y="-62" font-family="Helvetica,sans-Serif" font-size="10.00">algorithm</text>
</a>
</g>
</g>
<!-- Node17&#45;&gt;Node18 -->
<g id="edge24_Node000017_Node000018" class="edge">
<title>Node17&#45;&gt;Node18</title>
<g id="a_edge24_Node000017_Node000018"><a xlink:title=" ">
<path fill="none" stroke="#63b8ff" d="M584.35,-109.98C561.15,-101.27 524.88,-87.63 498.6,-77.75"/>
<polygon fill="#63b8ff" stroke="#63b8ff" points="499.66,-74.41 489.07,-74.17 497.2,-80.97 499.66,-74.41"/>
</a>
</g>
</g>
<!-- Node19 -->
<g id="Node000019" class="node">
<title>Node19</title>
<g id="a_Node000019"><a xlink:title=" ">
<polygon fill="#e0e0e0" stroke="#999999" points="560,-74 516,-74 516,-55 560,-55 560,-74"/>
<text text-anchor="middle" x="538" y="-62" font-family="Helvetica,sans-Serif" font-size="10.00">bitset</text>
</a>
</g>
</g>
<!-- Node17&#45;&gt;Node19 -->
<g id="edge25_Node000017_Node000019" class="edge">
<title>Node17&#45;&gt;Node19</title>
<g id="a_edge25_Node000017_Node000019"><a xlink:title=" ">
<path fill="none" stroke="#63b8ff" d="M595.91,-109.98C585.51,-102 569.74,-89.88 557.28,-80.31"/>
<polygon fill="#63b8ff" stroke="#63b8ff" points="559.35,-77.49 549.29,-74.17 555.09,-83.04 559.35,-77.49"/>
</a>
</g>
</g>
<!-- Node20 -->
<g id="Node000020" class="node">
<title>Node20</title>
<g id="a_Node000020"><a xlink:title=" ">
<polygon fill="#e0e0e0" stroke="#999999" points="636,-74 578,-74 578,-55 636,-55 636,-74"/>
<text text-anchor="middle" x="607" y="-62" font-family="Helvetica,sans-Serif" font-size="10.00">memory</text>
</a>
</g>
</g>
<!-- Node17&#45;&gt;Node20 -->
<g id="edge26_Node000017_Node000020" class="edge">
<title>Node17&#45;&gt;Node20</title>
<g id="a_edge26_Node000017_Node000020"><a xlink:title=" ">
<path fill="none" stroke="#63b8ff" d="M607,-109.75C607,-102.8 607,-92.85 607,-84.13"/>
<polygon fill="#63b8ff" stroke="#63b8ff" points="610.5,-84.09 607,-74.09 603.5,-84.09 610.5,-84.09"/>
</a>
</g>
</g>
<!-- Node21 -->
<g id="Node000021" class="node">
<title>Node21</title>
<g id="a_Node000021"><a xlink:title=" ">
<polygon fill="#e0e0e0" stroke="#999999" points="719.5,-74 654.5,-74 654.5,-55 719.5,-55 719.5,-74"/>
<text text-anchor="middle" x="687" y="-62" font-family="Helvetica,sans-Serif" font-size="10.00">stdexcept</text>
</a>
</g>
</g>
<!-- Node17&#45;&gt;Node21 -->
<g id="edge27_Node000017_Node000021" class="edge">
<title>Node17&#45;&gt;Node21</title>
<g id="a_edge27_Node000017_Node000021"><a xlink:title=" ">
<path fill="none" stroke="#63b8ff" d="M619.85,-109.98C632.14,-101.84 650.91,-89.41 665.48,-79.76"/>
<polygon fill="#63b8ff" stroke="#63b8ff" points="667.51,-82.61 673.91,-74.17 663.64,-76.78 667.51,-82.61"/>
</a>
</g>
</g>
<!-- Node22 -->
<g id="Node000022" class="node">
<title>Node22</title>
<g id="a_Node000022"><a xlink:title=" ">
<polygon fill="#e0e0e0" stroke="#999999" points="830.5,-74 737.5,-74 737.5,-55 830.5,-55 830.5,-74"/>
<text text-anchor="middle" x="784" y="-62" font-family="Helvetica,sans-Serif" font-size="10.00">unordered_map</text>
</a>
</g>
</g>
<!-- Node17&#45;&gt;Node22 -->
<g id="edge28_Node000017_Node000022" class="edge">
<title>Node17&#45;&gt;Node22</title>
<g id="a_edge28_Node000017_Node000022"><a xlink:title=" ">
<path fill="none" stroke="#63b8ff" d="M635.44,-109.98C665.28,-101.05 712.38,-86.94 745.53,-77.02"/>
<polygon fill="#63b8ff" stroke="#63b8ff" points="746.76,-80.3 755.34,-74.08 744.76,-73.6 746.76,-80.3"/>
</a>
</g>
</g>
<!-- Node23 -->
<g id="Node000023" class="node">
<title>Node23</title>
<g id="a_Node000023"><a xlink:title=" ">
<polygon fill="#e0e0e0" stroke="#999999" points="415.5,-74 368.5,-74 368.5,-55 415.5,-55 415.5,-74"/>
<text text-anchor="middle" x="392" y="-62" font-family="Helvetica,sans-Serif" font-size="10.00">vector</text>
</a>
</g>
</g>
<!-- Node17&#45;&gt;Node23 -->
<g id="edge29_Node000017_Node000023" class="edge">
<title>Node17&#45;&gt;Node23</title>
<g id="a_edge29_Node000017_Node000023"><a xlink:title=" ">
<path fill="none" stroke="#63b8ff" d="M571.4,-109.93C536.69,-101.55 482.17,-88.3 425.62,-74.13"/>
<polygon fill="#63b8ff" stroke="#63b8ff" points="426.34,-70.7 415.78,-71.66 424.63,-77.49 426.34,-70.7"/>
</a>
</g>
</g>
<!-- Node24&#45;&gt;Node2 -->
<g id="edge32_Node000024_Node000002" class="edge">
<title>Node24&#45;&gt;Node2</title>
<g id="a_edge32_Node000024_Node000002"><a xlink:title=" ">
<path fill="none" stroke="#63b8ff" d="M122.67,-219.75C122.41,-212.8 122.03,-202.85 121.7,-194.13"/>
<polygon fill="#63b8ff" stroke="#63b8ff" points="125.2,-193.95 121.32,-184.09 118.2,-194.21 125.2,-193.95"/>
</a>
</g>
</g>
<!-- Node24&#45;&gt;Node3 -->
<g id="edge33_Node000024_Node000003" class="edge">
<title>Node24&#45;&gt;Node3</title>
<g id="a_edge33_Node000024_Node000003"><a xlink:title=" ">
<path fill="none" stroke="#63b8ff" d="M104.09,-219.93C89.79,-212.47 70.82,-200.28 60,-184 51.12,-170.63 47.78,-152.52 46.57,-139.07"/>
<polygon fill="#63b8ff" stroke="#63b8ff" points="50.07,-138.84 45.98,-129.06 43.08,-139.25 50.07,-138.84"/>
</a>
</g>
</g>
<!-- Node24&#45;&gt;Node4 -->
<g id="edge34_Node000024_Node000004" class="edge">
<title>Node24&#45;&gt;Node4</title>
<g id="a_edge34_Node000024_Node000004"><a xlink:title=" ">
<path fill="none" stroke="#63b8ff" d="M141.86,-219.99C155.69,-212.62 173.49,-200.54 182,-184 198.41,-152.09 193.86,-108.66 189.28,-84.22"/>
<polygon fill="#63b8ff" stroke="#63b8ff" points="192.65,-83.24 187.19,-74.16 185.8,-84.66 192.65,-83.24"/>
</a>
</g>
</g>
<!-- Node25&#45;&gt;Node4 -->
<g id="edge36_Node000025_Node000004" class="edge">
<title>Node25&#45;&gt;Node4</title>
<g id="a_edge36_Node000025_Node000004"><a xlink:title=" ">
<path fill="none" stroke="#63b8ff" d="M314.26,-109.98C288.63,-101.16 248.37,-87.31 219.59,-77.41"/>
<polygon fill="#63b8ff" stroke="#63b8ff" points="220.53,-74.03 209.94,-74.08 218.25,-80.65 220.53,-74.03"/>
</a>
</g>
</g>
<!-- Node25&#45;&gt;Node7 -->
<g id="edge38_Node000025_Node000007" class="edge">
<title>Node25&#45;&gt;Node7</title>
<g id="a_edge38_Node000025_Node000007"><a xlink:title=" ">
<path fill="none" stroke="#63b8ff" d="M339.08,-109.66C339.24,-92.17 339.61,-52.8 339.83,-29.27"/>
<polygon fill="#63b8ff" stroke="#63b8ff" points="343.33,-29.19 339.92,-19.16 336.33,-29.13 343.33,-29.19"/>
</a>
</g>
</g>
<!-- Node25&#45;&gt;Node23 -->
<g id="edge39_Node000025_Node000023" class="edge">
<title>Node25&#45;&gt;Node23</title>
<g id="a_edge39_Node000025_Node000023"><a xlink:title=" ">
<path fill="none" stroke="#63b8ff" d="M347.75,-109.75C355.47,-102.03 366.9,-90.6 376.22,-81.28"/>
<polygon fill="#63b8ff" stroke="#63b8ff" points="378.81,-83.64 383.41,-74.09 373.86,-78.69 378.81,-83.64"/>
</a>
</g>
</g>
<!-- Node26 -->
<g id="Node000026" class="node">
<title>Node26</title>
<g id="a_Node000026"><a xlink:title=" ">
<polygon fill="#e0e0e0" stroke="#999999" points="311.5,-74 240.5,-74 240.5,-55 311.5,-55 311.5,-74"/>
<text text-anchor="middle" x="276" y="-62" font-family="Helvetica,sans-Serif" font-size="10.00">glad/glad.h</text>
</a>
</g>
</g>
<!-- Node25&#45;&gt;Node26 -->
<g id="edge37_Node000025_Node000026" class="edge">
<title>Node25&#45;&gt;Node26</title>
<g id="a_edge37_Node000025_Node000026"><a xlink:title=" ">
<path fill="none" stroke="#63b8ff" d="M328.88,-109.98C319.56,-102.15 305.53,-90.34 294.26,-80.86"/>
<polygon fill="#63b8ff" stroke="#63b8ff" points="296.21,-77.93 286.31,-74.17 291.71,-83.29 296.21,-77.93"/>
</a>
</g>
</g>
</g>
</svg>
