<?xml version="1.0" encoding="UTF-8" standalone="no"?>
<!DOCTYPE svg PUBLIC "-//W3C//DTD SVG 1.1//EN"
 "http://www.w3.org/Graphics/SVG/1.1/DTD/svg11.dtd">
<!-- Generated by graphviz version 2.43.0 (0)
 -->
<!-- Title: include/rendering/Camera.hpp Pages: 1 -->
<svg width="237pt" height="192pt"
 viewBox="0.00 0.00 236.50 192.00" xmlns="http://www.w3.org/2000/svg" xmlns:xlink="http://www.w3.org/1999/xlink">
<g id="graph0" class="graph" transform="scale(1 1) rotate(0) translate(4 188)">
<title>include/rendering/Camera.hpp</title>
<!-- Node1 -->
<g id="Node000001" class="node">
<title>Node1</title>
<g id="a_Node000001"><a xlink:title="Defines the Camera class for view and projection.">
<polygon fill="#999999" stroke="#666666" points="170,-184 6,-184 6,-165 170,-165 170,-184"/>
<text text-anchor="middle" x="88" y="-172" font-family="Helvetica,sans-Serif" font-size="10.00">include/rendering/Camera.hpp</text>
</a>
</g>
</g>
<!-- Node2 -->
<g id="Node000002" class="node">
<title>Node2</title>
<g id="a_Node000002"><a xlink:href="FrameEngine_8hpp_source.html" target="_top" xlink:title=" ">
<polygon fill="white" stroke="#666666" points="140,-19 0,-19 0,0 140,0 140,-19"/>
<text text-anchor="middle" x="70" y="-7" font-family="Helvetica,sans-Serif" font-size="10.00">include/FrameEngine.hpp</text>
</a>
</g>
</g>
<!-- Node1&#45;&gt;Node2 -->
<g id="edge1_Node000001_Node000002" class="edge">
<title>Node1&#45;&gt;Node2</title>
<g id="a_edge1_Node000001_Node000002"><a xlink:title=" ">
<path fill="none" stroke="#63b8ff" d="M69.9,-157.95C62.19,-150.14 54.06,-140.01 50,-129 35.49,-89.66 56.09,-39.04 65.62,-19.11"/>
<polygon fill="#63b8ff" stroke="#63b8ff" points="67.61,-160.61 77.29,-164.93 72.42,-155.52 67.61,-160.61"/>
</a>
</g>
</g>
<!-- Node3 -->
<g id="Node000003" class="node">
<title>Node3</title>
<g id="a_Node000003"><a xlink:href="Renderer_8hpp.html" target="_top" xlink:title="Manages the rendering pipeline and object submission.">
<polygon fill="white" stroke="#666666" points="228.5,-129 59.5,-129 59.5,-110 228.5,-110 228.5,-129"/>
<text text-anchor="middle" x="144" y="-117" font-family="Helvetica,sans-Serif" font-size="10.00">include/rendering/Renderer.hpp</text>
</a>
</g>
</g>
<!-- Node1&#45;&gt;Node3 -->
<g id="edge2_Node000001_Node000003" class="edge">
<title>Node1&#45;&gt;Node3</title>
<g id="a_edge2_Node000001_Node000003"><a xlink:title=" ">
<path fill="none" stroke="#63b8ff" d="M104.33,-158.04C114.26,-148.64 126.59,-136.98 134.84,-129.17"/>
<polygon fill="#63b8ff" stroke="#63b8ff" points="101.85,-155.57 97,-164.98 106.67,-160.65 101.85,-155.57"/>
</a>
</g>
</g>
<!-- Node3&#45;&gt;Node2 -->
<g id="edge5_Node000003_Node000002" class="edge">
<title>Node3&#45;&gt;Node2</title>
<g id="a_edge5_Node000003_Node000002"><a xlink:title=" ">
<path fill="none" stroke="#63b8ff" d="M120.42,-104.21C109.46,-96.5 97.1,-86.07 89,-74 77.47,-56.8 72.76,-32.39 70.98,-19.42"/>
<polygon fill="#63b8ff" stroke="#63b8ff" points="118.54,-107.16 128.8,-109.8 122.42,-101.34 118.54,-107.16"/>
</a>
</g>
</g>
<!-- Node4 -->
<g id="Node000004" class="node">
<title>Node4</title>
<g id="a_Node000004"><a xlink:href="Engine_8hpp.html" target="_top" xlink:title="Defines the core Engine class responsible for running simulation.">
<polygon fill="white" stroke="#666666" points="207.5,-74 98.5,-74 98.5,-55 207.5,-55 207.5,-74"/>
<text text-anchor="middle" x="153" y="-62" font-family="Helvetica,sans-Serif" font-size="10.00">include/Engine.hpp</text>
</a>
</g>
</g>
<!-- Node3&#45;&gt;Node4 -->
<g id="edge3_Node000003_Node000004" class="edge">
<title>Node3&#45;&gt;Node4</title>
<g id="a_edge3_Node000003_Node000004"><a xlink:title=" ">
<path fill="none" stroke="#63b8ff" d="M147.2,-99.66C148.68,-90.93 150.37,-80.99 151.54,-74.09"/>
<polygon fill="#63b8ff" stroke="#63b8ff" points="143.71,-99.3 145.49,-109.75 150.61,-100.48 143.71,-99.3"/>
</a>
</g>
</g>
<!-- Node4&#45;&gt;Node2 -->
<g id="edge4_Node000004_Node000002" class="edge">
<title>Node4&#45;&gt;Node2</title>
<g id="a_edge4_Node000004_Node000002"><a xlink:title=" ">
<path fill="none" stroke="#63b8ff" d="M130.96,-49.42C115.89,-39.81 96.41,-27.37 83.58,-19.17"/>
<polygon fill="#63b8ff" stroke="#63b8ff" points="129.35,-52.55 139.66,-54.98 133.12,-46.65 129.35,-52.55"/>
</a>
</g>
</g>
</g>
</svg>
