<?xml version="1.0" encoding="UTF-8" standalone="no"?>
<!DOCTYPE svg PUBLIC "-//W3C//DTD SVG 1.1//EN"
 "http://www.w3.org/Graphics/SVG/1.1/DTD/svg11.dtd">
<!-- Generated by graphviz version 2.43.0 (0)
 -->
<!-- Title: include/rendering/Camera.hpp Pages: 1 -->
<svg width="1596pt" height="467pt"
 viewBox="0.00 0.00 1595.50 467.00" xmlns="http://www.w3.org/2000/svg" xmlns:xlink="http://www.w3.org/1999/xlink">
<g id="graph0" class="graph" transform="scale(1 1) rotate(0) translate(4 463)">
<title>include/rendering/Camera.hpp</title>
<!-- Node1 -->
<g id="Node000001" class="node">
<title>Node1</title>
<g id="a_Node000001"><a xlink:title="Defines the Camera class for view and projection.">
<polygon fill="#999999" stroke="#666666" points="1587.5,-459 1423.5,-459 1423.5,-440 1587.5,-440 1587.5,-459"/>
<text text-anchor="middle" x="1505.5" y="-447" font-family="Helvetica,sans-Serif" font-size="10.00">include/rendering/Camera.hpp</text>
</a>
</g>
</g>
<!-- Node2 -->
<g id="Node000002" class="node">
<title>Node2</title>
<g id="a_Node000002"><a xlink:href="Matrix4_8hpp.html" target="_top" xlink:title="Defines the Matrix4 class for 3D transformation operations.">
<polygon fill="white" stroke="#666666" points="1413.5,-184 1309.5,-184 1309.5,-165 1413.5,-165 1413.5,-184"/>
<text text-anchor="middle" x="1361.5" y="-172" font-family="Helvetica,sans-Serif" font-size="10.00">math/Matrix4.hpp</text>
</a>
</g>
</g>
<!-- Node1&#45;&gt;Node2 -->
<g id="edge1_Node000001_Node000002" class="edge">
<title>Node1&#45;&gt;Node2</title>
<g id="a_edge1_Node000001_Node000002"><a xlink:title=" ">
<path fill="none" stroke="#63b8ff" d="M1505.5,-439.82C1505.5,-421.48 1505.5,-377.44 1505.5,-340.5 1505.5,-340.5 1505.5,-340.5 1505.5,-283.5 1505.5,-254.04 1506.79,-241.36 1486.5,-220 1469.92,-202.54 1446.03,-191.92 1423.58,-185.47"/>
<polygon fill="#63b8ff" stroke="#63b8ff" points="1424.29,-182.04 1413.73,-182.86 1422.51,-188.8 1424.29,-182.04"/>
</a>
</g>
</g>
<!-- Node4 -->
<g id="Node000004" class="node">
<title>Node4</title>
<g id="a_Node000004"><a xlink:href="Vector3_8hpp.html" target="_top" xlink:title="Defines the Vector3 class.">
<polygon fill="white" stroke="#666666" points="1299.5,-74 1225.5,-74 1225.5,-55 1299.5,-55 1299.5,-74"/>
<text text-anchor="middle" x="1262.5" y="-62" font-family="Helvetica,sans-Serif" font-size="10.00">Vector3.hpp</text>
</a>
</g>
</g>
<!-- Node1&#45;&gt;Node4 -->
<g id="edge11_Node000001_Node000004" class="edge">
<title>Node1&#45;&gt;Node4</title>
<g id="a_edge11_Node000001_Node000004"><a xlink:title=" ">
<path fill="none" stroke="#63b8ff" d="M1510.78,-439.9C1521.23,-422.07 1543.5,-379.46 1543.5,-340.5 1543.5,-340.5 1543.5,-340.5 1543.5,-173.5 1543.5,-135.58 1519.45,-128.77 1486.5,-110 1431.29,-78.56 1357.43,-69.04 1309.9,-66.32"/>
<polygon fill="#63b8ff" stroke="#63b8ff" points="1310.04,-62.83 1299.88,-65.83 1309.7,-69.82 1310.04,-62.83"/>
</a>
</g>
</g>
<!-- Node9 -->
<g id="Node000009" class="node">
<title>Node9</title>
<g id="a_Node000009"><a xlink:href="Object_8hpp.html" target="_top" xlink:title="Defines the Object class, a special ECS entity wrapper.">
<polygon fill="white" stroke="#666666" points="1164,-404 1057,-404 1057,-385 1164,-385 1164,-404"/>
<text text-anchor="middle" x="1110.5" y="-392" font-family="Helvetica,sans-Serif" font-size="10.00">objects/Object.hpp</text>
</a>
</g>
</g>
<!-- Node1&#45;&gt;Node9 -->
<g id="edge12_Node000001_Node000009" class="edge">
<title>Node1&#45;&gt;Node9</title>
<g id="a_edge12_Node000001_Node000009"><a xlink:title=" ">
<path fill="none" stroke="#63b8ff" d="M1442.04,-439.98C1368.51,-430.12 1248.06,-413.96 1174.37,-404.07"/>
<polygon fill="#63b8ff" stroke="#63b8ff" points="1174.67,-400.58 1164.29,-402.72 1173.73,-407.52 1174.67,-400.58"/>
</a>
</g>
</g>
<!-- Node3 -->
<g id="Node000003" class="node">
<title>Node3</title>
<g id="a_Node000003"><a xlink:href="Quaternion_8hpp.html" target="_top" xlink:title="Defines the Quaternion class for representing 3D rotations.">
<polygon fill="white" stroke="#666666" points="1477.5,-129 1385.5,-129 1385.5,-110 1477.5,-110 1477.5,-129"/>
<text text-anchor="middle" x="1431.5" y="-117" font-family="Helvetica,sans-Serif" font-size="10.00">Quaternion.hpp</text>
</a>
</g>
</g>
<!-- Node2&#45;&gt;Node3 -->
<g id="edge2_Node000002_Node000003" class="edge">
<title>Node2&#45;&gt;Node3</title>
<g id="a_edge2_Node000002_Node000003"><a xlink:title=" ">
<path fill="none" stroke="#63b8ff" d="M1372.75,-164.98C1383.3,-157 1399.3,-144.88 1411.94,-135.31"/>
<polygon fill="#63b8ff" stroke="#63b8ff" points="1414.19,-138 1420.05,-129.17 1409.96,-132.42 1414.19,-138"/>
</a>
</g>
</g>
<!-- Node2&#45;&gt;Node4 -->
<g id="edge8_Node000002_Node000004" class="edge">
<title>Node2&#45;&gt;Node4</title>
<g id="a_edge8_Node000002_Node000004"><a xlink:title=" ">
<path fill="none" stroke="#63b8ff" d="M1353.4,-164.66C1336.78,-146.54 1298.63,-104.91 1277.41,-81.77"/>
<polygon fill="#63b8ff" stroke="#63b8ff" points="1279.77,-79.16 1270.44,-74.16 1274.61,-83.89 1279.77,-79.16"/>
</a>
</g>
</g>
<!-- Node6 -->
<g id="Node000006" class="node">
<title>Node6</title>
<g id="a_Node000006"><a xlink:title=" ">
<polygon fill="#e0e0e0" stroke="#999999" points="1290.5,-19 1234.5,-19 1234.5,0 1290.5,0 1290.5,-19"/>
<text text-anchor="middle" x="1262.5" y="-7" font-family="Helvetica,sans-Serif" font-size="10.00">sstream</text>
</a>
</g>
</g>
<!-- Node2&#45;&gt;Node6 -->
<g id="edge10_Node000002_Node000006" class="edge">
<title>Node2&#45;&gt;Node6</title>
<g id="a_edge10_Node000002_Node000006"><a xlink:title=" ">
<path fill="none" stroke="#63b8ff" d="M1358.91,-164.88C1352.52,-144.51 1334.63,-92.28 1308.5,-55 1300.88,-44.13 1290.36,-33.72 1281.3,-25.7"/>
<polygon fill="#63b8ff" stroke="#63b8ff" points="1283.4,-22.89 1273.52,-19.07 1278.86,-28.22 1283.4,-22.89"/>
</a>
</g>
</g>
<!-- Node8 -->
<g id="Node000008" class="node">
<title>Node8</title>
<g id="a_Node000008"><a xlink:title=" ">
<polygon fill="#e0e0e0" stroke="#999999" points="1101.5,-129 1045.5,-129 1045.5,-110 1101.5,-110 1101.5,-129"/>
<text text-anchor="middle" x="1073.5" y="-117" font-family="Helvetica,sans-Serif" font-size="10.00">iomanip</text>
</a>
</g>
</g>
<!-- Node2&#45;&gt;Node8 -->
<g id="edge9_Node000002_Node000008" class="edge">
<title>Node2&#45;&gt;Node8</title>
<g id="a_edge9_Node000002_Node000008"><a xlink:title=" ">
<path fill="none" stroke="#63b8ff" d="M1315.23,-164.98C1258.73,-154.59 1164.23,-137.2 1111.69,-127.53"/>
<polygon fill="#63b8ff" stroke="#63b8ff" points="1112.23,-124.07 1101.76,-125.7 1110.96,-130.95 1112.23,-124.07"/>
</a>
</g>
</g>
<!-- Node3&#45;&gt;Node4 -->
<g id="edge3_Node000003_Node000004" class="edge">
<title>Node3&#45;&gt;Node4</title>
<g id="a_edge3_Node000003_Node000004"><a xlink:title=" ">
<path fill="none" stroke="#63b8ff" d="M1404.35,-109.98C1375.97,-101.09 1331.27,-87.07 1299.64,-77.15"/>
<polygon fill="#63b8ff" stroke="#63b8ff" points="1300.45,-73.73 1289.87,-74.08 1298.36,-80.41 1300.45,-73.73"/>
</a>
</g>
</g>
<!-- Node5 -->
<g id="Node000005" class="node">
<title>Node5</title>
<g id="a_Node000005"><a xlink:title=" ">
<polygon fill="#e0e0e0" stroke="#999999" points="1387,-19 1340,-19 1340,0 1387,0 1387,-19"/>
<text text-anchor="middle" x="1363.5" y="-7" font-family="Helvetica,sans-Serif" font-size="10.00">cmath</text>
</a>
</g>
</g>
<!-- Node3&#45;&gt;Node5 -->
<g id="edge7_Node000003_Node000005" class="edge">
<title>Node3&#45;&gt;Node5</title>
<g id="a_edge7_Node000003_Node000005"><a xlink:title=" ">
<path fill="none" stroke="#63b8ff" d="M1425.94,-109.66C1414.67,-91.77 1389,-51 1374.33,-27.69"/>
<polygon fill="#63b8ff" stroke="#63b8ff" points="1377.24,-25.76 1368.95,-19.16 1371.32,-29.49 1377.24,-25.76"/>
</a>
</g>
</g>
<!-- Node4&#45;&gt;Node5 -->
<g id="edge4_Node000004_Node000005" class="edge">
<title>Node4&#45;&gt;Node5</title>
<g id="a_edge4_Node000004_Node000005"><a xlink:title=" ">
<path fill="none" stroke="#63b8ff" d="M1278.73,-54.98C1294.68,-46.61 1319.28,-33.7 1337.88,-23.95"/>
<polygon fill="#63b8ff" stroke="#63b8ff" points="1339.75,-26.92 1346.98,-19.17 1336.5,-20.72 1339.75,-26.92"/>
</a>
</g>
</g>
<!-- Node4&#45;&gt;Node6 -->
<g id="edge5_Node000004_Node000006" class="edge">
<title>Node4&#45;&gt;Node6</title>
<g id="a_edge5_Node000004_Node000006"><a xlink:title=" ">
<path fill="none" stroke="#63b8ff" d="M1262.5,-54.75C1262.5,-47.8 1262.5,-37.85 1262.5,-29.13"/>
<polygon fill="#63b8ff" stroke="#63b8ff" points="1266,-29.09 1262.5,-19.09 1259,-29.09 1266,-29.09"/>
</a>
</g>
</g>
<!-- Node7 -->
<g id="Node000007" class="node">
<title>Node7</title>
<g id="a_Node000007"><a xlink:title=" ">
<polygon fill="#e0e0e0" stroke="#999999" points="588.5,-19 544.5,-19 544.5,0 588.5,0 588.5,-19"/>
<text text-anchor="middle" x="566.5" y="-7" font-family="Helvetica,sans-Serif" font-size="10.00">string</text>
</a>
</g>
</g>
<!-- Node4&#45;&gt;Node7 -->
<g id="edge6_Node000004_Node000007" class="edge">
<title>Node4&#45;&gt;Node7</title>
<g id="a_edge6_Node000004_Node000007"><a xlink:title=" ">
<path fill="none" stroke="#63b8ff" d="M1225.08,-60.65C1102.4,-51.31 713.67,-21.71 598.78,-12.96"/>
<polygon fill="#63b8ff" stroke="#63b8ff" points="598.77,-9.45 588.53,-12.18 598.24,-16.43 598.77,-9.45"/>
</a>
</g>
</g>
<!-- Node10 -->
<g id="Node000010" class="node">
<title>Node10</title>
<g id="a_Node000010"><a xlink:href="Entity_8hpp.html" target="_top" xlink:title="Defines the Entity class, which serves as a wrapper for ECS entities.">
<polygon fill="white" stroke="#666666" points="775,-294 710,-294 710,-275 775,-275 775,-294"/>
<text text-anchor="middle" x="742.5" y="-282" font-family="Helvetica,sans-Serif" font-size="10.00">Entity.hpp</text>
</a>
</g>
</g>
<!-- Node9&#45;&gt;Node10 -->
<g id="edge13_Node000009_Node000010" class="edge">
<title>Node9&#45;&gt;Node10</title>
<g id="a_edge13_Node000009_Node000010"><a xlink:title=" ">
<path fill="none" stroke="#63b8ff" d="M1056.83,-393.59C996.78,-391.83 897.78,-383.31 820.5,-349 795.45,-337.88 771.8,-316.53 757.25,-301.67"/>
<polygon fill="#63b8ff" stroke="#63b8ff" points="759.57,-299.03 750.15,-294.19 754.49,-303.85 759.57,-299.03"/>
</a>
</g>
</g>
<!-- Node24 -->
<g id="Node000024" class="node">
<title>Node24</title>
<g id="a_Node000024"><a xlink:href="MaterialComponent_8hpp_source.html" target="_top" xlink:title=" ">
<polygon fill="white" stroke="#666666" points="1336,-349 1139,-349 1139,-330 1336,-330 1336,-349"/>
<text text-anchor="middle" x="1237.5" y="-337" font-family="Helvetica,sans-Serif" font-size="10.00">components/MaterialComponent.hpp</text>
</a>
</g>
</g>
<!-- Node9&#45;&gt;Node24 -->
<g id="edge30_Node000009_Node000024" class="edge">
<title>Node9&#45;&gt;Node24</title>
<g id="a_edge30_Node000009_Node000024"><a xlink:title=" ">
<path fill="none" stroke="#63b8ff" d="M1130.9,-384.98C1151.52,-376.38 1183.61,-362.99 1207.19,-353.15"/>
<polygon fill="#63b8ff" stroke="#63b8ff" points="1208.84,-356.25 1216.72,-349.17 1206.15,-349.79 1208.84,-356.25"/>
</a>
</g>
</g>
<!-- Node25 -->
<g id="Node000025" class="node">
<title>Node25</title>
<g id="a_Node000025"><a xlink:href="Material_8hpp_source.html" target="_top" xlink:title=" ">
<polygon fill="white" stroke="#666666" points="1181.5,-294 1053.5,-294 1053.5,-275 1181.5,-275 1181.5,-294"/>
<text text-anchor="middle" x="1117.5" y="-282" font-family="Helvetica,sans-Serif" font-size="10.00">rendering/Material.hpp</text>
</a>
</g>
</g>
<!-- Node9&#45;&gt;Node25 -->
<g id="edge52_Node000009_Node000025" class="edge">
<title>Node9&#45;&gt;Node25</title>
<g id="a_edge52_Node000009_Node000025"><a xlink:title=" ">
<path fill="none" stroke="#63b8ff" d="M1111.07,-384.66C1112.21,-367.17 1114.76,-327.8 1116.28,-304.27"/>
<polygon fill="#63b8ff" stroke="#63b8ff" points="1119.78,-304.36 1116.94,-294.16 1112.8,-303.91 1119.78,-304.36"/>
</a>
</g>
</g>
<!-- Node29 -->
<g id="Node000029" class="node">
<title>Node29</title>
<g id="a_Node000029"><a xlink:href="MeshComponent_8hpp_source.html" target="_top" xlink:title=" ">
<polygon fill="white" stroke="#666666" points="1070,-349 887,-349 887,-330 1070,-330 1070,-349"/>
<text text-anchor="middle" x="978.5" y="-337" font-family="Helvetica,sans-Serif" font-size="10.00">components/MeshComponent.hpp</text>
</a>
</g>
</g>
<!-- Node9&#45;&gt;Node29 -->
<g id="edge42_Node000009_Node000029" class="edge">
<title>Node9&#45;&gt;Node29</title>
<g id="a_edge42_Node000009_Node000029"><a xlink:title=" ">
<path fill="none" stroke="#63b8ff" d="M1089.29,-384.98C1067.77,-376.34 1034.22,-362.87 1009.67,-353.02"/>
<polygon fill="#63b8ff" stroke="#63b8ff" points="1010.68,-349.65 1000.09,-349.17 1008.07,-356.14 1010.68,-349.65"/>
</a>
</g>
</g>
<!-- Node30 -->
<g id="Node000030" class="node">
<title>Node30</title>
<g id="a_Node000030"><a xlink:href="Mesh_8hpp.html" target="_top" xlink:title="Defines the Mesh class for managing 3D geometry.">
<polygon fill="white" stroke="#666666" points="884,-239 771,-239 771,-220 884,-220 884,-239"/>
<text text-anchor="middle" x="827.5" y="-227" font-family="Helvetica,sans-Serif" font-size="10.00">rendering/Mesh.hpp</text>
</a>
</g>
</g>
<!-- Node9&#45;&gt;Node30 -->
<g id="edge53_Node000009_Node000030" class="edge">
<title>Node9&#45;&gt;Node30</title>
<g id="a_edge53_Node000009_Node000030"><a xlink:title=" ">
<path fill="none" stroke="#63b8ff" d="M1056.9,-389.11C996.88,-383.19 904.48,-370.82 877.5,-349 846.36,-323.81 834.31,-275.74 829.89,-249.22"/>
<polygon fill="#63b8ff" stroke="#63b8ff" points="833.35,-248.69 828.43,-239.31 826.42,-249.71 833.35,-248.69"/>
</a>
</g>
</g>
<!-- Node31 -->
<g id="Node000031" class="node">
<title>Node31</title>
<g id="a_Node000031"><a xlink:href="TransformComponent_8hpp.html" target="_top" xlink:title="Defines the TransformComponent for ECS&#45;based spatial transformations.">
<polygon fill="white" stroke="#666666" points="1477.5,-239 1271.5,-239 1271.5,-220 1477.5,-220 1477.5,-239"/>
<text text-anchor="middle" x="1374.5" y="-227" font-family="Helvetica,sans-Serif" font-size="10.00">components/TransformComponent.hpp</text>
</a>
</g>
</g>
<!-- Node9&#45;&gt;Node31 -->
<g id="edge48_Node000009_Node000031" class="edge">
<title>Node9&#45;&gt;Node31</title>
<g id="a_edge48_Node000009_Node000031"><a xlink:title=" ">
<path fill="none" stroke="#63b8ff" d="M1164.11,-389.99C1225.22,-384.87 1319.97,-373.22 1345.5,-349 1372.94,-322.97 1376.21,-275.6 1375.68,-249.32"/>
<polygon fill="#63b8ff" stroke="#63b8ff" points="1379.17,-249.02 1375.26,-239.18 1372.17,-249.31 1379.17,-249.02"/>
</a>
</g>
</g>
<!-- Node11 -->
<g id="Node000011" class="node">
<title>Node11</title>
<g id="a_Node000011"><a xlink:href="Logger_8hpp.html" target="_top" xlink:title="Provides logging functionality.">
<polygon fill="white" stroke="#666666" points="860.5,-184 790.5,-184 790.5,-165 860.5,-165 860.5,-184"/>
<text text-anchor="middle" x="825.5" y="-172" font-family="Helvetica,sans-Serif" font-size="10.00">Logger.hpp</text>
</a>
</g>
</g>
<!-- Node10&#45;&gt;Node11 -->
<g id="edge14_Node000010_Node000011" class="edge">
<title>Node10&#45;&gt;Node11</title>
<g id="a_edge14_Node000010_Node000011"><a xlink:title=" ">
<path fill="none" stroke="#63b8ff" d="M743.26,-274.9C744.79,-261.9 749.21,-236.96 761.5,-220 770.89,-207.04 785.27,-196.55 798.02,-189.02"/>
<polygon fill="#63b8ff" stroke="#63b8ff" points="799.88,-191.99 806.92,-184.07 796.48,-185.87 799.88,-191.99"/>
</a>
</g>
</g>
<!-- Node17 -->
<g id="Node000017" class="node">
<title>Node17</title>
<g id="a_Node000017"><a xlink:href="Registry_8hpp.html" target="_top" xlink:title="Defines the Registry class for managing ECS entities and components.">
<polygon fill="white" stroke="#666666" points="337,-239 260,-239 260,-220 337,-220 337,-239"/>
<text text-anchor="middle" x="298.5" y="-227" font-family="Helvetica,sans-Serif" font-size="10.00">Registry.hpp</text>
</a>
</g>
</g>
<!-- Node10&#45;&gt;Node17 -->
<g id="edge23_Node000010_Node000017" class="edge">
<title>Node10&#45;&gt;Node17</title>
<g id="a_edge23_Node000010_Node000017"><a xlink:title=" ">
<path fill="none" stroke="#63b8ff" d="M709.85,-279.6C632.62,-270.38 438.37,-247.2 347.19,-236.31"/>
<polygon fill="#63b8ff" stroke="#63b8ff" points="347.46,-232.82 337.12,-235.11 346.63,-239.77 347.46,-232.82"/>
</a>
</g>
</g>
<!-- Node11&#45;&gt;Node6 -->
<g id="edge21_Node000011_Node000006" class="edge">
<title>Node11&#45;&gt;Node6</title>
<g id="a_edge21_Node000011_Node000006"><a xlink:title=" ">
<path fill="none" stroke="#63b8ff" d="M860.63,-166.75C896.06,-159.41 952.02,-146.37 998.5,-129 1016.19,-122.39 1019.41,-118.03 1036.5,-110 1106.16,-77.28 1189.25,-41.52 1232.69,-23.07"/>
<polygon fill="#63b8ff" stroke="#63b8ff" points="1234.25,-26.21 1242.09,-19.09 1231.52,-19.77 1234.25,-26.21"/>
</a>
</g>
</g>
<!-- Node11&#45;&gt;Node7 -->
<g id="edge22_Node000011_Node000007" class="edge">
<title>Node11&#45;&gt;Node7</title>
<g id="a_edge22_Node000011_Node000007"><a xlink:title=" ">
<path fill="none" stroke="#63b8ff" d="M790.21,-169.47C739.41,-163.06 648.98,-149.17 623.5,-129 606.76,-115.75 584.06,-58.61 573.04,-28.78"/>
<polygon fill="#63b8ff" stroke="#63b8ff" points="576.25,-27.36 569.54,-19.16 569.67,-29.76 576.25,-27.36"/>
</a>
</g>
</g>
<!-- Node11&#45;&gt;Node8 -->
<g id="edge18_Node000011_Node000008" class="edge">
<title>Node11&#45;&gt;Node8</title>
<g id="a_edge18_Node000011_Node000008"><a xlink:title=" ">
<path fill="none" stroke="#63b8ff" d="M860.51,-166.02C906.66,-156.16 987.56,-138.87 1035.27,-128.67"/>
<polygon fill="#63b8ff" stroke="#63b8ff" points="1036.16,-132.06 1045.21,-126.55 1034.7,-125.21 1036.16,-132.06"/>
</a>
</g>
</g>
<!-- Node12 -->
<g id="Node000012" class="node">
<title>Node12</title>
<g id="a_Node000012"><a xlink:title=" ">
<polygon fill="#e0e0e0" stroke="#999999" points="989.5,-129 939.5,-129 939.5,-110 989.5,-110 989.5,-129"/>
<text text-anchor="middle" x="964.5" y="-117" font-family="Helvetica,sans-Serif" font-size="10.00">chrono</text>
</a>
</g>
</g>
<!-- Node11&#45;&gt;Node12 -->
<g id="edge15_Node000011_Node000012" class="edge">
<title>Node11&#45;&gt;Node12</title>
<g id="a_edge15_Node000011_Node000012"><a xlink:title=" ">
<path fill="none" stroke="#63b8ff" d="M847.83,-164.98C870.7,-156.27 906.46,-142.63 932.36,-132.75"/>
<polygon fill="#63b8ff" stroke="#63b8ff" points="933.66,-136 941.76,-129.17 931.17,-129.46 933.66,-136"/>
</a>
</g>
</g>
<!-- Node13 -->
<g id="Node000013" class="node">
<title>Node13</title>
<g id="a_Node000013"><a xlink:title=" ">
<polygon fill="#e0e0e0" stroke="#999999" points="704,-129 633,-129 633,-110 704,-110 704,-129"/>
<text text-anchor="middle" x="668.5" y="-117" font-family="Helvetica,sans-Serif" font-size="10.00">fmt/printf.h</text>
</a>
</g>
</g>
<!-- Node11&#45;&gt;Node13 -->
<g id="edge16_Node000011_Node000013" class="edge">
<title>Node11&#45;&gt;Node13</title>
<g id="a_edge16_Node000011_Node000013"><a xlink:title=" ">
<path fill="none" stroke="#63b8ff" d="M800.28,-164.98C774.14,-156.16 733.1,-142.31 703.77,-132.41"/>
<polygon fill="#63b8ff" stroke="#63b8ff" points="704.52,-128.96 693.92,-129.08 702.28,-135.6 704.52,-128.96"/>
</a>
</g>
</g>
<!-- Node14 -->
<g id="Node000014" class="node">
<title>Node14</title>
<g id="a_Node000014"><a xlink:title=" ">
<polygon fill="#e0e0e0" stroke="#999999" points="777,-129 722,-129 722,-110 777,-110 777,-129"/>
<text text-anchor="middle" x="749.5" y="-117" font-family="Helvetica,sans-Serif" font-size="10.00">fstream</text>
</a>
</g>
</g>
<!-- Node11&#45;&gt;Node14 -->
<g id="edge17_Node000011_Node000014" class="edge">
<title>Node11&#45;&gt;Node14</title>
<g id="a_edge17_Node000011_Node000014"><a xlink:title=" ">
<path fill="none" stroke="#63b8ff" d="M813.29,-164.98C801.72,-156.92 784.12,-144.65 770.34,-135.03"/>
<polygon fill="#63b8ff" stroke="#63b8ff" points="772.14,-132.02 761.93,-129.17 768.13,-137.76 772.14,-132.02"/>
</a>
</g>
</g>
<!-- Node15 -->
<g id="Node000015" class="node">
<title>Node15</title>
<g id="a_Node000015"><a xlink:title=" ">
<polygon fill="#e0e0e0" stroke="#999999" points="855.5,-129 795.5,-129 795.5,-110 855.5,-110 855.5,-129"/>
<text text-anchor="middle" x="825.5" y="-117" font-family="Helvetica,sans-Serif" font-size="10.00">iostream</text>
</a>
</g>
</g>
<!-- Node11&#45;&gt;Node15 -->
<g id="edge19_Node000011_Node000015" class="edge">
<title>Node11&#45;&gt;Node15</title>
<g id="a_edge19_Node000011_Node000015"><a xlink:title=" ">
<path fill="none" stroke="#63b8ff" d="M825.5,-164.75C825.5,-157.8 825.5,-147.85 825.5,-139.13"/>
<polygon fill="#63b8ff" stroke="#63b8ff" points="829,-139.09 825.5,-129.09 822,-139.09 829,-139.09"/>
</a>
</g>
</g>
<!-- Node16 -->
<g id="Node000016" class="node">
<title>Node16</title>
<g id="a_Node000016"><a xlink:title=" ">
<polygon fill="#e0e0e0" stroke="#999999" points="921.5,-129 873.5,-129 873.5,-110 921.5,-110 921.5,-129"/>
<text text-anchor="middle" x="897.5" y="-117" font-family="Helvetica,sans-Serif" font-size="10.00">mutex</text>
</a>
</g>
</g>
<!-- Node11&#45;&gt;Node16 -->
<g id="edge20_Node000011_Node000016" class="edge">
<title>Node11&#45;&gt;Node16</title>
<g id="a_edge20_Node000011_Node000016"><a xlink:title=" ">
<path fill="none" stroke="#63b8ff" d="M837.07,-164.98C847.92,-157 864.38,-144.88 877.38,-135.31"/>
<polygon fill="#63b8ff" stroke="#63b8ff" points="879.74,-137.92 885.72,-129.17 875.59,-132.28 879.74,-137.92"/>
</a>
</g>
</g>
<!-- Node18 -->
<g id="Node000018" class="node">
<title>Node18</title>
<g id="a_Node000018"><a xlink:title=" ">
<polygon fill="#e0e0e0" stroke="#999999" points="258.5,-184 194.5,-184 194.5,-165 258.5,-165 258.5,-184"/>
<text text-anchor="middle" x="226.5" y="-172" font-family="Helvetica,sans-Serif" font-size="10.00">algorithm</text>
</a>
</g>
</g>
<!-- Node17&#45;&gt;Node18 -->
<g id="edge24_Node000017_Node000018" class="edge">
<title>Node17&#45;&gt;Node18</title>
<g id="a_edge24_Node000017_Node000018"><a xlink:title=" ">
<path fill="none" stroke="#63b8ff" d="M286.93,-219.98C276.08,-212 259.62,-199.88 246.62,-190.31"/>
<polygon fill="#63b8ff" stroke="#63b8ff" points="248.41,-187.28 238.28,-184.17 244.26,-192.92 248.41,-187.28"/>
</a>
</g>
</g>
<!-- Node19 -->
<g id="Node000019" class="node">
<title>Node19</title>
<g id="a_Node000019"><a xlink:title=" ">
<polygon fill="#e0e0e0" stroke="#999999" points="320.5,-184 276.5,-184 276.5,-165 320.5,-165 320.5,-184"/>
<text text-anchor="middle" x="298.5" y="-172" font-family="Helvetica,sans-Serif" font-size="10.00">bitset</text>
</a>
</g>
</g>
<!-- Node17&#45;&gt;Node19 -->
<g id="edge25_Node000017_Node000019" class="edge">
<title>Node17&#45;&gt;Node19</title>
<g id="a_edge25_Node000017_Node000019"><a xlink:title=" ">
<path fill="none" stroke="#63b8ff" d="M298.5,-219.75C298.5,-212.8 298.5,-202.85 298.5,-194.13"/>
<polygon fill="#63b8ff" stroke="#63b8ff" points="302,-194.09 298.5,-184.09 295,-194.09 302,-194.09"/>
</a>
</g>
</g>
<!-- Node20 -->
<g id="Node000020" class="node">
<title>Node20</title>
<g id="a_Node000020"><a xlink:title=" ">
<polygon fill="#e0e0e0" stroke="#999999" points="396.5,-184 338.5,-184 338.5,-165 396.5,-165 396.5,-184"/>
<text text-anchor="middle" x="367.5" y="-172" font-family="Helvetica,sans-Serif" font-size="10.00">memory</text>
</a>
</g>
</g>
<!-- Node17&#45;&gt;Node20 -->
<g id="edge26_Node000017_Node000020" class="edge">
<title>Node17&#45;&gt;Node20</title>
<g id="a_edge26_Node000017_Node000020"><a xlink:title=" ">
<path fill="none" stroke="#63b8ff" d="M309.59,-219.98C319.99,-212 335.76,-199.88 348.22,-190.31"/>
<polygon fill="#63b8ff" stroke="#63b8ff" points="350.41,-193.04 356.21,-184.17 346.15,-187.49 350.41,-193.04"/>
</a>
</g>
</g>
<!-- Node21 -->
<g id="Node000021" class="node">
<title>Node21</title>
<g id="a_Node000021"><a xlink:title=" ">
<polygon fill="#e0e0e0" stroke="#999999" points="65,-184 0,-184 0,-165 65,-165 65,-184"/>
<text text-anchor="middle" x="32.5" y="-172" font-family="Helvetica,sans-Serif" font-size="10.00">stdexcept</text>
</a>
</g>
</g>
<!-- Node17&#45;&gt;Node21 -->
<g id="edge27_Node000017_Node000021" class="edge">
<title>Node17&#45;&gt;Node21</title>
<g id="a_edge27_Node000017_Node000021"><a xlink:title=" ">
<path fill="none" stroke="#63b8ff" d="M259.86,-220.97C217.03,-212.6 145.65,-198.57 75.11,-184.31"/>
<polygon fill="#63b8ff" stroke="#63b8ff" points="75.66,-180.85 65.17,-182.3 74.27,-187.72 75.66,-180.85"/>
</a>
</g>
</g>
<!-- Node22 -->
<g id="Node000022" class="node">
<title>Node22</title>
<g id="a_Node000022"><a xlink:title=" ">
<polygon fill="#e0e0e0" stroke="#999999" points="176,-184 83,-184 83,-165 176,-165 176,-184"/>
<text text-anchor="middle" x="129.5" y="-172" font-family="Helvetica,sans-Serif" font-size="10.00">unordered_map</text>
</a>
</g>
</g>
<!-- Node17&#45;&gt;Node22 -->
<g id="edge28_Node000017_Node000022" class="edge">
<title>Node17&#45;&gt;Node22</title>
<g id="a_edge28_Node000017_Node000022"><a xlink:title=" ">
<path fill="none" stroke="#63b8ff" d="M271.35,-219.98C242.97,-211.09 198.27,-197.07 166.64,-187.15"/>
<polygon fill="#63b8ff" stroke="#63b8ff" points="167.45,-183.73 156.87,-184.08 165.36,-190.41 167.45,-183.73"/>
</a>
</g>
</g>
<!-- Node23 -->
<g id="Node000023" class="node">
<title>Node23</title>
<g id="a_Node000023"><a xlink:title=" ">
<polygon fill="#e0e0e0" stroke="#999999" points="462,-184 415,-184 415,-165 462,-165 462,-184"/>
<text text-anchor="middle" x="438.5" y="-172" font-family="Helvetica,sans-Serif" font-size="10.00">vector</text>
</a>
</g>
</g>
<!-- Node17&#45;&gt;Node23 -->
<g id="edge29_Node000017_Node000023" class="edge">
<title>Node17&#45;&gt;Node23</title>
<g id="a_edge29_Node000017_Node000023"><a xlink:title=" ">
<path fill="none" stroke="#63b8ff" d="M320.99,-219.98C344.02,-211.27 380.04,-197.63 406.13,-187.75"/>
<polygon fill="#63b8ff" stroke="#63b8ff" points="407.48,-190.98 415.6,-184.17 405.01,-184.44 407.48,-190.98"/>
</a>
</g>
</g>
<!-- Node24&#45;&gt;Node4 -->
<g id="edge31_Node000024_Node000004" class="edge">
<title>Node24&#45;&gt;Node4</title>
<g id="a_edge31_Node000024_Node000004"><a xlink:title=" ">
<path fill="none" stroke="#63b8ff" d="M1238.31,-329.83C1239.95,-311.51 1243.5,-267.49 1243.5,-230.5 1243.5,-230.5 1243.5,-230.5 1243.5,-173.5 1243.5,-141.56 1251.66,-105.1 1257.28,-83.77"/>
<polygon fill="#63b8ff" stroke="#63b8ff" points="1260.67,-84.66 1259.94,-74.09 1253.92,-82.81 1260.67,-84.66"/>
</a>
</g>
</g>
<!-- Node24&#45;&gt;Node25 -->
<g id="edge32_Node000024_Node000025" class="edge">
<title>Node24&#45;&gt;Node25</title>
<g id="a_edge32_Node000024_Node000025"><a xlink:title=" ">
<path fill="none" stroke="#63b8ff" d="M1218.22,-329.98C1198.83,-321.42 1168.69,-308.11 1146.43,-298.28"/>
<polygon fill="#63b8ff" stroke="#63b8ff" points="1147.69,-295.01 1137.13,-294.17 1144.86,-301.41 1147.69,-295.01"/>
</a>
</g>
</g>
<!-- Node25&#45;&gt;Node4 -->
<g id="edge33_Node000025_Node000004" class="edge">
<title>Node25&#45;&gt;Node4</title>
<g id="a_edge33_Node000025_Node000004"><a xlink:title=" ">
<path fill="none" stroke="#63b8ff" d="M1138.02,-274.87C1153.38,-267.44 1173.83,-255.33 1186.5,-239 1223.55,-191.25 1201.6,-163.61 1229.5,-110 1234.65,-100.1 1241.91,-90.03 1248.31,-81.98"/>
<polygon fill="#63b8ff" stroke="#63b8ff" points="1251.12,-84.09 1254.78,-74.14 1245.72,-79.63 1251.12,-84.09"/>
</a>
</g>
</g>
<!-- Node26 -->
<g id="Node000026" class="node">
<title>Node26</title>
<g id="a_Node000026"><a xlink:href="Shader_8hpp.html" target="_top" xlink:title="Manages OpenGL shaders.">
<polygon fill="white" stroke="#666666" points="1177.5,-239 1057.5,-239 1057.5,-220 1177.5,-220 1177.5,-239"/>
<text text-anchor="middle" x="1117.5" y="-227" font-family="Helvetica,sans-Serif" font-size="10.00">rendering/Shader.hpp</text>
</a>
</g>
</g>
<!-- Node25&#45;&gt;Node26 -->
<g id="edge34_Node000025_Node000026" class="edge">
<title>Node25&#45;&gt;Node26</title>
<g id="a_edge34_Node000025_Node000026"><a xlink:title=" ">
<path fill="none" stroke="#63b8ff" d="M1117.5,-274.75C1117.5,-267.8 1117.5,-257.85 1117.5,-249.13"/>
<polygon fill="#63b8ff" stroke="#63b8ff" points="1121,-249.09 1117.5,-239.09 1114,-249.09 1121,-249.09"/>
</a>
</g>
</g>
<!-- Node28 -->
<g id="Node000028" class="node">
<title>Node28</title>
<g id="a_Node000028"><a xlink:href="Texture2D_8hpp_source.html" target="_top" xlink:title=" ">
<polygon fill="white" stroke="#666666" points="1039,-239 902,-239 902,-220 1039,-220 1039,-239"/>
<text text-anchor="middle" x="970.5" y="-227" font-family="Helvetica,sans-Serif" font-size="10.00">rendering/Texture2D.hpp</text>
</a>
</g>
</g>
<!-- Node25&#45;&gt;Node28 -->
<g id="edge39_Node000025_Node000028" class="edge">
<title>Node25&#45;&gt;Node28</title>
<g id="a_edge39_Node000025_Node000028"><a xlink:title=" ">
<path fill="none" stroke="#63b8ff" d="M1093.88,-274.98C1069.6,-266.23 1031.55,-252.51 1004.13,-242.62"/>
<polygon fill="#63b8ff" stroke="#63b8ff" points="1005.14,-239.27 994.55,-239.17 1002.77,-245.85 1005.14,-239.27"/>
</a>
</g>
</g>
<!-- Node26&#45;&gt;Node2 -->
<g id="edge35_Node000026_Node000002" class="edge">
<title>Node26&#45;&gt;Node2</title>
<g id="a_edge35_Node000026_Node000002"><a xlink:title=" ">
<path fill="none" stroke="#63b8ff" d="M1156.7,-219.98C1198.91,-210.82 1266.15,-196.21 1311.98,-186.26"/>
<polygon fill="#63b8ff" stroke="#63b8ff" points="1312.96,-189.63 1321.99,-184.08 1311.47,-182.78 1312.96,-189.63"/>
</a>
</g>
</g>
<!-- Node26&#45;&gt;Node4 -->
<g id="edge36_Node000026_Node000004" class="edge">
<title>Node26&#45;&gt;Node4</title>
<g id="a_edge36_Node000026_Node000004"><a xlink:title=" ">
<path fill="none" stroke="#63b8ff" d="M1123.63,-219.73C1129.8,-210.83 1139.52,-196.59 1147.5,-184 1167.98,-151.68 1164.76,-137.37 1191.5,-110 1203.89,-97.32 1220.57,-86.62 1234.66,-78.9"/>
<polygon fill="#63b8ff" stroke="#63b8ff" points="1236.68,-81.79 1243.9,-74.04 1233.42,-75.6 1236.68,-81.79"/>
</a>
</g>
</g>
<!-- Node26&#45;&gt;Node7 -->
<g id="edge38_Node000026_Node000007" class="edge">
<title>Node26&#45;&gt;Node7</title>
<g id="a_edge38_Node000026_Node000007"><a xlink:title=" ">
<path fill="none" stroke="#63b8ff" d="M1057.16,-221.08C967.75,-210.01 807.75,-189.82 781.5,-184 701.9,-166.36 667.96,-182.57 606.5,-129 577.27,-103.52 569.36,-55.93 567.24,-29.47"/>
<polygon fill="#63b8ff" stroke="#63b8ff" points="570.72,-29.03 566.63,-19.25 563.73,-29.44 570.72,-29.03"/>
</a>
</g>
</g>
<!-- Node27 -->
<g id="Node000027" class="node">
<title>Node27</title>
<g id="a_Node000027"><a xlink:title=" ">
<polygon fill="#e0e0e0" stroke="#999999" points="1139,-184 1068,-184 1068,-165 1139,-165 1139,-184"/>
<text text-anchor="middle" x="1103.5" y="-172" font-family="Helvetica,sans-Serif" font-size="10.00">glad/glad.h</text>
</a>
</g>
</g>
<!-- Node26&#45;&gt;Node27 -->
<g id="edge37_Node000026_Node000027" class="edge">
<title>Node26&#45;&gt;Node27</title>
<g id="a_edge37_Node000026_Node000027"><a xlink:title=" ">
<path fill="none" stroke="#63b8ff" d="M1115.19,-219.75C1113.33,-212.72 1110.66,-202.62 1108.35,-193.84"/>
<polygon fill="#63b8ff" stroke="#63b8ff" points="1111.71,-192.86 1105.77,-184.09 1104.94,-194.65 1111.71,-192.86"/>
</a>
</g>
</g>
<!-- Node28&#45;&gt;Node7 -->
<g id="edge41_Node000028_Node000007" class="edge">
<title>Node28&#45;&gt;Node7</title>
<g id="a_edge41_Node000028_Node000007"><a xlink:title=" ">
<path fill="none" stroke="#63b8ff" d="M901.6,-220.98C898.52,-220.65 895.48,-220.32 892.5,-220 854.73,-215.94 577.91,-212.24 552.5,-184 513.3,-140.43 541.53,-63.3 557.52,-28.47"/>
<polygon fill="#63b8ff" stroke="#63b8ff" points="560.84,-29.63 562,-19.1 554.53,-26.61 560.84,-29.63"/>
</a>
</g>
</g>
<!-- Node28&#45;&gt;Node27 -->
<g id="edge40_Node000028_Node000027" class="edge">
<title>Node28&#45;&gt;Node27</title>
<g id="a_edge40_Node000028_Node000027"><a xlink:title=" ">
<path fill="none" stroke="#63b8ff" d="M991.87,-219.98C1013.65,-211.3 1047.66,-197.75 1072.42,-187.88"/>
<polygon fill="#63b8ff" stroke="#63b8ff" points="1073.75,-191.12 1081.74,-184.17 1071.16,-184.62 1073.75,-191.12"/>
</a>
</g>
</g>
<!-- Node29&#45;&gt;Node30 -->
<g id="edge43_Node000029_Node000030" class="edge">
<title>Node29&#45;&gt;Node30</title>
<g id="a_edge43_Node000029_Node000030"><a xlink:title=" ">
<path fill="none" stroke="#63b8ff" d="M966.4,-329.84C940.55,-311.36 879.73,-267.86 847.84,-245.05"/>
<polygon fill="#63b8ff" stroke="#63b8ff" points="849.83,-242.17 839.66,-239.2 845.76,-247.86 849.83,-242.17"/>
</a>
</g>
</g>
<!-- Node30&#45;&gt;Node4 -->
<g id="edge44_Node000030_Node000004" class="edge">
<title>Node30&#45;&gt;Node4</title>
<g id="a_edge44_Node000030_Node000004"><a xlink:title=" ">
<path fill="none" stroke="#63b8ff" d="M853.43,-219.94C903.47,-203.3 1016.68,-165.06 1110.5,-129 1153.86,-112.34 1203.39,-91.26 1233.8,-78.07"/>
<polygon fill="#63b8ff" stroke="#63b8ff" points="1235.19,-81.28 1242.97,-74.08 1232.4,-74.86 1235.19,-81.28"/>
</a>
</g>
</g>
<!-- Node30&#45;&gt;Node7 -->
<g id="edge46_Node000030_Node000007" class="edge">
<title>Node30&#45;&gt;Node7</title>
<g id="a_edge46_Node000030_Node000007"><a xlink:title=" ">
<path fill="none" stroke="#63b8ff" d="M770.69,-228.94C689.65,-228.21 547.01,-221.46 514.5,-184 476.92,-140.7 490.52,-107.08 514.5,-55 520.25,-42.52 531.41,-32.24 541.92,-24.71"/>
<polygon fill="#63b8ff" stroke="#63b8ff" points="544.07,-27.49 550.47,-19.05 540.2,-21.65 544.07,-27.49"/>
</a>
</g>
</g>
<!-- Node30&#45;&gt;Node23 -->
<g id="edge47_Node000030_Node000023" class="edge">
<title>Node30&#45;&gt;Node23</title>
<g id="a_edge47_Node000030_Node000023"><a xlink:title=" ">
<path fill="none" stroke="#63b8ff" d="M770.72,-222.96C701.11,-215.79 579.67,-202.04 476.5,-184 475.04,-183.75 473.56,-183.47 472.06,-183.19"/>
<polygon fill="#63b8ff" stroke="#63b8ff" points="472.65,-179.73 462.15,-181.15 471.24,-186.59 472.65,-179.73"/>
</a>
</g>
</g>
<!-- Node30&#45;&gt;Node27 -->
<g id="edge45_Node000030_Node000027" class="edge">
<title>Node30&#45;&gt;Node27</title>
<g id="a_edge45_Node000030_Node000027"><a xlink:title=" ">
<path fill="none" stroke="#63b8ff" d="M871.84,-219.98C922.84,-210.19 1006.16,-194.19 1057.74,-184.29"/>
<polygon fill="#63b8ff" stroke="#63b8ff" points="1058.46,-187.71 1067.62,-182.39 1057.14,-180.84 1058.46,-187.71"/>
</a>
</g>
</g>
<!-- Node31&#45;&gt;Node2 -->
<g id="edge49_Node000031_Node000002" class="edge">
<title>Node31&#45;&gt;Node2</title>
<g id="a_edge49_Node000031_Node000002"><a xlink:title=" ">
<path fill="none" stroke="#63b8ff" d="M1372.35,-219.75C1370.63,-212.72 1368.15,-202.62 1366,-193.84"/>
<polygon fill="#63b8ff" stroke="#63b8ff" points="1369.39,-192.97 1363.61,-184.09 1362.59,-194.63 1369.39,-192.97"/>
</a>
</g>
</g>
<!-- Node31&#45;&gt;Node3 -->
<g id="edge50_Node000031_Node000003" class="edge">
<title>Node31&#45;&gt;Node3</title>
<g id="a_edge50_Node000031_Node000003"><a xlink:title=" ">
<path fill="none" stroke="#63b8ff" d="M1388.31,-219.7C1399.48,-211.79 1414.6,-199.1 1422.5,-184 1429.69,-170.26 1431.72,-152.69 1432.08,-139.51"/>
<polygon fill="#63b8ff" stroke="#63b8ff" points="1435.58,-139.26 1432.05,-129.27 1428.58,-139.28 1435.58,-139.26"/>
</a>
</g>
</g>
<!-- Node31&#45;&gt;Node4 -->
<g id="edge51_Node000031_Node000004" class="edge">
<title>Node31&#45;&gt;Node4</title>
<g id="a_edge51_Node000031_Node000004"><a xlink:title=" ">
<path fill="none" stroke="#63b8ff" d="M1351.75,-219.97C1335.34,-212.72 1313.81,-200.81 1300.5,-184 1276.89,-154.19 1267.78,-109.34 1264.39,-84.23"/>
<polygon fill="#63b8ff" stroke="#63b8ff" points="1267.86,-83.73 1263.21,-74.21 1260.91,-84.56 1267.86,-83.73"/>
</a>
</g>
</g>
</g>
</svg>
