<?xml version="1.0" encoding="UTF-8" standalone="no"?>
<!DOCTYPE svg PUBLIC "-//W3C//DTD SVG 1.1//EN"
 "http://www.w3.org/Graphics/SVG/1.1/DTD/svg11.dtd">
<!-- Generated by graphviz version 12.2.1 (0)
 -->
<!-- Title: Object Pages: 1 -->
<svg width="402pt" height="750pt"
 viewBox="0.00 0.00 401.75 750.00" xmlns="http://www.w3.org/2000/svg" xmlns:xlink="http://www.w3.org/1999/xlink">
<g id="graph0" class="graph" transform="scale(1 1) rotate(0) translate(4 746)">
<title>Object</title>
<!-- Node1 -->
<g id="Node000001" class="node">
<title>Node1</title>
<g id="a_Node000001"><a xlink:title="A high&#45;level ECS entity wrapper with default components.">
<polygon fill="#999999" stroke="none" points="206.12,-188.25 111.62,-188.25 111.62,0 206.12,0 206.12,-188.25"/>
<text text-anchor="start" x="143.12" y="-174.75" font-family="Helvetica,sans-Serif" font-size="10.00">Object</text>
<text text-anchor="start" x="155.88" y="-158" font-family="Helvetica,sans-Serif" font-size="10.00"> </text>
<text text-anchor="start" x="115.62" y="-141.25" font-family="Helvetica,sans-Serif" font-size="10.00">+</text>
<text text-anchor="start" x="127.88" y="-141.25" font-family="Helvetica,sans-Serif" font-size="10.00">Object()</text>
<text text-anchor="start" x="115.62" y="-124.5" font-family="Helvetica,sans-Serif" font-size="10.00">+</text>
<text text-anchor="start" x="127.88" y="-124.5" font-family="Helvetica,sans-Serif" font-size="10.00">rotate()</text>
<text text-anchor="start" x="115.62" y="-107.75" font-family="Helvetica,sans-Serif" font-size="10.00">+</text>
<text text-anchor="start" x="127.88" y="-107.75" font-family="Helvetica,sans-Serif" font-size="10.00">move()</text>
<text text-anchor="start" x="115.62" y="-91" font-family="Helvetica,sans-Serif" font-size="10.00">+</text>
<text text-anchor="start" x="127.88" y="-91" font-family="Helvetica,sans-Serif" font-size="10.00">render()</text>
<text text-anchor="start" x="115.62" y="-74.25" font-family="Helvetica,sans-Serif" font-size="10.00">+</text>
<text text-anchor="start" x="127.88" y="-74.25" font-family="Helvetica,sans-Serif" font-size="10.00">getColor()</text>
<text text-anchor="start" x="115.62" y="-57.5" font-family="Helvetica,sans-Serif" font-size="10.00">+</text>
<text text-anchor="start" x="127.88" y="-57.5" font-family="Helvetica,sans-Serif" font-size="10.00">setColor()</text>
<text text-anchor="start" x="115.62" y="-40.75" font-family="Helvetica,sans-Serif" font-size="10.00">+</text>
<text text-anchor="start" x="127.88" y="-40.75" font-family="Helvetica,sans-Serif" font-size="10.00">lookAt()</text>
<text text-anchor="start" x="115.62" y="-24" font-family="Helvetica,sans-Serif" font-size="10.00">+</text>
<text text-anchor="start" x="127.88" y="-24" font-family="Helvetica,sans-Serif" font-size="10.00">setWireframe()</text>
<text text-anchor="start" x="115.62" y="-7.25" font-family="Helvetica,sans-Serif" font-size="10.00">+</text>
<text text-anchor="start" x="127.88" y="-7.25" font-family="Helvetica,sans-Serif" font-size="10.00">isWireframe()</text>
<polygon fill="#666666" stroke="#666666" points="111.62,-169.5 111.62,-169.5 206.12,-169.5 206.12,-169.5 111.62,-169.5"/>
<polygon fill="#666666" stroke="#666666" points="111.62,-152.75 111.62,-152.75 206.12,-152.75 206.12,-152.75 111.62,-152.75"/>
<polygon fill="none" stroke="#666666" points="111.62,0 111.62,-188.25 206.12,-188.25 206.12,0 111.62,0"/>
</a>
</g>
</g>
<!-- Node2 -->
<g id="Node000002" class="node">
<title>Node2</title>
<g id="a_Node000002"><a xlink:href="classEntity.html" target="_top" xlink:title="A high&#45;level ECS entity wrapper.">
<polygon fill="white" stroke="none" points="148.5,-358.25 23.25,-358.25 23.25,-237 148.5,-237 148.5,-358.25"/>
<text text-anchor="start" x="71.62" y="-344.75" font-family="Helvetica,sans-Serif" font-size="10.00">Entity</text>
<text text-anchor="start" x="27.25" y="-328" font-family="Helvetica,sans-Serif" font-size="10.00">#</text>
<text text-anchor="start" x="39.5" y="-328" font-family="Helvetica,sans-Serif" font-size="10.00">id_</text>
<text text-anchor="start" x="27.25" y="-311.25" font-family="Helvetica,sans-Serif" font-size="10.00">+</text>
<text text-anchor="start" x="39.5" y="-311.25" font-family="Helvetica,sans-Serif" font-size="10.00">Entity()</text>
<text text-anchor="start" x="27.25" y="-294.5" font-family="Helvetica,sans-Serif" font-size="10.00">+</text>
<text text-anchor="start" x="39.5" y="-294.5" font-family="Helvetica,sans-Serif" font-size="10.00">add_component()</text>
<text text-anchor="start" x="27.25" y="-277.75" font-family="Helvetica,sans-Serif" font-size="10.00">+</text>
<text text-anchor="start" x="39.5" y="-277.75" font-family="Helvetica,sans-Serif" font-size="10.00">remove_component()</text>
<text text-anchor="start" x="27.25" y="-261" font-family="Helvetica,sans-Serif" font-size="10.00">+</text>
<text text-anchor="start" x="39.5" y="-261" font-family="Helvetica,sans-Serif" font-size="10.00">get_component()</text>
<text text-anchor="start" x="27.25" y="-244.25" font-family="Helvetica,sans-Serif" font-size="10.00">+</text>
<text text-anchor="start" x="39.5" y="-244.25" font-family="Helvetica,sans-Serif" font-size="10.00">id()</text>
<polygon fill="#666666" stroke="#666666" points="23.25,-339.5 23.25,-339.5 148.5,-339.5 148.5,-339.5 23.25,-339.5"/>
<polygon fill="#666666" stroke="#666666" points="23.25,-322.75 23.25,-322.75 37.5,-322.75 37.5,-322.75 23.25,-322.75"/>
<polygon fill="#666666" stroke="#666666" points="37.5,-322.75 37.5,-322.75 148.5,-322.75 148.5,-322.75 37.5,-322.75"/>
<polygon fill="none" stroke="#666666" points="23.25,-237 23.25,-358.25 148.5,-358.25 148.5,-237 23.25,-237"/>
</a>
</g>
</g>
<!-- Node2&#45;&gt;Node1 -->
<g id="edge1_Node000001_Node000002" class="edge">
<title>Node2&#45;&gt;Node1</title>
<g id="a_edge1_Node000001_Node000002"><a xlink:title=" ">
<path fill="none" stroke="#63b8ff" d="M111.26,-226.54C115.76,-214.13 120.51,-201.02 125.2,-188.09"/>
<polygon fill="none" stroke="#63b8ff" points="108.01,-225.24 107.9,-235.84 114.6,-227.63 108.01,-225.24"/>
</a>
</g>
</g>
<!-- Node3 -->
<g id="Node000003" class="node">
<title>Node3</title>
<g id="a_Node000003"><a xlink:href="classRegistry.html" target="_top" xlink:title="Manages all ECS entities and components.">
<polygon fill="white" stroke="none" points="171.75,-683.38 0,-683.38 0,-478.38 171.75,-478.38 171.75,-683.38"/>
<text text-anchor="start" x="65.62" y="-669.88" font-family="Helvetica,sans-Serif" font-size="10.00">Registry</text>
<text text-anchor="start" x="82.88" y="-653.12" font-family="Helvetica,sans-Serif" font-size="10.00"> </text>
<text text-anchor="start" x="4" y="-636.38" font-family="Helvetica,sans-Serif" font-size="10.00">+</text>
<text text-anchor="start" x="16.25" y="-636.38" font-family="Helvetica,sans-Serif" font-size="10.00">Registry()</text>
<text text-anchor="start" x="4" y="-619.62" font-family="Helvetica,sans-Serif" font-size="10.00">+</text>
<text text-anchor="start" x="16.25" y="-619.62" font-family="Helvetica,sans-Serif" font-size="10.00">operator=()</text>
<text text-anchor="start" x="4" y="-602.88" font-family="Helvetica,sans-Serif" font-size="10.00">+</text>
<text text-anchor="start" x="16.25" y="-602.88" font-family="Helvetica,sans-Serif" font-size="10.00">Registry()</text>
<text text-anchor="start" x="4" y="-586.12" font-family="Helvetica,sans-Serif" font-size="10.00">+</text>
<text text-anchor="start" x="16.25" y="-586.12" font-family="Helvetica,sans-Serif" font-size="10.00">create_entity()</text>
<text text-anchor="start" x="4" y="-569.38" font-family="Helvetica,sans-Serif" font-size="10.00">+</text>
<text text-anchor="start" x="16.25" y="-569.38" font-family="Helvetica,sans-Serif" font-size="10.00">destroy_entity()</text>
<text text-anchor="start" x="4" y="-552.62" font-family="Helvetica,sans-Serif" font-size="10.00">+</text>
<text text-anchor="start" x="16.25" y="-552.62" font-family="Helvetica,sans-Serif" font-size="10.00">add_component()</text>
<text text-anchor="start" x="4" y="-535.88" font-family="Helvetica,sans-Serif" font-size="10.00">+</text>
<text text-anchor="start" x="16.25" y="-535.88" font-family="Helvetica,sans-Serif" font-size="10.00">has_component()</text>
<text text-anchor="start" x="4" y="-519.12" font-family="Helvetica,sans-Serif" font-size="10.00">+</text>
<text text-anchor="start" x="16.25" y="-519.12" font-family="Helvetica,sans-Serif" font-size="10.00">get_component()</text>
<text text-anchor="start" x="4" y="-502.38" font-family="Helvetica,sans-Serif" font-size="10.00">+</text>
<text text-anchor="start" x="16.25" y="-502.38" font-family="Helvetica,sans-Serif" font-size="10.00">remove_component()</text>
<text text-anchor="start" x="4" y="-485.62" font-family="Helvetica,sans-Serif" font-size="10.00">+</text>
<text text-anchor="start" x="16.25" y="-485.62" font-family="Helvetica,sans-Serif" font-size="10.00">get_entities_with_component()</text>
<polygon fill="#666666" stroke="#666666" points="0,-664.62 0,-664.62 171.75,-664.62 171.75,-664.62 0,-664.62"/>
<polygon fill="#666666" stroke="#666666" points="0,-647.88 0,-647.88 171.75,-647.88 171.75,-647.88 0,-647.88"/>
<polygon fill="none" stroke="#666666" points="0,-478.38 0,-683.38 171.75,-683.38 171.75,-478.38 0,-478.38"/>
</a>
</g>
</g>
<!-- Node3&#45;&gt;Node2 -->
<g id="edge2_Node000002_Node000003" class="edge">
<title>Node3&#45;&gt;Node2</title>
<g id="a_edge2_Node000002_Node000003"><a xlink:title=" ">
<path fill="none" stroke="#63b8ff" d="M85.88,-478.73C85.88,-443 85.88,-403.57 85.88,-370.74"/>
<polygon fill="none" stroke="#63b8ff" points="85.88,-370.94 81.88,-364.94 85.88,-358.94 89.88,-364.94 85.88,-370.94"/>
</a>
</g>
<text text-anchor="middle" x="112.88" y="-385.88" font-family="Helvetica,sans-Serif" font-size="10.00" fill="grey"> #registry_</text>
</g>
<!-- Node4 -->
<g id="Node000004" class="node">
<title>Node4</title>
<g id="a_Node000004"><a xlink:href="structTransformComponent.html" target="_top" xlink:title="Represents the transformation properties of an entity.">
<polygon fill="white" stroke="none" points="299.62,-347.88 166.12,-347.88 166.12,-247.38 299.62,-247.38 299.62,-347.88"/>
<text text-anchor="start" x="180" y="-334.38" font-family="Helvetica,sans-Serif" font-size="10.00">TransformComponent</text>
<text text-anchor="start" x="229.88" y="-317.62" font-family="Helvetica,sans-Serif" font-size="10.00"> </text>
<text text-anchor="start" x="170.12" y="-300.88" font-family="Helvetica,sans-Serif" font-size="10.00">+</text>
<text text-anchor="start" x="182.38" y="-300.88" font-family="Helvetica,sans-Serif" font-size="10.00">TransformComponent()</text>
<text text-anchor="start" x="170.12" y="-284.12" font-family="Helvetica,sans-Serif" font-size="10.00">+</text>
<text text-anchor="start" x="182.38" y="-284.12" font-family="Helvetica,sans-Serif" font-size="10.00">TransformComponent()</text>
<text text-anchor="start" x="170.12" y="-267.38" font-family="Helvetica,sans-Serif" font-size="10.00">+</text>
<text text-anchor="start" x="182.38" y="-267.38" font-family="Helvetica,sans-Serif" font-size="10.00">get_transformation</text>
<text text-anchor="start" x="182.38" y="-254.62" font-family="Helvetica,sans-Serif" font-size="10.00">_matrix()</text>
<polygon fill="#666666" stroke="#666666" points="166.12,-329.12 166.12,-329.12 299.62,-329.12 299.62,-329.12 166.12,-329.12"/>
<polygon fill="#666666" stroke="#666666" points="166.12,-312.38 166.12,-312.38 299.62,-312.38 299.62,-312.38 166.12,-312.38"/>
<polygon fill="none" stroke="#666666" points="166.12,-247.38 166.12,-347.88 299.62,-347.88 299.62,-247.38 166.12,-247.38"/>
</a>
</g>
</g>
<!-- Node4&#45;&gt;Node1 -->
<g id="edge3_Node000001_Node000004" class="edge">
<title>Node4&#45;&gt;Node1</title>
<g id="a_edge3_Node000001_Node000004"><a xlink:title=" ">
<path fill="none" stroke="#63b8ff" d="M214.87,-247.59C209.57,-233.15 203.55,-216.77 197.48,-200.24"/>
<polygon fill="none" stroke="#63b8ff" points="197.5,-200.31 191.68,-196.05 193.37,-189.04 199.19,-193.29 197.5,-200.31"/>
</a>
</g>
<text text-anchor="middle" x="232.13" y="-209.5" font-family="Helvetica,sans-Serif" font-size="10.00" fill="grey"> +transform</text>
</g>
<!-- Node5 -->
<g id="Node000005" class="node">
<title>Node5</title>
<g id="a_Node000005"><a xlink:href="classVector3.html" target="_top" xlink:title=" ">
<polygon fill="white" stroke="none" points="275.62,-725.25 190.12,-725.25 190.12,-436.5 275.62,-436.5 275.62,-725.25"/>
<text text-anchor="start" x="214.12" y="-711.75" font-family="Helvetica,sans-Serif" font-size="10.00">Vector3</text>
<text text-anchor="start" x="194.12" y="-695" font-family="Helvetica,sans-Serif" font-size="10.00">+</text>
<text text-anchor="start" x="206.38" y="-695" font-family="Helvetica,sans-Serif" font-size="10.00">x</text>
<text text-anchor="start" x="194.12" y="-678.25" font-family="Helvetica,sans-Serif" font-size="10.00">+</text>
<text text-anchor="start" x="206.38" y="-678.25" font-family="Helvetica,sans-Serif" font-size="10.00">y</text>
<text text-anchor="start" x="194.12" y="-661.5" font-family="Helvetica,sans-Serif" font-size="10.00">+</text>
<text text-anchor="start" x="206.38" y="-661.5" font-family="Helvetica,sans-Serif" font-size="10.00">z</text>
<text text-anchor="start" x="194.12" y="-644.75" font-family="Helvetica,sans-Serif" font-size="10.00">+</text>
<text text-anchor="start" x="206.38" y="-644.75" font-family="Helvetica,sans-Serif" font-size="10.00">Vector3()</text>
<text text-anchor="start" x="194.12" y="-628" font-family="Helvetica,sans-Serif" font-size="10.00">+</text>
<text text-anchor="start" x="206.38" y="-628" font-family="Helvetica,sans-Serif" font-size="10.00">operator+()</text>
<text text-anchor="start" x="194.12" y="-611.25" font-family="Helvetica,sans-Serif" font-size="10.00">+</text>
<text text-anchor="start" x="206.38" y="-611.25" font-family="Helvetica,sans-Serif" font-size="10.00">operator&#45;()</text>
<text text-anchor="start" x="194.12" y="-594.5" font-family="Helvetica,sans-Serif" font-size="10.00">+</text>
<text text-anchor="start" x="206.38" y="-594.5" font-family="Helvetica,sans-Serif" font-size="10.00">operator*()</text>
<text text-anchor="start" x="194.12" y="-577.75" font-family="Helvetica,sans-Serif" font-size="10.00">+</text>
<text text-anchor="start" x="206.38" y="-577.75" font-family="Helvetica,sans-Serif" font-size="10.00">operator*=()</text>
<text text-anchor="start" x="194.12" y="-561" font-family="Helvetica,sans-Serif" font-size="10.00">+</text>
<text text-anchor="start" x="206.38" y="-561" font-family="Helvetica,sans-Serif" font-size="10.00">operator/()</text>
<text text-anchor="start" x="194.12" y="-544.25" font-family="Helvetica,sans-Serif" font-size="10.00">+</text>
<text text-anchor="start" x="206.38" y="-544.25" font-family="Helvetica,sans-Serif" font-size="10.00">operator==()</text>
<text text-anchor="start" x="194.12" y="-527.5" font-family="Helvetica,sans-Serif" font-size="10.00">+</text>
<text text-anchor="start" x="206.38" y="-527.5" font-family="Helvetica,sans-Serif" font-size="10.00">operator+=()</text>
<text text-anchor="start" x="194.12" y="-510.75" font-family="Helvetica,sans-Serif" font-size="10.00">+</text>
<text text-anchor="start" x="206.38" y="-510.75" font-family="Helvetica,sans-Serif" font-size="10.00">magnitude()</text>
<text text-anchor="start" x="194.12" y="-494" font-family="Helvetica,sans-Serif" font-size="10.00">+</text>
<text text-anchor="start" x="206.38" y="-494" font-family="Helvetica,sans-Serif" font-size="10.00">normalized()</text>
<text text-anchor="start" x="194.12" y="-477.25" font-family="Helvetica,sans-Serif" font-size="10.00">+</text>
<text text-anchor="start" x="206.38" y="-477.25" font-family="Helvetica,sans-Serif" font-size="10.00">dot()</text>
<text text-anchor="start" x="194.12" y="-460.5" font-family="Helvetica,sans-Serif" font-size="10.00">+</text>
<text text-anchor="start" x="206.38" y="-460.5" font-family="Helvetica,sans-Serif" font-size="10.00">cross()</text>
<text text-anchor="start" x="194.12" y="-443.75" font-family="Helvetica,sans-Serif" font-size="10.00">+</text>
<text text-anchor="start" x="206.38" y="-443.75" font-family="Helvetica,sans-Serif" font-size="10.00">toString()</text>
<polygon fill="#bfbfbf" stroke="#bfbfbf" points="190.12,-706.5 190.12,-706.5 275.62,-706.5 275.62,-706.5 190.12,-706.5"/>
<polygon fill="#bfbfbf" stroke="#bfbfbf" points="190.12,-656.25 190.12,-656.25 204.38,-656.25 204.38,-656.25 190.12,-656.25"/>
<polygon fill="#bfbfbf" stroke="#bfbfbf" points="204.38,-656.25 204.38,-656.25 275.62,-656.25 275.62,-656.25 204.38,-656.25"/>
<polygon fill="none" stroke="#bfbfbf" points="190.12,-436.5 190.12,-725.25 275.62,-725.25 275.62,-436.5 190.12,-436.5"/>
</a>
</g>
</g>
<!-- Node5&#45;&gt;Node4 -->
<g id="edge4_Node000004_Node000005" class="edge">
<title>Node5&#45;&gt;Node4</title>
<g id="a_edge4_Node000004_Node000005"><a xlink:title=" ">
<path fill="none" stroke="#63b8ff" d="M232.88,-436.78C232.88,-410.01 232.88,-383.36 232.88,-360.71"/>
<polygon fill="none" stroke="#63b8ff" points="232.88,-360.76 228.88,-354.76 232.88,-348.76 236.88,-354.76 232.88,-360.76"/>
</a>
</g>
<text text-anchor="middle" x="258" y="-392.25" font-family="Helvetica,sans-Serif" font-size="10.00" fill="grey"> +position</text>
<text text-anchor="middle" x="258" y="-379.5" font-family="Helvetica,sans-Serif" font-size="10.00" fill="grey">+scale</text>
</g>
<!-- Node6 -->
<g id="Node000006" class="node">
<title>Node6</title>
<g id="a_Node000006"><a xlink:href="structQuaternion.html" target="_top" xlink:title=" ">
<polygon fill="white" stroke="none" points="393.75,-742 294,-742 294,-419.75 393.75,-419.75 393.75,-742"/>
<text text-anchor="start" x="316.88" y="-728.5" font-family="Helvetica,sans-Serif" font-size="10.00">Quaternion</text>
<text text-anchor="start" x="298" y="-711.75" font-family="Helvetica,sans-Serif" font-size="10.00">+</text>
<text text-anchor="start" x="310.25" y="-711.75" font-family="Helvetica,sans-Serif" font-size="10.00">w</text>
<text text-anchor="start" x="298" y="-695" font-family="Helvetica,sans-Serif" font-size="10.00">+</text>
<text text-anchor="start" x="310.25" y="-695" font-family="Helvetica,sans-Serif" font-size="10.00">x</text>
<text text-anchor="start" x="298" y="-678.25" font-family="Helvetica,sans-Serif" font-size="10.00">+</text>
<text text-anchor="start" x="310.25" y="-678.25" font-family="Helvetica,sans-Serif" font-size="10.00">y</text>
<text text-anchor="start" x="298" y="-661.5" font-family="Helvetica,sans-Serif" font-size="10.00">+</text>
<text text-anchor="start" x="310.25" y="-661.5" font-family="Helvetica,sans-Serif" font-size="10.00">z</text>
<text text-anchor="start" x="298" y="-644.75" font-family="Helvetica,sans-Serif" font-size="10.00">+</text>
<text text-anchor="start" x="310.25" y="-644.75" font-family="Helvetica,sans-Serif" font-size="10.00">Quaternion()</text>
<text text-anchor="start" x="298" y="-628" font-family="Helvetica,sans-Serif" font-size="10.00">+</text>
<text text-anchor="start" x="310.25" y="-628" font-family="Helvetica,sans-Serif" font-size="10.00">Quaternion()</text>
<text text-anchor="start" x="298" y="-611.25" font-family="Helvetica,sans-Serif" font-size="10.00">+</text>
<text text-anchor="start" x="310.25" y="-611.25" font-family="Helvetica,sans-Serif" font-size="10.00">operator&#45;()</text>
<text text-anchor="start" x="298" y="-594.5" font-family="Helvetica,sans-Serif" font-size="10.00">+</text>
<text text-anchor="start" x="310.25" y="-594.5" font-family="Helvetica,sans-Serif" font-size="10.00">operator+()</text>
<text text-anchor="start" x="298" y="-577.75" font-family="Helvetica,sans-Serif" font-size="10.00">+</text>
<text text-anchor="start" x="310.25" y="-577.75" font-family="Helvetica,sans-Serif" font-size="10.00">operator&#45;()</text>
<text text-anchor="start" x="298" y="-561" font-family="Helvetica,sans-Serif" font-size="10.00">+</text>
<text text-anchor="start" x="310.25" y="-561" font-family="Helvetica,sans-Serif" font-size="10.00">operator*()</text>
<text text-anchor="start" x="298" y="-544.25" font-family="Helvetica,sans-Serif" font-size="10.00">+</text>
<text text-anchor="start" x="310.25" y="-544.25" font-family="Helvetica,sans-Serif" font-size="10.00">normalized()</text>
<text text-anchor="start" x="298" y="-527.5" font-family="Helvetica,sans-Serif" font-size="10.00">+</text>
<text text-anchor="start" x="310.25" y="-527.5" font-family="Helvetica,sans-Serif" font-size="10.00">dot()</text>
<text text-anchor="start" x="298" y="-510.75" font-family="Helvetica,sans-Serif" font-size="10.00">+</text>
<text text-anchor="start" x="310.25" y="-510.75" font-family="Helvetica,sans-Serif" font-size="10.00">operator*()</text>
<text text-anchor="start" x="298" y="-494" font-family="Helvetica,sans-Serif" font-size="10.00">+</text>
<text text-anchor="start" x="310.25" y="-494" font-family="Helvetica,sans-Serif" font-size="10.00">rotateVector()</text>
<text text-anchor="start" x="298" y="-477.25" font-family="Helvetica,sans-Serif" font-size="10.00">+</text>
<text text-anchor="start" x="310.25" y="-477.25" font-family="Helvetica,sans-Serif" font-size="10.00">toMatrix()</text>
<text text-anchor="start" x="298" y="-460.5" font-family="Helvetica,sans-Serif" font-size="10.00">+</text>
<text text-anchor="start" x="310.25" y="-460.5" font-family="Helvetica,sans-Serif" font-size="10.00">fromAxisAngle()</text>
<text text-anchor="start" x="298" y="-443.75" font-family="Helvetica,sans-Serif" font-size="10.00">+</text>
<text text-anchor="start" x="310.25" y="-443.75" font-family="Helvetica,sans-Serif" font-size="10.00">fromMatrix()</text>
<text text-anchor="start" x="298" y="-427" font-family="Helvetica,sans-Serif" font-size="10.00">+</text>
<text text-anchor="start" x="310.25" y="-427" font-family="Helvetica,sans-Serif" font-size="10.00">lookRotation()</text>
<polygon fill="#bfbfbf" stroke="#bfbfbf" points="294,-723.25 294,-723.25 393.75,-723.25 393.75,-723.25 294,-723.25"/>
<polygon fill="#bfbfbf" stroke="#bfbfbf" points="294,-656.25 294,-656.25 308.25,-656.25 308.25,-656.25 294,-656.25"/>
<polygon fill="#bfbfbf" stroke="#bfbfbf" points="308.25,-656.25 308.25,-656.25 393.75,-656.25 393.75,-656.25 308.25,-656.25"/>
<polygon fill="none" stroke="#bfbfbf" points="294,-419.75 294,-742 393.75,-742 393.75,-419.75 294,-419.75"/>
</a>
</g>
</g>
<!-- Node6&#45;&gt;Node4 -->
<g id="edge5_Node000004_Node000006" class="edge">
<title>Node6&#45;&gt;Node4</title>
<g id="a_edge5_Node000004_Node000006"><a xlink:title=" ">
<path fill="none" stroke="#63b8ff" d="M304.66,-419.86C299.33,-404.87 293.41,-390.11 286.88,-376.25 284.1,-370.37 280.9,-364.45 277.46,-358.64"/>
<polygon fill="none" stroke="#63b8ff" points="277.43,-358.6 270.86,-355.63 271.08,-348.42 277.65,-351.4 277.43,-358.6"/>
</a>
</g>
<text text-anchor="middle" x="320.8" y="-385.88" font-family="Helvetica,sans-Serif" font-size="10.00" fill="grey"> +rotation</text>
</g>
</g>
</svg>
