<?xml version="1.0" encoding="UTF-8" standalone="no"?>
<!DOCTYPE svg PUBLIC "-//W3C//DTD SVG 1.1//EN"
 "http://www.w3.org/Graphics/SVG/1.1/DTD/svg11.dtd">
<!-- Generated by graphviz version 2.43.0 (0)
 -->
<!-- Title: Object Pages: 1 -->
<svg width="405pt" height="680pt"
 viewBox="0.00 0.00 405.00 680.00" xmlns="http://www.w3.org/2000/svg" xmlns:xlink="http://www.w3.org/1999/xlink">
<g id="graph0" class="graph" transform="scale(1 1) rotate(0) translate(4 676)">
<title>Object</title>
<!-- Node1 -->
<g id="Node000001" class="node">
<title>Node1</title>
<g id="a_Node000001"><a xlink:title="A high&#45;level ECS entity wrapper with default components.">
<polygon fill="#999999" stroke="transparent" points="208.5,-169 112.5,-169 112.5,0 208.5,0 208.5,-169"/>
<text text-anchor="start" x="144.5" y="-156.5" font-family="Helvetica,sans-Serif" font-size="10.00">Object</text>
<text text-anchor="start" x="158.5" y="-141.5" font-family="Helvetica,sans-Serif" font-size="10.00"> </text>
<text text-anchor="start" x="116.5" y="-126.5" font-family="Helvetica,sans-Serif" font-size="10.00">+</text>
<text text-anchor="start" x="129.5" y="-126.5" font-family="Helvetica,sans-Serif" font-size="10.00">Object()</text>
<text text-anchor="start" x="116.5" y="-111.5" font-family="Helvetica,sans-Serif" font-size="10.00">+</text>
<text text-anchor="start" x="129.5" y="-111.5" font-family="Helvetica,sans-Serif" font-size="10.00">rotate()</text>
<text text-anchor="start" x="116.5" y="-96.5" font-family="Helvetica,sans-Serif" font-size="10.00">+</text>
<text text-anchor="start" x="129.5" y="-96.5" font-family="Helvetica,sans-Serif" font-size="10.00">move()</text>
<text text-anchor="start" x="116.5" y="-81.5" font-family="Helvetica,sans-Serif" font-size="10.00">+</text>
<text text-anchor="start" x="129.5" y="-81.5" font-family="Helvetica,sans-Serif" font-size="10.00">render()</text>
<text text-anchor="start" x="116.5" y="-66.5" font-family="Helvetica,sans-Serif" font-size="10.00">+</text>
<text text-anchor="start" x="129.5" y="-66.5" font-family="Helvetica,sans-Serif" font-size="10.00">getColor()</text>
<text text-anchor="start" x="116.5" y="-51.5" font-family="Helvetica,sans-Serif" font-size="10.00">+</text>
<text text-anchor="start" x="129.5" y="-51.5" font-family="Helvetica,sans-Serif" font-size="10.00">setColor()</text>
<text text-anchor="start" x="116.5" y="-36.5" font-family="Helvetica,sans-Serif" font-size="10.00">+</text>
<text text-anchor="start" x="129.5" y="-36.5" font-family="Helvetica,sans-Serif" font-size="10.00">lookAt()</text>
<text text-anchor="start" x="116.5" y="-21.5" font-family="Helvetica,sans-Serif" font-size="10.00">+</text>
<text text-anchor="start" x="129.5" y="-21.5" font-family="Helvetica,sans-Serif" font-size="10.00">setWireframe()</text>
<text text-anchor="start" x="116.5" y="-6.5" font-family="Helvetica,sans-Serif" font-size="10.00">+</text>
<text text-anchor="start" x="129.5" y="-6.5" font-family="Helvetica,sans-Serif" font-size="10.00">isWireframe()</text>
<polygon fill="#666666" stroke="#666666" points="112.5,-151.5 112.5,-151.5 208.5,-151.5 208.5,-151.5 112.5,-151.5"/>
<polygon fill="#666666" stroke="#666666" points="112.5,-136.5 112.5,-136.5 208.5,-136.5 208.5,-136.5 112.5,-136.5"/>
<polygon fill="none" stroke="#666666" points="112.5,0 112.5,-169 208.5,-169 208.5,0 112.5,0"/>
</a>
</g>
</g>
<!-- Node2 -->
<g id="Node000002" class="node">
<title>Node2</title>
<g id="a_Node000002"><a xlink:href="classEntity.html" target="_top" xlink:title="A high&#45;level ECS entity wrapper.">
<polygon fill="white" stroke="transparent" points="150,-325 23,-325 23,-216 150,-216 150,-325"/>
<text text-anchor="start" x="72.5" y="-312.5" font-family="Helvetica,sans-Serif" font-size="10.00">Entity</text>
<text text-anchor="start" x="27.5" y="-297.5" font-family="Helvetica,sans-Serif" font-size="10.00">#</text>
<text text-anchor="start" x="40.5" y="-297.5" font-family="Helvetica,sans-Serif" font-size="10.00">id_</text>
<text text-anchor="start" x="27.5" y="-282.5" font-family="Helvetica,sans-Serif" font-size="10.00">+</text>
<text text-anchor="start" x="40.5" y="-282.5" font-family="Helvetica,sans-Serif" font-size="10.00">Entity()</text>
<text text-anchor="start" x="27.5" y="-267.5" font-family="Helvetica,sans-Serif" font-size="10.00">+</text>
<text text-anchor="start" x="40.5" y="-267.5" font-family="Helvetica,sans-Serif" font-size="10.00">add_component()</text>
<text text-anchor="start" x="27.5" y="-252.5" font-family="Helvetica,sans-Serif" font-size="10.00">+</text>
<text text-anchor="start" x="40.5" y="-252.5" font-family="Helvetica,sans-Serif" font-size="10.00">remove_component()</text>
<text text-anchor="start" x="27.5" y="-237.5" font-family="Helvetica,sans-Serif" font-size="10.00">+</text>
<text text-anchor="start" x="40.5" y="-237.5" font-family="Helvetica,sans-Serif" font-size="10.00">get_component()</text>
<text text-anchor="start" x="27.5" y="-222.5" font-family="Helvetica,sans-Serif" font-size="10.00">+</text>
<text text-anchor="start" x="40.5" y="-222.5" font-family="Helvetica,sans-Serif" font-size="10.00">id()</text>
<polygon fill="#666666" stroke="#666666" points="23.5,-307.5 23.5,-307.5 150.5,-307.5 150.5,-307.5 23.5,-307.5"/>
<polygon fill="#666666" stroke="#666666" points="23.5,-292.5 23.5,-292.5 38.5,-292.5 38.5,-292.5 23.5,-292.5"/>
<polygon fill="#666666" stroke="#666666" points="38.5,-292.5 38.5,-292.5 150.5,-292.5 150.5,-292.5 38.5,-292.5"/>
<polygon fill="none" stroke="#666666" points="23,-216 23,-325 150,-325 150,-216 23,-216"/>
</a>
</g>
</g>
<!-- Node2&#45;&gt;Node1 -->
<g id="edge1_Node000001_Node000002" class="edge">
<title>Node2&#45;&gt;Node1</title>
<g id="a_edge1_Node000001_Node000002"><a xlink:title=" ">
<path fill="none" stroke="#63b8ff" d="M111.91,-206.33C116.73,-194.32 121.86,-181.59 126.89,-169.06"/>
<polygon fill="none" stroke="#63b8ff" points="108.59,-205.2 108.1,-215.78 115.08,-207.81 108.59,-205.2"/>
</a>
</g>
</g>
<!-- Node3 -->
<g id="Node000003" class="node">
<title>Node3</title>
<g id="a_Node000003"><a xlink:href="classRegistry.html" target="_top" xlink:title="Manages all ECS entities and components.">
<polygon fill="white" stroke="transparent" points="173,-627 0,-627 0,-428 173,-428 173,-627"/>
<text text-anchor="start" x="66.5" y="-614.5" font-family="Helvetica,sans-Serif" font-size="10.00">Registry</text>
<text text-anchor="start" x="85" y="-599.5" font-family="Helvetica,sans-Serif" font-size="10.00"> </text>
<text text-anchor="start" x="4.5" y="-584.5" font-family="Helvetica,sans-Serif" font-size="10.00">+</text>
<text text-anchor="start" x="17.5" y="-584.5" font-family="Helvetica,sans-Serif" font-size="10.00">Registry()</text>
<text text-anchor="start" x="4.5" y="-569.5" font-family="Helvetica,sans-Serif" font-size="10.00">+</text>
<text text-anchor="start" x="17.5" y="-569.5" font-family="Helvetica,sans-Serif" font-size="10.00">operator=()</text>
<text text-anchor="start" x="4.5" y="-554.5" font-family="Helvetica,sans-Serif" font-size="10.00">+</text>
<text text-anchor="start" x="17.5" y="-554.5" font-family="Helvetica,sans-Serif" font-size="10.00">Registry()</text>
<text text-anchor="start" x="4.5" y="-539.5" font-family="Helvetica,sans-Serif" font-size="10.00">+</text>
<text text-anchor="start" x="17.5" y="-539.5" font-family="Helvetica,sans-Serif" font-size="10.00">create_entity()</text>
<text text-anchor="start" x="4.5" y="-524.5" font-family="Helvetica,sans-Serif" font-size="10.00">+</text>
<text text-anchor="start" x="17.5" y="-524.5" font-family="Helvetica,sans-Serif" font-size="10.00">destroy_entity()</text>
<text text-anchor="start" x="4.5" y="-509.5" font-family="Helvetica,sans-Serif" font-size="10.00">+</text>
<text text-anchor="start" x="17.5" y="-509.5" font-family="Helvetica,sans-Serif" font-size="10.00">add_component()</text>
<text text-anchor="start" x="4.5" y="-494.5" font-family="Helvetica,sans-Serif" font-size="10.00">+</text>
<text text-anchor="start" x="17.5" y="-494.5" font-family="Helvetica,sans-Serif" font-size="10.00">has_component()</text>
<text text-anchor="start" x="4.5" y="-479.5" font-family="Helvetica,sans-Serif" font-size="10.00">+</text>
<text text-anchor="start" x="17.5" y="-479.5" font-family="Helvetica,sans-Serif" font-size="10.00">get_component()</text>
<text text-anchor="start" x="4.5" y="-464.5" font-family="Helvetica,sans-Serif" font-size="10.00">+</text>
<text text-anchor="start" x="17.5" y="-464.5" font-family="Helvetica,sans-Serif" font-size="10.00">remove_component()</text>
<text text-anchor="start" x="4.5" y="-449.5" font-family="Helvetica,sans-Serif" font-size="10.00">+</text>
<text text-anchor="start" x="17.5" y="-449.5" font-family="Helvetica,sans-Serif" font-size="10.00">get_entities_with_component()</text>
<text text-anchor="start" x="4.5" y="-434.5" font-family="Helvetica,sans-Serif" font-size="10.00">+</text>
<text text-anchor="start" x="17.5" y="-434.5" font-family="Helvetica,sans-Serif" font-size="10.00">getInstance()</text>
<polygon fill="#666666" stroke="#666666" points="0.5,-609.5 0.5,-609.5 173.5,-609.5 173.5,-609.5 0.5,-609.5"/>
<polygon fill="#666666" stroke="#666666" points="0.5,-594.5 0.5,-594.5 173.5,-594.5 173.5,-594.5 0.5,-594.5"/>
<polygon fill="none" stroke="#666666" points="0,-428 0,-627 173,-627 173,-428 0,-428"/>
</a>
</g>
</g>
<!-- Node3&#45;&gt;Node2 -->
<g id="edge2_Node000002_Node000003" class="edge">
<title>Node3&#45;&gt;Node2</title>
<g id="a_edge2_Node000002_Node000003"><a xlink:title=" ">
<path fill="none" stroke="#63b8ff" d="M86.5,-427.91C86.5,-397.65 86.5,-365.09 86.5,-337.56"/>
<polygon fill="none" stroke="#63b8ff" points="86.5,-337.29 82.5,-331.29 86.5,-325.29 90.5,-331.29 86.5,-337.29"/>
</a>
</g>
<text text-anchor="middle" x="114" y="-351.5" font-family="Helvetica,sans-Serif" font-size="10.00" fill="grey"> #registry_</text>
</g>
<!-- Node4 -->
<g id="Node000004" class="node">
<title>Node4</title>
<g id="a_Node000004"><a xlink:href="structTransformComponent.html" target="_top" xlink:title="Represents the transformation properties of an entity.">
<polygon fill="white" stroke="transparent" points="302.5,-315.5 168.5,-315.5 168.5,-225.5 302.5,-225.5 302.5,-315.5"/>
<text text-anchor="start" x="182.5" y="-303.5" font-family="Helvetica,sans-Serif" font-size="10.00">TransformComponent</text>
<text text-anchor="start" x="233.5" y="-288.5" font-family="Helvetica,sans-Serif" font-size="10.00"> </text>
<text text-anchor="start" x="172.5" y="-273.5" font-family="Helvetica,sans-Serif" font-size="10.00">+</text>
<text text-anchor="start" x="185.5" y="-273.5" font-family="Helvetica,sans-Serif" font-size="10.00">TransformComponent()</text>
<text text-anchor="start" x="172.5" y="-258.5" font-family="Helvetica,sans-Serif" font-size="10.00">+</text>
<text text-anchor="start" x="185.5" y="-258.5" font-family="Helvetica,sans-Serif" font-size="10.00">TransformComponent()</text>
<text text-anchor="start" x="172.5" y="-243.5" font-family="Helvetica,sans-Serif" font-size="10.00">+</text>
<text text-anchor="start" x="185.5" y="-243.5" font-family="Helvetica,sans-Serif" font-size="10.00">get_transformation</text>
<text text-anchor="start" x="185.5" y="-232.5" font-family="Helvetica,sans-Serif" font-size="10.00">_matrix()</text>
<polygon fill="#666666" stroke="#666666" points="168.5,-298.5 168.5,-298.5 302.5,-298.5 302.5,-298.5 168.5,-298.5"/>
<polygon fill="#666666" stroke="#666666" points="168.5,-283.5 168.5,-283.5 302.5,-283.5 302.5,-283.5 168.5,-283.5"/>
<polygon fill="none" stroke="#666666" points="168.5,-225.5 168.5,-315.5 302.5,-315.5 302.5,-225.5 168.5,-225.5"/>
</a>
</g>
</g>
<!-- Node4&#45;&gt;Node1 -->
<g id="edge3_Node000001_Node000004" class="edge">
<title>Node4&#45;&gt;Node1</title>
<g id="a_edge3_Node000001_Node000004"><a xlink:title=" ">
<path fill="none" stroke="#63b8ff" d="M217.54,-225.43C211.99,-211.82 205.66,-196.28 199.27,-180.62"/>
<polygon fill="none" stroke="#63b8ff" points="199.15,-180.33 193.19,-176.28 194.62,-169.22 200.59,-173.27 199.15,-180.33"/>
</a>
</g>
<text text-anchor="middle" x="235.5" y="-190" font-family="Helvetica,sans-Serif" font-size="10.00" fill="grey"> +transform</text>
</g>
<!-- Node5 -->
<g id="Node000005" class="node">
<title>Node5</title>
<g id="a_Node000005"><a xlink:href="classVector3.html" target="_top" xlink:title=" ">
<polygon fill="white" stroke="transparent" points="278,-657 191,-657 191,-398 278,-398 278,-657"/>
<text text-anchor="start" x="216.5" y="-644.5" font-family="Helvetica,sans-Serif" font-size="10.00">Vector3</text>
<text text-anchor="start" x="195.5" y="-629.5" font-family="Helvetica,sans-Serif" font-size="10.00">+</text>
<text text-anchor="start" x="208.5" y="-629.5" font-family="Helvetica,sans-Serif" font-size="10.00">x</text>
<text text-anchor="start" x="195.5" y="-614.5" font-family="Helvetica,sans-Serif" font-size="10.00">+</text>
<text text-anchor="start" x="208.5" y="-614.5" font-family="Helvetica,sans-Serif" font-size="10.00">y</text>
<text text-anchor="start" x="195.5" y="-599.5" font-family="Helvetica,sans-Serif" font-size="10.00">+</text>
<text text-anchor="start" x="208.5" y="-599.5" font-family="Helvetica,sans-Serif" font-size="10.00">z</text>
<text text-anchor="start" x="195.5" y="-584.5" font-family="Helvetica,sans-Serif" font-size="10.00">+</text>
<text text-anchor="start" x="208.5" y="-584.5" font-family="Helvetica,sans-Serif" font-size="10.00">Vector3()</text>
<text text-anchor="start" x="195.5" y="-569.5" font-family="Helvetica,sans-Serif" font-size="10.00">+</text>
<text text-anchor="start" x="208.5" y="-569.5" font-family="Helvetica,sans-Serif" font-size="10.00">operator+()</text>
<text text-anchor="start" x="195.5" y="-554.5" font-family="Helvetica,sans-Serif" font-size="10.00">+</text>
<text text-anchor="start" x="208.5" y="-554.5" font-family="Helvetica,sans-Serif" font-size="10.00">operator&#45;()</text>
<text text-anchor="start" x="195.5" y="-539.5" font-family="Helvetica,sans-Serif" font-size="10.00">+</text>
<text text-anchor="start" x="208.5" y="-539.5" font-family="Helvetica,sans-Serif" font-size="10.00">operator*()</text>
<text text-anchor="start" x="195.5" y="-524.5" font-family="Helvetica,sans-Serif" font-size="10.00">+</text>
<text text-anchor="start" x="208.5" y="-524.5" font-family="Helvetica,sans-Serif" font-size="10.00">operator*=()</text>
<text text-anchor="start" x="195.5" y="-509.5" font-family="Helvetica,sans-Serif" font-size="10.00">+</text>
<text text-anchor="start" x="208.5" y="-509.5" font-family="Helvetica,sans-Serif" font-size="10.00">operator/()</text>
<text text-anchor="start" x="195.5" y="-494.5" font-family="Helvetica,sans-Serif" font-size="10.00">+</text>
<text text-anchor="start" x="208.5" y="-494.5" font-family="Helvetica,sans-Serif" font-size="10.00">operator==()</text>
<text text-anchor="start" x="195.5" y="-479.5" font-family="Helvetica,sans-Serif" font-size="10.00">+</text>
<text text-anchor="start" x="208.5" y="-479.5" font-family="Helvetica,sans-Serif" font-size="10.00">operator+=()</text>
<text text-anchor="start" x="195.5" y="-464.5" font-family="Helvetica,sans-Serif" font-size="10.00">+</text>
<text text-anchor="start" x="208.5" y="-464.5" font-family="Helvetica,sans-Serif" font-size="10.00">magnitude()</text>
<text text-anchor="start" x="195.5" y="-449.5" font-family="Helvetica,sans-Serif" font-size="10.00">+</text>
<text text-anchor="start" x="208.5" y="-449.5" font-family="Helvetica,sans-Serif" font-size="10.00">normalized()</text>
<text text-anchor="start" x="195.5" y="-434.5" font-family="Helvetica,sans-Serif" font-size="10.00">+</text>
<text text-anchor="start" x="208.5" y="-434.5" font-family="Helvetica,sans-Serif" font-size="10.00">dot()</text>
<text text-anchor="start" x="195.5" y="-419.5" font-family="Helvetica,sans-Serif" font-size="10.00">+</text>
<text text-anchor="start" x="208.5" y="-419.5" font-family="Helvetica,sans-Serif" font-size="10.00">cross()</text>
<text text-anchor="start" x="195.5" y="-404.5" font-family="Helvetica,sans-Serif" font-size="10.00">+</text>
<text text-anchor="start" x="208.5" y="-404.5" font-family="Helvetica,sans-Serif" font-size="10.00">toString()</text>
<polygon fill="#bfbfbf" stroke="#bfbfbf" points="191.5,-639.5 191.5,-639.5 278.5,-639.5 278.5,-639.5 191.5,-639.5"/>
<polygon fill="#bfbfbf" stroke="#bfbfbf" points="191.5,-594.5 191.5,-594.5 206.5,-594.5 206.5,-594.5 191.5,-594.5"/>
<polygon fill="#bfbfbf" stroke="#bfbfbf" points="206.5,-594.5 206.5,-594.5 278.5,-594.5 278.5,-594.5 206.5,-594.5"/>
<polygon fill="none" stroke="#bfbfbf" points="191,-398 191,-657 278,-657 278,-398 191,-398"/>
</a>
</g>
</g>
<!-- Node5&#45;&gt;Node4 -->
<g id="edge4_Node000004_Node000005" class="edge">
<title>Node5&#45;&gt;Node4</title>
<g id="a_edge4_Node000004_Node000005"><a xlink:title=" ">
<path fill="none" stroke="#63b8ff" d="M235,-397.88C235.1,-373.27 235.2,-348.71 235.28,-327.87"/>
<polygon fill="none" stroke="#63b8ff" points="235.28,-327.74 231.3,-321.73 235.33,-315.74 239.3,-321.76 235.28,-327.74"/>
</a>
</g>
<text text-anchor="middle" x="261" y="-357" font-family="Helvetica,sans-Serif" font-size="10.00" fill="grey"> +position</text>
<text text-anchor="middle" x="261" y="-346" font-family="Helvetica,sans-Serif" font-size="10.00" fill="grey">+scale</text>
</g>
<!-- Node6 -->
<g id="Node000006" class="node">
<title>Node6</title>
<g id="a_Node000006"><a xlink:href="structQuaternion.html" target="_top" xlink:title=" ">
<polygon fill="white" stroke="transparent" points="397,-672 296,-672 296,-383 397,-383 397,-672"/>
<text text-anchor="start" x="319.5" y="-659.5" font-family="Helvetica,sans-Serif" font-size="10.00">Quaternion</text>
<text text-anchor="start" x="300.5" y="-644.5" font-family="Helvetica,sans-Serif" font-size="10.00">+</text>
<text text-anchor="start" x="313.5" y="-644.5" font-family="Helvetica,sans-Serif" font-size="10.00">w</text>
<text text-anchor="start" x="300.5" y="-629.5" font-family="Helvetica,sans-Serif" font-size="10.00">+</text>
<text text-anchor="start" x="313.5" y="-629.5" font-family="Helvetica,sans-Serif" font-size="10.00">x</text>
<text text-anchor="start" x="300.5" y="-614.5" font-family="Helvetica,sans-Serif" font-size="10.00">+</text>
<text text-anchor="start" x="313.5" y="-614.5" font-family="Helvetica,sans-Serif" font-size="10.00">y</text>
<text text-anchor="start" x="300.5" y="-599.5" font-family="Helvetica,sans-Serif" font-size="10.00">+</text>
<text text-anchor="start" x="313.5" y="-599.5" font-family="Helvetica,sans-Serif" font-size="10.00">z</text>
<text text-anchor="start" x="300.5" y="-584.5" font-family="Helvetica,sans-Serif" font-size="10.00">+</text>
<text text-anchor="start" x="313.5" y="-584.5" font-family="Helvetica,sans-Serif" font-size="10.00">Quaternion()</text>
<text text-anchor="start" x="300.5" y="-569.5" font-family="Helvetica,sans-Serif" font-size="10.00">+</text>
<text text-anchor="start" x="313.5" y="-569.5" font-family="Helvetica,sans-Serif" font-size="10.00">Quaternion()</text>
<text text-anchor="start" x="300.5" y="-554.5" font-family="Helvetica,sans-Serif" font-size="10.00">+</text>
<text text-anchor="start" x="313.5" y="-554.5" font-family="Helvetica,sans-Serif" font-size="10.00">operator&#45;()</text>
<text text-anchor="start" x="300.5" y="-539.5" font-family="Helvetica,sans-Serif" font-size="10.00">+</text>
<text text-anchor="start" x="313.5" y="-539.5" font-family="Helvetica,sans-Serif" font-size="10.00">operator+()</text>
<text text-anchor="start" x="300.5" y="-524.5" font-family="Helvetica,sans-Serif" font-size="10.00">+</text>
<text text-anchor="start" x="313.5" y="-524.5" font-family="Helvetica,sans-Serif" font-size="10.00">operator&#45;()</text>
<text text-anchor="start" x="300.5" y="-509.5" font-family="Helvetica,sans-Serif" font-size="10.00">+</text>
<text text-anchor="start" x="313.5" y="-509.5" font-family="Helvetica,sans-Serif" font-size="10.00">operator*()</text>
<text text-anchor="start" x="300.5" y="-494.5" font-family="Helvetica,sans-Serif" font-size="10.00">+</text>
<text text-anchor="start" x="313.5" y="-494.5" font-family="Helvetica,sans-Serif" font-size="10.00">normalized()</text>
<text text-anchor="start" x="300.5" y="-479.5" font-family="Helvetica,sans-Serif" font-size="10.00">+</text>
<text text-anchor="start" x="313.5" y="-479.5" font-family="Helvetica,sans-Serif" font-size="10.00">dot()</text>
<text text-anchor="start" x="300.5" y="-464.5" font-family="Helvetica,sans-Serif" font-size="10.00">+</text>
<text text-anchor="start" x="313.5" y="-464.5" font-family="Helvetica,sans-Serif" font-size="10.00">operator*()</text>
<text text-anchor="start" x="300.5" y="-449.5" font-family="Helvetica,sans-Serif" font-size="10.00">+</text>
<text text-anchor="start" x="313.5" y="-449.5" font-family="Helvetica,sans-Serif" font-size="10.00">rotateVector()</text>
<text text-anchor="start" x="300.5" y="-434.5" font-family="Helvetica,sans-Serif" font-size="10.00">+</text>
<text text-anchor="start" x="313.5" y="-434.5" font-family="Helvetica,sans-Serif" font-size="10.00">toMatrix()</text>
<text text-anchor="start" x="300.5" y="-419.5" font-family="Helvetica,sans-Serif" font-size="10.00">+</text>
<text text-anchor="start" x="313.5" y="-419.5" font-family="Helvetica,sans-Serif" font-size="10.00">fromAxisAngle()</text>
<text text-anchor="start" x="300.5" y="-404.5" font-family="Helvetica,sans-Serif" font-size="10.00">+</text>
<text text-anchor="start" x="313.5" y="-404.5" font-family="Helvetica,sans-Serif" font-size="10.00">fromMatrix()</text>
<text text-anchor="start" x="300.5" y="-389.5" font-family="Helvetica,sans-Serif" font-size="10.00">+</text>
<text text-anchor="start" x="313.5" y="-389.5" font-family="Helvetica,sans-Serif" font-size="10.00">lookRotation()</text>
<polygon fill="#bfbfbf" stroke="#bfbfbf" points="296.5,-654.5 296.5,-654.5 397.5,-654.5 397.5,-654.5 296.5,-654.5"/>
<polygon fill="#bfbfbf" stroke="#bfbfbf" points="296.5,-594.5 296.5,-594.5 311.5,-594.5 311.5,-594.5 296.5,-594.5"/>
<polygon fill="#bfbfbf" stroke="#bfbfbf" points="311.5,-594.5 311.5,-594.5 397.5,-594.5 397.5,-594.5 311.5,-594.5"/>
<polygon fill="none" stroke="#bfbfbf" points="296,-383 296,-672 397,-672 397,-383 296,-383"/>
</a>
</g>
</g>
<!-- Node6&#45;&gt;Node4 -->
<g id="edge5_Node000004_Node000006" class="edge">
<title>Node6&#45;&gt;Node4</title>
<g id="a_edge5_Node000004_Node000006"><a xlink:title=" ">
<path fill="none" stroke="#63b8ff" d="M308.15,-382.75C302.86,-369.04 296.99,-355.58 290.5,-343 287.5,-337.17 284,-331.34 280.26,-325.65"/>
<polygon fill="none" stroke="#63b8ff" points="280.14,-325.48 273.44,-322.83 273.31,-315.62 280.01,-318.27 280.14,-325.48"/>
</a>
</g>
<text text-anchor="middle" x="324.5" y="-351.5" font-family="Helvetica,sans-Serif" font-size="10.00" fill="grey"> +rotation</text>
</g>
</g>
</svg>
