<?xml version="1.0" encoding="UTF-8" standalone="no"?>
<!DOCTYPE svg PUBLIC "-//W3C//DTD SVG 1.1//EN"
 "http://www.w3.org/Graphics/SVG/1.1/DTD/svg11.dtd">
<!-- Generated by graphviz version 2.43.0 (0)
 -->
<!-- Title: FrameEngine::Engine Pages: 1 -->
<svg width="121pt" height="262pt"
 viewBox="0.00 0.00 121.00 262.00" xmlns="http://www.w3.org/2000/svg" xmlns:xlink="http://www.w3.org/1999/xlink">
<g id="graph0" class="graph" transform="scale(1 1) rotate(0) translate(4 258)">
<title>FrameEngine::Engine</title>
<!-- Node1 -->
<g id="Node000001" class="node">
<title>Node1</title>
<g id="a_Node000001"><a xlink:title="Core engine class that manages the main loop, physics, and rendering.">
<polygon fill="#999999" stroke="transparent" points="113,-254 0,-254 0,-100 113,-100 113,-254"/>
<text text-anchor="start" x="5.5" y="-242" font-family="Helvetica,sans-Serif" font-size="10.00">FrameEngine::Engine</text>
<text text-anchor="start" x="10" y="-227" font-family="Helvetica,sans-Serif" font-size="10.00">#</text>
<text text-anchor="start" x="28.5" y="-227" font-family="Helvetica,sans-Serif" font-size="10.00">window</text>
<text text-anchor="start" x="10" y="-212" font-family="Helvetica,sans-Serif" font-size="10.00">#</text>
<text text-anchor="start" x="28.5" y="-212" font-family="Helvetica,sans-Serif" font-size="10.00">renderer</text>
<text text-anchor="start" x="10" y="-197" font-family="Helvetica,sans-Serif" font-size="10.00">+</text>
<text text-anchor="start" x="28.5" y="-197" font-family="Helvetica,sans-Serif" font-size="10.00">Engine()</text>
<text text-anchor="start" x="10" y="-182" font-family="Helvetica,sans-Serif" font-size="10.00">+</text>
<text text-anchor="start" x="28.5" y="-182" font-family="Helvetica,sans-Serif" font-size="10.00">~Engine()</text>
<text text-anchor="start" x="10" y="-167" font-family="Helvetica,sans-Serif" font-size="10.00">+</text>
<text text-anchor="start" x="28.5" y="-167" font-family="Helvetica,sans-Serif" font-size="10.00">init()</text>
<text text-anchor="start" x="10" y="-152" font-family="Helvetica,sans-Serif" font-size="10.00">+</text>
<text text-anchor="start" x="28.5" y="-152" font-family="Helvetica,sans-Serif" font-size="10.00">run()</text>
<text text-anchor="start" x="10" y="-137" font-family="Helvetica,sans-Serif" font-size="10.00">+</text>
<text text-anchor="start" x="28.5" y="-137" font-family="Helvetica,sans-Serif" font-size="10.00">stop()</text>
<text text-anchor="start" x="10" y="-122" font-family="Helvetica,sans-Serif" font-size="10.00">+</text>
<text text-anchor="start" x="28.5" y="-122" font-family="Helvetica,sans-Serif" font-size="10.00">fixed_update()</text>
<text text-anchor="start" x="10" y="-107" font-family="Helvetica,sans-Serif" font-size="10.00">+</text>
<text text-anchor="start" x="28.5" y="-107" font-family="Helvetica,sans-Serif" font-size="10.00">on_start()</text>
<polygon fill="#666666" stroke="#666666" points="0.5,-237 0.5,-237 113.5,-237 113.5,-237 0.5,-237"/>
<polygon fill="#666666" stroke="#666666" points="0.5,-207 0.5,-207 26.5,-207 26.5,-207 0.5,-207"/>
<polygon fill="#666666" stroke="#666666" points="26.5,-207 26.5,-207 113.5,-207 113.5,-207 26.5,-207"/>
<polygon fill="none" stroke="#666666" points="0,-100 0,-254 113,-254 113,-100 0,-100"/>
</a>
</g>
</g>
<!-- Node2 -->
<g id="Node000002" class="node">
<title>Node2</title>
<g id="a_Node000002"><a xlink:href="classSimulation.html" target="_top" xlink:title=" ">
<polygon fill="white" stroke="transparent" points="102,-64 11,-64 11,0 102,0 102,-64"/>
<text text-anchor="start" x="30.5" y="-52" font-family="Helvetica,sans-Serif" font-size="10.00">Simulation</text>
<text text-anchor="start" x="55" y="-37" font-family="Helvetica,sans-Serif" font-size="10.00"> </text>
<text text-anchor="start" x="15.5" y="-22" font-family="Helvetica,sans-Serif" font-size="10.00">+</text>
<text text-anchor="start" x="28.5" y="-22" font-family="Helvetica,sans-Serif" font-size="10.00">on_start()</text>
<text text-anchor="start" x="15.5" y="-7" font-family="Helvetica,sans-Serif" font-size="10.00">+</text>
<text text-anchor="start" x="28.5" y="-7" font-family="Helvetica,sans-Serif" font-size="10.00">fixed_update()</text>
<polygon fill="#bfbfbf" stroke="#bfbfbf" points="11.5,-47 11.5,-47 102.5,-47 102.5,-47 11.5,-47"/>
<polygon fill="#bfbfbf" stroke="#bfbfbf" points="11.5,-32 11.5,-32 102.5,-32 102.5,-32 11.5,-32"/>
<polygon fill="none" stroke="#bfbfbf" points="11,0 11,-64 102,-64 102,0 11,0"/>
</a>
</g>
</g>
<!-- Node1&#45;&gt;Node2 -->
<g id="edge1_Node000001_Node000002" class="edge">
<title>Node1&#45;&gt;Node2</title>
<g id="a_edge1_Node000001_Node000002"><a xlink:title=" ">
<path fill="none" stroke="#63b8ff" d="M56.5,-89.87C56.5,-80.72 56.5,-71.9 56.5,-64.06"/>
<polygon fill="none" stroke="#63b8ff" points="53,-89.89 56.5,-99.89 60,-89.89 53,-89.89"/>
</a>
</g>
</g>
</g>
</svg>
