<?xml version="1.0" encoding="UTF-8" standalone="no"?>
<!DOCTYPE svg PUBLIC "-//W3C//DTD SVG 1.1//EN"
 "http://www.w3.org/Graphics/SVG/1.1/DTD/svg11.dtd">
<!-- Generated by graphviz version 2.43.0 (0)
 -->
<!-- Title: FrameEngine::Engine Pages: 1 -->
<svg width="336pt" height="408pt"
 viewBox="0.00 0.00 335.50 408.00" xmlns="http://www.w3.org/2000/svg" xmlns:xlink="http://www.w3.org/1999/xlink">
<g id="graph0" class="graph" transform="scale(1 1) rotate(0) translate(4 404)">
<title>FrameEngine::Engine</title>
<!-- Node1 -->
<g id="Node000001" class="node">
<title>Node1</title>
<g id="a_Node000001"><a xlink:title="Core engine class that manages the main loop, physics, and rendering.">
<polygon fill="#999999" stroke="transparent" points="217,-139 104,-139 104,0 217,0 217,-139"/>
<text text-anchor="start" x="109.5" y="-126.5" font-family="Helvetica,sans-Serif" font-size="10.00">FrameEngine::Engine</text>
<text text-anchor="start" x="159" y="-111.5" font-family="Helvetica,sans-Serif" font-size="10.00"> </text>
<text text-anchor="start" x="114" y="-96.5" font-family="Helvetica,sans-Serif" font-size="10.00">+</text>
<text text-anchor="start" x="132.5" y="-96.5" font-family="Helvetica,sans-Serif" font-size="10.00">Engine()</text>
<text text-anchor="start" x="114" y="-81.5" font-family="Helvetica,sans-Serif" font-size="10.00">+</text>
<text text-anchor="start" x="132.5" y="-81.5" font-family="Helvetica,sans-Serif" font-size="10.00">~Engine()</text>
<text text-anchor="start" x="114" y="-66.5" font-family="Helvetica,sans-Serif" font-size="10.00">+</text>
<text text-anchor="start" x="132.5" y="-66.5" font-family="Helvetica,sans-Serif" font-size="10.00">init()</text>
<text text-anchor="start" x="114" y="-51.5" font-family="Helvetica,sans-Serif" font-size="10.00">+</text>
<text text-anchor="start" x="132.5" y="-51.5" font-family="Helvetica,sans-Serif" font-size="10.00">run()</text>
<text text-anchor="start" x="114" y="-36.5" font-family="Helvetica,sans-Serif" font-size="10.00">+</text>
<text text-anchor="start" x="132.5" y="-36.5" font-family="Helvetica,sans-Serif" font-size="10.00">stop()</text>
<text text-anchor="start" x="114" y="-21.5" font-family="Helvetica,sans-Serif" font-size="10.00">+</text>
<text text-anchor="start" x="132.5" y="-21.5" font-family="Helvetica,sans-Serif" font-size="10.00">fixed_update()</text>
<text text-anchor="start" x="114" y="-6.5" font-family="Helvetica,sans-Serif" font-size="10.00">+</text>
<text text-anchor="start" x="132.5" y="-6.5" font-family="Helvetica,sans-Serif" font-size="10.00">on_start()</text>
<polygon fill="#666666" stroke="#666666" points="104.5,-121.5 104.5,-121.5 217.5,-121.5 217.5,-121.5 104.5,-121.5"/>
<polygon fill="#666666" stroke="#666666" points="104.5,-106.5 104.5,-106.5 217.5,-106.5 217.5,-106.5 104.5,-106.5"/>
<polygon fill="none" stroke="#666666" points="104,0 104,-139 217,-139 217,0 104,0"/>
</a>
</g>
</g>
<!-- Node2 -->
<g id="Node000002" class="node">
<title>Node2</title>
<g id="a_Node000002"><a xlink:href="classFrameEngine_1_1Window.html" target="_top" xlink:title=" ">
<polygon fill="white" stroke="transparent" points="149,-370 0,-370 0,-216 149,-216 149,-370"/>
<text text-anchor="start" x="20.5" y="-358" font-family="Helvetica,sans-Serif" font-size="10.00">FrameEngine::Window</text>
<text text-anchor="start" x="73" y="-343" font-family="Helvetica,sans-Serif" font-size="10.00"> </text>
<text text-anchor="start" x="4.5" y="-328" font-family="Helvetica,sans-Serif" font-size="10.00">+</text>
<text text-anchor="start" x="17.5" y="-328" font-family="Helvetica,sans-Serif" font-size="10.00">Window()</text>
<text text-anchor="start" x="4.5" y="-313" font-family="Helvetica,sans-Serif" font-size="10.00">+</text>
<text text-anchor="start" x="17.5" y="-313" font-family="Helvetica,sans-Serif" font-size="10.00">~Window()</text>
<text text-anchor="start" x="4.5" y="-298" font-family="Helvetica,sans-Serif" font-size="10.00">+</text>
<text text-anchor="start" x="17.5" y="-298" font-family="Helvetica,sans-Serif" font-size="10.00">isOpen()</text>
<text text-anchor="start" x="4.5" y="-283" font-family="Helvetica,sans-Serif" font-size="10.00">+</text>
<text text-anchor="start" x="17.5" y="-283" font-family="Helvetica,sans-Serif" font-size="10.00">pollEvents()</text>
<text text-anchor="start" x="4.5" y="-268" font-family="Helvetica,sans-Serif" font-size="10.00">+</text>
<text text-anchor="start" x="17.5" y="-268" font-family="Helvetica,sans-Serif" font-size="10.00">swapBuffers()</text>
<text text-anchor="start" x="4.5" y="-253" font-family="Helvetica,sans-Serif" font-size="10.00">+</text>
<text text-anchor="start" x="17.5" y="-253" font-family="Helvetica,sans-Serif" font-size="10.00">getWidth()</text>
<text text-anchor="start" x="4.5" y="-238" font-family="Helvetica,sans-Serif" font-size="10.00">+</text>
<text text-anchor="start" x="17.5" y="-238" font-family="Helvetica,sans-Serif" font-size="10.00">getHeight()</text>
<text text-anchor="start" x="4.5" y="-223" font-family="Helvetica,sans-Serif" font-size="10.00">+</text>
<text text-anchor="start" x="17.5" y="-223" font-family="Helvetica,sans-Serif" font-size="10.00">framebufferSizeCallback()</text>
<polygon fill="#bfbfbf" stroke="#bfbfbf" points="0.5,-353 0.5,-353 149.5,-353 149.5,-353 0.5,-353"/>
<polygon fill="#bfbfbf" stroke="#bfbfbf" points="0.5,-338 0.5,-338 149.5,-338 149.5,-338 0.5,-338"/>
<polygon fill="none" stroke="#bfbfbf" points="0,-216 0,-370 149,-370 149,-216 0,-216"/>
</a>
</g>
</g>
<!-- Node2&#45;&gt;Node1 -->
<g id="edge1_Node000001_Node000002" class="edge">
<title>Node2&#45;&gt;Node1</title>
<g id="a_edge1_Node000001_Node000002"><a xlink:title=" ">
<path fill="none" stroke="#63b8ff" d="M104.1,-215.77C112.29,-194.66 121.21,-171.69 129.48,-150.38"/>
<polygon fill="none" stroke="#63b8ff" points="129.53,-150.26 127.97,-143.22 133.88,-139.07 135.43,-146.12 129.53,-150.26"/>
</a>
</g>
<text text-anchor="middle" x="150" y="-160" font-family="Helvetica,sans-Serif" font-size="10.00" fill="grey"> #window</text>
</g>
<!-- Node3 -->
<g id="Node000003" class="node">
<title>Node3</title>
<g id="a_Node000003"><a xlink:href="classFrameEngine_1_1Renderer.html" target="_top" xlink:title="Handles the drawing of scene objects and lights.">
<polygon fill="white" stroke="transparent" points="327.5,-400 167.5,-400 167.5,-186 327.5,-186 327.5,-400"/>
<text text-anchor="start" x="190" y="-388" font-family="Helvetica,sans-Serif" font-size="10.00">FrameEngine::Renderer</text>
<text text-anchor="start" x="245.5" y="-373" font-family="Helvetica,sans-Serif" font-size="10.00"> </text>
<text text-anchor="start" x="171.5" y="-358" font-family="Helvetica,sans-Serif" font-size="10.00">+</text>
<text text-anchor="start" x="184.5" y="-358" font-family="Helvetica,sans-Serif" font-size="10.00">Renderer()</text>
<text text-anchor="start" x="171.5" y="-343" font-family="Helvetica,sans-Serif" font-size="10.00">+</text>
<text text-anchor="start" x="184.5" y="-343" font-family="Helvetica,sans-Serif" font-size="10.00">~Renderer()</text>
<text text-anchor="start" x="171.5" y="-328" font-family="Helvetica,sans-Serif" font-size="10.00">+</text>
<text text-anchor="start" x="184.5" y="-328" font-family="Helvetica,sans-Serif" font-size="10.00">initialize()</text>
<text text-anchor="start" x="171.5" y="-313" font-family="Helvetica,sans-Serif" font-size="10.00">+</text>
<text text-anchor="start" x="184.5" y="-313" font-family="Helvetica,sans-Serif" font-size="10.00">render()</text>
<text text-anchor="start" x="171.5" y="-298" font-family="Helvetica,sans-Serif" font-size="10.00">+</text>
<text text-anchor="start" x="184.5" y="-298" font-family="Helvetica,sans-Serif" font-size="10.00">getCamera()</text>
<text text-anchor="start" x="171.5" y="-283" font-family="Helvetica,sans-Serif" font-size="10.00">+</text>
<text text-anchor="start" x="184.5" y="-283" font-family="Helvetica,sans-Serif" font-size="10.00">resize()</text>
<text text-anchor="start" x="171.5" y="-268" font-family="Helvetica,sans-Serif" font-size="10.00">+</text>
<text text-anchor="start" x="184.5" y="-268" font-family="Helvetica,sans-Serif" font-size="10.00">addPostProcessingEffect()</text>
<text text-anchor="start" x="171.5" y="-253" font-family="Helvetica,sans-Serif" font-size="10.00">+</text>
<text text-anchor="start" x="184.5" y="-253" font-family="Helvetica,sans-Serif" font-size="10.00">setPostProcessingPipeline()</text>
<text text-anchor="start" x="171.5" y="-238" font-family="Helvetica,sans-Serif" font-size="10.00">+</text>
<text text-anchor="start" x="184.5" y="-238" font-family="Helvetica,sans-Serif" font-size="10.00">clearPostProcessingEffects()</text>
<text text-anchor="start" x="171.5" y="-223" font-family="Helvetica,sans-Serif" font-size="10.00">+</text>
<text text-anchor="start" x="184.5" y="-223" font-family="Helvetica,sans-Serif" font-size="10.00">getPostProcessingPipeline()</text>
<text text-anchor="start" x="171.5" y="-208" font-family="Helvetica,sans-Serif" font-size="10.00">+</text>
<text text-anchor="start" x="184.5" y="-208" font-family="Helvetica,sans-Serif" font-size="10.00">clear()</text>
<text text-anchor="start" x="171.5" y="-193" font-family="Helvetica,sans-Serif" font-size="10.00">+</text>
<text text-anchor="start" x="184.5" y="-193" font-family="Helvetica,sans-Serif" font-size="10.00">shutdown()</text>
<polygon fill="#666666" stroke="#666666" points="167.5,-383 167.5,-383 327.5,-383 327.5,-383 167.5,-383"/>
<polygon fill="#666666" stroke="#666666" points="167.5,-368 167.5,-368 327.5,-368 327.5,-368 167.5,-368"/>
<polygon fill="none" stroke="#666666" points="167.5,-186 167.5,-400 327.5,-400 327.5,-186 167.5,-186"/>
</a>
</g>
</g>
<!-- Node3&#45;&gt;Node1 -->
<g id="edge2_Node000001_Node000003" class="edge">
<title>Node3&#45;&gt;Node1</title>
<g id="a_edge2_Node000001_Node000003"><a xlink:title=" ">
<path fill="none" stroke="#63b8ff" d="M205.78,-185.79C201.11,-173.88 196.4,-161.91 191.89,-150.41"/>
<polygon fill="none" stroke="#63b8ff" points="191.83,-150.26 185.91,-146.14 187.44,-139.09 193.36,-143.22 191.83,-150.26"/>
</a>
</g>
<text text-anchor="middle" x="225" y="-160" font-family="Helvetica,sans-Serif" font-size="10.00" fill="grey"> #renderer</text>
</g>
</g>
</svg>
