<?xml version="1.0" encoding="UTF-8" standalone="no"?>
<!DOCTYPE svg PUBLIC "-//W3C//DTD SVG 1.1//EN"
 "http://www.w3.org/Graphics/SVG/1.1/DTD/svg11.dtd">
<!-- Generated by graphviz version 12.2.1 (0)
 -->
<!-- Title: Logger Pages: 1 -->
<svg width="93pt" height="96pt"
 viewBox="0.00 0.00 92.75 95.75" xmlns="http://www.w3.org/2000/svg" xmlns:xlink="http://www.w3.org/1999/xlink">
<g id="graph0" class="graph" transform="scale(1 1) rotate(0) translate(4 91.75)">
<title>Logger</title>
<!-- Node1 -->
<g id="Node000001" class="node">
<title>Node1</title>
<g id="a_Node000001"><a xlink:title=" ">
<polygon fill="#999999" stroke="none" points="84.75,-87.75 0,-87.75 0,0 84.75,0 84.75,-87.75"/>
<text text-anchor="start" x="25.88" y="-74.25" font-family="Helvetica,sans-Serif" font-size="10.00">Logger</text>
<text text-anchor="start" x="39.38" y="-57.5" font-family="Helvetica,sans-Serif" font-size="10.00"> </text>
<text text-anchor="start" x="4" y="-40.75" font-family="Helvetica,sans-Serif" font-size="10.00">+</text>
<text text-anchor="start" x="16.25" y="-40.75" font-family="Helvetica,sans-Serif" font-size="10.00">setLogFile()</text>
<text text-anchor="start" x="4" y="-24" font-family="Helvetica,sans-Serif" font-size="10.00">+</text>
<text text-anchor="start" x="16.25" y="-24" font-family="Helvetica,sans-Serif" font-size="10.00">log()</text>
<text text-anchor="start" x="4" y="-7.25" font-family="Helvetica,sans-Serif" font-size="10.00">+</text>
<text text-anchor="start" x="16.25" y="-7.25" font-family="Helvetica,sans-Serif" font-size="10.00">getInstance()</text>
<polygon fill="#666666" stroke="#666666" points="0,-69 0,-69 84.75,-69 84.75,-69 0,-69"/>
<polygon fill="#666666" stroke="#666666" points="0,-52.25 0,-52.25 84.75,-52.25 84.75,-52.25 0,-52.25"/>
<polygon fill="none" stroke="#666666" points="0,0 0,-87.75 84.75,-87.75 84.75,0 0,0"/>
</a>
</g>
</g>
</g>
</svg>
