<?xml version="1.0" encoding="UTF-8" standalone="no"?>
<!DOCTYPE svg PUBLIC "-//W3C//DTD SVG 1.1//EN"
 "http://www.w3.org/Graphics/SVG/1.1/DTD/svg11.dtd">
<!-- Generated by graphviz version 2.43.0 (0)
 -->
<!-- Title: ComponentStorage&lt; T &gt; Pages: 1 -->
<svg width="142pt" height="187pt"
 viewBox="0.00 0.00 142.00 187.00" xmlns="http://www.w3.org/2000/svg" xmlns:xlink="http://www.w3.org/1999/xlink">
<g id="graph0" class="graph" transform="scale(1 1) rotate(0) translate(4 183)">
<title>ComponentStorage&lt; T &gt;</title>
<!-- Node1 -->
<g id="Node000001" class="node">
<title>Node1</title>
<g id="a_Node000001"><a xlink:title="Stores a specific type of component for entities.">
<polygon fill="#999999" stroke="transparent" points="133.5,-94 0.5,-94 0.5,0 133.5,0 133.5,-94"/>
<text text-anchor="start" x="6" y="-82" font-family="Helvetica,sans-Serif" font-size="10.00">ComponentStorage&lt; T &gt;</text>
<text text-anchor="start" x="65.5" y="-67" font-family="Helvetica,sans-Serif" font-size="10.00"> </text>
<text text-anchor="start" x="21.5" y="-52" font-family="Helvetica,sans-Serif" font-size="10.00">+</text>
<text text-anchor="start" x="51" y="-52" font-family="Helvetica,sans-Serif" font-size="10.00">add()</text>
<text text-anchor="start" x="21.5" y="-37" font-family="Helvetica,sans-Serif" font-size="10.00">+</text>
<text text-anchor="start" x="51" y="-37" font-family="Helvetica,sans-Serif" font-size="10.00">remove()</text>
<text text-anchor="start" x="21.5" y="-22" font-family="Helvetica,sans-Serif" font-size="10.00">+</text>
<text text-anchor="start" x="51" y="-22" font-family="Helvetica,sans-Serif" font-size="10.00">has()</text>
<text text-anchor="start" x="21.5" y="-7" font-family="Helvetica,sans-Serif" font-size="10.00">+</text>
<text text-anchor="start" x="51" y="-7" font-family="Helvetica,sans-Serif" font-size="10.00">get()</text>
<polygon fill="#666666" stroke="#666666" points="1,-77 1,-77 134,-77 134,-77 1,-77"/>
<polygon fill="#666666" stroke="#666666" points="1,-62 1,-62 134,-62 134,-62 1,-62"/>
<polygon fill="none" stroke="#666666" points="0.5,0 0.5,-94 133.5,-94 133.5,0 0.5,0"/>
</a>
</g>
</g>
<!-- Node2 -->
<g id="Node000002" class="node">
<title>Node2</title>
<g id="a_Node000002"><a xlink:href="classIComponentStorage.html" target="_top" xlink:title="Interface for generic component storage.">
<polygon fill="white" stroke="transparent" points="134,-179 0,-179 0,-130 134,-130 134,-179"/>
<text text-anchor="start" x="18.5" y="-166.5" font-family="Helvetica,sans-Serif" font-size="10.00">IComponentStorage</text>
<text text-anchor="start" x="65" y="-151.5" font-family="Helvetica,sans-Serif" font-size="10.00"> </text>
<text text-anchor="start" x="4" y="-136.5" font-family="Helvetica,sans-Serif" font-size="10.00">+</text>
<text text-anchor="start" x="17" y="-136.5" font-family="Helvetica,sans-Serif" font-size="10.00">~IComponentStorage()</text>
<polygon fill="#666666" stroke="#666666" points="0,-161.5 0,-161.5 134,-161.5 134,-161.5 0,-161.5"/>
<polygon fill="#666666" stroke="#666666" points="0,-146.5 0,-146.5 134,-146.5 134,-146.5 0,-146.5"/>
<polygon fill="none" stroke="#666666" points="0,-130 0,-179 134,-179 134,-130 0,-130"/>
</a>
</g>
</g>
<!-- Node2&#45;&gt;Node1 -->
<g id="edge1_Node000001_Node000002" class="edge">
<title>Node2&#45;&gt;Node1</title>
<g id="a_edge1_Node000001_Node000002"><a xlink:title=" ">
<path fill="none" stroke="#63b8ff" d="M67,-119.61C67,-111.48 67,-102.66 67,-94.08"/>
<polygon fill="none" stroke="#63b8ff" points="63.5,-119.82 67,-129.82 70.5,-119.82 63.5,-119.82"/>
</a>
</g>
</g>
</g>
</svg>
