<?xml version="1.0" encoding="UTF-8" standalone="no"?>
<!DOCTYPE svg PUBLIC "-//W3C//DTD SVG 1.1//EN"
 "http://www.w3.org/Graphics/SVG/1.1/DTD/svg11.dtd">
<!-- Generated by graphviz version 12.2.1 (0)
 -->
<!-- Title: Engine Pages: 1 -->
<svg width="100pt" height="303pt"
 viewBox="0.00 0.00 99.50 303.25" xmlns="http://www.w3.org/2000/svg" xmlns:xlink="http://www.w3.org/1999/xlink">
<g id="graph0" class="graph" transform="scale(1 1) rotate(0) translate(4 299.25)">
<title>Engine</title>
<!-- Node1 -->
<g id="Node000001" class="node">
<title>Node1</title>
<g id="a_Node000001"><a xlink:title="Core engine class that manages the main loop, physics, and rendering.">
<polygon fill="#999999" stroke="none" points="91.5,-295.25 0,-295.25 0,-107 91.5,-107 91.5,-295.25"/>
<text text-anchor="start" x="29.25" y="-281.75" font-family="Helvetica,sans-Serif" font-size="10.00">Engine</text>
<text text-anchor="start" x="4" y="-265" font-family="Helvetica,sans-Serif" font-size="10.00">#</text>
<text text-anchor="start" x="16.25" y="-265" font-family="Helvetica,sans-Serif" font-size="10.00">registry</text>
<text text-anchor="start" x="4" y="-248.25" font-family="Helvetica,sans-Serif" font-size="10.00">#</text>
<text text-anchor="start" x="16.25" y="-248.25" font-family="Helvetica,sans-Serif" font-size="10.00">window</text>
<text text-anchor="start" x="4" y="-231.5" font-family="Helvetica,sans-Serif" font-size="10.00">#</text>
<text text-anchor="start" x="16.25" y="-231.5" font-family="Helvetica,sans-Serif" font-size="10.00">renderer</text>
<text text-anchor="start" x="4" y="-214.75" font-family="Helvetica,sans-Serif" font-size="10.00">+</text>
<text text-anchor="start" x="16.25" y="-214.75" font-family="Helvetica,sans-Serif" font-size="10.00">Engine()</text>
<text text-anchor="start" x="4" y="-198" font-family="Helvetica,sans-Serif" font-size="10.00">+</text>
<text text-anchor="start" x="16.25" y="-198" font-family="Helvetica,sans-Serif" font-size="10.00">~Engine()</text>
<text text-anchor="start" x="4" y="-181.25" font-family="Helvetica,sans-Serif" font-size="10.00">+</text>
<text text-anchor="start" x="16.25" y="-181.25" font-family="Helvetica,sans-Serif" font-size="10.00">init()</text>
<text text-anchor="start" x="4" y="-164.5" font-family="Helvetica,sans-Serif" font-size="10.00">+</text>
<text text-anchor="start" x="16.25" y="-164.5" font-family="Helvetica,sans-Serif" font-size="10.00">run()</text>
<text text-anchor="start" x="4" y="-147.75" font-family="Helvetica,sans-Serif" font-size="10.00">+</text>
<text text-anchor="start" x="16.25" y="-147.75" font-family="Helvetica,sans-Serif" font-size="10.00">stop()</text>
<text text-anchor="start" x="4" y="-131" font-family="Helvetica,sans-Serif" font-size="10.00">+</text>
<text text-anchor="start" x="16.25" y="-131" font-family="Helvetica,sans-Serif" font-size="10.00">fixed_update()</text>
<text text-anchor="start" x="4" y="-114.25" font-family="Helvetica,sans-Serif" font-size="10.00">+</text>
<text text-anchor="start" x="16.25" y="-114.25" font-family="Helvetica,sans-Serif" font-size="10.00">on_start()</text>
<polygon fill="#666666" stroke="#666666" points="0,-276.5 0,-276.5 91.5,-276.5 91.5,-276.5 0,-276.5"/>
<polygon fill="#666666" stroke="#666666" points="0,-226.25 0,-226.25 14.25,-226.25 14.25,-226.25 0,-226.25"/>
<polygon fill="#666666" stroke="#666666" points="14.25,-226.25 14.25,-226.25 91.5,-226.25 91.5,-226.25 14.25,-226.25"/>
<polygon fill="none" stroke="#666666" points="0,-107 0,-295.25 91.5,-295.25 91.5,-107 0,-107"/>
</a>
</g>
</g>
<!-- Node2 -->
<g id="Node000002" class="node">
<title>Node2</title>
<g id="a_Node000002"><a xlink:href="classSimulation.html" target="_top" xlink:title=" ">
<polygon fill="white" stroke="none" points="91.5,-71 0,-71 0,0 91.5,0 91.5,-71"/>
<text text-anchor="start" x="19.5" y="-57.5" font-family="Helvetica,sans-Serif" font-size="10.00">Simulation</text>
<text text-anchor="start" x="42.75" y="-40.75" font-family="Helvetica,sans-Serif" font-size="10.00"> </text>
<text text-anchor="start" x="4" y="-24" font-family="Helvetica,sans-Serif" font-size="10.00">+</text>
<text text-anchor="start" x="16.25" y="-24" font-family="Helvetica,sans-Serif" font-size="10.00">on_start()</text>
<text text-anchor="start" x="4" y="-7.25" font-family="Helvetica,sans-Serif" font-size="10.00">+</text>
<text text-anchor="start" x="16.25" y="-7.25" font-family="Helvetica,sans-Serif" font-size="10.00">fixed_update()</text>
<polygon fill="#bfbfbf" stroke="#bfbfbf" points="0,-52.25 0,-52.25 91.5,-52.25 91.5,-52.25 0,-52.25"/>
<polygon fill="#bfbfbf" stroke="#bfbfbf" points="0,-35.5 0,-35.5 91.5,-35.5 91.5,-35.5 0,-35.5"/>
<polygon fill="none" stroke="#bfbfbf" points="0,0 0,-71 91.5,-71 91.5,0 0,0"/>
</a>
</g>
</g>
<!-- Node1&#45;&gt;Node2 -->
<g id="edge1_Node000001_Node000002" class="edge">
<title>Node1&#45;&gt;Node2</title>
<g id="a_edge1_Node000001_Node000002"><a xlink:title=" ">
<path fill="none" stroke="#63b8ff" d="M45.75,-95.89C45.75,-87 45.75,-78.49 45.75,-70.84"/>
<polygon fill="none" stroke="#63b8ff" points="42.25,-95.8 45.75,-105.8 49.25,-95.8 42.25,-95.8"/>
</a>
</g>
</g>
</g>
</svg>
