<?xml version="1.0" encoding="UTF-8" standalone="no"?>
<!DOCTYPE svg PUBLIC "-//W3C//DTD SVG 1.1//EN"
 "http://www.w3.org/Graphics/SVG/1.1/DTD/svg11.dtd">
<!-- Generated by graphviz version 2.43.0 (0)
 -->
<!-- Title: Simulation Pages: 1 -->
<svg width="457pt" height="494pt"
 viewBox="0.00 0.00 456.50 494.00" xmlns="http://www.w3.org/2000/svg" xmlns:xlink="http://www.w3.org/1999/xlink">
<g id="graph0" class="graph" transform="scale(1 1) rotate(0) translate(4 490)">
<title>Simulation</title>
<!-- Node1 -->
<g id="Node000001" class="node">
<title>Node1</title>
<g id="a_Node000001"><a xlink:title=" ">
<polygon fill="#999999" stroke="transparent" points="311,-64 220,-64 220,0 311,0 311,-64"/>
<text text-anchor="start" x="239.5" y="-52" font-family="Helvetica,sans-Serif" font-size="10.00">Simulation</text>
<text text-anchor="start" x="264" y="-37" font-family="Helvetica,sans-Serif" font-size="10.00"> </text>
<text text-anchor="start" x="224.5" y="-22" font-family="Helvetica,sans-Serif" font-size="10.00">+</text>
<text text-anchor="start" x="237.5" y="-22" font-family="Helvetica,sans-Serif" font-size="10.00">on_start()</text>
<text text-anchor="start" x="224.5" y="-7" font-family="Helvetica,sans-Serif" font-size="10.00">+</text>
<text text-anchor="start" x="237.5" y="-7" font-family="Helvetica,sans-Serif" font-size="10.00">fixed_update()</text>
<polygon fill="#666666" stroke="#666666" points="220.5,-47 220.5,-47 311.5,-47 311.5,-47 220.5,-47"/>
<polygon fill="#666666" stroke="#666666" points="220.5,-32 220.5,-32 311.5,-32 311.5,-32 220.5,-32"/>
<polygon fill="none" stroke="#666666" points="220,0 220,-64 311,-64 311,0 220,0"/>
</a>
</g>
</g>
<!-- Node2 -->
<g id="Node000002" class="node">
<title>Node2</title>
<g id="a_Node000002"><a xlink:href="classEngine.html" target="_top" xlink:title="Core engine class that manages the main loop, physics, and rendering.">
<polygon fill="white" stroke="transparent" points="311,-240 220,-240 220,-101 311,-101 311,-240"/>
<text text-anchor="start" x="249" y="-227.5" font-family="Helvetica,sans-Serif" font-size="10.00">Engine</text>
<text text-anchor="start" x="264" y="-212.5" font-family="Helvetica,sans-Serif" font-size="10.00"> </text>
<text text-anchor="start" x="224.5" y="-197.5" font-family="Helvetica,sans-Serif" font-size="10.00">+</text>
<text text-anchor="start" x="237.5" y="-197.5" font-family="Helvetica,sans-Serif" font-size="10.00">Engine()</text>
<text text-anchor="start" x="224.5" y="-182.5" font-family="Helvetica,sans-Serif" font-size="10.00">+</text>
<text text-anchor="start" x="237.5" y="-182.5" font-family="Helvetica,sans-Serif" font-size="10.00">~Engine()</text>
<text text-anchor="start" x="224.5" y="-167.5" font-family="Helvetica,sans-Serif" font-size="10.00">+</text>
<text text-anchor="start" x="237.5" y="-167.5" font-family="Helvetica,sans-Serif" font-size="10.00">init()</text>
<text text-anchor="start" x="224.5" y="-152.5" font-family="Helvetica,sans-Serif" font-size="10.00">+</text>
<text text-anchor="start" x="237.5" y="-152.5" font-family="Helvetica,sans-Serif" font-size="10.00">run()</text>
<text text-anchor="start" x="224.5" y="-137.5" font-family="Helvetica,sans-Serif" font-size="10.00">+</text>
<text text-anchor="start" x="237.5" y="-137.5" font-family="Helvetica,sans-Serif" font-size="10.00">stop()</text>
<text text-anchor="start" x="224.5" y="-122.5" font-family="Helvetica,sans-Serif" font-size="10.00">+</text>
<text text-anchor="start" x="237.5" y="-122.5" font-family="Helvetica,sans-Serif" font-size="10.00">fixed_update()</text>
<text text-anchor="start" x="224.5" y="-107.5" font-family="Helvetica,sans-Serif" font-size="10.00">+</text>
<text text-anchor="start" x="237.5" y="-107.5" font-family="Helvetica,sans-Serif" font-size="10.00">on_start()</text>
<polygon fill="#666666" stroke="#666666" points="220.5,-222.5 220.5,-222.5 311.5,-222.5 311.5,-222.5 220.5,-222.5"/>
<polygon fill="#666666" stroke="#666666" points="220.5,-207.5 220.5,-207.5 311.5,-207.5 311.5,-207.5 220.5,-207.5"/>
<polygon fill="none" stroke="#666666" points="220,-101 220,-240 311,-240 311,-101 220,-101"/>
</a>
</g>
</g>
<!-- Node2&#45;&gt;Node1 -->
<g id="edge1_Node000001_Node000002" class="edge">
<title>Node2&#45;&gt;Node1</title>
<g id="a_edge1_Node000001_Node000002"><a xlink:title=" ">
<path fill="none" stroke="#63b8ff" d="M265.5,-90.63C265.5,-81.27 265.5,-72.19 265.5,-64.1"/>
<polygon fill="none" stroke="#63b8ff" points="262,-90.85 265.5,-100.85 269,-90.85 262,-90.85"/>
</a>
</g>
</g>
<!-- Node3 -->
<g id="Node000003" class="node">
<title>Node3</title>
<g id="a_Node000003"><a xlink:href="classRegistry.html" target="_top" xlink:title="Manages all ECS entities and components.">
<polygon fill="white" stroke="transparent" points="173,-478.5 0,-478.5 0,-294.5 173,-294.5 173,-478.5"/>
<text text-anchor="start" x="66.5" y="-466.5" font-family="Helvetica,sans-Serif" font-size="10.00">Registry</text>
<text text-anchor="start" x="85" y="-451.5" font-family="Helvetica,sans-Serif" font-size="10.00"> </text>
<text text-anchor="start" x="4.5" y="-436.5" font-family="Helvetica,sans-Serif" font-size="10.00">+</text>
<text text-anchor="start" x="17.5" y="-436.5" font-family="Helvetica,sans-Serif" font-size="10.00">Registry()</text>
<text text-anchor="start" x="4.5" y="-421.5" font-family="Helvetica,sans-Serif" font-size="10.00">+</text>
<text text-anchor="start" x="17.5" y="-421.5" font-family="Helvetica,sans-Serif" font-size="10.00">operator=()</text>
<text text-anchor="start" x="4.5" y="-406.5" font-family="Helvetica,sans-Serif" font-size="10.00">+</text>
<text text-anchor="start" x="17.5" y="-406.5" font-family="Helvetica,sans-Serif" font-size="10.00">Registry()</text>
<text text-anchor="start" x="4.5" y="-391.5" font-family="Helvetica,sans-Serif" font-size="10.00">+</text>
<text text-anchor="start" x="17.5" y="-391.5" font-family="Helvetica,sans-Serif" font-size="10.00">create_entity()</text>
<text text-anchor="start" x="4.5" y="-376.5" font-family="Helvetica,sans-Serif" font-size="10.00">+</text>
<text text-anchor="start" x="17.5" y="-376.5" font-family="Helvetica,sans-Serif" font-size="10.00">destroy_entity()</text>
<text text-anchor="start" x="4.5" y="-361.5" font-family="Helvetica,sans-Serif" font-size="10.00">+</text>
<text text-anchor="start" x="17.5" y="-361.5" font-family="Helvetica,sans-Serif" font-size="10.00">add_component()</text>
<text text-anchor="start" x="4.5" y="-346.5" font-family="Helvetica,sans-Serif" font-size="10.00">+</text>
<text text-anchor="start" x="17.5" y="-346.5" font-family="Helvetica,sans-Serif" font-size="10.00">has_component()</text>
<text text-anchor="start" x="4.5" y="-331.5" font-family="Helvetica,sans-Serif" font-size="10.00">+</text>
<text text-anchor="start" x="17.5" y="-331.5" font-family="Helvetica,sans-Serif" font-size="10.00">get_component()</text>
<text text-anchor="start" x="4.5" y="-316.5" font-family="Helvetica,sans-Serif" font-size="10.00">+</text>
<text text-anchor="start" x="17.5" y="-316.5" font-family="Helvetica,sans-Serif" font-size="10.00">remove_component()</text>
<text text-anchor="start" x="4.5" y="-301.5" font-family="Helvetica,sans-Serif" font-size="10.00">+</text>
<text text-anchor="start" x="17.5" y="-301.5" font-family="Helvetica,sans-Serif" font-size="10.00">get_entities_with_component()</text>
<polygon fill="#666666" stroke="#666666" points="0.5,-461.5 0.5,-461.5 173.5,-461.5 173.5,-461.5 0.5,-461.5"/>
<polygon fill="#666666" stroke="#666666" points="0.5,-446.5 0.5,-446.5 173.5,-446.5 173.5,-446.5 0.5,-446.5"/>
<polygon fill="none" stroke="#666666" points="0,-294.5 0,-478.5 173,-478.5 173,-294.5 0,-294.5"/>
</a>
</g>
</g>
<!-- Node3&#45;&gt;Node2 -->
<g id="edge2_Node000002_Node000003" class="edge">
<title>Node3&#45;&gt;Node2</title>
<g id="a_edge2_Node000002_Node000003"><a xlink:title=" ">
<path fill="none" stroke="#63b8ff" d="M162.67,-294.43C179.36,-274.48 196.68,-253.78 212.24,-235.17"/>
<polygon fill="none" stroke="#63b8ff" points="212.27,-235.14 213.05,-227.97 219.96,-225.94 219.18,-233.11 212.27,-235.14"/>
</a>
</g>
<text text-anchor="middle" x="217" y="-261" font-family="Helvetica,sans-Serif" font-size="10.00" fill="grey"> #registry</text>
</g>
<!-- Node4 -->
<g id="Node000004" class="node">
<title>Node4</title>
<g id="a_Node000004"><a xlink:href="classWindow.html" target="_top" xlink:title=" ">
<polygon fill="white" stroke="transparent" points="340,-463.5 191,-463.5 191,-309.5 340,-309.5 340,-463.5"/>
<text text-anchor="start" x="246" y="-451.5" font-family="Helvetica,sans-Serif" font-size="10.00">Window</text>
<text text-anchor="start" x="264" y="-436.5" font-family="Helvetica,sans-Serif" font-size="10.00"> </text>
<text text-anchor="start" x="195.5" y="-421.5" font-family="Helvetica,sans-Serif" font-size="10.00">+</text>
<text text-anchor="start" x="208.5" y="-421.5" font-family="Helvetica,sans-Serif" font-size="10.00">Window()</text>
<text text-anchor="start" x="195.5" y="-406.5" font-family="Helvetica,sans-Serif" font-size="10.00">+</text>
<text text-anchor="start" x="208.5" y="-406.5" font-family="Helvetica,sans-Serif" font-size="10.00">~Window()</text>
<text text-anchor="start" x="195.5" y="-391.5" font-family="Helvetica,sans-Serif" font-size="10.00">+</text>
<text text-anchor="start" x="208.5" y="-391.5" font-family="Helvetica,sans-Serif" font-size="10.00">isOpen()</text>
<text text-anchor="start" x="195.5" y="-376.5" font-family="Helvetica,sans-Serif" font-size="10.00">+</text>
<text text-anchor="start" x="208.5" y="-376.5" font-family="Helvetica,sans-Serif" font-size="10.00">pollEvents()</text>
<text text-anchor="start" x="195.5" y="-361.5" font-family="Helvetica,sans-Serif" font-size="10.00">+</text>
<text text-anchor="start" x="208.5" y="-361.5" font-family="Helvetica,sans-Serif" font-size="10.00">swapBuffers()</text>
<text text-anchor="start" x="195.5" y="-346.5" font-family="Helvetica,sans-Serif" font-size="10.00">+</text>
<text text-anchor="start" x="208.5" y="-346.5" font-family="Helvetica,sans-Serif" font-size="10.00">getWidth()</text>
<text text-anchor="start" x="195.5" y="-331.5" font-family="Helvetica,sans-Serif" font-size="10.00">+</text>
<text text-anchor="start" x="208.5" y="-331.5" font-family="Helvetica,sans-Serif" font-size="10.00">getHeight()</text>
<text text-anchor="start" x="195.5" y="-316.5" font-family="Helvetica,sans-Serif" font-size="10.00">+</text>
<text text-anchor="start" x="208.5" y="-316.5" font-family="Helvetica,sans-Serif" font-size="10.00">framebufferSizeCallback()</text>
<polygon fill="#bfbfbf" stroke="#bfbfbf" points="191.5,-446.5 191.5,-446.5 340.5,-446.5 340.5,-446.5 191.5,-446.5"/>
<polygon fill="#bfbfbf" stroke="#bfbfbf" points="191.5,-431.5 191.5,-431.5 340.5,-431.5 340.5,-431.5 191.5,-431.5"/>
<polygon fill="none" stroke="#bfbfbf" points="191,-309.5 191,-463.5 340,-463.5 340,-309.5 191,-309.5"/>
</a>
</g>
</g>
<!-- Node4&#45;&gt;Node2 -->
<g id="edge3_Node000002_Node000004" class="edge">
<title>Node4&#45;&gt;Node2</title>
<g id="a_edge3_Node000002_Node000004"><a xlink:title=" ">
<path fill="none" stroke="#63b8ff" d="M265.5,-309.45C265.5,-290.92 265.5,-271.04 265.5,-252.3"/>
<polygon fill="none" stroke="#63b8ff" points="265.5,-252.18 261.5,-246.18 265.5,-240.18 269.5,-246.18 265.5,-252.18"/>
</a>
</g>
<text text-anchor="middle" x="290" y="-261" font-family="Helvetica,sans-Serif" font-size="10.00" fill="grey"> #window</text>
</g>
<!-- Node5 -->
<g id="Node000005" class="node">
<title>Node5</title>
<g id="a_Node000005"><a xlink:href="classRenderer.html" target="_top" xlink:title="Handles the drawing of scene objects and lights.">
<polygon fill="white" stroke="transparent" points="448.5,-486 358.5,-486 358.5,-287 448.5,-287 448.5,-486"/>
<text text-anchor="start" x="381" y="-473.5" font-family="Helvetica,sans-Serif" font-size="10.00">Renderer</text>
<text text-anchor="start" x="401.5" y="-458.5" font-family="Helvetica,sans-Serif" font-size="10.00"> </text>
<text text-anchor="start" x="362.5" y="-443.5" font-family="Helvetica,sans-Serif" font-size="10.00">+</text>
<text text-anchor="start" x="375.5" y="-443.5" font-family="Helvetica,sans-Serif" font-size="10.00">Renderer()</text>
<text text-anchor="start" x="362.5" y="-428.5" font-family="Helvetica,sans-Serif" font-size="10.00">+</text>
<text text-anchor="start" x="375.5" y="-428.5" font-family="Helvetica,sans-Serif" font-size="10.00">clearObjects()</text>
<text text-anchor="start" x="362.5" y="-413.5" font-family="Helvetica,sans-Serif" font-size="10.00">+</text>
<text text-anchor="start" x="375.5" y="-413.5" font-family="Helvetica,sans-Serif" font-size="10.00">render()</text>
<text text-anchor="start" x="362.5" y="-398.5" font-family="Helvetica,sans-Serif" font-size="10.00">+</text>
<text text-anchor="start" x="375.5" y="-398.5" font-family="Helvetica,sans-Serif" font-size="10.00">setShader()</text>
<text text-anchor="start" x="362.5" y="-383.5" font-family="Helvetica,sans-Serif" font-size="10.00">+</text>
<text text-anchor="start" x="375.5" y="-383.5" font-family="Helvetica,sans-Serif" font-size="10.00">getCamera()</text>
<text text-anchor="start" x="362.5" y="-368.5" font-family="Helvetica,sans-Serif" font-size="10.00">+</text>
<text text-anchor="start" x="375.5" y="-368.5" font-family="Helvetica,sans-Serif" font-size="10.00">initialize()</text>
<text text-anchor="start" x="362.5" y="-353.5" font-family="Helvetica,sans-Serif" font-size="10.00">+</text>
<text text-anchor="start" x="375.5" y="-353.5" font-family="Helvetica,sans-Serif" font-size="10.00">clear()</text>
<text text-anchor="start" x="362.5" y="-338.5" font-family="Helvetica,sans-Serif" font-size="10.00">+</text>
<text text-anchor="start" x="375.5" y="-338.5" font-family="Helvetica,sans-Serif" font-size="10.00">submit()</text>
<text text-anchor="start" x="362.5" y="-323.5" font-family="Helvetica,sans-Serif" font-size="10.00">+</text>
<text text-anchor="start" x="375.5" y="-323.5" font-family="Helvetica,sans-Serif" font-size="10.00">submitLight()</text>
<text text-anchor="start" x="362.5" y="-308.5" font-family="Helvetica,sans-Serif" font-size="10.00">+</text>
<text text-anchor="start" x="375.5" y="-308.5" font-family="Helvetica,sans-Serif" font-size="10.00">shutdown()</text>
<text text-anchor="start" x="362.5" y="-293.5" font-family="Helvetica,sans-Serif" font-size="10.00">+</text>
<text text-anchor="start" x="375.5" y="-293.5" font-family="Helvetica,sans-Serif" font-size="10.00">getShader()</text>
<polygon fill="#666666" stroke="#666666" points="358.5,-468.5 358.5,-468.5 448.5,-468.5 448.5,-468.5 358.5,-468.5"/>
<polygon fill="#666666" stroke="#666666" points="358.5,-453.5 358.5,-453.5 448.5,-453.5 448.5,-453.5 358.5,-453.5"/>
<polygon fill="none" stroke="#666666" points="358.5,-287 358.5,-486 448.5,-486 448.5,-287 358.5,-287"/>
</a>
</g>
</g>
<!-- Node5&#45;&gt;Node2 -->
<g id="edge4_Node000002_Node000005" class="edge">
<title>Node5&#45;&gt;Node2</title>
<g id="a_edge4_Node000002_Node000005"><a xlink:title=" ">
<path fill="none" stroke="#63b8ff" d="M358.43,-303.12C355.14,-297.62 351.81,-292.21 348.5,-287 339.14,-272.27 328.62,-256.87 318.29,-242.29"/>
<polygon fill="none" stroke="#63b8ff" points="318.16,-242.11 311.42,-239.55 311.19,-232.34 317.93,-234.9 318.16,-242.11"/>
</a>
</g>
<text text-anchor="middle" x="362" y="-261" font-family="Helvetica,sans-Serif" font-size="10.00" fill="grey"> #renderer</text>
</g>
</g>
</svg>
