<?xml version="1.0" encoding="UTF-8" standalone="no"?>
<!DOCTYPE svg PUBLIC "-//W3C//DTD SVG 1.1//EN"
 "http://www.w3.org/Graphics/SVG/1.1/DTD/svg11.dtd">
<!-- Generated by graphviz version 12.2.1 (0)
 -->
<!-- Title: Engine Pages: 1 -->
<svg width="453pt" height="433pt"
 viewBox="0.00 0.00 453.12 433.25" xmlns="http://www.w3.org/2000/svg" xmlns:xlink="http://www.w3.org/1999/xlink">
<g id="graph0" class="graph" transform="scale(1 1) rotate(0) translate(4 429.25)">
<title>Engine</title>
<!-- Node1 -->
<g id="Node000001" class="node">
<title>Node1</title>
<g id="a_Node000001"><a xlink:title="Core engine class that manages the main loop, physics, and rendering.">
<polygon fill="#999999" stroke="none" points="309.62,-154.75 218.12,-154.75 218.12,0 309.62,0 309.62,-154.75"/>
<text text-anchor="start" x="247.38" y="-141.25" font-family="Helvetica,sans-Serif" font-size="10.00">Engine</text>
<text text-anchor="start" x="260.88" y="-124.5" font-family="Helvetica,sans-Serif" font-size="10.00"> </text>
<text text-anchor="start" x="222.12" y="-107.75" font-family="Helvetica,sans-Serif" font-size="10.00">+</text>
<text text-anchor="start" x="234.38" y="-107.75" font-family="Helvetica,sans-Serif" font-size="10.00">Engine()</text>
<text text-anchor="start" x="222.12" y="-91" font-family="Helvetica,sans-Serif" font-size="10.00">+</text>
<text text-anchor="start" x="234.38" y="-91" font-family="Helvetica,sans-Serif" font-size="10.00">~Engine()</text>
<text text-anchor="start" x="222.12" y="-74.25" font-family="Helvetica,sans-Serif" font-size="10.00">+</text>
<text text-anchor="start" x="234.38" y="-74.25" font-family="Helvetica,sans-Serif" font-size="10.00">init()</text>
<text text-anchor="start" x="222.12" y="-57.5" font-family="Helvetica,sans-Serif" font-size="10.00">+</text>
<text text-anchor="start" x="234.38" y="-57.5" font-family="Helvetica,sans-Serif" font-size="10.00">run()</text>
<text text-anchor="start" x="222.12" y="-40.75" font-family="Helvetica,sans-Serif" font-size="10.00">+</text>
<text text-anchor="start" x="234.38" y="-40.75" font-family="Helvetica,sans-Serif" font-size="10.00">stop()</text>
<text text-anchor="start" x="222.12" y="-24" font-family="Helvetica,sans-Serif" font-size="10.00">+</text>
<text text-anchor="start" x="234.38" y="-24" font-family="Helvetica,sans-Serif" font-size="10.00">fixed_update()</text>
<text text-anchor="start" x="222.12" y="-7.25" font-family="Helvetica,sans-Serif" font-size="10.00">+</text>
<text text-anchor="start" x="234.38" y="-7.25" font-family="Helvetica,sans-Serif" font-size="10.00">on_start()</text>
<polygon fill="#666666" stroke="#666666" points="218.12,-136 218.12,-136 309.62,-136 309.62,-136 218.12,-136"/>
<polygon fill="#666666" stroke="#666666" points="218.12,-119.25 218.12,-119.25 309.62,-119.25 309.62,-119.25 218.12,-119.25"/>
<polygon fill="none" stroke="#666666" points="218.12,0 218.12,-154.75 309.62,-154.75 309.62,0 218.12,0"/>
</a>
</g>
</g>
<!-- Node2 -->
<g id="Node000002" class="node">
<title>Node2</title>
<g id="a_Node000002"><a xlink:href="classRegistry.html" target="_top" xlink:title="Manages all ECS entities and components.">
<polygon fill="white" stroke="none" points="171.75,-416.88 0,-416.88 0,-211.88 171.75,-211.88 171.75,-416.88"/>
<text text-anchor="start" x="65.62" y="-403.38" font-family="Helvetica,sans-Serif" font-size="10.00">Registry</text>
<text text-anchor="start" x="82.88" y="-386.62" font-family="Helvetica,sans-Serif" font-size="10.00"> </text>
<text text-anchor="start" x="4" y="-369.88" font-family="Helvetica,sans-Serif" font-size="10.00">+</text>
<text text-anchor="start" x="16.25" y="-369.88" font-family="Helvetica,sans-Serif" font-size="10.00">Registry()</text>
<text text-anchor="start" x="4" y="-353.12" font-family="Helvetica,sans-Serif" font-size="10.00">+</text>
<text text-anchor="start" x="16.25" y="-353.12" font-family="Helvetica,sans-Serif" font-size="10.00">operator=()</text>
<text text-anchor="start" x="4" y="-336.38" font-family="Helvetica,sans-Serif" font-size="10.00">+</text>
<text text-anchor="start" x="16.25" y="-336.38" font-family="Helvetica,sans-Serif" font-size="10.00">Registry()</text>
<text text-anchor="start" x="4" y="-319.62" font-family="Helvetica,sans-Serif" font-size="10.00">+</text>
<text text-anchor="start" x="16.25" y="-319.62" font-family="Helvetica,sans-Serif" font-size="10.00">create_entity()</text>
<text text-anchor="start" x="4" y="-302.88" font-family="Helvetica,sans-Serif" font-size="10.00">+</text>
<text text-anchor="start" x="16.25" y="-302.88" font-family="Helvetica,sans-Serif" font-size="10.00">destroy_entity()</text>
<text text-anchor="start" x="4" y="-286.12" font-family="Helvetica,sans-Serif" font-size="10.00">+</text>
<text text-anchor="start" x="16.25" y="-286.12" font-family="Helvetica,sans-Serif" font-size="10.00">add_component()</text>
<text text-anchor="start" x="4" y="-269.38" font-family="Helvetica,sans-Serif" font-size="10.00">+</text>
<text text-anchor="start" x="16.25" y="-269.38" font-family="Helvetica,sans-Serif" font-size="10.00">has_component()</text>
<text text-anchor="start" x="4" y="-252.62" font-family="Helvetica,sans-Serif" font-size="10.00">+</text>
<text text-anchor="start" x="16.25" y="-252.62" font-family="Helvetica,sans-Serif" font-size="10.00">get_component()</text>
<text text-anchor="start" x="4" y="-235.88" font-family="Helvetica,sans-Serif" font-size="10.00">+</text>
<text text-anchor="start" x="16.25" y="-235.88" font-family="Helvetica,sans-Serif" font-size="10.00">remove_component()</text>
<text text-anchor="start" x="4" y="-219.12" font-family="Helvetica,sans-Serif" font-size="10.00">+</text>
<text text-anchor="start" x="16.25" y="-219.12" font-family="Helvetica,sans-Serif" font-size="10.00">get_entities_with_component()</text>
<polygon fill="#666666" stroke="#666666" points="0,-398.12 0,-398.12 171.75,-398.12 171.75,-398.12 0,-398.12"/>
<polygon fill="#666666" stroke="#666666" points="0,-381.38 0,-381.38 171.75,-381.38 171.75,-381.38 0,-381.38"/>
<polygon fill="none" stroke="#666666" points="0,-211.88 0,-416.88 171.75,-416.88 171.75,-211.88 0,-211.88"/>
</a>
</g>
</g>
<!-- Node2&#45;&gt;Node1 -->
<g id="edge1_Node000001_Node000002" class="edge">
<title>Node2&#45;&gt;Node1</title>
<g id="a_edge1_Node000001_Node000002"><a xlink:title=" ">
<path fill="none" stroke="#63b8ff" d="M162.65,-212.01C178.76,-190.75 195.41,-168.77 210.44,-148.92"/>
<polygon fill="none" stroke="#63b8ff" points="210.35,-149.04 210.78,-141.84 217.6,-139.47 217.16,-146.67 210.35,-149.04"/>
</a>
</g>
<text text-anchor="middle" x="215.19" y="-176" font-family="Helvetica,sans-Serif" font-size="10.00" fill="grey"> #registry</text>
</g>
<!-- Node3 -->
<g id="Node000003" class="node">
<title>Node3</title>
<g id="a_Node000003"><a xlink:href="classWindow.html" target="_top" xlink:title=" ">
<polygon fill="white" stroke="none" points="338.12,-400.12 189.62,-400.12 189.62,-228.62 338.12,-228.62 338.12,-400.12"/>
<text text-anchor="start" x="244.38" y="-386.62" font-family="Helvetica,sans-Serif" font-size="10.00">Window</text>
<text text-anchor="start" x="260.88" y="-369.88" font-family="Helvetica,sans-Serif" font-size="10.00"> </text>
<text text-anchor="start" x="193.62" y="-353.12" font-family="Helvetica,sans-Serif" font-size="10.00">+</text>
<text text-anchor="start" x="205.88" y="-353.12" font-family="Helvetica,sans-Serif" font-size="10.00">Window()</text>
<text text-anchor="start" x="193.62" y="-336.38" font-family="Helvetica,sans-Serif" font-size="10.00">+</text>
<text text-anchor="start" x="205.88" y="-336.38" font-family="Helvetica,sans-Serif" font-size="10.00">~Window()</text>
<text text-anchor="start" x="193.62" y="-319.62" font-family="Helvetica,sans-Serif" font-size="10.00">+</text>
<text text-anchor="start" x="205.88" y="-319.62" font-family="Helvetica,sans-Serif" font-size="10.00">isOpen()</text>
<text text-anchor="start" x="193.62" y="-302.88" font-family="Helvetica,sans-Serif" font-size="10.00">+</text>
<text text-anchor="start" x="205.88" y="-302.88" font-family="Helvetica,sans-Serif" font-size="10.00">pollEvents()</text>
<text text-anchor="start" x="193.62" y="-286.12" font-family="Helvetica,sans-Serif" font-size="10.00">+</text>
<text text-anchor="start" x="205.88" y="-286.12" font-family="Helvetica,sans-Serif" font-size="10.00">swapBuffers()</text>
<text text-anchor="start" x="193.62" y="-269.38" font-family="Helvetica,sans-Serif" font-size="10.00">+</text>
<text text-anchor="start" x="205.88" y="-269.38" font-family="Helvetica,sans-Serif" font-size="10.00">getWidth()</text>
<text text-anchor="start" x="193.62" y="-252.62" font-family="Helvetica,sans-Serif" font-size="10.00">+</text>
<text text-anchor="start" x="205.88" y="-252.62" font-family="Helvetica,sans-Serif" font-size="10.00">getHeight()</text>
<text text-anchor="start" x="193.62" y="-235.88" font-family="Helvetica,sans-Serif" font-size="10.00">+</text>
<text text-anchor="start" x="205.88" y="-235.88" font-family="Helvetica,sans-Serif" font-size="10.00">framebufferSizeCallback()</text>
<polygon fill="#bfbfbf" stroke="#bfbfbf" points="189.62,-381.38 189.62,-381.38 338.12,-381.38 338.12,-381.38 189.62,-381.38"/>
<polygon fill="#bfbfbf" stroke="#bfbfbf" points="189.62,-364.62 189.62,-364.62 338.12,-364.62 338.12,-364.62 189.62,-364.62"/>
<polygon fill="none" stroke="#bfbfbf" points="189.62,-228.62 189.62,-400.12 338.12,-400.12 338.12,-228.62 189.62,-228.62"/>
</a>
</g>
</g>
<!-- Node3&#45;&gt;Node1 -->
<g id="edge2_Node000001_Node000003" class="edge">
<title>Node3&#45;&gt;Node1</title>
<g id="a_edge2_Node000001_Node000003"><a xlink:title=" ">
<path fill="none" stroke="#63b8ff" d="M263.88,-228.87C263.88,-209.01 263.88,-187.78 263.88,-167.71"/>
<polygon fill="none" stroke="#63b8ff" points="263.88,-167.62 259.88,-161.62 263.88,-155.62 267.88,-161.62 263.88,-167.62"/>
</a>
</g>
<text text-anchor="middle" x="288.25" y="-176" font-family="Helvetica,sans-Serif" font-size="10.00" fill="grey"> #window</text>
</g>
<!-- Node4 -->
<g id="Node000004" class="node">
<title>Node4</title>
<g id="a_Node000004"><a xlink:href="classRenderer.html" target="_top" xlink:title="Handles the drawing of scene objects and lights.">
<polygon fill="white" stroke="none" points="445.12,-425.25 356.62,-425.25 356.62,-203.5 445.12,-203.5 445.12,-425.25"/>
<text text-anchor="start" x="378.75" y="-411.75" font-family="Helvetica,sans-Serif" font-size="10.00">Renderer</text>
<text text-anchor="start" x="397.88" y="-395" font-family="Helvetica,sans-Serif" font-size="10.00"> </text>
<text text-anchor="start" x="360.62" y="-378.25" font-family="Helvetica,sans-Serif" font-size="10.00">+</text>
<text text-anchor="start" x="372.88" y="-378.25" font-family="Helvetica,sans-Serif" font-size="10.00">Renderer()</text>
<text text-anchor="start" x="360.62" y="-361.5" font-family="Helvetica,sans-Serif" font-size="10.00">+</text>
<text text-anchor="start" x="372.88" y="-361.5" font-family="Helvetica,sans-Serif" font-size="10.00">clearObjects()</text>
<text text-anchor="start" x="360.62" y="-344.75" font-family="Helvetica,sans-Serif" font-size="10.00">+</text>
<text text-anchor="start" x="372.88" y="-344.75" font-family="Helvetica,sans-Serif" font-size="10.00">render()</text>
<text text-anchor="start" x="360.62" y="-328" font-family="Helvetica,sans-Serif" font-size="10.00">+</text>
<text text-anchor="start" x="372.88" y="-328" font-family="Helvetica,sans-Serif" font-size="10.00">setShader()</text>
<text text-anchor="start" x="360.62" y="-311.25" font-family="Helvetica,sans-Serif" font-size="10.00">+</text>
<text text-anchor="start" x="372.88" y="-311.25" font-family="Helvetica,sans-Serif" font-size="10.00">getCamera()</text>
<text text-anchor="start" x="360.62" y="-294.5" font-family="Helvetica,sans-Serif" font-size="10.00">+</text>
<text text-anchor="start" x="372.88" y="-294.5" font-family="Helvetica,sans-Serif" font-size="10.00">initialize()</text>
<text text-anchor="start" x="360.62" y="-277.75" font-family="Helvetica,sans-Serif" font-size="10.00">+</text>
<text text-anchor="start" x="372.88" y="-277.75" font-family="Helvetica,sans-Serif" font-size="10.00">clear()</text>
<text text-anchor="start" x="360.62" y="-261" font-family="Helvetica,sans-Serif" font-size="10.00">+</text>
<text text-anchor="start" x="372.88" y="-261" font-family="Helvetica,sans-Serif" font-size="10.00">submit()</text>
<text text-anchor="start" x="360.62" y="-244.25" font-family="Helvetica,sans-Serif" font-size="10.00">+</text>
<text text-anchor="start" x="372.88" y="-244.25" font-family="Helvetica,sans-Serif" font-size="10.00">submitLight()</text>
<text text-anchor="start" x="360.62" y="-227.5" font-family="Helvetica,sans-Serif" font-size="10.00">+</text>
<text text-anchor="start" x="372.88" y="-227.5" font-family="Helvetica,sans-Serif" font-size="10.00">shutdown()</text>
<text text-anchor="start" x="360.62" y="-210.75" font-family="Helvetica,sans-Serif" font-size="10.00">+</text>
<text text-anchor="start" x="372.88" y="-210.75" font-family="Helvetica,sans-Serif" font-size="10.00">getShader()</text>
<polygon fill="#666666" stroke="#666666" points="356.62,-406.5 356.62,-406.5 445.12,-406.5 445.12,-406.5 356.62,-406.5"/>
<polygon fill="#666666" stroke="#666666" points="356.62,-389.75 356.62,-389.75 445.12,-389.75 445.12,-389.75 356.62,-389.75"/>
<polygon fill="none" stroke="#666666" points="356.62,-203.5 356.62,-425.25 445.12,-425.25 445.12,-203.5 356.62,-203.5"/>
</a>
</g>
</g>
<!-- Node4&#45;&gt;Node1 -->
<g id="edge3_Node000001_Node000004" class="edge">
<title>Node4&#45;&gt;Node1</title>
<g id="a_edge3_Node000001_Node000004"><a xlink:title=" ">
<path fill="none" stroke="#63b8ff" d="M356.66,-221.19C353.43,-215.16 350.16,-209.21 346.88,-203.5 337.59,-187.34 327.02,-170.44 316.61,-154.48"/>
<polygon fill="none" stroke="#63b8ff" points="316.54,-154.38 309.89,-151.57 309.93,-144.36 316.57,-147.17 316.54,-154.38"/>
</a>
</g>
<text text-anchor="middle" x="360.56" y="-176" font-family="Helvetica,sans-Serif" font-size="10.00" fill="grey"> #renderer</text>
</g>
</g>
</svg>
