<?xml version="1.0" encoding="UTF-8" standalone="no"?>
<!DOCTYPE svg PUBLIC "-//W3C//DTD SVG 1.1//EN"
 "http://www.w3.org/Graphics/SVG/1.1/DTD/svg11.dtd">
<!-- Generated by graphviz version 2.43.0 (0)
 -->
<!-- Title: FrameEngine::BasicMaterial Pages: 1 -->
<svg width="155pt" height="539pt"
 viewBox="0.00 0.00 155.00 539.00" xmlns="http://www.w3.org/2000/svg" xmlns:xlink="http://www.w3.org/1999/xlink">
<g id="graph0" class="graph" transform="scale(1 1) rotate(0) translate(4 535)">
<title>FrameEngine::BasicMaterial</title>
<!-- Node1 -->
<g id="Node000001" class="node">
<title>Node1</title>
<g id="a_Node000001"><a xlink:title=" ">
<polygon fill="#999999" stroke="transparent" points="147,-169 0,-169 0,0 147,0 147,-169"/>
<text text-anchor="start" x="5.5" y="-156.5" font-family="Helvetica,sans-Serif" font-size="10.00">FrameEngine::BasicMaterial</text>
<text text-anchor="start" x="72" y="-141.5" font-family="Helvetica,sans-Serif" font-size="10.00"> </text>
<text text-anchor="start" x="9.5" y="-126.5" font-family="Helvetica,sans-Serif" font-size="10.00">+</text>
<text text-anchor="start" x="27.5" y="-126.5" font-family="Helvetica,sans-Serif" font-size="10.00">BasicMaterial()</text>
<text text-anchor="start" x="9.5" y="-111.5" font-family="Helvetica,sans-Serif" font-size="10.00">+</text>
<text text-anchor="start" x="27.5" y="-111.5" font-family="Helvetica,sans-Serif" font-size="10.00">setDiffuseColor()</text>
<text text-anchor="start" x="9.5" y="-96.5" font-family="Helvetica,sans-Serif" font-size="10.00">+</text>
<text text-anchor="start" x="27.5" y="-96.5" font-family="Helvetica,sans-Serif" font-size="10.00">setSpecularColor()</text>
<text text-anchor="start" x="9.5" y="-81.5" font-family="Helvetica,sans-Serif" font-size="10.00">+</text>
<text text-anchor="start" x="27.5" y="-81.5" font-family="Helvetica,sans-Serif" font-size="10.00">setSpecularPower()</text>
<text text-anchor="start" x="9.5" y="-66.5" font-family="Helvetica,sans-Serif" font-size="10.00">+</text>
<text text-anchor="start" x="27.5" y="-66.5" font-family="Helvetica,sans-Serif" font-size="10.00">setTexture()</text>
<text text-anchor="start" x="9.5" y="-51.5" font-family="Helvetica,sans-Serif" font-size="10.00">+</text>
<text text-anchor="start" x="27.5" y="-51.5" font-family="Helvetica,sans-Serif" font-size="10.00">isEmissiveEnabled()</text>
<text text-anchor="start" x="9.5" y="-36.5" font-family="Helvetica,sans-Serif" font-size="10.00">+</text>
<text text-anchor="start" x="27.5" y="-36.5" font-family="Helvetica,sans-Serif" font-size="10.00">setEmissiveEnabled()</text>
<text text-anchor="start" x="9.5" y="-21.5" font-family="Helvetica,sans-Serif" font-size="10.00">+</text>
<text text-anchor="start" x="27.5" y="-21.5" font-family="Helvetica,sans-Serif" font-size="10.00">setEmissiveColor()</text>
<text text-anchor="start" x="9.5" y="-6.5" font-family="Helvetica,sans-Serif" font-size="10.00">+</text>
<text text-anchor="start" x="27.5" y="-6.5" font-family="Helvetica,sans-Serif" font-size="10.00">applyUniforms()</text>
<polygon fill="#666666" stroke="#666666" points="0.5,-151.5 0.5,-151.5 147.5,-151.5 147.5,-151.5 0.5,-151.5"/>
<polygon fill="#666666" stroke="#666666" points="0.5,-136.5 0.5,-136.5 147.5,-136.5 147.5,-136.5 0.5,-136.5"/>
<polygon fill="none" stroke="#666666" points="0,0 0,-169 147,-169 147,0 0,0"/>
</a>
</g>
</g>
<!-- Node2 -->
<g id="Node000002" class="node">
<title>Node2</title>
<g id="a_Node000002"><a xlink:href="classFrameEngine_1_1Material.html" target="_top" xlink:title=" ">
<polygon fill="white" stroke="transparent" points="134,-300 13,-300 13,-206 134,-206 134,-300"/>
<text text-anchor="start" x="18.5" y="-288" font-family="Helvetica,sans-Serif" font-size="10.00">FrameEngine::Material</text>
<text text-anchor="start" x="72" y="-273" font-family="Helvetica,sans-Serif" font-size="10.00"> </text>
<text text-anchor="start" x="22.5" y="-258" font-family="Helvetica,sans-Serif" font-size="10.00">+</text>
<text text-anchor="start" x="40.5" y="-258" font-family="Helvetica,sans-Serif" font-size="10.00">Material()</text>
<text text-anchor="start" x="22.5" y="-243" font-family="Helvetica,sans-Serif" font-size="10.00">+</text>
<text text-anchor="start" x="40.5" y="-243" font-family="Helvetica,sans-Serif" font-size="10.00">~Material()</text>
<text text-anchor="start" x="22.5" y="-228" font-family="Helvetica,sans-Serif" font-size="10.00">+</text>
<text text-anchor="start" x="40.5" y="-228" font-family="Helvetica,sans-Serif" font-size="10.00">getShader()</text>
<text text-anchor="start" x="22.5" y="-213" font-family="Helvetica,sans-Serif" font-size="10.00">+</text>
<text text-anchor="start" x="40.5" y="-213" font-family="Helvetica,sans-Serif" font-size="10.00">applyUniforms()</text>
<polygon fill="#bfbfbf" stroke="#bfbfbf" points="13.5,-283 13.5,-283 134.5,-283 134.5,-283 13.5,-283"/>
<polygon fill="#bfbfbf" stroke="#bfbfbf" points="13.5,-268 13.5,-268 134.5,-268 134.5,-268 13.5,-268"/>
<polygon fill="none" stroke="#bfbfbf" points="13,-206 13,-300 134,-300 134,-206 13,-206"/>
</a>
</g>
</g>
<!-- Node2&#45;&gt;Node1 -->
<g id="edge1_Node000001_Node000002" class="edge">
<title>Node2&#45;&gt;Node1</title>
<g id="a_edge1_Node000001_Node000002"><a xlink:title=" ">
<path fill="none" stroke="#63b8ff" d="M73.5,-195.51C73.5,-187.04 73.5,-178.15 73.5,-169.25"/>
<polygon fill="none" stroke="#63b8ff" points="70,-195.62 73.5,-205.62 77,-195.62 70,-195.62"/>
</a>
</g>
</g>
<!-- Node3 -->
<g id="Node000003" class="node">
<title>Node3</title>
<g id="a_Node000003"><a xlink:href="classFrameEngine_1_1Shader.html" target="_top" xlink:title=" ">
<polygon fill="white" stroke="transparent" points="130.5,-531 16.5,-531 16.5,-347 130.5,-347 130.5,-531"/>
<text text-anchor="start" x="21.5" y="-519" font-family="Helvetica,sans-Serif" font-size="10.00">FrameEngine::Shader</text>
<text text-anchor="start" x="71.5" y="-504" font-family="Helvetica,sans-Serif" font-size="10.00"> </text>
<text text-anchor="start" x="21.5" y="-489" font-family="Helvetica,sans-Serif" font-size="10.00">+</text>
<text text-anchor="start" x="35.5" y="-489" font-family="Helvetica,sans-Serif" font-size="10.00">Shader()</text>
<text text-anchor="start" x="21.5" y="-474" font-family="Helvetica,sans-Serif" font-size="10.00">+</text>
<text text-anchor="start" x="35.5" y="-474" font-family="Helvetica,sans-Serif" font-size="10.00">Shader()</text>
<text text-anchor="start" x="21.5" y="-459" font-family="Helvetica,sans-Serif" font-size="10.00">+</text>
<text text-anchor="start" x="35.5" y="-459" font-family="Helvetica,sans-Serif" font-size="10.00">~Shader()</text>
<text text-anchor="start" x="21.5" y="-444" font-family="Helvetica,sans-Serif" font-size="10.00">+</text>
<text text-anchor="start" x="35.5" y="-444" font-family="Helvetica,sans-Serif" font-size="10.00">bind()</text>
<text text-anchor="start" x="21.5" y="-429" font-family="Helvetica,sans-Serif" font-size="10.00">+</text>
<text text-anchor="start" x="35.5" y="-429" font-family="Helvetica,sans-Serif" font-size="10.00">unbind()</text>
<text text-anchor="start" x="21.5" y="-414" font-family="Helvetica,sans-Serif" font-size="10.00">+</text>
<text text-anchor="start" x="35.5" y="-414" font-family="Helvetica,sans-Serif" font-size="10.00">setUniformInt()</text>
<text text-anchor="start" x="21.5" y="-399" font-family="Helvetica,sans-Serif" font-size="10.00">+</text>
<text text-anchor="start" x="35.5" y="-399" font-family="Helvetica,sans-Serif" font-size="10.00">setUniformFloat()</text>
<text text-anchor="start" x="21.5" y="-384" font-family="Helvetica,sans-Serif" font-size="10.00">+</text>
<text text-anchor="start" x="35.5" y="-384" font-family="Helvetica,sans-Serif" font-size="10.00">setUniformVec3()</text>
<text text-anchor="start" x="21.5" y="-369" font-family="Helvetica,sans-Serif" font-size="10.00">+</text>
<text text-anchor="start" x="35.5" y="-369" font-family="Helvetica,sans-Serif" font-size="10.00">setUniformMat4()</text>
<text text-anchor="start" x="21.5" y="-354" font-family="Helvetica,sans-Serif" font-size="10.00">+</text>
<text text-anchor="start" x="35.5" y="-354" font-family="Helvetica,sans-Serif" font-size="10.00">getProgramID()</text>
<polygon fill="#bfbfbf" stroke="#bfbfbf" points="16.5,-514 16.5,-514 130.5,-514 130.5,-514 16.5,-514"/>
<polygon fill="#bfbfbf" stroke="#bfbfbf" points="16.5,-499 16.5,-499 130.5,-499 130.5,-499 16.5,-499"/>
<polygon fill="none" stroke="#bfbfbf" points="16.5,-347 16.5,-531 130.5,-531 130.5,-347 16.5,-347"/>
</a>
</g>
</g>
<!-- Node3&#45;&gt;Node2 -->
<g id="edge2_Node000002_Node000003" class="edge">
<title>Node3&#45;&gt;Node2</title>
<g id="a_edge2_Node000002_Node000003"><a xlink:title=" ">
<path fill="none" stroke="#63b8ff" d="M73.5,-346.81C73.5,-335.12 73.5,-323.42 73.5,-312.45"/>
<polygon fill="none" stroke="#63b8ff" points="73.5,-312.42 69.5,-306.42 73.5,-300.42 77.5,-306.42 73.5,-312.42"/>
</a>
</g>
<text text-anchor="middle" x="96" y="-321" font-family="Helvetica,sans-Serif" font-size="10.00" fill="grey"> #shader</text>
</g>
</g>
</svg>
