<?xml version="1.0" encoding="UTF-8" standalone="no"?>
<!DOCTYPE svg PUBLIC "-//W3C//DTD SVG 1.1//EN"
 "http://www.w3.org/Graphics/SVG/1.1/DTD/svg11.dtd">
<!-- Generated by graphviz version 2.43.0 (0)
 -->
<!-- Title: Simulation Pages: 1 -->
<svg width="336pt" height="509pt"
 viewBox="0.00 0.00 335.50 509.00" xmlns="http://www.w3.org/2000/svg" xmlns:xlink="http://www.w3.org/1999/xlink">
<g id="graph0" class="graph" transform="scale(1 1) rotate(0) translate(4 505)">
<title>Simulation</title>
<!-- Node1 -->
<g id="Node000001" class="node">
<title>Node1</title>
<g id="a_Node000001"><a xlink:title=" ">
<polygon fill="#999999" stroke="transparent" points="206,-64 115,-64 115,0 206,0 206,-64"/>
<text text-anchor="start" x="134.5" y="-52" font-family="Helvetica,sans-Serif" font-size="10.00">Simulation</text>
<text text-anchor="start" x="159" y="-37" font-family="Helvetica,sans-Serif" font-size="10.00"> </text>
<text text-anchor="start" x="119.5" y="-22" font-family="Helvetica,sans-Serif" font-size="10.00">+</text>
<text text-anchor="start" x="132.5" y="-22" font-family="Helvetica,sans-Serif" font-size="10.00">on_start()</text>
<text text-anchor="start" x="119.5" y="-7" font-family="Helvetica,sans-Serif" font-size="10.00">+</text>
<text text-anchor="start" x="132.5" y="-7" font-family="Helvetica,sans-Serif" font-size="10.00">fixed_update()</text>
<polygon fill="#666666" stroke="#666666" points="115.5,-47 115.5,-47 206.5,-47 206.5,-47 115.5,-47"/>
<polygon fill="#666666" stroke="#666666" points="115.5,-32 115.5,-32 206.5,-32 206.5,-32 115.5,-32"/>
<polygon fill="none" stroke="#666666" points="115,0 115,-64 206,-64 206,0 115,0"/>
</a>
</g>
</g>
<!-- Node2 -->
<g id="Node000002" class="node">
<title>Node2</title>
<g id="a_Node000002"><a xlink:href="classFrameEngine_1_1Engine.html" target="_top" xlink:title="Core engine class that manages the main loop, physics, and rendering.">
<polygon fill="white" stroke="transparent" points="217,-240 104,-240 104,-101 217,-101 217,-240"/>
<text text-anchor="start" x="109.5" y="-227.5" font-family="Helvetica,sans-Serif" font-size="10.00">FrameEngine::Engine</text>
<text text-anchor="start" x="159" y="-212.5" font-family="Helvetica,sans-Serif" font-size="10.00"> </text>
<text text-anchor="start" x="114" y="-197.5" font-family="Helvetica,sans-Serif" font-size="10.00">+</text>
<text text-anchor="start" x="132.5" y="-197.5" font-family="Helvetica,sans-Serif" font-size="10.00">Engine()</text>
<text text-anchor="start" x="114" y="-182.5" font-family="Helvetica,sans-Serif" font-size="10.00">+</text>
<text text-anchor="start" x="132.5" y="-182.5" font-family="Helvetica,sans-Serif" font-size="10.00">~Engine()</text>
<text text-anchor="start" x="114" y="-167.5" font-family="Helvetica,sans-Serif" font-size="10.00">+</text>
<text text-anchor="start" x="132.5" y="-167.5" font-family="Helvetica,sans-Serif" font-size="10.00">init()</text>
<text text-anchor="start" x="114" y="-152.5" font-family="Helvetica,sans-Serif" font-size="10.00">+</text>
<text text-anchor="start" x="132.5" y="-152.5" font-family="Helvetica,sans-Serif" font-size="10.00">run()</text>
<text text-anchor="start" x="114" y="-137.5" font-family="Helvetica,sans-Serif" font-size="10.00">+</text>
<text text-anchor="start" x="132.5" y="-137.5" font-family="Helvetica,sans-Serif" font-size="10.00">stop()</text>
<text text-anchor="start" x="114" y="-122.5" font-family="Helvetica,sans-Serif" font-size="10.00">+</text>
<text text-anchor="start" x="132.5" y="-122.5" font-family="Helvetica,sans-Serif" font-size="10.00">fixed_update()</text>
<text text-anchor="start" x="114" y="-107.5" font-family="Helvetica,sans-Serif" font-size="10.00">+</text>
<text text-anchor="start" x="132.5" y="-107.5" font-family="Helvetica,sans-Serif" font-size="10.00">on_start()</text>
<polygon fill="#666666" stroke="#666666" points="104.5,-222.5 104.5,-222.5 217.5,-222.5 217.5,-222.5 104.5,-222.5"/>
<polygon fill="#666666" stroke="#666666" points="104.5,-207.5 104.5,-207.5 217.5,-207.5 217.5,-207.5 104.5,-207.5"/>
<polygon fill="none" stroke="#666666" points="104,-101 104,-240 217,-240 217,-101 104,-101"/>
</a>
</g>
</g>
<!-- Node2&#45;&gt;Node1 -->
<g id="edge1_Node000001_Node000002" class="edge">
<title>Node2&#45;&gt;Node1</title>
<g id="a_edge1_Node000001_Node000002"><a xlink:title=" ">
<path fill="none" stroke="#63b8ff" d="M160.5,-90.63C160.5,-81.27 160.5,-72.19 160.5,-64.1"/>
<polygon fill="none" stroke="#63b8ff" points="157,-90.85 160.5,-100.85 164,-90.85 157,-90.85"/>
</a>
</g>
</g>
<!-- Node3 -->
<g id="Node000003" class="node">
<title>Node3</title>
<g id="a_Node000003"><a xlink:href="classFrameEngine_1_1Window.html" target="_top" xlink:title=" ">
<polygon fill="white" stroke="transparent" points="149,-471 0,-471 0,-317 149,-317 149,-471"/>
<text text-anchor="start" x="20.5" y="-459" font-family="Helvetica,sans-Serif" font-size="10.00">FrameEngine::Window</text>
<text text-anchor="start" x="73" y="-444" font-family="Helvetica,sans-Serif" font-size="10.00"> </text>
<text text-anchor="start" x="4.5" y="-429" font-family="Helvetica,sans-Serif" font-size="10.00">+</text>
<text text-anchor="start" x="17.5" y="-429" font-family="Helvetica,sans-Serif" font-size="10.00">Window()</text>
<text text-anchor="start" x="4.5" y="-414" font-family="Helvetica,sans-Serif" font-size="10.00">+</text>
<text text-anchor="start" x="17.5" y="-414" font-family="Helvetica,sans-Serif" font-size="10.00">~Window()</text>
<text text-anchor="start" x="4.5" y="-399" font-family="Helvetica,sans-Serif" font-size="10.00">+</text>
<text text-anchor="start" x="17.5" y="-399" font-family="Helvetica,sans-Serif" font-size="10.00">isOpen()</text>
<text text-anchor="start" x="4.5" y="-384" font-family="Helvetica,sans-Serif" font-size="10.00">+</text>
<text text-anchor="start" x="17.5" y="-384" font-family="Helvetica,sans-Serif" font-size="10.00">pollEvents()</text>
<text text-anchor="start" x="4.5" y="-369" font-family="Helvetica,sans-Serif" font-size="10.00">+</text>
<text text-anchor="start" x="17.5" y="-369" font-family="Helvetica,sans-Serif" font-size="10.00">swapBuffers()</text>
<text text-anchor="start" x="4.5" y="-354" font-family="Helvetica,sans-Serif" font-size="10.00">+</text>
<text text-anchor="start" x="17.5" y="-354" font-family="Helvetica,sans-Serif" font-size="10.00">getWidth()</text>
<text text-anchor="start" x="4.5" y="-339" font-family="Helvetica,sans-Serif" font-size="10.00">+</text>
<text text-anchor="start" x="17.5" y="-339" font-family="Helvetica,sans-Serif" font-size="10.00">getHeight()</text>
<text text-anchor="start" x="4.5" y="-324" font-family="Helvetica,sans-Serif" font-size="10.00">+</text>
<text text-anchor="start" x="17.5" y="-324" font-family="Helvetica,sans-Serif" font-size="10.00">framebufferSizeCallback()</text>
<polygon fill="#bfbfbf" stroke="#bfbfbf" points="0.5,-454 0.5,-454 149.5,-454 149.5,-454 0.5,-454"/>
<polygon fill="#bfbfbf" stroke="#bfbfbf" points="0.5,-439 0.5,-439 149.5,-439 149.5,-439 0.5,-439"/>
<polygon fill="none" stroke="#bfbfbf" points="0,-317 0,-471 149,-471 149,-317 0,-317"/>
</a>
</g>
</g>
<!-- Node3&#45;&gt;Node2 -->
<g id="edge2_Node000002_Node000003" class="edge">
<title>Node3&#45;&gt;Node2</title>
<g id="a_edge2_Node000002_Node000003"><a xlink:title=" ">
<path fill="none" stroke="#63b8ff" d="M104.1,-316.77C112.29,-295.66 121.21,-272.69 129.48,-251.38"/>
<polygon fill="none" stroke="#63b8ff" points="129.53,-251.26 127.97,-244.22 133.88,-240.07 135.43,-247.12 129.53,-251.26"/>
</a>
</g>
<text text-anchor="middle" x="150" y="-261" font-family="Helvetica,sans-Serif" font-size="10.00" fill="grey"> #window</text>
</g>
<!-- Node4 -->
<g id="Node000004" class="node">
<title>Node4</title>
<g id="a_Node000004"><a xlink:href="classFrameEngine_1_1Renderer.html" target="_top" xlink:title="Handles the drawing of scene objects and lights.">
<polygon fill="white" stroke="transparent" points="327.5,-501 167.5,-501 167.5,-287 327.5,-287 327.5,-501"/>
<text text-anchor="start" x="190" y="-489" font-family="Helvetica,sans-Serif" font-size="10.00">FrameEngine::Renderer</text>
<text text-anchor="start" x="245.5" y="-474" font-family="Helvetica,sans-Serif" font-size="10.00"> </text>
<text text-anchor="start" x="171.5" y="-459" font-family="Helvetica,sans-Serif" font-size="10.00">+</text>
<text text-anchor="start" x="184.5" y="-459" font-family="Helvetica,sans-Serif" font-size="10.00">Renderer()</text>
<text text-anchor="start" x="171.5" y="-444" font-family="Helvetica,sans-Serif" font-size="10.00">+</text>
<text text-anchor="start" x="184.5" y="-444" font-family="Helvetica,sans-Serif" font-size="10.00">~Renderer()</text>
<text text-anchor="start" x="171.5" y="-429" font-family="Helvetica,sans-Serif" font-size="10.00">+</text>
<text text-anchor="start" x="184.5" y="-429" font-family="Helvetica,sans-Serif" font-size="10.00">initialize()</text>
<text text-anchor="start" x="171.5" y="-414" font-family="Helvetica,sans-Serif" font-size="10.00">+</text>
<text text-anchor="start" x="184.5" y="-414" font-family="Helvetica,sans-Serif" font-size="10.00">render()</text>
<text text-anchor="start" x="171.5" y="-399" font-family="Helvetica,sans-Serif" font-size="10.00">+</text>
<text text-anchor="start" x="184.5" y="-399" font-family="Helvetica,sans-Serif" font-size="10.00">getCamera()</text>
<text text-anchor="start" x="171.5" y="-384" font-family="Helvetica,sans-Serif" font-size="10.00">+</text>
<text text-anchor="start" x="184.5" y="-384" font-family="Helvetica,sans-Serif" font-size="10.00">resize()</text>
<text text-anchor="start" x="171.5" y="-369" font-family="Helvetica,sans-Serif" font-size="10.00">+</text>
<text text-anchor="start" x="184.5" y="-369" font-family="Helvetica,sans-Serif" font-size="10.00">addPostProcessingEffect()</text>
<text text-anchor="start" x="171.5" y="-354" font-family="Helvetica,sans-Serif" font-size="10.00">+</text>
<text text-anchor="start" x="184.5" y="-354" font-family="Helvetica,sans-Serif" font-size="10.00">setPostProcessingPipeline()</text>
<text text-anchor="start" x="171.5" y="-339" font-family="Helvetica,sans-Serif" font-size="10.00">+</text>
<text text-anchor="start" x="184.5" y="-339" font-family="Helvetica,sans-Serif" font-size="10.00">clearPostProcessingEffects()</text>
<text text-anchor="start" x="171.5" y="-324" font-family="Helvetica,sans-Serif" font-size="10.00">+</text>
<text text-anchor="start" x="184.5" y="-324" font-family="Helvetica,sans-Serif" font-size="10.00">getPostProcessingPipeline()</text>
<text text-anchor="start" x="171.5" y="-309" font-family="Helvetica,sans-Serif" font-size="10.00">+</text>
<text text-anchor="start" x="184.5" y="-309" font-family="Helvetica,sans-Serif" font-size="10.00">clear()</text>
<text text-anchor="start" x="171.5" y="-294" font-family="Helvetica,sans-Serif" font-size="10.00">+</text>
<text text-anchor="start" x="184.5" y="-294" font-family="Helvetica,sans-Serif" font-size="10.00">shutdown()</text>
<polygon fill="#666666" stroke="#666666" points="167.5,-484 167.5,-484 327.5,-484 327.5,-484 167.5,-484"/>
<polygon fill="#666666" stroke="#666666" points="167.5,-469 167.5,-469 327.5,-469 327.5,-469 167.5,-469"/>
<polygon fill="none" stroke="#666666" points="167.5,-287 167.5,-501 327.5,-501 327.5,-287 167.5,-287"/>
</a>
</g>
</g>
<!-- Node4&#45;&gt;Node2 -->
<g id="edge3_Node000002_Node000004" class="edge">
<title>Node4&#45;&gt;Node2</title>
<g id="a_edge3_Node000002_Node000004"><a xlink:title=" ">
<path fill="none" stroke="#63b8ff" d="M205.78,-286.79C201.11,-274.88 196.4,-262.91 191.89,-251.41"/>
<polygon fill="none" stroke="#63b8ff" points="191.83,-251.26 185.91,-247.14 187.44,-240.09 193.36,-244.22 191.83,-251.26"/>
</a>
</g>
<text text-anchor="middle" x="225" y="-261" font-family="Helvetica,sans-Serif" font-size="10.00" fill="grey"> #renderer</text>
</g>
</g>
</svg>
