<?xml version="1.0" encoding="UTF-8" standalone="no"?>
<!DOCTYPE svg PUBLIC "-//W3C//DTD SVG 1.1//EN"
 "http://www.w3.org/Graphics/SVG/1.1/DTD/svg11.dtd">
<!-- Generated by graphviz version 2.43.0 (0)
 -->
<!-- Title: FrameEngine::Material Pages: 1 -->
<svg width="155pt" height="307pt"
 viewBox="0.00 0.00 155.00 307.00" xmlns="http://www.w3.org/2000/svg" xmlns:xlink="http://www.w3.org/1999/xlink">
<g id="graph0" class="graph" transform="scale(1 1) rotate(0) translate(4 303)">
<title>FrameEngine::Material</title>
<!-- Node1 -->
<g id="Node000001" class="node">
<title>Node1</title>
<g id="a_Node000001"><a xlink:title=" ">
<polygon fill="#999999" stroke="transparent" points="134,-299 13,-299 13,-205 134,-205 134,-299"/>
<text text-anchor="start" x="18.5" y="-287" font-family="Helvetica,sans-Serif" font-size="10.00">FrameEngine::Material</text>
<text text-anchor="start" x="22.5" y="-272" font-family="Helvetica,sans-Serif" font-size="10.00">#</text>
<text text-anchor="start" x="40.5" y="-272" font-family="Helvetica,sans-Serif" font-size="10.00">shader</text>
<text text-anchor="start" x="22.5" y="-257" font-family="Helvetica,sans-Serif" font-size="10.00">+</text>
<text text-anchor="start" x="40.5" y="-257" font-family="Helvetica,sans-Serif" font-size="10.00">Material()</text>
<text text-anchor="start" x="22.5" y="-242" font-family="Helvetica,sans-Serif" font-size="10.00">+</text>
<text text-anchor="start" x="40.5" y="-242" font-family="Helvetica,sans-Serif" font-size="10.00">~Material()</text>
<text text-anchor="start" x="22.5" y="-227" font-family="Helvetica,sans-Serif" font-size="10.00">+</text>
<text text-anchor="start" x="40.5" y="-227" font-family="Helvetica,sans-Serif" font-size="10.00">getShader()</text>
<text text-anchor="start" x="22.5" y="-212" font-family="Helvetica,sans-Serif" font-size="10.00">+</text>
<text text-anchor="start" x="40.5" y="-212" font-family="Helvetica,sans-Serif" font-size="10.00">applyUniforms()</text>
<polygon fill="#666666" stroke="#666666" points="13.5,-282 13.5,-282 134.5,-282 134.5,-282 13.5,-282"/>
<polygon fill="#666666" stroke="#666666" points="13.5,-267 13.5,-267 38.5,-267 38.5,-267 13.5,-267"/>
<polygon fill="#666666" stroke="#666666" points="38.5,-267 38.5,-267 134.5,-267 134.5,-267 38.5,-267"/>
<polygon fill="none" stroke="#666666" points="13,-205 13,-299 134,-299 134,-205 13,-205"/>
</a>
</g>
</g>
<!-- Node2 -->
<g id="Node000002" class="node">
<title>Node2</title>
<g id="a_Node000002"><a xlink:href="classFrameEngine_1_1BasicMaterial.html" target="_top" xlink:title=" ">
<polygon fill="white" stroke="transparent" points="147,-169 0,-169 0,0 147,0 147,-169"/>
<text text-anchor="start" x="5.5" y="-156.5" font-family="Helvetica,sans-Serif" font-size="10.00">FrameEngine::BasicMaterial</text>
<text text-anchor="start" x="72" y="-141.5" font-family="Helvetica,sans-Serif" font-size="10.00"> </text>
<text text-anchor="start" x="9.5" y="-126.5" font-family="Helvetica,sans-Serif" font-size="10.00">+</text>
<text text-anchor="start" x="27.5" y="-126.5" font-family="Helvetica,sans-Serif" font-size="10.00">BasicMaterial()</text>
<text text-anchor="start" x="9.5" y="-111.5" font-family="Helvetica,sans-Serif" font-size="10.00">+</text>
<text text-anchor="start" x="27.5" y="-111.5" font-family="Helvetica,sans-Serif" font-size="10.00">setDiffuseColor()</text>
<text text-anchor="start" x="9.5" y="-96.5" font-family="Helvetica,sans-Serif" font-size="10.00">+</text>
<text text-anchor="start" x="27.5" y="-96.5" font-family="Helvetica,sans-Serif" font-size="10.00">setSpecularColor()</text>
<text text-anchor="start" x="9.5" y="-81.5" font-family="Helvetica,sans-Serif" font-size="10.00">+</text>
<text text-anchor="start" x="27.5" y="-81.5" font-family="Helvetica,sans-Serif" font-size="10.00">setSpecularPower()</text>
<text text-anchor="start" x="9.5" y="-66.5" font-family="Helvetica,sans-Serif" font-size="10.00">+</text>
<text text-anchor="start" x="27.5" y="-66.5" font-family="Helvetica,sans-Serif" font-size="10.00">setTexture()</text>
<text text-anchor="start" x="9.5" y="-51.5" font-family="Helvetica,sans-Serif" font-size="10.00">+</text>
<text text-anchor="start" x="27.5" y="-51.5" font-family="Helvetica,sans-Serif" font-size="10.00">isEmissiveEnabled()</text>
<text text-anchor="start" x="9.5" y="-36.5" font-family="Helvetica,sans-Serif" font-size="10.00">+</text>
<text text-anchor="start" x="27.5" y="-36.5" font-family="Helvetica,sans-Serif" font-size="10.00">setEmissiveEnabled()</text>
<text text-anchor="start" x="9.5" y="-21.5" font-family="Helvetica,sans-Serif" font-size="10.00">+</text>
<text text-anchor="start" x="27.5" y="-21.5" font-family="Helvetica,sans-Serif" font-size="10.00">setEmissiveColor()</text>
<text text-anchor="start" x="9.5" y="-6.5" font-family="Helvetica,sans-Serif" font-size="10.00">+</text>
<text text-anchor="start" x="27.5" y="-6.5" font-family="Helvetica,sans-Serif" font-size="10.00">applyUniforms()</text>
<polygon fill="#bfbfbf" stroke="#bfbfbf" points="0.5,-151.5 0.5,-151.5 147.5,-151.5 147.5,-151.5 0.5,-151.5"/>
<polygon fill="#bfbfbf" stroke="#bfbfbf" points="0.5,-136.5 0.5,-136.5 147.5,-136.5 147.5,-136.5 0.5,-136.5"/>
<polygon fill="none" stroke="#bfbfbf" points="0,0 0,-169 147,-169 147,0 0,0"/>
</a>
</g>
</g>
<!-- Node1&#45;&gt;Node2 -->
<g id="edge1_Node000001_Node000002" class="edge">
<title>Node1&#45;&gt;Node2</title>
<g id="a_edge1_Node000001_Node000002"><a xlink:title=" ">
<path fill="none" stroke="#63b8ff" d="M73.5,-194.66C73.5,-186.4 73.5,-177.74 73.5,-169.06"/>
<polygon fill="none" stroke="#63b8ff" points="70,-194.9 73.5,-204.9 77,-194.9 70,-194.9"/>
</a>
</g>
</g>
</g>
</svg>
