<?xml version="1.0" encoding="UTF-8" standalone="no"?>
<!DOCTYPE svg PUBLIC "-//W3C//DTD SVG 1.1//EN"
 "http://www.w3.org/Graphics/SVG/1.1/DTD/svg11.dtd">
<!-- Generated by graphviz version 12.2.1 (0)
 -->
<!-- Title: PointLight Pages: 1 -->
<svg width="133pt" height="528pt"
 viewBox="0.00 0.00 133.25 527.50" xmlns="http://www.w3.org/2000/svg" xmlns:xlink="http://www.w3.org/1999/xlink">
<g id="graph0" class="graph" transform="scale(1 1) rotate(0) translate(4 523.5)">
<title>PointLight</title>
<!-- Node1 -->
<g id="Node000001" class="node">
<title>Node1</title>
<g id="a_Node000001"><a xlink:title="An ECS entity representing a point light source.">
<polygon fill="#999999" stroke="none" points="105.75,-121.25 19.5,-121.25 19.5,0 105.75,0 105.75,-121.25"/>
<text text-anchor="start" x="38.25" y="-107.75" font-family="Helvetica,sans-Serif" font-size="10.00">PointLight</text>
<text text-anchor="start" x="59.62" y="-91" font-family="Helvetica,sans-Serif" font-size="10.00"> </text>
<text text-anchor="start" x="23.5" y="-74.25" font-family="Helvetica,sans-Serif" font-size="10.00">+</text>
<text text-anchor="start" x="35.75" y="-74.25" font-family="Helvetica,sans-Serif" font-size="10.00">PointLight()</text>
<text text-anchor="start" x="23.5" y="-57.5" font-family="Helvetica,sans-Serif" font-size="10.00">+</text>
<text text-anchor="start" x="35.75" y="-57.5" font-family="Helvetica,sans-Serif" font-size="10.00">getColor()</text>
<text text-anchor="start" x="23.5" y="-40.75" font-family="Helvetica,sans-Serif" font-size="10.00">+</text>
<text text-anchor="start" x="35.75" y="-40.75" font-family="Helvetica,sans-Serif" font-size="10.00">setColor()</text>
<text text-anchor="start" x="23.5" y="-24" font-family="Helvetica,sans-Serif" font-size="10.00">+</text>
<text text-anchor="start" x="35.75" y="-24" font-family="Helvetica,sans-Serif" font-size="10.00">getIntensity()</text>
<text text-anchor="start" x="23.5" y="-7.25" font-family="Helvetica,sans-Serif" font-size="10.00">+</text>
<text text-anchor="start" x="35.75" y="-7.25" font-family="Helvetica,sans-Serif" font-size="10.00">setIntensity()</text>
<polygon fill="#666666" stroke="#666666" points="19.5,-102.5 19.5,-102.5 105.75,-102.5 105.75,-102.5 19.5,-102.5"/>
<polygon fill="#666666" stroke="#666666" points="19.5,-85.75 19.5,-85.75 105.75,-85.75 105.75,-85.75 19.5,-85.75"/>
<polygon fill="none" stroke="#666666" points="19.5,0 19.5,-121.25 105.75,-121.25 105.75,0 19.5,0"/>
</a>
</g>
</g>
<!-- Node2 -->
<g id="Node000002" class="node">
<title>Node2</title>
<g id="a_Node000002"><a xlink:href="classObject.html" target="_top" xlink:title="A high&#45;level ECS entity wrapper with default components.">
<polygon fill="white" stroke="none" points="109.88,-345.5 15.38,-345.5 15.38,-157.25 109.88,-157.25 109.88,-345.5"/>
<text text-anchor="start" x="46.88" y="-332" font-family="Helvetica,sans-Serif" font-size="10.00">Object</text>
<text text-anchor="start" x="19.38" y="-315.25" font-family="Helvetica,sans-Serif" font-size="10.00">+</text>
<text text-anchor="start" x="31.62" y="-315.25" font-family="Helvetica,sans-Serif" font-size="10.00">transform</text>
<text text-anchor="start" x="19.38" y="-298.5" font-family="Helvetica,sans-Serif" font-size="10.00">+</text>
<text text-anchor="start" x="31.62" y="-298.5" font-family="Helvetica,sans-Serif" font-size="10.00">Object()</text>
<text text-anchor="start" x="19.38" y="-281.75" font-family="Helvetica,sans-Serif" font-size="10.00">+</text>
<text text-anchor="start" x="31.62" y="-281.75" font-family="Helvetica,sans-Serif" font-size="10.00">rotate()</text>
<text text-anchor="start" x="19.38" y="-265" font-family="Helvetica,sans-Serif" font-size="10.00">+</text>
<text text-anchor="start" x="31.62" y="-265" font-family="Helvetica,sans-Serif" font-size="10.00">move()</text>
<text text-anchor="start" x="19.38" y="-248.25" font-family="Helvetica,sans-Serif" font-size="10.00">+</text>
<text text-anchor="start" x="31.62" y="-248.25" font-family="Helvetica,sans-Serif" font-size="10.00">render()</text>
<text text-anchor="start" x="19.38" y="-231.5" font-family="Helvetica,sans-Serif" font-size="10.00">+</text>
<text text-anchor="start" x="31.62" y="-231.5" font-family="Helvetica,sans-Serif" font-size="10.00">getColor()</text>
<text text-anchor="start" x="19.38" y="-214.75" font-family="Helvetica,sans-Serif" font-size="10.00">+</text>
<text text-anchor="start" x="31.62" y="-214.75" font-family="Helvetica,sans-Serif" font-size="10.00">setColor()</text>
<text text-anchor="start" x="19.38" y="-198" font-family="Helvetica,sans-Serif" font-size="10.00">+</text>
<text text-anchor="start" x="31.62" y="-198" font-family="Helvetica,sans-Serif" font-size="10.00">lookAt()</text>
<text text-anchor="start" x="19.38" y="-181.25" font-family="Helvetica,sans-Serif" font-size="10.00">+</text>
<text text-anchor="start" x="31.62" y="-181.25" font-family="Helvetica,sans-Serif" font-size="10.00">setWireframe()</text>
<text text-anchor="start" x="19.38" y="-164.5" font-family="Helvetica,sans-Serif" font-size="10.00">+</text>
<text text-anchor="start" x="31.62" y="-164.5" font-family="Helvetica,sans-Serif" font-size="10.00">isWireframe()</text>
<polygon fill="#666666" stroke="#666666" points="15.38,-326.75 15.38,-326.75 109.88,-326.75 109.88,-326.75 15.38,-326.75"/>
<polygon fill="#666666" stroke="#666666" points="15.38,-310 15.38,-310 29.62,-310 29.62,-310 15.38,-310"/>
<polygon fill="#666666" stroke="#666666" points="29.62,-310 29.62,-310 109.88,-310 109.88,-310 29.62,-310"/>
<polygon fill="none" stroke="#666666" points="15.38,-157.25 15.38,-345.5 109.88,-345.5 109.88,-157.25 15.38,-157.25"/>
</a>
</g>
</g>
<!-- Node2&#45;&gt;Node1 -->
<g id="edge1_Node000001_Node000002" class="edge">
<title>Node2&#45;&gt;Node1</title>
<g id="a_edge1_Node000001_Node000002"><a xlink:title=" ">
<path fill="none" stroke="#63b8ff" d="M62.62,-146.09C62.62,-137.52 62.62,-129.07 62.62,-121.01"/>
<polygon fill="none" stroke="#63b8ff" points="59.13,-145.87 62.63,-155.87 66.13,-145.87 59.13,-145.87"/>
</a>
</g>
</g>
<!-- Node3 -->
<g id="Node000003" class="node">
<title>Node3</title>
<g id="a_Node000003"><a xlink:href="classEntity.html" target="_top" xlink:title="A high&#45;level ECS entity wrapper.">
<polygon fill="white" stroke="none" points="125.25,-519.5 0,-519.5 0,-381.5 125.25,-381.5 125.25,-519.5"/>
<text text-anchor="start" x="48.38" y="-506" font-family="Helvetica,sans-Serif" font-size="10.00">Entity</text>
<text text-anchor="start" x="4" y="-489.25" font-family="Helvetica,sans-Serif" font-size="10.00">#</text>
<text text-anchor="start" x="16.25" y="-489.25" font-family="Helvetica,sans-Serif" font-size="10.00">id_</text>
<text text-anchor="start" x="4" y="-472.5" font-family="Helvetica,sans-Serif" font-size="10.00">#</text>
<text text-anchor="start" x="16.25" y="-472.5" font-family="Helvetica,sans-Serif" font-size="10.00">registry_</text>
<text text-anchor="start" x="4" y="-455.75" font-family="Helvetica,sans-Serif" font-size="10.00">+</text>
<text text-anchor="start" x="16.25" y="-455.75" font-family="Helvetica,sans-Serif" font-size="10.00">Entity()</text>
<text text-anchor="start" x="4" y="-439" font-family="Helvetica,sans-Serif" font-size="10.00">+</text>
<text text-anchor="start" x="16.25" y="-439" font-family="Helvetica,sans-Serif" font-size="10.00">add_component()</text>
<text text-anchor="start" x="4" y="-422.25" font-family="Helvetica,sans-Serif" font-size="10.00">+</text>
<text text-anchor="start" x="16.25" y="-422.25" font-family="Helvetica,sans-Serif" font-size="10.00">remove_component()</text>
<text text-anchor="start" x="4" y="-405.5" font-family="Helvetica,sans-Serif" font-size="10.00">+</text>
<text text-anchor="start" x="16.25" y="-405.5" font-family="Helvetica,sans-Serif" font-size="10.00">get_component()</text>
<text text-anchor="start" x="4" y="-388.75" font-family="Helvetica,sans-Serif" font-size="10.00">+</text>
<text text-anchor="start" x="16.25" y="-388.75" font-family="Helvetica,sans-Serif" font-size="10.00">id()</text>
<polygon fill="#666666" stroke="#666666" points="0,-500.75 0,-500.75 125.25,-500.75 125.25,-500.75 0,-500.75"/>
<polygon fill="#666666" stroke="#666666" points="0,-467.25 0,-467.25 14.25,-467.25 14.25,-467.25 0,-467.25"/>
<polygon fill="#666666" stroke="#666666" points="14.25,-467.25 14.25,-467.25 125.25,-467.25 125.25,-467.25 14.25,-467.25"/>
<polygon fill="none" stroke="#666666" points="0,-381.5 0,-519.5 125.25,-519.5 125.25,-381.5 0,-381.5"/>
</a>
</g>
</g>
<!-- Node3&#45;&gt;Node2 -->
<g id="edge2_Node000002_Node000003" class="edge">
<title>Node3&#45;&gt;Node2</title>
<g id="a_edge2_Node000002_Node000003"><a xlink:title=" ">
<path fill="none" stroke="#63b8ff" d="M62.62,-370.25C62.62,-362.08 62.62,-353.72 62.62,-345.41"/>
<polygon fill="none" stroke="#63b8ff" points="59.13,-370.15 62.63,-380.15 66.13,-370.15 59.13,-370.15"/>
</a>
</g>
</g>
</g>
</svg>
