<?xml version="1.0" encoding="UTF-8" standalone="no"?>
<!DOCTYPE svg PUBLIC "-//W3C//DTD SVG 1.1//EN"
 "http://www.w3.org/Graphics/SVG/1.1/DTD/svg11.dtd">
<!-- Generated by graphviz version 2.43.0 (0)
 -->
<!-- Title: FrameEngine::PointLight Pages: 1 -->
<svg width="808pt" height="1012pt"
 viewBox="0.00 0.00 808.00 1012.00" xmlns="http://www.w3.org/2000/svg" xmlns:xlink="http://www.w3.org/1999/xlink">
<g id="graph0" class="graph" transform="scale(1 1) rotate(0) translate(4 1008)">
<title>FrameEngine::PointLight</title>
<!-- Node1 -->
<g id="Node000001" class="node">
<title>Node1</title>
<g id="a_Node000001"><a xlink:title="An ECS entity representing a point light source.">
<polygon fill="#999999" stroke="transparent" points="491,-109 362,-109 362,0 491,0 491,-109"/>
<text text-anchor="start" x="367.5" y="-96.5" font-family="Helvetica,sans-Serif" font-size="10.00">FrameEngine::PointLight</text>
<text text-anchor="start" x="425" y="-81.5" font-family="Helvetica,sans-Serif" font-size="10.00"> </text>
<text text-anchor="start" x="376.5" y="-66.5" font-family="Helvetica,sans-Serif" font-size="10.00">+</text>
<text text-anchor="start" x="399.5" y="-66.5" font-family="Helvetica,sans-Serif" font-size="10.00">PointLight()</text>
<text text-anchor="start" x="376.5" y="-51.5" font-family="Helvetica,sans-Serif" font-size="10.00">+</text>
<text text-anchor="start" x="399.5" y="-51.5" font-family="Helvetica,sans-Serif" font-size="10.00">getColor()</text>
<text text-anchor="start" x="376.5" y="-36.5" font-family="Helvetica,sans-Serif" font-size="10.00">+</text>
<text text-anchor="start" x="399.5" y="-36.5" font-family="Helvetica,sans-Serif" font-size="10.00">setColor()</text>
<text text-anchor="start" x="376.5" y="-21.5" font-family="Helvetica,sans-Serif" font-size="10.00">+</text>
<text text-anchor="start" x="399.5" y="-21.5" font-family="Helvetica,sans-Serif" font-size="10.00">getIntensity()</text>
<text text-anchor="start" x="376.5" y="-6.5" font-family="Helvetica,sans-Serif" font-size="10.00">+</text>
<text text-anchor="start" x="399.5" y="-6.5" font-family="Helvetica,sans-Serif" font-size="10.00">setIntensity()</text>
<polygon fill="#666666" stroke="#666666" points="362.5,-91.5 362.5,-91.5 491.5,-91.5 491.5,-91.5 362.5,-91.5"/>
<polygon fill="#666666" stroke="#666666" points="362.5,-76.5 362.5,-76.5 491.5,-76.5 491.5,-76.5 362.5,-76.5"/>
<polygon fill="none" stroke="#666666" points="362,0 362,-109 491,-109 491,0 362,0"/>
</a>
</g>
</g>
<!-- Node2 -->
<g id="Node000002" class="node">
<title>Node2</title>
<g id="a_Node000002"><a xlink:href="classFrameEngine_1_1Object.html" target="_top" xlink:title="A high&#45;level ECS entity wrapper with default components.">
<polygon fill="white" stroke="transparent" points="482.5,-270 370.5,-270 370.5,-146 482.5,-146 482.5,-270"/>
<text text-anchor="start" x="375.5" y="-258" font-family="Helvetica,sans-Serif" font-size="10.00">FrameEngine::Object</text>
<text text-anchor="start" x="424.5" y="-243" font-family="Helvetica,sans-Serif" font-size="10.00"> </text>
<text text-anchor="start" x="381" y="-228" font-family="Helvetica,sans-Serif" font-size="10.00">+</text>
<text text-anchor="start" x="400.5" y="-228" font-family="Helvetica,sans-Serif" font-size="10.00">Object()</text>
<text text-anchor="start" x="381" y="-213" font-family="Helvetica,sans-Serif" font-size="10.00">+</text>
<text text-anchor="start" x="400.5" y="-213" font-family="Helvetica,sans-Serif" font-size="10.00">setMesh()</text>
<text text-anchor="start" x="381" y="-198" font-family="Helvetica,sans-Serif" font-size="10.00">+</text>
<text text-anchor="start" x="400.5" y="-198" font-family="Helvetica,sans-Serif" font-size="10.00">setMaterial()</text>
<text text-anchor="start" x="381" y="-183" font-family="Helvetica,sans-Serif" font-size="10.00">+</text>
<text text-anchor="start" x="400.5" y="-183" font-family="Helvetica,sans-Serif" font-size="10.00">rotate()</text>
<text text-anchor="start" x="381" y="-168" font-family="Helvetica,sans-Serif" font-size="10.00">+</text>
<text text-anchor="start" x="400.5" y="-168" font-family="Helvetica,sans-Serif" font-size="10.00">move()</text>
<text text-anchor="start" x="381" y="-153" font-family="Helvetica,sans-Serif" font-size="10.00">+</text>
<text text-anchor="start" x="400.5" y="-153" font-family="Helvetica,sans-Serif" font-size="10.00">lookAt()</text>
<polygon fill="#666666" stroke="#666666" points="370.5,-253 370.5,-253 482.5,-253 482.5,-253 370.5,-253"/>
<polygon fill="#666666" stroke="#666666" points="370.5,-238 370.5,-238 482.5,-238 482.5,-238 370.5,-238"/>
<polygon fill="none" stroke="#666666" points="370.5,-146 370.5,-270 482.5,-270 482.5,-146 370.5,-146"/>
</a>
</g>
</g>
<!-- Node2&#45;&gt;Node1 -->
<g id="edge1_Node000001_Node000002" class="edge">
<title>Node2&#45;&gt;Node1</title>
<g id="a_edge1_Node000001_Node000002"><a xlink:title=" ">
<path fill="none" stroke="#63b8ff" d="M426.5,-135.76C426.5,-126.79 426.5,-117.74 426.5,-109.11"/>
<polygon fill="none" stroke="#63b8ff" points="423,-135.82 426.5,-145.82 430,-135.82 423,-135.82"/>
</a>
</g>
</g>
<!-- Node3 -->
<g id="Node000003" class="node">
<title>Node3</title>
<g id="a_Node000003"><a xlink:href="classFrameEngine_1_1Entity.html" target="_top" xlink:title="A high&#45;level ECS entity wrapper.">
<polygon fill="white" stroke="transparent" points="186,-426 59,-426 59,-317 186,-317 186,-426"/>
<text text-anchor="start" x="73.5" y="-413.5" font-family="Helvetica,sans-Serif" font-size="10.00">FrameEngine::Entity</text>
<text text-anchor="start" x="63.5" y="-398.5" font-family="Helvetica,sans-Serif" font-size="10.00">#</text>
<text text-anchor="start" x="76.5" y="-398.5" font-family="Helvetica,sans-Serif" font-size="10.00">id_</text>
<text text-anchor="start" x="63.5" y="-383.5" font-family="Helvetica,sans-Serif" font-size="10.00">+</text>
<text text-anchor="start" x="76.5" y="-383.5" font-family="Helvetica,sans-Serif" font-size="10.00">Entity()</text>
<text text-anchor="start" x="63.5" y="-368.5" font-family="Helvetica,sans-Serif" font-size="10.00">+</text>
<text text-anchor="start" x="76.5" y="-368.5" font-family="Helvetica,sans-Serif" font-size="10.00">add_component()</text>
<text text-anchor="start" x="63.5" y="-353.5" font-family="Helvetica,sans-Serif" font-size="10.00">+</text>
<text text-anchor="start" x="76.5" y="-353.5" font-family="Helvetica,sans-Serif" font-size="10.00">remove_component()</text>
<text text-anchor="start" x="63.5" y="-338.5" font-family="Helvetica,sans-Serif" font-size="10.00">+</text>
<text text-anchor="start" x="76.5" y="-338.5" font-family="Helvetica,sans-Serif" font-size="10.00">get_component()</text>
<text text-anchor="start" x="63.5" y="-323.5" font-family="Helvetica,sans-Serif" font-size="10.00">+</text>
<text text-anchor="start" x="76.5" y="-323.5" font-family="Helvetica,sans-Serif" font-size="10.00">id()</text>
<polygon fill="#666666" stroke="#666666" points="59.5,-408.5 59.5,-408.5 186.5,-408.5 186.5,-408.5 59.5,-408.5"/>
<polygon fill="#666666" stroke="#666666" points="59.5,-393.5 59.5,-393.5 74.5,-393.5 74.5,-393.5 59.5,-393.5"/>
<polygon fill="#666666" stroke="#666666" points="74.5,-393.5 74.5,-393.5 186.5,-393.5 186.5,-393.5 74.5,-393.5"/>
<polygon fill="none" stroke="#666666" points="59,-317 59,-426 186,-426 186,-317 59,-317"/>
</a>
</g>
</g>
<!-- Node3&#45;&gt;Node2 -->
<g id="edge2_Node000002_Node000003" class="edge">
<title>Node3&#45;&gt;Node2</title>
<g id="a_edge2_Node000002_Node000003"><a xlink:title=" ">
<path fill="none" stroke="#63b8ff" d="M195.34,-331.8C248.93,-303.33 320.74,-265.19 370.02,-239"/>
<polygon fill="none" stroke="#63b8ff" points="193.42,-328.86 186.23,-336.64 196.7,-335.04 193.42,-328.86"/>
</a>
</g>
</g>
<!-- Node4 -->
<g id="Node000004" class="node">
<title>Node4</title>
<g id="a_Node000004"><a xlink:href="classRegistry.html" target="_top" xlink:title="Manages all ECS entities and components.">
<polygon fill="white" stroke="transparent" points="173,-728 0,-728 0,-529 173,-529 173,-728"/>
<text text-anchor="start" x="66.5" y="-715.5" font-family="Helvetica,sans-Serif" font-size="10.00">Registry</text>
<text text-anchor="start" x="85" y="-700.5" font-family="Helvetica,sans-Serif" font-size="10.00"> </text>
<text text-anchor="start" x="4.5" y="-685.5" font-family="Helvetica,sans-Serif" font-size="10.00">+</text>
<text text-anchor="start" x="17.5" y="-685.5" font-family="Helvetica,sans-Serif" font-size="10.00">Registry()</text>
<text text-anchor="start" x="4.5" y="-670.5" font-family="Helvetica,sans-Serif" font-size="10.00">+</text>
<text text-anchor="start" x="17.5" y="-670.5" font-family="Helvetica,sans-Serif" font-size="10.00">operator=()</text>
<text text-anchor="start" x="4.5" y="-655.5" font-family="Helvetica,sans-Serif" font-size="10.00">+</text>
<text text-anchor="start" x="17.5" y="-655.5" font-family="Helvetica,sans-Serif" font-size="10.00">Registry()</text>
<text text-anchor="start" x="4.5" y="-640.5" font-family="Helvetica,sans-Serif" font-size="10.00">+</text>
<text text-anchor="start" x="17.5" y="-640.5" font-family="Helvetica,sans-Serif" font-size="10.00">create_entity()</text>
<text text-anchor="start" x="4.5" y="-625.5" font-family="Helvetica,sans-Serif" font-size="10.00">+</text>
<text text-anchor="start" x="17.5" y="-625.5" font-family="Helvetica,sans-Serif" font-size="10.00">destroy_entity()</text>
<text text-anchor="start" x="4.5" y="-610.5" font-family="Helvetica,sans-Serif" font-size="10.00">+</text>
<text text-anchor="start" x="17.5" y="-610.5" font-family="Helvetica,sans-Serif" font-size="10.00">add_component()</text>
<text text-anchor="start" x="4.5" y="-595.5" font-family="Helvetica,sans-Serif" font-size="10.00">+</text>
<text text-anchor="start" x="17.5" y="-595.5" font-family="Helvetica,sans-Serif" font-size="10.00">has_component()</text>
<text text-anchor="start" x="4.5" y="-580.5" font-family="Helvetica,sans-Serif" font-size="10.00">+</text>
<text text-anchor="start" x="17.5" y="-580.5" font-family="Helvetica,sans-Serif" font-size="10.00">get_component()</text>
<text text-anchor="start" x="4.5" y="-565.5" font-family="Helvetica,sans-Serif" font-size="10.00">+</text>
<text text-anchor="start" x="17.5" y="-565.5" font-family="Helvetica,sans-Serif" font-size="10.00">remove_component()</text>
<text text-anchor="start" x="4.5" y="-550.5" font-family="Helvetica,sans-Serif" font-size="10.00">+</text>
<text text-anchor="start" x="17.5" y="-550.5" font-family="Helvetica,sans-Serif" font-size="10.00">get_entities_with_component()</text>
<text text-anchor="start" x="4.5" y="-535.5" font-family="Helvetica,sans-Serif" font-size="10.00">+</text>
<text text-anchor="start" x="17.5" y="-535.5" font-family="Helvetica,sans-Serif" font-size="10.00">getInstance()</text>
<polygon fill="#666666" stroke="#666666" points="0.5,-710.5 0.5,-710.5 173.5,-710.5 173.5,-710.5 0.5,-710.5"/>
<polygon fill="#666666" stroke="#666666" points="0.5,-695.5 0.5,-695.5 173.5,-695.5 173.5,-695.5 0.5,-695.5"/>
<polygon fill="none" stroke="#666666" points="0,-529 0,-728 173,-728 173,-529 0,-529"/>
</a>
</g>
</g>
<!-- Node4&#45;&gt;Node3 -->
<g id="edge3_Node000003_Node000004" class="edge">
<title>Node4&#45;&gt;Node3</title>
<g id="a_edge3_Node000003_Node000004"><a xlink:title=" ">
<path fill="none" stroke="#63b8ff" d="M100.42,-528.91C104.71,-498.51 109.33,-465.8 113.23,-438.19"/>
<polygon fill="none" stroke="#63b8ff" points="113.23,-438.17 110.11,-431.67 114.91,-426.29 118.03,-432.79 113.23,-438.17"/>
</a>
</g>
<text text-anchor="middle" x="140" y="-452.5" font-family="Helvetica,sans-Serif" font-size="10.00" fill="grey"> #registry_</text>
</g>
<!-- Node5 -->
<g id="Node000005" class="node">
<title>Node5</title>
<g id="a_Node000005"><a xlink:href="structFrameEngine_1_1TransformComponent.html" target="_top" xlink:title="Represents the transformation properties of an entity.">
<polygon fill="white" stroke="transparent" points="424,-416.5 239,-416.5 239,-326.5 424,-326.5 424,-416.5"/>
<text text-anchor="start" x="244.5" y="-404.5" font-family="Helvetica,sans-Serif" font-size="10.00">FrameEngine::TransformComponent</text>
<text text-anchor="start" x="330" y="-389.5" font-family="Helvetica,sans-Serif" font-size="10.00"> </text>
<text text-anchor="start" x="256" y="-374.5" font-family="Helvetica,sans-Serif" font-size="10.00">+</text>
<text text-anchor="start" x="281.5" y="-374.5" font-family="Helvetica,sans-Serif" font-size="10.00">TransformComponent()</text>
<text text-anchor="start" x="256" y="-359.5" font-family="Helvetica,sans-Serif" font-size="10.00">+</text>
<text text-anchor="start" x="281.5" y="-359.5" font-family="Helvetica,sans-Serif" font-size="10.00">TransformComponent()</text>
<text text-anchor="start" x="256" y="-344.5" font-family="Helvetica,sans-Serif" font-size="10.00">+</text>
<text text-anchor="start" x="281.5" y="-344.5" font-family="Helvetica,sans-Serif" font-size="10.00">get_transformation</text>
<text text-anchor="start" x="281.5" y="-333.5" font-family="Helvetica,sans-Serif" font-size="10.00">_matrix()</text>
<polygon fill="#666666" stroke="#666666" points="239.5,-399.5 239.5,-399.5 424.5,-399.5 424.5,-399.5 239.5,-399.5"/>
<polygon fill="#666666" stroke="#666666" points="239.5,-384.5 239.5,-384.5 424.5,-384.5 424.5,-384.5 239.5,-384.5"/>
<polygon fill="none" stroke="#666666" points="239,-326.5 239,-416.5 424,-416.5 424,-326.5 239,-326.5"/>
</a>
</g>
</g>
<!-- Node5&#45;&gt;Node2 -->
<g id="edge4_Node000002_Node000005" class="edge">
<title>Node5&#45;&gt;Node2</title>
<g id="a_edge4_Node000002_Node000005"><a xlink:title=" ">
<path fill="none" stroke="#63b8ff" d="M357.46,-326.37C365.76,-312.26 375.18,-296.25 384.33,-280.69"/>
<polygon fill="none" stroke="#63b8ff" points="384.52,-280.37 384.11,-273.17 390.6,-270.03 391.01,-277.23 384.52,-280.37"/>
</a>
</g>
<text text-anchor="middle" x="409.5" y="-291" font-family="Helvetica,sans-Serif" font-size="10.00" fill="grey"> +transform</text>
</g>
<!-- Node6 -->
<g id="Node000006" class="node">
<title>Node6</title>
<g id="a_Node000006"><a xlink:href="classFrameEngine_1_1Vector3.html" target="_top" xlink:title=" ">
<polygon fill="white" stroke="transparent" points="308,-758 191,-758 191,-499 308,-499 308,-758"/>
<text text-anchor="start" x="196.5" y="-745.5" font-family="Helvetica,sans-Serif" font-size="10.00">FrameEngine::Vector3</text>
<text text-anchor="start" x="203" y="-730.5" font-family="Helvetica,sans-Serif" font-size="10.00">+</text>
<text text-anchor="start" x="223.5" y="-730.5" font-family="Helvetica,sans-Serif" font-size="10.00">x</text>
<text text-anchor="start" x="203" y="-715.5" font-family="Helvetica,sans-Serif" font-size="10.00">+</text>
<text text-anchor="start" x="223.5" y="-715.5" font-family="Helvetica,sans-Serif" font-size="10.00">y</text>
<text text-anchor="start" x="203" y="-700.5" font-family="Helvetica,sans-Serif" font-size="10.00">+</text>
<text text-anchor="start" x="223.5" y="-700.5" font-family="Helvetica,sans-Serif" font-size="10.00">z</text>
<text text-anchor="start" x="203" y="-685.5" font-family="Helvetica,sans-Serif" font-size="10.00">+</text>
<text text-anchor="start" x="223.5" y="-685.5" font-family="Helvetica,sans-Serif" font-size="10.00">Vector3()</text>
<text text-anchor="start" x="203" y="-670.5" font-family="Helvetica,sans-Serif" font-size="10.00">+</text>
<text text-anchor="start" x="223.5" y="-670.5" font-family="Helvetica,sans-Serif" font-size="10.00">operator+()</text>
<text text-anchor="start" x="203" y="-655.5" font-family="Helvetica,sans-Serif" font-size="10.00">+</text>
<text text-anchor="start" x="223.5" y="-655.5" font-family="Helvetica,sans-Serif" font-size="10.00">operator&#45;()</text>
<text text-anchor="start" x="203" y="-640.5" font-family="Helvetica,sans-Serif" font-size="10.00">+</text>
<text text-anchor="start" x="223.5" y="-640.5" font-family="Helvetica,sans-Serif" font-size="10.00">operator*()</text>
<text text-anchor="start" x="203" y="-625.5" font-family="Helvetica,sans-Serif" font-size="10.00">+</text>
<text text-anchor="start" x="223.5" y="-625.5" font-family="Helvetica,sans-Serif" font-size="10.00">operator*=()</text>
<text text-anchor="start" x="203" y="-610.5" font-family="Helvetica,sans-Serif" font-size="10.00">+</text>
<text text-anchor="start" x="223.5" y="-610.5" font-family="Helvetica,sans-Serif" font-size="10.00">operator/()</text>
<text text-anchor="start" x="203" y="-595.5" font-family="Helvetica,sans-Serif" font-size="10.00">+</text>
<text text-anchor="start" x="223.5" y="-595.5" font-family="Helvetica,sans-Serif" font-size="10.00">operator==()</text>
<text text-anchor="start" x="203" y="-580.5" font-family="Helvetica,sans-Serif" font-size="10.00">+</text>
<text text-anchor="start" x="223.5" y="-580.5" font-family="Helvetica,sans-Serif" font-size="10.00">operator+=()</text>
<text text-anchor="start" x="203" y="-565.5" font-family="Helvetica,sans-Serif" font-size="10.00">+</text>
<text text-anchor="start" x="223.5" y="-565.5" font-family="Helvetica,sans-Serif" font-size="10.00">magnitude()</text>
<text text-anchor="start" x="203" y="-550.5" font-family="Helvetica,sans-Serif" font-size="10.00">+</text>
<text text-anchor="start" x="223.5" y="-550.5" font-family="Helvetica,sans-Serif" font-size="10.00">normalized()</text>
<text text-anchor="start" x="203" y="-535.5" font-family="Helvetica,sans-Serif" font-size="10.00">+</text>
<text text-anchor="start" x="223.5" y="-535.5" font-family="Helvetica,sans-Serif" font-size="10.00">dot()</text>
<text text-anchor="start" x="203" y="-520.5" font-family="Helvetica,sans-Serif" font-size="10.00">+</text>
<text text-anchor="start" x="223.5" y="-520.5" font-family="Helvetica,sans-Serif" font-size="10.00">cross()</text>
<text text-anchor="start" x="203" y="-505.5" font-family="Helvetica,sans-Serif" font-size="10.00">+</text>
<text text-anchor="start" x="223.5" y="-505.5" font-family="Helvetica,sans-Serif" font-size="10.00">toString()</text>
<polygon fill="#bfbfbf" stroke="#bfbfbf" points="191.5,-740.5 191.5,-740.5 308.5,-740.5 308.5,-740.5 191.5,-740.5"/>
<polygon fill="#bfbfbf" stroke="#bfbfbf" points="191.5,-695.5 191.5,-695.5 221.5,-695.5 221.5,-695.5 191.5,-695.5"/>
<polygon fill="#bfbfbf" stroke="#bfbfbf" points="221.5,-695.5 221.5,-695.5 308.5,-695.5 308.5,-695.5 221.5,-695.5"/>
<polygon fill="none" stroke="#bfbfbf" points="191,-499 191,-758 308,-758 308,-499 191,-499"/>
</a>
</g>
</g>
<!-- Node6&#45;&gt;Node5 -->
<g id="edge5_Node000005_Node000006" class="edge">
<title>Node6&#45;&gt;Node5</title>
<g id="a_edge5_Node000005_Node000006"><a xlink:title=" ">
<path fill="none" stroke="#63b8ff" d="M277.98,-498.56C283.18,-480.05 289.03,-461.39 295.5,-444 297.48,-438.66 299.76,-433.2 302.17,-427.8"/>
<polygon fill="none" stroke="#63b8ff" points="302.21,-427.7 301.13,-420.58 307.29,-416.83 308.38,-423.96 302.21,-427.7"/>
</a>
</g>
<text text-anchor="middle" x="321" y="-458" font-family="Helvetica,sans-Serif" font-size="10.00" fill="grey"> +position</text>
<text text-anchor="middle" x="321" y="-447" font-family="Helvetica,sans-Serif" font-size="10.00" fill="grey">+scale</text>
</g>
<!-- Node7 -->
<g id="Node000007" class="node">
<title>Node7</title>
<g id="a_Node000007"><a xlink:href="structFrameEngine_1_1Quaternion.html" target="_top" xlink:title=" ">
<polygon fill="white" stroke="transparent" points="460.5,-773 326.5,-773 326.5,-484 460.5,-484 460.5,-773"/>
<text text-anchor="start" x="331.5" y="-760.5" font-family="Helvetica,sans-Serif" font-size="10.00">FrameEngine::Quaternion</text>
<text text-anchor="start" x="338.5" y="-745.5" font-family="Helvetica,sans-Serif" font-size="10.00">+</text>
<text text-anchor="start" x="359.5" y="-745.5" font-family="Helvetica,sans-Serif" font-size="10.00">w</text>
<text text-anchor="start" x="338.5" y="-730.5" font-family="Helvetica,sans-Serif" font-size="10.00">+</text>
<text text-anchor="start" x="359.5" y="-730.5" font-family="Helvetica,sans-Serif" font-size="10.00">x</text>
<text text-anchor="start" x="338.5" y="-715.5" font-family="Helvetica,sans-Serif" font-size="10.00">+</text>
<text text-anchor="start" x="359.5" y="-715.5" font-family="Helvetica,sans-Serif" font-size="10.00">y</text>
<text text-anchor="start" x="338.5" y="-700.5" font-family="Helvetica,sans-Serif" font-size="10.00">+</text>
<text text-anchor="start" x="359.5" y="-700.5" font-family="Helvetica,sans-Serif" font-size="10.00">z</text>
<text text-anchor="start" x="338.5" y="-685.5" font-family="Helvetica,sans-Serif" font-size="10.00">+</text>
<text text-anchor="start" x="359.5" y="-685.5" font-family="Helvetica,sans-Serif" font-size="10.00">Quaternion()</text>
<text text-anchor="start" x="338.5" y="-670.5" font-family="Helvetica,sans-Serif" font-size="10.00">+</text>
<text text-anchor="start" x="359.5" y="-670.5" font-family="Helvetica,sans-Serif" font-size="10.00">Quaternion()</text>
<text text-anchor="start" x="338.5" y="-655.5" font-family="Helvetica,sans-Serif" font-size="10.00">+</text>
<text text-anchor="start" x="359.5" y="-655.5" font-family="Helvetica,sans-Serif" font-size="10.00">operator&#45;()</text>
<text text-anchor="start" x="338.5" y="-640.5" font-family="Helvetica,sans-Serif" font-size="10.00">+</text>
<text text-anchor="start" x="359.5" y="-640.5" font-family="Helvetica,sans-Serif" font-size="10.00">operator+()</text>
<text text-anchor="start" x="338.5" y="-625.5" font-family="Helvetica,sans-Serif" font-size="10.00">+</text>
<text text-anchor="start" x="359.5" y="-625.5" font-family="Helvetica,sans-Serif" font-size="10.00">operator&#45;()</text>
<text text-anchor="start" x="338.5" y="-610.5" font-family="Helvetica,sans-Serif" font-size="10.00">+</text>
<text text-anchor="start" x="359.5" y="-610.5" font-family="Helvetica,sans-Serif" font-size="10.00">operator*()</text>
<text text-anchor="start" x="338.5" y="-595.5" font-family="Helvetica,sans-Serif" font-size="10.00">+</text>
<text text-anchor="start" x="359.5" y="-595.5" font-family="Helvetica,sans-Serif" font-size="10.00">normalized()</text>
<text text-anchor="start" x="338.5" y="-580.5" font-family="Helvetica,sans-Serif" font-size="10.00">+</text>
<text text-anchor="start" x="359.5" y="-580.5" font-family="Helvetica,sans-Serif" font-size="10.00">dot()</text>
<text text-anchor="start" x="338.5" y="-565.5" font-family="Helvetica,sans-Serif" font-size="10.00">+</text>
<text text-anchor="start" x="359.5" y="-565.5" font-family="Helvetica,sans-Serif" font-size="10.00">operator*()</text>
<text text-anchor="start" x="338.5" y="-550.5" font-family="Helvetica,sans-Serif" font-size="10.00">+</text>
<text text-anchor="start" x="359.5" y="-550.5" font-family="Helvetica,sans-Serif" font-size="10.00">rotateVector()</text>
<text text-anchor="start" x="338.5" y="-535.5" font-family="Helvetica,sans-Serif" font-size="10.00">+</text>
<text text-anchor="start" x="359.5" y="-535.5" font-family="Helvetica,sans-Serif" font-size="10.00">toMatrix()</text>
<text text-anchor="start" x="338.5" y="-520.5" font-family="Helvetica,sans-Serif" font-size="10.00">+</text>
<text text-anchor="start" x="359.5" y="-520.5" font-family="Helvetica,sans-Serif" font-size="10.00">fromAxisAngle()</text>
<text text-anchor="start" x="338.5" y="-505.5" font-family="Helvetica,sans-Serif" font-size="10.00">+</text>
<text text-anchor="start" x="359.5" y="-505.5" font-family="Helvetica,sans-Serif" font-size="10.00">fromMatrix()</text>
<text text-anchor="start" x="338.5" y="-490.5" font-family="Helvetica,sans-Serif" font-size="10.00">+</text>
<text text-anchor="start" x="359.5" y="-490.5" font-family="Helvetica,sans-Serif" font-size="10.00">lookRotation()</text>
<polygon fill="#bfbfbf" stroke="#bfbfbf" points="326.5,-755.5 326.5,-755.5 460.5,-755.5 460.5,-755.5 326.5,-755.5"/>
<polygon fill="#bfbfbf" stroke="#bfbfbf" points="326.5,-695.5 326.5,-695.5 357.5,-695.5 357.5,-695.5 326.5,-695.5"/>
<polygon fill="#bfbfbf" stroke="#bfbfbf" points="357.5,-695.5 357.5,-695.5 460.5,-695.5 460.5,-695.5 357.5,-695.5"/>
<polygon fill="none" stroke="#bfbfbf" points="326.5,-484 326.5,-773 460.5,-773 460.5,-484 326.5,-484"/>
</a>
</g>
</g>
<!-- Node7&#45;&gt;Node5 -->
<g id="edge6_Node000005_Node000007" class="edge">
<title>Node7&#45;&gt;Node5</title>
<g id="a_edge6_Node000005_Node000007"><a xlink:title=" ">
<path fill="none" stroke="#63b8ff" d="M358.6,-483.98C353.82,-464.29 349.16,-445.12 345.09,-428.39"/>
<polygon fill="none" stroke="#63b8ff" points="345.07,-428.33 339.77,-423.44 342.24,-416.67 347.54,-421.55 345.07,-428.33"/>
</a>
</g>
<text text-anchor="middle" x="378.5" y="-452.5" font-family="Helvetica,sans-Serif" font-size="10.00" fill="grey"> +rotation</text>
</g>
<!-- Node8 -->
<g id="Node000008" class="node">
<title>Node8</title>
<g id="a_Node000008"><a xlink:href="structFrameEngine_1_1MeshComponent.html" target="_top" xlink:title=" ">
<polygon fill="white" stroke="transparent" points="605,-411 442,-411 442,-332 605,-332 605,-411"/>
<text text-anchor="start" x="447.5" y="-398.5" font-family="Helvetica,sans-Serif" font-size="10.00">FrameEngine::MeshComponent</text>
<text text-anchor="start" x="459" y="-383.5" font-family="Helvetica,sans-Serif" font-size="10.00">+</text>
<text text-anchor="start" x="484.5" y="-383.5" font-family="Helvetica,sans-Serif" font-size="10.00">wireframe</text>
<text text-anchor="start" x="459" y="-368.5" font-family="Helvetica,sans-Serif" font-size="10.00">+</text>
<text text-anchor="start" x="484.5" y="-368.5" font-family="Helvetica,sans-Serif" font-size="10.00">MeshComponent()</text>
<text text-anchor="start" x="459" y="-353.5" font-family="Helvetica,sans-Serif" font-size="10.00">+</text>
<text text-anchor="start" x="484.5" y="-353.5" font-family="Helvetica,sans-Serif" font-size="10.00">setWireframe()</text>
<text text-anchor="start" x="459" y="-338.5" font-family="Helvetica,sans-Serif" font-size="10.00">+</text>
<text text-anchor="start" x="484.5" y="-338.5" font-family="Helvetica,sans-Serif" font-size="10.00">isWireframe()</text>
<polygon fill="#bfbfbf" stroke="#bfbfbf" points="442.5,-393.5 442.5,-393.5 605.5,-393.5 605.5,-393.5 442.5,-393.5"/>
<polygon fill="#bfbfbf" stroke="#bfbfbf" points="442.5,-378.5 442.5,-378.5 482.5,-378.5 482.5,-378.5 442.5,-378.5"/>
<polygon fill="#bfbfbf" stroke="#bfbfbf" points="482.5,-378.5 482.5,-378.5 605.5,-378.5 605.5,-378.5 482.5,-378.5"/>
<polygon fill="none" stroke="#bfbfbf" points="442,-332 442,-411 605,-411 605,-332 442,-332"/>
</a>
</g>
</g>
<!-- Node8&#45;&gt;Node2 -->
<g id="edge7_Node000002_Node000008" class="edge">
<title>Node8&#45;&gt;Node2</title>
<g id="a_edge7_Node000002_Node000008"><a xlink:title=" ">
<path fill="none" stroke="#63b8ff" d="M500.27,-331.82C490.99,-316.37 480,-298.08 469.38,-280.39"/>
<polygon fill="none" stroke="#63b8ff" points="469.36,-280.36 462.84,-277.28 463.18,-270.07 469.7,-273.16 469.36,-280.36"/>
</a>
</g>
<text text-anchor="middle" x="525" y="-291" font-family="Helvetica,sans-Serif" font-size="10.00" fill="grey"> +meshComponent</text>
</g>
<!-- Node9 -->
<g id="Node000009" class="node">
<title>Node9</title>
<g id="a_Node000009"><a xlink:href="classFrameEngine_1_1Mesh.html" target="_top" xlink:title="The Mesh class encapsulates geometry data and uploads it to the GPU.">
<polygon fill="white" stroke="transparent" points="612,-720.5 479,-720.5 479,-536.5 612,-536.5 612,-720.5"/>
<text text-anchor="start" x="497.5" y="-708.5" font-family="Helvetica,sans-Serif" font-size="10.00">FrameEngine::Mesh</text>
<text text-anchor="start" x="544" y="-693.5" font-family="Helvetica,sans-Serif" font-size="10.00"> </text>
<text text-anchor="start" x="483.5" y="-678.5" font-family="Helvetica,sans-Serif" font-size="10.00">+</text>
<text text-anchor="start" x="496.5" y="-678.5" font-family="Helvetica,sans-Serif" font-size="10.00">Mesh()</text>
<text text-anchor="start" x="483.5" y="-663.5" font-family="Helvetica,sans-Serif" font-size="10.00">+</text>
<text text-anchor="start" x="496.5" y="-663.5" font-family="Helvetica,sans-Serif" font-size="10.00">Mesh()</text>
<text text-anchor="start" x="483.5" y="-648.5" font-family="Helvetica,sans-Serif" font-size="10.00">+</text>
<text text-anchor="start" x="496.5" y="-648.5" font-family="Helvetica,sans-Serif" font-size="10.00">~Mesh()</text>
<text text-anchor="start" x="483.5" y="-633.5" font-family="Helvetica,sans-Serif" font-size="10.00">+</text>
<text text-anchor="start" x="496.5" y="-633.5" font-family="Helvetica,sans-Serif" font-size="10.00">draw()</text>
<text text-anchor="start" x="483.5" y="-618.5" font-family="Helvetica,sans-Serif" font-size="10.00">+</text>
<text text-anchor="start" x="496.5" y="-618.5" font-family="Helvetica,sans-Serif" font-size="10.00">getVertexData()</text>
<text text-anchor="start" x="483.5" y="-603.5" font-family="Helvetica,sans-Serif" font-size="10.00">+</text>
<text text-anchor="start" x="496.5" y="-603.5" font-family="Helvetica,sans-Serif" font-size="10.00">getVAO()</text>
<text text-anchor="start" x="483.5" y="-588.5" font-family="Helvetica,sans-Serif" font-size="10.00">+</text>
<text text-anchor="start" x="496.5" y="-588.5" font-family="Helvetica,sans-Serif" font-size="10.00">getVBO()</text>
<text text-anchor="start" x="483.5" y="-573.5" font-family="Helvetica,sans-Serif" font-size="10.00">+</text>
<text text-anchor="start" x="496.5" y="-573.5" font-family="Helvetica,sans-Serif" font-size="10.00">updateVertexPosition()</text>
<text text-anchor="start" x="483.5" y="-558.5" font-family="Helvetica,sans-Serif" font-size="10.00">+</text>
<text text-anchor="start" x="496.5" y="-558.5" font-family="Helvetica,sans-Serif" font-size="10.00">updateBuffer()</text>
<text text-anchor="start" x="483.5" y="-543.5" font-family="Helvetica,sans-Serif" font-size="10.00">+</text>
<text text-anchor="start" x="496.5" y="-543.5" font-family="Helvetica,sans-Serif" font-size="10.00">loadFromOBJ()</text>
<polygon fill="#666666" stroke="#666666" points="479.5,-703.5 479.5,-703.5 612.5,-703.5 612.5,-703.5 479.5,-703.5"/>
<polygon fill="#666666" stroke="#666666" points="479.5,-688.5 479.5,-688.5 612.5,-688.5 612.5,-688.5 479.5,-688.5"/>
<polygon fill="none" stroke="#666666" points="479,-536.5 479,-720.5 612,-720.5 612,-536.5 479,-536.5"/>
</a>
</g>
</g>
<!-- Node9&#45;&gt;Node8 -->
<g id="edge8_Node000008_Node000009" class="edge">
<title>Node9&#45;&gt;Node8</title>
<g id="a_edge8_Node000008_Node000009"><a xlink:title=" ">
<path fill="none" stroke="#63b8ff" d="M537.62,-536.16C534.34,-498.18 530.66,-455.54 527.88,-423.31"/>
<polygon fill="none" stroke="#63b8ff" points="527.86,-423.01 523.36,-417.38 526.83,-411.06 531.33,-416.69 527.86,-423.01"/>
</a>
</g>
<text text-anchor="middle" x="550" y="-452.5" font-family="Helvetica,sans-Serif" font-size="10.00" fill="grey"> +mesh</text>
</g>
<!-- Node10 -->
<g id="Node000010" class="node">
<title>Node10</title>
<g id="a_Node000010"><a xlink:href="structFrameEngine_1_1MaterialComponent.html" target="_top" xlink:title=" ">
<polygon fill="white" stroke="transparent" points="800,-396 623,-396 623,-347 800,-347 800,-396"/>
<text text-anchor="start" x="628.5" y="-383.5" font-family="Helvetica,sans-Serif" font-size="10.00">FrameEngine::MaterialComponent</text>
<text text-anchor="start" x="710" y="-368.5" font-family="Helvetica,sans-Serif" font-size="10.00"> </text>
<text text-anchor="start" x="640" y="-353.5" font-family="Helvetica,sans-Serif" font-size="10.00">+</text>
<text text-anchor="start" x="665.5" y="-353.5" font-family="Helvetica,sans-Serif" font-size="10.00">MaterialComponent()</text>
<polygon fill="#bfbfbf" stroke="#bfbfbf" points="623.5,-378.5 623.5,-378.5 800.5,-378.5 800.5,-378.5 623.5,-378.5"/>
<polygon fill="#bfbfbf" stroke="#bfbfbf" points="623.5,-363.5 623.5,-363.5 800.5,-363.5 800.5,-363.5 623.5,-363.5"/>
<polygon fill="none" stroke="#bfbfbf" points="623,-347 623,-396 800,-396 800,-347 623,-347"/>
</a>
</g>
</g>
<!-- Node10&#45;&gt;Node2 -->
<g id="edge9_Node000002_Node000010" class="edge">
<title>Node10&#45;&gt;Node2</title>
<g id="a_edge9_Node000002_Node000010"><a xlink:title=" ">
<path fill="none" stroke="#63b8ff" d="M674.35,-346.91C647.44,-330.05 610.05,-307.06 576.5,-288 549.63,-272.73 519.57,-256.7 493.45,-243.1"/>
<polygon fill="none" stroke="#63b8ff" points="493.17,-242.95 486,-243.74 482.52,-237.43 489.69,-236.64 493.17,-242.95"/>
</a>
</g>
<text text-anchor="middle" x="649" y="-291" font-family="Helvetica,sans-Serif" font-size="10.00" fill="grey"> +materialComponent</text>
</g>
<!-- Node11 -->
<g id="Node000011" class="node">
<title>Node11</title>
<g id="a_Node000011"><a xlink:href="classFrameEngine_1_1Material.html" target="_top" xlink:title=" ">
<polygon fill="white" stroke="transparent" points="772,-675.5 651,-675.5 651,-581.5 772,-581.5 772,-675.5"/>
<text text-anchor="start" x="656.5" y="-663.5" font-family="Helvetica,sans-Serif" font-size="10.00">FrameEngine::Material</text>
<text text-anchor="start" x="710" y="-648.5" font-family="Helvetica,sans-Serif" font-size="10.00"> </text>
<text text-anchor="start" x="660.5" y="-633.5" font-family="Helvetica,sans-Serif" font-size="10.00">+</text>
<text text-anchor="start" x="678.5" y="-633.5" font-family="Helvetica,sans-Serif" font-size="10.00">Material()</text>
<text text-anchor="start" x="660.5" y="-618.5" font-family="Helvetica,sans-Serif" font-size="10.00">+</text>
<text text-anchor="start" x="678.5" y="-618.5" font-family="Helvetica,sans-Serif" font-size="10.00">~Material()</text>
<text text-anchor="start" x="660.5" y="-603.5" font-family="Helvetica,sans-Serif" font-size="10.00">+</text>
<text text-anchor="start" x="678.5" y="-603.5" font-family="Helvetica,sans-Serif" font-size="10.00">getShader()</text>
<text text-anchor="start" x="660.5" y="-588.5" font-family="Helvetica,sans-Serif" font-size="10.00">+</text>
<text text-anchor="start" x="678.5" y="-588.5" font-family="Helvetica,sans-Serif" font-size="10.00">applyUniforms()</text>
<polygon fill="#bfbfbf" stroke="#bfbfbf" points="651.5,-658.5 651.5,-658.5 772.5,-658.5 772.5,-658.5 651.5,-658.5"/>
<polygon fill="#bfbfbf" stroke="#bfbfbf" points="651.5,-643.5 651.5,-643.5 772.5,-643.5 772.5,-643.5 651.5,-643.5"/>
<polygon fill="none" stroke="#bfbfbf" points="651,-581.5 651,-675.5 772,-675.5 772,-581.5 651,-581.5"/>
</a>
</g>
</g>
<!-- Node11&#45;&gt;Node10 -->
<g id="edge10_Node000010_Node000011" class="edge">
<title>Node11&#45;&gt;Node10</title>
<g id="a_edge10_Node000010_Node000011"><a xlink:title=" ">
<path fill="none" stroke="#63b8ff" d="M711.5,-581.32C711.5,-531.58 711.5,-453.48 711.5,-408.22"/>
<polygon fill="none" stroke="#63b8ff" points="711.5,-408.11 707.5,-402.11 711.5,-396.11 715.5,-402.11 711.5,-408.11"/>
</a>
</g>
<text text-anchor="middle" x="738" y="-452.5" font-family="Helvetica,sans-Serif" font-size="10.00" fill="grey"> +material</text>
</g>
<!-- Node12 -->
<g id="Node000012" class="node">
<title>Node12</title>
<g id="a_Node000012"><a xlink:href="classFrameEngine_1_1Shader.html" target="_top" xlink:title=" ">
<polygon fill="white" stroke="transparent" points="768.5,-1004 654.5,-1004 654.5,-820 768.5,-820 768.5,-1004"/>
<text text-anchor="start" x="659.5" y="-992" font-family="Helvetica,sans-Serif" font-size="10.00">FrameEngine::Shader</text>
<text text-anchor="start" x="709.5" y="-977" font-family="Helvetica,sans-Serif" font-size="10.00"> </text>
<text text-anchor="start" x="659.5" y="-962" font-family="Helvetica,sans-Serif" font-size="10.00">+</text>
<text text-anchor="start" x="673.5" y="-962" font-family="Helvetica,sans-Serif" font-size="10.00">Shader()</text>
<text text-anchor="start" x="659.5" y="-947" font-family="Helvetica,sans-Serif" font-size="10.00">+</text>
<text text-anchor="start" x="673.5" y="-947" font-family="Helvetica,sans-Serif" font-size="10.00">Shader()</text>
<text text-anchor="start" x="659.5" y="-932" font-family="Helvetica,sans-Serif" font-size="10.00">+</text>
<text text-anchor="start" x="673.5" y="-932" font-family="Helvetica,sans-Serif" font-size="10.00">~Shader()</text>
<text text-anchor="start" x="659.5" y="-917" font-family="Helvetica,sans-Serif" font-size="10.00">+</text>
<text text-anchor="start" x="673.5" y="-917" font-family="Helvetica,sans-Serif" font-size="10.00">bind()</text>
<text text-anchor="start" x="659.5" y="-902" font-family="Helvetica,sans-Serif" font-size="10.00">+</text>
<text text-anchor="start" x="673.5" y="-902" font-family="Helvetica,sans-Serif" font-size="10.00">unbind()</text>
<text text-anchor="start" x="659.5" y="-887" font-family="Helvetica,sans-Serif" font-size="10.00">+</text>
<text text-anchor="start" x="673.5" y="-887" font-family="Helvetica,sans-Serif" font-size="10.00">setUniformInt()</text>
<text text-anchor="start" x="659.5" y="-872" font-family="Helvetica,sans-Serif" font-size="10.00">+</text>
<text text-anchor="start" x="673.5" y="-872" font-family="Helvetica,sans-Serif" font-size="10.00">setUniformFloat()</text>
<text text-anchor="start" x="659.5" y="-857" font-family="Helvetica,sans-Serif" font-size="10.00">+</text>
<text text-anchor="start" x="673.5" y="-857" font-family="Helvetica,sans-Serif" font-size="10.00">setUniformVec3()</text>
<text text-anchor="start" x="659.5" y="-842" font-family="Helvetica,sans-Serif" font-size="10.00">+</text>
<text text-anchor="start" x="673.5" y="-842" font-family="Helvetica,sans-Serif" font-size="10.00">setUniformMat4()</text>
<text text-anchor="start" x="659.5" y="-827" font-family="Helvetica,sans-Serif" font-size="10.00">+</text>
<text text-anchor="start" x="673.5" y="-827" font-family="Helvetica,sans-Serif" font-size="10.00">getProgramID()</text>
<polygon fill="#bfbfbf" stroke="#bfbfbf" points="654.5,-987 654.5,-987 768.5,-987 768.5,-987 654.5,-987"/>
<polygon fill="#bfbfbf" stroke="#bfbfbf" points="654.5,-972 654.5,-972 768.5,-972 768.5,-972 654.5,-972"/>
<polygon fill="none" stroke="#bfbfbf" points="654.5,-820 654.5,-1004 768.5,-1004 768.5,-820 654.5,-820"/>
</a>
</g>
</g>
<!-- Node12&#45;&gt;Node11 -->
<g id="edge11_Node000011_Node000012" class="edge">
<title>Node12&#45;&gt;Node11</title>
<g id="a_edge11_Node000011_Node000012"><a xlink:title=" ">
<path fill="none" stroke="#63b8ff" d="M711.5,-819.99C711.5,-776.7 711.5,-726.2 711.5,-688.07"/>
<polygon fill="none" stroke="#63b8ff" points="711.5,-687.65 707.5,-681.65 711.5,-675.65 715.5,-681.65 711.5,-687.65"/>
</a>
</g>
<text text-anchor="middle" x="734" y="-794" font-family="Helvetica,sans-Serif" font-size="10.00" fill="grey"> #shader</text>
</g>
</g>
</svg>
