<?xml version="1.0" encoding="UTF-8" standalone="no"?>
<!DOCTYPE svg PUBLIC "-//W3C//DTD SVG 1.1//EN"
 "http://www.w3.org/Graphics/SVG/1.1/DTD/svg11.dtd">
<!-- Generated by graphviz version 12.2.1 (0)
 -->
<!-- Title: Window Pages: 1 -->
<svg width="157pt" height="180pt"
 viewBox="0.00 0.00 156.50 179.50" xmlns="http://www.w3.org/2000/svg" xmlns:xlink="http://www.w3.org/1999/xlink">
<g id="graph0" class="graph" transform="scale(1 1) rotate(0) translate(4 175.5)">
<title>Window</title>
<!-- Node1 -->
<g id="Node000001" class="node">
<title>Node1</title>
<g id="a_Node000001"><a xlink:title=" ">
<polygon fill="#999999" stroke="none" points="148.5,-171.5 0,-171.5 0,0 148.5,0 148.5,-171.5"/>
<text text-anchor="start" x="54.75" y="-158" font-family="Helvetica,sans-Serif" font-size="10.00">Window</text>
<text text-anchor="start" x="71.25" y="-141.25" font-family="Helvetica,sans-Serif" font-size="10.00"> </text>
<text text-anchor="start" x="4" y="-124.5" font-family="Helvetica,sans-Serif" font-size="10.00">+</text>
<text text-anchor="start" x="16.25" y="-124.5" font-family="Helvetica,sans-Serif" font-size="10.00">Window()</text>
<text text-anchor="start" x="4" y="-107.75" font-family="Helvetica,sans-Serif" font-size="10.00">+</text>
<text text-anchor="start" x="16.25" y="-107.75" font-family="Helvetica,sans-Serif" font-size="10.00">~Window()</text>
<text text-anchor="start" x="4" y="-91" font-family="Helvetica,sans-Serif" font-size="10.00">+</text>
<text text-anchor="start" x="16.25" y="-91" font-family="Helvetica,sans-Serif" font-size="10.00">isOpen()</text>
<text text-anchor="start" x="4" y="-74.25" font-family="Helvetica,sans-Serif" font-size="10.00">+</text>
<text text-anchor="start" x="16.25" y="-74.25" font-family="Helvetica,sans-Serif" font-size="10.00">pollEvents()</text>
<text text-anchor="start" x="4" y="-57.5" font-family="Helvetica,sans-Serif" font-size="10.00">+</text>
<text text-anchor="start" x="16.25" y="-57.5" font-family="Helvetica,sans-Serif" font-size="10.00">swapBuffers()</text>
<text text-anchor="start" x="4" y="-40.75" font-family="Helvetica,sans-Serif" font-size="10.00">+</text>
<text text-anchor="start" x="16.25" y="-40.75" font-family="Helvetica,sans-Serif" font-size="10.00">getWidth()</text>
<text text-anchor="start" x="4" y="-24" font-family="Helvetica,sans-Serif" font-size="10.00">+</text>
<text text-anchor="start" x="16.25" y="-24" font-family="Helvetica,sans-Serif" font-size="10.00">getHeight()</text>
<text text-anchor="start" x="4" y="-7.25" font-family="Helvetica,sans-Serif" font-size="10.00">+</text>
<text text-anchor="start" x="16.25" y="-7.25" font-family="Helvetica,sans-Serif" font-size="10.00">framebufferSizeCallback()</text>
<polygon fill="#666666" stroke="#666666" points="0,-152.75 0,-152.75 148.5,-152.75 148.5,-152.75 0,-152.75"/>
<polygon fill="#666666" stroke="#666666" points="0,-136 0,-136 148.5,-136 148.5,-136 0,-136"/>
<polygon fill="none" stroke="#666666" points="0,0 0,-171.5 148.5,-171.5 148.5,0 0,0"/>
</a>
</g>
</g>
</g>
</svg>
