<?xml version="1.0" encoding="UTF-8" standalone="no"?>
<!DOCTYPE svg PUBLIC "-//W3C//DTD SVG 1.1//EN"
 "http://www.w3.org/Graphics/SVG/1.1/DTD/svg11.dtd">
<!-- Generated by graphviz version 2.43.0 (0)
 -->
<!-- Title: Camera Pages: 1 -->
<svg width="405pt" height="841pt"
 viewBox="0.00 0.00 405.00 841.00" xmlns="http://www.w3.org/2000/svg" xmlns:xlink="http://www.w3.org/1999/xlink">
<g id="graph0" class="graph" transform="scale(1 1) rotate(0) translate(4 837)">
<title>Camera</title>
<!-- Node1 -->
<g id="Node000001" class="node">
<title>Node1</title>
<g id="a_Node000001"><a xlink:title="A camera.">
<polygon fill="#999999" stroke="transparent" points="223,-124 98,-124 98,0 223,0 223,-124"/>
<text text-anchor="start" x="141.5" y="-112" font-family="Helvetica,sans-Serif" font-size="10.00">Camera</text>
<text text-anchor="start" x="159" y="-97" font-family="Helvetica,sans-Serif" font-size="10.00"> </text>
<text text-anchor="start" x="102.5" y="-82" font-family="Helvetica,sans-Serif" font-size="10.00">+</text>
<text text-anchor="start" x="115.5" y="-82" font-family="Helvetica,sans-Serif" font-size="10.00">Camera()</text>
<text text-anchor="start" x="102.5" y="-67" font-family="Helvetica,sans-Serif" font-size="10.00">+</text>
<text text-anchor="start" x="115.5" y="-67" font-family="Helvetica,sans-Serif" font-size="10.00">getViewMatrix()</text>
<text text-anchor="start" x="102.5" y="-52" font-family="Helvetica,sans-Serif" font-size="10.00">+</text>
<text text-anchor="start" x="115.5" y="-52" font-family="Helvetica,sans-Serif" font-size="10.00">updateViewMatrix()</text>
<text text-anchor="start" x="102.5" y="-37" font-family="Helvetica,sans-Serif" font-size="10.00">+</text>
<text text-anchor="start" x="115.5" y="-37" font-family="Helvetica,sans-Serif" font-size="10.00">getProjectionMatrix()</text>
<text text-anchor="start" x="102.5" y="-22" font-family="Helvetica,sans-Serif" font-size="10.00">+</text>
<text text-anchor="start" x="115.5" y="-22" font-family="Helvetica,sans-Serif" font-size="10.00">setProjection()</text>
<text text-anchor="start" x="102.5" y="-7" font-family="Helvetica,sans-Serif" font-size="10.00">+</text>
<text text-anchor="start" x="115.5" y="-7" font-family="Helvetica,sans-Serif" font-size="10.00">getFrontVector()</text>
<polygon fill="#666666" stroke="#666666" points="98.5,-107 98.5,-107 223.5,-107 223.5,-107 98.5,-107"/>
<polygon fill="#666666" stroke="#666666" points="98.5,-92 98.5,-92 223.5,-92 223.5,-92 98.5,-92"/>
<polygon fill="none" stroke="#666666" points="98,0 98,-124 223,-124 223,0 98,0"/>
</a>
</g>
</g>
<!-- Node2 -->
<g id="Node000002" class="node">
<title>Node2</title>
<g id="a_Node000002"><a xlink:href="classObject.html" target="_top" xlink:title="A high&#45;level ECS entity wrapper with default components.">
<polygon fill="white" stroke="transparent" points="208.5,-330 112.5,-330 112.5,-161 208.5,-161 208.5,-330"/>
<text text-anchor="start" x="144.5" y="-317.5" font-family="Helvetica,sans-Serif" font-size="10.00">Object</text>
<text text-anchor="start" x="158.5" y="-302.5" font-family="Helvetica,sans-Serif" font-size="10.00"> </text>
<text text-anchor="start" x="116.5" y="-287.5" font-family="Helvetica,sans-Serif" font-size="10.00">+</text>
<text text-anchor="start" x="129.5" y="-287.5" font-family="Helvetica,sans-Serif" font-size="10.00">Object()</text>
<text text-anchor="start" x="116.5" y="-272.5" font-family="Helvetica,sans-Serif" font-size="10.00">+</text>
<text text-anchor="start" x="129.5" y="-272.5" font-family="Helvetica,sans-Serif" font-size="10.00">rotate()</text>
<text text-anchor="start" x="116.5" y="-257.5" font-family="Helvetica,sans-Serif" font-size="10.00">+</text>
<text text-anchor="start" x="129.5" y="-257.5" font-family="Helvetica,sans-Serif" font-size="10.00">move()</text>
<text text-anchor="start" x="116.5" y="-242.5" font-family="Helvetica,sans-Serif" font-size="10.00">+</text>
<text text-anchor="start" x="129.5" y="-242.5" font-family="Helvetica,sans-Serif" font-size="10.00">render()</text>
<text text-anchor="start" x="116.5" y="-227.5" font-family="Helvetica,sans-Serif" font-size="10.00">+</text>
<text text-anchor="start" x="129.5" y="-227.5" font-family="Helvetica,sans-Serif" font-size="10.00">getColor()</text>
<text text-anchor="start" x="116.5" y="-212.5" font-family="Helvetica,sans-Serif" font-size="10.00">+</text>
<text text-anchor="start" x="129.5" y="-212.5" font-family="Helvetica,sans-Serif" font-size="10.00">setColor()</text>
<text text-anchor="start" x="116.5" y="-197.5" font-family="Helvetica,sans-Serif" font-size="10.00">+</text>
<text text-anchor="start" x="129.5" y="-197.5" font-family="Helvetica,sans-Serif" font-size="10.00">lookAt()</text>
<text text-anchor="start" x="116.5" y="-182.5" font-family="Helvetica,sans-Serif" font-size="10.00">+</text>
<text text-anchor="start" x="129.5" y="-182.5" font-family="Helvetica,sans-Serif" font-size="10.00">setWireframe()</text>
<text text-anchor="start" x="116.5" y="-167.5" font-family="Helvetica,sans-Serif" font-size="10.00">+</text>
<text text-anchor="start" x="129.5" y="-167.5" font-family="Helvetica,sans-Serif" font-size="10.00">isWireframe()</text>
<polygon fill="#666666" stroke="#666666" points="112.5,-312.5 112.5,-312.5 208.5,-312.5 208.5,-312.5 112.5,-312.5"/>
<polygon fill="#666666" stroke="#666666" points="112.5,-297.5 112.5,-297.5 208.5,-297.5 208.5,-297.5 112.5,-297.5"/>
<polygon fill="none" stroke="#666666" points="112.5,-161 112.5,-330 208.5,-330 208.5,-161 112.5,-161"/>
</a>
</g>
</g>
<!-- Node2&#45;&gt;Node1 -->
<g id="edge1_Node000001_Node000002" class="edge">
<title>Node2&#45;&gt;Node1</title>
<g id="a_edge1_Node000001_Node000002"><a xlink:title=" ">
<path fill="none" stroke="#63b8ff" d="M160.5,-150.75C160.5,-141.74 160.5,-132.77 160.5,-124.19"/>
<polygon fill="none" stroke="#63b8ff" points="157,-150.92 160.5,-160.92 164,-150.92 157,-150.92"/>
</a>
</g>
</g>
<!-- Node3 -->
<g id="Node000003" class="node">
<title>Node3</title>
<g id="a_Node000003"><a xlink:href="classEntity.html" target="_top" xlink:title="A high&#45;level ECS entity wrapper.">
<polygon fill="white" stroke="transparent" points="150,-486 23,-486 23,-377 150,-377 150,-486"/>
<text text-anchor="start" x="72.5" y="-473.5" font-family="Helvetica,sans-Serif" font-size="10.00">Entity</text>
<text text-anchor="start" x="27.5" y="-458.5" font-family="Helvetica,sans-Serif" font-size="10.00">#</text>
<text text-anchor="start" x="40.5" y="-458.5" font-family="Helvetica,sans-Serif" font-size="10.00">id_</text>
<text text-anchor="start" x="27.5" y="-443.5" font-family="Helvetica,sans-Serif" font-size="10.00">+</text>
<text text-anchor="start" x="40.5" y="-443.5" font-family="Helvetica,sans-Serif" font-size="10.00">Entity()</text>
<text text-anchor="start" x="27.5" y="-428.5" font-family="Helvetica,sans-Serif" font-size="10.00">+</text>
<text text-anchor="start" x="40.5" y="-428.5" font-family="Helvetica,sans-Serif" font-size="10.00">add_component()</text>
<text text-anchor="start" x="27.5" y="-413.5" font-family="Helvetica,sans-Serif" font-size="10.00">+</text>
<text text-anchor="start" x="40.5" y="-413.5" font-family="Helvetica,sans-Serif" font-size="10.00">remove_component()</text>
<text text-anchor="start" x="27.5" y="-398.5" font-family="Helvetica,sans-Serif" font-size="10.00">+</text>
<text text-anchor="start" x="40.5" y="-398.5" font-family="Helvetica,sans-Serif" font-size="10.00">get_component()</text>
<text text-anchor="start" x="27.5" y="-383.5" font-family="Helvetica,sans-Serif" font-size="10.00">+</text>
<text text-anchor="start" x="40.5" y="-383.5" font-family="Helvetica,sans-Serif" font-size="10.00">id()</text>
<polygon fill="#666666" stroke="#666666" points="23.5,-468.5 23.5,-468.5 150.5,-468.5 150.5,-468.5 23.5,-468.5"/>
<polygon fill="#666666" stroke="#666666" points="23.5,-453.5 23.5,-453.5 38.5,-453.5 38.5,-453.5 23.5,-453.5"/>
<polygon fill="#666666" stroke="#666666" points="38.5,-453.5 38.5,-453.5 150.5,-453.5 150.5,-453.5 38.5,-453.5"/>
<polygon fill="none" stroke="#666666" points="23,-377 23,-486 150,-486 150,-377 23,-377"/>
</a>
</g>
</g>
<!-- Node3&#45;&gt;Node2 -->
<g id="edge2_Node000002_Node000003" class="edge">
<title>Node3&#45;&gt;Node2</title>
<g id="a_edge2_Node000002_Node000003"><a xlink:title=" ">
<path fill="none" stroke="#63b8ff" d="M111.91,-367.33C116.73,-355.32 121.86,-342.59 126.89,-330.06"/>
<polygon fill="none" stroke="#63b8ff" points="108.59,-366.2 108.1,-376.78 115.08,-368.81 108.59,-366.2"/>
</a>
</g>
</g>
<!-- Node4 -->
<g id="Node000004" class="node">
<title>Node4</title>
<g id="a_Node000004"><a xlink:href="classRegistry.html" target="_top" xlink:title="Manages all ECS entities and components.">
<polygon fill="white" stroke="transparent" points="173,-780.5 0,-780.5 0,-596.5 173,-596.5 173,-780.5"/>
<text text-anchor="start" x="66.5" y="-768.5" font-family="Helvetica,sans-Serif" font-size="10.00">Registry</text>
<text text-anchor="start" x="85" y="-753.5" font-family="Helvetica,sans-Serif" font-size="10.00"> </text>
<text text-anchor="start" x="4.5" y="-738.5" font-family="Helvetica,sans-Serif" font-size="10.00">+</text>
<text text-anchor="start" x="17.5" y="-738.5" font-family="Helvetica,sans-Serif" font-size="10.00">Registry()</text>
<text text-anchor="start" x="4.5" y="-723.5" font-family="Helvetica,sans-Serif" font-size="10.00">+</text>
<text text-anchor="start" x="17.5" y="-723.5" font-family="Helvetica,sans-Serif" font-size="10.00">operator=()</text>
<text text-anchor="start" x="4.5" y="-708.5" font-family="Helvetica,sans-Serif" font-size="10.00">+</text>
<text text-anchor="start" x="17.5" y="-708.5" font-family="Helvetica,sans-Serif" font-size="10.00">Registry()</text>
<text text-anchor="start" x="4.5" y="-693.5" font-family="Helvetica,sans-Serif" font-size="10.00">+</text>
<text text-anchor="start" x="17.5" y="-693.5" font-family="Helvetica,sans-Serif" font-size="10.00">create_entity()</text>
<text text-anchor="start" x="4.5" y="-678.5" font-family="Helvetica,sans-Serif" font-size="10.00">+</text>
<text text-anchor="start" x="17.5" y="-678.5" font-family="Helvetica,sans-Serif" font-size="10.00">destroy_entity()</text>
<text text-anchor="start" x="4.5" y="-663.5" font-family="Helvetica,sans-Serif" font-size="10.00">+</text>
<text text-anchor="start" x="17.5" y="-663.5" font-family="Helvetica,sans-Serif" font-size="10.00">add_component()</text>
<text text-anchor="start" x="4.5" y="-648.5" font-family="Helvetica,sans-Serif" font-size="10.00">+</text>
<text text-anchor="start" x="17.5" y="-648.5" font-family="Helvetica,sans-Serif" font-size="10.00">has_component()</text>
<text text-anchor="start" x="4.5" y="-633.5" font-family="Helvetica,sans-Serif" font-size="10.00">+</text>
<text text-anchor="start" x="17.5" y="-633.5" font-family="Helvetica,sans-Serif" font-size="10.00">get_component()</text>
<text text-anchor="start" x="4.5" y="-618.5" font-family="Helvetica,sans-Serif" font-size="10.00">+</text>
<text text-anchor="start" x="17.5" y="-618.5" font-family="Helvetica,sans-Serif" font-size="10.00">remove_component()</text>
<text text-anchor="start" x="4.5" y="-603.5" font-family="Helvetica,sans-Serif" font-size="10.00">+</text>
<text text-anchor="start" x="17.5" y="-603.5" font-family="Helvetica,sans-Serif" font-size="10.00">get_entities_with_component()</text>
<polygon fill="#666666" stroke="#666666" points="0.5,-763.5 0.5,-763.5 173.5,-763.5 173.5,-763.5 0.5,-763.5"/>
<polygon fill="#666666" stroke="#666666" points="0.5,-748.5 0.5,-748.5 173.5,-748.5 173.5,-748.5 0.5,-748.5"/>
<polygon fill="none" stroke="#666666" points="0,-596.5 0,-780.5 173,-780.5 173,-596.5 0,-596.5"/>
</a>
</g>
</g>
<!-- Node4&#45;&gt;Node3 -->
<g id="edge3_Node000003_Node000004" class="edge">
<title>Node4&#45;&gt;Node3</title>
<g id="a_edge3_Node000003_Node000004"><a xlink:title=" ">
<path fill="none" stroke="#63b8ff" d="M86.5,-596.16C86.5,-563.9 86.5,-528.27 86.5,-498.51"/>
<polygon fill="none" stroke="#63b8ff" points="86.5,-498.15 82.5,-492.15 86.5,-486.15 90.5,-492.15 86.5,-498.15"/>
</a>
</g>
<text text-anchor="middle" x="114" y="-512.5" font-family="Helvetica,sans-Serif" font-size="10.00" fill="grey"> #registry_</text>
</g>
<!-- Node5 -->
<g id="Node000005" class="node">
<title>Node5</title>
<g id="a_Node000005"><a xlink:href="structTransformComponent.html" target="_top" xlink:title="Represents the transformation properties of an entity.">
<polygon fill="white" stroke="transparent" points="302.5,-476.5 168.5,-476.5 168.5,-386.5 302.5,-386.5 302.5,-476.5"/>
<text text-anchor="start" x="182.5" y="-464.5" font-family="Helvetica,sans-Serif" font-size="10.00">TransformComponent</text>
<text text-anchor="start" x="233.5" y="-449.5" font-family="Helvetica,sans-Serif" font-size="10.00"> </text>
<text text-anchor="start" x="172.5" y="-434.5" font-family="Helvetica,sans-Serif" font-size="10.00">+</text>
<text text-anchor="start" x="185.5" y="-434.5" font-family="Helvetica,sans-Serif" font-size="10.00">TransformComponent()</text>
<text text-anchor="start" x="172.5" y="-419.5" font-family="Helvetica,sans-Serif" font-size="10.00">+</text>
<text text-anchor="start" x="185.5" y="-419.5" font-family="Helvetica,sans-Serif" font-size="10.00">TransformComponent()</text>
<text text-anchor="start" x="172.5" y="-404.5" font-family="Helvetica,sans-Serif" font-size="10.00">+</text>
<text text-anchor="start" x="185.5" y="-404.5" font-family="Helvetica,sans-Serif" font-size="10.00">get_transformation</text>
<text text-anchor="start" x="185.5" y="-393.5" font-family="Helvetica,sans-Serif" font-size="10.00">_matrix()</text>
<polygon fill="#666666" stroke="#666666" points="168.5,-459.5 168.5,-459.5 302.5,-459.5 302.5,-459.5 168.5,-459.5"/>
<polygon fill="#666666" stroke="#666666" points="168.5,-444.5 168.5,-444.5 302.5,-444.5 302.5,-444.5 168.5,-444.5"/>
<polygon fill="none" stroke="#666666" points="168.5,-386.5 168.5,-476.5 302.5,-476.5 302.5,-386.5 168.5,-386.5"/>
</a>
</g>
</g>
<!-- Node5&#45;&gt;Node2 -->
<g id="edge4_Node000002_Node000005" class="edge">
<title>Node5&#45;&gt;Node2</title>
<g id="a_edge4_Node000002_Node000005"><a xlink:title=" ">
<path fill="none" stroke="#63b8ff" d="M217.54,-386.43C211.99,-372.82 205.66,-357.28 199.27,-341.62"/>
<polygon fill="none" stroke="#63b8ff" points="199.15,-341.33 193.19,-337.28 194.62,-330.22 200.59,-334.27 199.15,-341.33"/>
</a>
</g>
<text text-anchor="middle" x="235.5" y="-351" font-family="Helvetica,sans-Serif" font-size="10.00" fill="grey"> +transform</text>
</g>
<!-- Node6 -->
<g id="Node000006" class="node">
<title>Node6</title>
<g id="a_Node000006"><a xlink:href="classVector3.html" target="_top" xlink:title=" ">
<polygon fill="white" stroke="transparent" points="278,-818 191,-818 191,-559 278,-559 278,-818"/>
<text text-anchor="start" x="216.5" y="-805.5" font-family="Helvetica,sans-Serif" font-size="10.00">Vector3</text>
<text text-anchor="start" x="195.5" y="-790.5" font-family="Helvetica,sans-Serif" font-size="10.00">+</text>
<text text-anchor="start" x="208.5" y="-790.5" font-family="Helvetica,sans-Serif" font-size="10.00">x</text>
<text text-anchor="start" x="195.5" y="-775.5" font-family="Helvetica,sans-Serif" font-size="10.00">+</text>
<text text-anchor="start" x="208.5" y="-775.5" font-family="Helvetica,sans-Serif" font-size="10.00">y</text>
<text text-anchor="start" x="195.5" y="-760.5" font-family="Helvetica,sans-Serif" font-size="10.00">+</text>
<text text-anchor="start" x="208.5" y="-760.5" font-family="Helvetica,sans-Serif" font-size="10.00">z</text>
<text text-anchor="start" x="195.5" y="-745.5" font-family="Helvetica,sans-Serif" font-size="10.00">+</text>
<text text-anchor="start" x="208.5" y="-745.5" font-family="Helvetica,sans-Serif" font-size="10.00">Vector3()</text>
<text text-anchor="start" x="195.5" y="-730.5" font-family="Helvetica,sans-Serif" font-size="10.00">+</text>
<text text-anchor="start" x="208.5" y="-730.5" font-family="Helvetica,sans-Serif" font-size="10.00">operator+()</text>
<text text-anchor="start" x="195.5" y="-715.5" font-family="Helvetica,sans-Serif" font-size="10.00">+</text>
<text text-anchor="start" x="208.5" y="-715.5" font-family="Helvetica,sans-Serif" font-size="10.00">operator&#45;()</text>
<text text-anchor="start" x="195.5" y="-700.5" font-family="Helvetica,sans-Serif" font-size="10.00">+</text>
<text text-anchor="start" x="208.5" y="-700.5" font-family="Helvetica,sans-Serif" font-size="10.00">operator*()</text>
<text text-anchor="start" x="195.5" y="-685.5" font-family="Helvetica,sans-Serif" font-size="10.00">+</text>
<text text-anchor="start" x="208.5" y="-685.5" font-family="Helvetica,sans-Serif" font-size="10.00">operator*=()</text>
<text text-anchor="start" x="195.5" y="-670.5" font-family="Helvetica,sans-Serif" font-size="10.00">+</text>
<text text-anchor="start" x="208.5" y="-670.5" font-family="Helvetica,sans-Serif" font-size="10.00">operator/()</text>
<text text-anchor="start" x="195.5" y="-655.5" font-family="Helvetica,sans-Serif" font-size="10.00">+</text>
<text text-anchor="start" x="208.5" y="-655.5" font-family="Helvetica,sans-Serif" font-size="10.00">operator==()</text>
<text text-anchor="start" x="195.5" y="-640.5" font-family="Helvetica,sans-Serif" font-size="10.00">+</text>
<text text-anchor="start" x="208.5" y="-640.5" font-family="Helvetica,sans-Serif" font-size="10.00">operator+=()</text>
<text text-anchor="start" x="195.5" y="-625.5" font-family="Helvetica,sans-Serif" font-size="10.00">+</text>
<text text-anchor="start" x="208.5" y="-625.5" font-family="Helvetica,sans-Serif" font-size="10.00">magnitude()</text>
<text text-anchor="start" x="195.5" y="-610.5" font-family="Helvetica,sans-Serif" font-size="10.00">+</text>
<text text-anchor="start" x="208.5" y="-610.5" font-family="Helvetica,sans-Serif" font-size="10.00">normalized()</text>
<text text-anchor="start" x="195.5" y="-595.5" font-family="Helvetica,sans-Serif" font-size="10.00">+</text>
<text text-anchor="start" x="208.5" y="-595.5" font-family="Helvetica,sans-Serif" font-size="10.00">dot()</text>
<text text-anchor="start" x="195.5" y="-580.5" font-family="Helvetica,sans-Serif" font-size="10.00">+</text>
<text text-anchor="start" x="208.5" y="-580.5" font-family="Helvetica,sans-Serif" font-size="10.00">cross()</text>
<text text-anchor="start" x="195.5" y="-565.5" font-family="Helvetica,sans-Serif" font-size="10.00">+</text>
<text text-anchor="start" x="208.5" y="-565.5" font-family="Helvetica,sans-Serif" font-size="10.00">toString()</text>
<polygon fill="#bfbfbf" stroke="#bfbfbf" points="191.5,-800.5 191.5,-800.5 278.5,-800.5 278.5,-800.5 191.5,-800.5"/>
<polygon fill="#bfbfbf" stroke="#bfbfbf" points="191.5,-755.5 191.5,-755.5 206.5,-755.5 206.5,-755.5 191.5,-755.5"/>
<polygon fill="#bfbfbf" stroke="#bfbfbf" points="206.5,-755.5 206.5,-755.5 278.5,-755.5 278.5,-755.5 206.5,-755.5"/>
<polygon fill="none" stroke="#bfbfbf" points="191,-559 191,-818 278,-818 278,-559 191,-559"/>
</a>
</g>
</g>
<!-- Node6&#45;&gt;Node5 -->
<g id="edge5_Node000005_Node000006" class="edge">
<title>Node6&#45;&gt;Node5</title>
<g id="a_edge5_Node000005_Node000006"><a xlink:title=" ">
<path fill="none" stroke="#63b8ff" d="M235,-558.88C235.1,-534.27 235.2,-509.71 235.28,-488.87"/>
<polygon fill="none" stroke="#63b8ff" points="235.28,-488.74 231.3,-482.73 235.33,-476.74 239.3,-482.76 235.28,-488.74"/>
</a>
</g>
<text text-anchor="middle" x="261" y="-518" font-family="Helvetica,sans-Serif" font-size="10.00" fill="grey"> +position</text>
<text text-anchor="middle" x="261" y="-507" font-family="Helvetica,sans-Serif" font-size="10.00" fill="grey">+scale</text>
</g>
<!-- Node7 -->
<g id="Node000007" class="node">
<title>Node7</title>
<g id="a_Node000007"><a xlink:href="structQuaternion.html" target="_top" xlink:title=" ">
<polygon fill="white" stroke="transparent" points="397,-833 296,-833 296,-544 397,-544 397,-833"/>
<text text-anchor="start" x="319.5" y="-820.5" font-family="Helvetica,sans-Serif" font-size="10.00">Quaternion</text>
<text text-anchor="start" x="300.5" y="-805.5" font-family="Helvetica,sans-Serif" font-size="10.00">+</text>
<text text-anchor="start" x="313.5" y="-805.5" font-family="Helvetica,sans-Serif" font-size="10.00">w</text>
<text text-anchor="start" x="300.5" y="-790.5" font-family="Helvetica,sans-Serif" font-size="10.00">+</text>
<text text-anchor="start" x="313.5" y="-790.5" font-family="Helvetica,sans-Serif" font-size="10.00">x</text>
<text text-anchor="start" x="300.5" y="-775.5" font-family="Helvetica,sans-Serif" font-size="10.00">+</text>
<text text-anchor="start" x="313.5" y="-775.5" font-family="Helvetica,sans-Serif" font-size="10.00">y</text>
<text text-anchor="start" x="300.5" y="-760.5" font-family="Helvetica,sans-Serif" font-size="10.00">+</text>
<text text-anchor="start" x="313.5" y="-760.5" font-family="Helvetica,sans-Serif" font-size="10.00">z</text>
<text text-anchor="start" x="300.5" y="-745.5" font-family="Helvetica,sans-Serif" font-size="10.00">+</text>
<text text-anchor="start" x="313.5" y="-745.5" font-family="Helvetica,sans-Serif" font-size="10.00">Quaternion()</text>
<text text-anchor="start" x="300.5" y="-730.5" font-family="Helvetica,sans-Serif" font-size="10.00">+</text>
<text text-anchor="start" x="313.5" y="-730.5" font-family="Helvetica,sans-Serif" font-size="10.00">Quaternion()</text>
<text text-anchor="start" x="300.5" y="-715.5" font-family="Helvetica,sans-Serif" font-size="10.00">+</text>
<text text-anchor="start" x="313.5" y="-715.5" font-family="Helvetica,sans-Serif" font-size="10.00">operator&#45;()</text>
<text text-anchor="start" x="300.5" y="-700.5" font-family="Helvetica,sans-Serif" font-size="10.00">+</text>
<text text-anchor="start" x="313.5" y="-700.5" font-family="Helvetica,sans-Serif" font-size="10.00">operator+()</text>
<text text-anchor="start" x="300.5" y="-685.5" font-family="Helvetica,sans-Serif" font-size="10.00">+</text>
<text text-anchor="start" x="313.5" y="-685.5" font-family="Helvetica,sans-Serif" font-size="10.00">operator&#45;()</text>
<text text-anchor="start" x="300.5" y="-670.5" font-family="Helvetica,sans-Serif" font-size="10.00">+</text>
<text text-anchor="start" x="313.5" y="-670.5" font-family="Helvetica,sans-Serif" font-size="10.00">operator*()</text>
<text text-anchor="start" x="300.5" y="-655.5" font-family="Helvetica,sans-Serif" font-size="10.00">+</text>
<text text-anchor="start" x="313.5" y="-655.5" font-family="Helvetica,sans-Serif" font-size="10.00">normalized()</text>
<text text-anchor="start" x="300.5" y="-640.5" font-family="Helvetica,sans-Serif" font-size="10.00">+</text>
<text text-anchor="start" x="313.5" y="-640.5" font-family="Helvetica,sans-Serif" font-size="10.00">dot()</text>
<text text-anchor="start" x="300.5" y="-625.5" font-family="Helvetica,sans-Serif" font-size="10.00">+</text>
<text text-anchor="start" x="313.5" y="-625.5" font-family="Helvetica,sans-Serif" font-size="10.00">operator*()</text>
<text text-anchor="start" x="300.5" y="-610.5" font-family="Helvetica,sans-Serif" font-size="10.00">+</text>
<text text-anchor="start" x="313.5" y="-610.5" font-family="Helvetica,sans-Serif" font-size="10.00">rotateVector()</text>
<text text-anchor="start" x="300.5" y="-595.5" font-family="Helvetica,sans-Serif" font-size="10.00">+</text>
<text text-anchor="start" x="313.5" y="-595.5" font-family="Helvetica,sans-Serif" font-size="10.00">toMatrix()</text>
<text text-anchor="start" x="300.5" y="-580.5" font-family="Helvetica,sans-Serif" font-size="10.00">+</text>
<text text-anchor="start" x="313.5" y="-580.5" font-family="Helvetica,sans-Serif" font-size="10.00">fromAxisAngle()</text>
<text text-anchor="start" x="300.5" y="-565.5" font-family="Helvetica,sans-Serif" font-size="10.00">+</text>
<text text-anchor="start" x="313.5" y="-565.5" font-family="Helvetica,sans-Serif" font-size="10.00">fromMatrix()</text>
<text text-anchor="start" x="300.5" y="-550.5" font-family="Helvetica,sans-Serif" font-size="10.00">+</text>
<text text-anchor="start" x="313.5" y="-550.5" font-family="Helvetica,sans-Serif" font-size="10.00">lookRotation()</text>
<polygon fill="#bfbfbf" stroke="#bfbfbf" points="296.5,-815.5 296.5,-815.5 397.5,-815.5 397.5,-815.5 296.5,-815.5"/>
<polygon fill="#bfbfbf" stroke="#bfbfbf" points="296.5,-755.5 296.5,-755.5 311.5,-755.5 311.5,-755.5 296.5,-755.5"/>
<polygon fill="#bfbfbf" stroke="#bfbfbf" points="311.5,-755.5 311.5,-755.5 397.5,-755.5 397.5,-755.5 311.5,-755.5"/>
<polygon fill="none" stroke="#bfbfbf" points="296,-544 296,-833 397,-833 397,-544 296,-544"/>
</a>
</g>
</g>
<!-- Node7&#45;&gt;Node5 -->
<g id="edge6_Node000005_Node000007" class="edge">
<title>Node7&#45;&gt;Node5</title>
<g id="a_edge6_Node000005_Node000007"><a xlink:title=" ">
<path fill="none" stroke="#63b8ff" d="M308.15,-543.75C302.86,-530.04 296.99,-516.58 290.5,-504 287.5,-498.17 284,-492.34 280.26,-486.65"/>
<polygon fill="none" stroke="#63b8ff" points="280.14,-486.48 273.44,-483.83 273.31,-476.62 280.01,-479.27 280.14,-486.48"/>
</a>
</g>
<text text-anchor="middle" x="324.5" y="-512.5" font-family="Helvetica,sans-Serif" font-size="10.00" fill="grey"> +rotation</text>
</g>
</g>
</svg>
