<?xml version="1.0" encoding="UTF-8" standalone="no"?>
<!DOCTYPE svg PUBLIC "-//W3C//DTD SVG 1.1//EN"
 "http://www.w3.org/Graphics/SVG/1.1/DTD/svg11.dtd">
<!-- Generated by graphviz version 2.43.0 (0)
 -->
<!-- Title: FrameEngine::Camera Pages: 1 -->
<svg width="474pt" height="841pt"
 viewBox="0.00 0.00 473.50 841.00" xmlns="http://www.w3.org/2000/svg" xmlns:xlink="http://www.w3.org/1999/xlink">
<g id="graph0" class="graph" transform="scale(1 1) rotate(0) translate(4 837)">
<title>FrameEngine::Camera</title>
<!-- Node1 -->
<g id="Node000001" class="node">
<title>Node1</title>
<g id="a_Node000001"><a xlink:title="A camera.">
<polygon fill="#999999" stroke="transparent" points="235,-124 110,-124 110,0 235,0 235,-124"/>
<text text-anchor="start" x="118.5" y="-112" font-family="Helvetica,sans-Serif" font-size="10.00">FrameEngine::Camera</text>
<text text-anchor="start" x="171" y="-97" font-family="Helvetica,sans-Serif" font-size="10.00"> </text>
<text text-anchor="start" x="114.5" y="-82" font-family="Helvetica,sans-Serif" font-size="10.00">+</text>
<text text-anchor="start" x="127.5" y="-82" font-family="Helvetica,sans-Serif" font-size="10.00">Camera()</text>
<text text-anchor="start" x="114.5" y="-67" font-family="Helvetica,sans-Serif" font-size="10.00">+</text>
<text text-anchor="start" x="127.5" y="-67" font-family="Helvetica,sans-Serif" font-size="10.00">getViewMatrix()</text>
<text text-anchor="start" x="114.5" y="-52" font-family="Helvetica,sans-Serif" font-size="10.00">+</text>
<text text-anchor="start" x="127.5" y="-52" font-family="Helvetica,sans-Serif" font-size="10.00">updateViewMatrix()</text>
<text text-anchor="start" x="114.5" y="-37" font-family="Helvetica,sans-Serif" font-size="10.00">+</text>
<text text-anchor="start" x="127.5" y="-37" font-family="Helvetica,sans-Serif" font-size="10.00">getProjectionMatrix()</text>
<text text-anchor="start" x="114.5" y="-22" font-family="Helvetica,sans-Serif" font-size="10.00">+</text>
<text text-anchor="start" x="127.5" y="-22" font-family="Helvetica,sans-Serif" font-size="10.00">setProjection()</text>
<text text-anchor="start" x="114.5" y="-7" font-family="Helvetica,sans-Serif" font-size="10.00">+</text>
<text text-anchor="start" x="127.5" y="-7" font-family="Helvetica,sans-Serif" font-size="10.00">getFrontVector()</text>
<polygon fill="#666666" stroke="#666666" points="110.5,-107 110.5,-107 235.5,-107 235.5,-107 110.5,-107"/>
<polygon fill="#666666" stroke="#666666" points="110.5,-92 110.5,-92 235.5,-92 235.5,-92 110.5,-92"/>
<polygon fill="none" stroke="#666666" points="110,0 110,-124 235,-124 235,0 110,0"/>
</a>
</g>
</g>
<!-- Node2 -->
<g id="Node000002" class="node">
<title>Node2</title>
<g id="a_Node000002"><a xlink:href="classFrameEngine_1_1Object.html" target="_top" xlink:title="A high&#45;level ECS entity wrapper with default components.">
<polygon fill="white" stroke="transparent" points="228.5,-330 116.5,-330 116.5,-161 228.5,-161 228.5,-330"/>
<text text-anchor="start" x="121.5" y="-317.5" font-family="Helvetica,sans-Serif" font-size="10.00">FrameEngine::Object</text>
<text text-anchor="start" x="170.5" y="-302.5" font-family="Helvetica,sans-Serif" font-size="10.00"> </text>
<text text-anchor="start" x="124.5" y="-287.5" font-family="Helvetica,sans-Serif" font-size="10.00">+</text>
<text text-anchor="start" x="141.5" y="-287.5" font-family="Helvetica,sans-Serif" font-size="10.00">Object()</text>
<text text-anchor="start" x="124.5" y="-272.5" font-family="Helvetica,sans-Serif" font-size="10.00">+</text>
<text text-anchor="start" x="141.5" y="-272.5" font-family="Helvetica,sans-Serif" font-size="10.00">rotate()</text>
<text text-anchor="start" x="124.5" y="-257.5" font-family="Helvetica,sans-Serif" font-size="10.00">+</text>
<text text-anchor="start" x="141.5" y="-257.5" font-family="Helvetica,sans-Serif" font-size="10.00">move()</text>
<text text-anchor="start" x="124.5" y="-242.5" font-family="Helvetica,sans-Serif" font-size="10.00">+</text>
<text text-anchor="start" x="141.5" y="-242.5" font-family="Helvetica,sans-Serif" font-size="10.00">render()</text>
<text text-anchor="start" x="124.5" y="-227.5" font-family="Helvetica,sans-Serif" font-size="10.00">+</text>
<text text-anchor="start" x="141.5" y="-227.5" font-family="Helvetica,sans-Serif" font-size="10.00">getColor()</text>
<text text-anchor="start" x="124.5" y="-212.5" font-family="Helvetica,sans-Serif" font-size="10.00">+</text>
<text text-anchor="start" x="141.5" y="-212.5" font-family="Helvetica,sans-Serif" font-size="10.00">setColor()</text>
<text text-anchor="start" x="124.5" y="-197.5" font-family="Helvetica,sans-Serif" font-size="10.00">+</text>
<text text-anchor="start" x="141.5" y="-197.5" font-family="Helvetica,sans-Serif" font-size="10.00">lookAt()</text>
<text text-anchor="start" x="124.5" y="-182.5" font-family="Helvetica,sans-Serif" font-size="10.00">+</text>
<text text-anchor="start" x="141.5" y="-182.5" font-family="Helvetica,sans-Serif" font-size="10.00">setWireframe()</text>
<text text-anchor="start" x="124.5" y="-167.5" font-family="Helvetica,sans-Serif" font-size="10.00">+</text>
<text text-anchor="start" x="141.5" y="-167.5" font-family="Helvetica,sans-Serif" font-size="10.00">isWireframe()</text>
<polygon fill="#666666" stroke="#666666" points="116.5,-312.5 116.5,-312.5 228.5,-312.5 228.5,-312.5 116.5,-312.5"/>
<polygon fill="#666666" stroke="#666666" points="116.5,-297.5 116.5,-297.5 228.5,-297.5 228.5,-297.5 116.5,-297.5"/>
<polygon fill="none" stroke="#666666" points="116.5,-161 116.5,-330 228.5,-330 228.5,-161 116.5,-161"/>
</a>
</g>
</g>
<!-- Node2&#45;&gt;Node1 -->
<g id="edge1_Node000001_Node000002" class="edge">
<title>Node2&#45;&gt;Node1</title>
<g id="a_edge1_Node000001_Node000002"><a xlink:title=" ">
<path fill="none" stroke="#63b8ff" d="M172.5,-150.75C172.5,-141.74 172.5,-132.77 172.5,-124.19"/>
<polygon fill="none" stroke="#63b8ff" points="169,-150.92 172.5,-160.92 176,-150.92 169,-150.92"/>
</a>
</g>
</g>
<!-- Node3 -->
<g id="Node000003" class="node">
<title>Node3</title>
<g id="a_Node000003"><a xlink:href="classFrameEngine_1_1Entity.html" target="_top" xlink:title="A high&#45;level ECS entity wrapper.">
<polygon fill="white" stroke="transparent" points="150,-486 23,-486 23,-377 150,-377 150,-486"/>
<text text-anchor="start" x="37.5" y="-473.5" font-family="Helvetica,sans-Serif" font-size="10.00">FrameEngine::Entity</text>
<text text-anchor="start" x="27.5" y="-458.5" font-family="Helvetica,sans-Serif" font-size="10.00">#</text>
<text text-anchor="start" x="40.5" y="-458.5" font-family="Helvetica,sans-Serif" font-size="10.00">id_</text>
<text text-anchor="start" x="27.5" y="-443.5" font-family="Helvetica,sans-Serif" font-size="10.00">+</text>
<text text-anchor="start" x="40.5" y="-443.5" font-family="Helvetica,sans-Serif" font-size="10.00">Entity()</text>
<text text-anchor="start" x="27.5" y="-428.5" font-family="Helvetica,sans-Serif" font-size="10.00">+</text>
<text text-anchor="start" x="40.5" y="-428.5" font-family="Helvetica,sans-Serif" font-size="10.00">add_component()</text>
<text text-anchor="start" x="27.5" y="-413.5" font-family="Helvetica,sans-Serif" font-size="10.00">+</text>
<text text-anchor="start" x="40.5" y="-413.5" font-family="Helvetica,sans-Serif" font-size="10.00">remove_component()</text>
<text text-anchor="start" x="27.5" y="-398.5" font-family="Helvetica,sans-Serif" font-size="10.00">+</text>
<text text-anchor="start" x="40.5" y="-398.5" font-family="Helvetica,sans-Serif" font-size="10.00">get_component()</text>
<text text-anchor="start" x="27.5" y="-383.5" font-family="Helvetica,sans-Serif" font-size="10.00">+</text>
<text text-anchor="start" x="40.5" y="-383.5" font-family="Helvetica,sans-Serif" font-size="10.00">id()</text>
<polygon fill="#666666" stroke="#666666" points="23.5,-468.5 23.5,-468.5 150.5,-468.5 150.5,-468.5 23.5,-468.5"/>
<polygon fill="#666666" stroke="#666666" points="23.5,-453.5 23.5,-453.5 38.5,-453.5 38.5,-453.5 23.5,-453.5"/>
<polygon fill="#666666" stroke="#666666" points="38.5,-453.5 38.5,-453.5 150.5,-453.5 150.5,-453.5 38.5,-453.5"/>
<polygon fill="none" stroke="#666666" points="23,-377 23,-486 150,-486 150,-377 23,-377"/>
</a>
</g>
</g>
<!-- Node3&#45;&gt;Node2 -->
<g id="edge2_Node000002_Node000003" class="edge">
<title>Node3&#45;&gt;Node2</title>
<g id="a_edge2_Node000002_Node000003"><a xlink:title=" ">
<path fill="none" stroke="#63b8ff" d="M115.86,-367.69C121.52,-355.57 127.53,-342.71 133.44,-330.06"/>
<polygon fill="none" stroke="#63b8ff" points="112.67,-366.24 111.61,-376.78 119.01,-369.21 112.67,-366.24"/>
</a>
</g>
</g>
<!-- Node4 -->
<g id="Node000004" class="node">
<title>Node4</title>
<g id="a_Node000004"><a xlink:href="classRegistry.html" target="_top" xlink:title="Manages all ECS entities and components.">
<polygon fill="white" stroke="transparent" points="173,-788 0,-788 0,-589 173,-589 173,-788"/>
<text text-anchor="start" x="66.5" y="-775.5" font-family="Helvetica,sans-Serif" font-size="10.00">Registry</text>
<text text-anchor="start" x="85" y="-760.5" font-family="Helvetica,sans-Serif" font-size="10.00"> </text>
<text text-anchor="start" x="4.5" y="-745.5" font-family="Helvetica,sans-Serif" font-size="10.00">+</text>
<text text-anchor="start" x="17.5" y="-745.5" font-family="Helvetica,sans-Serif" font-size="10.00">Registry()</text>
<text text-anchor="start" x="4.5" y="-730.5" font-family="Helvetica,sans-Serif" font-size="10.00">+</text>
<text text-anchor="start" x="17.5" y="-730.5" font-family="Helvetica,sans-Serif" font-size="10.00">operator=()</text>
<text text-anchor="start" x="4.5" y="-715.5" font-family="Helvetica,sans-Serif" font-size="10.00">+</text>
<text text-anchor="start" x="17.5" y="-715.5" font-family="Helvetica,sans-Serif" font-size="10.00">Registry()</text>
<text text-anchor="start" x="4.5" y="-700.5" font-family="Helvetica,sans-Serif" font-size="10.00">+</text>
<text text-anchor="start" x="17.5" y="-700.5" font-family="Helvetica,sans-Serif" font-size="10.00">create_entity()</text>
<text text-anchor="start" x="4.5" y="-685.5" font-family="Helvetica,sans-Serif" font-size="10.00">+</text>
<text text-anchor="start" x="17.5" y="-685.5" font-family="Helvetica,sans-Serif" font-size="10.00">destroy_entity()</text>
<text text-anchor="start" x="4.5" y="-670.5" font-family="Helvetica,sans-Serif" font-size="10.00">+</text>
<text text-anchor="start" x="17.5" y="-670.5" font-family="Helvetica,sans-Serif" font-size="10.00">add_component()</text>
<text text-anchor="start" x="4.5" y="-655.5" font-family="Helvetica,sans-Serif" font-size="10.00">+</text>
<text text-anchor="start" x="17.5" y="-655.5" font-family="Helvetica,sans-Serif" font-size="10.00">has_component()</text>
<text text-anchor="start" x="4.5" y="-640.5" font-family="Helvetica,sans-Serif" font-size="10.00">+</text>
<text text-anchor="start" x="17.5" y="-640.5" font-family="Helvetica,sans-Serif" font-size="10.00">get_component()</text>
<text text-anchor="start" x="4.5" y="-625.5" font-family="Helvetica,sans-Serif" font-size="10.00">+</text>
<text text-anchor="start" x="17.5" y="-625.5" font-family="Helvetica,sans-Serif" font-size="10.00">remove_component()</text>
<text text-anchor="start" x="4.5" y="-610.5" font-family="Helvetica,sans-Serif" font-size="10.00">+</text>
<text text-anchor="start" x="17.5" y="-610.5" font-family="Helvetica,sans-Serif" font-size="10.00">get_entities_with_component()</text>
<text text-anchor="start" x="4.5" y="-595.5" font-family="Helvetica,sans-Serif" font-size="10.00">+</text>
<text text-anchor="start" x="17.5" y="-595.5" font-family="Helvetica,sans-Serif" font-size="10.00">getInstance()</text>
<polygon fill="#666666" stroke="#666666" points="0.5,-770.5 0.5,-770.5 173.5,-770.5 173.5,-770.5 0.5,-770.5"/>
<polygon fill="#666666" stroke="#666666" points="0.5,-755.5 0.5,-755.5 173.5,-755.5 173.5,-755.5 0.5,-755.5"/>
<polygon fill="none" stroke="#666666" points="0,-589 0,-788 173,-788 173,-589 0,-589"/>
</a>
</g>
</g>
<!-- Node4&#45;&gt;Node3 -->
<g id="edge3_Node000003_Node000004" class="edge">
<title>Node4&#45;&gt;Node3</title>
<g id="a_edge3_Node000003_Node000004"><a xlink:title=" ">
<path fill="none" stroke="#63b8ff" d="M86.5,-588.91C86.5,-558.65 86.5,-526.09 86.5,-498.56"/>
<polygon fill="none" stroke="#63b8ff" points="86.5,-498.29 82.5,-492.29 86.5,-486.29 90.5,-492.29 86.5,-498.29"/>
</a>
</g>
<text text-anchor="middle" x="114" y="-512.5" font-family="Helvetica,sans-Serif" font-size="10.00" fill="grey"> #registry_</text>
</g>
<!-- Node5 -->
<g id="Node000005" class="node">
<title>Node5</title>
<g id="a_Node000005"><a xlink:href="structFrameEngine_1_1TransformComponent.html" target="_top" xlink:title="Represents the transformation properties of an entity.">
<polygon fill="white" stroke="transparent" points="353,-476.5 168,-476.5 168,-386.5 353,-386.5 353,-476.5"/>
<text text-anchor="start" x="173.5" y="-464.5" font-family="Helvetica,sans-Serif" font-size="10.00">FrameEngine::TransformComponent</text>
<text text-anchor="start" x="259" y="-449.5" font-family="Helvetica,sans-Serif" font-size="10.00"> </text>
<text text-anchor="start" x="185" y="-434.5" font-family="Helvetica,sans-Serif" font-size="10.00">+</text>
<text text-anchor="start" x="210.5" y="-434.5" font-family="Helvetica,sans-Serif" font-size="10.00">TransformComponent()</text>
<text text-anchor="start" x="185" y="-419.5" font-family="Helvetica,sans-Serif" font-size="10.00">+</text>
<text text-anchor="start" x="210.5" y="-419.5" font-family="Helvetica,sans-Serif" font-size="10.00">TransformComponent()</text>
<text text-anchor="start" x="185" y="-404.5" font-family="Helvetica,sans-Serif" font-size="10.00">+</text>
<text text-anchor="start" x="210.5" y="-404.5" font-family="Helvetica,sans-Serif" font-size="10.00">get_transformation</text>
<text text-anchor="start" x="210.5" y="-393.5" font-family="Helvetica,sans-Serif" font-size="10.00">_matrix()</text>
<polygon fill="#666666" stroke="#666666" points="168.5,-459.5 168.5,-459.5 353.5,-459.5 353.5,-459.5 168.5,-459.5"/>
<polygon fill="#666666" stroke="#666666" points="168.5,-444.5 168.5,-444.5 353.5,-444.5 353.5,-444.5 168.5,-444.5"/>
<polygon fill="none" stroke="#666666" points="168,-386.5 168,-476.5 353,-476.5 353,-386.5 168,-386.5"/>
</a>
</g>
</g>
<!-- Node5&#45;&gt;Node2 -->
<g id="edge4_Node000002_Node000005" class="edge">
<title>Node5&#45;&gt;Node2</title>
<g id="a_edge4_Node000002_Node000005"><a xlink:title=" ">
<path fill="none" stroke="#63b8ff" d="M239.42,-386.43C232.85,-372.69 225.34,-356.98 217.77,-341.16"/>
<polygon fill="none" stroke="#63b8ff" points="217.72,-341.04 211.52,-337.36 212.54,-330.22 218.74,-333.91 217.72,-341.04"/>
</a>
</g>
<text text-anchor="middle" x="254.5" y="-351" font-family="Helvetica,sans-Serif" font-size="10.00" fill="grey"> +transform</text>
</g>
<!-- Node6 -->
<g id="Node000006" class="node">
<title>Node6</title>
<g id="a_Node000006"><a xlink:href="classFrameEngine_1_1Vector3.html" target="_top" xlink:title=" ">
<polygon fill="white" stroke="transparent" points="313,-818 196,-818 196,-559 313,-559 313,-818"/>
<text text-anchor="start" x="201.5" y="-805.5" font-family="Helvetica,sans-Serif" font-size="10.00">FrameEngine::Vector3</text>
<text text-anchor="start" x="208" y="-790.5" font-family="Helvetica,sans-Serif" font-size="10.00">+</text>
<text text-anchor="start" x="228.5" y="-790.5" font-family="Helvetica,sans-Serif" font-size="10.00">x</text>
<text text-anchor="start" x="208" y="-775.5" font-family="Helvetica,sans-Serif" font-size="10.00">+</text>
<text text-anchor="start" x="228.5" y="-775.5" font-family="Helvetica,sans-Serif" font-size="10.00">y</text>
<text text-anchor="start" x="208" y="-760.5" font-family="Helvetica,sans-Serif" font-size="10.00">+</text>
<text text-anchor="start" x="228.5" y="-760.5" font-family="Helvetica,sans-Serif" font-size="10.00">z</text>
<text text-anchor="start" x="208" y="-745.5" font-family="Helvetica,sans-Serif" font-size="10.00">+</text>
<text text-anchor="start" x="228.5" y="-745.5" font-family="Helvetica,sans-Serif" font-size="10.00">Vector3()</text>
<text text-anchor="start" x="208" y="-730.5" font-family="Helvetica,sans-Serif" font-size="10.00">+</text>
<text text-anchor="start" x="228.5" y="-730.5" font-family="Helvetica,sans-Serif" font-size="10.00">operator+()</text>
<text text-anchor="start" x="208" y="-715.5" font-family="Helvetica,sans-Serif" font-size="10.00">+</text>
<text text-anchor="start" x="228.5" y="-715.5" font-family="Helvetica,sans-Serif" font-size="10.00">operator&#45;()</text>
<text text-anchor="start" x="208" y="-700.5" font-family="Helvetica,sans-Serif" font-size="10.00">+</text>
<text text-anchor="start" x="228.5" y="-700.5" font-family="Helvetica,sans-Serif" font-size="10.00">operator*()</text>
<text text-anchor="start" x="208" y="-685.5" font-family="Helvetica,sans-Serif" font-size="10.00">+</text>
<text text-anchor="start" x="228.5" y="-685.5" font-family="Helvetica,sans-Serif" font-size="10.00">operator*=()</text>
<text text-anchor="start" x="208" y="-670.5" font-family="Helvetica,sans-Serif" font-size="10.00">+</text>
<text text-anchor="start" x="228.5" y="-670.5" font-family="Helvetica,sans-Serif" font-size="10.00">operator/()</text>
<text text-anchor="start" x="208" y="-655.5" font-family="Helvetica,sans-Serif" font-size="10.00">+</text>
<text text-anchor="start" x="228.5" y="-655.5" font-family="Helvetica,sans-Serif" font-size="10.00">operator==()</text>
<text text-anchor="start" x="208" y="-640.5" font-family="Helvetica,sans-Serif" font-size="10.00">+</text>
<text text-anchor="start" x="228.5" y="-640.5" font-family="Helvetica,sans-Serif" font-size="10.00">operator+=()</text>
<text text-anchor="start" x="208" y="-625.5" font-family="Helvetica,sans-Serif" font-size="10.00">+</text>
<text text-anchor="start" x="228.5" y="-625.5" font-family="Helvetica,sans-Serif" font-size="10.00">magnitude()</text>
<text text-anchor="start" x="208" y="-610.5" font-family="Helvetica,sans-Serif" font-size="10.00">+</text>
<text text-anchor="start" x="228.5" y="-610.5" font-family="Helvetica,sans-Serif" font-size="10.00">normalized()</text>
<text text-anchor="start" x="208" y="-595.5" font-family="Helvetica,sans-Serif" font-size="10.00">+</text>
<text text-anchor="start" x="228.5" y="-595.5" font-family="Helvetica,sans-Serif" font-size="10.00">dot()</text>
<text text-anchor="start" x="208" y="-580.5" font-family="Helvetica,sans-Serif" font-size="10.00">+</text>
<text text-anchor="start" x="228.5" y="-580.5" font-family="Helvetica,sans-Serif" font-size="10.00">cross()</text>
<text text-anchor="start" x="208" y="-565.5" font-family="Helvetica,sans-Serif" font-size="10.00">+</text>
<text text-anchor="start" x="228.5" y="-565.5" font-family="Helvetica,sans-Serif" font-size="10.00">toString()</text>
<polygon fill="#bfbfbf" stroke="#bfbfbf" points="196.5,-800.5 196.5,-800.5 313.5,-800.5 313.5,-800.5 196.5,-800.5"/>
<polygon fill="#bfbfbf" stroke="#bfbfbf" points="196.5,-755.5 196.5,-755.5 226.5,-755.5 226.5,-755.5 196.5,-755.5"/>
<polygon fill="#bfbfbf" stroke="#bfbfbf" points="226.5,-755.5 226.5,-755.5 313.5,-755.5 313.5,-755.5 226.5,-755.5"/>
<polygon fill="none" stroke="#bfbfbf" points="196,-559 196,-818 313,-818 313,-559 196,-559"/>
</a>
</g>
</g>
<!-- Node6&#45;&gt;Node5 -->
<g id="edge5_Node000005_Node000006" class="edge">
<title>Node6&#45;&gt;Node5</title>
<g id="a_edge5_Node000005_Node000006"><a xlink:title=" ">
<path fill="none" stroke="#63b8ff" d="M257.53,-558.88C258.11,-534.27 258.68,-509.71 259.17,-488.87"/>
<polygon fill="none" stroke="#63b8ff" points="259.18,-488.74 255.32,-482.65 259.46,-476.74 263.32,-482.84 259.18,-488.74"/>
</a>
</g>
<text text-anchor="middle" x="285" y="-518" font-family="Helvetica,sans-Serif" font-size="10.00" fill="grey"> +position</text>
<text text-anchor="middle" x="285" y="-507" font-family="Helvetica,sans-Serif" font-size="10.00" fill="grey">+scale</text>
</g>
<!-- Node7 -->
<g id="Node000007" class="node">
<title>Node7</title>
<g id="a_Node000007"><a xlink:href="structFrameEngine_1_1Quaternion.html" target="_top" xlink:title=" ">
<polygon fill="white" stroke="transparent" points="465.5,-833 331.5,-833 331.5,-544 465.5,-544 465.5,-833"/>
<text text-anchor="start" x="336.5" y="-820.5" font-family="Helvetica,sans-Serif" font-size="10.00">FrameEngine::Quaternion</text>
<text text-anchor="start" x="343.5" y="-805.5" font-family="Helvetica,sans-Serif" font-size="10.00">+</text>
<text text-anchor="start" x="364.5" y="-805.5" font-family="Helvetica,sans-Serif" font-size="10.00">w</text>
<text text-anchor="start" x="343.5" y="-790.5" font-family="Helvetica,sans-Serif" font-size="10.00">+</text>
<text text-anchor="start" x="364.5" y="-790.5" font-family="Helvetica,sans-Serif" font-size="10.00">x</text>
<text text-anchor="start" x="343.5" y="-775.5" font-family="Helvetica,sans-Serif" font-size="10.00">+</text>
<text text-anchor="start" x="364.5" y="-775.5" font-family="Helvetica,sans-Serif" font-size="10.00">y</text>
<text text-anchor="start" x="343.5" y="-760.5" font-family="Helvetica,sans-Serif" font-size="10.00">+</text>
<text text-anchor="start" x="364.5" y="-760.5" font-family="Helvetica,sans-Serif" font-size="10.00">z</text>
<text text-anchor="start" x="343.5" y="-745.5" font-family="Helvetica,sans-Serif" font-size="10.00">+</text>
<text text-anchor="start" x="364.5" y="-745.5" font-family="Helvetica,sans-Serif" font-size="10.00">Quaternion()</text>
<text text-anchor="start" x="343.5" y="-730.5" font-family="Helvetica,sans-Serif" font-size="10.00">+</text>
<text text-anchor="start" x="364.5" y="-730.5" font-family="Helvetica,sans-Serif" font-size="10.00">Quaternion()</text>
<text text-anchor="start" x="343.5" y="-715.5" font-family="Helvetica,sans-Serif" font-size="10.00">+</text>
<text text-anchor="start" x="364.5" y="-715.5" font-family="Helvetica,sans-Serif" font-size="10.00">operator&#45;()</text>
<text text-anchor="start" x="343.5" y="-700.5" font-family="Helvetica,sans-Serif" font-size="10.00">+</text>
<text text-anchor="start" x="364.5" y="-700.5" font-family="Helvetica,sans-Serif" font-size="10.00">operator+()</text>
<text text-anchor="start" x="343.5" y="-685.5" font-family="Helvetica,sans-Serif" font-size="10.00">+</text>
<text text-anchor="start" x="364.5" y="-685.5" font-family="Helvetica,sans-Serif" font-size="10.00">operator&#45;()</text>
<text text-anchor="start" x="343.5" y="-670.5" font-family="Helvetica,sans-Serif" font-size="10.00">+</text>
<text text-anchor="start" x="364.5" y="-670.5" font-family="Helvetica,sans-Serif" font-size="10.00">operator*()</text>
<text text-anchor="start" x="343.5" y="-655.5" font-family="Helvetica,sans-Serif" font-size="10.00">+</text>
<text text-anchor="start" x="364.5" y="-655.5" font-family="Helvetica,sans-Serif" font-size="10.00">normalized()</text>
<text text-anchor="start" x="343.5" y="-640.5" font-family="Helvetica,sans-Serif" font-size="10.00">+</text>
<text text-anchor="start" x="364.5" y="-640.5" font-family="Helvetica,sans-Serif" font-size="10.00">dot()</text>
<text text-anchor="start" x="343.5" y="-625.5" font-family="Helvetica,sans-Serif" font-size="10.00">+</text>
<text text-anchor="start" x="364.5" y="-625.5" font-family="Helvetica,sans-Serif" font-size="10.00">operator*()</text>
<text text-anchor="start" x="343.5" y="-610.5" font-family="Helvetica,sans-Serif" font-size="10.00">+</text>
<text text-anchor="start" x="364.5" y="-610.5" font-family="Helvetica,sans-Serif" font-size="10.00">rotateVector()</text>
<text text-anchor="start" x="343.5" y="-595.5" font-family="Helvetica,sans-Serif" font-size="10.00">+</text>
<text text-anchor="start" x="364.5" y="-595.5" font-family="Helvetica,sans-Serif" font-size="10.00">toMatrix()</text>
<text text-anchor="start" x="343.5" y="-580.5" font-family="Helvetica,sans-Serif" font-size="10.00">+</text>
<text text-anchor="start" x="364.5" y="-580.5" font-family="Helvetica,sans-Serif" font-size="10.00">fromAxisAngle()</text>
<text text-anchor="start" x="343.5" y="-565.5" font-family="Helvetica,sans-Serif" font-size="10.00">+</text>
<text text-anchor="start" x="364.5" y="-565.5" font-family="Helvetica,sans-Serif" font-size="10.00">fromMatrix()</text>
<text text-anchor="start" x="343.5" y="-550.5" font-family="Helvetica,sans-Serif" font-size="10.00">+</text>
<text text-anchor="start" x="364.5" y="-550.5" font-family="Helvetica,sans-Serif" font-size="10.00">lookRotation()</text>
<polygon fill="#bfbfbf" stroke="#bfbfbf" points="331.5,-815.5 331.5,-815.5 465.5,-815.5 465.5,-815.5 331.5,-815.5"/>
<polygon fill="#bfbfbf" stroke="#bfbfbf" points="331.5,-755.5 331.5,-755.5 362.5,-755.5 362.5,-755.5 331.5,-755.5"/>
<polygon fill="#bfbfbf" stroke="#bfbfbf" points="362.5,-755.5 362.5,-755.5 465.5,-755.5 465.5,-755.5 362.5,-755.5"/>
<polygon fill="none" stroke="#bfbfbf" points="331.5,-544 331.5,-833 465.5,-833 465.5,-544 331.5,-544"/>
</a>
</g>
</g>
<!-- Node7&#45;&gt;Node5 -->
<g id="edge6_Node000005_Node000007" class="edge">
<title>Node7&#45;&gt;Node5</title>
<g id="a_edge6_Node000005_Node000007"><a xlink:title=" ">
<path fill="none" stroke="#63b8ff" d="M336.35,-543.69C329.37,-530.07 322.04,-516.64 314.5,-504 311.11,-498.32 307.36,-492.56 303.46,-486.9"/>
<polygon fill="none" stroke="#63b8ff" points="303.27,-486.63 296.54,-484.06 296.32,-476.85 303.06,-479.43 303.27,-486.63"/>
</a>
</g>
<text text-anchor="middle" x="350.5" y="-512.5" font-family="Helvetica,sans-Serif" font-size="10.00" fill="grey"> +rotation</text>
</g>
</g>
</svg>
