<?xml version="1.0" encoding="UTF-8" standalone="no"?>
<!DOCTYPE svg PUBLIC "-//W3C//DTD SVG 1.1//EN"
 "http://www.w3.org/Graphics/SVG/1.1/DTD/svg11.dtd">
<!-- Generated by graphviz version 2.43.0 (0)
 -->
<!-- Title: FrameEngine::Camera Pages: 1 -->
<svg width="808pt" height="1012pt"
 viewBox="0.00 0.00 808.00 1012.00" xmlns="http://www.w3.org/2000/svg" xmlns:xlink="http://www.w3.org/1999/xlink">
<g id="graph0" class="graph" transform="scale(1 1) rotate(0) translate(4 1008)">
<title>FrameEngine::Camera</title>
<!-- Node1 -->
<g id="Node000001" class="node">
<title>Node1</title>
<g id="a_Node000001"><a xlink:title="A camera.">
<polygon fill="#999999" stroke="transparent" points="489,-124 364,-124 364,0 489,0 489,-124"/>
<text text-anchor="start" x="372.5" y="-112" font-family="Helvetica,sans-Serif" font-size="10.00">FrameEngine::Camera</text>
<text text-anchor="start" x="425" y="-97" font-family="Helvetica,sans-Serif" font-size="10.00"> </text>
<text text-anchor="start" x="368.5" y="-82" font-family="Helvetica,sans-Serif" font-size="10.00">+</text>
<text text-anchor="start" x="381.5" y="-82" font-family="Helvetica,sans-Serif" font-size="10.00">Camera()</text>
<text text-anchor="start" x="368.5" y="-67" font-family="Helvetica,sans-Serif" font-size="10.00">+</text>
<text text-anchor="start" x="381.5" y="-67" font-family="Helvetica,sans-Serif" font-size="10.00">getViewMatrix()</text>
<text text-anchor="start" x="368.5" y="-52" font-family="Helvetica,sans-Serif" font-size="10.00">+</text>
<text text-anchor="start" x="381.5" y="-52" font-family="Helvetica,sans-Serif" font-size="10.00">updateViewMatrix()</text>
<text text-anchor="start" x="368.5" y="-37" font-family="Helvetica,sans-Serif" font-size="10.00">+</text>
<text text-anchor="start" x="381.5" y="-37" font-family="Helvetica,sans-Serif" font-size="10.00">getProjectionMatrix()</text>
<text text-anchor="start" x="368.5" y="-22" font-family="Helvetica,sans-Serif" font-size="10.00">+</text>
<text text-anchor="start" x="381.5" y="-22" font-family="Helvetica,sans-Serif" font-size="10.00">setProjection()</text>
<text text-anchor="start" x="368.5" y="-7" font-family="Helvetica,sans-Serif" font-size="10.00">+</text>
<text text-anchor="start" x="381.5" y="-7" font-family="Helvetica,sans-Serif" font-size="10.00">getFrontVector()</text>
<polygon fill="#666666" stroke="#666666" points="364.5,-107 364.5,-107 489.5,-107 489.5,-107 364.5,-107"/>
<polygon fill="#666666" stroke="#666666" points="364.5,-92 364.5,-92 489.5,-92 489.5,-92 364.5,-92"/>
<polygon fill="none" stroke="#666666" points="364,0 364,-124 489,-124 489,0 364,0"/>
</a>
</g>
</g>
<!-- Node2 -->
<g id="Node000002" class="node">
<title>Node2</title>
<g id="a_Node000002"><a xlink:href="classFrameEngine_1_1Object.html" target="_top" xlink:title="A high&#45;level ECS entity wrapper with default components.">
<polygon fill="white" stroke="transparent" points="482.5,-285 370.5,-285 370.5,-161 482.5,-161 482.5,-285"/>
<text text-anchor="start" x="375.5" y="-273" font-family="Helvetica,sans-Serif" font-size="10.00">FrameEngine::Object</text>
<text text-anchor="start" x="424.5" y="-258" font-family="Helvetica,sans-Serif" font-size="10.00"> </text>
<text text-anchor="start" x="381" y="-243" font-family="Helvetica,sans-Serif" font-size="10.00">+</text>
<text text-anchor="start" x="400.5" y="-243" font-family="Helvetica,sans-Serif" font-size="10.00">Object()</text>
<text text-anchor="start" x="381" y="-228" font-family="Helvetica,sans-Serif" font-size="10.00">+</text>
<text text-anchor="start" x="400.5" y="-228" font-family="Helvetica,sans-Serif" font-size="10.00">setMesh()</text>
<text text-anchor="start" x="381" y="-213" font-family="Helvetica,sans-Serif" font-size="10.00">+</text>
<text text-anchor="start" x="400.5" y="-213" font-family="Helvetica,sans-Serif" font-size="10.00">setMaterial()</text>
<text text-anchor="start" x="381" y="-198" font-family="Helvetica,sans-Serif" font-size="10.00">+</text>
<text text-anchor="start" x="400.5" y="-198" font-family="Helvetica,sans-Serif" font-size="10.00">rotate()</text>
<text text-anchor="start" x="381" y="-183" font-family="Helvetica,sans-Serif" font-size="10.00">+</text>
<text text-anchor="start" x="400.5" y="-183" font-family="Helvetica,sans-Serif" font-size="10.00">move()</text>
<text text-anchor="start" x="381" y="-168" font-family="Helvetica,sans-Serif" font-size="10.00">+</text>
<text text-anchor="start" x="400.5" y="-168" font-family="Helvetica,sans-Serif" font-size="10.00">lookAt()</text>
<polygon fill="#666666" stroke="#666666" points="370.5,-268 370.5,-268 482.5,-268 482.5,-268 370.5,-268"/>
<polygon fill="#666666" stroke="#666666" points="370.5,-253 370.5,-253 482.5,-253 482.5,-253 370.5,-253"/>
<polygon fill="none" stroke="#666666" points="370.5,-161 370.5,-285 482.5,-285 482.5,-161 370.5,-161"/>
</a>
</g>
</g>
<!-- Node2&#45;&gt;Node1 -->
<g id="edge1_Node000001_Node000002" class="edge">
<title>Node2&#45;&gt;Node1</title>
<g id="a_edge1_Node000001_Node000002"><a xlink:title=" ">
<path fill="none" stroke="#63b8ff" d="M426.5,-150.96C426.5,-142 426.5,-132.9 426.5,-124.12"/>
<polygon fill="none" stroke="#63b8ff" points="423,-150.98 426.5,-160.98 430,-150.98 423,-150.98"/>
</a>
</g>
</g>
<!-- Node3 -->
<g id="Node000003" class="node">
<title>Node3</title>
<g id="a_Node000003"><a xlink:href="classFrameEngine_1_1Entity.html" target="_top" xlink:title="A high&#45;level ECS entity wrapper.">
<polygon fill="white" stroke="transparent" points="186,-441 59,-441 59,-332 186,-332 186,-441"/>
<text text-anchor="start" x="73.5" y="-428.5" font-family="Helvetica,sans-Serif" font-size="10.00">FrameEngine::Entity</text>
<text text-anchor="start" x="63.5" y="-413.5" font-family="Helvetica,sans-Serif" font-size="10.00">#</text>
<text text-anchor="start" x="76.5" y="-413.5" font-family="Helvetica,sans-Serif" font-size="10.00">id_</text>
<text text-anchor="start" x="63.5" y="-398.5" font-family="Helvetica,sans-Serif" font-size="10.00">+</text>
<text text-anchor="start" x="76.5" y="-398.5" font-family="Helvetica,sans-Serif" font-size="10.00">Entity()</text>
<text text-anchor="start" x="63.5" y="-383.5" font-family="Helvetica,sans-Serif" font-size="10.00">+</text>
<text text-anchor="start" x="76.5" y="-383.5" font-family="Helvetica,sans-Serif" font-size="10.00">add_component()</text>
<text text-anchor="start" x="63.5" y="-368.5" font-family="Helvetica,sans-Serif" font-size="10.00">+</text>
<text text-anchor="start" x="76.5" y="-368.5" font-family="Helvetica,sans-Serif" font-size="10.00">remove_component()</text>
<text text-anchor="start" x="63.5" y="-353.5" font-family="Helvetica,sans-Serif" font-size="10.00">+</text>
<text text-anchor="start" x="76.5" y="-353.5" font-family="Helvetica,sans-Serif" font-size="10.00">get_component()</text>
<text text-anchor="start" x="63.5" y="-338.5" font-family="Helvetica,sans-Serif" font-size="10.00">+</text>
<text text-anchor="start" x="76.5" y="-338.5" font-family="Helvetica,sans-Serif" font-size="10.00">id()</text>
<polygon fill="#666666" stroke="#666666" points="59.5,-423.5 59.5,-423.5 186.5,-423.5 186.5,-423.5 59.5,-423.5"/>
<polygon fill="#666666" stroke="#666666" points="59.5,-408.5 59.5,-408.5 74.5,-408.5 74.5,-408.5 59.5,-408.5"/>
<polygon fill="#666666" stroke="#666666" points="74.5,-408.5 74.5,-408.5 186.5,-408.5 186.5,-408.5 74.5,-408.5"/>
<polygon fill="none" stroke="#666666" points="59,-332 59,-441 186,-441 186,-332 59,-332"/>
</a>
</g>
</g>
<!-- Node3&#45;&gt;Node2 -->
<g id="edge2_Node000002_Node000003" class="edge">
<title>Node3&#45;&gt;Node2</title>
<g id="a_edge2_Node000002_Node000003"><a xlink:title=" ">
<path fill="none" stroke="#63b8ff" d="M195.34,-346.8C248.93,-318.33 320.74,-280.19 370.02,-254"/>
<polygon fill="none" stroke="#63b8ff" points="193.42,-343.86 186.23,-351.64 196.7,-350.04 193.42,-343.86"/>
</a>
</g>
</g>
<!-- Node4 -->
<g id="Node000004" class="node">
<title>Node4</title>
<g id="a_Node000004"><a xlink:href="classRegistry.html" target="_top" xlink:title="Manages all ECS entities and components.">
<polygon fill="white" stroke="transparent" points="173,-743 0,-743 0,-544 173,-544 173,-743"/>
<text text-anchor="start" x="66.5" y="-730.5" font-family="Helvetica,sans-Serif" font-size="10.00">Registry</text>
<text text-anchor="start" x="85" y="-715.5" font-family="Helvetica,sans-Serif" font-size="10.00"> </text>
<text text-anchor="start" x="4.5" y="-700.5" font-family="Helvetica,sans-Serif" font-size="10.00">+</text>
<text text-anchor="start" x="17.5" y="-700.5" font-family="Helvetica,sans-Serif" font-size="10.00">Registry()</text>
<text text-anchor="start" x="4.5" y="-685.5" font-family="Helvetica,sans-Serif" font-size="10.00">+</text>
<text text-anchor="start" x="17.5" y="-685.5" font-family="Helvetica,sans-Serif" font-size="10.00">operator=()</text>
<text text-anchor="start" x="4.5" y="-670.5" font-family="Helvetica,sans-Serif" font-size="10.00">+</text>
<text text-anchor="start" x="17.5" y="-670.5" font-family="Helvetica,sans-Serif" font-size="10.00">Registry()</text>
<text text-anchor="start" x="4.5" y="-655.5" font-family="Helvetica,sans-Serif" font-size="10.00">+</text>
<text text-anchor="start" x="17.5" y="-655.5" font-family="Helvetica,sans-Serif" font-size="10.00">create_entity()</text>
<text text-anchor="start" x="4.5" y="-640.5" font-family="Helvetica,sans-Serif" font-size="10.00">+</text>
<text text-anchor="start" x="17.5" y="-640.5" font-family="Helvetica,sans-Serif" font-size="10.00">destroy_entity()</text>
<text text-anchor="start" x="4.5" y="-625.5" font-family="Helvetica,sans-Serif" font-size="10.00">+</text>
<text text-anchor="start" x="17.5" y="-625.5" font-family="Helvetica,sans-Serif" font-size="10.00">add_component()</text>
<text text-anchor="start" x="4.5" y="-610.5" font-family="Helvetica,sans-Serif" font-size="10.00">+</text>
<text text-anchor="start" x="17.5" y="-610.5" font-family="Helvetica,sans-Serif" font-size="10.00">has_component()</text>
<text text-anchor="start" x="4.5" y="-595.5" font-family="Helvetica,sans-Serif" font-size="10.00">+</text>
<text text-anchor="start" x="17.5" y="-595.5" font-family="Helvetica,sans-Serif" font-size="10.00">get_component()</text>
<text text-anchor="start" x="4.5" y="-580.5" font-family="Helvetica,sans-Serif" font-size="10.00">+</text>
<text text-anchor="start" x="17.5" y="-580.5" font-family="Helvetica,sans-Serif" font-size="10.00">remove_component()</text>
<text text-anchor="start" x="4.5" y="-565.5" font-family="Helvetica,sans-Serif" font-size="10.00">+</text>
<text text-anchor="start" x="17.5" y="-565.5" font-family="Helvetica,sans-Serif" font-size="10.00">get_entities_with_component()</text>
<text text-anchor="start" x="4.5" y="-550.5" font-family="Helvetica,sans-Serif" font-size="10.00">+</text>
<text text-anchor="start" x="17.5" y="-550.5" font-family="Helvetica,sans-Serif" font-size="10.00">getInstance()</text>
<polygon fill="#666666" stroke="#666666" points="0.5,-725.5 0.5,-725.5 173.5,-725.5 173.5,-725.5 0.5,-725.5"/>
<polygon fill="#666666" stroke="#666666" points="0.5,-710.5 0.5,-710.5 173.5,-710.5 173.5,-710.5 0.5,-710.5"/>
<polygon fill="none" stroke="#666666" points="0,-544 0,-743 173,-743 173,-544 0,-544"/>
</a>
</g>
</g>
<!-- Node4&#45;&gt;Node3 -->
<g id="edge3_Node000003_Node000004" class="edge">
<title>Node4&#45;&gt;Node3</title>
<g id="a_edge3_Node000003_Node000004"><a xlink:title=" ">
<path fill="none" stroke="#63b8ff" d="M100.42,-543.91C104.71,-513.51 109.33,-480.8 113.23,-453.19"/>
<polygon fill="none" stroke="#63b8ff" points="113.23,-453.17 110.11,-446.67 114.91,-441.29 118.03,-447.79 113.23,-453.17"/>
</a>
</g>
<text text-anchor="middle" x="140" y="-467.5" font-family="Helvetica,sans-Serif" font-size="10.00" fill="grey"> #registry_</text>
</g>
<!-- Node5 -->
<g id="Node000005" class="node">
<title>Node5</title>
<g id="a_Node000005"><a xlink:href="structFrameEngine_1_1TransformComponent.html" target="_top" xlink:title="Represents the transformation properties of an entity.">
<polygon fill="white" stroke="transparent" points="424,-431.5 239,-431.5 239,-341.5 424,-341.5 424,-431.5"/>
<text text-anchor="start" x="244.5" y="-419.5" font-family="Helvetica,sans-Serif" font-size="10.00">FrameEngine::TransformComponent</text>
<text text-anchor="start" x="330" y="-404.5" font-family="Helvetica,sans-Serif" font-size="10.00"> </text>
<text text-anchor="start" x="256" y="-389.5" font-family="Helvetica,sans-Serif" font-size="10.00">+</text>
<text text-anchor="start" x="281.5" y="-389.5" font-family="Helvetica,sans-Serif" font-size="10.00">TransformComponent()</text>
<text text-anchor="start" x="256" y="-374.5" font-family="Helvetica,sans-Serif" font-size="10.00">+</text>
<text text-anchor="start" x="281.5" y="-374.5" font-family="Helvetica,sans-Serif" font-size="10.00">TransformComponent()</text>
<text text-anchor="start" x="256" y="-359.5" font-family="Helvetica,sans-Serif" font-size="10.00">+</text>
<text text-anchor="start" x="281.5" y="-359.5" font-family="Helvetica,sans-Serif" font-size="10.00">get_transformation</text>
<text text-anchor="start" x="281.5" y="-348.5" font-family="Helvetica,sans-Serif" font-size="10.00">_matrix()</text>
<polygon fill="#666666" stroke="#666666" points="239.5,-414.5 239.5,-414.5 424.5,-414.5 424.5,-414.5 239.5,-414.5"/>
<polygon fill="#666666" stroke="#666666" points="239.5,-399.5 239.5,-399.5 424.5,-399.5 424.5,-399.5 239.5,-399.5"/>
<polygon fill="none" stroke="#666666" points="239,-341.5 239,-431.5 424,-431.5 424,-341.5 239,-341.5"/>
</a>
</g>
</g>
<!-- Node5&#45;&gt;Node2 -->
<g id="edge4_Node000002_Node000005" class="edge">
<title>Node5&#45;&gt;Node2</title>
<g id="a_edge4_Node000002_Node000005"><a xlink:title=" ">
<path fill="none" stroke="#63b8ff" d="M357.46,-341.37C365.76,-327.26 375.18,-311.25 384.33,-295.69"/>
<polygon fill="none" stroke="#63b8ff" points="384.52,-295.37 384.11,-288.17 390.6,-285.03 391.01,-292.23 384.52,-295.37"/>
</a>
</g>
<text text-anchor="middle" x="409.5" y="-306" font-family="Helvetica,sans-Serif" font-size="10.00" fill="grey"> +transform</text>
</g>
<!-- Node6 -->
<g id="Node000006" class="node">
<title>Node6</title>
<g id="a_Node000006"><a xlink:href="classFrameEngine_1_1Vector3.html" target="_top" xlink:title=" ">
<polygon fill="white" stroke="transparent" points="308,-773 191,-773 191,-514 308,-514 308,-773"/>
<text text-anchor="start" x="196.5" y="-760.5" font-family="Helvetica,sans-Serif" font-size="10.00">FrameEngine::Vector3</text>
<text text-anchor="start" x="203" y="-745.5" font-family="Helvetica,sans-Serif" font-size="10.00">+</text>
<text text-anchor="start" x="223.5" y="-745.5" font-family="Helvetica,sans-Serif" font-size="10.00">x</text>
<text text-anchor="start" x="203" y="-730.5" font-family="Helvetica,sans-Serif" font-size="10.00">+</text>
<text text-anchor="start" x="223.5" y="-730.5" font-family="Helvetica,sans-Serif" font-size="10.00">y</text>
<text text-anchor="start" x="203" y="-715.5" font-family="Helvetica,sans-Serif" font-size="10.00">+</text>
<text text-anchor="start" x="223.5" y="-715.5" font-family="Helvetica,sans-Serif" font-size="10.00">z</text>
<text text-anchor="start" x="203" y="-700.5" font-family="Helvetica,sans-Serif" font-size="10.00">+</text>
<text text-anchor="start" x="223.5" y="-700.5" font-family="Helvetica,sans-Serif" font-size="10.00">Vector3()</text>
<text text-anchor="start" x="203" y="-685.5" font-family="Helvetica,sans-Serif" font-size="10.00">+</text>
<text text-anchor="start" x="223.5" y="-685.5" font-family="Helvetica,sans-Serif" font-size="10.00">operator+()</text>
<text text-anchor="start" x="203" y="-670.5" font-family="Helvetica,sans-Serif" font-size="10.00">+</text>
<text text-anchor="start" x="223.5" y="-670.5" font-family="Helvetica,sans-Serif" font-size="10.00">operator&#45;()</text>
<text text-anchor="start" x="203" y="-655.5" font-family="Helvetica,sans-Serif" font-size="10.00">+</text>
<text text-anchor="start" x="223.5" y="-655.5" font-family="Helvetica,sans-Serif" font-size="10.00">operator*()</text>
<text text-anchor="start" x="203" y="-640.5" font-family="Helvetica,sans-Serif" font-size="10.00">+</text>
<text text-anchor="start" x="223.5" y="-640.5" font-family="Helvetica,sans-Serif" font-size="10.00">operator*=()</text>
<text text-anchor="start" x="203" y="-625.5" font-family="Helvetica,sans-Serif" font-size="10.00">+</text>
<text text-anchor="start" x="223.5" y="-625.5" font-family="Helvetica,sans-Serif" font-size="10.00">operator/()</text>
<text text-anchor="start" x="203" y="-610.5" font-family="Helvetica,sans-Serif" font-size="10.00">+</text>
<text text-anchor="start" x="223.5" y="-610.5" font-family="Helvetica,sans-Serif" font-size="10.00">operator==()</text>
<text text-anchor="start" x="203" y="-595.5" font-family="Helvetica,sans-Serif" font-size="10.00">+</text>
<text text-anchor="start" x="223.5" y="-595.5" font-family="Helvetica,sans-Serif" font-size="10.00">operator+=()</text>
<text text-anchor="start" x="203" y="-580.5" font-family="Helvetica,sans-Serif" font-size="10.00">+</text>
<text text-anchor="start" x="223.5" y="-580.5" font-family="Helvetica,sans-Serif" font-size="10.00">magnitude()</text>
<text text-anchor="start" x="203" y="-565.5" font-family="Helvetica,sans-Serif" font-size="10.00">+</text>
<text text-anchor="start" x="223.5" y="-565.5" font-family="Helvetica,sans-Serif" font-size="10.00">normalized()</text>
<text text-anchor="start" x="203" y="-550.5" font-family="Helvetica,sans-Serif" font-size="10.00">+</text>
<text text-anchor="start" x="223.5" y="-550.5" font-family="Helvetica,sans-Serif" font-size="10.00">dot()</text>
<text text-anchor="start" x="203" y="-535.5" font-family="Helvetica,sans-Serif" font-size="10.00">+</text>
<text text-anchor="start" x="223.5" y="-535.5" font-family="Helvetica,sans-Serif" font-size="10.00">cross()</text>
<text text-anchor="start" x="203" y="-520.5" font-family="Helvetica,sans-Serif" font-size="10.00">+</text>
<text text-anchor="start" x="223.5" y="-520.5" font-family="Helvetica,sans-Serif" font-size="10.00">toString()</text>
<polygon fill="#bfbfbf" stroke="#bfbfbf" points="191.5,-755.5 191.5,-755.5 308.5,-755.5 308.5,-755.5 191.5,-755.5"/>
<polygon fill="#bfbfbf" stroke="#bfbfbf" points="191.5,-710.5 191.5,-710.5 221.5,-710.5 221.5,-710.5 191.5,-710.5"/>
<polygon fill="#bfbfbf" stroke="#bfbfbf" points="221.5,-710.5 221.5,-710.5 308.5,-710.5 308.5,-710.5 221.5,-710.5"/>
<polygon fill="none" stroke="#bfbfbf" points="191,-514 191,-773 308,-773 308,-514 191,-514"/>
</a>
</g>
</g>
<!-- Node6&#45;&gt;Node5 -->
<g id="edge5_Node000005_Node000006" class="edge">
<title>Node6&#45;&gt;Node5</title>
<g id="a_edge5_Node000005_Node000006"><a xlink:title=" ">
<path fill="none" stroke="#63b8ff" d="M277.98,-513.56C283.18,-495.05 289.03,-476.39 295.5,-459 297.48,-453.66 299.76,-448.2 302.17,-442.8"/>
<polygon fill="none" stroke="#63b8ff" points="302.21,-442.7 301.13,-435.58 307.29,-431.83 308.38,-438.96 302.21,-442.7"/>
</a>
</g>
<text text-anchor="middle" x="321" y="-473" font-family="Helvetica,sans-Serif" font-size="10.00" fill="grey"> +position</text>
<text text-anchor="middle" x="321" y="-462" font-family="Helvetica,sans-Serif" font-size="10.00" fill="grey">+scale</text>
</g>
<!-- Node7 -->
<g id="Node000007" class="node">
<title>Node7</title>
<g id="a_Node000007"><a xlink:href="structFrameEngine_1_1Quaternion.html" target="_top" xlink:title=" ">
<polygon fill="white" stroke="transparent" points="460.5,-788 326.5,-788 326.5,-499 460.5,-499 460.5,-788"/>
<text text-anchor="start" x="331.5" y="-775.5" font-family="Helvetica,sans-Serif" font-size="10.00">FrameEngine::Quaternion</text>
<text text-anchor="start" x="338.5" y="-760.5" font-family="Helvetica,sans-Serif" font-size="10.00">+</text>
<text text-anchor="start" x="359.5" y="-760.5" font-family="Helvetica,sans-Serif" font-size="10.00">w</text>
<text text-anchor="start" x="338.5" y="-745.5" font-family="Helvetica,sans-Serif" font-size="10.00">+</text>
<text text-anchor="start" x="359.5" y="-745.5" font-family="Helvetica,sans-Serif" font-size="10.00">x</text>
<text text-anchor="start" x="338.5" y="-730.5" font-family="Helvetica,sans-Serif" font-size="10.00">+</text>
<text text-anchor="start" x="359.5" y="-730.5" font-family="Helvetica,sans-Serif" font-size="10.00">y</text>
<text text-anchor="start" x="338.5" y="-715.5" font-family="Helvetica,sans-Serif" font-size="10.00">+</text>
<text text-anchor="start" x="359.5" y="-715.5" font-family="Helvetica,sans-Serif" font-size="10.00">z</text>
<text text-anchor="start" x="338.5" y="-700.5" font-family="Helvetica,sans-Serif" font-size="10.00">+</text>
<text text-anchor="start" x="359.5" y="-700.5" font-family="Helvetica,sans-Serif" font-size="10.00">Quaternion()</text>
<text text-anchor="start" x="338.5" y="-685.5" font-family="Helvetica,sans-Serif" font-size="10.00">+</text>
<text text-anchor="start" x="359.5" y="-685.5" font-family="Helvetica,sans-Serif" font-size="10.00">Quaternion()</text>
<text text-anchor="start" x="338.5" y="-670.5" font-family="Helvetica,sans-Serif" font-size="10.00">+</text>
<text text-anchor="start" x="359.5" y="-670.5" font-family="Helvetica,sans-Serif" font-size="10.00">operator&#45;()</text>
<text text-anchor="start" x="338.5" y="-655.5" font-family="Helvetica,sans-Serif" font-size="10.00">+</text>
<text text-anchor="start" x="359.5" y="-655.5" font-family="Helvetica,sans-Serif" font-size="10.00">operator+()</text>
<text text-anchor="start" x="338.5" y="-640.5" font-family="Helvetica,sans-Serif" font-size="10.00">+</text>
<text text-anchor="start" x="359.5" y="-640.5" font-family="Helvetica,sans-Serif" font-size="10.00">operator&#45;()</text>
<text text-anchor="start" x="338.5" y="-625.5" font-family="Helvetica,sans-Serif" font-size="10.00">+</text>
<text text-anchor="start" x="359.5" y="-625.5" font-family="Helvetica,sans-Serif" font-size="10.00">operator*()</text>
<text text-anchor="start" x="338.5" y="-610.5" font-family="Helvetica,sans-Serif" font-size="10.00">+</text>
<text text-anchor="start" x="359.5" y="-610.5" font-family="Helvetica,sans-Serif" font-size="10.00">normalized()</text>
<text text-anchor="start" x="338.5" y="-595.5" font-family="Helvetica,sans-Serif" font-size="10.00">+</text>
<text text-anchor="start" x="359.5" y="-595.5" font-family="Helvetica,sans-Serif" font-size="10.00">dot()</text>
<text text-anchor="start" x="338.5" y="-580.5" font-family="Helvetica,sans-Serif" font-size="10.00">+</text>
<text text-anchor="start" x="359.5" y="-580.5" font-family="Helvetica,sans-Serif" font-size="10.00">operator*()</text>
<text text-anchor="start" x="338.5" y="-565.5" font-family="Helvetica,sans-Serif" font-size="10.00">+</text>
<text text-anchor="start" x="359.5" y="-565.5" font-family="Helvetica,sans-Serif" font-size="10.00">rotateVector()</text>
<text text-anchor="start" x="338.5" y="-550.5" font-family="Helvetica,sans-Serif" font-size="10.00">+</text>
<text text-anchor="start" x="359.5" y="-550.5" font-family="Helvetica,sans-Serif" font-size="10.00">toMatrix()</text>
<text text-anchor="start" x="338.5" y="-535.5" font-family="Helvetica,sans-Serif" font-size="10.00">+</text>
<text text-anchor="start" x="359.5" y="-535.5" font-family="Helvetica,sans-Serif" font-size="10.00">fromAxisAngle()</text>
<text text-anchor="start" x="338.5" y="-520.5" font-family="Helvetica,sans-Serif" font-size="10.00">+</text>
<text text-anchor="start" x="359.5" y="-520.5" font-family="Helvetica,sans-Serif" font-size="10.00">fromMatrix()</text>
<text text-anchor="start" x="338.5" y="-505.5" font-family="Helvetica,sans-Serif" font-size="10.00">+</text>
<text text-anchor="start" x="359.5" y="-505.5" font-family="Helvetica,sans-Serif" font-size="10.00">lookRotation()</text>
<polygon fill="#bfbfbf" stroke="#bfbfbf" points="326.5,-770.5 326.5,-770.5 460.5,-770.5 460.5,-770.5 326.5,-770.5"/>
<polygon fill="#bfbfbf" stroke="#bfbfbf" points="326.5,-710.5 326.5,-710.5 357.5,-710.5 357.5,-710.5 326.5,-710.5"/>
<polygon fill="#bfbfbf" stroke="#bfbfbf" points="357.5,-710.5 357.5,-710.5 460.5,-710.5 460.5,-710.5 357.5,-710.5"/>
<polygon fill="none" stroke="#bfbfbf" points="326.5,-499 326.5,-788 460.5,-788 460.5,-499 326.5,-499"/>
</a>
</g>
</g>
<!-- Node7&#45;&gt;Node5 -->
<g id="edge6_Node000005_Node000007" class="edge">
<title>Node7&#45;&gt;Node5</title>
<g id="a_edge6_Node000005_Node000007"><a xlink:title=" ">
<path fill="none" stroke="#63b8ff" d="M358.6,-498.98C353.82,-479.29 349.16,-460.12 345.09,-443.39"/>
<polygon fill="none" stroke="#63b8ff" points="345.07,-443.33 339.77,-438.44 342.24,-431.67 347.54,-436.55 345.07,-443.33"/>
</a>
</g>
<text text-anchor="middle" x="378.5" y="-467.5" font-family="Helvetica,sans-Serif" font-size="10.00" fill="grey"> +rotation</text>
</g>
<!-- Node8 -->
<g id="Node000008" class="node">
<title>Node8</title>
<g id="a_Node000008"><a xlink:href="structFrameEngine_1_1MeshComponent.html" target="_top" xlink:title=" ">
<polygon fill="white" stroke="transparent" points="605,-426 442,-426 442,-347 605,-347 605,-426"/>
<text text-anchor="start" x="447.5" y="-413.5" font-family="Helvetica,sans-Serif" font-size="10.00">FrameEngine::MeshComponent</text>
<text text-anchor="start" x="459" y="-398.5" font-family="Helvetica,sans-Serif" font-size="10.00">+</text>
<text text-anchor="start" x="484.5" y="-398.5" font-family="Helvetica,sans-Serif" font-size="10.00">wireframe</text>
<text text-anchor="start" x="459" y="-383.5" font-family="Helvetica,sans-Serif" font-size="10.00">+</text>
<text text-anchor="start" x="484.5" y="-383.5" font-family="Helvetica,sans-Serif" font-size="10.00">MeshComponent()</text>
<text text-anchor="start" x="459" y="-368.5" font-family="Helvetica,sans-Serif" font-size="10.00">+</text>
<text text-anchor="start" x="484.5" y="-368.5" font-family="Helvetica,sans-Serif" font-size="10.00">setWireframe()</text>
<text text-anchor="start" x="459" y="-353.5" font-family="Helvetica,sans-Serif" font-size="10.00">+</text>
<text text-anchor="start" x="484.5" y="-353.5" font-family="Helvetica,sans-Serif" font-size="10.00">isWireframe()</text>
<polygon fill="#bfbfbf" stroke="#bfbfbf" points="442.5,-408.5 442.5,-408.5 605.5,-408.5 605.5,-408.5 442.5,-408.5"/>
<polygon fill="#bfbfbf" stroke="#bfbfbf" points="442.5,-393.5 442.5,-393.5 482.5,-393.5 482.5,-393.5 442.5,-393.5"/>
<polygon fill="#bfbfbf" stroke="#bfbfbf" points="482.5,-393.5 482.5,-393.5 605.5,-393.5 605.5,-393.5 482.5,-393.5"/>
<polygon fill="none" stroke="#bfbfbf" points="442,-347 442,-426 605,-426 605,-347 442,-347"/>
</a>
</g>
</g>
<!-- Node8&#45;&gt;Node2 -->
<g id="edge7_Node000002_Node000008" class="edge">
<title>Node8&#45;&gt;Node2</title>
<g id="a_edge7_Node000002_Node000008"><a xlink:title=" ">
<path fill="none" stroke="#63b8ff" d="M500.27,-346.82C490.99,-331.37 480,-313.08 469.38,-295.39"/>
<polygon fill="none" stroke="#63b8ff" points="469.36,-295.36 462.84,-292.28 463.18,-285.07 469.7,-288.16 469.36,-295.36"/>
</a>
</g>
<text text-anchor="middle" x="525" y="-306" font-family="Helvetica,sans-Serif" font-size="10.00" fill="grey"> +meshComponent</text>
</g>
<!-- Node9 -->
<g id="Node000009" class="node">
<title>Node9</title>
<g id="a_Node000009"><a xlink:href="classFrameEngine_1_1Mesh.html" target="_top" xlink:title="The Mesh class encapsulates geometry data and uploads it to the GPU.">
<polygon fill="white" stroke="transparent" points="612,-735.5 479,-735.5 479,-551.5 612,-551.5 612,-735.5"/>
<text text-anchor="start" x="497.5" y="-723.5" font-family="Helvetica,sans-Serif" font-size="10.00">FrameEngine::Mesh</text>
<text text-anchor="start" x="544" y="-708.5" font-family="Helvetica,sans-Serif" font-size="10.00"> </text>
<text text-anchor="start" x="483.5" y="-693.5" font-family="Helvetica,sans-Serif" font-size="10.00">+</text>
<text text-anchor="start" x="496.5" y="-693.5" font-family="Helvetica,sans-Serif" font-size="10.00">Mesh()</text>
<text text-anchor="start" x="483.5" y="-678.5" font-family="Helvetica,sans-Serif" font-size="10.00">+</text>
<text text-anchor="start" x="496.5" y="-678.5" font-family="Helvetica,sans-Serif" font-size="10.00">Mesh()</text>
<text text-anchor="start" x="483.5" y="-663.5" font-family="Helvetica,sans-Serif" font-size="10.00">+</text>
<text text-anchor="start" x="496.5" y="-663.5" font-family="Helvetica,sans-Serif" font-size="10.00">~Mesh()</text>
<text text-anchor="start" x="483.5" y="-648.5" font-family="Helvetica,sans-Serif" font-size="10.00">+</text>
<text text-anchor="start" x="496.5" y="-648.5" font-family="Helvetica,sans-Serif" font-size="10.00">draw()</text>
<text text-anchor="start" x="483.5" y="-633.5" font-family="Helvetica,sans-Serif" font-size="10.00">+</text>
<text text-anchor="start" x="496.5" y="-633.5" font-family="Helvetica,sans-Serif" font-size="10.00">getVertexData()</text>
<text text-anchor="start" x="483.5" y="-618.5" font-family="Helvetica,sans-Serif" font-size="10.00">+</text>
<text text-anchor="start" x="496.5" y="-618.5" font-family="Helvetica,sans-Serif" font-size="10.00">getVAO()</text>
<text text-anchor="start" x="483.5" y="-603.5" font-family="Helvetica,sans-Serif" font-size="10.00">+</text>
<text text-anchor="start" x="496.5" y="-603.5" font-family="Helvetica,sans-Serif" font-size="10.00">getVBO()</text>
<text text-anchor="start" x="483.5" y="-588.5" font-family="Helvetica,sans-Serif" font-size="10.00">+</text>
<text text-anchor="start" x="496.5" y="-588.5" font-family="Helvetica,sans-Serif" font-size="10.00">updateVertexPosition()</text>
<text text-anchor="start" x="483.5" y="-573.5" font-family="Helvetica,sans-Serif" font-size="10.00">+</text>
<text text-anchor="start" x="496.5" y="-573.5" font-family="Helvetica,sans-Serif" font-size="10.00">updateBuffer()</text>
<text text-anchor="start" x="483.5" y="-558.5" font-family="Helvetica,sans-Serif" font-size="10.00">+</text>
<text text-anchor="start" x="496.5" y="-558.5" font-family="Helvetica,sans-Serif" font-size="10.00">loadFromOBJ()</text>
<polygon fill="#666666" stroke="#666666" points="479.5,-718.5 479.5,-718.5 612.5,-718.5 612.5,-718.5 479.5,-718.5"/>
<polygon fill="#666666" stroke="#666666" points="479.5,-703.5 479.5,-703.5 612.5,-703.5 612.5,-703.5 479.5,-703.5"/>
<polygon fill="none" stroke="#666666" points="479,-551.5 479,-735.5 612,-735.5 612,-551.5 479,-551.5"/>
</a>
</g>
</g>
<!-- Node9&#45;&gt;Node8 -->
<g id="edge8_Node000008_Node000009" class="edge">
<title>Node9&#45;&gt;Node8</title>
<g id="a_edge8_Node000008_Node000009"><a xlink:title=" ">
<path fill="none" stroke="#63b8ff" d="M537.62,-551.16C534.34,-513.18 530.66,-470.54 527.88,-438.31"/>
<polygon fill="none" stroke="#63b8ff" points="527.86,-438.01 523.36,-432.38 526.83,-426.06 531.33,-431.69 527.86,-438.01"/>
</a>
</g>
<text text-anchor="middle" x="550" y="-467.5" font-family="Helvetica,sans-Serif" font-size="10.00" fill="grey"> +mesh</text>
</g>
<!-- Node10 -->
<g id="Node000010" class="node">
<title>Node10</title>
<g id="a_Node000010"><a xlink:href="structFrameEngine_1_1MaterialComponent.html" target="_top" xlink:title=" ">
<polygon fill="white" stroke="transparent" points="800,-411 623,-411 623,-362 800,-362 800,-411"/>
<text text-anchor="start" x="628.5" y="-398.5" font-family="Helvetica,sans-Serif" font-size="10.00">FrameEngine::MaterialComponent</text>
<text text-anchor="start" x="710" y="-383.5" font-family="Helvetica,sans-Serif" font-size="10.00"> </text>
<text text-anchor="start" x="640" y="-368.5" font-family="Helvetica,sans-Serif" font-size="10.00">+</text>
<text text-anchor="start" x="665.5" y="-368.5" font-family="Helvetica,sans-Serif" font-size="10.00">MaterialComponent()</text>
<polygon fill="#bfbfbf" stroke="#bfbfbf" points="623.5,-393.5 623.5,-393.5 800.5,-393.5 800.5,-393.5 623.5,-393.5"/>
<polygon fill="#bfbfbf" stroke="#bfbfbf" points="623.5,-378.5 623.5,-378.5 800.5,-378.5 800.5,-378.5 623.5,-378.5"/>
<polygon fill="none" stroke="#bfbfbf" points="623,-362 623,-411 800,-411 800,-362 623,-362"/>
</a>
</g>
</g>
<!-- Node10&#45;&gt;Node2 -->
<g id="edge9_Node000002_Node000010" class="edge">
<title>Node10&#45;&gt;Node2</title>
<g id="a_edge9_Node000002_Node000010"><a xlink:title=" ">
<path fill="none" stroke="#63b8ff" d="M674.35,-361.91C647.44,-345.05 610.05,-322.06 576.5,-303 549.63,-287.73 519.57,-271.7 493.45,-258.1"/>
<polygon fill="none" stroke="#63b8ff" points="493.17,-257.95 486,-258.74 482.52,-252.43 489.69,-251.64 493.17,-257.95"/>
</a>
</g>
<text text-anchor="middle" x="649" y="-306" font-family="Helvetica,sans-Serif" font-size="10.00" fill="grey"> +materialComponent</text>
</g>
<!-- Node11 -->
<g id="Node000011" class="node">
<title>Node11</title>
<g id="a_Node000011"><a xlink:href="classFrameEngine_1_1Material.html" target="_top" xlink:title=" ">
<polygon fill="white" stroke="transparent" points="772,-690.5 651,-690.5 651,-596.5 772,-596.5 772,-690.5"/>
<text text-anchor="start" x="656.5" y="-678.5" font-family="Helvetica,sans-Serif" font-size="10.00">FrameEngine::Material</text>
<text text-anchor="start" x="710" y="-663.5" font-family="Helvetica,sans-Serif" font-size="10.00"> </text>
<text text-anchor="start" x="660.5" y="-648.5" font-family="Helvetica,sans-Serif" font-size="10.00">+</text>
<text text-anchor="start" x="678.5" y="-648.5" font-family="Helvetica,sans-Serif" font-size="10.00">Material()</text>
<text text-anchor="start" x="660.5" y="-633.5" font-family="Helvetica,sans-Serif" font-size="10.00">+</text>
<text text-anchor="start" x="678.5" y="-633.5" font-family="Helvetica,sans-Serif" font-size="10.00">~Material()</text>
<text text-anchor="start" x="660.5" y="-618.5" font-family="Helvetica,sans-Serif" font-size="10.00">+</text>
<text text-anchor="start" x="678.5" y="-618.5" font-family="Helvetica,sans-Serif" font-size="10.00">getShader()</text>
<text text-anchor="start" x="660.5" y="-603.5" font-family="Helvetica,sans-Serif" font-size="10.00">+</text>
<text text-anchor="start" x="678.5" y="-603.5" font-family="Helvetica,sans-Serif" font-size="10.00">applyUniforms()</text>
<polygon fill="#bfbfbf" stroke="#bfbfbf" points="651.5,-673.5 651.5,-673.5 772.5,-673.5 772.5,-673.5 651.5,-673.5"/>
<polygon fill="#bfbfbf" stroke="#bfbfbf" points="651.5,-658.5 651.5,-658.5 772.5,-658.5 772.5,-658.5 651.5,-658.5"/>
<polygon fill="none" stroke="#bfbfbf" points="651,-596.5 651,-690.5 772,-690.5 772,-596.5 651,-596.5"/>
</a>
</g>
</g>
<!-- Node11&#45;&gt;Node10 -->
<g id="edge10_Node000010_Node000011" class="edge">
<title>Node11&#45;&gt;Node10</title>
<g id="a_edge10_Node000010_Node000011"><a xlink:title=" ">
<path fill="none" stroke="#63b8ff" d="M711.5,-596.32C711.5,-546.58 711.5,-468.48 711.5,-423.22"/>
<polygon fill="none" stroke="#63b8ff" points="711.5,-423.11 707.5,-417.11 711.5,-411.11 715.5,-417.11 711.5,-423.11"/>
</a>
</g>
<text text-anchor="middle" x="738" y="-467.5" font-family="Helvetica,sans-Serif" font-size="10.00" fill="grey"> +material</text>
</g>
<!-- Node12 -->
<g id="Node000012" class="node">
<title>Node12</title>
<g id="a_Node000012"><a xlink:href="classFrameEngine_1_1Shader.html" target="_top" xlink:title=" ">
<polygon fill="white" stroke="transparent" points="768.5,-1004 654.5,-1004 654.5,-835 768.5,-835 768.5,-1004"/>
<text text-anchor="start" x="659.5" y="-991.5" font-family="Helvetica,sans-Serif" font-size="10.00">FrameEngine::Shader</text>
<text text-anchor="start" x="709.5" y="-976.5" font-family="Helvetica,sans-Serif" font-size="10.00"> </text>
<text text-anchor="start" x="659.5" y="-961.5" font-family="Helvetica,sans-Serif" font-size="10.00">+</text>
<text text-anchor="start" x="673.5" y="-961.5" font-family="Helvetica,sans-Serif" font-size="10.00">Shader()</text>
<text text-anchor="start" x="659.5" y="-946.5" font-family="Helvetica,sans-Serif" font-size="10.00">+</text>
<text text-anchor="start" x="673.5" y="-946.5" font-family="Helvetica,sans-Serif" font-size="10.00">~Shader()</text>
<text text-anchor="start" x="659.5" y="-931.5" font-family="Helvetica,sans-Serif" font-size="10.00">+</text>
<text text-anchor="start" x="673.5" y="-931.5" font-family="Helvetica,sans-Serif" font-size="10.00">bind()</text>
<text text-anchor="start" x="659.5" y="-916.5" font-family="Helvetica,sans-Serif" font-size="10.00">+</text>
<text text-anchor="start" x="673.5" y="-916.5" font-family="Helvetica,sans-Serif" font-size="10.00">unbind()</text>
<text text-anchor="start" x="659.5" y="-901.5" font-family="Helvetica,sans-Serif" font-size="10.00">+</text>
<text text-anchor="start" x="673.5" y="-901.5" font-family="Helvetica,sans-Serif" font-size="10.00">setUniformInt()</text>
<text text-anchor="start" x="659.5" y="-886.5" font-family="Helvetica,sans-Serif" font-size="10.00">+</text>
<text text-anchor="start" x="673.5" y="-886.5" font-family="Helvetica,sans-Serif" font-size="10.00">setUniformFloat()</text>
<text text-anchor="start" x="659.5" y="-871.5" font-family="Helvetica,sans-Serif" font-size="10.00">+</text>
<text text-anchor="start" x="673.5" y="-871.5" font-family="Helvetica,sans-Serif" font-size="10.00">setUniformVec3()</text>
<text text-anchor="start" x="659.5" y="-856.5" font-family="Helvetica,sans-Serif" font-size="10.00">+</text>
<text text-anchor="start" x="673.5" y="-856.5" font-family="Helvetica,sans-Serif" font-size="10.00">setUniformMat4()</text>
<text text-anchor="start" x="659.5" y="-841.5" font-family="Helvetica,sans-Serif" font-size="10.00">+</text>
<text text-anchor="start" x="673.5" y="-841.5" font-family="Helvetica,sans-Serif" font-size="10.00">getProgramID()</text>
<polygon fill="#bfbfbf" stroke="#bfbfbf" points="654.5,-986.5 654.5,-986.5 768.5,-986.5 768.5,-986.5 654.5,-986.5"/>
<polygon fill="#bfbfbf" stroke="#bfbfbf" points="654.5,-971.5 654.5,-971.5 768.5,-971.5 768.5,-971.5 654.5,-971.5"/>
<polygon fill="none" stroke="#bfbfbf" points="654.5,-835 654.5,-1004 768.5,-1004 768.5,-835 654.5,-835"/>
</a>
</g>
</g>
<!-- Node12&#45;&gt;Node11 -->
<g id="edge11_Node000011_Node000012" class="edge">
<title>Node12&#45;&gt;Node11</title>
<g id="a_edge11_Node000011_Node000012"><a xlink:title=" ">
<path fill="none" stroke="#63b8ff" d="M711.5,-834.8C711.5,-792.06 711.5,-741.11 711.5,-702.69"/>
<polygon fill="none" stroke="#63b8ff" points="711.5,-702.69 707.5,-696.69 711.5,-690.69 715.5,-696.69 711.5,-702.69"/>
</a>
</g>
<text text-anchor="middle" x="734" y="-809" font-family="Helvetica,sans-Serif" font-size="10.00" fill="grey"> #shader</text>
</g>
</g>
</svg>
