<?xml version="1.0" encoding="UTF-8" standalone="no"?>
<!DOCTYPE svg PUBLIC "-//W3C//DTD SVG 1.1//EN"
 "http://www.w3.org/Graphics/SVG/1.1/DTD/svg11.dtd">
<!-- Generated by graphviz version 2.43.0 (0)
 -->
<!-- Title: Simulation Pages: 1 -->
<svg width="300pt" height="449pt"
 viewBox="0.00 0.00 300.00 449.00" xmlns="http://www.w3.org/2000/svg" xmlns:xlink="http://www.w3.org/1999/xlink">
<g id="graph0" class="graph" transform="scale(1 1) rotate(0) translate(4 445)">
<title>Simulation</title>
<!-- Node1 -->
<g id="Node000001" class="node">
<title>Node1</title>
<g id="a_Node000001"><a xlink:title=" ">
<polygon fill="#999999" stroke="transparent" points="197,-64 106,-64 106,0 197,0 197,-64"/>
<text text-anchor="start" x="125.5" y="-52" font-family="Helvetica,sans-Serif" font-size="10.00">Simulation</text>
<text text-anchor="start" x="150" y="-37" font-family="Helvetica,sans-Serif" font-size="10.00"> </text>
<text text-anchor="start" x="110.5" y="-22" font-family="Helvetica,sans-Serif" font-size="10.00">+</text>
<text text-anchor="start" x="123.5" y="-22" font-family="Helvetica,sans-Serif" font-size="10.00">on_start()</text>
<text text-anchor="start" x="110.5" y="-7" font-family="Helvetica,sans-Serif" font-size="10.00">+</text>
<text text-anchor="start" x="123.5" y="-7" font-family="Helvetica,sans-Serif" font-size="10.00">fixed_update()</text>
<polygon fill="#666666" stroke="#666666" points="106.5,-47 106.5,-47 197.5,-47 197.5,-47 106.5,-47"/>
<polygon fill="#666666" stroke="#666666" points="106.5,-32 106.5,-32 197.5,-32 197.5,-32 106.5,-32"/>
<polygon fill="none" stroke="#666666" points="106,0 106,-64 197,-64 197,0 106,0"/>
</a>
</g>
</g>
<!-- Node2 -->
<g id="Node000002" class="node">
<title>Node2</title>
<g id="a_Node000002"><a xlink:href="classFrameEngine_1_1Engine.html" target="_top" xlink:title="Core engine class that manages the main loop, physics, and rendering.">
<polygon fill="white" stroke="transparent" points="208,-240 95,-240 95,-101 208,-101 208,-240"/>
<text text-anchor="start" x="100.5" y="-227.5" font-family="Helvetica,sans-Serif" font-size="10.00">FrameEngine::Engine</text>
<text text-anchor="start" x="150" y="-212.5" font-family="Helvetica,sans-Serif" font-size="10.00"> </text>
<text text-anchor="start" x="105" y="-197.5" font-family="Helvetica,sans-Serif" font-size="10.00">+</text>
<text text-anchor="start" x="123.5" y="-197.5" font-family="Helvetica,sans-Serif" font-size="10.00">Engine()</text>
<text text-anchor="start" x="105" y="-182.5" font-family="Helvetica,sans-Serif" font-size="10.00">+</text>
<text text-anchor="start" x="123.5" y="-182.5" font-family="Helvetica,sans-Serif" font-size="10.00">~Engine()</text>
<text text-anchor="start" x="105" y="-167.5" font-family="Helvetica,sans-Serif" font-size="10.00">+</text>
<text text-anchor="start" x="123.5" y="-167.5" font-family="Helvetica,sans-Serif" font-size="10.00">init()</text>
<text text-anchor="start" x="105" y="-152.5" font-family="Helvetica,sans-Serif" font-size="10.00">+</text>
<text text-anchor="start" x="123.5" y="-152.5" font-family="Helvetica,sans-Serif" font-size="10.00">run()</text>
<text text-anchor="start" x="105" y="-137.5" font-family="Helvetica,sans-Serif" font-size="10.00">+</text>
<text text-anchor="start" x="123.5" y="-137.5" font-family="Helvetica,sans-Serif" font-size="10.00">stop()</text>
<text text-anchor="start" x="105" y="-122.5" font-family="Helvetica,sans-Serif" font-size="10.00">+</text>
<text text-anchor="start" x="123.5" y="-122.5" font-family="Helvetica,sans-Serif" font-size="10.00">fixed_update()</text>
<text text-anchor="start" x="105" y="-107.5" font-family="Helvetica,sans-Serif" font-size="10.00">+</text>
<text text-anchor="start" x="123.5" y="-107.5" font-family="Helvetica,sans-Serif" font-size="10.00">on_start()</text>
<polygon fill="#666666" stroke="#666666" points="95.5,-222.5 95.5,-222.5 208.5,-222.5 208.5,-222.5 95.5,-222.5"/>
<polygon fill="#666666" stroke="#666666" points="95.5,-207.5 95.5,-207.5 208.5,-207.5 208.5,-207.5 95.5,-207.5"/>
<polygon fill="none" stroke="#666666" points="95,-101 95,-240 208,-240 208,-101 95,-101"/>
</a>
</g>
</g>
<!-- Node2&#45;&gt;Node1 -->
<g id="edge1_Node000001_Node000002" class="edge">
<title>Node2&#45;&gt;Node1</title>
<g id="a_edge1_Node000001_Node000002"><a xlink:title=" ">
<path fill="none" stroke="#63b8ff" d="M151.5,-90.63C151.5,-81.27 151.5,-72.19 151.5,-64.1"/>
<polygon fill="none" stroke="#63b8ff" points="148,-90.85 151.5,-100.85 155,-90.85 148,-90.85"/>
</a>
</g>
</g>
<!-- Node3 -->
<g id="Node000003" class="node">
<title>Node3</title>
<g id="a_Node000003"><a xlink:href="classFrameEngine_1_1Window.html" target="_top" xlink:title=" ">
<polygon fill="white" stroke="transparent" points="149,-441 0,-441 0,-287 149,-287 149,-441"/>
<text text-anchor="start" x="20.5" y="-429" font-family="Helvetica,sans-Serif" font-size="10.00">FrameEngine::Window</text>
<text text-anchor="start" x="73" y="-414" font-family="Helvetica,sans-Serif" font-size="10.00"> </text>
<text text-anchor="start" x="4.5" y="-399" font-family="Helvetica,sans-Serif" font-size="10.00">+</text>
<text text-anchor="start" x="17.5" y="-399" font-family="Helvetica,sans-Serif" font-size="10.00">Window()</text>
<text text-anchor="start" x="4.5" y="-384" font-family="Helvetica,sans-Serif" font-size="10.00">+</text>
<text text-anchor="start" x="17.5" y="-384" font-family="Helvetica,sans-Serif" font-size="10.00">~Window()</text>
<text text-anchor="start" x="4.5" y="-369" font-family="Helvetica,sans-Serif" font-size="10.00">+</text>
<text text-anchor="start" x="17.5" y="-369" font-family="Helvetica,sans-Serif" font-size="10.00">isOpen()</text>
<text text-anchor="start" x="4.5" y="-354" font-family="Helvetica,sans-Serif" font-size="10.00">+</text>
<text text-anchor="start" x="17.5" y="-354" font-family="Helvetica,sans-Serif" font-size="10.00">pollEvents()</text>
<text text-anchor="start" x="4.5" y="-339" font-family="Helvetica,sans-Serif" font-size="10.00">+</text>
<text text-anchor="start" x="17.5" y="-339" font-family="Helvetica,sans-Serif" font-size="10.00">swapBuffers()</text>
<text text-anchor="start" x="4.5" y="-324" font-family="Helvetica,sans-Serif" font-size="10.00">+</text>
<text text-anchor="start" x="17.5" y="-324" font-family="Helvetica,sans-Serif" font-size="10.00">getWidth()</text>
<text text-anchor="start" x="4.5" y="-309" font-family="Helvetica,sans-Serif" font-size="10.00">+</text>
<text text-anchor="start" x="17.5" y="-309" font-family="Helvetica,sans-Serif" font-size="10.00">getHeight()</text>
<text text-anchor="start" x="4.5" y="-294" font-family="Helvetica,sans-Serif" font-size="10.00">+</text>
<text text-anchor="start" x="17.5" y="-294" font-family="Helvetica,sans-Serif" font-size="10.00">framebufferSizeCallback()</text>
<polygon fill="#bfbfbf" stroke="#bfbfbf" points="0.5,-424 0.5,-424 149.5,-424 149.5,-424 0.5,-424"/>
<polygon fill="#bfbfbf" stroke="#bfbfbf" points="0.5,-409 0.5,-409 149.5,-409 149.5,-409 0.5,-409"/>
<polygon fill="none" stroke="#bfbfbf" points="0,-287 0,-441 149,-441 149,-287 0,-287"/>
</a>
</g>
</g>
<!-- Node3&#45;&gt;Node2 -->
<g id="edge2_Node000002_Node000003" class="edge">
<title>Node3&#45;&gt;Node2</title>
<g id="a_edge2_Node000002_Node000003"><a xlink:title=" ">
<path fill="none" stroke="#63b8ff" d="M105.15,-286.76C109.86,-275.07 114.72,-262.96 119.46,-251.19"/>
<polygon fill="none" stroke="#63b8ff" points="119.47,-251.17 117.99,-244.11 123.94,-240.03 125.42,-247.09 119.47,-251.17"/>
</a>
</g>
<text text-anchor="middle" x="140" y="-261" font-family="Helvetica,sans-Serif" font-size="10.00" fill="grey"> #window</text>
</g>
<!-- Node4 -->
<g id="Node000004" class="node">
<title>Node4</title>
<g id="a_Node000004"><a xlink:href="classFrameEngine_1_1Renderer.html" target="_top" xlink:title="Handles the drawing of scene objects and lights.">
<polygon fill="white" stroke="transparent" points="292,-426 167,-426 167,-302 292,-302 292,-426"/>
<text text-anchor="start" x="172.5" y="-414" font-family="Helvetica,sans-Serif" font-size="10.00">FrameEngine::Renderer</text>
<text text-anchor="start" x="228" y="-399" font-family="Helvetica,sans-Serif" font-size="10.00"> </text>
<text text-anchor="start" x="182" y="-384" font-family="Helvetica,sans-Serif" font-size="10.00">+</text>
<text text-anchor="start" x="205.5" y="-384" font-family="Helvetica,sans-Serif" font-size="10.00">Renderer()</text>
<text text-anchor="start" x="182" y="-369" font-family="Helvetica,sans-Serif" font-size="10.00">+</text>
<text text-anchor="start" x="205.5" y="-369" font-family="Helvetica,sans-Serif" font-size="10.00">render()</text>
<text text-anchor="start" x="182" y="-354" font-family="Helvetica,sans-Serif" font-size="10.00">+</text>
<text text-anchor="start" x="205.5" y="-354" font-family="Helvetica,sans-Serif" font-size="10.00">getCamera()</text>
<text text-anchor="start" x="182" y="-339" font-family="Helvetica,sans-Serif" font-size="10.00">+</text>
<text text-anchor="start" x="205.5" y="-339" font-family="Helvetica,sans-Serif" font-size="10.00">initialize()</text>
<text text-anchor="start" x="182" y="-324" font-family="Helvetica,sans-Serif" font-size="10.00">+</text>
<text text-anchor="start" x="205.5" y="-324" font-family="Helvetica,sans-Serif" font-size="10.00">clear()</text>
<text text-anchor="start" x="182" y="-309" font-family="Helvetica,sans-Serif" font-size="10.00">+</text>
<text text-anchor="start" x="205.5" y="-309" font-family="Helvetica,sans-Serif" font-size="10.00">shutdown()</text>
<polygon fill="#666666" stroke="#666666" points="167.5,-409 167.5,-409 292.5,-409 292.5,-409 167.5,-409"/>
<polygon fill="#666666" stroke="#666666" points="167.5,-394 167.5,-394 292.5,-394 292.5,-394 167.5,-394"/>
<polygon fill="none" stroke="#666666" points="167,-302 167,-426 292,-426 292,-302 167,-302"/>
</a>
</g>
</g>
<!-- Node4&#45;&gt;Node2 -->
<g id="edge3_Node000002_Node000004" class="edge">
<title>Node4&#45;&gt;Node2</title>
<g id="a_edge3_Node000002_Node000004"><a xlink:title=" ">
<path fill="none" stroke="#63b8ff" d="M204.61,-301.88C198.09,-285.87 190.96,-268.37 184.1,-251.54"/>
<polygon fill="none" stroke="#63b8ff" points="183.93,-251.13 177.97,-247.08 179.41,-240.01 185.37,-244.06 183.93,-251.13"/>
</a>
</g>
<text text-anchor="middle" x="217" y="-261" font-family="Helvetica,sans-Serif" font-size="10.00" fill="grey"> #renderer</text>
</g>
</g>
</svg>
