<?xml version="1.0" encoding="UTF-8" standalone="no"?>
<!DOCTYPE svg PUBLIC "-//W3C//DTD SVG 1.1//EN"
 "http://www.w3.org/Graphics/SVG/1.1/DTD/svg11.dtd">
<!-- Generated by graphviz version 2.43.0 (0)
 -->
<!-- Title: FrameEngine::Camera Pages: 1 -->
<svg width="135pt" height="482pt"
 viewBox="0.00 0.00 135.00 482.00" xmlns="http://www.w3.org/2000/svg" xmlns:xlink="http://www.w3.org/1999/xlink">
<g id="graph0" class="graph" transform="scale(1 1) rotate(0) translate(4 478)">
<title>FrameEngine::Camera</title>
<!-- Node1 -->
<g id="Node000001" class="node">
<title>Node1</title>
<g id="a_Node000001"><a xlink:title="A camera.">
<polygon fill="#999999" stroke="transparent" points="126,-124 1,-124 1,0 126,0 126,-124"/>
<text text-anchor="start" x="9.5" y="-112" font-family="Helvetica,sans-Serif" font-size="10.00">FrameEngine::Camera</text>
<text text-anchor="start" x="62" y="-97" font-family="Helvetica,sans-Serif" font-size="10.00"> </text>
<text text-anchor="start" x="5.5" y="-82" font-family="Helvetica,sans-Serif" font-size="10.00">+</text>
<text text-anchor="start" x="18.5" y="-82" font-family="Helvetica,sans-Serif" font-size="10.00">Camera()</text>
<text text-anchor="start" x="5.5" y="-67" font-family="Helvetica,sans-Serif" font-size="10.00">+</text>
<text text-anchor="start" x="18.5" y="-67" font-family="Helvetica,sans-Serif" font-size="10.00">getViewMatrix()</text>
<text text-anchor="start" x="5.5" y="-52" font-family="Helvetica,sans-Serif" font-size="10.00">+</text>
<text text-anchor="start" x="18.5" y="-52" font-family="Helvetica,sans-Serif" font-size="10.00">updateViewMatrix()</text>
<text text-anchor="start" x="5.5" y="-37" font-family="Helvetica,sans-Serif" font-size="10.00">+</text>
<text text-anchor="start" x="18.5" y="-37" font-family="Helvetica,sans-Serif" font-size="10.00">getProjectionMatrix()</text>
<text text-anchor="start" x="5.5" y="-22" font-family="Helvetica,sans-Serif" font-size="10.00">+</text>
<text text-anchor="start" x="18.5" y="-22" font-family="Helvetica,sans-Serif" font-size="10.00">setProjection()</text>
<text text-anchor="start" x="5.5" y="-7" font-family="Helvetica,sans-Serif" font-size="10.00">+</text>
<text text-anchor="start" x="18.5" y="-7" font-family="Helvetica,sans-Serif" font-size="10.00">getFrontVector()</text>
<polygon fill="#666666" stroke="#666666" points="1.5,-107 1.5,-107 126.5,-107 126.5,-107 1.5,-107"/>
<polygon fill="#666666" stroke="#666666" points="1.5,-92 1.5,-92 126.5,-92 126.5,-92 1.5,-92"/>
<polygon fill="none" stroke="#666666" points="1,0 1,-124 126,-124 126,0 1,0"/>
</a>
</g>
</g>
<!-- Node2 -->
<g id="Node000002" class="node">
<title>Node2</title>
<g id="a_Node000002"><a xlink:href="classFrameEngine_1_1Object.html" target="_top" xlink:title="A high&#45;level ECS entity wrapper with default components.">
<polygon fill="white" stroke="transparent" points="123,-314 4,-314 4,-160 123,-160 123,-314"/>
<text text-anchor="start" x="13" y="-302" font-family="Helvetica,sans-Serif" font-size="10.00">FrameEngine::Object</text>
<text text-anchor="start" x="8.5" y="-287" font-family="Helvetica,sans-Serif" font-size="10.00">+</text>
<text text-anchor="start" x="21.5" y="-287" font-family="Helvetica,sans-Serif" font-size="10.00">transform</text>
<text text-anchor="start" x="8.5" y="-272" font-family="Helvetica,sans-Serif" font-size="10.00">+</text>
<text text-anchor="start" x="21.5" y="-272" font-family="Helvetica,sans-Serif" font-size="10.00">meshComponent</text>
<text text-anchor="start" x="8.5" y="-257" font-family="Helvetica,sans-Serif" font-size="10.00">+</text>
<text text-anchor="start" x="21.5" y="-257" font-family="Helvetica,sans-Serif" font-size="10.00">materialComponent</text>
<text text-anchor="start" x="8.5" y="-242" font-family="Helvetica,sans-Serif" font-size="10.00">+</text>
<text text-anchor="start" x="21.5" y="-242" font-family="Helvetica,sans-Serif" font-size="10.00">Object()</text>
<text text-anchor="start" x="8.5" y="-227" font-family="Helvetica,sans-Serif" font-size="10.00">+</text>
<text text-anchor="start" x="21.5" y="-227" font-family="Helvetica,sans-Serif" font-size="10.00">setMesh()</text>
<text text-anchor="start" x="8.5" y="-212" font-family="Helvetica,sans-Serif" font-size="10.00">+</text>
<text text-anchor="start" x="21.5" y="-212" font-family="Helvetica,sans-Serif" font-size="10.00">setMaterial()</text>
<text text-anchor="start" x="8.5" y="-197" font-family="Helvetica,sans-Serif" font-size="10.00">+</text>
<text text-anchor="start" x="21.5" y="-197" font-family="Helvetica,sans-Serif" font-size="10.00">rotate()</text>
<text text-anchor="start" x="8.5" y="-182" font-family="Helvetica,sans-Serif" font-size="10.00">+</text>
<text text-anchor="start" x="21.5" y="-182" font-family="Helvetica,sans-Serif" font-size="10.00">move()</text>
<text text-anchor="start" x="8.5" y="-167" font-family="Helvetica,sans-Serif" font-size="10.00">+</text>
<text text-anchor="start" x="21.5" y="-167" font-family="Helvetica,sans-Serif" font-size="10.00">lookAt()</text>
<polygon fill="#666666" stroke="#666666" points="4.5,-297 4.5,-297 123.5,-297 123.5,-297 4.5,-297"/>
<polygon fill="#666666" stroke="#666666" points="4.5,-252 4.5,-252 19.5,-252 19.5,-252 4.5,-252"/>
<polygon fill="#666666" stroke="#666666" points="19.5,-252 19.5,-252 123.5,-252 123.5,-252 19.5,-252"/>
<polygon fill="none" stroke="#666666" points="4,-160 4,-314 123,-314 123,-160 4,-160"/>
</a>
</g>
</g>
<!-- Node2&#45;&gt;Node1 -->
<g id="edge1_Node000001_Node000002" class="edge">
<title>Node2&#45;&gt;Node1</title>
<g id="a_edge1_Node000001_Node000002"><a xlink:title=" ">
<path fill="none" stroke="#63b8ff" d="M63.5,-149.73C63.5,-141.07 63.5,-132.41 63.5,-124.1"/>
<polygon fill="none" stroke="#63b8ff" points="60,-149.87 63.5,-159.87 67,-149.87 60,-149.87"/>
</a>
</g>
</g>
<!-- Node3 -->
<g id="Node000003" class="node">
<title>Node3</title>
<g id="a_Node000003"><a xlink:href="classFrameEngine_1_1Entity.html" target="_top" xlink:title="A high&#45;level ECS entity wrapper.">
<polygon fill="white" stroke="transparent" points="127,-474 0,-474 0,-350 127,-350 127,-474"/>
<text text-anchor="start" x="14.5" y="-462" font-family="Helvetica,sans-Serif" font-size="10.00">FrameEngine::Entity</text>
<text text-anchor="start" x="4.5" y="-447" font-family="Helvetica,sans-Serif" font-size="10.00">#</text>
<text text-anchor="start" x="17.5" y="-447" font-family="Helvetica,sans-Serif" font-size="10.00">id_</text>
<text text-anchor="start" x="4.5" y="-432" font-family="Helvetica,sans-Serif" font-size="10.00">#</text>
<text text-anchor="start" x="17.5" y="-432" font-family="Helvetica,sans-Serif" font-size="10.00">registry_</text>
<text text-anchor="start" x="4.5" y="-417" font-family="Helvetica,sans-Serif" font-size="10.00">+</text>
<text text-anchor="start" x="17.5" y="-417" font-family="Helvetica,sans-Serif" font-size="10.00">Entity()</text>
<text text-anchor="start" x="4.5" y="-402" font-family="Helvetica,sans-Serif" font-size="10.00">+</text>
<text text-anchor="start" x="17.5" y="-402" font-family="Helvetica,sans-Serif" font-size="10.00">add_component()</text>
<text text-anchor="start" x="4.5" y="-387" font-family="Helvetica,sans-Serif" font-size="10.00">+</text>
<text text-anchor="start" x="17.5" y="-387" font-family="Helvetica,sans-Serif" font-size="10.00">remove_component()</text>
<text text-anchor="start" x="4.5" y="-372" font-family="Helvetica,sans-Serif" font-size="10.00">+</text>
<text text-anchor="start" x="17.5" y="-372" font-family="Helvetica,sans-Serif" font-size="10.00">get_component()</text>
<text text-anchor="start" x="4.5" y="-357" font-family="Helvetica,sans-Serif" font-size="10.00">+</text>
<text text-anchor="start" x="17.5" y="-357" font-family="Helvetica,sans-Serif" font-size="10.00">id()</text>
<polygon fill="#666666" stroke="#666666" points="0.5,-457 0.5,-457 127.5,-457 127.5,-457 0.5,-457"/>
<polygon fill="#666666" stroke="#666666" points="0.5,-427 0.5,-427 15.5,-427 15.5,-427 0.5,-427"/>
<polygon fill="#666666" stroke="#666666" points="15.5,-427 15.5,-427 127.5,-427 127.5,-427 15.5,-427"/>
<polygon fill="none" stroke="#666666" points="0,-350 0,-474 127,-474 127,-350 0,-350"/>
</a>
</g>
</g>
<!-- Node3&#45;&gt;Node2 -->
<g id="edge2_Node000002_Node000003" class="edge">
<title>Node3&#45;&gt;Node2</title>
<g id="a_edge2_Node000002_Node000003"><a xlink:title=" ">
<path fill="none" stroke="#63b8ff" d="M63.5,-339.44C63.5,-331.09 63.5,-322.54 63.5,-314.12"/>
<polygon fill="none" stroke="#63b8ff" points="60,-339.52 63.5,-349.52 67,-339.52 60,-339.52"/>
</a>
</g>
</g>
</g>
</svg>
