<?xml version="1.0" encoding="UTF-8" standalone="no"?>
<!DOCTYPE svg PUBLIC "-//W3C//DTD SVG 1.1//EN"
 "http://www.w3.org/Graphics/SVG/1.1/DTD/svg11.dtd">
<!-- Generated by graphviz version 12.2.1 (0)
 -->
<!-- Title: Renderer Pages: 1 -->
<svg width="97pt" height="230pt"
 viewBox="0.00 0.00 96.50 229.75" xmlns="http://www.w3.org/2000/svg" xmlns:xlink="http://www.w3.org/1999/xlink">
<g id="graph0" class="graph" transform="scale(1 1) rotate(0) translate(4 225.75)">
<title>Renderer</title>
<!-- Node1 -->
<g id="Node000001" class="node">
<title>Node1</title>
<g id="a_Node000001"><a xlink:title="Handles the drawing of scene objects and lights.">
<polygon fill="#999999" stroke="none" points="88.5,-221.75 0,-221.75 0,0 88.5,0 88.5,-221.75"/>
<text text-anchor="start" x="22.12" y="-208.25" font-family="Helvetica,sans-Serif" font-size="10.00">Renderer</text>
<text text-anchor="start" x="41.25" y="-191.5" font-family="Helvetica,sans-Serif" font-size="10.00"> </text>
<text text-anchor="start" x="4" y="-174.75" font-family="Helvetica,sans-Serif" font-size="10.00">+</text>
<text text-anchor="start" x="16.25" y="-174.75" font-family="Helvetica,sans-Serif" font-size="10.00">Renderer()</text>
<text text-anchor="start" x="4" y="-158" font-family="Helvetica,sans-Serif" font-size="10.00">+</text>
<text text-anchor="start" x="16.25" y="-158" font-family="Helvetica,sans-Serif" font-size="10.00">clearObjects()</text>
<text text-anchor="start" x="4" y="-141.25" font-family="Helvetica,sans-Serif" font-size="10.00">+</text>
<text text-anchor="start" x="16.25" y="-141.25" font-family="Helvetica,sans-Serif" font-size="10.00">render()</text>
<text text-anchor="start" x="4" y="-124.5" font-family="Helvetica,sans-Serif" font-size="10.00">+</text>
<text text-anchor="start" x="16.25" y="-124.5" font-family="Helvetica,sans-Serif" font-size="10.00">setShader()</text>
<text text-anchor="start" x="4" y="-107.75" font-family="Helvetica,sans-Serif" font-size="10.00">+</text>
<text text-anchor="start" x="16.25" y="-107.75" font-family="Helvetica,sans-Serif" font-size="10.00">getCamera()</text>
<text text-anchor="start" x="4" y="-91" font-family="Helvetica,sans-Serif" font-size="10.00">+</text>
<text text-anchor="start" x="16.25" y="-91" font-family="Helvetica,sans-Serif" font-size="10.00">initialize()</text>
<text text-anchor="start" x="4" y="-74.25" font-family="Helvetica,sans-Serif" font-size="10.00">+</text>
<text text-anchor="start" x="16.25" y="-74.25" font-family="Helvetica,sans-Serif" font-size="10.00">clear()</text>
<text text-anchor="start" x="4" y="-57.5" font-family="Helvetica,sans-Serif" font-size="10.00">+</text>
<text text-anchor="start" x="16.25" y="-57.5" font-family="Helvetica,sans-Serif" font-size="10.00">submit()</text>
<text text-anchor="start" x="4" y="-40.75" font-family="Helvetica,sans-Serif" font-size="10.00">+</text>
<text text-anchor="start" x="16.25" y="-40.75" font-family="Helvetica,sans-Serif" font-size="10.00">submitLight()</text>
<text text-anchor="start" x="4" y="-24" font-family="Helvetica,sans-Serif" font-size="10.00">+</text>
<text text-anchor="start" x="16.25" y="-24" font-family="Helvetica,sans-Serif" font-size="10.00">shutdown()</text>
<text text-anchor="start" x="4" y="-7.25" font-family="Helvetica,sans-Serif" font-size="10.00">+</text>
<text text-anchor="start" x="16.25" y="-7.25" font-family="Helvetica,sans-Serif" font-size="10.00">getShader()</text>
<polygon fill="#666666" stroke="#666666" points="0,-203 0,-203 88.5,-203 88.5,-203 0,-203"/>
<polygon fill="#666666" stroke="#666666" points="0,-186.25 0,-186.25 88.5,-186.25 88.5,-186.25 0,-186.25"/>
<polygon fill="none" stroke="#666666" points="0,0 0,-221.75 88.5,-221.75 88.5,0 0,0"/>
</a>
</g>
</g>
</g>
</svg>
