<?xml version="1.0" encoding="UTF-8" standalone="no"?>
<!DOCTYPE svg PUBLIC "-//W3C//DTD SVG 1.1//EN"
 "http://www.w3.org/Graphics/SVG/1.1/DTD/svg11.dtd">
<!-- Generated by graphviz version 12.2.1 (0)
 -->
<!-- Title: IComponentStorage Pages: 1 -->
<svg width="141pt" height="203pt"
 viewBox="0.00 0.00 140.75 202.75" xmlns="http://www.w3.org/2000/svg" xmlns:xlink="http://www.w3.org/1999/xlink">
<g id="graph0" class="graph" transform="scale(1 1) rotate(0) translate(4 198.75)">
<title>IComponentStorage</title>
<!-- Node1 -->
<g id="Node000001" class="node">
<title>Node1</title>
<g id="a_Node000001"><a xlink:title="Interface for generic component storage.">
<polygon fill="#999999" stroke="none" points="132.75,-194.75 0,-194.75 0,-140.5 132.75,-140.5 132.75,-194.75"/>
<text text-anchor="start" x="18" y="-181.25" font-family="Helvetica,sans-Serif" font-size="10.00">IComponentStorage</text>
<text text-anchor="start" x="63.38" y="-164.5" font-family="Helvetica,sans-Serif" font-size="10.00"> </text>
<text text-anchor="start" x="4" y="-147.75" font-family="Helvetica,sans-Serif" font-size="10.00">+</text>
<text text-anchor="start" x="16.25" y="-147.75" font-family="Helvetica,sans-Serif" font-size="10.00">~IComponentStorage()</text>
<polygon fill="#666666" stroke="#666666" points="0,-176 0,-176 132.75,-176 132.75,-176 0,-176"/>
<polygon fill="#666666" stroke="#666666" points="0,-159.25 0,-159.25 132.75,-159.25 132.75,-159.25 0,-159.25"/>
<polygon fill="none" stroke="#666666" points="0,-140.5 0,-194.75 132.75,-194.75 132.75,-140.5 0,-140.5"/>
</a>
</g>
</g>
<!-- Node2 -->
<g id="Node000002" class="node">
<title>Node2</title>
<g id="a_Node000002"><a xlink:href="classComponentStorage.html" target="_top" xlink:title="Stores a specific type of component for entities.">
<polygon fill="white" stroke="none" points="131.5,-104.5 1.25,-104.5 1.25,0 131.5,0 131.5,-104.5"/>
<text text-anchor="start" x="5.25" y="-91" font-family="Helvetica,sans-Serif" font-size="10.00">ComponentStorage&lt; T &gt;</text>
<text text-anchor="start" x="63.38" y="-74.25" font-family="Helvetica,sans-Serif" font-size="10.00"> </text>
<text text-anchor="start" x="21.5" y="-57.5" font-family="Helvetica,sans-Serif" font-size="10.00">+</text>
<text text-anchor="start" x="50" y="-57.5" font-family="Helvetica,sans-Serif" font-size="10.00">add()</text>
<text text-anchor="start" x="21.5" y="-40.75" font-family="Helvetica,sans-Serif" font-size="10.00">+</text>
<text text-anchor="start" x="50" y="-40.75" font-family="Helvetica,sans-Serif" font-size="10.00">remove()</text>
<text text-anchor="start" x="21.5" y="-24" font-family="Helvetica,sans-Serif" font-size="10.00">+</text>
<text text-anchor="start" x="50" y="-24" font-family="Helvetica,sans-Serif" font-size="10.00">has()</text>
<text text-anchor="start" x="21.5" y="-7.25" font-family="Helvetica,sans-Serif" font-size="10.00">+</text>
<text text-anchor="start" x="50" y="-7.25" font-family="Helvetica,sans-Serif" font-size="10.00">get()</text>
<polygon fill="#666666" stroke="#666666" points="1.25,-85.75 1.25,-85.75 131.5,-85.75 131.5,-85.75 1.25,-85.75"/>
<polygon fill="#666666" stroke="#666666" points="1.25,-69 1.25,-69 131.5,-69 131.5,-69 1.25,-69"/>
<polygon fill="none" stroke="#666666" points="1.25,0 1.25,-104.5 131.5,-104.5 131.5,0 1.25,0"/>
</a>
</g>
</g>
<!-- Node1&#45;&gt;Node2 -->
<g id="edge1_Node000001_Node000002" class="edge">
<title>Node1&#45;&gt;Node2</title>
<g id="a_edge1_Node000001_Node000002"><a xlink:title=" ">
<path fill="none" stroke="#63b8ff" d="M66.38,-129.33C66.38,-121.27 66.38,-112.62 66.38,-104.15"/>
<polygon fill="none" stroke="#63b8ff" points="62.88,-129.1 66.38,-139.1 69.88,-129.1 62.88,-129.1"/>
</a>
</g>
</g>
</g>
</svg>
