<?xml version="1.0" encoding="UTF-8" standalone="no"?>
<!DOCTYPE svg PUBLIC "-//W3C//DTD SVG 1.1//EN"
 "http://www.w3.org/Graphics/SVG/1.1/DTD/svg11.dtd">
<!-- Generated by graphviz version 2.43.0 (0)
 -->
<!-- Title: Simulation Pages: 1 -->
<svg width="300pt" height="494pt"
 viewBox="0.00 0.00 300.00 494.00" xmlns="http://www.w3.org/2000/svg" xmlns:xlink="http://www.w3.org/1999/xlink">
<g id="graph0" class="graph" transform="scale(1 1) rotate(0) translate(4 490)">
<title>Simulation</title>
<!-- Node1 -->
<g id="Node000001" class="node">
<title>Node1</title>
<g id="a_Node000001"><a xlink:title=" ">
<polygon fill="#999999" stroke="transparent" points="197,-64 106,-64 106,0 197,0 197,-64"/>
<text text-anchor="start" x="125.5" y="-52" font-family="Helvetica,sans-Serif" font-size="10.00">Simulation</text>
<text text-anchor="start" x="150" y="-37" font-family="Helvetica,sans-Serif" font-size="10.00"> </text>
<text text-anchor="start" x="110.5" y="-22" font-family="Helvetica,sans-Serif" font-size="10.00">+</text>
<text text-anchor="start" x="123.5" y="-22" font-family="Helvetica,sans-Serif" font-size="10.00">on_start()</text>
<text text-anchor="start" x="110.5" y="-7" font-family="Helvetica,sans-Serif" font-size="10.00">+</text>
<text text-anchor="start" x="123.5" y="-7" font-family="Helvetica,sans-Serif" font-size="10.00">fixed_update()</text>
<polygon fill="#666666" stroke="#666666" points="106.5,-47 106.5,-47 197.5,-47 197.5,-47 106.5,-47"/>
<polygon fill="#666666" stroke="#666666" points="106.5,-32 106.5,-32 197.5,-32 197.5,-32 106.5,-32"/>
<polygon fill="none" stroke="#666666" points="106,0 106,-64 197,-64 197,0 106,0"/>
</a>
</g>
</g>
<!-- Node2 -->
<g id="Node000002" class="node">
<title>Node2</title>
<g id="a_Node000002"><a xlink:href="classFrameEngine_1_1Engine.html" target="_top" xlink:title="Core engine class that manages the main loop, physics, and rendering.">
<polygon fill="white" stroke="transparent" points="208,-240 95,-240 95,-101 208,-101 208,-240"/>
<text text-anchor="start" x="100.5" y="-227.5" font-family="Helvetica,sans-Serif" font-size="10.00">FrameEngine::Engine</text>
<text text-anchor="start" x="150" y="-212.5" font-family="Helvetica,sans-Serif" font-size="10.00"> </text>
<text text-anchor="start" x="105" y="-197.5" font-family="Helvetica,sans-Serif" font-size="10.00">+</text>
<text text-anchor="start" x="123.5" y="-197.5" font-family="Helvetica,sans-Serif" font-size="10.00">Engine()</text>
<text text-anchor="start" x="105" y="-182.5" font-family="Helvetica,sans-Serif" font-size="10.00">+</text>
<text text-anchor="start" x="123.5" y="-182.5" font-family="Helvetica,sans-Serif" font-size="10.00">~Engine()</text>
<text text-anchor="start" x="105" y="-167.5" font-family="Helvetica,sans-Serif" font-size="10.00">+</text>
<text text-anchor="start" x="123.5" y="-167.5" font-family="Helvetica,sans-Serif" font-size="10.00">init()</text>
<text text-anchor="start" x="105" y="-152.5" font-family="Helvetica,sans-Serif" font-size="10.00">+</text>
<text text-anchor="start" x="123.5" y="-152.5" font-family="Helvetica,sans-Serif" font-size="10.00">run()</text>
<text text-anchor="start" x="105" y="-137.5" font-family="Helvetica,sans-Serif" font-size="10.00">+</text>
<text text-anchor="start" x="123.5" y="-137.5" font-family="Helvetica,sans-Serif" font-size="10.00">stop()</text>
<text text-anchor="start" x="105" y="-122.5" font-family="Helvetica,sans-Serif" font-size="10.00">+</text>
<text text-anchor="start" x="123.5" y="-122.5" font-family="Helvetica,sans-Serif" font-size="10.00">fixed_update()</text>
<text text-anchor="start" x="105" y="-107.5" font-family="Helvetica,sans-Serif" font-size="10.00">+</text>
<text text-anchor="start" x="123.5" y="-107.5" font-family="Helvetica,sans-Serif" font-size="10.00">on_start()</text>
<polygon fill="#666666" stroke="#666666" points="95.5,-222.5 95.5,-222.5 208.5,-222.5 208.5,-222.5 95.5,-222.5"/>
<polygon fill="#666666" stroke="#666666" points="95.5,-207.5 95.5,-207.5 208.5,-207.5 208.5,-207.5 95.5,-207.5"/>
<polygon fill="none" stroke="#666666" points="95,-101 95,-240 208,-240 208,-101 95,-101"/>
</a>
</g>
</g>
<!-- Node2&#45;&gt;Node1 -->
<g id="edge1_Node000001_Node000002" class="edge">
<title>Node2&#45;&gt;Node1</title>
<g id="a_edge1_Node000001_Node000002"><a xlink:title=" ">
<path fill="none" stroke="#63b8ff" d="M151.5,-90.63C151.5,-81.27 151.5,-72.19 151.5,-64.1"/>
<polygon fill="none" stroke="#63b8ff" points="148,-90.85 151.5,-100.85 155,-90.85 148,-90.85"/>
</a>
</g>
</g>
<!-- Node3 -->
<g id="Node000003" class="node">
<title>Node3</title>
<g id="a_Node000003"><a xlink:href="classFrameEngine_1_1Window.html" target="_top" xlink:title=" ">
<polygon fill="white" stroke="transparent" points="149,-463.5 0,-463.5 0,-309.5 149,-309.5 149,-463.5"/>
<text text-anchor="start" x="20.5" y="-451.5" font-family="Helvetica,sans-Serif" font-size="10.00">FrameEngine::Window</text>
<text text-anchor="start" x="73" y="-436.5" font-family="Helvetica,sans-Serif" font-size="10.00"> </text>
<text text-anchor="start" x="4.5" y="-421.5" font-family="Helvetica,sans-Serif" font-size="10.00">+</text>
<text text-anchor="start" x="17.5" y="-421.5" font-family="Helvetica,sans-Serif" font-size="10.00">Window()</text>
<text text-anchor="start" x="4.5" y="-406.5" font-family="Helvetica,sans-Serif" font-size="10.00">+</text>
<text text-anchor="start" x="17.5" y="-406.5" font-family="Helvetica,sans-Serif" font-size="10.00">~Window()</text>
<text text-anchor="start" x="4.5" y="-391.5" font-family="Helvetica,sans-Serif" font-size="10.00">+</text>
<text text-anchor="start" x="17.5" y="-391.5" font-family="Helvetica,sans-Serif" font-size="10.00">isOpen()</text>
<text text-anchor="start" x="4.5" y="-376.5" font-family="Helvetica,sans-Serif" font-size="10.00">+</text>
<text text-anchor="start" x="17.5" y="-376.5" font-family="Helvetica,sans-Serif" font-size="10.00">pollEvents()</text>
<text text-anchor="start" x="4.5" y="-361.5" font-family="Helvetica,sans-Serif" font-size="10.00">+</text>
<text text-anchor="start" x="17.5" y="-361.5" font-family="Helvetica,sans-Serif" font-size="10.00">swapBuffers()</text>
<text text-anchor="start" x="4.5" y="-346.5" font-family="Helvetica,sans-Serif" font-size="10.00">+</text>
<text text-anchor="start" x="17.5" y="-346.5" font-family="Helvetica,sans-Serif" font-size="10.00">getWidth()</text>
<text text-anchor="start" x="4.5" y="-331.5" font-family="Helvetica,sans-Serif" font-size="10.00">+</text>
<text text-anchor="start" x="17.5" y="-331.5" font-family="Helvetica,sans-Serif" font-size="10.00">getHeight()</text>
<text text-anchor="start" x="4.5" y="-316.5" font-family="Helvetica,sans-Serif" font-size="10.00">+</text>
<text text-anchor="start" x="17.5" y="-316.5" font-family="Helvetica,sans-Serif" font-size="10.00">framebufferSizeCallback()</text>
<polygon fill="#bfbfbf" stroke="#bfbfbf" points="0.5,-446.5 0.5,-446.5 149.5,-446.5 149.5,-446.5 0.5,-446.5"/>
<polygon fill="#bfbfbf" stroke="#bfbfbf" points="0.5,-431.5 0.5,-431.5 149.5,-431.5 149.5,-431.5 0.5,-431.5"/>
<polygon fill="none" stroke="#bfbfbf" points="0,-309.5 0,-463.5 149,-463.5 149,-309.5 0,-309.5"/>
</a>
</g>
</g>
<!-- Node3&#45;&gt;Node2 -->
<g id="edge2_Node000002_Node000003" class="edge">
<title>Node3&#45;&gt;Node2</title>
<g id="a_edge2_Node000002_Node000003"><a xlink:title=" ">
<path fill="none" stroke="#63b8ff" d="M101.86,-309.45C108.63,-290.66 115.89,-270.47 122.72,-251.5"/>
<polygon fill="none" stroke="#63b8ff" points="122.73,-251.47 120.99,-244.47 126.79,-240.18 128.52,-247.18 122.73,-251.47"/>
</a>
</g>
<text text-anchor="middle" x="145" y="-261" font-family="Helvetica,sans-Serif" font-size="10.00" fill="grey"> #window</text>
</g>
<!-- Node4 -->
<g id="Node000004" class="node">
<title>Node4</title>
<g id="a_Node000004"><a xlink:href="classFrameEngine_1_1Renderer.html" target="_top" xlink:title="Handles the drawing of scene objects and lights.">
<polygon fill="white" stroke="transparent" points="292,-486 167,-486 167,-287 292,-287 292,-486"/>
<text text-anchor="start" x="172.5" y="-473.5" font-family="Helvetica,sans-Serif" font-size="10.00">FrameEngine::Renderer</text>
<text text-anchor="start" x="228" y="-458.5" font-family="Helvetica,sans-Serif" font-size="10.00"> </text>
<text text-anchor="start" x="180" y="-443.5" font-family="Helvetica,sans-Serif" font-size="10.00">+</text>
<text text-anchor="start" x="201.5" y="-443.5" font-family="Helvetica,sans-Serif" font-size="10.00">Renderer()</text>
<text text-anchor="start" x="180" y="-428.5" font-family="Helvetica,sans-Serif" font-size="10.00">+</text>
<text text-anchor="start" x="201.5" y="-428.5" font-family="Helvetica,sans-Serif" font-size="10.00">clearObjects()</text>
<text text-anchor="start" x="180" y="-413.5" font-family="Helvetica,sans-Serif" font-size="10.00">+</text>
<text text-anchor="start" x="201.5" y="-413.5" font-family="Helvetica,sans-Serif" font-size="10.00">render()</text>
<text text-anchor="start" x="180" y="-398.5" font-family="Helvetica,sans-Serif" font-size="10.00">+</text>
<text text-anchor="start" x="201.5" y="-398.5" font-family="Helvetica,sans-Serif" font-size="10.00">setShader()</text>
<text text-anchor="start" x="180" y="-383.5" font-family="Helvetica,sans-Serif" font-size="10.00">+</text>
<text text-anchor="start" x="201.5" y="-383.5" font-family="Helvetica,sans-Serif" font-size="10.00">getCamera()</text>
<text text-anchor="start" x="180" y="-368.5" font-family="Helvetica,sans-Serif" font-size="10.00">+</text>
<text text-anchor="start" x="201.5" y="-368.5" font-family="Helvetica,sans-Serif" font-size="10.00">initialize()</text>
<text text-anchor="start" x="180" y="-353.5" font-family="Helvetica,sans-Serif" font-size="10.00">+</text>
<text text-anchor="start" x="201.5" y="-353.5" font-family="Helvetica,sans-Serif" font-size="10.00">clear()</text>
<text text-anchor="start" x="180" y="-338.5" font-family="Helvetica,sans-Serif" font-size="10.00">+</text>
<text text-anchor="start" x="201.5" y="-338.5" font-family="Helvetica,sans-Serif" font-size="10.00">submit()</text>
<text text-anchor="start" x="180" y="-323.5" font-family="Helvetica,sans-Serif" font-size="10.00">+</text>
<text text-anchor="start" x="201.5" y="-323.5" font-family="Helvetica,sans-Serif" font-size="10.00">submitLight()</text>
<text text-anchor="start" x="180" y="-308.5" font-family="Helvetica,sans-Serif" font-size="10.00">+</text>
<text text-anchor="start" x="201.5" y="-308.5" font-family="Helvetica,sans-Serif" font-size="10.00">shutdown()</text>
<text text-anchor="start" x="180" y="-293.5" font-family="Helvetica,sans-Serif" font-size="10.00">+</text>
<text text-anchor="start" x="201.5" y="-293.5" font-family="Helvetica,sans-Serif" font-size="10.00">getShader()</text>
<polygon fill="#666666" stroke="#666666" points="167.5,-468.5 167.5,-468.5 292.5,-468.5 292.5,-468.5 167.5,-468.5"/>
<polygon fill="#666666" stroke="#666666" points="167.5,-453.5 167.5,-453.5 292.5,-453.5 292.5,-453.5 167.5,-453.5"/>
<polygon fill="none" stroke="#666666" points="167,-287 167,-486 292,-486 292,-287 167,-287"/>
</a>
</g>
</g>
<!-- Node4&#45;&gt;Node2 -->
<g id="edge3_Node000002_Node000004" class="edge">
<title>Node4&#45;&gt;Node2</title>
<g id="a_edge3_Node000002_Node000004"><a xlink:title=" ">
<path fill="none" stroke="#63b8ff" d="M193.58,-286.96C189.26,-275.11 184.9,-263.12 180.69,-251.58"/>
<polygon fill="none" stroke="#63b8ff" points="180.65,-251.49 174.84,-247.22 176.55,-240.21 182.36,-244.48 180.65,-251.49"/>
</a>
</g>
<text text-anchor="middle" x="212" y="-261" font-family="Helvetica,sans-Serif" font-size="10.00" fill="grey"> #renderer</text>
</g>
</g>
</svg>
