<?xml version="1.0" encoding="UTF-8" standalone="no"?>
<!DOCTYPE svg PUBLIC "-//W3C//DTD SVG 1.1//EN"
 "http://www.w3.org/Graphics/SVG/1.1/DTD/svg11.dtd">
<!-- Generated by graphviz version 2.43.0 (0)
 -->
<!-- Title: Entity Pages: 1 -->
<svg width="181pt" height="363pt"
 viewBox="0.00 0.00 181.00 363.00" xmlns="http://www.w3.org/2000/svg" xmlns:xlink="http://www.w3.org/1999/xlink">
<g id="graph0" class="graph" transform="scale(1 1) rotate(0) translate(4 359)">
<title>Entity</title>
<!-- Node1 -->
<g id="Node000001" class="node">
<title>Node1</title>
<g id="a_Node000001"><a xlink:title="A high&#45;level ECS entity wrapper.">
<polygon fill="#999999" stroke="transparent" points="150,-109 23,-109 23,0 150,0 150,-109"/>
<text text-anchor="start" x="72.5" y="-96.5" font-family="Helvetica,sans-Serif" font-size="10.00">Entity</text>
<text text-anchor="start" x="27.5" y="-81.5" font-family="Helvetica,sans-Serif" font-size="10.00">#</text>
<text text-anchor="start" x="40.5" y="-81.5" font-family="Helvetica,sans-Serif" font-size="10.00">id_</text>
<text text-anchor="start" x="27.5" y="-66.5" font-family="Helvetica,sans-Serif" font-size="10.00">+</text>
<text text-anchor="start" x="40.5" y="-66.5" font-family="Helvetica,sans-Serif" font-size="10.00">Entity()</text>
<text text-anchor="start" x="27.5" y="-51.5" font-family="Helvetica,sans-Serif" font-size="10.00">+</text>
<text text-anchor="start" x="40.5" y="-51.5" font-family="Helvetica,sans-Serif" font-size="10.00">add_component()</text>
<text text-anchor="start" x="27.5" y="-36.5" font-family="Helvetica,sans-Serif" font-size="10.00">+</text>
<text text-anchor="start" x="40.5" y="-36.5" font-family="Helvetica,sans-Serif" font-size="10.00">remove_component()</text>
<text text-anchor="start" x="27.5" y="-21.5" font-family="Helvetica,sans-Serif" font-size="10.00">+</text>
<text text-anchor="start" x="40.5" y="-21.5" font-family="Helvetica,sans-Serif" font-size="10.00">get_component()</text>
<text text-anchor="start" x="27.5" y="-6.5" font-family="Helvetica,sans-Serif" font-size="10.00">+</text>
<text text-anchor="start" x="40.5" y="-6.5" font-family="Helvetica,sans-Serif" font-size="10.00">id()</text>
<polygon fill="#666666" stroke="#666666" points="23.5,-91.5 23.5,-91.5 150.5,-91.5 150.5,-91.5 23.5,-91.5"/>
<polygon fill="#666666" stroke="#666666" points="23.5,-76.5 23.5,-76.5 38.5,-76.5 38.5,-76.5 23.5,-76.5"/>
<polygon fill="#666666" stroke="#666666" points="38.5,-76.5 38.5,-76.5 150.5,-76.5 150.5,-76.5 38.5,-76.5"/>
<polygon fill="none" stroke="#666666" points="23,0 23,-109 150,-109 150,0 23,0"/>
</a>
</g>
</g>
<!-- Node2 -->
<g id="Node000002" class="node">
<title>Node2</title>
<g id="a_Node000002"><a xlink:href="classRegistry.html" target="_top" xlink:title="Manages all ECS entities and components.">
<polygon fill="white" stroke="transparent" points="173,-355 0,-355 0,-156 173,-156 173,-355"/>
<text text-anchor="start" x="66.5" y="-342.5" font-family="Helvetica,sans-Serif" font-size="10.00">Registry</text>
<text text-anchor="start" x="85" y="-327.5" font-family="Helvetica,sans-Serif" font-size="10.00"> </text>
<text text-anchor="start" x="4.5" y="-312.5" font-family="Helvetica,sans-Serif" font-size="10.00">+</text>
<text text-anchor="start" x="17.5" y="-312.5" font-family="Helvetica,sans-Serif" font-size="10.00">Registry()</text>
<text text-anchor="start" x="4.5" y="-297.5" font-family="Helvetica,sans-Serif" font-size="10.00">+</text>
<text text-anchor="start" x="17.5" y="-297.5" font-family="Helvetica,sans-Serif" font-size="10.00">operator=()</text>
<text text-anchor="start" x="4.5" y="-282.5" font-family="Helvetica,sans-Serif" font-size="10.00">+</text>
<text text-anchor="start" x="17.5" y="-282.5" font-family="Helvetica,sans-Serif" font-size="10.00">Registry()</text>
<text text-anchor="start" x="4.5" y="-267.5" font-family="Helvetica,sans-Serif" font-size="10.00">+</text>
<text text-anchor="start" x="17.5" y="-267.5" font-family="Helvetica,sans-Serif" font-size="10.00">create_entity()</text>
<text text-anchor="start" x="4.5" y="-252.5" font-family="Helvetica,sans-Serif" font-size="10.00">+</text>
<text text-anchor="start" x="17.5" y="-252.5" font-family="Helvetica,sans-Serif" font-size="10.00">destroy_entity()</text>
<text text-anchor="start" x="4.5" y="-237.5" font-family="Helvetica,sans-Serif" font-size="10.00">+</text>
<text text-anchor="start" x="17.5" y="-237.5" font-family="Helvetica,sans-Serif" font-size="10.00">add_component()</text>
<text text-anchor="start" x="4.5" y="-222.5" font-family="Helvetica,sans-Serif" font-size="10.00">+</text>
<text text-anchor="start" x="17.5" y="-222.5" font-family="Helvetica,sans-Serif" font-size="10.00">has_component()</text>
<text text-anchor="start" x="4.5" y="-207.5" font-family="Helvetica,sans-Serif" font-size="10.00">+</text>
<text text-anchor="start" x="17.5" y="-207.5" font-family="Helvetica,sans-Serif" font-size="10.00">get_component()</text>
<text text-anchor="start" x="4.5" y="-192.5" font-family="Helvetica,sans-Serif" font-size="10.00">+</text>
<text text-anchor="start" x="17.5" y="-192.5" font-family="Helvetica,sans-Serif" font-size="10.00">remove_component()</text>
<text text-anchor="start" x="4.5" y="-177.5" font-family="Helvetica,sans-Serif" font-size="10.00">+</text>
<text text-anchor="start" x="17.5" y="-177.5" font-family="Helvetica,sans-Serif" font-size="10.00">get_entities_with_component()</text>
<text text-anchor="start" x="4.5" y="-162.5" font-family="Helvetica,sans-Serif" font-size="10.00">+</text>
<text text-anchor="start" x="17.5" y="-162.5" font-family="Helvetica,sans-Serif" font-size="10.00">getInstance()</text>
<polygon fill="#666666" stroke="#666666" points="0.5,-337.5 0.5,-337.5 173.5,-337.5 173.5,-337.5 0.5,-337.5"/>
<polygon fill="#666666" stroke="#666666" points="0.5,-322.5 0.5,-322.5 173.5,-322.5 173.5,-322.5 0.5,-322.5"/>
<polygon fill="none" stroke="#666666" points="0,-156 0,-355 173,-355 173,-156 0,-156"/>
</a>
</g>
</g>
<!-- Node2&#45;&gt;Node1 -->
<g id="edge1_Node000001_Node000002" class="edge">
<title>Node2&#45;&gt;Node1</title>
<g id="a_edge1_Node000001_Node000002"><a xlink:title=" ">
<path fill="none" stroke="#63b8ff" d="M86.5,-155.87C86.5,-144.16 86.5,-132.43 86.5,-121.33"/>
<polygon fill="none" stroke="#63b8ff" points="86.5,-121.1 82.5,-115.1 86.5,-109.1 90.5,-115.1 86.5,-121.1"/>
</a>
</g>
<text text-anchor="middle" x="114" y="-130" font-family="Helvetica,sans-Serif" font-size="10.00" fill="grey"> #registry_</text>
</g>
</g>
</svg>
