<?xml version="1.0" encoding="UTF-8" standalone="no"?>
<!DOCTYPE svg PUBLIC "-//W3C//DTD SVG 1.1//EN"
 "http://www.w3.org/Graphics/SVG/1.1/DTD/svg11.dtd">
<!-- Generated by graphviz version 12.2.1 (0)
 -->
<!-- Title: Simulation Pages: 1 -->
<svg width="453pt" height="541pt"
 viewBox="0.00 0.00 453.12 541.25" xmlns="http://www.w3.org/2000/svg" xmlns:xlink="http://www.w3.org/1999/xlink">
<g id="graph0" class="graph" transform="scale(1 1) rotate(0) translate(4 537.25)">
<title>Simulation</title>
<!-- Node1 -->
<g id="Node000001" class="node">
<title>Node1</title>
<g id="a_Node000001"><a xlink:title=" ">
<polygon fill="#999999" stroke="none" points="309.62,-71 218.12,-71 218.12,0 309.62,0 309.62,-71"/>
<text text-anchor="start" x="237.62" y="-57.5" font-family="Helvetica,sans-Serif" font-size="10.00">Simulation</text>
<text text-anchor="start" x="260.88" y="-40.75" font-family="Helvetica,sans-Serif" font-size="10.00"> </text>
<text text-anchor="start" x="222.12" y="-24" font-family="Helvetica,sans-Serif" font-size="10.00">+</text>
<text text-anchor="start" x="234.38" y="-24" font-family="Helvetica,sans-Serif" font-size="10.00">on_start()</text>
<text text-anchor="start" x="222.12" y="-7.25" font-family="Helvetica,sans-Serif" font-size="10.00">+</text>
<text text-anchor="start" x="234.38" y="-7.25" font-family="Helvetica,sans-Serif" font-size="10.00">fixed_update()</text>
<polygon fill="#666666" stroke="#666666" points="218.12,-52.25 218.12,-52.25 309.62,-52.25 309.62,-52.25 218.12,-52.25"/>
<polygon fill="#666666" stroke="#666666" points="218.12,-35.5 218.12,-35.5 309.62,-35.5 309.62,-35.5 218.12,-35.5"/>
<polygon fill="none" stroke="#666666" points="218.12,0 218.12,-71 309.62,-71 309.62,0 218.12,0"/>
</a>
</g>
</g>
<!-- Node2 -->
<g id="Node000002" class="node">
<title>Node2</title>
<g id="a_Node000002"><a xlink:href="classEngine.html" target="_top" xlink:title="Core engine class that manages the main loop, physics, and rendering.">
<polygon fill="white" stroke="none" points="309.62,-262.75 218.12,-262.75 218.12,-108 309.62,-108 309.62,-262.75"/>
<text text-anchor="start" x="247.38" y="-249.25" font-family="Helvetica,sans-Serif" font-size="10.00">Engine</text>
<text text-anchor="start" x="260.88" y="-232.5" font-family="Helvetica,sans-Serif" font-size="10.00"> </text>
<text text-anchor="start" x="222.12" y="-215.75" font-family="Helvetica,sans-Serif" font-size="10.00">+</text>
<text text-anchor="start" x="234.38" y="-215.75" font-family="Helvetica,sans-Serif" font-size="10.00">Engine()</text>
<text text-anchor="start" x="222.12" y="-199" font-family="Helvetica,sans-Serif" font-size="10.00">+</text>
<text text-anchor="start" x="234.38" y="-199" font-family="Helvetica,sans-Serif" font-size="10.00">~Engine()</text>
<text text-anchor="start" x="222.12" y="-182.25" font-family="Helvetica,sans-Serif" font-size="10.00">+</text>
<text text-anchor="start" x="234.38" y="-182.25" font-family="Helvetica,sans-Serif" font-size="10.00">init()</text>
<text text-anchor="start" x="222.12" y="-165.5" font-family="Helvetica,sans-Serif" font-size="10.00">+</text>
<text text-anchor="start" x="234.38" y="-165.5" font-family="Helvetica,sans-Serif" font-size="10.00">run()</text>
<text text-anchor="start" x="222.12" y="-148.75" font-family="Helvetica,sans-Serif" font-size="10.00">+</text>
<text text-anchor="start" x="234.38" y="-148.75" font-family="Helvetica,sans-Serif" font-size="10.00">stop()</text>
<text text-anchor="start" x="222.12" y="-132" font-family="Helvetica,sans-Serif" font-size="10.00">+</text>
<text text-anchor="start" x="234.38" y="-132" font-family="Helvetica,sans-Serif" font-size="10.00">fixed_update()</text>
<text text-anchor="start" x="222.12" y="-115.25" font-family="Helvetica,sans-Serif" font-size="10.00">+</text>
<text text-anchor="start" x="234.38" y="-115.25" font-family="Helvetica,sans-Serif" font-size="10.00">on_start()</text>
<polygon fill="#666666" stroke="#666666" points="218.12,-244 218.12,-244 309.62,-244 309.62,-244 218.12,-244"/>
<polygon fill="#666666" stroke="#666666" points="218.12,-227.25 218.12,-227.25 309.62,-227.25 309.62,-227.25 218.12,-227.25"/>
<polygon fill="none" stroke="#666666" points="218.12,-108 218.12,-262.75 309.62,-262.75 309.62,-108 218.12,-108"/>
</a>
</g>
</g>
<!-- Node2&#45;&gt;Node1 -->
<g id="edge1_Node000001_Node000002" class="edge">
<title>Node2&#45;&gt;Node1</title>
<g id="a_edge1_Node000001_Node000002"><a xlink:title=" ">
<path fill="none" stroke="#63b8ff" d="M263.88,-96.92C263.88,-87.7 263.88,-78.77 263.88,-70.73"/>
<polygon fill="none" stroke="#63b8ff" points="260.38,-96.76 263.88,-106.76 267.38,-96.76 260.38,-96.76"/>
</a>
</g>
</g>
<!-- Node3 -->
<g id="Node000003" class="node">
<title>Node3</title>
<g id="a_Node000003"><a xlink:href="classRegistry.html" target="_top" xlink:title="Manages all ECS entities and components.">
<polygon fill="white" stroke="none" points="171.75,-524.88 0,-524.88 0,-319.88 171.75,-319.88 171.75,-524.88"/>
<text text-anchor="start" x="65.62" y="-511.38" font-family="Helvetica,sans-Serif" font-size="10.00">Registry</text>
<text text-anchor="start" x="82.88" y="-494.62" font-family="Helvetica,sans-Serif" font-size="10.00"> </text>
<text text-anchor="start" x="4" y="-477.88" font-family="Helvetica,sans-Serif" font-size="10.00">+</text>
<text text-anchor="start" x="16.25" y="-477.88" font-family="Helvetica,sans-Serif" font-size="10.00">Registry()</text>
<text text-anchor="start" x="4" y="-461.12" font-family="Helvetica,sans-Serif" font-size="10.00">+</text>
<text text-anchor="start" x="16.25" y="-461.12" font-family="Helvetica,sans-Serif" font-size="10.00">operator=()</text>
<text text-anchor="start" x="4" y="-444.38" font-family="Helvetica,sans-Serif" font-size="10.00">+</text>
<text text-anchor="start" x="16.25" y="-444.38" font-family="Helvetica,sans-Serif" font-size="10.00">Registry()</text>
<text text-anchor="start" x="4" y="-427.62" font-family="Helvetica,sans-Serif" font-size="10.00">+</text>
<text text-anchor="start" x="16.25" y="-427.62" font-family="Helvetica,sans-Serif" font-size="10.00">create_entity()</text>
<text text-anchor="start" x="4" y="-410.88" font-family="Helvetica,sans-Serif" font-size="10.00">+</text>
<text text-anchor="start" x="16.25" y="-410.88" font-family="Helvetica,sans-Serif" font-size="10.00">destroy_entity()</text>
<text text-anchor="start" x="4" y="-394.12" font-family="Helvetica,sans-Serif" font-size="10.00">+</text>
<text text-anchor="start" x="16.25" y="-394.12" font-family="Helvetica,sans-Serif" font-size="10.00">add_component()</text>
<text text-anchor="start" x="4" y="-377.38" font-family="Helvetica,sans-Serif" font-size="10.00">+</text>
<text text-anchor="start" x="16.25" y="-377.38" font-family="Helvetica,sans-Serif" font-size="10.00">has_component()</text>
<text text-anchor="start" x="4" y="-360.62" font-family="Helvetica,sans-Serif" font-size="10.00">+</text>
<text text-anchor="start" x="16.25" y="-360.62" font-family="Helvetica,sans-Serif" font-size="10.00">get_component()</text>
<text text-anchor="start" x="4" y="-343.88" font-family="Helvetica,sans-Serif" font-size="10.00">+</text>
<text text-anchor="start" x="16.25" y="-343.88" font-family="Helvetica,sans-Serif" font-size="10.00">remove_component()</text>
<text text-anchor="start" x="4" y="-327.12" font-family="Helvetica,sans-Serif" font-size="10.00">+</text>
<text text-anchor="start" x="16.25" y="-327.12" font-family="Helvetica,sans-Serif" font-size="10.00">get_entities_with_component()</text>
<polygon fill="#666666" stroke="#666666" points="0,-506.12 0,-506.12 171.75,-506.12 171.75,-506.12 0,-506.12"/>
<polygon fill="#666666" stroke="#666666" points="0,-489.38 0,-489.38 171.75,-489.38 171.75,-489.38 0,-489.38"/>
<polygon fill="none" stroke="#666666" points="0,-319.88 0,-524.88 171.75,-524.88 171.75,-319.88 0,-319.88"/>
</a>
</g>
</g>
<!-- Node3&#45;&gt;Node2 -->
<g id="edge2_Node000002_Node000003" class="edge">
<title>Node3&#45;&gt;Node2</title>
<g id="a_edge2_Node000002_Node000003"><a xlink:title=" ">
<path fill="none" stroke="#63b8ff" d="M162.65,-320.01C178.76,-298.75 195.41,-276.77 210.44,-256.92"/>
<polygon fill="none" stroke="#63b8ff" points="210.35,-257.04 210.78,-249.84 217.6,-247.47 217.16,-254.67 210.35,-257.04"/>
</a>
</g>
<text text-anchor="middle" x="215.19" y="-284" font-family="Helvetica,sans-Serif" font-size="10.00" fill="grey"> #registry</text>
</g>
<!-- Node4 -->
<g id="Node000004" class="node">
<title>Node4</title>
<g id="a_Node000004"><a xlink:href="classWindow.html" target="_top" xlink:title=" ">
<polygon fill="white" stroke="none" points="338.12,-508.12 189.62,-508.12 189.62,-336.62 338.12,-336.62 338.12,-508.12"/>
<text text-anchor="start" x="244.38" y="-494.62" font-family="Helvetica,sans-Serif" font-size="10.00">Window</text>
<text text-anchor="start" x="260.88" y="-477.88" font-family="Helvetica,sans-Serif" font-size="10.00"> </text>
<text text-anchor="start" x="193.62" y="-461.12" font-family="Helvetica,sans-Serif" font-size="10.00">+</text>
<text text-anchor="start" x="205.88" y="-461.12" font-family="Helvetica,sans-Serif" font-size="10.00">Window()</text>
<text text-anchor="start" x="193.62" y="-444.38" font-family="Helvetica,sans-Serif" font-size="10.00">+</text>
<text text-anchor="start" x="205.88" y="-444.38" font-family="Helvetica,sans-Serif" font-size="10.00">~Window()</text>
<text text-anchor="start" x="193.62" y="-427.62" font-family="Helvetica,sans-Serif" font-size="10.00">+</text>
<text text-anchor="start" x="205.88" y="-427.62" font-family="Helvetica,sans-Serif" font-size="10.00">isOpen()</text>
<text text-anchor="start" x="193.62" y="-410.88" font-family="Helvetica,sans-Serif" font-size="10.00">+</text>
<text text-anchor="start" x="205.88" y="-410.88" font-family="Helvetica,sans-Serif" font-size="10.00">pollEvents()</text>
<text text-anchor="start" x="193.62" y="-394.12" font-family="Helvetica,sans-Serif" font-size="10.00">+</text>
<text text-anchor="start" x="205.88" y="-394.12" font-family="Helvetica,sans-Serif" font-size="10.00">swapBuffers()</text>
<text text-anchor="start" x="193.62" y="-377.38" font-family="Helvetica,sans-Serif" font-size="10.00">+</text>
<text text-anchor="start" x="205.88" y="-377.38" font-family="Helvetica,sans-Serif" font-size="10.00">getWidth()</text>
<text text-anchor="start" x="193.62" y="-360.62" font-family="Helvetica,sans-Serif" font-size="10.00">+</text>
<text text-anchor="start" x="205.88" y="-360.62" font-family="Helvetica,sans-Serif" font-size="10.00">getHeight()</text>
<text text-anchor="start" x="193.62" y="-343.88" font-family="Helvetica,sans-Serif" font-size="10.00">+</text>
<text text-anchor="start" x="205.88" y="-343.88" font-family="Helvetica,sans-Serif" font-size="10.00">framebufferSizeCallback()</text>
<polygon fill="#bfbfbf" stroke="#bfbfbf" points="189.62,-489.38 189.62,-489.38 338.12,-489.38 338.12,-489.38 189.62,-489.38"/>
<polygon fill="#bfbfbf" stroke="#bfbfbf" points="189.62,-472.62 189.62,-472.62 338.12,-472.62 338.12,-472.62 189.62,-472.62"/>
<polygon fill="none" stroke="#bfbfbf" points="189.62,-336.62 189.62,-508.12 338.12,-508.12 338.12,-336.62 189.62,-336.62"/>
</a>
</g>
</g>
<!-- Node4&#45;&gt;Node2 -->
<g id="edge3_Node000002_Node000004" class="edge">
<title>Node4&#45;&gt;Node2</title>
<g id="a_edge3_Node000002_Node000004"><a xlink:title=" ">
<path fill="none" stroke="#63b8ff" d="M263.88,-336.87C263.88,-317.01 263.88,-295.78 263.88,-275.71"/>
<polygon fill="none" stroke="#63b8ff" points="263.88,-275.62 259.88,-269.62 263.88,-263.62 267.88,-269.62 263.88,-275.62"/>
</a>
</g>
<text text-anchor="middle" x="288.25" y="-284" font-family="Helvetica,sans-Serif" font-size="10.00" fill="grey"> #window</text>
</g>
<!-- Node5 -->
<g id="Node000005" class="node">
<title>Node5</title>
<g id="a_Node000005"><a xlink:href="classRenderer.html" target="_top" xlink:title="Handles the drawing of scene objects and lights.">
<polygon fill="white" stroke="none" points="445.12,-533.25 356.62,-533.25 356.62,-311.5 445.12,-311.5 445.12,-533.25"/>
<text text-anchor="start" x="378.75" y="-519.75" font-family="Helvetica,sans-Serif" font-size="10.00">Renderer</text>
<text text-anchor="start" x="397.88" y="-503" font-family="Helvetica,sans-Serif" font-size="10.00"> </text>
<text text-anchor="start" x="360.62" y="-486.25" font-family="Helvetica,sans-Serif" font-size="10.00">+</text>
<text text-anchor="start" x="372.88" y="-486.25" font-family="Helvetica,sans-Serif" font-size="10.00">Renderer()</text>
<text text-anchor="start" x="360.62" y="-469.5" font-family="Helvetica,sans-Serif" font-size="10.00">+</text>
<text text-anchor="start" x="372.88" y="-469.5" font-family="Helvetica,sans-Serif" font-size="10.00">clearObjects()</text>
<text text-anchor="start" x="360.62" y="-452.75" font-family="Helvetica,sans-Serif" font-size="10.00">+</text>
<text text-anchor="start" x="372.88" y="-452.75" font-family="Helvetica,sans-Serif" font-size="10.00">render()</text>
<text text-anchor="start" x="360.62" y="-436" font-family="Helvetica,sans-Serif" font-size="10.00">+</text>
<text text-anchor="start" x="372.88" y="-436" font-family="Helvetica,sans-Serif" font-size="10.00">setShader()</text>
<text text-anchor="start" x="360.62" y="-419.25" font-family="Helvetica,sans-Serif" font-size="10.00">+</text>
<text text-anchor="start" x="372.88" y="-419.25" font-family="Helvetica,sans-Serif" font-size="10.00">getCamera()</text>
<text text-anchor="start" x="360.62" y="-402.5" font-family="Helvetica,sans-Serif" font-size="10.00">+</text>
<text text-anchor="start" x="372.88" y="-402.5" font-family="Helvetica,sans-Serif" font-size="10.00">initialize()</text>
<text text-anchor="start" x="360.62" y="-385.75" font-family="Helvetica,sans-Serif" font-size="10.00">+</text>
<text text-anchor="start" x="372.88" y="-385.75" font-family="Helvetica,sans-Serif" font-size="10.00">clear()</text>
<text text-anchor="start" x="360.62" y="-369" font-family="Helvetica,sans-Serif" font-size="10.00">+</text>
<text text-anchor="start" x="372.88" y="-369" font-family="Helvetica,sans-Serif" font-size="10.00">submit()</text>
<text text-anchor="start" x="360.62" y="-352.25" font-family="Helvetica,sans-Serif" font-size="10.00">+</text>
<text text-anchor="start" x="372.88" y="-352.25" font-family="Helvetica,sans-Serif" font-size="10.00">submitLight()</text>
<text text-anchor="start" x="360.62" y="-335.5" font-family="Helvetica,sans-Serif" font-size="10.00">+</text>
<text text-anchor="start" x="372.88" y="-335.5" font-family="Helvetica,sans-Serif" font-size="10.00">shutdown()</text>
<text text-anchor="start" x="360.62" y="-318.75" font-family="Helvetica,sans-Serif" font-size="10.00">+</text>
<text text-anchor="start" x="372.88" y="-318.75" font-family="Helvetica,sans-Serif" font-size="10.00">getShader()</text>
<polygon fill="#666666" stroke="#666666" points="356.62,-514.5 356.62,-514.5 445.12,-514.5 445.12,-514.5 356.62,-514.5"/>
<polygon fill="#666666" stroke="#666666" points="356.62,-497.75 356.62,-497.75 445.12,-497.75 445.12,-497.75 356.62,-497.75"/>
<polygon fill="none" stroke="#666666" points="356.62,-311.5 356.62,-533.25 445.12,-533.25 445.12,-311.5 356.62,-311.5"/>
</a>
</g>
</g>
<!-- Node5&#45;&gt;Node2 -->
<g id="edge4_Node000002_Node000005" class="edge">
<title>Node5&#45;&gt;Node2</title>
<g id="a_edge4_Node000002_Node000005"><a xlink:title=" ">
<path fill="none" stroke="#63b8ff" d="M356.66,-329.19C353.43,-323.16 350.16,-317.21 346.88,-311.5 337.59,-295.34 327.02,-278.44 316.61,-262.48"/>
<polygon fill="none" stroke="#63b8ff" points="316.54,-262.38 309.89,-259.57 309.93,-252.36 316.57,-255.17 316.54,-262.38"/>
</a>
</g>
<text text-anchor="middle" x="360.56" y="-284" font-family="Helvetica,sans-Serif" font-size="10.00" fill="grey"> #renderer</text>
</g>
</g>
</svg>
