<?xml version="1.0" encoding="UTF-8" standalone="no"?>
<!DOCTYPE svg PUBLIC "-//W3C//DTD SVG 1.1//EN"
 "http://www.w3.org/Graphics/SVG/1.1/DTD/svg11.dtd">
<!-- Generated by graphviz version 2.43.0 (0)
 -->
<!-- Title: include Pages: 1 -->
<svg width="198pt" height="279pt"
 viewBox="0.00 0.00 198.00 279.00" xmlns="http://www.w3.org/2000/svg" xmlns:xlink="http://www.w3.org/1999/xlink">
<g id="graph0" class="graph" transform="scale(1 1) rotate(0) translate(4 275)">
<title>include</title>
<g id="clust1" class="cluster">
<title>clusterdir_d44c64559bbebec7f509842c48db8b23</title>
<g id="a_clust1"><a xlink:href="dir_d44c64559bbebec7f509842c48db8b23.html" target="_top">
<polygon fill="#edf0f7" stroke="#404040" stroke-width="2" points="8,-8 8,-263 182,-263 182,-8 8,-8"/>
</a>
</g>
</g>
<!-- dir_d44c64559bbebec7f509842c48db8b23 -->
<g id="node1" class="node">
<title>dir_d44c64559bbebec7f509842c48db8b23</title>
<text text-anchor="middle" x="127" y="-243" font-family="Helvetica,sans-Serif" font-size="10.00">include</text>
</g>
<!-- dir_fba38f648377aa56ae5d69782adf9e53 -->
<g id="node4" class="node">
<title>dir_fba38f648377aa56ae5d69782adf9e53</title>
<g id="a_node4"><a xlink:href="dir_fba38f648377aa56ae5d69782adf9e53.html" target="_top" xlink:title="math">
<polygon fill="#a2b4d6" stroke="#404040" points="76,-35 34,-35 34,-16 76,-16 76,-35"/>
<text text-anchor="middle" x="55" y="-23" font-family="Helvetica,sans-Serif" font-size="10.00">math</text>
</a>
</g>
</g>
<!-- dir_d44c64559bbebec7f509842c48db8b23&#45;&gt;dir_fba38f648377aa56ae5d69782adf9e53 -->
<g id="edge3" class="edge">
<title>dir_d44c64559bbebec7f509842c48db8b23&#45;&gt;dir_fba38f648377aa56ae5d69782adf9e53</title>
<g id="a_edge3"><a xlink:href="dir_000003_000006.html" target="_top">
<path fill="none" stroke="#63b8ff" d="M114.68,-235.79C93.93,-220.3 52.67,-185.73 36,-145 23.53,-114.55 26.81,-103.1 34,-71 36.08,-61.74 40.3,-52.14 44.43,-44.23"/>
<polygon fill="#63b8ff" stroke="#63b8ff" points="47.6,-45.72 49.42,-35.28 41.49,-42.31 47.6,-45.72"/>
</a>
</g>
<g id="a_edge3&#45;headlabel"><a xlink:href="dir_000003_000006.html" target="_top" xlink:title="17">
<text text-anchor="middle" x="48.33" y="-47.74" font-family="Helvetica,sans-Serif" font-size="10.00" fill="#63b8ff">17</text>
</a>
</g>
</g>
<!-- dir_b4adee91cd38b3cdb585612c8d987308 -->
<g id="node5" class="node">
<title>dir_b4adee91cd38b3cdb585612c8d987308</title>
<g id="a_node5"><a xlink:href="dir_b4adee91cd38b3cdb585612c8d987308.html" target="_top" xlink:title="objects">
<polygon fill="#a2b4d6" stroke="#404040" points="153,-200 101,-200 101,-181 153,-181 153,-200"/>
<text text-anchor="middle" x="127" y="-188" font-family="Helvetica,sans-Serif" font-size="10.00">objects</text>
</a>
</g>
</g>
<!-- dir_d44c64559bbebec7f509842c48db8b23&#45;&gt;dir_b4adee91cd38b3cdb585612c8d987308 -->
<g id="edge2" class="edge">
<title>dir_d44c64559bbebec7f509842c48db8b23&#45;&gt;dir_b4adee91cd38b3cdb585612c8d987308</title>
<g id="a_edge2"><a xlink:href="dir_000003_000008.html" target="_top">
<path fill="none" stroke="#63b8ff" d="M127,-235.75C127,-228.8 127,-218.85 127,-210.13"/>
<polygon fill="#63b8ff" stroke="#63b8ff" points="130.5,-210.09 127,-200.09 123.5,-210.09 130.5,-210.09"/>
</a>
</g>
<g id="a_edge2&#45;headlabel"><a xlink:href="dir_000003_000008.html" target="_top" xlink:title="3">
<text text-anchor="middle" x="133.34" y="-211.18" font-family="Helvetica,sans-Serif" font-size="10.00" fill="#63b8ff">3</text>
</a>
</g>
</g>
<!-- dir_27636f4d4b2113f82b513d65146ca471 -->
<g id="node6" class="node">
<title>dir_27636f4d4b2113f82b513d65146ca471</title>
<g id="a_node6"><a xlink:href="dir_27636f4d4b2113f82b513d65146ca471.html" target="_top" xlink:title="rendering">
<polygon fill="#a2b4d6" stroke="#404040" points="164.5,-90 101.5,-90 101.5,-71 164.5,-71 164.5,-90"/>
<text text-anchor="middle" x="133" y="-78" font-family="Helvetica,sans-Serif" font-size="10.00">rendering</text>
</a>
</g>
</g>
<!-- dir_d44c64559bbebec7f509842c48db8b23&#45;&gt;dir_27636f4d4b2113f82b513d65146ca471 -->
<g id="edge1" class="edge">
<title>dir_d44c64559bbebec7f509842c48db8b23&#45;&gt;dir_27636f4d4b2113f82b513d65146ca471</title>
<g id="a_edge1"><a xlink:href="dir_000003_000009.html" target="_top">
<path fill="none" stroke="#63b8ff" d="M136.88,-235.75C145.39,-227.5 157.05,-214.3 162,-200 174.12,-164.97 156.12,-122.46 143.51,-99.06"/>
<polygon fill="#63b8ff" stroke="#63b8ff" points="146.52,-97.26 138.55,-90.28 140.42,-100.71 146.52,-97.26"/>
</a>
</g>
<g id="a_edge1&#45;headlabel"><a xlink:href="dir_000003_000009.html" target="_top" xlink:title="8">
<text text-anchor="middle" x="150.76" y="-96.49" font-family="Helvetica,sans-Serif" font-size="10.00" fill="#63b8ff">8</text>
</a>
</g>
</g>
<!-- dir_d66e8d5a7776834ccee339fd5fd3e729 -->
<g id="node2" class="node">
<title>dir_d66e8d5a7776834ccee339fd5fd3e729</title>
<g id="a_node2"><a xlink:href="dir_d66e8d5a7776834ccee339fd5fd3e729.html" target="_top" xlink:title="components">
<polygon fill="#a2b4d6" stroke="#404040" points="133.5,-145 56.5,-145 56.5,-126 133.5,-126 133.5,-145"/>
<text text-anchor="middle" x="95" y="-133" font-family="Helvetica,sans-Serif" font-size="10.00">components</text>
</a>
</g>
</g>
<!-- dir_d66e8d5a7776834ccee339fd5fd3e729&#45;&gt;dir_fba38f648377aa56ae5d69782adf9e53 -->
<g id="edge5" class="edge">
<title>dir_d66e8d5a7776834ccee339fd5fd3e729&#45;&gt;dir_fba38f648377aa56ae5d69782adf9e53</title>
<g id="a_edge5"><a xlink:href="dir_000001_000006.html" target="_top">
<path fill="none" stroke="#63b8ff" d="M91.73,-125.66C85.19,-108.01 70.4,-68.09 61.72,-44.64"/>
<polygon fill="#63b8ff" stroke="#63b8ff" points="64.96,-43.32 58.21,-35.16 58.4,-45.75 64.96,-43.32"/>
</a>
</g>
<g id="a_edge5&#45;headlabel"><a xlink:href="dir_000001_000006.html" target="_top" xlink:title="6">
<text text-anchor="middle" x="68.87" y="-43.2" font-family="Helvetica,sans-Serif" font-size="10.00" fill="#63b8ff">6</text>
</a>
</g>
</g>
<!-- dir_d66e8d5a7776834ccee339fd5fd3e729&#45;&gt;dir_27636f4d4b2113f82b513d65146ca471 -->
<g id="edge4" class="edge">
<title>dir_d66e8d5a7776834ccee339fd5fd3e729&#45;&gt;dir_27636f4d4b2113f82b513d65146ca471</title>
<g id="a_edge4"><a xlink:href="dir_000001_000009.html" target="_top">
<path fill="none" stroke="#63b8ff" d="M96.11,-125.75C99.91,-118.18 107.51,-107.05 114.99,-97.84"/>
<polygon fill="#63b8ff" stroke="#63b8ff" points="117.81,-99.94 121.71,-90.09 112.52,-95.36 117.81,-99.94"/>
</a>
</g>
<g id="a_edge4&#45;headlabel"><a xlink:href="dir_000001_000009.html" target="_top" xlink:title="1">
<text text-anchor="middle" x="117.6" y="-102.02" font-family="Helvetica,sans-Serif" font-size="10.00" fill="#63b8ff">1</text>
</a>
</g>
</g>
<!-- dir_e8162cbcd2a0630786d64b00f43c2c71 -->
<g id="node3" class="node">
<title>dir_e8162cbcd2a0630786d64b00f43c2c71</title>
<g id="a_node3"><a xlink:href="dir_e8162cbcd2a0630786d64b00f43c2c71.html" target="_top" xlink:title="materials">
<polygon fill="#a2b4d6" stroke="#404040" points="80.5,-255 17.5,-255 17.5,-236 80.5,-236 80.5,-255"/>
<text text-anchor="middle" x="49" y="-243" font-family="Helvetica,sans-Serif" font-size="10.00">materials</text>
</a>
</g>
</g>
<!-- dir_b4adee91cd38b3cdb585612c8d987308&#45;&gt;dir_d66e8d5a7776834ccee339fd5fd3e729 -->
<g id="edge7" class="edge">
<title>dir_b4adee91cd38b3cdb585612c8d987308&#45;&gt;dir_d66e8d5a7776834ccee339fd5fd3e729</title>
<g id="a_edge7"><a xlink:href="dir_000008_000001.html" target="_top">
<path fill="none" stroke="#63b8ff" d="M121.72,-180.75C117.29,-173.42 110.84,-162.73 105.38,-153.7"/>
<polygon fill="#63b8ff" stroke="#63b8ff" points="108.35,-151.84 100.19,-145.09 102.36,-155.46 108.35,-151.84"/>
</a>
</g>
<g id="a_edge7&#45;headlabel"><a xlink:href="dir_000008_000001.html" target="_top" xlink:title="1">
<text text-anchor="middle" x="112.64" y="-150.95" font-family="Helvetica,sans-Serif" font-size="10.00" fill="#63b8ff">1</text>
</a>
</g>
</g>
<!-- dir_b4adee91cd38b3cdb585612c8d987308&#45;&gt;dir_fba38f648377aa56ae5d69782adf9e53 -->
<g id="edge8" class="edge">
<title>dir_b4adee91cd38b3cdb585612c8d987308&#45;&gt;dir_fba38f648377aa56ae5d69782adf9e53</title>
<g id="a_edge8"><a xlink:href="dir_000008_000006.html" target="_top">
<path fill="none" stroke="#63b8ff" d="M100.73,-182.59C82.13,-176.18 58.52,-164.59 47,-145 28.61,-113.72 39.28,-69.46 47.75,-44.84"/>
<polygon fill="#63b8ff" stroke="#63b8ff" points="51.09,-45.89 51.26,-35.3 44.52,-43.47 51.09,-45.89"/>
</a>
</g>
<g id="a_edge8&#45;headlabel"><a xlink:href="dir_000008_000006.html" target="_top" xlink:title="1">
<text text-anchor="middle" x="52.51" y="-47.75" font-family="Helvetica,sans-Serif" font-size="10.00" fill="#63b8ff">1</text>
</a>
</g>
</g>
<!-- dir_b4adee91cd38b3cdb585612c8d987308&#45;&gt;dir_27636f4d4b2113f82b513d65146ca471 -->
<g id="edge6" class="edge">
<title>dir_b4adee91cd38b3cdb585612c8d987308&#45;&gt;dir_27636f4d4b2113f82b513d65146ca471</title>
<g id="a_edge6"><a xlink:href="dir_000008_000009.html" target="_top">
<path fill="none" stroke="#63b8ff" d="M124.31,-180.88C126.06,-172.09 131.74,-157.94 134,-145 136.61,-130.02 133.61,-112.99 131.59,-100.34"/>
<polygon fill="#63b8ff" stroke="#63b8ff" points="135.01,-99.58 130.19,-90.14 128.08,-100.52 135.01,-99.58"/>
</a>
</g>
<g id="a_edge6&#45;headlabel"><a xlink:href="dir_000008_000009.html" target="_top" xlink:title="1">
<text text-anchor="middle" x="138.31" y="-100.25" font-family="Helvetica,sans-Serif" font-size="10.00" fill="#63b8ff">1</text>
</a>
</g>
</g>
<!-- dir_27636f4d4b2113f82b513d65146ca471&#45;&gt;dir_d66e8d5a7776834ccee339fd5fd3e729 -->
<g id="edge10" class="edge">
<title>dir_27636f4d4b2113f82b513d65146ca471&#45;&gt;dir_d66e8d5a7776834ccee339fd5fd3e729</title>
<g id="a_edge10"><a xlink:href="dir_000009_000001.html" target="_top">
<path fill="none" stroke="#63b8ff" d="M131.97,-90.09C128.23,-97.6 120.65,-108.72 113.17,-117.96"/>
<polygon fill="#63b8ff" stroke="#63b8ff" points="110.33,-115.89 106.44,-125.75 115.63,-120.47 110.33,-115.89"/>
</a>
</g>
<g id="a_edge10&#45;headlabel"><a xlink:href="dir_000009_000001.html" target="_top" xlink:title="1">
<text text-anchor="middle" x="110.53" y="-108.82" font-family="Helvetica,sans-Serif" font-size="10.00" fill="#63b8ff">1</text>
</a>
</g>
</g>
<!-- dir_27636f4d4b2113f82b513d65146ca471&#45;&gt;dir_fba38f648377aa56ae5d69782adf9e53 -->
<g id="edge11" class="edge">
<title>dir_27636f4d4b2113f82b513d65146ca471&#45;&gt;dir_fba38f648377aa56ae5d69782adf9e53</title>
<g id="a_edge11"><a xlink:href="dir_000009_000006.html" target="_top">
<path fill="none" stroke="#63b8ff" d="M120.47,-70.98C108.6,-62.92 90.54,-50.65 76.39,-41.03"/>
<polygon fill="#63b8ff" stroke="#63b8ff" points="78,-37.9 67.76,-35.17 74.06,-43.69 78,-37.9"/>
</a>
</g>
<g id="a_edge11&#45;headlabel"><a xlink:href="dir_000009_000006.html" target="_top" xlink:title="7">
<text text-anchor="middle" x="82.57" y="-35.07" font-family="Helvetica,sans-Serif" font-size="10.00" fill="#63b8ff">7</text>
</a>
</g>
</g>
<!-- dir_27636f4d4b2113f82b513d65146ca471&#45;&gt;dir_b4adee91cd38b3cdb585612c8d987308 -->
<g id="edge9" class="edge">
<title>dir_27636f4d4b2113f82b513d65146ca471&#45;&gt;dir_b4adee91cd38b3cdb585612c8d987308</title>
<g id="a_edge9"><a xlink:href="dir_000009_000008.html" target="_top">
<path fill="none" stroke="#63b8ff" d="M142.14,-90.14C149.24,-102.37 155.41,-125.43 152,-145 150.4,-154.2 147.06,-164.01 143.06,-172.07"/>
<polygon fill="#63b8ff" stroke="#63b8ff" points="139.93,-170.48 137.91,-180.88 145.98,-174.01 139.93,-170.48"/>
</a>
</g>
<g id="a_edge9&#45;headlabel"><a xlink:href="dir_000009_000008.html" target="_top" xlink:title="2">
<text text-anchor="middle" x="139.29" y="-163.44" font-family="Helvetica,sans-Serif" font-size="10.00" fill="#63b8ff">2</text>
</a>
</g>
</g>
</g>
</svg>
