<?xml version="1.0" encoding="UTF-8" standalone="no"?>
<!DOCTYPE svg PUBLIC "-//W3C//DTD SVG 1.1//EN"
 "http://www.w3.org/Graphics/SVG/1.1/DTD/svg11.dtd">
<!-- Generated by graphviz version 2.43.0 (0)
 -->
<!-- Title: include Pages: 1 -->
<svg width="204pt" height="279pt"
 viewBox="0.00 0.00 204.00 279.00" xmlns="http://www.w3.org/2000/svg" xmlns:xlink="http://www.w3.org/1999/xlink">
<g id="graph0" class="graph" transform="scale(1 1) rotate(0) translate(4 275)">
<title>include</title>
<g id="clust1" class="cluster">
<title>clusterdir_d44c64559bbebec7f509842c48db8b23</title>
<g id="a_clust1"><a xlink:href="dir_d44c64559bbebec7f509842c48db8b23.html" target="_top">
<polygon fill="#edf0f7" stroke="#404040" stroke-width="2" points="8,-8 8,-263 188,-263 188,-8 8,-8"/>
</a>
</g>
</g>
<!-- dir_d44c64559bbebec7f509842c48db8b23 -->
<g id="node1" class="node">
<title>dir_d44c64559bbebec7f509842c48db8b23</title>
<text text-anchor="middle" x="134" y="-243" font-family="Helvetica,sans-Serif" font-size="10.00">include</text>
</g>
<!-- dir_fba38f648377aa56ae5d69782adf9e53 -->
<g id="node3" class="node">
<title>dir_fba38f648377aa56ae5d69782adf9e53</title>
<g id="a_node3"><a xlink:href="dir_fba38f648377aa56ae5d69782adf9e53.html" target="_top" xlink:title="math">
<polygon fill="#a2b4d6" stroke="#404040" points="153,-35 111,-35 111,-16 153,-16 153,-35"/>
<text text-anchor="middle" x="132" y="-23" font-family="Helvetica,sans-Serif" font-size="10.00">math</text>
</a>
</g>
</g>
<!-- dir_d44c64559bbebec7f509842c48db8b23&#45;&gt;dir_fba38f648377aa56ae5d69782adf9e53 -->
<g id="edge3" class="edge">
<title>dir_d44c64559bbebec7f509842c48db8b23&#45;&gt;dir_fba38f648377aa56ae5d69782adf9e53</title>
<g id="a_edge3"><a xlink:href="dir_000003_000005.html" target="_top">
<path fill="none" stroke="#63b8ff" d="M143.88,-235.75C152.39,-227.5 164.05,-214.3 169,-200 188.18,-144.59 158.37,-75.63 141.82,-43.93"/>
<polygon fill="#63b8ff" stroke="#63b8ff" points="144.83,-42.14 137,-35.01 138.68,-45.47 144.83,-42.14"/>
</a>
</g>
<g id="a_edge3&#45;headlabel"><a xlink:href="dir_000003_000005.html" target="_top" xlink:title="17">
<text text-anchor="middle" x="149.04" y="-41.45" font-family="Helvetica,sans-Serif" font-size="10.00" fill="#63b8ff">17</text>
</a>
</g>
</g>
<!-- dir_b4adee91cd38b3cdb585612c8d987308 -->
<g id="node4" class="node">
<title>dir_b4adee91cd38b3cdb585612c8d987308</title>
<g id="a_node4"><a xlink:href="dir_b4adee91cd38b3cdb585612c8d987308.html" target="_top" xlink:title="objects">
<polygon fill="#a2b4d6" stroke="#404040" points="160,-200 108,-200 108,-181 160,-181 160,-200"/>
<text text-anchor="middle" x="134" y="-188" font-family="Helvetica,sans-Serif" font-size="10.00">objects</text>
</a>
</g>
</g>
<!-- dir_d44c64559bbebec7f509842c48db8b23&#45;&gt;dir_b4adee91cd38b3cdb585612c8d987308 -->
<g id="edge2" class="edge">
<title>dir_d44c64559bbebec7f509842c48db8b23&#45;&gt;dir_b4adee91cd38b3cdb585612c8d987308</title>
<g id="a_edge2"><a xlink:href="dir_000003_000007.html" target="_top">
<path fill="none" stroke="#63b8ff" d="M134,-235.75C134,-228.8 134,-218.85 134,-210.13"/>
<polygon fill="#63b8ff" stroke="#63b8ff" points="137.5,-210.09 134,-200.09 130.5,-210.09 137.5,-210.09"/>
</a>
</g>
<g id="a_edge2&#45;headlabel"><a xlink:href="dir_000003_000007.html" target="_top" xlink:title="3">
<text text-anchor="middle" x="140.34" y="-211.18" font-family="Helvetica,sans-Serif" font-size="10.00" fill="#63b8ff">3</text>
</a>
</g>
</g>
<!-- dir_27636f4d4b2113f82b513d65146ca471 -->
<g id="node6" class="node">
<title>dir_27636f4d4b2113f82b513d65146ca471</title>
<g id="a_node6"><a xlink:href="dir_27636f4d4b2113f82b513d65146ca471.html" target="_top" xlink:title="rendering">
<polygon fill="#a2b4d6" stroke="#404040" points="138.5,-90 75.5,-90 75.5,-71 138.5,-71 138.5,-90"/>
<text text-anchor="middle" x="107" y="-78" font-family="Helvetica,sans-Serif" font-size="10.00">rendering</text>
</a>
</g>
</g>
<!-- dir_d44c64559bbebec7f509842c48db8b23&#45;&gt;dir_27636f4d4b2113f82b513d65146ca471 -->
<g id="edge1" class="edge">
<title>dir_d44c64559bbebec7f509842c48db8b23&#45;&gt;dir_27636f4d4b2113f82b513d65146ca471</title>
<g id="a_edge1"><a xlink:href="dir_000003_000009.html" target="_top">
<path fill="none" stroke="#63b8ff" d="M124.12,-235.75C115.61,-227.5 103.95,-214.3 99,-200 96.24,-192.02 98.53,-189.43 99,-181 99.89,-164.93 101.6,-161.04 103,-145 104.3,-130 105.35,-112.98 106.05,-100.33"/>
<polygon fill="#63b8ff" stroke="#63b8ff" points="109.56,-100.31 106.59,-90.14 102.57,-99.94 109.56,-100.31"/>
</a>
</g>
<g id="a_edge1&#45;headlabel"><a xlink:href="dir_000003_000009.html" target="_top" xlink:title="8">
<text text-anchor="middle" x="112.2" y="-101.55" font-family="Helvetica,sans-Serif" font-size="10.00" fill="#63b8ff">8</text>
</a>
</g>
</g>
<!-- dir_d66e8d5a7776834ccee339fd5fd3e729 -->
<g id="node2" class="node">
<title>dir_d66e8d5a7776834ccee339fd5fd3e729</title>
<g id="a_node2"><a xlink:href="dir_d66e8d5a7776834ccee339fd5fd3e729.html" target="_top" xlink:title="components">
<polygon fill="#a2b4d6" stroke="#404040" points="93.5,-145 16.5,-145 16.5,-126 93.5,-126 93.5,-145"/>
<text text-anchor="middle" x="55" y="-133" font-family="Helvetica,sans-Serif" font-size="10.00">components</text>
</a>
</g>
</g>
<!-- dir_d66e8d5a7776834ccee339fd5fd3e729&#45;&gt;dir_fba38f648377aa56ae5d69782adf9e53 -->
<g id="edge5" class="edge">
<title>dir_d66e8d5a7776834ccee339fd5fd3e729&#45;&gt;dir_fba38f648377aa56ae5d69782adf9e53</title>
<g id="a_edge5"><a xlink:href="dir_000001_000005.html" target="_top">
<path fill="none" stroke="#63b8ff" d="M54.63,-125.94C54.48,-112.98 55.83,-88.1 67,-71 75.67,-57.73 89.8,-47.36 102.69,-39.98"/>
<polygon fill="#63b8ff" stroke="#63b8ff" points="104.58,-42.93 111.75,-35.13 101.28,-36.76 104.58,-42.93"/>
</a>
</g>
<g id="a_edge5&#45;headlabel"><a xlink:href="dir_000001_000005.html" target="_top" xlink:title="6">
<text text-anchor="middle" x="102.75" y="-44.63" font-family="Helvetica,sans-Serif" font-size="10.00" fill="#63b8ff">6</text>
</a>
</g>
</g>
<!-- dir_d66e8d5a7776834ccee339fd5fd3e729&#45;&gt;dir_27636f4d4b2113f82b513d65146ca471 -->
<g id="edge4" class="edge">
<title>dir_d66e8d5a7776834ccee339fd5fd3e729&#45;&gt;dir_27636f4d4b2113f82b513d65146ca471</title>
<g id="a_edge4"><a xlink:href="dir_000001_000009.html" target="_top">
<path fill="none" stroke="#63b8ff" d="M58.42,-125.75C64.45,-117.88 75.63,-106.14 85.89,-96.73"/>
<polygon fill="#63b8ff" stroke="#63b8ff" points="88.24,-99.32 93.44,-90.09 83.62,-94.06 88.24,-99.32"/>
</a>
</g>
<g id="a_edge4&#45;headlabel"><a xlink:href="dir_000001_000009.html" target="_top" xlink:title="1">
<text text-anchor="middle" x="87.41" y="-101.32" font-family="Helvetica,sans-Serif" font-size="10.00" fill="#63b8ff">1</text>
</a>
</g>
</g>
<!-- dir_b4adee91cd38b3cdb585612c8d987308&#45;&gt;dir_d66e8d5a7776834ccee339fd5fd3e729 -->
<g id="edge7" class="edge">
<title>dir_b4adee91cd38b3cdb585612c8d987308&#45;&gt;dir_d66e8d5a7776834ccee339fd5fd3e729</title>
<g id="a_edge7"><a xlink:href="dir_000007_000001.html" target="_top">
<path fill="none" stroke="#63b8ff" d="M121.31,-180.98C109.17,-172.84 90.64,-160.41 76.25,-150.76"/>
<polygon fill="#63b8ff" stroke="#63b8ff" points="78.18,-147.84 67.92,-145.17 74.28,-153.65 78.18,-147.84"/>
</a>
</g>
<g id="a_edge7&#45;headlabel"><a xlink:href="dir_000007_000001.html" target="_top" xlink:title="1">
<text text-anchor="middle" x="82.74" y="-144.98" font-family="Helvetica,sans-Serif" font-size="10.00" fill="#63b8ff">1</text>
</a>
</g>
</g>
<!-- dir_b4adee91cd38b3cdb585612c8d987308&#45;&gt;dir_fba38f648377aa56ae5d69782adf9e53 -->
<g id="edge8" class="edge">
<title>dir_b4adee91cd38b3cdb585612c8d987308&#45;&gt;dir_fba38f648377aa56ae5d69782adf9e53</title>
<g id="a_edge8"><a xlink:href="dir_000007_000005.html" target="_top">
<path fill="none" stroke="#63b8ff" d="M136.74,-180.83C142.57,-161.18 155.11,-111.82 148,-71 146.43,-62 143.2,-52.42 140.06,-44.46"/>
<polygon fill="#63b8ff" stroke="#63b8ff" points="143.23,-42.97 136.11,-35.12 136.78,-45.69 143.23,-42.97"/>
</a>
</g>
<g id="a_edge8&#45;headlabel"><a xlink:href="dir_000007_000005.html" target="_top" xlink:title="1">
<text text-anchor="middle" x="147.24" y="-42.68" font-family="Helvetica,sans-Serif" font-size="10.00" fill="#63b8ff">1</text>
</a>
</g>
</g>
<!-- dir_b4adee91cd38b3cdb585612c8d987308&#45;&gt;dir_27636f4d4b2113f82b513d65146ca471 -->
<g id="edge6" class="edge">
<title>dir_b4adee91cd38b3cdb585612c8d987308&#45;&gt;dir_27636f4d4b2113f82b513d65146ca471</title>
<g id="a_edge6"><a xlink:href="dir_000007_000009.html" target="_top">
<path fill="none" stroke="#63b8ff" d="M127.88,-180.66C120.24,-163.17 109.95,-123.8 106.43,-100.27"/>
<polygon fill="#63b8ff" stroke="#63b8ff" points="109.89,-99.7 105.29,-90.16 102.93,-100.49 109.89,-99.7"/>
</a>
</g>
<g id="a_edge6&#45;headlabel"><a xlink:href="dir_000007_000009.html" target="_top" xlink:title="1">
<text text-anchor="middle" x="113.11" y="-100.45" font-family="Helvetica,sans-Serif" font-size="10.00" fill="#63b8ff">1</text>
</a>
</g>
</g>
<!-- dir_f7c9792946d4ae97dc97b9de2773b6b2 -->
<g id="node5" class="node">
<title>dir_f7c9792946d4ae97dc97b9de2773b6b2</title>
<g id="a_node5"><a xlink:href="dir_f7c9792946d4ae97dc97b9de2773b6b2.html" target="_top" xlink:title="physics">
<polygon fill="#a2b4d6" stroke="#404040" points="69.5,-200 16.5,-200 16.5,-181 69.5,-181 69.5,-200"/>
<text text-anchor="middle" x="43" y="-188" font-family="Helvetica,sans-Serif" font-size="10.00">physics</text>
</a>
</g>
</g>
<!-- dir_f7c9792946d4ae97dc97b9de2773b6b2&#45;&gt;dir_d66e8d5a7776834ccee339fd5fd3e729 -->
<g id="edge9" class="edge">
<title>dir_f7c9792946d4ae97dc97b9de2773b6b2&#45;&gt;dir_d66e8d5a7776834ccee339fd5fd3e729</title>
<g id="a_edge9"><a xlink:href="dir_000008_000001.html" target="_top">
<path fill="none" stroke="#63b8ff" d="M44.98,-180.75C46.57,-173.72 48.86,-163.62 50.85,-154.84"/>
<polygon fill="#63b8ff" stroke="#63b8ff" points="54.26,-155.62 53.06,-145.09 47.43,-154.07 54.26,-155.62"/>
</a>
</g>
<g id="a_edge9&#45;headlabel"><a xlink:href="dir_000008_000001.html" target="_top" xlink:title="2">
<text text-anchor="middle" x="56.24" y="-157.25" font-family="Helvetica,sans-Serif" font-size="10.00" fill="#63b8ff">2</text>
</a>
</g>
</g>
<!-- dir_27636f4d4b2113f82b513d65146ca471&#45;&gt;dir_d66e8d5a7776834ccee339fd5fd3e729 -->
<g id="edge11" class="edge">
<title>dir_27636f4d4b2113f82b513d65146ca471&#45;&gt;dir_d66e8d5a7776834ccee339fd5fd3e729</title>
<g id="a_edge11"><a xlink:href="dir_000009_000001.html" target="_top">
<path fill="none" stroke="#63b8ff" d="M103.64,-90.17C97.61,-98.06 86.36,-109.87 76.06,-119.32"/>
<polygon fill="#63b8ff" stroke="#63b8ff" points="73.68,-116.76 68.47,-125.98 78.29,-122.02 73.68,-116.76"/>
</a>
</g>
<g id="a_edge11&#45;headlabel"><a xlink:href="dir_000009_000001.html" target="_top" xlink:title="1">
<text text-anchor="middle" x="74.51" y="-109.75" font-family="Helvetica,sans-Serif" font-size="10.00" fill="#63b8ff">1</text>
</a>
</g>
</g>
<!-- dir_27636f4d4b2113f82b513d65146ca471&#45;&gt;dir_fba38f648377aa56ae5d69782adf9e53 -->
<g id="edge12" class="edge">
<title>dir_27636f4d4b2113f82b513d65146ca471&#45;&gt;dir_fba38f648377aa56ae5d69782adf9e53</title>
<g id="a_edge12"><a xlink:href="dir_000009_000005.html" target="_top">
<path fill="none" stroke="#63b8ff" d="M111.13,-70.75C114.51,-63.57 119.42,-53.18 123.62,-44.27"/>
<polygon fill="#63b8ff" stroke="#63b8ff" points="126.85,-45.63 127.95,-35.09 120.52,-42.64 126.85,-45.63"/>
</a>
</g>
<g id="a_edge12&#45;headlabel"><a xlink:href="dir_000009_000005.html" target="_top" xlink:title="7">
<text text-anchor="middle" x="127.88" y="-47.59" font-family="Helvetica,sans-Serif" font-size="10.00" fill="#63b8ff">7</text>
</a>
</g>
</g>
<!-- dir_27636f4d4b2113f82b513d65146ca471&#45;&gt;dir_b4adee91cd38b3cdb585612c8d987308 -->
<g id="edge10" class="edge">
<title>dir_27636f4d4b2113f82b513d65146ca471&#45;&gt;dir_b4adee91cd38b3cdb585612c8d987308</title>
<g id="a_edge10"><a xlink:href="dir_000009_000007.html" target="_top">
<path fill="none" stroke="#63b8ff" d="M113.04,-90.16C120.66,-107.5 130.96,-146.84 134.53,-170.48"/>
<polygon fill="#63b8ff" stroke="#63b8ff" points="131.08,-171.13 135.7,-180.66 138.04,-170.33 131.08,-171.13"/>
</a>
</g>
<g id="a_edge10&#45;headlabel"><a xlink:href="dir_000009_000007.html" target="_top" xlink:title="2">
<text text-anchor="middle" x="127.85" y="-165.38" font-family="Helvetica,sans-Serif" font-size="10.00" fill="#63b8ff">2</text>
</a>
</g>
</g>
</g>
</svg>
