<?xml version="1.0" encoding="UTF-8" standalone="no"?>
<!DOCTYPE svg PUBLIC "-//W3C//DTD SVG 1.1//EN"
 "http://www.w3.org/Graphics/SVG/1.1/DTD/svg11.dtd">
<!-- Generated by graphviz version 2.43.0 (0)
 -->
<!-- Title: include/Engine.hpp Pages: 1 -->
<svg width="1899pt" height="577pt"
 viewBox="0.00 0.00 1899.14 577.00" xmlns="http://www.w3.org/2000/svg" xmlns:xlink="http://www.w3.org/1999/xlink">
<g id="graph0" class="graph" transform="scale(1 1) rotate(0) translate(4 573)">
<title>include/Engine.hpp</title>
<!-- Node1 -->
<g id="Node000001" class="node">
<title>Node1</title>
<g id="a_Node000001"><a xlink:title="Defines the core Engine class responsible for running simulation.">
<polygon fill="#999999" stroke="#666666" points="466.54,-569 357.54,-569 357.54,-550 466.54,-550 466.54,-569"/>
<text text-anchor="middle" x="412.04" y="-557" font-family="Helvetica,sans-Serif" font-size="10.00">include/Engine.hpp</text>
</a>
</g>
</g>
<!-- Node2 -->
<g id="Node000002" class="node">
<title>Node2</title>
<g id="a_Node000002"><a xlink:href="Window_8hpp.html" target="_top" xlink:title="Provides a window for OpenGL rendering using GLFW.">
<polygon fill="white" stroke="#666666" points="150.04,-459 74.04,-459 74.04,-440 150.04,-440 150.04,-459"/>
<text text-anchor="middle" x="112.04" y="-447" font-family="Helvetica,sans-Serif" font-size="10.00">Window.hpp</text>
</a>
</g>
</g>
<!-- Node1&#45;&gt;Node2 -->
<g id="edge1_Node000001_Node000002" class="edge">
<title>Node1&#45;&gt;Node2</title>
<g id="a_edge1_Node000001_Node000002"><a xlink:title=" ">
<path fill="none" stroke="#63b8ff" d="M388.25,-549.94C335.08,-530.79 206.51,-484.51 145.39,-462.51"/>
<polygon fill="#63b8ff" stroke="#63b8ff" points="146.43,-459.16 135.83,-459.07 144.05,-465.75 146.43,-459.16"/>
</a>
</g>
</g>
<!-- Node6 -->
<g id="Node000006" class="node">
<title>Node6</title>
<g id="a_Node000006"><a xlink:href="Renderer_8hpp.html" target="_top" xlink:title="Manages the rendering pipeline and object submission.">
<polygon fill="white" stroke="#666666" points="716.54,-514 585.54,-514 585.54,-495 716.54,-495 716.54,-514"/>
<text text-anchor="middle" x="651.04" y="-502" font-family="Helvetica,sans-Serif" font-size="10.00">rendering/Renderer.hpp</text>
</a>
</g>
</g>
<!-- Node1&#45;&gt;Node6 -->
<g id="edge5_Node000001_Node000006" class="edge">
<title>Node1&#45;&gt;Node6</title>
<g id="a_edge5_Node000001_Node000006"><a xlink:title=" ">
<path fill="none" stroke="#63b8ff" d="M450.44,-549.98C491.78,-540.82 557.64,-526.21 602.53,-516.26"/>
<polygon fill="#63b8ff" stroke="#63b8ff" points="603.33,-519.66 612.34,-514.08 601.82,-512.83 603.33,-519.66"/>
</a>
</g>
</g>
<!-- Node3 -->
<g id="Node000003" class="node">
<title>Node3</title>
<g id="a_Node000003"><a xlink:title=" ">
<polygon fill="#e0e0e0" stroke="#999999" points="319.54,-184 248.54,-184 248.54,-165 319.54,-165 319.54,-184"/>
<text text-anchor="middle" x="284.04" y="-172" font-family="Helvetica,sans-Serif" font-size="10.00">glad/glad.h</text>
</a>
</g>
</g>
<!-- Node2&#45;&gt;Node3 -->
<g id="edge2_Node000002_Node000003" class="edge">
<title>Node2&#45;&gt;Node3</title>
<g id="a_edge2_Node000002_Node000003"><a xlink:title=" ">
<path fill="none" stroke="#63b8ff" d="M114.5,-439.76C120.42,-419.55 136.59,-368.41 159.04,-330 191.38,-274.66 242.61,-218.27 268.28,-191.5"/>
<polygon fill="#63b8ff" stroke="#63b8ff" points="270.93,-193.8 275.38,-184.18 265.91,-188.93 270.93,-193.8"/>
</a>
</g>
</g>
<!-- Node4 -->
<g id="Node000004" class="node">
<title>Node4</title>
<g id="a_Node000004"><a xlink:title=" ">
<polygon fill="#e0e0e0" stroke="#999999" points="111.54,-404 28.54,-404 28.54,-385 111.54,-385 111.54,-404"/>
<text text-anchor="middle" x="70.04" y="-392" font-family="Helvetica,sans-Serif" font-size="10.00">GLFW/glfw3.h</text>
</a>
</g>
</g>
<!-- Node2&#45;&gt;Node4 -->
<g id="edge3_Node000002_Node000004" class="edge">
<title>Node2&#45;&gt;Node4</title>
<g id="a_edge3_Node000002_Node000004"><a xlink:title=" ">
<path fill="none" stroke="#63b8ff" d="M105.1,-439.75C99.17,-432.26 90.47,-421.28 83.21,-412.13"/>
<polygon fill="#63b8ff" stroke="#63b8ff" points="85.8,-409.75 76.84,-404.09 80.31,-414.1 85.8,-409.75"/>
</a>
</g>
</g>
<!-- Node5 -->
<g id="Node000005" class="node">
<title>Node5</title>
<g id="a_Node000005"><a xlink:title=" ">
<polygon fill="#e0e0e0" stroke="#999999" points="419.04,-19 375.04,-19 375.04,0 419.04,0 419.04,-19"/>
<text text-anchor="middle" x="397.04" y="-7" font-family="Helvetica,sans-Serif" font-size="10.00">string</text>
</a>
</g>
</g>
<!-- Node2&#45;&gt;Node5 -->
<g id="edge4_Node000002_Node000005" class="edge">
<title>Node2&#45;&gt;Node5</title>
<g id="a_edge4_Node000002_Node000005"><a xlink:title=" ">
<path fill="none" stroke="#63b8ff" d="M78.53,-439.93C58.64,-433.22 34.4,-421.95 19.04,-404 -0.11,-381.61 0.04,-369.96 0.04,-340.5 0.04,-340.5 0.04,-340.5 0.04,-118.5 0.04,-43.1 270.02,-18.61 364.7,-12.34"/>
<polygon fill="#63b8ff" stroke="#63b8ff" points="365.08,-15.83 374.84,-11.7 364.64,-8.84 365.08,-15.83"/>
</a>
</g>
</g>
<!-- Node6&#45;&gt;Node2 -->
<g id="edge6_Node000006_Node000002" class="edge">
<title>Node6&#45;&gt;Node2</title>
<g id="a_edge6_Node000006_Node000002"><a xlink:title=" ">
<path fill="none" stroke="#63b8ff" d="M585.5,-498.99C491.83,-492.22 314.37,-478.13 164.04,-459 162.76,-458.84 161.47,-458.67 160.16,-458.49"/>
<polygon fill="#63b8ff" stroke="#63b8ff" points="160.44,-455 150.05,-457.03 159.45,-461.92 160.44,-455"/>
</a>
</g>
</g>
<!-- Node7 -->
<g id="Node000007" class="node">
<title>Node7</title>
<g id="a_Node000007"><a xlink:href="Object_8hpp.html" target="_top" xlink:title="Defines the Object class, a special ECS entity wrapper.">
<polygon fill="white" stroke="#666666" points="643.54,-404 536.54,-404 536.54,-385 643.54,-385 643.54,-404"/>
<text text-anchor="middle" x="590.04" y="-392" font-family="Helvetica,sans-Serif" font-size="10.00">objects/Object.hpp</text>
</a>
</g>
</g>
<!-- Node6&#45;&gt;Node7 -->
<g id="edge7_Node000006_Node000007" class="edge">
<title>Node6&#45;&gt;Node7</title>
<g id="a_edge7_Node000006_Node000007"><a xlink:title=" ">
<path fill="none" stroke="#63b8ff" d="M646.05,-494.66C635.99,-476.85 613.12,-436.37 599.92,-413.01"/>
<polygon fill="#63b8ff" stroke="#63b8ff" points="602.89,-411.14 594.93,-404.16 596.8,-414.59 602.89,-411.14"/>
</a>
</g>
</g>
<!-- Node23 -->
<g id="Node000023" class="node">
<title>Node23</title>
<g id="a_Node000023"><a xlink:title=" ">
<polygon fill="#e0e0e0" stroke="#999999" points="191.54,-184 144.54,-184 144.54,-165 191.54,-165 191.54,-184"/>
<text text-anchor="middle" x="168.04" y="-172" font-family="Helvetica,sans-Serif" font-size="10.00">vector</text>
</a>
</g>
</g>
<!-- Node6&#45;&gt;Node23 -->
<g id="edge76_Node000006_Node000023" class="edge">
<title>Node6&#45;&gt;Node23</title>
<g id="a_edge76_Node000006_Node000023"><a xlink:title=" ">
<path fill="none" stroke="#63b8ff" d="M585.26,-495.84C485.22,-481.49 292.37,-443.05 159.04,-349 103.33,-309.7 39.82,-277.76 76.04,-220 88.84,-199.59 113.94,-188.31 134.69,-182.22"/>
<polygon fill="#63b8ff" stroke="#63b8ff" points="135.69,-185.58 144.46,-179.63 133.9,-178.81 135.69,-185.58"/>
</a>
</g>
</g>
<!-- Node28 -->
<g id="Node000028" class="node">
<title>Node28</title>
<g id="a_Node000028"><a xlink:href="Shader_8hpp.html" target="_top" xlink:title="Manages OpenGL shaders.">
<polygon fill="white" stroke="#666666" points="607.04,-239 487.04,-239 487.04,-220 607.04,-220 607.04,-239"/>
<text text-anchor="middle" x="547.04" y="-227" font-family="Helvetica,sans-Serif" font-size="10.00">rendering/Shader.hpp</text>
</a>
</g>
</g>
<!-- Node6&#45;&gt;Node28 -->
<g id="edge75_Node000006_Node000028" class="edge">
<title>Node6&#45;&gt;Node28</title>
<g id="a_edge75_Node000006_Node000028"><a xlink:title=" ">
<path fill="none" stroke="#63b8ff" d="M653.45,-494.71C660.19,-468.39 677.15,-388.39 652.04,-330 635.6,-291.78 596.47,-261.36 570.9,-244.65"/>
<polygon fill="#63b8ff" stroke="#63b8ff" points="572.48,-241.51 562.16,-239.12 568.74,-247.43 572.48,-241.51"/>
</a>
</g>
</g>
<!-- Node35 -->
<g id="Node000035" class="node">
<title>Node35</title>
<g id="a_Node000035"><a xlink:href="PointLight_8hpp_source.html" target="_top" xlink:title=" ">
<polygon fill="white" stroke="#666666" points="825.54,-459 700.54,-459 700.54,-440 825.54,-440 825.54,-459"/>
<text text-anchor="middle" x="763.04" y="-447" font-family="Helvetica,sans-Serif" font-size="10.00">objects/PointLight.hpp</text>
</a>
</g>
</g>
<!-- Node6&#45;&gt;Node35 -->
<g id="edge58_Node000006_Node000035" class="edge">
<title>Node6&#45;&gt;Node35</title>
<g id="a_edge58_Node000006_Node000035"><a xlink:title=" ">
<path fill="none" stroke="#63b8ff" d="M669.03,-494.98C686.97,-486.5 714.75,-473.35 735.47,-463.54"/>
<polygon fill="#63b8ff" stroke="#63b8ff" points="737.17,-466.61 744.72,-459.17 734.18,-460.28 737.17,-466.61"/>
</a>
</g>
</g>
<!-- Node37 -->
<g id="Node000037" class="node">
<title>Node37</title>
<g id="a_Node000037"><a xlink:href="Camera_8hpp.html" target="_top" xlink:title="Defines the Camera class for view and projection.">
<polygon fill="white" stroke="#666666" points="970.54,-459 845.54,-459 845.54,-440 970.54,-440 970.54,-459"/>
<text text-anchor="middle" x="908.04" y="-447" font-family="Helvetica,sans-Serif" font-size="10.00">rendering/Camera.hpp</text>
</a>
</g>
</g>
<!-- Node6&#45;&gt;Node37 -->
<g id="edge63_Node000006_Node000037" class="edge">
<title>Node6&#45;&gt;Node37</title>
<g id="a_edge63_Node000006_Node000037"><a xlink:title=" ">
<path fill="none" stroke="#63b8ff" d="M692.33,-494.98C736.97,-485.78 808.2,-471.09 856.48,-461.13"/>
<polygon fill="#63b8ff" stroke="#63b8ff" points="857.34,-464.53 866.42,-459.08 855.92,-457.67 857.34,-464.53"/>
</a>
</g>
</g>
<!-- Node38 -->
<g id="Node000038" class="node">
<title>Node38</title>
<g id="a_Node000038"><a xlink:href="LightingSystem_8hpp_source.html" target="_top" xlink:title=" ">
<polygon fill="white" stroke="#666666" points="1102.54,-294 939.54,-294 939.54,-275 1102.54,-275 1102.54,-294"/>
<text text-anchor="middle" x="1021.04" y="-282" font-family="Helvetica,sans-Serif" font-size="10.00">rendering/LightingSystem.hpp</text>
</a>
</g>
</g>
<!-- Node6&#45;&gt;Node38 -->
<g id="edge67_Node000006_Node000038" class="edge">
<title>Node6&#45;&gt;Node38</title>
<g id="a_edge67_Node000006_Node000038"><a xlink:title=" ">
<path fill="none" stroke="#63b8ff" d="M716.7,-503.15C801.45,-501.31 942.52,-493.02 980.04,-459 1024.31,-418.85 1025.12,-340.55 1022.85,-304.5"/>
<polygon fill="#63b8ff" stroke="#63b8ff" points="1026.32,-304.08 1022.05,-294.38 1019.35,-304.63 1026.32,-304.08"/>
</a>
</g>
</g>
<!-- Node8 -->
<g id="Node000008" class="node">
<title>Node8</title>
<g id="a_Node000008"><a xlink:href="Entity_8hpp.html" target="_top" xlink:title="Defines the Entity class, which serves as a wrapper for ECS entities.">
<polygon fill="white" stroke="#666666" points="1224.54,-294 1159.54,-294 1159.54,-275 1224.54,-275 1224.54,-294"/>
<text text-anchor="middle" x="1192.04" y="-282" font-family="Helvetica,sans-Serif" font-size="10.00">Entity.hpp</text>
</a>
</g>
</g>
<!-- Node7&#45;&gt;Node8 -->
<g id="edge8_Node000007_Node000008" class="edge">
<title>Node7&#45;&gt;Node8</title>
<g id="a_edge8_Node000007_Node000008"><a xlink:title=" ">
<path fill="none" stroke="#63b8ff" d="M643.62,-391.72C774.3,-387.01 1101.88,-372.96 1145.04,-349 1163.16,-338.94 1176.26,-318.63 1183.96,-303.67"/>
<polygon fill="#63b8ff" stroke="#63b8ff" points="1187.25,-304.9 1188.42,-294.37 1180.94,-301.87 1187.25,-304.9"/>
</a>
</g>
</g>
<!-- Node24 -->
<g id="Node000024" class="node">
<title>Node24</title>
<g id="a_Node000024"><a xlink:href="MaterialComponent_8hpp_source.html" target="_top" xlink:title=" ">
<polygon fill="white" stroke="#666666" points="643.54,-349 446.54,-349 446.54,-330 643.54,-330 643.54,-349"/>
<text text-anchor="middle" x="545.04" y="-337" font-family="Helvetica,sans-Serif" font-size="10.00">components/MaterialComponent.hpp</text>
</a>
</g>
</g>
<!-- Node7&#45;&gt;Node24 -->
<g id="edge25_Node000007_Node000024" class="edge">
<title>Node7&#45;&gt;Node24</title>
<g id="a_edge25_Node000007_Node000024"><a xlink:title=" ">
<path fill="none" stroke="#63b8ff" d="M582.61,-384.75C576.18,-377.18 566.73,-366.05 558.91,-356.84"/>
<polygon fill="#63b8ff" stroke="#63b8ff" points="561.47,-354.45 552.33,-349.09 556.13,-358.98 561.47,-354.45"/>
</a>
</g>
</g>
<!-- Node27 -->
<g id="Node000027" class="node">
<title>Node27</title>
<g id="a_Node000027"><a xlink:href="Material_8hpp_source.html" target="_top" xlink:title=" ">
<polygon fill="white" stroke="#666666" points="536.04,-294 408.04,-294 408.04,-275 536.04,-275 536.04,-294"/>
<text text-anchor="middle" x="472.04" y="-282" font-family="Helvetica,sans-Serif" font-size="10.00">rendering/Material.hpp</text>
</a>
</g>
</g>
<!-- Node7&#45;&gt;Node27 -->
<g id="edge56_Node000007_Node000027" class="edge">
<title>Node7&#45;&gt;Node27</title>
<g id="a_edge56_Node000007_Node000027"><a xlink:title=" ">
<path fill="none" stroke="#63b8ff" d="M536.68,-384.94C497.55,-377.44 449.2,-365.21 437.04,-349 425.67,-333.85 439.75,-314.57 453.3,-301.25"/>
<polygon fill="#63b8ff" stroke="#63b8ff" points="456.01,-303.51 461.02,-294.18 451.28,-298.36 456.01,-303.51"/>
</a>
</g>
</g>
<!-- Node32 -->
<g id="Node000032" class="node">
<title>Node32</title>
<g id="a_Node000032"><a xlink:href="MeshComponent_8hpp_source.html" target="_top" xlink:title=" ">
<polygon fill="white" stroke="#666666" points="351.54,-349 168.54,-349 168.54,-330 351.54,-330 351.54,-349"/>
<text text-anchor="middle" x="260.04" y="-337" font-family="Helvetica,sans-Serif" font-size="10.00">components/MeshComponent.hpp</text>
</a>
</g>
</g>
<!-- Node7&#45;&gt;Node32 -->
<g id="edge46_Node000007_Node000032" class="edge">
<title>Node7&#45;&gt;Node32</title>
<g id="a_edge46_Node000007_Node000032"><a xlink:title=" ">
<path fill="none" stroke="#63b8ff" d="M537.02,-384.98C478.77,-375.63 385.27,-360.61 323.25,-350.65"/>
<polygon fill="#63b8ff" stroke="#63b8ff" points="323.63,-347.17 313.2,-349.04 322.52,-354.08 323.63,-347.17"/>
</a>
</g>
</g>
<!-- Node33 -->
<g id="Node000033" class="node">
<title>Node33</title>
<g id="a_Node000033"><a xlink:href="Mesh_8hpp.html" target="_top" xlink:title="Defines the Mesh class for managing 3D geometry.">
<polygon fill="white" stroke="#666666" points="198.54,-239 85.54,-239 85.54,-220 198.54,-220 198.54,-239"/>
<text text-anchor="middle" x="142.04" y="-227" font-family="Helvetica,sans-Serif" font-size="10.00">rendering/Mesh.hpp</text>
</a>
</g>
</g>
<!-- Node7&#45;&gt;Node33 -->
<g id="edge57_Node000007_Node000033" class="edge">
<title>Node7&#45;&gt;Node33</title>
<g id="a_edge57_Node000007_Node000033"><a xlink:title=" ">
<path fill="none" stroke="#63b8ff" d="M554.48,-385C521.61,-376.83 471.55,-363.59 429.04,-349 332,-315.7 220.63,-266.42 169.86,-243.32"/>
<polygon fill="#63b8ff" stroke="#63b8ff" points="171.09,-240.04 160.54,-239.07 168.18,-246.4 171.09,-240.04"/>
</a>
</g>
</g>
<!-- Node34 -->
<g id="Node000034" class="node">
<title>Node34</title>
<g id="a_Node000034"><a xlink:href="TransformComponent_8hpp.html" target="_top" xlink:title="Defines the TransformComponent for ECS&#45;based spatial transformations.">
<polygon fill="white" stroke="#666666" points="1370.04,-239 1164.04,-239 1164.04,-220 1370.04,-220 1370.04,-239"/>
<text text-anchor="middle" x="1267.04" y="-227" font-family="Helvetica,sans-Serif" font-size="10.00">components/TransformComponent.hpp</text>
</a>
</g>
</g>
<!-- Node7&#45;&gt;Node34 -->
<g id="edge52_Node000007_Node000034" class="edge">
<title>Node7&#45;&gt;Node34</title>
<g id="a_edge52_Node000007_Node000034"><a xlink:title=" ">
<path fill="none" stroke="#63b8ff" d="M643.82,-388.01C739.82,-377.17 946.13,-349.13 1112.04,-294 1130.33,-287.92 1133.35,-282.68 1151.04,-275 1178.39,-263.12 1210.03,-251.09 1233.35,-242.54"/>
<polygon fill="#63b8ff" stroke="#63b8ff" points="1234.6,-245.81 1242.8,-239.1 1232.2,-239.23 1234.6,-245.81"/>
</a>
</g>
</g>
<!-- Node9 -->
<g id="Node000009" class="node">
<title>Node9</title>
<g id="a_Node000009"><a xlink:href="Logger_8hpp.html" target="_top" xlink:title="Provides logging functionality.">
<polygon fill="white" stroke="#666666" points="1621.04,-184 1551.04,-184 1551.04,-165 1621.04,-165 1621.04,-184"/>
<text text-anchor="middle" x="1586.04" y="-172" font-family="Helvetica,sans-Serif" font-size="10.00">Logger.hpp</text>
</a>
</g>
</g>
<!-- Node8&#45;&gt;Node9 -->
<g id="edge9_Node000008_Node000009" class="edge">
<title>Node8&#45;&gt;Node9</title>
<g id="a_edge9_Node000008_Node000009"><a xlink:title=" ">
<path fill="none" stroke="#63b8ff" d="M1224.83,-278.45C1268.15,-271.42 1346.59,-257.45 1412.04,-239 1463.73,-224.43 1522.03,-201.84 1556.32,-187.9"/>
<polygon fill="#63b8ff" stroke="#63b8ff" points="1557.81,-191.07 1565.74,-184.04 1555.16,-184.59 1557.81,-191.07"/>
</a>
</g>
</g>
<!-- Node17 -->
<g id="Node000017" class="node">
<title>Node17</title>
<g id="a_Node000017"><a xlink:href="Registry_8hpp.html" target="_top" xlink:title="Defines the Registry class for managing ECS entities and components.">
<polygon fill="white" stroke="#666666" points="1143.54,-239 1066.54,-239 1066.54,-220 1143.54,-220 1143.54,-239"/>
<text text-anchor="middle" x="1105.04" y="-227" font-family="Helvetica,sans-Serif" font-size="10.00">Registry.hpp</text>
</a>
</g>
</g>
<!-- Node8&#45;&gt;Node17 -->
<g id="edge18_Node000008_Node000017" class="edge">
<title>Node8&#45;&gt;Node17</title>
<g id="a_edge18_Node000008_Node000017"><a xlink:title=" ">
<path fill="none" stroke="#63b8ff" d="M1178.06,-274.98C1164.57,-266.77 1143.9,-254.18 1128,-244.49"/>
<polygon fill="#63b8ff" stroke="#63b8ff" points="1129.63,-241.38 1119.27,-239.17 1125.99,-247.36 1129.63,-241.38"/>
</a>
</g>
</g>
<!-- Node9&#45;&gt;Node5 -->
<g id="edge17_Node000009_Node000005" class="edge">
<title>Node9&#45;&gt;Node5</title>
<g id="a_edge17_Node000009_Node000005"><a xlink:title=" ">
<path fill="none" stroke="#63b8ff" d="M1571.63,-164.96C1543.59,-148.4 1483.51,-113.26 1473.04,-110 1270.8,-46.98 588.04,-17.72 429.92,-11.69"/>
<polygon fill="#63b8ff" stroke="#63b8ff" points="429.58,-8.18 419.46,-11.3 429.32,-15.17 429.58,-8.18"/>
</a>
</g>
</g>
<!-- Node10 -->
<g id="Node000010" class="node">
<title>Node10</title>
<g id="a_Node000010"><a xlink:title=" ">
<polygon fill="#e0e0e0" stroke="#999999" points="1788.04,-129 1738.04,-129 1738.04,-110 1788.04,-110 1788.04,-129"/>
<text text-anchor="middle" x="1763.04" y="-117" font-family="Helvetica,sans-Serif" font-size="10.00">chrono</text>
</a>
</g>
</g>
<!-- Node9&#45;&gt;Node10 -->
<g id="edge10_Node000009_Node000010" class="edge">
<title>Node9&#45;&gt;Node10</title>
<g id="a_edge10_Node000009_Node000010"><a xlink:title=" ">
<path fill="none" stroke="#63b8ff" d="M1614.48,-164.98C1645.38,-155.73 1694.8,-140.93 1728.06,-130.97"/>
<polygon fill="#63b8ff" stroke="#63b8ff" points="1729.25,-134.27 1737.82,-128.05 1727.24,-127.57 1729.25,-134.27"/>
</a>
</g>
</g>
<!-- Node11 -->
<g id="Node000011" class="node">
<title>Node11</title>
<g id="a_Node000011"><a xlink:title=" ">
<polygon fill="#e0e0e0" stroke="#999999" points="1877.54,-129 1806.54,-129 1806.54,-110 1877.54,-110 1877.54,-129"/>
<text text-anchor="middle" x="1842.04" y="-117" font-family="Helvetica,sans-Serif" font-size="10.00">fmt/printf.h</text>
</a>
</g>
</g>
<!-- Node9&#45;&gt;Node11 -->
<g id="edge11_Node000009_Node000011" class="edge">
<title>Node9&#45;&gt;Node11</title>
<g id="a_edge11_Node000009_Node000011"><a xlink:title=" ">
<path fill="none" stroke="#63b8ff" d="M1621.1,-166.24C1666.58,-156.83 1746.02,-140.38 1796.23,-129.98"/>
<polygon fill="#63b8ff" stroke="#63b8ff" points="1797.08,-133.38 1806.17,-127.93 1795.66,-126.53 1797.08,-133.38"/>
</a>
</g>
</g>
<!-- Node12 -->
<g id="Node000012" class="node">
<title>Node12</title>
<g id="a_Node000012"><a xlink:title=" ">
<polygon fill="#e0e0e0" stroke="#999999" points="1575.54,-129 1520.54,-129 1520.54,-110 1575.54,-110 1575.54,-129"/>
<text text-anchor="middle" x="1548.04" y="-117" font-family="Helvetica,sans-Serif" font-size="10.00">fstream</text>
</a>
</g>
</g>
<!-- Node9&#45;&gt;Node12 -->
<g id="edge12_Node000009_Node000012" class="edge">
<title>Node9&#45;&gt;Node12</title>
<g id="a_edge12_Node000009_Node000012"><a xlink:title=" ">
<path fill="none" stroke="#63b8ff" d="M1579.76,-164.75C1574.45,-157.34 1566.68,-146.5 1560.16,-137.41"/>
<polygon fill="#63b8ff" stroke="#63b8ff" points="1562.87,-135.18 1554.2,-129.09 1557.18,-139.26 1562.87,-135.18"/>
</a>
</g>
</g>
<!-- Node13 -->
<g id="Node000013" class="node">
<title>Node13</title>
<g id="a_Node000013"><a xlink:title=" ">
<polygon fill="#e0e0e0" stroke="#999999" points="1464.04,-129 1408.04,-129 1408.04,-110 1464.04,-110 1464.04,-129"/>
<text text-anchor="middle" x="1436.04" y="-117" font-family="Helvetica,sans-Serif" font-size="10.00">iomanip</text>
</a>
</g>
</g>
<!-- Node9&#45;&gt;Node13 -->
<g id="edge13_Node000009_Node000013" class="edge">
<title>Node9&#45;&gt;Node13</title>
<g id="a_edge13_Node000009_Node000013"><a xlink:title=" ">
<path fill="none" stroke="#63b8ff" d="M1561.94,-164.98C1537.15,-156.23 1498.33,-142.51 1470.35,-132.62"/>
<polygon fill="#63b8ff" stroke="#63b8ff" points="1471.17,-129.2 1460.58,-129.17 1468.84,-135.8 1471.17,-129.2"/>
</a>
</g>
</g>
<!-- Node14 -->
<g id="Node000014" class="node">
<title>Node14</title>
<g id="a_Node000014"><a xlink:title=" ">
<polygon fill="#e0e0e0" stroke="#999999" points="1654.04,-129 1594.04,-129 1594.04,-110 1654.04,-110 1654.04,-129"/>
<text text-anchor="middle" x="1624.04" y="-117" font-family="Helvetica,sans-Serif" font-size="10.00">iostream</text>
</a>
</g>
</g>
<!-- Node9&#45;&gt;Node14 -->
<g id="edge14_Node000009_Node000014" class="edge">
<title>Node9&#45;&gt;Node14</title>
<g id="a_edge14_Node000009_Node000014"><a xlink:title=" ">
<path fill="none" stroke="#63b8ff" d="M1592.31,-164.75C1597.62,-157.34 1605.39,-146.5 1611.91,-137.41"/>
<polygon fill="#63b8ff" stroke="#63b8ff" points="1614.9,-139.26 1617.88,-129.09 1609.21,-135.18 1614.9,-139.26"/>
</a>
</g>
</g>
<!-- Node15 -->
<g id="Node000015" class="node">
<title>Node15</title>
<g id="a_Node000015"><a xlink:title=" ">
<polygon fill="#e0e0e0" stroke="#999999" points="1720.04,-129 1672.04,-129 1672.04,-110 1720.04,-110 1720.04,-129"/>
<text text-anchor="middle" x="1696.04" y="-117" font-family="Helvetica,sans-Serif" font-size="10.00">mutex</text>
</a>
</g>
</g>
<!-- Node9&#45;&gt;Node15 -->
<g id="edge15_Node000009_Node000015" class="edge">
<title>Node9&#45;&gt;Node15</title>
<g id="a_edge15_Node000009_Node000015"><a xlink:title=" ">
<path fill="none" stroke="#63b8ff" d="M1603.71,-164.98C1621.33,-156.5 1648.62,-143.35 1668.96,-133.54"/>
<polygon fill="#63b8ff" stroke="#63b8ff" points="1670.55,-136.66 1678.04,-129.17 1667.51,-130.36 1670.55,-136.66"/>
</a>
</g>
</g>
<!-- Node16 -->
<g id="Node000016" class="node">
<title>Node16</title>
<g id="a_Node000016"><a xlink:title=" ">
<polygon fill="#e0e0e0" stroke="#999999" points="1408.04,-19 1352.04,-19 1352.04,0 1408.04,0 1408.04,-19"/>
<text text-anchor="middle" x="1380.04" y="-7" font-family="Helvetica,sans-Serif" font-size="10.00">sstream</text>
</a>
</g>
</g>
<!-- Node9&#45;&gt;Node16 -->
<g id="edge16_Node000009_Node000016" class="edge">
<title>Node9&#45;&gt;Node16</title>
<g id="a_edge16_Node000009_Node000016"><a xlink:title=" ">
<path fill="none" stroke="#63b8ff" d="M1621.21,-173.78C1693.12,-173.51 1853.04,-168.39 1887.04,-129 1892.55,-122.61 1892.4,-116.52 1887.04,-110 1827.33,-37.44 1525.74,-17 1418.2,-11.97"/>
<polygon fill="#63b8ff" stroke="#63b8ff" points="1418.26,-8.47 1408.12,-11.52 1417.95,-15.47 1418.26,-8.47"/>
</a>
</g>
</g>
<!-- Node18 -->
<g id="Node000018" class="node">
<title>Node18</title>
<g id="a_Node000018"><a xlink:title=" ">
<polygon fill="#e0e0e0" stroke="#999999" points="1152.04,-184 1088.04,-184 1088.04,-165 1152.04,-165 1152.04,-184"/>
<text text-anchor="middle" x="1120.04" y="-172" font-family="Helvetica,sans-Serif" font-size="10.00">algorithm</text>
</a>
</g>
</g>
<!-- Node17&#45;&gt;Node18 -->
<g id="edge19_Node000017_Node000018" class="edge">
<title>Node17&#45;&gt;Node18</title>
<g id="a_edge19_Node000017_Node000018"><a xlink:title=" ">
<path fill="none" stroke="#63b8ff" d="M1107.51,-219.75C1109.5,-212.72 1112.36,-202.62 1114.85,-193.84"/>
<polygon fill="#63b8ff" stroke="#63b8ff" points="1118.25,-194.66 1117.61,-184.09 1111.52,-192.76 1118.25,-194.66"/>
</a>
</g>
</g>
<!-- Node19 -->
<g id="Node000019" class="node">
<title>Node19</title>
<g id="a_Node000019"><a xlink:title=" ">
<polygon fill="#e0e0e0" stroke="#999999" points="1214.04,-184 1170.04,-184 1170.04,-165 1214.04,-165 1214.04,-184"/>
<text text-anchor="middle" x="1192.04" y="-172" font-family="Helvetica,sans-Serif" font-size="10.00">bitset</text>
</a>
</g>
</g>
<!-- Node17&#45;&gt;Node19 -->
<g id="edge20_Node000017_Node000019" class="edge">
<title>Node17&#45;&gt;Node19</title>
<g id="a_edge20_Node000017_Node000019"><a xlink:title=" ">
<path fill="none" stroke="#63b8ff" d="M1119.02,-219.98C1132.51,-211.77 1153.17,-199.18 1169.08,-189.49"/>
<polygon fill="#63b8ff" stroke="#63b8ff" points="1171.09,-192.36 1177.8,-184.17 1167.44,-186.38 1171.09,-192.36"/>
</a>
</g>
</g>
<!-- Node20 -->
<g id="Node000020" class="node">
<title>Node20</title>
<g id="a_Node000020"><a xlink:title=" ">
<polygon fill="#e0e0e0" stroke="#999999" points="1290.04,-184 1232.04,-184 1232.04,-165 1290.04,-165 1290.04,-184"/>
<text text-anchor="middle" x="1261.04" y="-172" font-family="Helvetica,sans-Serif" font-size="10.00">memory</text>
</a>
</g>
</g>
<!-- Node17&#45;&gt;Node20 -->
<g id="edge21_Node000017_Node000020" class="edge">
<title>Node17&#45;&gt;Node20</title>
<g id="a_edge21_Node000017_Node000020"><a xlink:title=" ">
<path fill="none" stroke="#63b8ff" d="M1130.1,-219.98C1156.07,-211.16 1196.85,-197.31 1225.99,-187.41"/>
<polygon fill="#63b8ff" stroke="#63b8ff" points="1227.43,-190.61 1235.78,-184.08 1225.18,-183.99 1227.43,-190.61"/>
</a>
</g>
</g>
<!-- Node21 -->
<g id="Node000021" class="node">
<title>Node21</title>
<g id="a_Node000021"><a xlink:title=" ">
<polygon fill="#e0e0e0" stroke="#999999" points="958.54,-184 893.54,-184 893.54,-165 958.54,-165 958.54,-184"/>
<text text-anchor="middle" x="926.04" y="-172" font-family="Helvetica,sans-Serif" font-size="10.00">stdexcept</text>
</a>
</g>
</g>
<!-- Node17&#45;&gt;Node21 -->
<g id="edge22_Node000017_Node000021" class="edge">
<title>Node17&#45;&gt;Node21</title>
<g id="a_edge22_Node000017_Node000021"><a xlink:title=" ">
<path fill="none" stroke="#63b8ff" d="M1076.28,-219.98C1046.1,-211.05 998.46,-196.94 964.94,-187.02"/>
<polygon fill="#63b8ff" stroke="#63b8ff" points="965.6,-183.57 955.02,-184.08 963.62,-190.28 965.6,-183.57"/>
</a>
</g>
</g>
<!-- Node22 -->
<g id="Node000022" class="node">
<title>Node22</title>
<g id="a_Node000022"><a xlink:title=" ">
<polygon fill="#e0e0e0" stroke="#999999" points="1069.54,-184 976.54,-184 976.54,-165 1069.54,-165 1069.54,-184"/>
<text text-anchor="middle" x="1023.04" y="-172" font-family="Helvetica,sans-Serif" font-size="10.00">unordered_map</text>
</a>
</g>
</g>
<!-- Node17&#45;&gt;Node22 -->
<g id="edge23_Node000017_Node000022" class="edge">
<title>Node17&#45;&gt;Node22</title>
<g id="a_edge23_Node000017_Node000022"><a xlink:title=" ">
<path fill="none" stroke="#63b8ff" d="M1091.86,-219.98C1079.27,-211.84 1060.03,-199.41 1045.1,-189.76"/>
<polygon fill="#63b8ff" stroke="#63b8ff" points="1046.75,-186.66 1036.45,-184.17 1042.95,-192.54 1046.75,-186.66"/>
</a>
</g>
</g>
<!-- Node17&#45;&gt;Node23 -->
<g id="edge24_Node000017_Node000023" class="edge">
<title>Node17&#45;&gt;Node23</title>
<g id="a_edge24_Node000017_Node000023"><a xlink:title=" ">
<path fill="none" stroke="#63b8ff" d="M1066.49,-221.68C1061.96,-221.03 1057.4,-220.45 1053.04,-220 692.83,-182.73 599.96,-213.54 239.04,-184 226.91,-183.01 213.66,-181.53 201.93,-180.08"/>
<polygon fill="#63b8ff" stroke="#63b8ff" points="202.02,-176.57 191.66,-178.78 201.14,-183.51 202.02,-176.57"/>
</a>
</g>
</g>
<!-- Node25 -->
<g id="Node000025" class="node">
<title>Node25</title>
<g id="a_Node000025"><a xlink:href="Vector3_8hpp.html" target="_top" xlink:title="Defines the Vector3 class.">
<polygon fill="white" stroke="#666666" points="859.54,-74 756.54,-74 756.54,-55 859.54,-55 859.54,-74"/>
<text text-anchor="middle" x="808.04" y="-62" font-family="Helvetica,sans-Serif" font-size="10.00">math/Vector3.hpp</text>
</a>
</g>
</g>
<!-- Node24&#45;&gt;Node25 -->
<g id="edge26_Node000024_Node000025" class="edge">
<title>Node24&#45;&gt;Node25</title>
<g id="a_edge26_Node000024_Node000025"><a xlink:title=" ">
<path fill="none" stroke="#63b8ff" d="M559.9,-329.91C585.46,-313.9 635.04,-276.87 635.04,-230.5 635.04,-230.5 635.04,-230.5 635.04,-173.5 635.04,-117.9 700.13,-89.87 750.46,-76.51"/>
<polygon fill="#63b8ff" stroke="#63b8ff" points="751.46,-79.87 760.31,-74.03 749.75,-73.08 751.46,-79.87"/>
</a>
</g>
</g>
<!-- Node24&#45;&gt;Node27 -->
<g id="edge30_Node000024_Node000027" class="edge">
<title>Node24&#45;&gt;Node27</title>
<g id="a_edge30_Node000024_Node000027"><a xlink:title=" ">
<path fill="none" stroke="#63b8ff" d="M533.31,-329.98C522.31,-322 505.62,-309.88 492.43,-300.31"/>
<polygon fill="#63b8ff" stroke="#63b8ff" points="494.13,-297.21 483.98,-294.17 490.02,-302.88 494.13,-297.21"/>
</a>
</g>
</g>
<!-- Node25&#45;&gt;Node5 -->
<g id="edge29_Node000025_Node000005" class="edge">
<title>Node25&#45;&gt;Node5</title>
<g id="a_edge29_Node000025_Node000005"><a xlink:title=" ">
<path fill="none" stroke="#63b8ff" d="M756.4,-56.84C670.48,-45.76 500.58,-23.85 429.5,-14.69"/>
<polygon fill="#63b8ff" stroke="#63b8ff" points="429.72,-11.19 419.36,-13.38 428.83,-18.13 429.72,-11.19"/>
</a>
</g>
</g>
<!-- Node25&#45;&gt;Node16 -->
<g id="edge28_Node000025_Node000016" class="edge">
<title>Node25&#45;&gt;Node16</title>
<g id="a_edge28_Node000025_Node000016"><a xlink:title=" ">
<path fill="none" stroke="#63b8ff" d="M859.55,-58.73C972.82,-48.23 1241.39,-23.35 1341.52,-14.07"/>
<polygon fill="#63b8ff" stroke="#63b8ff" points="1342.14,-17.53 1351.78,-13.12 1341.5,-10.56 1342.14,-17.53"/>
</a>
</g>
</g>
<!-- Node26 -->
<g id="Node000026" class="node">
<title>Node26</title>
<g id="a_Node000026"><a xlink:title=" ">
<polygon fill="#e0e0e0" stroke="#999999" points="980.54,-19 933.54,-19 933.54,0 980.54,0 980.54,-19"/>
<text text-anchor="middle" x="957.04" y="-7" font-family="Helvetica,sans-Serif" font-size="10.00">cmath</text>
</a>
</g>
</g>
<!-- Node25&#45;&gt;Node26 -->
<g id="edge27_Node000025_Node000026" class="edge">
<title>Node25&#45;&gt;Node26</title>
<g id="a_edge27_Node000025_Node000026"><a xlink:title=" ">
<path fill="none" stroke="#63b8ff" d="M831.98,-54.98C856.74,-46.18 895.62,-32.35 923.45,-22.45"/>
<polygon fill="#63b8ff" stroke="#63b8ff" points="924.91,-25.64 933.16,-18.99 922.56,-19.05 924.91,-25.64"/>
</a>
</g>
</g>
<!-- Node27&#45;&gt;Node25 -->
<g id="edge31_Node000027_Node000025" class="edge">
<title>Node27&#45;&gt;Node25</title>
<g id="a_edge31_Node000027_Node000025"><a xlink:title=" ">
<path fill="none" stroke="#63b8ff" d="M470.96,-274.75C469.8,-261.99 469.16,-237.85 478.04,-220 510.26,-155.22 533.71,-143.11 598.04,-110 644.36,-86.16 702.71,-75.08 746.14,-69.94"/>
<polygon fill="#63b8ff" stroke="#63b8ff" points="746.73,-73.4 756.29,-68.82 745.96,-66.44 746.73,-73.4"/>
</a>
</g>
</g>
<!-- Node27&#45;&gt;Node28 -->
<g id="edge32_Node000027_Node000028" class="edge">
<title>Node27&#45;&gt;Node28</title>
<g id="a_edge32_Node000027_Node000028"><a xlink:title=" ">
<path fill="none" stroke="#63b8ff" d="M484.09,-274.98C495.5,-266.92 512.87,-254.65 526.47,-245.03"/>
<polygon fill="#63b8ff" stroke="#63b8ff" points="528.62,-247.8 534.77,-239.17 524.58,-242.08 528.62,-247.8"/>
</a>
</g>
</g>
<!-- Node31 -->
<g id="Node000031" class="node">
<title>Node31</title>
<g id="a_Node000031"><a xlink:href="Texture2D_8hpp_source.html" target="_top" xlink:title=" ">
<polygon fill="white" stroke="#666666" points="430.54,-239 293.54,-239 293.54,-220 430.54,-220 430.54,-239"/>
<text text-anchor="middle" x="362.04" y="-227" font-family="Helvetica,sans-Serif" font-size="10.00">rendering/Texture2D.hpp</text>
</a>
</g>
</g>
<!-- Node27&#45;&gt;Node31 -->
<g id="edge43_Node000027_Node000031" class="edge">
<title>Node27&#45;&gt;Node31</title>
<g id="a_edge43_Node000027_Node000031"><a xlink:title=" ">
<path fill="none" stroke="#63b8ff" d="M454.36,-274.98C436.75,-266.5 409.46,-253.35 389.11,-243.54"/>
<polygon fill="#63b8ff" stroke="#63b8ff" points="390.56,-240.36 380.03,-239.17 387.52,-246.66 390.56,-240.36"/>
</a>
</g>
</g>
<!-- Node28&#45;&gt;Node3 -->
<g id="edge41_Node000028_Node000003" class="edge">
<title>Node28&#45;&gt;Node3</title>
<g id="a_edge41_Node000028_Node000003"><a xlink:title=" ">
<path fill="none" stroke="#63b8ff" d="M504.78,-219.98C456.93,-210.34 379.22,-194.68 329.92,-184.75"/>
<polygon fill="#63b8ff" stroke="#63b8ff" points="330.35,-181.26 319.85,-182.72 328.96,-188.12 330.35,-181.26"/>
</a>
</g>
</g>
<!-- Node28&#45;&gt;Node5 -->
<g id="edge42_Node000028_Node000005" class="edge">
<title>Node28&#45;&gt;Node5</title>
<g id="a_edge42_Node000028_Node000005"><a xlink:title=" ">
<path fill="none" stroke="#63b8ff" d="M541.16,-219.95C518.85,-187.54 439.2,-71.78 408.88,-27.71"/>
<polygon fill="#63b8ff" stroke="#63b8ff" points="411.59,-25.48 403.04,-19.22 405.82,-29.45 411.59,-25.48"/>
</a>
</g>
</g>
<!-- Node28&#45;&gt;Node25 -->
<g id="edge40_Node000028_Node000025" class="edge">
<title>Node28&#45;&gt;Node25</title>
<g id="a_edge40_Node000028_Node000025"><a xlink:title=" ">
<path fill="none" stroke="#63b8ff" d="M549.87,-219.72C557.5,-197.55 580.66,-139.02 621.04,-110 657.48,-83.81 707.24,-72.86 746.27,-68.36"/>
<polygon fill="#63b8ff" stroke="#63b8ff" points="746.87,-71.81 756.46,-67.3 746.15,-64.85 746.87,-71.81"/>
</a>
</g>
</g>
<!-- Node29 -->
<g id="Node000029" class="node">
<title>Node29</title>
<g id="a_Node000029"><a xlink:href="Matrix4_8hpp.html" target="_top" xlink:title="Defines the Matrix4 class for 3D transformation operations.">
<polygon fill="white" stroke="#666666" points="1488.04,-184 1384.04,-184 1384.04,-165 1488.04,-165 1488.04,-184"/>
<text text-anchor="middle" x="1436.04" y="-172" font-family="Helvetica,sans-Serif" font-size="10.00">math/Matrix4.hpp</text>
</a>
</g>
</g>
<!-- Node28&#45;&gt;Node29 -->
<g id="edge33_Node000028_Node000029" class="edge">
<title>Node28&#45;&gt;Node29</title>
<g id="a_edge33_Node000028_Node000029"><a xlink:title=" ">
<path fill="none" stroke="#63b8ff" d="M607.29,-223.46C622.53,-222.26 638.88,-221.02 654.04,-220 940.5,-200.63 1012.42,-200.89 1299.04,-184 1323.49,-182.56 1350.39,-180.9 1373.84,-179.44"/>
<polygon fill="#63b8ff" stroke="#63b8ff" points="1374.24,-182.92 1384,-178.8 1373.8,-175.94 1374.24,-182.92"/>
</a>
</g>
</g>
<!-- Node29&#45;&gt;Node13 -->
<g id="edge38_Node000029_Node000013" class="edge">
<title>Node29&#45;&gt;Node13</title>
<g id="a_edge38_Node000029_Node000013"><a xlink:title=" ">
<path fill="none" stroke="#63b8ff" d="M1436.04,-164.75C1436.04,-157.8 1436.04,-147.85 1436.04,-139.13"/>
<polygon fill="#63b8ff" stroke="#63b8ff" points="1439.54,-139.09 1436.04,-129.09 1432.54,-139.09 1439.54,-139.09"/>
</a>
</g>
</g>
<!-- Node29&#45;&gt;Node16 -->
<g id="edge39_Node000029_Node000016" class="edge">
<title>Node29&#45;&gt;Node16</title>
<g id="a_edge39_Node000029_Node000016"><a xlink:title=" ">
<path fill="none" stroke="#63b8ff" d="M1426.48,-164.97C1417.84,-156.67 1405.52,-143.27 1399.04,-129 1384.15,-96.23 1380.71,-53.73 1380.04,-29.55"/>
<polygon fill="#63b8ff" stroke="#63b8ff" points="1383.53,-29.23 1379.89,-19.28 1376.53,-29.33 1383.53,-29.23"/>
</a>
</g>
</g>
<!-- Node29&#45;&gt;Node25 -->
<g id="edge37_Node000029_Node000025" class="edge">
<title>Node29&#45;&gt;Node25</title>
<g id="a_edge37_Node000029_Node000025"><a xlink:title=" ">
<path fill="none" stroke="#63b8ff" d="M1390.53,-164.94C1352.69,-157.25 1297.66,-144.77 1251.04,-129 1231.24,-122.31 1228.21,-115.44 1208.04,-110 1091.34,-78.53 949.71,-69.27 870.13,-66.57"/>
<polygon fill="#63b8ff" stroke="#63b8ff" points="869.9,-63.07 859.8,-66.25 869.68,-70.06 869.9,-63.07"/>
</a>
</g>
</g>
<!-- Node30 -->
<g id="Node000030" class="node">
<title>Node30</title>
<g id="a_Node000030"><a xlink:href="Quaternion_8hpp.html" target="_top" xlink:title="Defines the Quaternion class for representing 3D rotations.">
<polygon fill="white" stroke="#666666" points="1352.04,-129 1260.04,-129 1260.04,-110 1352.04,-110 1352.04,-129"/>
<text text-anchor="middle" x="1306.04" y="-117" font-family="Helvetica,sans-Serif" font-size="10.00">Quaternion.hpp</text>
</a>
</g>
</g>
<!-- Node29&#45;&gt;Node30 -->
<g id="edge34_Node000029_Node000030" class="edge">
<title>Node29&#45;&gt;Node30</title>
<g id="a_edge34_Node000029_Node000030"><a xlink:title=" ">
<path fill="none" stroke="#63b8ff" d="M1415.15,-164.98C1393.95,-156.34 1360.91,-142.87 1336.74,-133.02"/>
<polygon fill="#63b8ff" stroke="#63b8ff" points="1337.89,-129.7 1327.3,-129.17 1335.24,-136.19 1337.89,-129.7"/>
</a>
</g>
</g>
<!-- Node30&#45;&gt;Node25 -->
<g id="edge35_Node000030_Node000025" class="edge">
<title>Node30&#45;&gt;Node25</title>
<g id="a_edge35_Node000030_Node000025"><a xlink:title=" ">
<path fill="none" stroke="#63b8ff" d="M1259.87,-111.77C1255.2,-111.15 1250.53,-110.55 1246.04,-110 1112.06,-93.71 954.53,-78.72 869.67,-70.99"/>
<polygon fill="#63b8ff" stroke="#63b8ff" points="869.97,-67.5 859.69,-70.08 869.33,-74.47 869.97,-67.5"/>
</a>
</g>
</g>
<!-- Node30&#45;&gt;Node26 -->
<g id="edge36_Node000030_Node000026" class="edge">
<title>Node30&#45;&gt;Node26</title>
<g id="a_edge36_Node000030_Node000026"><a xlink:title=" ">
<path fill="none" stroke="#63b8ff" d="M1278.36,-109.94C1215.03,-90.34 1059.72,-42.28 990.86,-20.97"/>
<polygon fill="#63b8ff" stroke="#63b8ff" points="991.55,-17.52 980.96,-17.9 989.48,-24.2 991.55,-17.52"/>
</a>
</g>
</g>
<!-- Node31&#45;&gt;Node3 -->
<g id="edge44_Node000031_Node000003" class="edge">
<title>Node31&#45;&gt;Node3</title>
<g id="a_edge44_Node000031_Node000003"><a xlink:title=" ">
<path fill="none" stroke="#63b8ff" d="M349.51,-219.98C337.64,-211.92 319.57,-199.65 305.42,-190.03"/>
<polygon fill="#63b8ff" stroke="#63b8ff" points="307.04,-186.9 296.8,-184.17 303.1,-192.69 307.04,-186.9"/>
</a>
</g>
</g>
<!-- Node31&#45;&gt;Node5 -->
<g id="edge45_Node000031_Node000005" class="edge">
<title>Node31&#45;&gt;Node5</title>
<g id="a_edge45_Node000031_Node000005"><a xlink:title=" ">
<path fill="none" stroke="#63b8ff" d="M363.41,-219.95C368.56,-187.88 386.81,-74.2 394.05,-29.12"/>
<polygon fill="#63b8ff" stroke="#63b8ff" points="397.51,-29.65 395.64,-19.22 390.6,-28.54 397.51,-29.65"/>
</a>
</g>
</g>
<!-- Node32&#45;&gt;Node33 -->
<g id="edge47_Node000032_Node000033" class="edge">
<title>Node32&#45;&gt;Node33</title>
<g id="a_edge47_Node000032_Node000033"><a xlink:title=" ">
<path fill="none" stroke="#63b8ff" d="M250.38,-329.66C230.4,-311.38 184.3,-269.18 159.15,-246.17"/>
<polygon fill="#63b8ff" stroke="#63b8ff" points="161.24,-243.33 151.5,-239.16 156.51,-248.49 161.24,-243.33"/>
</a>
</g>
</g>
<!-- Node33&#45;&gt;Node3 -->
<g id="edge49_Node000033_Node000003" class="edge">
<title>Node33&#45;&gt;Node3</title>
<g id="a_edge49_Node000033_Node000003"><a xlink:title=" ">
<path fill="none" stroke="#63b8ff" d="M164.85,-219.98C188.21,-211.27 224.74,-197.63 251.21,-187.75"/>
<polygon fill="#63b8ff" stroke="#63b8ff" points="252.66,-190.95 260.81,-184.17 250.21,-184.39 252.66,-190.95"/>
</a>
</g>
</g>
<!-- Node33&#45;&gt;Node5 -->
<g id="edge50_Node000033_Node000005" class="edge">
<title>Node33&#45;&gt;Node5</title>
<g id="a_edge50_Node000033_Node000005"><a xlink:title=" ">
<path fill="none" stroke="#63b8ff" d="M137.93,-219.62C132.62,-206.69 125.13,-182.34 135.04,-165 185.2,-77.19 306.92,-34.3 365.08,-18.26"/>
<polygon fill="#63b8ff" stroke="#63b8ff" points="366.07,-21.61 374.83,-15.66 364.27,-14.85 366.07,-21.61"/>
</a>
</g>
</g>
<!-- Node33&#45;&gt;Node23 -->
<g id="edge51_Node000033_Node000023" class="edge">
<title>Node33&#45;&gt;Node23</title>
<g id="a_edge51_Node000033_Node000023"><a xlink:title=" ">
<path fill="none" stroke="#63b8ff" d="M146.33,-219.75C149.85,-212.57 154.95,-202.18 159.32,-193.27"/>
<polygon fill="#63b8ff" stroke="#63b8ff" points="162.56,-194.61 163.82,-184.09 156.28,-191.53 162.56,-194.61"/>
</a>
</g>
</g>
<!-- Node33&#45;&gt;Node25 -->
<g id="edge48_Node000033_Node000025" class="edge">
<title>Node33&#45;&gt;Node25</title>
<g id="a_edge48_Node000033_Node000025"><a xlink:title=" ">
<path fill="none" stroke="#63b8ff" d="M152.72,-219.84C169.91,-206.3 205.22,-180.11 239.04,-165 411.77,-87.81 638.94,-70.35 746.5,-66.51"/>
<polygon fill="#63b8ff" stroke="#63b8ff" points="746.65,-70.01 756.53,-66.18 746.42,-63.01 746.65,-70.01"/>
</a>
</g>
</g>
<!-- Node34&#45;&gt;Node25 -->
<g id="edge55_Node000034_Node000025" class="edge">
<title>Node34&#45;&gt;Node25</title>
<g id="a_edge55_Node000034_Node000025"><a xlink:title=" ">
<path fill="none" stroke="#63b8ff" d="M1277.54,-219.58C1291.57,-206.61 1313.1,-182.2 1299.04,-165 1271.93,-131.85 995.88,-90.81 870.01,-73.64"/>
<polygon fill="#63b8ff" stroke="#63b8ff" points="870.13,-70.13 859.75,-72.25 869.19,-77.07 870.13,-70.13"/>
</a>
</g>
</g>
<!-- Node34&#45;&gt;Node29 -->
<g id="edge53_Node000034_Node000029" class="edge">
<title>Node34&#45;&gt;Node29</title>
<g id="a_edge53_Node000034_Node000029"><a xlink:title=" ">
<path fill="none" stroke="#63b8ff" d="M1294.19,-219.98C1322.56,-211.09 1367.27,-197.07 1398.9,-187.15"/>
<polygon fill="#63b8ff" stroke="#63b8ff" points="1400.18,-190.41 1408.67,-184.08 1398.08,-183.73 1400.18,-190.41"/>
</a>
</g>
</g>
<!-- Node34&#45;&gt;Node30 -->
<g id="edge54_Node000034_Node000030" class="edge">
<title>Node34&#45;&gt;Node30</title>
<g id="a_edge54_Node000034_Node000030"><a xlink:title=" ">
<path fill="none" stroke="#63b8ff" d="M1289.16,-219.95C1304.24,-212.82 1323.04,-201.06 1332.04,-184 1340.07,-168.76 1330.73,-150.47 1321.08,-137.45"/>
<polygon fill="#63b8ff" stroke="#63b8ff" points="1323.57,-134.95 1314.56,-129.37 1318.12,-139.35 1323.57,-134.95"/>
</a>
</g>
</g>
<!-- Node35&#45;&gt;Node7 -->
<g id="edge59_Node000035_Node000007" class="edge">
<title>Node35&#45;&gt;Node7</title>
<g id="a_edge59_Node000035_Node000007"><a xlink:title=" ">
<path fill="none" stroke="#63b8ff" d="M735.24,-439.98C706.07,-431.05 660.04,-416.94 627.63,-407.02"/>
<polygon fill="#63b8ff" stroke="#63b8ff" points="628.64,-403.66 618.05,-404.08 626.59,-410.36 628.64,-403.66"/>
</a>
</g>
</g>
<!-- Node35&#45;&gt;Node25 -->
<g id="edge62_Node000035_Node000025" class="edge">
<title>Node35&#45;&gt;Node25</title>
<g id="a_edge62_Node000035_Node000025"><a xlink:title=" ">
<path fill="none" stroke="#63b8ff" d="M782.96,-439.98C814.66,-424.92 873.04,-390.41 873.04,-340.5 873.04,-340.5 873.04,-340.5 873.04,-283.5 873.04,-254.04 869.95,-244.79 854.04,-220 840.94,-199.59 823.5,-205.88 813.04,-184 797.54,-151.61 800.84,-108.36 804.51,-84.08"/>
<polygon fill="#63b8ff" stroke="#63b8ff" points="807.99,-84.53 806.21,-74.08 801.09,-83.36 807.99,-84.53"/>
</a>
</g>
</g>
<!-- Node36 -->
<g id="Node000036" class="node">
<title>Node36</title>
<g id="a_Node000036"><a xlink:href="LightComponent_8hpp_source.html" target="_top" xlink:title=" ">
<polygon fill="white" stroke="#666666" points="844.54,-239 663.54,-239 663.54,-220 844.54,-220 844.54,-239"/>
<text text-anchor="middle" x="754.04" y="-227" font-family="Helvetica,sans-Serif" font-size="10.00">components/LightComponent.hpp</text>
</a>
</g>
</g>
<!-- Node35&#45;&gt;Node36 -->
<g id="edge60_Node000035_Node000036" class="edge">
<title>Node35&#45;&gt;Node36</title>
<g id="a_edge60_Node000035_Node000036"><a xlink:title=" ">
<path fill="none" stroke="#63b8ff" d="M762.68,-439.95C761.36,-407.95 756.69,-294.68 754.82,-249.4"/>
<polygon fill="#63b8ff" stroke="#63b8ff" points="758.31,-249.07 754.4,-239.22 751.31,-249.36 758.31,-249.07"/>
</a>
</g>
</g>
<!-- Node36&#45;&gt;Node25 -->
<g id="edge61_Node000036_Node000025" class="edge">
<title>Node36&#45;&gt;Node25</title>
<g id="a_edge61_Node000036_Node000025"><a xlink:title=" ">
<path fill="none" stroke="#63b8ff" d="M754.23,-219.78C754.95,-199.62 758.42,-148.57 775.04,-110 779.4,-99.88 786.46,-89.91 792.94,-81.97"/>
<polygon fill="#63b8ff" stroke="#63b8ff" points="795.71,-84.12 799.58,-74.26 790.41,-79.55 795.71,-84.12"/>
</a>
</g>
</g>
<!-- Node37&#45;&gt;Node7 -->
<g id="edge66_Node000037_Node000007" class="edge">
<title>Node37&#45;&gt;Node7</title>
<g id="a_edge66_Node000037_Node000007"><a xlink:title=" ">
<path fill="none" stroke="#63b8ff" d="M856.94,-439.98C800.93,-430.65 711.09,-415.67 651.32,-405.71"/>
<polygon fill="#63b8ff" stroke="#63b8ff" points="651.71,-402.23 641.27,-404.04 650.55,-409.13 651.71,-402.23"/>
</a>
</g>
</g>
<!-- Node37&#45;&gt;Node25 -->
<g id="edge65_Node000037_Node000025" class="edge">
<title>Node37&#45;&gt;Node25</title>
<g id="a_edge65_Node000037_Node000025"><a xlink:title=" ">
<path fill="none" stroke="#63b8ff" d="M908.44,-439.82C909.26,-421.49 911.04,-377.45 911.04,-340.5 911.04,-340.5 911.04,-340.5 911.04,-283.5 911.04,-277.99 841.4,-134.15 816.64,-83.19"/>
<polygon fill="#63b8ff" stroke="#63b8ff" points="819.72,-81.52 812.2,-74.06 813.43,-84.58 819.72,-81.52"/>
</a>
</g>
</g>
<!-- Node37&#45;&gt;Node29 -->
<g id="edge64_Node000037_Node000029" class="edge">
<title>Node37&#45;&gt;Node29</title>
<g id="a_edge64_Node000037_Node000029"><a xlink:title=" ">
<path fill="none" stroke="#63b8ff" d="M970.68,-448.71C1110.54,-447.48 1436.04,-434.53 1436.04,-340.5 1436.04,-340.5 1436.04,-340.5 1436.04,-283.5 1436.04,-252.19 1436.04,-215.77 1436.04,-194.23"/>
<polygon fill="#63b8ff" stroke="#63b8ff" points="1439.54,-194.18 1436.04,-184.18 1432.54,-194.18 1439.54,-194.18"/>
</a>
</g>
</g>
<!-- Node38&#45;&gt;Node3 -->
<g id="edge74_Node000038_Node000003" class="edge">
<title>Node38&#45;&gt;Node3</title>
<g id="a_edge74_Node000038_Node000003"><a xlink:title=" ">
<path fill="none" stroke="#63b8ff" d="M939.46,-281.54C752.27,-276.65 306.22,-262.57 284.04,-239 272.96,-227.23 274.57,-208.11 277.97,-193.92"/>
<polygon fill="#63b8ff" stroke="#63b8ff" points="281.35,-194.82 280.74,-184.24 274.62,-192.89 281.35,-194.82"/>
</a>
</g>
</g>
<!-- Node38&#45;&gt;Node9 -->
<g id="edge68_Node000038_Node000009" class="edge">
<title>Node38&#45;&gt;Node9</title>
<g id="a_edge68_Node000038_Node000009"><a xlink:title=" ">
<path fill="none" stroke="#63b8ff" d="M1102.78,-277.12C1192.21,-269.48 1329.45,-255.6 1379.04,-239 1395.09,-233.63 1396.36,-226.38 1412.04,-220 1454.23,-202.84 1504.93,-190.77 1540.68,-183.57"/>
<polygon fill="#63b8ff" stroke="#63b8ff" points="1541.67,-186.95 1550.81,-181.58 1540.33,-180.08 1541.67,-186.95"/>
</a>
</g>
</g>
<!-- Node38&#45;&gt;Node17 -->
<g id="edge69_Node000038_Node000017" class="edge">
<title>Node38&#45;&gt;Node17</title>
<g id="a_edge69_Node000038_Node000017"><a xlink:title=" ">
<path fill="none" stroke="#63b8ff" d="M1034.53,-274.98C1047.44,-266.84 1067.14,-254.41 1082.44,-244.76"/>
<polygon fill="#63b8ff" stroke="#63b8ff" points="1084.71,-247.47 1091.3,-239.17 1080.97,-241.55 1084.71,-247.47"/>
</a>
</g>
</g>
<!-- Node38&#45;&gt;Node25 -->
<g id="edge72_Node000038_Node000025" class="edge">
<title>Node38&#45;&gt;Node25</title>
<g id="a_edge72_Node000038_Node000025"><a xlink:title=" ">
<path fill="none" stroke="#63b8ff" d="M1007.64,-274.71C977.38,-254.69 904.81,-205.76 885.04,-184 859.3,-155.69 862.24,-141.85 841.04,-110 834.78,-100.59 827.31,-90.45 821.06,-82.22"/>
<polygon fill="#63b8ff" stroke="#63b8ff" points="823.75,-79.97 814.88,-74.18 818.2,-84.24 823.75,-79.97"/>
</a>
</g>
</g>
<!-- Node38&#45;&gt;Node34 -->
<g id="edge71_Node000038_Node000034" class="edge">
<title>Node38&#45;&gt;Node34</title>
<g id="a_edge71_Node000038_Node000034"><a xlink:title=" ">
<path fill="none" stroke="#63b8ff" d="M1060.56,-274.98C1103.2,-265.8 1171.19,-251.15 1217.4,-241.19"/>
<polygon fill="#63b8ff" stroke="#63b8ff" points="1218.16,-244.61 1227.2,-239.08 1216.69,-237.77 1218.16,-244.61"/>
</a>
</g>
</g>
<!-- Node38&#45;&gt;Node36 -->
<g id="edge70_Node000038_Node000036" class="edge">
<title>Node38&#45;&gt;Node36</title>
<g id="a_edge70_Node000038_Node000036"><a xlink:title=" ">
<path fill="none" stroke="#63b8ff" d="M978.14,-274.98C931.66,-265.76 857.45,-251.03 807.28,-241.07"/>
<polygon fill="#63b8ff" stroke="#63b8ff" points="807.76,-237.6 797.27,-239.08 806.4,-244.46 807.76,-237.6"/>
</a>
</g>
</g>
<!-- Node39 -->
<g id="Node000039" class="node">
<title>Node39</title>
<g id="a_Node000039"><a xlink:title=" ">
<polygon fill="#e0e0e0" stroke="#999999" points="1044.04,-239 998.04,-239 998.04,-220 1044.04,-220 1044.04,-239"/>
<text text-anchor="middle" x="1021.04" y="-227" font-family="Helvetica,sans-Serif" font-size="10.00">cstdio</text>
</a>
</g>
</g>
<!-- Node38&#45;&gt;Node39 -->
<g id="edge73_Node000038_Node000039" class="edge">
<title>Node38&#45;&gt;Node39</title>
<g id="a_edge73_Node000038_Node000039"><a xlink:title=" ">
<path fill="none" stroke="#63b8ff" d="M1021.04,-274.75C1021.04,-267.8 1021.04,-257.85 1021.04,-249.13"/>
<polygon fill="#63b8ff" stroke="#63b8ff" points="1024.54,-249.09 1021.04,-239.09 1017.54,-249.09 1024.54,-249.09"/>
</a>
</g>
</g>
</g>
</svg>
