<?xml version="1.0" encoding="UTF-8" standalone="no"?>
<!DOCTYPE svg PUBLIC "-//W3C//DTD SVG 1.1//EN"
 "http://www.w3.org/Graphics/SVG/1.1/DTD/svg11.dtd">
<!-- Generated by graphviz version 2.43.0 (0)
 -->
<!-- Title: include/Engine.hpp Pages: 1 -->
<svg width="1630pt" height="467pt"
 viewBox="0.00 0.00 1630.23 467.00" xmlns="http://www.w3.org/2000/svg" xmlns:xlink="http://www.w3.org/1999/xlink">
<g id="graph0" class="graph" transform="scale(1 1) rotate(0) translate(4 463)">
<title>include/Engine.hpp</title>
<!-- Node1 -->
<g id="Node000001" class="node">
<title>Node1</title>
<g id="a_Node000001"><a xlink:title="Defines the core Engine class responsible for running simulation.">
<polygon fill="#999999" stroke="#666666" points="556,-459 447,-459 447,-440 556,-440 556,-459"/>
<text text-anchor="middle" x="501.5" y="-447" font-family="Helvetica,sans-Serif" font-size="10.00">include/Engine.hpp</text>
</a>
</g>
</g>
<!-- Node2 -->
<g id="Node000002" class="node">
<title>Node2</title>
<g id="a_Node000002"><a xlink:href="Registry_8hpp.html" target="_top" xlink:title="Defines the Registry class for managing ECS entities and components.">
<polygon fill="white" stroke="#666666" points="540,-184 463,-184 463,-165 540,-165 540,-184"/>
<text text-anchor="middle" x="501.5" y="-172" font-family="Helvetica,sans-Serif" font-size="10.00">Registry.hpp</text>
</a>
</g>
</g>
<!-- Node1&#45;&gt;Node2 -->
<g id="edge1_Node000001_Node000002" class="edge">
<title>Node1&#45;&gt;Node2</title>
<g id="a_edge1_Node000001_Node000002"><a xlink:title=" ">
<path fill="none" stroke="#63b8ff" d="M501.5,-439.82C501.5,-421.48 501.5,-377.44 501.5,-340.5 501.5,-340.5 501.5,-340.5 501.5,-283.5 501.5,-252.19 501.5,-215.77 501.5,-194.23"/>
<polygon fill="#63b8ff" stroke="#63b8ff" points="505,-194.18 501.5,-184.18 498,-194.18 505,-194.18"/>
</a>
</g>
</g>
<!-- Node9 -->
<g id="Node000009" class="node">
<title>Node9</title>
<g id="a_Node000009"><a xlink:href="Window_8hpp.html" target="_top" xlink:title="Provides a window for OpenGL rendering using GLFW.">
<polygon fill="white" stroke="#666666" points="290.5,-184 214.5,-184 214.5,-165 290.5,-165 290.5,-184"/>
<text text-anchor="middle" x="252.5" y="-172" font-family="Helvetica,sans-Serif" font-size="10.00">Window.hpp</text>
</a>
</g>
</g>
<!-- Node1&#45;&gt;Node9 -->
<g id="edge8_Node000001_Node000009" class="edge">
<title>Node1&#45;&gt;Node9</title>
<g id="a_edge8_Node000001_Node000009"><a xlink:title=" ">
<path fill="none" stroke="#63b8ff" d="M469.76,-439.95C427.63,-426.46 358.5,-395.88 358.5,-340.5 358.5,-340.5 358.5,-340.5 358.5,-283.5 358.5,-238.98 312.05,-206.07 280.65,-188.92"/>
<polygon fill="#63b8ff" stroke="#63b8ff" points="281.93,-185.64 271.45,-184.1 278.69,-191.84 281.93,-185.64"/>
</a>
</g>
</g>
<!-- Node13 -->
<g id="Node000013" class="node">
<title>Node13</title>
<g id="a_Node000013"><a xlink:href="Renderer_8hpp.html" target="_top" xlink:title="Manages the rendering pipeline and object submission.">
<polygon fill="white" stroke="#666666" points="986,-404 855,-404 855,-385 986,-385 986,-404"/>
<text text-anchor="middle" x="920.5" y="-392" font-family="Helvetica,sans-Serif" font-size="10.00">rendering/Renderer.hpp</text>
</a>
</g>
</g>
<!-- Node1&#45;&gt;Node13 -->
<g id="edge12_Node000001_Node000013" class="edge">
<title>Node1&#45;&gt;Node13</title>
<g id="a_edge12_Node000001_Node000013"><a xlink:title=" ">
<path fill="none" stroke="#63b8ff" d="M556.28,-441.57C629.96,-432.25 761.32,-415.63 844.52,-405.11"/>
<polygon fill="#63b8ff" stroke="#63b8ff" points="845.19,-408.55 854.67,-403.83 844.31,-401.61 845.19,-408.55"/>
</a>
</g>
</g>
<!-- Node3 -->
<g id="Node000003" class="node">
<title>Node3</title>
<g id="a_Node000003"><a xlink:title=" ">
<polygon fill="#e0e0e0" stroke="#999999" points="474.5,-129 410.5,-129 410.5,-110 474.5,-110 474.5,-129"/>
<text text-anchor="middle" x="442.5" y="-117" font-family="Helvetica,sans-Serif" font-size="10.00">algorithm</text>
</a>
</g>
</g>
<!-- Node2&#45;&gt;Node3 -->
<g id="edge2_Node000002_Node000003" class="edge">
<title>Node2&#45;&gt;Node3</title>
<g id="a_edge2_Node000002_Node000003"><a xlink:title=" ">
<path fill="none" stroke="#63b8ff" d="M492.02,-164.98C483.3,-157.15 470.16,-145.34 459.6,-135.86"/>
<polygon fill="#63b8ff" stroke="#63b8ff" points="461.93,-133.25 452.15,-129.17 457.25,-138.46 461.93,-133.25"/>
</a>
</g>
</g>
<!-- Node4 -->
<g id="Node000004" class="node">
<title>Node4</title>
<g id="a_Node000004"><a xlink:title=" ">
<polygon fill="#e0e0e0" stroke="#999999" points="536.5,-129 492.5,-129 492.5,-110 536.5,-110 536.5,-129"/>
<text text-anchor="middle" x="514.5" y="-117" font-family="Helvetica,sans-Serif" font-size="10.00">bitset</text>
</a>
</g>
</g>
<!-- Node2&#45;&gt;Node4 -->
<g id="edge3_Node000002_Node000004" class="edge">
<title>Node2&#45;&gt;Node4</title>
<g id="a_edge3_Node000002_Node000004"><a xlink:title=" ">
<path fill="none" stroke="#63b8ff" d="M503.65,-164.75C505.37,-157.72 507.85,-147.62 510,-138.84"/>
<polygon fill="#63b8ff" stroke="#63b8ff" points="513.41,-139.63 512.39,-129.09 506.61,-137.97 513.41,-139.63"/>
</a>
</g>
</g>
<!-- Node5 -->
<g id="Node000005" class="node">
<title>Node5</title>
<g id="a_Node000005"><a xlink:title=" ">
<polygon fill="#e0e0e0" stroke="#999999" points="197.5,-129 139.5,-129 139.5,-110 197.5,-110 197.5,-129"/>
<text text-anchor="middle" x="168.5" y="-117" font-family="Helvetica,sans-Serif" font-size="10.00">memory</text>
</a>
</g>
</g>
<!-- Node2&#45;&gt;Node5 -->
<g id="edge4_Node000002_Node000005" class="edge">
<title>Node2&#45;&gt;Node5</title>
<g id="a_edge4_Node000002_Node000005"><a xlink:title=" ">
<path fill="none" stroke="#63b8ff" d="M462.7,-168.53C408.03,-161.34 305.02,-147.08 207.53,-129.08"/>
<polygon fill="#63b8ff" stroke="#63b8ff" points="207.97,-125.6 197.5,-127.21 206.69,-132.48 207.97,-125.6"/>
</a>
</g>
</g>
<!-- Node6 -->
<g id="Node000006" class="node">
<title>Node6</title>
<g id="a_Node000006"><a xlink:title=" ">
<polygon fill="#e0e0e0" stroke="#999999" points="281,-129 216,-129 216,-110 281,-110 281,-129"/>
<text text-anchor="middle" x="248.5" y="-117" font-family="Helvetica,sans-Serif" font-size="10.00">stdexcept</text>
</a>
</g>
</g>
<!-- Node2&#45;&gt;Node6 -->
<g id="edge5_Node000002_Node000006" class="edge">
<title>Node2&#45;&gt;Node6</title>
<g id="a_edge5_Node000002_Node000006"><a xlink:title=" ">
<path fill="none" stroke="#63b8ff" d="M462.8,-165.39C416.5,-155.69 339.25,-139.51 291.23,-129.45"/>
<polygon fill="#63b8ff" stroke="#63b8ff" points="291.67,-125.97 281.16,-127.34 290.23,-132.82 291.67,-125.97"/>
</a>
</g>
</g>
<!-- Node7 -->
<g id="Node000007" class="node">
<title>Node7</title>
<g id="a_Node000007"><a xlink:title=" ">
<polygon fill="#e0e0e0" stroke="#999999" points="392,-129 299,-129 299,-110 392,-110 392,-129"/>
<text text-anchor="middle" x="345.5" y="-117" font-family="Helvetica,sans-Serif" font-size="10.00">unordered_map</text>
</a>
</g>
</g>
<!-- Node2&#45;&gt;Node7 -->
<g id="edge6_Node000002_Node000007" class="edge">
<title>Node2&#45;&gt;Node7</title>
<g id="a_edge6_Node000002_Node000007"><a xlink:title=" ">
<path fill="none" stroke="#63b8ff" d="M476.44,-164.98C450.47,-156.16 409.69,-142.31 380.54,-132.41"/>
<polygon fill="#63b8ff" stroke="#63b8ff" points="381.35,-128.99 370.76,-129.08 379.1,-135.61 381.35,-128.99"/>
</a>
</g>
</g>
<!-- Node8 -->
<g id="Node000008" class="node">
<title>Node8</title>
<g id="a_Node000008"><a xlink:title=" ">
<polygon fill="#e0e0e0" stroke="#999999" points="602,-129 555,-129 555,-110 602,-110 602,-129"/>
<text text-anchor="middle" x="578.5" y="-117" font-family="Helvetica,sans-Serif" font-size="10.00">vector</text>
</a>
</g>
</g>
<!-- Node2&#45;&gt;Node8 -->
<g id="edge7_Node000002_Node000008" class="edge">
<title>Node2&#45;&gt;Node8</title>
<g id="a_edge7_Node000002_Node000008"><a xlink:title=" ">
<path fill="none" stroke="#63b8ff" d="M513.87,-164.98C525.59,-156.92 543.42,-144.65 557.39,-135.03"/>
<polygon fill="#63b8ff" stroke="#63b8ff" points="559.65,-137.72 565.9,-129.17 555.68,-131.96 559.65,-137.72"/>
</a>
</g>
</g>
<!-- Node10 -->
<g id="Node000010" class="node">
<title>Node10</title>
<g id="a_Node000010"><a xlink:title=" ">
<polygon fill="#e0e0e0" stroke="#999999" points="730,-129 659,-129 659,-110 730,-110 730,-129"/>
<text text-anchor="middle" x="694.5" y="-117" font-family="Helvetica,sans-Serif" font-size="10.00">glad/glad.h</text>
</a>
</g>
</g>
<!-- Node9&#45;&gt;Node10 -->
<g id="edge9_Node000009_Node000010" class="edge">
<title>Node9&#45;&gt;Node10</title>
<g id="a_edge9_Node000009_Node000010"><a xlink:title=" ">
<path fill="none" stroke="#63b8ff" d="M290.57,-168.94C371.66,-159.21 561.17,-136.49 648.69,-125.99"/>
<polygon fill="#63b8ff" stroke="#63b8ff" points="649.34,-129.44 658.85,-124.78 648.5,-122.49 649.34,-129.44"/>
</a>
</g>
</g>
<!-- Node11 -->
<g id="Node000011" class="node">
<title>Node11</title>
<g id="a_Node000011"><a xlink:title=" ">
<polygon fill="#e0e0e0" stroke="#999999" points="83,-129 0,-129 0,-110 83,-110 83,-129"/>
<text text-anchor="middle" x="41.5" y="-117" font-family="Helvetica,sans-Serif" font-size="10.00">GLFW/glfw3.h</text>
</a>
</g>
</g>
<!-- Node9&#45;&gt;Node11 -->
<g id="edge10_Node000009_Node000011" class="edge">
<title>Node9&#45;&gt;Node11</title>
<g id="a_edge10_Node000009_Node000011"><a xlink:title=" ">
<path fill="none" stroke="#63b8ff" d="M218.6,-164.98C182.48,-155.91 125.18,-141.52 85.58,-131.57"/>
<polygon fill="#63b8ff" stroke="#63b8ff" points="86.22,-128.12 75.67,-129.08 84.51,-134.91 86.22,-128.12"/>
</a>
</g>
</g>
<!-- Node12 -->
<g id="Node000012" class="node">
<title>Node12</title>
<g id="a_Node000012"><a xlink:title=" ">
<polygon fill="#e0e0e0" stroke="#999999" points="780.5,-19 736.5,-19 736.5,0 780.5,0 780.5,-19"/>
<text text-anchor="middle" x="758.5" y="-7" font-family="Helvetica,sans-Serif" font-size="10.00">string</text>
</a>
</g>
</g>
<!-- Node9&#45;&gt;Node12 -->
<g id="edge11_Node000009_Node000012" class="edge">
<title>Node9&#45;&gt;Node12</title>
<g id="a_edge11_Node000009_Node000012"><a xlink:title=" ">
<path fill="none" stroke="#63b8ff" d="M214.27,-167.78C169.2,-159.47 103.6,-141.5 130.5,-110 208.62,-18.53 608.9,-10.69 726.17,-10.38"/>
<polygon fill="#63b8ff" stroke="#63b8ff" points="726.32,-13.88 736.31,-10.37 726.31,-6.88 726.32,-13.88"/>
</a>
</g>
</g>
<!-- Node13&#45;&gt;Node2 -->
<g id="edge13_Node000013_Node000002" class="edge">
<title>Node13&#45;&gt;Node2</title>
<g id="a_edge13_Node000013_Node000002"><a xlink:title=" ">
<path fill="none" stroke="#63b8ff" d="M854.81,-392.51C767.71,-389.95 620.01,-380.88 577.5,-349 564.16,-339 524.26,-235.95 508.25,-193.56"/>
<polygon fill="#63b8ff" stroke="#63b8ff" points="511.52,-192.31 504.73,-184.18 504.97,-194.78 511.52,-192.31"/>
</a>
</g>
</g>
<!-- Node13&#45;&gt;Node8 -->
<g id="edge57_Node000013_Node000008" class="edge">
<title>Node13&#45;&gt;Node8</title>
<g id="a_edge57_Node000013_Node000008"><a xlink:title=" ">
<path fill="none" stroke="#63b8ff" d="M854.71,-385.47C758.7,-371.89 591.5,-340.36 591.5,-285.5 591.5,-285.5 591.5,-285.5 591.5,-228.5 591.5,-196.96 585.97,-160.62 582.12,-139.15"/>
<polygon fill="#63b8ff" stroke="#63b8ff" points="585.53,-138.33 580.25,-129.14 578.65,-139.61 585.53,-138.33"/>
</a>
</g>
</g>
<!-- Node14 -->
<g id="Node000014" class="node">
<title>Node14</title>
<g id="a_Node000014"><a xlink:href="Object_8hpp.html" target="_top" xlink:title="Defines the Object class, a special ECS entity wrapper.">
<polygon fill="white" stroke="#666666" points="1020,-294 913,-294 913,-275 1020,-275 1020,-294"/>
<text text-anchor="middle" x="966.5" y="-282" font-family="Helvetica,sans-Serif" font-size="10.00">objects/Object.hpp</text>
</a>
</g>
</g>
<!-- Node13&#45;&gt;Node14 -->
<g id="edge14_Node000013_Node000014" class="edge">
<title>Node13&#45;&gt;Node14</title>
<g id="a_edge14_Node000013_Node000014"><a xlink:title=" ">
<path fill="none" stroke="#63b8ff" d="M922.62,-384.65C925.75,-372.16 932.17,-348.81 940.5,-330 944.67,-320.59 950.34,-310.66 955.32,-302.57"/>
<polygon fill="#63b8ff" stroke="#63b8ff" points="958.32,-304.38 960.72,-294.06 952.41,-300.62 958.32,-304.38"/>
</a>
</g>
</g>
<!-- Node30 -->
<g id="Node000030" class="node">
<title>Node30</title>
<g id="a_Node000030"><a xlink:href="PointLight_8hpp_source.html" target="_top" xlink:title=" ">
<polygon fill="white" stroke="#666666" points="1074,-349 949,-349 949,-330 1074,-330 1074,-349"/>
<text text-anchor="middle" x="1011.5" y="-337" font-family="Helvetica,sans-Serif" font-size="10.00">objects/PointLight.hpp</text>
</a>
</g>
</g>
<!-- Node13&#45;&gt;Node30 -->
<g id="edge45_Node000013_Node000030" class="edge">
<title>Node13&#45;&gt;Node30</title>
<g id="a_edge45_Node000013_Node000030"><a xlink:title=" ">
<path fill="none" stroke="#63b8ff" d="M935.12,-384.98C949.36,-376.69 971.25,-363.94 987.95,-354.22"/>
<polygon fill="#63b8ff" stroke="#63b8ff" points="989.73,-357.23 996.61,-349.17 986.21,-351.18 989.73,-357.23"/>
</a>
</g>
</g>
<!-- Node31 -->
<g id="Node000031" class="node">
<title>Node31</title>
<g id="a_Node000031"><a xlink:href="Camera_8hpp.html" target="_top" xlink:title="Defines the Camera class for view and projection.">
<polygon fill="white" stroke="#666666" points="1477,-349 1352,-349 1352,-330 1477,-330 1477,-349"/>
<text text-anchor="middle" x="1414.5" y="-337" font-family="Helvetica,sans-Serif" font-size="10.00">rendering/Camera.hpp</text>
</a>
</g>
</g>
<!-- Node13&#45;&gt;Node31 -->
<g id="edge48_Node000013_Node000031" class="edge">
<title>Node13&#45;&gt;Node31</title>
<g id="a_edge48_Node000013_Node000031"><a xlink:title=" ">
<path fill="none" stroke="#63b8ff" d="M986.1,-386.46C1078.27,-376.57 1245.57,-358.62 1341.55,-348.33"/>
<polygon fill="#63b8ff" stroke="#63b8ff" points="1342.18,-351.78 1351.75,-347.23 1341.44,-344.82 1342.18,-351.78"/>
</a>
</g>
</g>
<!-- Node32 -->
<g id="Node000032" class="node">
<title>Node32</title>
<g id="a_Node000032"><a xlink:href="Shader_8hpp.html" target="_top" xlink:title="Manages OpenGL shaders.">
<polygon fill="white" stroke="#666666" points="1285.5,-239 1165.5,-239 1165.5,-220 1285.5,-220 1285.5,-239"/>
<text text-anchor="middle" x="1225.5" y="-227" font-family="Helvetica,sans-Serif" font-size="10.00">rendering/Shader.hpp</text>
</a>
</g>
</g>
<!-- Node13&#45;&gt;Node32 -->
<g id="edge52_Node000013_Node000032" class="edge">
<title>Node13&#45;&gt;Node32</title>
<g id="a_edge52_Node000013_Node000032"><a xlink:title=" ">
<path fill="none" stroke="#63b8ff" d="M972.81,-384.95C1005.81,-378.19 1048.64,-366.85 1083.5,-349 1136.37,-321.93 1186.97,-272.11 1210.98,-246.55"/>
<polygon fill="#63b8ff" stroke="#63b8ff" points="1213.59,-248.88 1217.81,-239.16 1208.45,-244.13 1213.59,-248.88"/>
</a>
</g>
</g>
<!-- Node15 -->
<g id="Node000015" class="node">
<title>Node15</title>
<g id="a_Node000015"><a xlink:href="Entity_8hpp.html" target="_top" xlink:title="Defines the Entity class, which serves as a wrapper for ECS entities.">
<polygon fill="white" stroke="#666666" points="894,-239 829,-239 829,-220 894,-220 894,-239"/>
<text text-anchor="middle" x="861.5" y="-227" font-family="Helvetica,sans-Serif" font-size="10.00">Entity.hpp</text>
</a>
</g>
</g>
<!-- Node14&#45;&gt;Node15 -->
<g id="edge15_Node000014_Node000015" class="edge">
<title>Node14&#45;&gt;Node15</title>
<g id="a_edge15_Node000014_Node000015"><a xlink:title=" ">
<path fill="none" stroke="#63b8ff" d="M949.63,-274.98C932.89,-266.54 907,-253.47 887.61,-243.68"/>
<polygon fill="#63b8ff" stroke="#63b8ff" points="889.18,-240.55 878.68,-239.17 886.03,-246.8 889.18,-240.55"/>
</a>
</g>
</g>
<!-- Node24 -->
<g id="Node000024" class="node">
<title>Node24</title>
<g id="a_Node000024"><a xlink:href="TransformComponent_8hpp.html" target="_top" xlink:title="Defines the TransformComponent for ECS&#45;based spatial transformations.">
<polygon fill="white" stroke="#666666" points="1509.5,-239 1303.5,-239 1303.5,-220 1509.5,-220 1509.5,-239"/>
<text text-anchor="middle" x="1406.5" y="-227" font-family="Helvetica,sans-Serif" font-size="10.00">components/TransformComponent.hpp</text>
</a>
</g>
</g>
<!-- Node14&#45;&gt;Node24 -->
<g id="edge27_Node000014_Node000024" class="edge">
<title>Node14&#45;&gt;Node24</title>
<g id="a_edge27_Node000014_Node000024"><a xlink:title=" ">
<path fill="none" stroke="#63b8ff" d="M1020.01,-277.05C1096.2,-267.88 1236.55,-250.97 1325.52,-240.25"/>
<polygon fill="#63b8ff" stroke="#63b8ff" points="1326.06,-243.71 1335.57,-239.04 1325.22,-236.76 1326.06,-243.71"/>
</a>
</g>
</g>
<!-- Node29 -->
<g id="Node000029" class="node">
<title>Node29</title>
<g id="a_Node000029"><a xlink:href="Mesh_8hpp.html" target="_top" xlink:title="Defines the Mesh class for managing 3D geometry.">
<polygon fill="white" stroke="#666666" points="742,-184 629,-184 629,-165 742,-165 742,-184"/>
<text text-anchor="middle" x="685.5" y="-172" font-family="Helvetica,sans-Serif" font-size="10.00">rendering/Mesh.hpp</text>
</a>
</g>
</g>
<!-- Node14&#45;&gt;Node29 -->
<g id="edge40_Node000014_Node000029" class="edge">
<title>Node14&#45;&gt;Node29</title>
<g id="a_edge40_Node000014_Node000029"><a xlink:title=" ">
<path fill="none" stroke="#63b8ff" d="M933.57,-274.92C903.68,-266.79 858.58,-253.67 820.5,-239 781.32,-223.91 737.63,-202.47 710.85,-188.77"/>
<polygon fill="#63b8ff" stroke="#63b8ff" points="712.29,-185.57 701.79,-184.1 709.08,-191.79 712.29,-185.57"/>
</a>
</g>
</g>
<!-- Node15&#45;&gt;Node2 -->
<g id="edge25_Node000015_Node000002" class="edge">
<title>Node15&#45;&gt;Node2</title>
<g id="a_edge25_Node000015_Node000002"><a xlink:title=" ">
<path fill="none" stroke="#63b8ff" d="M828.92,-223.7C765.44,-214.36 624.9,-193.67 550.28,-182.68"/>
<polygon fill="#63b8ff" stroke="#63b8ff" points="550.6,-179.19 540.2,-181.2 549.58,-186.12 550.6,-179.19"/>
</a>
</g>
</g>
<!-- Node16 -->
<g id="Node000016" class="node">
<title>Node16</title>
<g id="a_Node000016"><a xlink:href="Logger_8hpp.html" target="_top" xlink:title="Provides logging functionality.">
<polygon fill="white" stroke="#666666" points="1066.5,-184 996.5,-184 996.5,-165 1066.5,-165 1066.5,-184"/>
<text text-anchor="middle" x="1031.5" y="-172" font-family="Helvetica,sans-Serif" font-size="10.00">Logger.hpp</text>
</a>
</g>
</g>
<!-- Node15&#45;&gt;Node16 -->
<g id="edge16_Node000015_Node000016" class="edge">
<title>Node15&#45;&gt;Node16</title>
<g id="a_edge16_Node000015_Node000016"><a xlink:title=" ">
<path fill="none" stroke="#63b8ff" d="M888.81,-219.98C917.35,-211.09 962.33,-197.07 994.14,-187.15"/>
<polygon fill="#63b8ff" stroke="#63b8ff" points="995.47,-190.4 1003.97,-184.08 993.38,-183.72 995.47,-190.4"/>
</a>
</g>
</g>
<!-- Node21 -->
<g id="Node000021" class="node">
<title>Node21</title>
<g id="a_Node000021"><a xlink:title=" ">
<polygon fill="#e0e0e0" stroke="#999999" points="884.5,-129 824.5,-129 824.5,-110 884.5,-110 884.5,-129"/>
<text text-anchor="middle" x="854.5" y="-117" font-family="Helvetica,sans-Serif" font-size="10.00">iostream</text>
</a>
</g>
</g>
<!-- Node15&#45;&gt;Node21 -->
<g id="edge26_Node000015_Node000021" class="edge">
<title>Node15&#45;&gt;Node21</title>
<g id="a_edge26_Node000015_Node000021"><a xlink:title=" ">
<path fill="none" stroke="#63b8ff" d="M860.93,-219.66C859.79,-202.17 857.24,-162.8 855.72,-139.27"/>
<polygon fill="#63b8ff" stroke="#63b8ff" points="859.2,-138.91 855.06,-129.16 852.22,-139.36 859.2,-138.91"/>
</a>
</g>
</g>
<!-- Node16&#45;&gt;Node12 -->
<g id="edge24_Node000016_Node000012" class="edge">
<title>Node16&#45;&gt;Node12</title>
<g id="a_edge24_Node000016_Node000012"><a xlink:title=" ">
<path fill="none" stroke="#63b8ff" d="M1009.09,-164.9C988.45,-156.65 957.21,-143.37 931.5,-129 873.07,-96.35 809.34,-49.48 778.06,-25.65"/>
<polygon fill="#63b8ff" stroke="#63b8ff" points="779.84,-22.61 769.78,-19.3 775.58,-28.17 779.84,-22.61"/>
</a>
</g>
</g>
<!-- Node17 -->
<g id="Node000017" class="node">
<title>Node17</title>
<g id="a_Node000017"><a xlink:title=" ">
<polygon fill="#e0e0e0" stroke="#999999" points="1056.5,-129 1006.5,-129 1006.5,-110 1056.5,-110 1056.5,-129"/>
<text text-anchor="middle" x="1031.5" y="-117" font-family="Helvetica,sans-Serif" font-size="10.00">chrono</text>
</a>
</g>
</g>
<!-- Node16&#45;&gt;Node17 -->
<g id="edge17_Node000016_Node000017" class="edge">
<title>Node16&#45;&gt;Node17</title>
<g id="a_edge17_Node000016_Node000017"><a xlink:title=" ">
<path fill="none" stroke="#63b8ff" d="M1031.5,-164.75C1031.5,-157.8 1031.5,-147.85 1031.5,-139.13"/>
<polygon fill="#63b8ff" stroke="#63b8ff" points="1035,-139.09 1031.5,-129.09 1028,-139.09 1035,-139.09"/>
</a>
</g>
</g>
<!-- Node18 -->
<g id="Node000018" class="node">
<title>Node18</title>
<g id="a_Node000018"><a xlink:title=" ">
<polygon fill="#e0e0e0" stroke="#999999" points="1146,-129 1075,-129 1075,-110 1146,-110 1146,-129"/>
<text text-anchor="middle" x="1110.5" y="-117" font-family="Helvetica,sans-Serif" font-size="10.00">fmt/printf.h</text>
</a>
</g>
</g>
<!-- Node16&#45;&gt;Node18 -->
<g id="edge18_Node000016_Node000018" class="edge">
<title>Node16&#45;&gt;Node18</title>
<g id="a_edge18_Node000016_Node000018"><a xlink:title=" ">
<path fill="none" stroke="#63b8ff" d="M1044.19,-164.98C1056.33,-156.84 1074.86,-144.41 1089.25,-134.76"/>
<polygon fill="#63b8ff" stroke="#63b8ff" points="1091.22,-137.65 1097.58,-129.17 1087.32,-131.84 1091.22,-137.65"/>
</a>
</g>
</g>
<!-- Node19 -->
<g id="Node000019" class="node">
<title>Node19</title>
<g id="a_Node000019"><a xlink:title=" ">
<polygon fill="#e0e0e0" stroke="#999999" points="1219,-129 1164,-129 1164,-110 1219,-110 1219,-129"/>
<text text-anchor="middle" x="1191.5" y="-117" font-family="Helvetica,sans-Serif" font-size="10.00">fstream</text>
</a>
</g>
</g>
<!-- Node16&#45;&gt;Node19 -->
<g id="edge19_Node000016_Node000019" class="edge">
<title>Node16&#45;&gt;Node19</title>
<g id="a_edge19_Node000016_Node000019"><a xlink:title=" ">
<path fill="none" stroke="#63b8ff" d="M1057.21,-164.98C1083.95,-156.13 1126.03,-142.19 1155.95,-132.28"/>
<polygon fill="#63b8ff" stroke="#63b8ff" points="1157.2,-135.55 1165.59,-129.08 1155,-128.9 1157.2,-135.55"/>
</a>
</g>
</g>
<!-- Node20 -->
<g id="Node000020" class="node">
<title>Node20</title>
<g id="a_Node000020"><a xlink:title=" ">
<polygon fill="#e0e0e0" stroke="#999999" points="1445.5,-129 1389.5,-129 1389.5,-110 1445.5,-110 1445.5,-129"/>
<text text-anchor="middle" x="1417.5" y="-117" font-family="Helvetica,sans-Serif" font-size="10.00">iomanip</text>
</a>
</g>
</g>
<!-- Node16&#45;&gt;Node20 -->
<g id="edge20_Node000016_Node000020" class="edge">
<title>Node16&#45;&gt;Node20</title>
<g id="a_edge20_Node000016_Node000020"><a xlink:title=" ">
<path fill="none" stroke="#63b8ff" d="M1066.78,-168.66C1139.3,-158.7 1304.58,-136 1379.42,-125.73"/>
<polygon fill="#63b8ff" stroke="#63b8ff" points="1379.93,-129.19 1389.37,-124.36 1378.98,-122.26 1379.93,-129.19"/>
</a>
</g>
</g>
<!-- Node16&#45;&gt;Node21 -->
<g id="edge21_Node000016_Node000021" class="edge">
<title>Node16&#45;&gt;Node21</title>
<g id="a_edge21_Node000016_Node000021"><a xlink:title=" ">
<path fill="none" stroke="#63b8ff" d="M1003.06,-164.98C973.22,-156.05 926.12,-141.94 892.97,-132.02"/>
<polygon fill="#63b8ff" stroke="#63b8ff" points="893.74,-128.6 883.16,-129.08 891.74,-135.3 893.74,-128.6"/>
</a>
</g>
</g>
<!-- Node22 -->
<g id="Node000022" class="node">
<title>Node22</title>
<g id="a_Node000022"><a xlink:title=" ">
<polygon fill="#e0e0e0" stroke="#999999" points="988.5,-129 940.5,-129 940.5,-110 988.5,-110 988.5,-129"/>
<text text-anchor="middle" x="964.5" y="-117" font-family="Helvetica,sans-Serif" font-size="10.00">mutex</text>
</a>
</g>
</g>
<!-- Node16&#45;&gt;Node22 -->
<g id="edge22_Node000016_Node000022" class="edge">
<title>Node16&#45;&gt;Node22</title>
<g id="a_edge22_Node000016_Node000022"><a xlink:title=" ">
<path fill="none" stroke="#63b8ff" d="M1020.74,-164.98C1010.73,-157.07 995.61,-145.11 983.57,-135.58"/>
<polygon fill="#63b8ff" stroke="#63b8ff" points="985.47,-132.63 975.46,-129.17 981.13,-138.12 985.47,-132.63"/>
</a>
</g>
</g>
<!-- Node23 -->
<g id="Node000023" class="node">
<title>Node23</title>
<g id="a_Node000023"><a xlink:title=" ">
<polygon fill="#e0e0e0" stroke="#999999" points="1389.5,-19 1333.5,-19 1333.5,0 1389.5,0 1389.5,-19"/>
<text text-anchor="middle" x="1361.5" y="-7" font-family="Helvetica,sans-Serif" font-size="10.00">sstream</text>
</a>
</g>
</g>
<!-- Node16&#45;&gt;Node23 -->
<g id="edge23_Node000016_Node000023" class="edge">
<title>Node16&#45;&gt;Node23</title>
<g id="a_edge23_Node000016_Node000023"><a xlink:title=" ">
<path fill="none" stroke="#63b8ff" d="M1066.76,-170.89C1107.64,-166.69 1176.11,-155.94 1228.5,-129 1241.94,-122.09 1312.37,-56.67 1344.95,-26.1"/>
<polygon fill="#63b8ff" stroke="#63b8ff" points="1347.47,-28.53 1352.36,-19.13 1342.67,-23.43 1347.47,-28.53"/>
</a>
</g>
</g>
<!-- Node25 -->
<g id="Node000025" class="node">
<title>Node25</title>
<g id="a_Node000025"><a xlink:href="Matrix4_8hpp.html" target="_top" xlink:title="Defines the Matrix4 class for 3D transformation operations.">
<polygon fill="white" stroke="#666666" points="1519.5,-184 1415.5,-184 1415.5,-165 1519.5,-165 1519.5,-184"/>
<text text-anchor="middle" x="1467.5" y="-172" font-family="Helvetica,sans-Serif" font-size="10.00">math/Matrix4.hpp</text>
</a>
</g>
</g>
<!-- Node24&#45;&gt;Node25 -->
<g id="edge28_Node000024_Node000025" class="edge">
<title>Node24&#45;&gt;Node25</title>
<g id="a_edge28_Node000024_Node000025"><a xlink:title=" ">
<path fill="none" stroke="#63b8ff" d="M1416.3,-219.98C1425.32,-212.15 1438.91,-200.34 1449.82,-190.86"/>
<polygon fill="#63b8ff" stroke="#63b8ff" points="1452.27,-193.37 1457.52,-184.17 1447.68,-188.09 1452.27,-193.37"/>
</a>
</g>
</g>
<!-- Node26 -->
<g id="Node000026" class="node">
<title>Node26</title>
<g id="a_Node000026"><a xlink:href="Quaternion_8hpp.html" target="_top" xlink:title="Defines the Quaternion class for representing 3D rotations.">
<polygon fill="white" stroke="#666666" points="1593.5,-129 1501.5,-129 1501.5,-110 1593.5,-110 1593.5,-129"/>
<text text-anchor="middle" x="1547.5" y="-117" font-family="Helvetica,sans-Serif" font-size="10.00">Quaternion.hpp</text>
</a>
</g>
</g>
<!-- Node24&#45;&gt;Node26 -->
<g id="edge38_Node000024_Node000026" class="edge">
<title>Node24&#45;&gt;Node26</title>
<g id="a_edge38_Node000024_Node000026"><a xlink:title=" ">
<path fill="none" stroke="#63b8ff" d="M1460.89,-219.96C1484.52,-213.67 1510.79,-202.78 1528.5,-184 1539.96,-171.84 1544.53,-153.05 1546.34,-139.06"/>
<polygon fill="#63b8ff" stroke="#63b8ff" points="1549.83,-139.37 1547.28,-129.09 1542.86,-138.71 1549.83,-139.37"/>
</a>
</g>
</g>
<!-- Node27 -->
<g id="Node000027" class="node">
<title>Node27</title>
<g id="a_Node000027"><a xlink:href="Vector3_8hpp.html" target="_top" xlink:title="Defines the Vector3 class.">
<polygon fill="white" stroke="#666666" points="1398.5,-74 1324.5,-74 1324.5,-55 1398.5,-55 1398.5,-74"/>
<text text-anchor="middle" x="1361.5" y="-62" font-family="Helvetica,sans-Serif" font-size="10.00">Vector3.hpp</text>
</a>
</g>
</g>
<!-- Node24&#45;&gt;Node27 -->
<g id="edge39_Node000024_Node000027" class="edge">
<title>Node24&#45;&gt;Node27</title>
<g id="a_edge39_Node000024_Node000027"><a xlink:title=" ">
<path fill="none" stroke="#63b8ff" d="M1404.08,-219.74C1397.03,-194.2 1376.39,-119.43 1366.67,-84.23"/>
<polygon fill="#63b8ff" stroke="#63b8ff" points="1369.97,-83.01 1363.93,-74.31 1363.22,-84.88 1369.97,-83.01"/>
</a>
</g>
</g>
<!-- Node25&#45;&gt;Node20 -->
<g id="edge36_Node000025_Node000020" class="edge">
<title>Node25&#45;&gt;Node20</title>
<g id="a_edge36_Node000025_Node000020"><a xlink:title=" ">
<path fill="none" stroke="#63b8ff" d="M1459.24,-164.75C1452.04,-157.11 1441.39,-145.82 1432.65,-136.56"/>
<polygon fill="#63b8ff" stroke="#63b8ff" points="1435.01,-133.96 1425.6,-129.09 1429.92,-138.76 1435.01,-133.96"/>
</a>
</g>
</g>
<!-- Node25&#45;&gt;Node23 -->
<g id="edge37_Node000025_Node000023" class="edge">
<title>Node25&#45;&gt;Node23</title>
<g id="a_edge37_Node000025_Node000023"><a xlink:title=" ">
<path fill="none" stroke="#63b8ff" d="M1519.94,-167.94C1567.05,-160.64 1625.54,-144.44 1602.5,-110 1556.98,-41.96 1455.51,-20.4 1399.85,-13.6"/>
<polygon fill="#63b8ff" stroke="#63b8ff" points="1400.01,-10.1 1389.68,-12.46 1399.23,-17.05 1400.01,-10.1"/>
</a>
</g>
</g>
<!-- Node25&#45;&gt;Node26 -->
<g id="edge29_Node000025_Node000026" class="edge">
<title>Node25&#45;&gt;Node26</title>
<g id="a_edge29_Node000025_Node000026"><a xlink:title=" ">
<path fill="none" stroke="#63b8ff" d="M1480.35,-164.98C1492.64,-156.84 1511.41,-144.41 1525.98,-134.76"/>
<polygon fill="#63b8ff" stroke="#63b8ff" points="1528.01,-137.61 1534.41,-129.17 1524.14,-131.78 1528.01,-137.61"/>
</a>
</g>
</g>
<!-- Node25&#45;&gt;Node27 -->
<g id="edge35_Node000025_Node000027" class="edge">
<title>Node25&#45;&gt;Node27</title>
<g id="a_edge35_Node000025_Node000027"><a xlink:title=" ">
<path fill="none" stroke="#63b8ff" d="M1468.03,-164.7C1468.36,-151.43 1467.11,-126.14 1454.5,-110 1442.51,-94.65 1423.9,-84.31 1406.47,-77.49"/>
<polygon fill="#63b8ff" stroke="#63b8ff" points="1407.55,-74.16 1396.96,-74.06 1405.18,-80.74 1407.55,-74.16"/>
</a>
</g>
</g>
<!-- Node26&#45;&gt;Node27 -->
<g id="edge30_Node000026_Node000027" class="edge">
<title>Node26&#45;&gt;Node27</title>
<g id="a_edge30_Node000026_Node000027"><a xlink:title=" ">
<path fill="none" stroke="#63b8ff" d="M1517.62,-109.98C1486.12,-101.01 1436.33,-86.82 1401.47,-76.89"/>
<polygon fill="#63b8ff" stroke="#63b8ff" points="1402.19,-73.46 1391.62,-74.08 1400.28,-80.19 1402.19,-73.46"/>
</a>
</g>
</g>
<!-- Node28 -->
<g id="Node000028" class="node">
<title>Node28</title>
<g id="a_Node000028"><a xlink:title=" ">
<polygon fill="#e0e0e0" stroke="#999999" points="1588,-19 1541,-19 1541,0 1588,0 1588,-19"/>
<text text-anchor="middle" x="1564.5" y="-7" font-family="Helvetica,sans-Serif" font-size="10.00">cmath</text>
</a>
</g>
</g>
<!-- Node26&#45;&gt;Node28 -->
<g id="edge34_Node000026_Node000028" class="edge">
<title>Node26&#45;&gt;Node28</title>
<g id="a_edge34_Node000026_Node000028"><a xlink:title=" ">
<path fill="none" stroke="#63b8ff" d="M1548.89,-109.66C1551.64,-92.17 1557.84,-52.8 1561.54,-29.27"/>
<polygon fill="#63b8ff" stroke="#63b8ff" points="1565.04,-29.58 1563.14,-19.16 1558.12,-28.49 1565.04,-29.58"/>
</a>
</g>
</g>
<!-- Node27&#45;&gt;Node12 -->
<g id="edge33_Node000027_Node000012" class="edge">
<title>Node27&#45;&gt;Node12</title>
<g id="a_edge33_Node000027_Node000012"><a xlink:title=" ">
<path fill="none" stroke="#63b8ff" d="M1324.23,-60.22C1214.5,-50.58 893.78,-22.39 790.76,-13.34"/>
<polygon fill="#63b8ff" stroke="#63b8ff" points="790.93,-9.84 780.66,-12.45 790.32,-16.81 790.93,-9.84"/>
</a>
</g>
</g>
<!-- Node27&#45;&gt;Node23 -->
<g id="edge32_Node000027_Node000023" class="edge">
<title>Node27&#45;&gt;Node23</title>
<g id="a_edge32_Node000027_Node000023"><a xlink:title=" ">
<path fill="none" stroke="#63b8ff" d="M1361.5,-54.75C1361.5,-47.8 1361.5,-37.85 1361.5,-29.13"/>
<polygon fill="#63b8ff" stroke="#63b8ff" points="1365,-29.09 1361.5,-19.09 1358,-29.09 1365,-29.09"/>
</a>
</g>
</g>
<!-- Node27&#45;&gt;Node28 -->
<g id="edge31_Node000027_Node000028" class="edge">
<title>Node27&#45;&gt;Node28</title>
<g id="a_edge31_Node000027_Node000028"><a xlink:title=" ">
<path fill="none" stroke="#63b8ff" d="M1394.12,-54.98C1431.61,-45.2 1492.85,-29.21 1530.8,-19.3"/>
<polygon fill="#63b8ff" stroke="#63b8ff" points="1532.05,-22.59 1540.84,-16.68 1530.28,-15.82 1532.05,-22.59"/>
</a>
</g>
</g>
<!-- Node29&#45;&gt;Node8 -->
<g id="edge44_Node000029_Node000008" class="edge">
<title>Node29&#45;&gt;Node8</title>
<g id="a_edge44_Node000029_Node000008"><a xlink:title=" ">
<path fill="none" stroke="#63b8ff" d="M668.31,-164.98C651.25,-156.54 624.87,-143.47 605.1,-133.68"/>
<polygon fill="#63b8ff" stroke="#63b8ff" points="606.52,-130.47 596,-129.17 603.41,-136.75 606.52,-130.47"/>
</a>
</g>
</g>
<!-- Node29&#45;&gt;Node10 -->
<g id="edge42_Node000029_Node000010" class="edge">
<title>Node29&#45;&gt;Node10</title>
<g id="a_edge42_Node000029_Node000010"><a xlink:title=" ">
<path fill="none" stroke="#63b8ff" d="M686.99,-164.75C688.17,-157.8 689.86,-147.85 691.34,-139.13"/>
<polygon fill="#63b8ff" stroke="#63b8ff" points="694.82,-139.53 693.04,-129.09 687.92,-138.36 694.82,-139.53"/>
</a>
</g>
</g>
<!-- Node29&#45;&gt;Node12 -->
<g id="edge43_Node000029_Node000012" class="edge">
<title>Node29&#45;&gt;Node12</title>
<g id="a_edge43_Node000029_Node000012"><a xlink:title=" ">
<path fill="none" stroke="#63b8ff" d="M674.78,-164.72C661.48,-152.7 641.6,-130.29 650.5,-110 667.53,-71.15 708.04,-40.77 734.32,-24.26"/>
<polygon fill="#63b8ff" stroke="#63b8ff" points="736.24,-27.19 742.96,-19.01 732.6,-21.21 736.24,-27.19"/>
</a>
</g>
</g>
<!-- Node29&#45;&gt;Node27 -->
<g id="edge41_Node000029_Node000027" class="edge">
<title>Node29&#45;&gt;Node27</title>
<g id="a_edge41_Node000029_Node000027"><a xlink:title=" ">
<path fill="none" stroke="#63b8ff" d="M698.87,-164.86C721.72,-150.58 770.2,-122.43 815.5,-110 908.89,-84.37 1199.2,-71.36 1314.04,-67.11"/>
<polygon fill="#63b8ff" stroke="#63b8ff" points="1314.41,-70.6 1324.28,-66.73 1314.16,-63.6 1314.41,-70.6"/>
</a>
</g>
</g>
<!-- Node30&#45;&gt;Node14 -->
<g id="edge46_Node000030_Node000014" class="edge">
<title>Node30&#45;&gt;Node14</title>
<g id="a_edge46_Node000030_Node000014"><a xlink:title=" ">
<path fill="none" stroke="#63b8ff" d="M1004.07,-329.75C997.65,-322.18 988.19,-311.05 980.38,-301.84"/>
<polygon fill="#63b8ff" stroke="#63b8ff" points="982.93,-299.45 973.79,-294.09 977.6,-303.98 982.93,-299.45"/>
</a>
</g>
</g>
<!-- Node30&#45;&gt;Node27 -->
<g id="edge47_Node000030_Node000027" class="edge">
<title>Node30&#45;&gt;Node27</title>
<g id="a_edge47_Node000030_Node000027"><a xlink:title=" ">
<path fill="none" stroke="#63b8ff" d="M1021.94,-329.73C1045.62,-309.89 1105.35,-260.15 1156.5,-220 1223.4,-167.49 1304.47,-107.42 1341.41,-80.23"/>
<polygon fill="#63b8ff" stroke="#63b8ff" points="1343.83,-82.8 1349.82,-74.05 1339.69,-77.16 1343.83,-82.8"/>
</a>
</g>
</g>
<!-- Node31&#45;&gt;Node14 -->
<g id="edge51_Node000031_Node000014" class="edge">
<title>Node31&#45;&gt;Node14</title>
<g id="a_edge51_Node000031_Node000014"><a xlink:title=" ">
<path fill="none" stroke="#63b8ff" d="M1351.74,-331.07C1266.69,-321.01 1115.69,-303.15 1030.18,-293.03"/>
<polygon fill="#63b8ff" stroke="#63b8ff" points="1030.43,-289.54 1020.09,-291.84 1029.61,-296.49 1030.43,-289.54"/>
</a>
</g>
</g>
<!-- Node31&#45;&gt;Node25 -->
<g id="edge49_Node000031_Node000025" class="edge">
<title>Node31&#45;&gt;Node25</title>
<g id="a_edge49_Node000031_Node000025"><a xlink:title=" ">
<path fill="none" stroke="#63b8ff" d="M1429.48,-329.84C1453.61,-314.9 1500.24,-281.74 1518.5,-239 1526.68,-219.84 1508.56,-201.71 1491.7,-189.76"/>
<polygon fill="#63b8ff" stroke="#63b8ff" points="1493.41,-186.7 1483.14,-184.1 1489.55,-192.54 1493.41,-186.7"/>
</a>
</g>
</g>
<!-- Node31&#45;&gt;Node27 -->
<g id="edge50_Node000031_Node000027" class="edge">
<title>Node31&#45;&gt;Node27</title>
<g id="a_edge50_Node000031_Node000027"><a xlink:title=" ">
<path fill="none" stroke="#63b8ff" d="M1477.17,-332.16C1538.09,-322.13 1621.5,-296.37 1621.5,-230.5 1621.5,-230.5 1621.5,-230.5 1621.5,-173.5 1621.5,-144.04 1624.43,-129.67 1602.5,-110 1574.58,-84.95 1470.82,-73.3 1408.91,-68.47"/>
<polygon fill="#63b8ff" stroke="#63b8ff" points="1408.85,-64.96 1398.61,-67.7 1408.32,-71.94 1408.85,-64.96"/>
</a>
</g>
</g>
<!-- Node32&#45;&gt;Node10 -->
<g id="edge55_Node000032_Node000010" class="edge">
<title>Node32&#45;&gt;Node10</title>
<g id="a_edge55_Node000032_Node000010"><a xlink:title=" ">
<path fill="none" stroke="#63b8ff" d="M1165.45,-227.6C1087.38,-225.1 947.42,-216.05 832.5,-184 790.42,-172.26 745.01,-149.13 718.21,-134.26"/>
<polygon fill="#63b8ff" stroke="#63b8ff" points="719.64,-131.05 709.21,-129.19 716.21,-137.15 719.64,-131.05"/>
</a>
</g>
</g>
<!-- Node32&#45;&gt;Node12 -->
<g id="edge56_Node000032_Node000012" class="edge">
<title>Node32&#45;&gt;Node12</title>
<g id="a_edge56_Node000032_Node000012"><a xlink:title=" ">
<path fill="none" stroke="#63b8ff" d="M1165.48,-220.79C1064.74,-206.76 867.51,-174.25 815.5,-129 784.74,-102.24 769.16,-55.15 762.55,-29.12"/>
<polygon fill="#63b8ff" stroke="#63b8ff" points="765.88,-28.01 760.18,-19.08 759.07,-29.61 765.88,-28.01"/>
</a>
</g>
</g>
<!-- Node32&#45;&gt;Node25 -->
<g id="edge53_Node000032_Node000025" class="edge">
<title>Node32&#45;&gt;Node25</title>
<g id="a_edge53_Node000032_Node000025"><a xlink:title=" ">
<path fill="none" stroke="#63b8ff" d="M1264.38,-219.98C1306.24,-210.82 1372.93,-196.21 1418.38,-186.26"/>
<polygon fill="#63b8ff" stroke="#63b8ff" points="1419.29,-189.64 1428.31,-184.08 1417.8,-182.8 1419.29,-189.64"/>
</a>
</g>
</g>
<!-- Node32&#45;&gt;Node27 -->
<g id="edge54_Node000032_Node000027" class="edge">
<title>Node32&#45;&gt;Node27</title>
<g id="a_edge54_Node000032_Node000027"><a xlink:title=" ">
<path fill="none" stroke="#63b8ff" d="M1232.81,-219.74C1254.58,-193.65 1319.22,-116.17 1347.73,-82"/>
<polygon fill="#63b8ff" stroke="#63b8ff" points="1350.43,-84.23 1354.15,-74.31 1345.06,-79.74 1350.43,-84.23"/>
</a>
</g>
</g>
</g>
</svg>
