<?xml version="1.0" encoding="UTF-8" standalone="no"?>
<!DOCTYPE svg PUBLIC "-//W3C//DTD SVG 1.1//EN"
 "http://www.w3.org/Graphics/SVG/1.1/DTD/svg11.dtd">
<!-- Generated by graphviz version 2.43.0 (0)
 -->
<!-- Title: include/Engine.hpp Pages: 1 -->
<svg width="1489pt" height="467pt"
 viewBox="0.00 0.00 1488.69 467.00" xmlns="http://www.w3.org/2000/svg" xmlns:xlink="http://www.w3.org/1999/xlink">
<g id="graph0" class="graph" transform="scale(1 1) rotate(0) translate(4 463)">
<title>include/Engine.hpp</title>
<!-- Node1 -->
<g id="Node000001" class="node">
<title>Node1</title>
<g id="a_Node000001"><a xlink:title="Defines the core Engine class responsible for running simulation.">
<polygon fill="#999999" stroke="#666666" points="1140.15,-459 1031.15,-459 1031.15,-440 1140.15,-440 1140.15,-459"/>
<text text-anchor="middle" x="1085.65" y="-447" font-family="Helvetica,sans-Serif" font-size="10.00">include/Engine.hpp</text>
</a>
</g>
</g>
<!-- Node2 -->
<g id="Node000002" class="node">
<title>Node2</title>
<g id="a_Node000002"><a xlink:href="Window_8hpp.html" target="_top" xlink:title="Provides a window for OpenGL rendering using GLFW.">
<polygon fill="white" stroke="#666666" points="1406.65,-349 1330.65,-349 1330.65,-330 1406.65,-330 1406.65,-349"/>
<text text-anchor="middle" x="1368.65" y="-337" font-family="Helvetica,sans-Serif" font-size="10.00">Window.hpp</text>
</a>
</g>
</g>
<!-- Node1&#45;&gt;Node2 -->
<g id="edge1_Node000001_Node000002" class="edge">
<title>Node1&#45;&gt;Node2</title>
<g id="a_edge1_Node000001_Node000002"><a xlink:title=" ">
<path fill="none" stroke="#63b8ff" d="M1108.33,-439.84C1158.55,-420.68 1279.22,-374.63 1336.91,-352.62"/>
<polygon fill="#63b8ff" stroke="#63b8ff" points="1338.16,-355.88 1346.26,-349.05 1335.67,-349.34 1338.16,-355.88"/>
</a>
</g>
</g>
<!-- Node6 -->
<g id="Node000006" class="node">
<title>Node6</title>
<g id="a_Node000006"><a xlink:href="Renderer_8hpp.html" target="_top" xlink:title="Manages the rendering pipeline and object submission.">
<polygon fill="white" stroke="#666666" points="1104.15,-404 973.15,-404 973.15,-385 1104.15,-385 1104.15,-404"/>
<text text-anchor="middle" x="1038.65" y="-392" font-family="Helvetica,sans-Serif" font-size="10.00">rendering/Renderer.hpp</text>
</a>
</g>
</g>
<!-- Node1&#45;&gt;Node6 -->
<g id="edge5_Node000001_Node000006" class="edge">
<title>Node1&#45;&gt;Node6</title>
<g id="a_edge5_Node000001_Node000006"><a xlink:title=" ">
<path fill="none" stroke="#63b8ff" d="M1077.89,-439.75C1071.19,-432.18 1061.31,-421.05 1053.15,-411.84"/>
<polygon fill="#63b8ff" stroke="#63b8ff" points="1055.52,-409.25 1046.27,-404.09 1050.29,-413.89 1055.52,-409.25"/>
</a>
</g>
</g>
<!-- Node3 -->
<g id="Node000003" class="node">
<title>Node3</title>
<g id="a_Node000003"><a xlink:title=" ">
<polygon fill="#e0e0e0" stroke="#999999" points="1317.15,-184 1246.15,-184 1246.15,-165 1317.15,-165 1317.15,-184"/>
<text text-anchor="middle" x="1281.65" y="-172" font-family="Helvetica,sans-Serif" font-size="10.00">glad/glad.h</text>
</a>
</g>
</g>
<!-- Node2&#45;&gt;Node3 -->
<g id="edge2_Node000002_Node000003" class="edge">
<title>Node2&#45;&gt;Node3</title>
<g id="a_edge2_Node000002_Node000003"><a xlink:title=" ">
<path fill="none" stroke="#63b8ff" d="M1363.98,-329.74C1350.23,-303.98 1309.75,-228.13 1291.17,-193.33"/>
<polygon fill="#63b8ff" stroke="#63b8ff" points="1294.15,-191.48 1286.35,-184.31 1287.98,-194.78 1294.15,-191.48"/>
</a>
</g>
</g>
<!-- Node4 -->
<g id="Node000004" class="node">
<title>Node4</title>
<g id="a_Node000004"><a xlink:title=" ">
<polygon fill="#e0e0e0" stroke="#999999" points="1452.15,-294 1369.15,-294 1369.15,-275 1452.15,-275 1452.15,-294"/>
<text text-anchor="middle" x="1410.65" y="-282" font-family="Helvetica,sans-Serif" font-size="10.00">GLFW/glfw3.h</text>
</a>
</g>
</g>
<!-- Node2&#45;&gt;Node4 -->
<g id="edge3_Node000002_Node000004" class="edge">
<title>Node2&#45;&gt;Node4</title>
<g id="a_edge3_Node000002_Node000004"><a xlink:title=" ">
<path fill="none" stroke="#63b8ff" d="M1375.59,-329.75C1381.52,-322.26 1390.23,-311.28 1397.48,-302.13"/>
<polygon fill="#63b8ff" stroke="#63b8ff" points="1400.38,-304.1 1403.85,-294.09 1394.89,-299.75 1400.38,-304.1"/>
</a>
</g>
</g>
<!-- Node5 -->
<g id="Node000005" class="node">
<title>Node5</title>
<g id="a_Node000005"><a xlink:title=" ">
<polygon fill="#e0e0e0" stroke="#999999" points="1338.65,-19 1294.65,-19 1294.65,0 1338.65,0 1338.65,-19"/>
<text text-anchor="middle" x="1316.65" y="-7" font-family="Helvetica,sans-Serif" font-size="10.00">string</text>
</a>
</g>
</g>
<!-- Node2&#45;&gt;Node5 -->
<g id="edge4_Node000002_Node000005" class="edge">
<title>Node2&#45;&gt;Node5</title>
<g id="a_edge4_Node000002_Node000005"><a xlink:title=" ">
<path fill="none" stroke="#63b8ff" d="M1402.17,-329.93C1422.05,-323.22 1446.3,-311.95 1461.65,-294 1480.8,-271.61 1480.65,-259.96 1480.65,-230.5 1480.65,-230.5 1480.65,-230.5 1480.65,-118.5 1480.65,-55.93 1396.36,-27.57 1348.64,-16.52"/>
<polygon fill="#63b8ff" stroke="#63b8ff" points="1349.29,-13.08 1338.77,-14.36 1347.79,-19.92 1349.29,-13.08"/>
</a>
</g>
</g>
<!-- Node6&#45;&gt;Node2 -->
<g id="edge13_Node000006_Node000002" class="edge">
<title>Node6&#45;&gt;Node2</title>
<g id="a_edge13_Node000006_Node000002"><a xlink:title=" ">
<path fill="none" stroke="#63b8ff" d="M1092.22,-384.98C1148.2,-376.06 1238.61,-361.63 1316.65,-349 1317.92,-348.79 1319.21,-348.59 1320.51,-348.38"/>
<polygon fill="#63b8ff" stroke="#63b8ff" points="1321.29,-351.79 1330.6,-346.74 1320.17,-344.89 1321.29,-351.79"/>
</a>
</g>
</g>
<!-- Node7 -->
<g id="Node000007" class="node">
<title>Node7</title>
<g id="a_Node000007"><a xlink:href="Registry_8hpp.html" target="_top" xlink:title="Defines the Registry class for managing ECS entities and components.">
<polygon fill="white" stroke="#666666" points="1105.15,-184 1028.15,-184 1028.15,-165 1105.15,-165 1105.15,-184"/>
<text text-anchor="middle" x="1066.65" y="-172" font-family="Helvetica,sans-Serif" font-size="10.00">Registry.hpp</text>
</a>
</g>
</g>
<!-- Node6&#45;&gt;Node7 -->
<g id="edge6_Node000006_Node000007" class="edge">
<title>Node6&#45;&gt;Node7</title>
<g id="a_edge6_Node000006_Node000007"><a xlink:title=" ">
<path fill="none" stroke="#63b8ff" d="M1034.09,-384.7C1021.1,-358.33 986.53,-278.2 1013.65,-220 1019.48,-207.49 1030.75,-197.25 1041.4,-189.76"/>
<polygon fill="#63b8ff" stroke="#63b8ff" points="1043.59,-192.51 1050.07,-184.13 1039.78,-186.64 1043.59,-192.51"/>
</a>
</g>
</g>
<!-- Node13 -->
<g id="Node000013" class="node">
<title>Node13</title>
<g id="a_Node000013"><a xlink:title=" ">
<polygon fill="#e0e0e0" stroke="#999999" points="1392.15,-129 1345.15,-129 1345.15,-110 1392.15,-110 1392.15,-129"/>
<text text-anchor="middle" x="1368.65" y="-117" font-family="Helvetica,sans-Serif" font-size="10.00">vector</text>
</a>
</g>
</g>
<!-- Node6&#45;&gt;Node13 -->
<g id="edge56_Node000006_Node000013" class="edge">
<title>Node6&#45;&gt;Node13</title>
<g id="a_edge56_Node000006_Node000013"><a xlink:title=" ">
<path fill="none" stroke="#63b8ff" d="M1056.7,-384.87C1099.32,-363.93 1208.3,-307.11 1283.65,-239 1317.17,-208.71 1345.25,-163.08 1359.2,-138.21"/>
<polygon fill="#63b8ff" stroke="#63b8ff" points="1362.4,-139.65 1364.14,-129.2 1356.26,-136.29 1362.4,-139.65"/>
</a>
</g>
</g>
<!-- Node14 -->
<g id="Node000014" class="node">
<title>Node14</title>
<g id="a_Node000014"><a xlink:href="Object_8hpp.html" target="_top" xlink:title="Defines the Object class, a special ECS entity wrapper.">
<polygon fill="white" stroke="#666666" points="717.15,-294 610.15,-294 610.15,-275 717.15,-275 717.15,-294"/>
<text text-anchor="middle" x="663.65" y="-282" font-family="Helvetica,sans-Serif" font-size="10.00">objects/Object.hpp</text>
</a>
</g>
</g>
<!-- Node6&#45;&gt;Node14 -->
<g id="edge14_Node000006_Node000014" class="edge">
<title>Node6&#45;&gt;Node14</title>
<g id="a_edge14_Node000006_Node000014"><a xlink:title=" ">
<path fill="none" stroke="#63b8ff" d="M972.83,-393.5C882.46,-392.16 726.29,-384.56 683.65,-349 670.63,-338.13 665.96,-318.86 664.36,-304.38"/>
<polygon fill="#63b8ff" stroke="#63b8ff" points="667.82,-303.78 663.62,-294.06 660.84,-304.28 667.82,-303.78"/>
</a>
</g>
</g>
<!-- Node30 -->
<g id="Node000030" class="node">
<title>Node30</title>
<g id="a_Node000030"><a xlink:href="PointLight_8hpp_source.html" target="_top" xlink:title=" ">
<polygon fill="white" stroke="#666666" points="817.15,-349 692.15,-349 692.15,-330 817.15,-330 817.15,-349"/>
<text text-anchor="middle" x="754.65" y="-337" font-family="Helvetica,sans-Serif" font-size="10.00">objects/PointLight.hpp</text>
</a>
</g>
</g>
<!-- Node6&#45;&gt;Node30 -->
<g id="edge44_Node000006_Node000030" class="edge">
<title>Node6&#45;&gt;Node30</title>
<g id="a_edge44_Node000006_Node000030"><a xlink:title=" ">
<path fill="none" stroke="#63b8ff" d="M993.02,-384.98C943.38,-375.72 863.99,-360.9 810.62,-350.94"/>
<polygon fill="#63b8ff" stroke="#63b8ff" points="811.11,-347.48 800.64,-349.08 809.83,-354.36 811.11,-347.48"/>
</a>
</g>
</g>
<!-- Node31 -->
<g id="Node000031" class="node">
<title>Node31</title>
<g id="a_Node000031"><a xlink:href="Camera_8hpp.html" target="_top" xlink:title="Defines the Camera class for view and projection.">
<polygon fill="white" stroke="#666666" points="424.15,-349 299.15,-349 299.15,-330 424.15,-330 424.15,-349"/>
<text text-anchor="middle" x="361.65" y="-337" font-family="Helvetica,sans-Serif" font-size="10.00">rendering/Camera.hpp</text>
</a>
</g>
</g>
<!-- Node6&#45;&gt;Node31 -->
<g id="edge47_Node000006_Node000031" class="edge">
<title>Node6&#45;&gt;Node31</title>
<g id="a_edge47_Node000006_Node000031"><a xlink:title=" ">
<path fill="none" stroke="#63b8ff" d="M973.13,-388.37C846.02,-378.42 566.89,-356.57 434.32,-346.19"/>
<polygon fill="#63b8ff" stroke="#63b8ff" points="434.5,-342.69 424.26,-345.4 433.96,-349.67 434.5,-342.69"/>
</a>
</g>
</g>
<!-- Node32 -->
<g id="Node000032" class="node">
<title>Node32</title>
<g id="a_Node000032"><a xlink:href="Shader_8hpp.html" target="_top" xlink:title="Manages OpenGL shaders.">
<polygon fill="white" stroke="#666666" points="1142.65,-239 1022.65,-239 1022.65,-220 1142.65,-220 1142.65,-239"/>
<text text-anchor="middle" x="1082.65" y="-227" font-family="Helvetica,sans-Serif" font-size="10.00">rendering/Shader.hpp</text>
</a>
</g>
</g>
<!-- Node6&#45;&gt;Node32 -->
<g id="edge51_Node000006_Node000032" class="edge">
<title>Node6&#45;&gt;Node32</title>
<g id="a_edge51_Node000006_Node000032"><a xlink:title=" ">
<path fill="none" stroke="#63b8ff" d="M1041.02,-384.74C1047.91,-359.2 1068.1,-284.43 1077.6,-249.23"/>
<polygon fill="#63b8ff" stroke="#63b8ff" points="1081.05,-249.87 1080.28,-239.31 1074.29,-248.05 1081.05,-249.87"/>
</a>
</g>
</g>
<!-- Node8 -->
<g id="Node000008" class="node">
<title>Node8</title>
<g id="a_Node000008"><a xlink:title=" ">
<polygon fill="#e0e0e0" stroke="#999999" points="1150.65,-129 1086.65,-129 1086.65,-110 1150.65,-110 1150.65,-129"/>
<text text-anchor="middle" x="1118.65" y="-117" font-family="Helvetica,sans-Serif" font-size="10.00">algorithm</text>
</a>
</g>
</g>
<!-- Node7&#45;&gt;Node8 -->
<g id="edge7_Node000007_Node000008" class="edge">
<title>Node7&#45;&gt;Node8</title>
<g id="a_edge7_Node000007_Node000008"><a xlink:title=" ">
<path fill="none" stroke="#63b8ff" d="M1075.24,-164.75C1082.81,-157.03 1094.03,-145.6 1103.17,-136.28"/>
<polygon fill="#63b8ff" stroke="#63b8ff" points="1105.72,-138.68 1110.23,-129.09 1100.73,-133.78 1105.72,-138.68"/>
</a>
</g>
</g>
<!-- Node9 -->
<g id="Node000009" class="node">
<title>Node9</title>
<g id="a_Node000009"><a xlink:title=" ">
<polygon fill="#e0e0e0" stroke="#999999" points="1212.65,-129 1168.65,-129 1168.65,-110 1212.65,-110 1212.65,-129"/>
<text text-anchor="middle" x="1190.65" y="-117" font-family="Helvetica,sans-Serif" font-size="10.00">bitset</text>
</a>
</g>
</g>
<!-- Node7&#45;&gt;Node9 -->
<g id="edge8_Node000007_Node000009" class="edge">
<title>Node7&#45;&gt;Node9</title>
<g id="a_edge8_Node000007_Node000009"><a xlink:title=" ">
<path fill="none" stroke="#63b8ff" d="M1086.58,-164.98C1106.7,-156.38 1138.03,-142.99 1161.06,-133.15"/>
<polygon fill="#63b8ff" stroke="#63b8ff" points="1162.55,-136.32 1170.37,-129.17 1159.8,-129.88 1162.55,-136.32"/>
</a>
</g>
</g>
<!-- Node10 -->
<g id="Node000010" class="node">
<title>Node10</title>
<g id="a_Node000010"><a xlink:title=" ">
<polygon fill="#e0e0e0" stroke="#999999" points="1288.65,-129 1230.65,-129 1230.65,-110 1288.65,-110 1288.65,-129"/>
<text text-anchor="middle" x="1259.65" y="-117" font-family="Helvetica,sans-Serif" font-size="10.00">memory</text>
</a>
</g>
</g>
<!-- Node7&#45;&gt;Node10 -->
<g id="edge9_Node000007_Node000010" class="edge">
<title>Node7&#45;&gt;Node10</title>
<g id="a_edge9_Node000007_Node000010"><a xlink:title=" ">
<path fill="none" stroke="#63b8ff" d="M1097.66,-164.98C1131.17,-155.78 1184.62,-141.11 1220.88,-131.15"/>
<polygon fill="#63b8ff" stroke="#63b8ff" points="1221.9,-134.5 1230.62,-128.47 1220.05,-127.75 1221.9,-134.5"/>
</a>
</g>
</g>
<!-- Node11 -->
<g id="Node000011" class="node">
<title>Node11</title>
<g id="a_Node000011"><a xlink:title=" ">
<polygon fill="#e0e0e0" stroke="#999999" points="957.15,-129 892.15,-129 892.15,-110 957.15,-110 957.15,-129"/>
<text text-anchor="middle" x="924.65" y="-117" font-family="Helvetica,sans-Serif" font-size="10.00">stdexcept</text>
</a>
</g>
</g>
<!-- Node7&#45;&gt;Node11 -->
<g id="edge10_Node000007_Node000011" class="edge">
<title>Node7&#45;&gt;Node11</title>
<g id="a_edge10_Node000007_Node000011"><a xlink:title=" ">
<path fill="none" stroke="#63b8ff" d="M1043.84,-164.98C1020.48,-156.27 983.95,-142.63 957.49,-132.75"/>
<polygon fill="#63b8ff" stroke="#63b8ff" points="958.48,-129.39 947.88,-129.17 956.03,-135.95 958.48,-129.39"/>
</a>
</g>
</g>
<!-- Node12 -->
<g id="Node000012" class="node">
<title>Node12</title>
<g id="a_Node000012"><a xlink:title=" ">
<polygon fill="#e0e0e0" stroke="#999999" points="1068.15,-129 975.15,-129 975.15,-110 1068.15,-110 1068.15,-129"/>
<text text-anchor="middle" x="1021.65" y="-117" font-family="Helvetica,sans-Serif" font-size="10.00">unordered_map</text>
</a>
</g>
</g>
<!-- Node7&#45;&gt;Node12 -->
<g id="edge11_Node000007_Node000012" class="edge">
<title>Node7&#45;&gt;Node12</title>
<g id="a_edge11_Node000007_Node000012"><a xlink:title=" ">
<path fill="none" stroke="#63b8ff" d="M1059.22,-164.75C1052.8,-157.18 1043.35,-146.05 1035.53,-136.84"/>
<polygon fill="#63b8ff" stroke="#63b8ff" points="1038.09,-134.45 1028.95,-129.09 1032.75,-138.98 1038.09,-134.45"/>
</a>
</g>
</g>
<!-- Node7&#45;&gt;Node13 -->
<g id="edge12_Node000007_Node000013" class="edge">
<title>Node7&#45;&gt;Node13</title>
<g id="a_edge12_Node000007_Node000013"><a xlink:title=" ">
<path fill="none" stroke="#63b8ff" d="M1105.21,-166.73C1164.81,-156.27 1278.35,-136.35 1334.9,-126.42"/>
<polygon fill="#63b8ff" stroke="#63b8ff" points="1335.85,-129.81 1345.09,-124.63 1334.64,-122.92 1335.85,-129.81"/>
</a>
</g>
</g>
<!-- Node15 -->
<g id="Node000015" class="node">
<title>Node15</title>
<g id="a_Node000015"><a xlink:href="Entity_8hpp.html" target="_top" xlink:title="Defines the Entity class, which serves as a wrapper for ECS entities.">
<polygon fill="white" stroke="#666666" points="696.15,-239 631.15,-239 631.15,-220 696.15,-220 696.15,-239"/>
<text text-anchor="middle" x="663.65" y="-227" font-family="Helvetica,sans-Serif" font-size="10.00">Entity.hpp</text>
</a>
</g>
</g>
<!-- Node14&#45;&gt;Node15 -->
<g id="edge15_Node000014_Node000015" class="edge">
<title>Node14&#45;&gt;Node15</title>
<g id="a_edge15_Node000014_Node000015"><a xlink:title=" ">
<path fill="none" stroke="#63b8ff" d="M663.65,-274.75C663.65,-267.8 663.65,-257.85 663.65,-249.13"/>
<polygon fill="#63b8ff" stroke="#63b8ff" points="667.15,-249.09 663.65,-239.09 660.15,-249.09 667.15,-249.09"/>
</a>
</g>
</g>
<!-- Node24 -->
<g id="Node000024" class="node">
<title>Node24</title>
<g id="a_Node000024"><a xlink:href="TransformComponent_8hpp.html" target="_top" xlink:title="Defines the TransformComponent for ECS&#45;based spatial transformations.">
<polygon fill="white" stroke="#666666" points="360.65,-239 154.65,-239 154.65,-220 360.65,-220 360.65,-239"/>
<text text-anchor="middle" x="257.65" y="-227" font-family="Helvetica,sans-Serif" font-size="10.00">components/TransformComponent.hpp</text>
</a>
</g>
</g>
<!-- Node14&#45;&gt;Node24 -->
<g id="edge26_Node000014_Node000024" class="edge">
<title>Node14&#45;&gt;Node24</title>
<g id="a_edge26_Node000014_Node000024"><a xlink:title=" ">
<path fill="none" stroke="#63b8ff" d="M609.74,-276.46C538.69,-267.19 413.32,-250.82 332.94,-240.33"/>
<polygon fill="#63b8ff" stroke="#63b8ff" points="333.25,-236.84 322.88,-239.01 332.34,-243.78 333.25,-236.84"/>
</a>
</g>
</g>
<!-- Node29 -->
<g id="Node000029" class="node">
<title>Node29</title>
<g id="a_Node000029"><a xlink:href="Mesh_8hpp.html" target="_top" xlink:title="Defines the Mesh class for managing 3D geometry.">
<polygon fill="white" stroke="#666666" points="1274.15,-239 1161.15,-239 1161.15,-220 1274.15,-220 1274.15,-239"/>
<text text-anchor="middle" x="1217.65" y="-227" font-family="Helvetica,sans-Serif" font-size="10.00">rendering/Mesh.hpp</text>
</a>
</g>
</g>
<!-- Node14&#45;&gt;Node29 -->
<g id="edge39_Node000014_Node000029" class="edge">
<title>Node14&#45;&gt;Node29</title>
<g id="a_edge39_Node000014_Node000029"><a xlink:title=" ">
<path fill="none" stroke="#63b8ff" d="M717.16,-279.28C805.18,-272.18 986.32,-256.98 1150.83,-239.05"/>
<polygon fill="#63b8ff" stroke="#63b8ff" points="1151.59,-242.49 1161.14,-237.92 1150.82,-235.53 1151.59,-242.49"/>
</a>
</g>
</g>
<!-- Node15&#45;&gt;Node7 -->
<g id="edge25_Node000015_Node000007" class="edge">
<title>Node15&#45;&gt;Node7</title>
<g id="a_edge25_Node000015_Node000007"><a xlink:title=" ">
<path fill="none" stroke="#63b8ff" d="M696.29,-224.21C766.99,-214.91 934.58,-192.87 1017.9,-181.91"/>
<polygon fill="#63b8ff" stroke="#63b8ff" points="1018.41,-185.38 1027.87,-180.6 1017.5,-178.43 1018.41,-185.38"/>
</a>
</g>
</g>
<!-- Node16 -->
<g id="Node000016" class="node">
<title>Node16</title>
<g id="a_Node000016"><a xlink:href="Logger_8hpp.html" target="_top" xlink:title="Provides logging functionality.">
<polygon fill="white" stroke="#666666" points="622.65,-184 552.65,-184 552.65,-165 622.65,-165 622.65,-184"/>
<text text-anchor="middle" x="587.65" y="-172" font-family="Helvetica,sans-Serif" font-size="10.00">Logger.hpp</text>
</a>
</g>
</g>
<!-- Node15&#45;&gt;Node16 -->
<g id="edge16_Node000015_Node000016" class="edge">
<title>Node15&#45;&gt;Node16</title>
<g id="a_edge16_Node000015_Node000016"><a xlink:title=" ">
<path fill="none" stroke="#63b8ff" d="M651.44,-219.98C639.88,-211.92 622.28,-199.65 608.49,-190.03"/>
<polygon fill="#63b8ff" stroke="#63b8ff" points="610.29,-187.02 600.09,-184.17 606.29,-192.76 610.29,-187.02"/>
</a>
</g>
</g>
<!-- Node16&#45;&gt;Node5 -->
<g id="edge24_Node000016_Node000005" class="edge">
<title>Node16&#45;&gt;Node5</title>
<g id="a_edge24_Node000016_Node000005"><a xlink:title=" ">
<path fill="none" stroke="#63b8ff" d="M622.82,-165.64C747.19,-137.83 1165.26,-44.35 1284.6,-17.67"/>
<polygon fill="#63b8ff" stroke="#63b8ff" points="1285.58,-21.04 1294.57,-15.44 1284.05,-14.2 1285.58,-21.04"/>
</a>
</g>
</g>
<!-- Node17 -->
<g id="Node000017" class="node">
<title>Node17</title>
<g id="a_Node000017"><a xlink:title=" ">
<polygon fill="#e0e0e0" stroke="#999999" points="376.65,-129 326.65,-129 326.65,-110 376.65,-110 376.65,-129"/>
<text text-anchor="middle" x="351.65" y="-117" font-family="Helvetica,sans-Serif" font-size="10.00">chrono</text>
</a>
</g>
</g>
<!-- Node16&#45;&gt;Node17 -->
<g id="edge17_Node000016_Node000017" class="edge">
<title>Node16&#45;&gt;Node17</title>
<g id="a_edge17_Node000016_Node000017"><a xlink:title=" ">
<path fill="none" stroke="#63b8ff" d="M552.55,-166.08C514.18,-157.9 450.62,-144.15 386.73,-129.2"/>
<polygon fill="#63b8ff" stroke="#63b8ff" points="387.42,-125.77 376.89,-126.89 385.82,-132.59 387.42,-125.77"/>
</a>
</g>
</g>
<!-- Node18 -->
<g id="Node000018" class="node">
<title>Node18</title>
<g id="a_Node000018"><a xlink:title=" ">
<polygon fill="#e0e0e0" stroke="#999999" points="466.15,-129 395.15,-129 395.15,-110 466.15,-110 466.15,-129"/>
<text text-anchor="middle" x="430.65" y="-117" font-family="Helvetica,sans-Serif" font-size="10.00">fmt/printf.h</text>
</a>
</g>
</g>
<!-- Node16&#45;&gt;Node18 -->
<g id="edge18_Node000016_Node000018" class="edge">
<title>Node16&#45;&gt;Node18</title>
<g id="a_edge18_Node000016_Node000018"><a xlink:title=" ">
<path fill="none" stroke="#63b8ff" d="M562.43,-164.98C536.3,-156.16 495.26,-142.31 465.92,-132.41"/>
<polygon fill="#63b8ff" stroke="#63b8ff" points="466.67,-128.96 456.08,-129.08 464.43,-135.6 466.67,-128.96"/>
</a>
</g>
</g>
<!-- Node19 -->
<g id="Node000019" class="node">
<title>Node19</title>
<g id="a_Node000019"><a xlink:title=" ">
<polygon fill="#e0e0e0" stroke="#999999" points="539.15,-129 484.15,-129 484.15,-110 539.15,-110 539.15,-129"/>
<text text-anchor="middle" x="511.65" y="-117" font-family="Helvetica,sans-Serif" font-size="10.00">fstream</text>
</a>
</g>
</g>
<!-- Node16&#45;&gt;Node19 -->
<g id="edge19_Node000016_Node000019" class="edge">
<title>Node16&#45;&gt;Node19</title>
<g id="a_edge19_Node000016_Node000019"><a xlink:title=" ">
<path fill="none" stroke="#63b8ff" d="M575.44,-164.98C563.88,-156.92 546.28,-144.65 532.49,-135.03"/>
<polygon fill="#63b8ff" stroke="#63b8ff" points="534.29,-132.02 524.09,-129.17 530.29,-137.76 534.29,-132.02"/>
</a>
</g>
</g>
<!-- Node20 -->
<g id="Node000020" class="node">
<title>Node20</title>
<g id="a_Node000020"><a xlink:title=" ">
<polygon fill="#e0e0e0" stroke="#999999" points="308.65,-129 252.65,-129 252.65,-110 308.65,-110 308.65,-129"/>
<text text-anchor="middle" x="280.65" y="-117" font-family="Helvetica,sans-Serif" font-size="10.00">iomanip</text>
</a>
</g>
</g>
<!-- Node16&#45;&gt;Node20 -->
<g id="edge20_Node000016_Node000020" class="edge">
<title>Node16&#45;&gt;Node20</title>
<g id="a_edge20_Node000016_Node000020"><a xlink:title=" ">
<path fill="none" stroke="#63b8ff" d="M552.58,-168.43C502.82,-161.09 408.67,-146.63 318.96,-129.16"/>
<polygon fill="#63b8ff" stroke="#63b8ff" points="319.38,-125.67 308.9,-127.18 318.03,-132.54 319.38,-125.67"/>
</a>
</g>
</g>
<!-- Node21 -->
<g id="Node000021" class="node">
<title>Node21</title>
<g id="a_Node000021"><a xlink:title=" ">
<polygon fill="#e0e0e0" stroke="#999999" points="617.65,-129 557.65,-129 557.65,-110 617.65,-110 617.65,-129"/>
<text text-anchor="middle" x="587.65" y="-117" font-family="Helvetica,sans-Serif" font-size="10.00">iostream</text>
</a>
</g>
</g>
<!-- Node16&#45;&gt;Node21 -->
<g id="edge21_Node000016_Node000021" class="edge">
<title>Node16&#45;&gt;Node21</title>
<g id="a_edge21_Node000016_Node000021"><a xlink:title=" ">
<path fill="none" stroke="#63b8ff" d="M587.65,-164.75C587.65,-157.8 587.65,-147.85 587.65,-139.13"/>
<polygon fill="#63b8ff" stroke="#63b8ff" points="591.15,-139.09 587.65,-129.09 584.15,-139.09 591.15,-139.09"/>
</a>
</g>
</g>
<!-- Node22 -->
<g id="Node000022" class="node">
<title>Node22</title>
<g id="a_Node000022"><a xlink:title=" ">
<polygon fill="#e0e0e0" stroke="#999999" points="683.65,-129 635.65,-129 635.65,-110 683.65,-110 683.65,-129"/>
<text text-anchor="middle" x="659.65" y="-117" font-family="Helvetica,sans-Serif" font-size="10.00">mutex</text>
</a>
</g>
</g>
<!-- Node16&#45;&gt;Node22 -->
<g id="edge22_Node000016_Node000022" class="edge">
<title>Node16&#45;&gt;Node22</title>
<g id="a_edge22_Node000016_Node000022"><a xlink:title=" ">
<path fill="none" stroke="#63b8ff" d="M599.22,-164.98C610.07,-157 626.53,-144.88 639.54,-135.31"/>
<polygon fill="#63b8ff" stroke="#63b8ff" points="641.9,-137.92 647.88,-129.17 637.75,-132.28 641.9,-137.92"/>
</a>
</g>
</g>
<!-- Node23 -->
<g id="Node000023" class="node">
<title>Node23</title>
<g id="a_Node000023"><a xlink:title=" ">
<polygon fill="#e0e0e0" stroke="#999999" points="252.65,-19 196.65,-19 196.65,0 252.65,0 252.65,-19"/>
<text text-anchor="middle" x="224.65" y="-7" font-family="Helvetica,sans-Serif" font-size="10.00">sstream</text>
</a>
</g>
</g>
<!-- Node16&#45;&gt;Node23 -->
<g id="edge23_Node000016_Node000023" class="edge">
<title>Node16&#45;&gt;Node23</title>
<g id="a_edge23_Node000016_Node000023"><a xlink:title=" ">
<path fill="none" stroke="#63b8ff" d="M622.96,-166.35C661.66,-156.91 715.44,-138.15 692.65,-110 638.44,-43.05 364.87,-19.27 262.98,-12.66"/>
<polygon fill="#63b8ff" stroke="#63b8ff" points="263.02,-9.15 252.82,-12.02 262.58,-16.14 263.02,-9.15"/>
</a>
</g>
</g>
<!-- Node25 -->
<g id="Node000025" class="node">
<title>Node25</title>
<g id="a_Node000025"><a xlink:href="Matrix4_8hpp.html" target="_top" xlink:title="Defines the Matrix4 class for 3D transformation operations.">
<polygon fill="white" stroke="#666666" points="203.65,-184 99.65,-184 99.65,-165 203.65,-165 203.65,-184"/>
<text text-anchor="middle" x="151.65" y="-172" font-family="Helvetica,sans-Serif" font-size="10.00">math/Matrix4.hpp</text>
</a>
</g>
</g>
<!-- Node24&#45;&gt;Node25 -->
<g id="edge27_Node000024_Node000025" class="edge">
<title>Node24&#45;&gt;Node25</title>
<g id="a_edge27_Node000024_Node000025"><a xlink:title=" ">
<path fill="none" stroke="#63b8ff" d="M240.62,-219.98C223.72,-211.54 197.59,-198.47 178.01,-188.68"/>
<polygon fill="#63b8ff" stroke="#63b8ff" points="179.5,-185.51 168.99,-184.17 176.37,-191.77 179.5,-185.51"/>
</a>
</g>
</g>
<!-- Node26 -->
<g id="Node000026" class="node">
<title>Node26</title>
<g id="a_Node000026"><a xlink:href="Quaternion_8hpp.html" target="_top" xlink:title="Defines the Quaternion class for representing 3D rotations.">
<polygon fill="white" stroke="#666666" points="120.65,-129 28.65,-129 28.65,-110 120.65,-110 120.65,-129"/>
<text text-anchor="middle" x="74.65" y="-117" font-family="Helvetica,sans-Serif" font-size="10.00">Quaternion.hpp</text>
</a>
</g>
</g>
<!-- Node24&#45;&gt;Node26 -->
<g id="edge37_Node000024_Node000026" class="edge">
<title>Node24&#45;&gt;Node26</title>
<g id="a_edge37_Node000024_Node000026"><a xlink:title=" ">
<path fill="none" stroke="#63b8ff" d="M158.51,-219.99C133.57,-213.42 108.78,-202.37 90.65,-184 79.06,-172.25 75.47,-153.4 74.54,-139.29"/>
<polygon fill="#63b8ff" stroke="#63b8ff" points="78.03,-139.11 74.25,-129.21 71.04,-139.3 78.03,-139.11"/>
</a>
</g>
</g>
<!-- Node27 -->
<g id="Node000027" class="node">
<title>Node27</title>
<g id="a_Node000027"><a xlink:href="Vector3_8hpp.html" target="_top" xlink:title="Defines the Vector3 class.">
<polygon fill="white" stroke="#666666" points="261.65,-74 187.65,-74 187.65,-55 261.65,-55 261.65,-74"/>
<text text-anchor="middle" x="224.65" y="-62" font-family="Helvetica,sans-Serif" font-size="10.00">Vector3.hpp</text>
</a>
</g>
</g>
<!-- Node24&#45;&gt;Node27 -->
<g id="edge38_Node000024_Node000027" class="edge">
<title>Node24&#45;&gt;Node27</title>
<g id="a_edge38_Node000024_Node000027"><a xlink:title=" ">
<path fill="none" stroke="#63b8ff" d="M255.88,-219.74C250.71,-194.2 235.57,-119.43 228.45,-84.23"/>
<polygon fill="#63b8ff" stroke="#63b8ff" points="231.85,-83.41 226.44,-74.31 224.99,-84.8 231.85,-83.41"/>
</a>
</g>
</g>
<!-- Node25&#45;&gt;Node20 -->
<g id="edge35_Node000025_Node000020" class="edge">
<title>Node25&#45;&gt;Node20</title>
<g id="a_edge35_Node000025_Node000020"><a xlink:title=" ">
<path fill="none" stroke="#63b8ff" d="M172.38,-164.98C193.41,-156.34 226.2,-142.87 250.19,-133.02"/>
<polygon fill="#63b8ff" stroke="#63b8ff" points="251.63,-136.21 259.55,-129.17 248.97,-129.73 251.63,-136.21"/>
</a>
</g>
</g>
<!-- Node25&#45;&gt;Node23 -->
<g id="edge36_Node000025_Node000023" class="edge">
<title>Node25&#45;&gt;Node23</title>
<g id="a_edge36_Node000025_Node000023"><a xlink:title=" ">
<path fill="none" stroke="#63b8ff" d="M151.96,-164.86C153.02,-144.45 157.74,-92.14 178.65,-55 185,-43.73 195.08,-33.51 204.19,-25.72"/>
<polygon fill="#63b8ff" stroke="#63b8ff" points="206.58,-28.29 212.15,-19.28 202.18,-22.85 206.58,-28.29"/>
</a>
</g>
</g>
<!-- Node25&#45;&gt;Node26 -->
<g id="edge28_Node000025_Node000026" class="edge">
<title>Node25&#45;&gt;Node26</title>
<g id="a_edge28_Node000025_Node000026"><a xlink:title=" ">
<path fill="none" stroke="#63b8ff" d="M139.28,-164.98C127.57,-156.92 109.73,-144.65 95.77,-135.03"/>
<polygon fill="#63b8ff" stroke="#63b8ff" points="97.47,-131.96 87.25,-129.17 93.5,-137.72 97.47,-131.96"/>
</a>
</g>
</g>
<!-- Node25&#45;&gt;Node27 -->
<g id="edge34_Node000025_Node000027" class="edge">
<title>Node25&#45;&gt;Node27</title>
<g id="a_edge34_Node000025_Node000027"><a xlink:title=" ">
<path fill="none" stroke="#63b8ff" d="M157.63,-164.66C169.72,-146.77 197.28,-106 213.03,-82.69"/>
<polygon fill="#63b8ff" stroke="#63b8ff" points="216.1,-84.4 218.8,-74.16 210.3,-80.48 216.1,-84.4"/>
</a>
</g>
</g>
<!-- Node26&#45;&gt;Node27 -->
<g id="edge29_Node000026_Node000027" class="edge">
<title>Node26&#45;&gt;Node27</title>
<g id="a_edge29_Node000026_Node000027"><a xlink:title=" ">
<path fill="none" stroke="#63b8ff" d="M98.75,-109.98C123.54,-101.23 162.36,-87.51 190.34,-77.62"/>
<polygon fill="#63b8ff" stroke="#63b8ff" points="191.85,-80.8 200.12,-74.17 189.52,-74.2 191.85,-80.8"/>
</a>
</g>
</g>
<!-- Node28 -->
<g id="Node000028" class="node">
<title>Node28</title>
<g id="a_Node000028"><a xlink:title=" ">
<polygon fill="#e0e0e0" stroke="#999999" points="156.15,-19 109.15,-19 109.15,0 156.15,0 156.15,-19"/>
<text text-anchor="middle" x="132.65" y="-7" font-family="Helvetica,sans-Serif" font-size="10.00">cmath</text>
</a>
</g>
</g>
<!-- Node26&#45;&gt;Node28 -->
<g id="edge33_Node000026_Node000028" class="edge">
<title>Node26&#45;&gt;Node28</title>
<g id="a_edge33_Node000026_Node000028"><a xlink:title=" ">
<path fill="none" stroke="#63b8ff" d="M79.4,-109.66C88.96,-91.85 110.71,-51.37 123.25,-28.01"/>
<polygon fill="#63b8ff" stroke="#63b8ff" points="126.36,-29.62 128,-19.16 120.19,-26.31 126.36,-29.62"/>
</a>
</g>
</g>
<!-- Node27&#45;&gt;Node5 -->
<g id="edge32_Node000027_Node000005" class="edge">
<title>Node27&#45;&gt;Node5</title>
<g id="a_edge32_Node000027_Node000005"><a xlink:title=" ">
<path fill="none" stroke="#63b8ff" d="M261.93,-61.69C431.11,-53.48 1125.38,-19.78 1284.19,-12.08"/>
<polygon fill="#63b8ff" stroke="#63b8ff" points="1284.46,-15.57 1294.28,-11.59 1284.12,-8.58 1284.46,-15.57"/>
</a>
</g>
</g>
<!-- Node27&#45;&gt;Node23 -->
<g id="edge31_Node000027_Node000023" class="edge">
<title>Node27&#45;&gt;Node23</title>
<g id="a_edge31_Node000027_Node000023"><a xlink:title=" ">
<path fill="none" stroke="#63b8ff" d="M224.65,-54.75C224.65,-47.8 224.65,-37.85 224.65,-29.13"/>
<polygon fill="#63b8ff" stroke="#63b8ff" points="228.15,-29.09 224.65,-19.09 221.15,-29.09 228.15,-29.09"/>
</a>
</g>
</g>
<!-- Node27&#45;&gt;Node28 -->
<g id="edge30_Node000027_Node000028" class="edge">
<title>Node27&#45;&gt;Node28</title>
<g id="a_edge30_Node000027_Node000028"><a xlink:title=" ">
<path fill="none" stroke="#63b8ff" d="M209.87,-54.98C195.47,-46.69 173.34,-33.94 156.46,-24.22"/>
<polygon fill="#63b8ff" stroke="#63b8ff" points="158.12,-21.13 147.7,-19.17 154.62,-27.19 158.12,-21.13"/>
</a>
</g>
</g>
<!-- Node29&#45;&gt;Node3 -->
<g id="edge41_Node000029_Node000003" class="edge">
<title>Node29&#45;&gt;Node3</title>
<g id="a_edge41_Node000029_Node000003"><a xlink:title=" ">
<path fill="none" stroke="#63b8ff" d="M1227.94,-219.98C1237.49,-212.07 1251.93,-200.11 1263.44,-190.58"/>
<polygon fill="#63b8ff" stroke="#63b8ff" points="1265.71,-193.24 1271.18,-184.17 1261.25,-187.85 1265.71,-193.24"/>
</a>
</g>
</g>
<!-- Node29&#45;&gt;Node5 -->
<g id="edge42_Node000029_Node000005" class="edge">
<title>Node29&#45;&gt;Node5</title>
<g id="a_edge42_Node000029_Node000005"><a xlink:title=" ">
<path fill="none" stroke="#63b8ff" d="M1260.61,-219.98C1305.96,-208.33 1374.57,-182.45 1401.65,-129 1422.28,-88.3 1371.74,-46.18 1340.02,-24.81"/>
<polygon fill="#63b8ff" stroke="#63b8ff" points="1341.55,-21.63 1331.26,-19.11 1337.73,-27.49 1341.55,-21.63"/>
</a>
</g>
</g>
<!-- Node29&#45;&gt;Node13 -->
<g id="edge43_Node000029_Node000013" class="edge">
<title>Node29&#45;&gt;Node13</title>
<g id="a_edge43_Node000029_Node000013"><a xlink:title=" ">
<path fill="none" stroke="#63b8ff" d="M1217.98,-219.86C1218.96,-206.36 1222.78,-180.21 1237.65,-165 1251.39,-150.95 1301.06,-136.69 1335.13,-128.22"/>
<polygon fill="#63b8ff" stroke="#63b8ff" points="1336.26,-131.55 1345.15,-125.78 1334.6,-124.75 1336.26,-131.55"/>
</a>
</g>
</g>
<!-- Node29&#45;&gt;Node27 -->
<g id="edge40_Node000029_Node000027" class="edge">
<title>Node29&#45;&gt;Node27</title>
<g id="a_edge40_Node000029_Node000027"><a xlink:title=" ">
<path fill="none" stroke="#63b8ff" d="M1174.11,-219.92C1133.8,-211.7 1072.32,-198.43 1019.65,-184 916.9,-155.84 896.15,-130.76 791.65,-110 601.73,-72.28 370.06,-66.23 272.05,-65.47"/>
<polygon fill="#63b8ff" stroke="#63b8ff" points="271.9,-61.97 261.88,-65.41 271.86,-68.97 271.9,-61.97"/>
</a>
</g>
</g>
<!-- Node30&#45;&gt;Node14 -->
<g id="edge45_Node000030_Node000014" class="edge">
<title>Node30&#45;&gt;Node14</title>
<g id="a_edge45_Node000030_Node000014"><a xlink:title=" ">
<path fill="none" stroke="#63b8ff" d="M740.03,-329.98C725.79,-321.69 703.9,-308.94 687.2,-299.22"/>
<polygon fill="#63b8ff" stroke="#63b8ff" points="688.94,-296.18 678.54,-294.17 685.42,-302.23 688.94,-296.18"/>
</a>
</g>
</g>
<!-- Node30&#45;&gt;Node27 -->
<g id="edge46_Node000030_Node000027" class="edge">
<title>Node30&#45;&gt;Node27</title>
<g id="a_edge46_Node000030_Node000027"><a xlink:title=" ">
<path fill="none" stroke="#63b8ff" d="M753.98,-329.83C752.61,-311.5 749.65,-267.48 749.65,-230.5 749.65,-230.5 749.65,-230.5 749.65,-173.5 749.65,-135.58 726.52,-127.08 692.65,-110 619.91,-73.32 376,-66.79 272.13,-65.69"/>
<polygon fill="#63b8ff" stroke="#63b8ff" points="271.97,-62.19 261.94,-65.59 271.91,-69.19 271.97,-62.19"/>
</a>
</g>
</g>
<!-- Node31&#45;&gt;Node14 -->
<g id="edge50_Node000031_Node000014" class="edge">
<title>Node31&#45;&gt;Node14</title>
<g id="a_edge50_Node000031_Node000014"><a xlink:title=" ">
<path fill="none" stroke="#63b8ff" d="M410.18,-329.98C463.26,-320.67 548.34,-305.74 605.1,-295.78"/>
<polygon fill="#63b8ff" stroke="#63b8ff" points="605.76,-299.21 615,-294.04 604.55,-292.32 605.76,-299.21"/>
</a>
</g>
</g>
<!-- Node31&#45;&gt;Node25 -->
<g id="edge48_Node000031_Node000025" class="edge">
<title>Node31&#45;&gt;Node25</title>
<g id="a_edge48_Node000031_Node000025"><a xlink:title=" ">
<path fill="none" stroke="#63b8ff" d="M305.9,-329.97C254.4,-318.8 180.72,-293.76 145.65,-239 137.08,-225.61 140.01,-207.26 144.24,-193.73"/>
<polygon fill="#63b8ff" stroke="#63b8ff" points="147.61,-194.69 147.72,-184.1 141.03,-192.31 147.61,-194.69"/>
</a>
</g>
</g>
<!-- Node31&#45;&gt;Node27 -->
<g id="edge49_Node000031_Node000027" class="edge">
<title>Node31&#45;&gt;Node27</title>
<g id="a_edge49_Node000031_Node000027"><a xlink:title=" ">
<path fill="none" stroke="#63b8ff" d="M298.77,-332.7C195.34,-321.41 0.65,-291.99 0.65,-230.5 0.65,-230.5 0.65,-230.5 0.65,-173.5 0.65,-144.04 -1.96,-130.01 19.65,-110 42.2,-89.12 124.1,-76.43 177.31,-70.21"/>
<polygon fill="#63b8ff" stroke="#63b8ff" points="178,-73.65 187.54,-69.05 177.21,-66.7 178,-73.65"/>
</a>
</g>
</g>
<!-- Node32&#45;&gt;Node3 -->
<g id="edge54_Node000032_Node000003" class="edge">
<title>Node32&#45;&gt;Node3</title>
<g id="a_edge54_Node000032_Node000003"><a xlink:title=" ">
<path fill="none" stroke="#63b8ff" d="M1114.63,-219.98C1148.47,-210.97 1202.05,-196.7 1239.37,-186.76"/>
<polygon fill="#63b8ff" stroke="#63b8ff" points="1240.67,-190.04 1249.43,-184.08 1238.87,-183.27 1240.67,-190.04"/>
</a>
</g>
</g>
<!-- Node32&#45;&gt;Node5 -->
<g id="edge55_Node000032_Node000005" class="edge">
<title>Node32&#45;&gt;Node5</title>
<g id="a_edge55_Node000032_Node000005"><a xlink:title=" ">
<path fill="none" stroke="#63b8ff" d="M1101.57,-219.89C1153.76,-196.1 1296.03,-131.14 1297.65,-129 1319.8,-99.76 1320.47,-54.7 1318.73,-29.4"/>
<polygon fill="#63b8ff" stroke="#63b8ff" points="1322.21,-28.95 1317.83,-19.3 1315.23,-29.57 1322.21,-28.95"/>
</a>
</g>
</g>
<!-- Node32&#45;&gt;Node25 -->
<g id="edge52_Node000032_Node000025" class="edge">
<title>Node32&#45;&gt;Node25</title>
<g id="a_edge52_Node000032_Node000025"><a xlink:title=" ">
<path fill="none" stroke="#63b8ff" d="M1022.64,-225.08C855.16,-215.55 383.81,-188.72 213.79,-179.04"/>
<polygon fill="#63b8ff" stroke="#63b8ff" points="213.93,-175.54 203.75,-178.47 213.53,-182.53 213.93,-175.54"/>
</a>
</g>
</g>
<!-- Node32&#45;&gt;Node27 -->
<g id="edge53_Node000032_Node000027" class="edge">
<title>Node32&#45;&gt;Node27</title>
<g id="a_edge53_Node000032_Node000027"><a xlink:title=" ">
<path fill="none" stroke="#63b8ff" d="M1022.55,-225.57C973.84,-221.22 904.55,-210.49 849.65,-184 804.24,-162.08 810.17,-129.47 763.65,-110 675.46,-73.08 386.51,-66.74 272,-65.69"/>
<polygon fill="#63b8ff" stroke="#63b8ff" points="271.83,-62.19 261.8,-65.61 271.77,-69.19 271.83,-62.19"/>
</a>
</g>
</g>
</g>
</svg>
