<?xml version="1.0" encoding="UTF-8" standalone="no"?>
<!DOCTYPE svg PUBLIC "-//W3C//DTD SVG 1.1//EN"
 "http://www.w3.org/Graphics/SVG/1.1/DTD/svg11.dtd">
<!-- Generated by graphviz version 2.43.0 (0)
 -->
<!-- Title: include/Engine.hpp Pages: 1 -->
<svg width="1483pt" height="467pt"
 viewBox="0.00 0.00 1483.04 467.00" xmlns="http://www.w3.org/2000/svg" xmlns:xlink="http://www.w3.org/1999/xlink">
<g id="graph0" class="graph" transform="scale(1 1) rotate(0) translate(4 463)">
<title>include/Engine.hpp</title>
<!-- Node1 -->
<g id="Node000001" class="node">
<title>Node1</title>
<g id="a_Node000001"><a xlink:title="Defines the core Engine class responsible for running simulation.">
<polygon fill="#999999" stroke="#666666" points="343.54,-459 234.54,-459 234.54,-440 343.54,-440 343.54,-459"/>
<text text-anchor="middle" x="289.04" y="-447" font-family="Helvetica,sans-Serif" font-size="10.00">include/Engine.hpp</text>
</a>
</g>
</g>
<!-- Node2 -->
<g id="Node000002" class="node">
<title>Node2</title>
<g id="a_Node000002"><a xlink:href="Window_8hpp.html" target="_top" xlink:title="Provides a window for OpenGL rendering using GLFW.">
<polygon fill="white" stroke="#666666" points="150.04,-349 74.04,-349 74.04,-330 150.04,-330 150.04,-349"/>
<text text-anchor="middle" x="112.04" y="-337" font-family="Helvetica,sans-Serif" font-size="10.00">Window.hpp</text>
</a>
</g>
</g>
<!-- Node1&#45;&gt;Node2 -->
<g id="edge1_Node000001_Node000002" class="edge">
<title>Node1&#45;&gt;Node2</title>
<g id="a_edge1_Node000001_Node000002"><a xlink:title=" ">
<path fill="none" stroke="#63b8ff" d="M274.85,-439.84C244.3,-421.2 172.04,-377.11 134.92,-354.46"/>
<polygon fill="#63b8ff" stroke="#63b8ff" points="136.65,-351.42 126.29,-349.2 133,-357.39 136.65,-351.42"/>
</a>
</g>
</g>
<!-- Node6 -->
<g id="Node000006" class="node">
<title>Node6</title>
<g id="a_Node000006"><a xlink:href="Renderer_8hpp.html" target="_top" xlink:title="Manages the rendering pipeline and object submission.">
<polygon fill="white" stroke="#666666" points="497.54,-404 366.54,-404 366.54,-385 497.54,-385 497.54,-404"/>
<text text-anchor="middle" x="432.04" y="-392" font-family="Helvetica,sans-Serif" font-size="10.00">rendering/Renderer.hpp</text>
</a>
</g>
</g>
<!-- Node1&#45;&gt;Node6 -->
<g id="edge5_Node000001_Node000006" class="edge">
<title>Node1&#45;&gt;Node6</title>
<g id="a_edge5_Node000001_Node000006"><a xlink:title=" ">
<path fill="none" stroke="#63b8ff" d="M312.01,-439.98C335.54,-431.27 372.32,-417.63 398.97,-407.75"/>
<polygon fill="#63b8ff" stroke="#63b8ff" points="400.48,-410.93 408.64,-404.17 398.05,-404.36 400.48,-410.93"/>
</a>
</g>
</g>
<!-- Node3 -->
<g id="Node000003" class="node">
<title>Node3</title>
<g id="a_Node000003"><a xlink:title=" ">
<polygon fill="#e0e0e0" stroke="#999999" points="247.54,-184 176.54,-184 176.54,-165 247.54,-165 247.54,-184"/>
<text text-anchor="middle" x="212.04" y="-172" font-family="Helvetica,sans-Serif" font-size="10.00">glad/glad.h</text>
</a>
</g>
</g>
<!-- Node2&#45;&gt;Node3 -->
<g id="edge2_Node000002_Node000003" class="edge">
<title>Node2&#45;&gt;Node3</title>
<g id="a_edge2_Node000002_Node000003"><a xlink:title=" ">
<path fill="none" stroke="#63b8ff" d="M117.41,-329.74C133.28,-303.87 180.15,-227.48 201.37,-192.88"/>
<polygon fill="#63b8ff" stroke="#63b8ff" points="204.39,-194.66 206.63,-184.31 198.42,-191 204.39,-194.66"/>
</a>
</g>
</g>
<!-- Node4 -->
<g id="Node000004" class="node">
<title>Node4</title>
<g id="a_Node000004"><a xlink:title=" ">
<polygon fill="#e0e0e0" stroke="#999999" points="111.54,-294 28.54,-294 28.54,-275 111.54,-275 111.54,-294"/>
<text text-anchor="middle" x="70.04" y="-282" font-family="Helvetica,sans-Serif" font-size="10.00">GLFW/glfw3.h</text>
</a>
</g>
</g>
<!-- Node2&#45;&gt;Node4 -->
<g id="edge3_Node000002_Node000004" class="edge">
<title>Node2&#45;&gt;Node4</title>
<g id="a_edge3_Node000002_Node000004"><a xlink:title=" ">
<path fill="none" stroke="#63b8ff" d="M105.1,-329.75C99.17,-322.26 90.47,-311.28 83.21,-302.13"/>
<polygon fill="#63b8ff" stroke="#63b8ff" points="85.8,-299.75 76.84,-294.09 80.31,-304.1 85.8,-299.75"/>
</a>
</g>
</g>
<!-- Node5 -->
<g id="Node000005" class="node">
<title>Node5</title>
<g id="a_Node000005"><a xlink:title=" ">
<polygon fill="#e0e0e0" stroke="#999999" points="180.04,-19 136.04,-19 136.04,0 180.04,0 180.04,-19"/>
<text text-anchor="middle" x="158.04" y="-7" font-family="Helvetica,sans-Serif" font-size="10.00">string</text>
</a>
</g>
</g>
<!-- Node2&#45;&gt;Node5 -->
<g id="edge4_Node000002_Node000005" class="edge">
<title>Node2&#45;&gt;Node5</title>
<g id="a_edge4_Node000002_Node000005"><a xlink:title=" ">
<path fill="none" stroke="#63b8ff" d="M78.53,-329.93C58.64,-323.22 34.4,-311.95 19.04,-294 -0.11,-271.61 0.04,-259.96 0.04,-230.5 0.04,-230.5 0.04,-230.5 0.04,-118.5 0.04,-58.11 79.68,-29.03 125.88,-17.24"/>
<polygon fill="#63b8ff" stroke="#63b8ff" points="126.84,-20.61 135.73,-14.86 125.19,-13.81 126.84,-20.61"/>
</a>
</g>
</g>
<!-- Node6&#45;&gt;Node2 -->
<g id="edge6_Node000006_Node000002" class="edge">
<title>Node6&#45;&gt;Node2</title>
<g id="a_edge6_Node000006_Node000002"><a xlink:title=" ">
<path fill="none" stroke="#63b8ff" d="M380.62,-384.98C319.96,-374.94 219.86,-358.36 160.5,-348.53"/>
<polygon fill="#63b8ff" stroke="#63b8ff" points="160.71,-345.01 150.27,-346.83 159.56,-351.92 160.71,-345.01"/>
</a>
</g>
</g>
<!-- Node7 -->
<g id="Node000007" class="node">
<title>Node7</title>
<g id="a_Node000007"><a xlink:href="Object_8hpp.html" target="_top" xlink:title="Defines the Object class, a special ECS entity wrapper.">
<polygon fill="white" stroke="#666666" points="820.54,-294 713.54,-294 713.54,-275 820.54,-275 820.54,-294"/>
<text text-anchor="middle" x="767.04" y="-282" font-family="Helvetica,sans-Serif" font-size="10.00">objects/Object.hpp</text>
</a>
</g>
</g>
<!-- Node6&#45;&gt;Node7 -->
<g id="edge7_Node000006_Node000007" class="edge">
<title>Node6&#45;&gt;Node7</title>
<g id="a_edge7_Node000006_Node000007"><a xlink:title=" ">
<path fill="none" stroke="#63b8ff" d="M458.6,-384.94C518.22,-365.72 662.73,-319.13 730.64,-297.24"/>
<polygon fill="#63b8ff" stroke="#63b8ff" points="732.02,-300.47 740.47,-294.07 729.88,-293.8 732.02,-300.47"/>
</a>
</g>
</g>
<!-- Node23 -->
<g id="Node000023" class="node">
<title>Node23</title>
<g id="a_Node000023"><a xlink:title=" ">
<polygon fill="#e0e0e0" stroke="#999999" points="129.54,-129 82.54,-129 82.54,-110 129.54,-110 129.54,-129"/>
<text text-anchor="middle" x="106.04" y="-117" font-family="Helvetica,sans-Serif" font-size="10.00">vector</text>
</a>
</g>
</g>
<!-- Node6&#45;&gt;Node23 -->
<g id="edge55_Node000006_Node000023" class="edge">
<title>Node6&#45;&gt;Node23</title>
<g id="a_edge55_Node000006_Node000023"><a xlink:title=" ">
<path fill="none" stroke="#63b8ff" d="M413.07,-384.87C361.8,-360.63 219.12,-286.9 141.04,-184 130.23,-169.76 120.64,-151.77 114.25,-138.58"/>
<polygon fill="#63b8ff" stroke="#63b8ff" points="117.26,-136.76 109.84,-129.19 110.92,-139.73 117.26,-136.76"/>
</a>
</g>
</g>
<!-- Node30 -->
<g id="Node000030" class="node">
<title>Node30</title>
<g id="a_Node000030"><a xlink:href="PointLight_8hpp_source.html" target="_top" xlink:title=" ">
<polygon fill="white" stroke="#666666" points="829.54,-349 704.54,-349 704.54,-330 829.54,-330 829.54,-349"/>
<text text-anchor="middle" x="767.04" y="-337" font-family="Helvetica,sans-Serif" font-size="10.00">objects/PointLight.hpp</text>
</a>
</g>
</g>
<!-- Node6&#45;&gt;Node30 -->
<g id="edge43_Node000006_Node000030" class="edge">
<title>Node6&#45;&gt;Node30</title>
<g id="a_edge43_Node000006_Node000030"><a xlink:title=" ">
<path fill="none" stroke="#63b8ff" d="M485.86,-384.98C544.99,-375.63 639.91,-360.61 702.86,-350.65"/>
<polygon fill="#63b8ff" stroke="#63b8ff" points="703.74,-354.06 713.07,-349.04 702.65,-347.14 703.74,-354.06"/>
</a>
</g>
</g>
<!-- Node31 -->
<g id="Node000031" class="node">
<title>Node31</title>
<g id="a_Node000031"><a xlink:href="Camera_8hpp.html" target="_top" xlink:title="Defines the Camera class for view and projection.">
<polygon fill="white" stroke="#666666" points="1148.54,-349 1023.54,-349 1023.54,-330 1148.54,-330 1148.54,-349"/>
<text text-anchor="middle" x="1086.04" y="-337" font-family="Helvetica,sans-Serif" font-size="10.00">rendering/Camera.hpp</text>
</a>
</g>
</g>
<!-- Node6&#45;&gt;Node31 -->
<g id="edge46_Node000006_Node000031" class="edge">
<title>Node6&#45;&gt;Node31</title>
<g id="a_edge46_Node000006_Node000031"><a xlink:title=" ">
<path fill="none" stroke="#63b8ff" d="M497.74,-388.18C620.74,-378.21 884.87,-356.8 1013.15,-346.41"/>
<polygon fill="#63b8ff" stroke="#63b8ff" points="1013.58,-349.88 1023.27,-345.59 1013.02,-342.91 1013.58,-349.88"/>
</a>
</g>
</g>
<!-- Node32 -->
<g id="Node000032" class="node">
<title>Node32</title>
<g id="a_Node000032"><a xlink:href="Shader_8hpp.html" target="_top" xlink:title="Manages OpenGL shaders.">
<polygon fill="white" stroke="#666666" points="492.04,-239 372.04,-239 372.04,-220 492.04,-220 492.04,-239"/>
<text text-anchor="middle" x="432.04" y="-227" font-family="Helvetica,sans-Serif" font-size="10.00">rendering/Shader.hpp</text>
</a>
</g>
</g>
<!-- Node6&#45;&gt;Node32 -->
<g id="edge50_Node000006_Node000032" class="edge">
<title>Node6&#45;&gt;Node32</title>
<g id="a_edge50_Node000006_Node000032"><a xlink:title=" ">
<path fill="none" stroke="#63b8ff" d="M432.04,-384.74C432.04,-359.31 432.04,-285.08 432.04,-249.69"/>
<polygon fill="#63b8ff" stroke="#63b8ff" points="435.54,-249.31 432.04,-239.31 428.54,-249.31 435.54,-249.31"/>
</a>
</g>
</g>
<!-- Node8 -->
<g id="Node000008" class="node">
<title>Node8</title>
<g id="a_Node000008"><a xlink:href="Entity_8hpp.html" target="_top" xlink:title="Defines the Entity class, which serves as a wrapper for ECS entities.">
<polygon fill="white" stroke="#666666" points="799.54,-239 734.54,-239 734.54,-220 799.54,-220 799.54,-239"/>
<text text-anchor="middle" x="767.04" y="-227" font-family="Helvetica,sans-Serif" font-size="10.00">Entity.hpp</text>
</a>
</g>
</g>
<!-- Node7&#45;&gt;Node8 -->
<g id="edge8_Node000007_Node000008" class="edge">
<title>Node7&#45;&gt;Node8</title>
<g id="a_edge8_Node000007_Node000008"><a xlink:title=" ">
<path fill="none" stroke="#63b8ff" d="M767.04,-274.75C767.04,-267.8 767.04,-257.85 767.04,-249.13"/>
<polygon fill="#63b8ff" stroke="#63b8ff" points="770.54,-249.09 767.04,-239.09 763.54,-249.09 770.54,-249.09"/>
</a>
</g>
</g>
<!-- Node24 -->
<g id="Node000024" class="node">
<title>Node24</title>
<g id="a_Node000024"><a xlink:href="TransformComponent_8hpp.html" target="_top" xlink:title="Defines the TransformComponent for ECS&#45;based spatial transformations.">
<polygon fill="white" stroke="#666666" points="1409.04,-239 1203.04,-239 1203.04,-220 1409.04,-220 1409.04,-239"/>
<text text-anchor="middle" x="1306.04" y="-227" font-family="Helvetica,sans-Serif" font-size="10.00">components/TransformComponent.hpp</text>
</a>
</g>
</g>
<!-- Node7&#45;&gt;Node24 -->
<g id="edge25_Node000007_Node000024" class="edge">
<title>Node7&#45;&gt;Node24</title>
<g id="a_edge25_Node000007_Node000024"><a xlink:title=" ">
<path fill="none" stroke="#63b8ff" d="M820.69,-278.22C911.28,-269.32 1095.8,-251.17 1209.4,-240"/>
<polygon fill="#63b8ff" stroke="#63b8ff" points="1209.88,-243.47 1219.49,-239.01 1209.19,-236.51 1209.88,-243.47"/>
</a>
</g>
</g>
<!-- Node29 -->
<g id="Node000029" class="node">
<title>Node29</title>
<g id="a_Node000029"><a xlink:href="Mesh_8hpp.html" target="_top" xlink:title="Defines the Mesh class for managing 3D geometry.">
<polygon fill="white" stroke="#666666" points="319.54,-239 206.54,-239 206.54,-220 319.54,-220 319.54,-239"/>
<text text-anchor="middle" x="263.04" y="-227" font-family="Helvetica,sans-Serif" font-size="10.00">rendering/Mesh.hpp</text>
</a>
</g>
</g>
<!-- Node7&#45;&gt;Node29 -->
<g id="edge38_Node000007_Node000029" class="edge">
<title>Node7&#45;&gt;Node29</title>
<g id="a_edge38_Node000007_Node000029"><a xlink:title=" ">
<path fill="none" stroke="#63b8ff" d="M713.1,-277.83C620.3,-268.07 430.68,-248.13 329.74,-237.51"/>
<polygon fill="#63b8ff" stroke="#63b8ff" points="329.97,-234.02 319.66,-236.45 329.24,-240.98 329.97,-234.02"/>
</a>
</g>
</g>
<!-- Node9 -->
<g id="Node000009" class="node">
<title>Node9</title>
<g id="a_Node000009"><a xlink:href="Logger_8hpp.html" target="_top" xlink:title="Provides logging functionality.">
<polygon fill="white" stroke="#666666" points="853.04,-184 783.04,-184 783.04,-165 853.04,-165 853.04,-184"/>
<text text-anchor="middle" x="818.04" y="-172" font-family="Helvetica,sans-Serif" font-size="10.00">Logger.hpp</text>
</a>
</g>
</g>
<!-- Node8&#45;&gt;Node9 -->
<g id="edge9_Node000008_Node000009" class="edge">
<title>Node8&#45;&gt;Node9</title>
<g id="a_edge9_Node000008_Node000009"><a xlink:title=" ">
<path fill="none" stroke="#63b8ff" d="M775.46,-219.75C782.81,-212.11 793.67,-200.82 802.58,-191.56"/>
<polygon fill="#63b8ff" stroke="#63b8ff" points="805.36,-193.72 809.77,-184.09 800.32,-188.87 805.36,-193.72"/>
</a>
</g>
</g>
<!-- Node17 -->
<g id="Node000017" class="node">
<title>Node17</title>
<g id="a_Node000017"><a xlink:href="Registry_8hpp.html" target="_top" xlink:title="Defines the Registry class for managing ECS entities and components.">
<polygon fill="white" stroke="#666666" points="440.54,-184 363.54,-184 363.54,-165 440.54,-165 440.54,-184"/>
<text text-anchor="middle" x="402.04" y="-172" font-family="Helvetica,sans-Serif" font-size="10.00">Registry.hpp</text>
</a>
</g>
</g>
<!-- Node8&#45;&gt;Node17 -->
<g id="edge18_Node000008_Node000017" class="edge">
<title>Node8&#45;&gt;Node17</title>
<g id="a_edge18_Node000008_Node000017"><a xlink:title=" ">
<path fill="none" stroke="#63b8ff" d="M734.32,-223.75C669.98,-214.41 526.67,-193.6 451.01,-182.61"/>
<polygon fill="#63b8ff" stroke="#63b8ff" points="451.19,-179.1 440.79,-181.13 450.19,-186.03 451.19,-179.1"/>
</a>
</g>
</g>
<!-- Node9&#45;&gt;Node5 -->
<g id="edge17_Node000009_Node000005" class="edge">
<title>Node9&#45;&gt;Node5</title>
<g id="a_edge17_Node000009_Node000005"><a xlink:title=" ">
<path fill="none" stroke="#63b8ff" d="M789.26,-164.93C746.44,-152.29 663.32,-128.17 592.04,-110 442.47,-71.87 262.18,-32.69 190.09,-17.29"/>
<polygon fill="#63b8ff" stroke="#63b8ff" points="190.77,-13.86 180.26,-15.2 189.31,-20.7 190.77,-13.86"/>
</a>
</g>
</g>
<!-- Node10 -->
<g id="Node000010" class="node">
<title>Node10</title>
<g id="a_Node000010"><a xlink:title=" ">
<polygon fill="#e0e0e0" stroke="#999999" points="910.04,-129 860.04,-129 860.04,-110 910.04,-110 910.04,-129"/>
<text text-anchor="middle" x="885.04" y="-117" font-family="Helvetica,sans-Serif" font-size="10.00">chrono</text>
</a>
</g>
</g>
<!-- Node9&#45;&gt;Node10 -->
<g id="edge10_Node000009_Node000010" class="edge">
<title>Node9&#45;&gt;Node10</title>
<g id="a_edge10_Node000009_Node000010"><a xlink:title=" ">
<path fill="none" stroke="#63b8ff" d="M828.8,-164.98C838.8,-157.07 853.92,-145.11 865.97,-135.58"/>
<polygon fill="#63b8ff" stroke="#63b8ff" points="868.41,-138.12 874.08,-129.17 864.06,-132.63 868.41,-138.12"/>
</a>
</g>
</g>
<!-- Node11 -->
<g id="Node000011" class="node">
<title>Node11</title>
<g id="a_Node000011"><a xlink:title=" ">
<polygon fill="#e0e0e0" stroke="#999999" points="999.54,-129 928.54,-129 928.54,-110 999.54,-110 999.54,-129"/>
<text text-anchor="middle" x="964.04" y="-117" font-family="Helvetica,sans-Serif" font-size="10.00">fmt/printf.h</text>
</a>
</g>
</g>
<!-- Node9&#45;&gt;Node11 -->
<g id="edge11_Node000009_Node000011" class="edge">
<title>Node9&#45;&gt;Node11</title>
<g id="a_edge11_Node000009_Node000011"><a xlink:title=" ">
<path fill="none" stroke="#63b8ff" d="M841.49,-164.98C865.62,-156.23 903.4,-142.51 930.64,-132.62"/>
<polygon fill="#63b8ff" stroke="#63b8ff" points="931.95,-135.87 940.15,-129.17 929.56,-129.29 931.95,-135.87"/>
</a>
</g>
</g>
<!-- Node12 -->
<g id="Node000012" class="node">
<title>Node12</title>
<g id="a_Node000012"><a xlink:title=" ">
<polygon fill="#e0e0e0" stroke="#999999" points="1072.54,-129 1017.54,-129 1017.54,-110 1072.54,-110 1072.54,-129"/>
<text text-anchor="middle" x="1045.04" y="-117" font-family="Helvetica,sans-Serif" font-size="10.00">fstream</text>
</a>
</g>
</g>
<!-- Node9&#45;&gt;Node12 -->
<g id="edge12_Node000009_Node000012" class="edge">
<title>Node9&#45;&gt;Node12</title>
<g id="a_edge12_Node000009_Node000012"><a xlink:title=" ">
<path fill="none" stroke="#63b8ff" d="M853.25,-165.33C889.56,-156.9 948.09,-143.28 1007.58,-129.34"/>
<polygon fill="#63b8ff" stroke="#63b8ff" points="1008.59,-132.7 1017.52,-127.01 1006.99,-125.88 1008.59,-132.7"/>
</a>
</g>
</g>
<!-- Node13 -->
<g id="Node000013" class="node">
<title>Node13</title>
<g id="a_Node000013"><a xlink:title=" ">
<polygon fill="#e0e0e0" stroke="#999999" points="1185.04,-129 1129.04,-129 1129.04,-110 1185.04,-110 1185.04,-129"/>
<text text-anchor="middle" x="1157.04" y="-117" font-family="Helvetica,sans-Serif" font-size="10.00">iomanip</text>
</a>
</g>
</g>
<!-- Node9&#45;&gt;Node13 -->
<g id="edge13_Node000009_Node000013" class="edge">
<title>Node9&#45;&gt;Node13</title>
<g id="a_edge13_Node000009_Node000013"><a xlink:title=" ">
<path fill="none" stroke="#63b8ff" d="M853.04,-168.03C917.11,-158.01 1052.74,-136.81 1119,-126.45"/>
<polygon fill="#63b8ff" stroke="#63b8ff" points="1119.67,-129.88 1129.01,-124.88 1118.59,-122.97 1119.67,-129.88"/>
</a>
</g>
</g>
<!-- Node14 -->
<g id="Node000014" class="node">
<title>Node14</title>
<g id="a_Node000014"><a xlink:title=" ">
<polygon fill="#e0e0e0" stroke="#999999" points="776.04,-129 716.04,-129 716.04,-110 776.04,-110 776.04,-129"/>
<text text-anchor="middle" x="746.04" y="-117" font-family="Helvetica,sans-Serif" font-size="10.00">iostream</text>
</a>
</g>
</g>
<!-- Node9&#45;&gt;Node14 -->
<g id="edge14_Node000009_Node000014" class="edge">
<title>Node9&#45;&gt;Node14</title>
<g id="a_edge14_Node000009_Node000014"><a xlink:title=" ">
<path fill="none" stroke="#63b8ff" d="M806.47,-164.98C795.62,-157 779.16,-144.88 766.15,-135.31"/>
<polygon fill="#63b8ff" stroke="#63b8ff" points="767.94,-132.28 757.82,-129.17 763.79,-137.92 767.94,-132.28"/>
</a>
</g>
</g>
<!-- Node15 -->
<g id="Node000015" class="node">
<title>Node15</title>
<g id="a_Node000015"><a xlink:title=" ">
<polygon fill="#e0e0e0" stroke="#999999" points="842.04,-129 794.04,-129 794.04,-110 842.04,-110 842.04,-129"/>
<text text-anchor="middle" x="818.04" y="-117" font-family="Helvetica,sans-Serif" font-size="10.00">mutex</text>
</a>
</g>
</g>
<!-- Node9&#45;&gt;Node15 -->
<g id="edge15_Node000009_Node000015" class="edge">
<title>Node9&#45;&gt;Node15</title>
<g id="a_edge15_Node000009_Node000015"><a xlink:title=" ">
<path fill="none" stroke="#63b8ff" d="M818.04,-164.75C818.04,-157.8 818.04,-147.85 818.04,-139.13"/>
<polygon fill="#63b8ff" stroke="#63b8ff" points="821.54,-139.09 818.04,-129.09 814.54,-139.09 821.54,-139.09"/>
</a>
</g>
</g>
<!-- Node16 -->
<g id="Node000016" class="node">
<title>Node16</title>
<g id="a_Node000016"><a xlink:title=" ">
<polygon fill="#e0e0e0" stroke="#999999" points="1241.04,-19 1185.04,-19 1185.04,0 1241.04,0 1241.04,-19"/>
<text text-anchor="middle" x="1213.04" y="-7" font-family="Helvetica,sans-Serif" font-size="10.00">sstream</text>
</a>
</g>
</g>
<!-- Node9&#45;&gt;Node16 -->
<g id="edge16_Node000009_Node000016" class="edge">
<title>Node9&#45;&gt;Node16</title>
<g id="a_edge16_Node000009_Node000016"><a xlink:title=" ">
<path fill="none" stroke="#63b8ff" d="M782.9,-167.16C741.91,-158.23 682.64,-139.66 707.04,-110 766.62,-37.56 1067.62,-17.05 1174.95,-11.99"/>
<polygon fill="#63b8ff" stroke="#63b8ff" points="1175.18,-15.48 1185.01,-11.53 1174.86,-8.49 1175.18,-15.48"/>
</a>
</g>
</g>
<!-- Node18 -->
<g id="Node000018" class="node">
<title>Node18</title>
<g id="a_Node000018"><a xlink:title=" ">
<polygon fill="#e0e0e0" stroke="#999999" points="362.04,-129 298.04,-129 298.04,-110 362.04,-110 362.04,-129"/>
<text text-anchor="middle" x="330.04" y="-117" font-family="Helvetica,sans-Serif" font-size="10.00">algorithm</text>
</a>
</g>
</g>
<!-- Node17&#45;&gt;Node18 -->
<g id="edge19_Node000017_Node000018" class="edge">
<title>Node17&#45;&gt;Node18</title>
<g id="a_edge19_Node000017_Node000018"><a xlink:title=" ">
<path fill="none" stroke="#63b8ff" d="M390.47,-164.98C379.62,-157 363.16,-144.88 350.15,-135.31"/>
<polygon fill="#63b8ff" stroke="#63b8ff" points="351.94,-132.28 341.82,-129.17 347.79,-137.92 351.94,-132.28"/>
</a>
</g>
</g>
<!-- Node19 -->
<g id="Node000019" class="node">
<title>Node19</title>
<g id="a_Node000019"><a xlink:title=" ">
<polygon fill="#e0e0e0" stroke="#999999" points="424.04,-129 380.04,-129 380.04,-110 424.04,-110 424.04,-129"/>
<text text-anchor="middle" x="402.04" y="-117" font-family="Helvetica,sans-Serif" font-size="10.00">bitset</text>
</a>
</g>
</g>
<!-- Node17&#45;&gt;Node19 -->
<g id="edge20_Node000017_Node000019" class="edge">
<title>Node17&#45;&gt;Node19</title>
<g id="a_edge20_Node000017_Node000019"><a xlink:title=" ">
<path fill="none" stroke="#63b8ff" d="M402.04,-164.75C402.04,-157.8 402.04,-147.85 402.04,-139.13"/>
<polygon fill="#63b8ff" stroke="#63b8ff" points="405.54,-139.09 402.04,-129.09 398.54,-139.09 405.54,-139.09"/>
</a>
</g>
</g>
<!-- Node20 -->
<g id="Node000020" class="node">
<title>Node20</title>
<g id="a_Node000020"><a xlink:title=" ">
<polygon fill="#e0e0e0" stroke="#999999" points="500.04,-129 442.04,-129 442.04,-110 500.04,-110 500.04,-129"/>
<text text-anchor="middle" x="471.04" y="-117" font-family="Helvetica,sans-Serif" font-size="10.00">memory</text>
</a>
</g>
</g>
<!-- Node17&#45;&gt;Node20 -->
<g id="edge21_Node000017_Node000020" class="edge">
<title>Node17&#45;&gt;Node20</title>
<g id="a_edge21_Node000017_Node000020"><a xlink:title=" ">
<path fill="none" stroke="#63b8ff" d="M413.12,-164.98C423.52,-157 439.3,-144.88 451.76,-135.31"/>
<polygon fill="#63b8ff" stroke="#63b8ff" points="453.95,-138.04 459.75,-129.17 449.69,-132.49 453.95,-138.04"/>
</a>
</g>
</g>
<!-- Node21 -->
<g id="Node000021" class="node">
<title>Node21</title>
<g id="a_Node000021"><a xlink:title=" ">
<polygon fill="#e0e0e0" stroke="#999999" points="583.54,-129 518.54,-129 518.54,-110 583.54,-110 583.54,-129"/>
<text text-anchor="middle" x="551.04" y="-117" font-family="Helvetica,sans-Serif" font-size="10.00">stdexcept</text>
</a>
</g>
</g>
<!-- Node17&#45;&gt;Node21 -->
<g id="edge22_Node000017_Node000021" class="edge">
<title>Node17&#45;&gt;Node21</title>
<g id="a_edge22_Node000017_Node000021"><a xlink:title=" ">
<path fill="none" stroke="#63b8ff" d="M425.98,-164.98C450.59,-156.23 489.16,-142.51 516.95,-132.62"/>
<polygon fill="#63b8ff" stroke="#63b8ff" points="518.41,-135.82 526.66,-129.17 516.07,-129.22 518.41,-135.82"/>
</a>
</g>
</g>
<!-- Node22 -->
<g id="Node000022" class="node">
<title>Node22</title>
<g id="a_Node000022"><a xlink:title=" ">
<polygon fill="#e0e0e0" stroke="#999999" points="279.54,-129 186.54,-129 186.54,-110 279.54,-110 279.54,-129"/>
<text text-anchor="middle" x="233.04" y="-117" font-family="Helvetica,sans-Serif" font-size="10.00">unordered_map</text>
</a>
</g>
</g>
<!-- Node17&#45;&gt;Node22 -->
<g id="edge23_Node000017_Node000022" class="edge">
<title>Node17&#45;&gt;Node22</title>
<g id="a_edge23_Node000017_Node000022"><a xlink:title=" ">
<path fill="none" stroke="#63b8ff" d="M374.88,-164.98C346.51,-156.09 301.8,-142.07 270.18,-132.15"/>
<polygon fill="#63b8ff" stroke="#63b8ff" points="270.99,-128.73 260.4,-129.08 268.9,-135.41 270.99,-128.73"/>
</a>
</g>
</g>
<!-- Node17&#45;&gt;Node23 -->
<g id="edge24_Node000017_Node000023" class="edge">
<title>Node17&#45;&gt;Node23</title>
<g id="a_edge24_Node000017_Node000023"><a xlink:title=" ">
<path fill="none" stroke="#63b8ff" d="M363.34,-166.57C304.89,-156.11 195.06,-136.44 139.72,-126.53"/>
<polygon fill="#63b8ff" stroke="#63b8ff" points="140.19,-123.06 129.73,-124.74 138.96,-129.95 140.19,-123.06"/>
</a>
</g>
</g>
<!-- Node25 -->
<g id="Node000025" class="node">
<title>Node25</title>
<g id="a_Node000025"><a xlink:href="Matrix4_8hpp.html" target="_top" xlink:title="Defines the Matrix4 class for 3D transformation operations.">
<polygon fill="white" stroke="#666666" points="1261.04,-184 1157.04,-184 1157.04,-165 1261.04,-165 1261.04,-184"/>
<text text-anchor="middle" x="1209.04" y="-172" font-family="Helvetica,sans-Serif" font-size="10.00">math/Matrix4.hpp</text>
</a>
</g>
</g>
<!-- Node24&#45;&gt;Node25 -->
<g id="edge26_Node000024_Node000025" class="edge">
<title>Node24&#45;&gt;Node25</title>
<g id="a_edge26_Node000024_Node000025"><a xlink:title=" ">
<path fill="none" stroke="#63b8ff" d="M1290.45,-219.98C1275.27,-211.69 1251.94,-198.94 1234.14,-189.22"/>
<polygon fill="#63b8ff" stroke="#63b8ff" points="1235.36,-185.89 1224.91,-184.17 1232,-192.04 1235.36,-185.89"/>
</a>
</g>
</g>
<!-- Node26 -->
<g id="Node000026" class="node">
<title>Node26</title>
<g id="a_Node000026"><a xlink:href="Quaternion_8hpp.html" target="_top" xlink:title="Defines the Quaternion class for representing 3D rotations.">
<polygon fill="white" stroke="#666666" points="1409.04,-129 1317.04,-129 1317.04,-110 1409.04,-110 1409.04,-129"/>
<text text-anchor="middle" x="1363.04" y="-117" font-family="Helvetica,sans-Serif" font-size="10.00">Quaternion.hpp</text>
</a>
</g>
</g>
<!-- Node24&#45;&gt;Node26 -->
<g id="edge36_Node000024_Node000026" class="edge">
<title>Node24&#45;&gt;Node26</title>
<g id="a_edge36_Node000024_Node000026"><a xlink:title=" ">
<path fill="none" stroke="#63b8ff" d="M1310.7,-219.66C1320.1,-201.85 1341.47,-161.37 1353.8,-138.01"/>
<polygon fill="#63b8ff" stroke="#63b8ff" points="1356.9,-139.64 1358.47,-129.16 1350.7,-136.37 1356.9,-139.64"/>
</a>
</g>
</g>
<!-- Node27 -->
<g id="Node000027" class="node">
<title>Node27</title>
<g id="a_Node000027"><a xlink:href="Vector3_8hpp.html" target="_top" xlink:title="Defines the Vector3 class.">
<polygon fill="white" stroke="#666666" points="1319.04,-74 1245.04,-74 1245.04,-55 1319.04,-55 1319.04,-74"/>
<text text-anchor="middle" x="1282.04" y="-62" font-family="Helvetica,sans-Serif" font-size="10.00">Vector3.hpp</text>
</a>
</g>
</g>
<!-- Node24&#45;&gt;Node27 -->
<g id="edge37_Node000024_Node000027" class="edge">
<title>Node24&#45;&gt;Node27</title>
<g id="a_edge37_Node000024_Node000027"><a xlink:title=" ">
<path fill="none" stroke="#63b8ff" d="M1304.75,-219.74C1300.99,-194.2 1289.98,-119.43 1284.8,-84.23"/>
<polygon fill="#63b8ff" stroke="#63b8ff" points="1288.25,-83.69 1283.33,-74.31 1281.33,-84.71 1288.25,-83.69"/>
</a>
</g>
</g>
<!-- Node25&#45;&gt;Node13 -->
<g id="edge34_Node000025_Node000013" class="edge">
<title>Node25&#45;&gt;Node13</title>
<g id="a_edge34_Node000025_Node000013"><a xlink:title=" ">
<path fill="none" stroke="#63b8ff" d="M1200.45,-164.75C1192.88,-157.03 1181.66,-145.6 1172.52,-136.28"/>
<polygon fill="#63b8ff" stroke="#63b8ff" points="1174.97,-133.78 1165.46,-129.09 1169.97,-138.68 1174.97,-133.78"/>
</a>
</g>
</g>
<!-- Node25&#45;&gt;Node16 -->
<g id="edge35_Node000025_Node000016" class="edge">
<title>Node25&#45;&gt;Node16</title>
<g id="a_edge35_Node000025_Node000016"><a xlink:title=" ">
<path fill="none" stroke="#63b8ff" d="M1209.25,-164.74C1209.88,-139.31 1211.7,-65.08 1212.57,-29.69"/>
<polygon fill="#63b8ff" stroke="#63b8ff" points="1216.07,-29.39 1212.82,-19.31 1209.08,-29.22 1216.07,-29.39"/>
</a>
</g>
</g>
<!-- Node25&#45;&gt;Node26 -->
<g id="edge27_Node000025_Node000026" class="edge">
<title>Node25&#45;&gt;Node26</title>
<g id="a_edge27_Node000025_Node000026"><a xlink:title=" ">
<path fill="none" stroke="#63b8ff" d="M1233.78,-164.98C1259.41,-156.16 1299.67,-142.31 1328.44,-132.41"/>
<polygon fill="#63b8ff" stroke="#63b8ff" points="1329.78,-135.65 1338.1,-129.08 1327.51,-129.03 1329.78,-135.65"/>
</a>
</g>
</g>
<!-- Node25&#45;&gt;Node27 -->
<g id="edge33_Node000025_Node000027" class="edge">
<title>Node25&#45;&gt;Node27</title>
<g id="a_edge33_Node000025_Node000027"><a xlink:title=" ">
<path fill="none" stroke="#63b8ff" d="M1215.01,-164.66C1227.1,-146.77 1254.66,-106 1270.42,-82.69"/>
<polygon fill="#63b8ff" stroke="#63b8ff" points="1273.48,-84.4 1276.18,-74.16 1267.69,-80.48 1273.48,-84.4"/>
</a>
</g>
</g>
<!-- Node26&#45;&gt;Node27 -->
<g id="edge28_Node000026_Node000027" class="edge">
<title>Node26&#45;&gt;Node27</title>
<g id="a_edge28_Node000026_Node000027"><a xlink:title=" ">
<path fill="none" stroke="#63b8ff" d="M1350.02,-109.98C1337.58,-101.84 1318.58,-89.41 1303.83,-79.76"/>
<polygon fill="#63b8ff" stroke="#63b8ff" points="1305.57,-76.72 1295.29,-74.17 1301.74,-82.57 1305.57,-76.72"/>
</a>
</g>
</g>
<!-- Node28 -->
<g id="Node000028" class="node">
<title>Node28</title>
<g id="a_Node000028"><a xlink:title=" ">
<polygon fill="#e0e0e0" stroke="#999999" points="1309.54,-19 1262.54,-19 1262.54,0 1309.54,0 1309.54,-19"/>
<text text-anchor="middle" x="1286.04" y="-7" font-family="Helvetica,sans-Serif" font-size="10.00">cmath</text>
</a>
</g>
</g>
<!-- Node26&#45;&gt;Node28 -->
<g id="edge32_Node000026_Node000028" class="edge">
<title>Node26&#45;&gt;Node28</title>
<g id="a_edge32_Node000026_Node000028"><a xlink:title=" ">
<path fill="none" stroke="#63b8ff" d="M1359.14,-109.87C1353.27,-97.26 1341.39,-73.31 1328.04,-55 1320.54,-44.72 1310.87,-34.32 1302.7,-26.17"/>
<polygon fill="#63b8ff" stroke="#63b8ff" points="1305.05,-23.57 1295.44,-19.11 1300.17,-28.59 1305.05,-23.57"/>
</a>
</g>
</g>
<!-- Node27&#45;&gt;Node5 -->
<g id="edge31_Node000027_Node000005" class="edge">
<title>Node27&#45;&gt;Node5</title>
<g id="a_edge31_Node000027_Node000005"><a xlink:title=" ">
<path fill="none" stroke="#63b8ff" d="M1244.96,-61.75C1072.77,-53.63 352.64,-19.68 190.54,-12.03"/>
<polygon fill="#63b8ff" stroke="#63b8ff" points="190.41,-8.52 180.26,-11.55 190.08,-15.52 190.41,-8.52"/>
</a>
</g>
</g>
<!-- Node27&#45;&gt;Node16 -->
<g id="edge30_Node000027_Node000016" class="edge">
<title>Node27&#45;&gt;Node16</title>
<g id="a_edge30_Node000027_Node000016"><a xlink:title=" ">
<path fill="none" stroke="#63b8ff" d="M1270.95,-54.98C1260.55,-47 1244.78,-34.88 1232.32,-25.31"/>
<polygon fill="#63b8ff" stroke="#63b8ff" points="1234.39,-22.49 1224.32,-19.17 1230.12,-28.04 1234.39,-22.49"/>
</a>
</g>
</g>
<!-- Node27&#45;&gt;Node28 -->
<g id="edge29_Node000027_Node000028" class="edge">
<title>Node27&#45;&gt;Node28</title>
<g id="a_edge29_Node000027_Node000028"><a xlink:title=" ">
<path fill="none" stroke="#63b8ff" d="M1282.7,-54.75C1283.22,-47.8 1283.97,-37.85 1284.63,-29.13"/>
<polygon fill="#63b8ff" stroke="#63b8ff" points="1288.13,-29.32 1285.39,-19.09 1281.15,-28.8 1288.13,-29.32"/>
</a>
</g>
</g>
<!-- Node29&#45;&gt;Node3 -->
<g id="edge40_Node000029_Node000003" class="edge">
<title>Node29&#45;&gt;Node3</title>
<g id="a_edge40_Node000029_Node000003"><a xlink:title=" ">
<path fill="none" stroke="#63b8ff" d="M254.62,-219.75C247.26,-212.11 236.41,-200.82 227.49,-191.56"/>
<polygon fill="#63b8ff" stroke="#63b8ff" points="229.76,-188.87 220.3,-184.09 224.71,-193.72 229.76,-188.87"/>
</a>
</g>
</g>
<!-- Node29&#45;&gt;Node5 -->
<g id="edge41_Node000029_Node000005" class="edge">
<title>Node29&#45;&gt;Node5</title>
<g id="a_edge41_Node000029_Node000005"><a xlink:title=" ">
<path fill="none" stroke="#63b8ff" d="M214.63,-219.91C167.35,-208.51 98.86,-183.1 73.04,-129 53.38,-87.82 103.52,-45.9 134.93,-24.68"/>
<polygon fill="#63b8ff" stroke="#63b8ff" points="137.14,-27.42 143.6,-19.03 133.31,-21.56 137.14,-27.42"/>
</a>
</g>
</g>
<!-- Node29&#45;&gt;Node23 -->
<g id="edge42_Node000029_Node000023" class="edge">
<title>Node29&#45;&gt;Node23</title>
<g id="a_edge42_Node000029_Node000023"><a xlink:title=" ">
<path fill="none" stroke="#63b8ff" d="M238.01,-219.85C217.8,-212.2 189.17,-199.79 167.04,-184 148.28,-170.62 130.47,-150.98 118.99,-137.1"/>
<polygon fill="#63b8ff" stroke="#63b8ff" points="121.7,-134.89 112.7,-129.3 116.25,-139.28 121.7,-134.89"/>
</a>
</g>
</g>
<!-- Node29&#45;&gt;Node27 -->
<g id="edge39_Node000029_Node000027" class="edge">
<title>Node29&#45;&gt;Node27</title>
<g id="a_edge39_Node000029_Node000027"><a xlink:title=" ">
<path fill="none" stroke="#63b8ff" d="M319.61,-223.56C333.79,-222.36 348.97,-221.11 363.04,-220 684.15,-194.77 779.94,-240.75 1082.04,-129 1099.75,-122.45 1102.4,-116.76 1120.04,-110 1157.93,-95.48 1202.47,-83.6 1235.25,-75.78"/>
<polygon fill="#63b8ff" stroke="#63b8ff" points="1236.09,-79.18 1245.03,-73.49 1234.49,-72.37 1236.09,-79.18"/>
</a>
</g>
</g>
<!-- Node30&#45;&gt;Node7 -->
<g id="edge44_Node000030_Node000007" class="edge">
<title>Node30&#45;&gt;Node7</title>
<g id="a_edge44_Node000030_Node000007"><a xlink:title=" ">
<path fill="none" stroke="#63b8ff" d="M767.04,-329.75C767.04,-322.8 767.04,-312.85 767.04,-304.13"/>
<polygon fill="#63b8ff" stroke="#63b8ff" points="770.54,-304.09 767.04,-294.09 763.54,-304.09 770.54,-304.09"/>
</a>
</g>
</g>
<!-- Node30&#45;&gt;Node27 -->
<g id="edge45_Node000030_Node000027" class="edge">
<title>Node30&#45;&gt;Node27</title>
<g id="a_edge45_Node000030_Node000027"><a xlink:title=" ">
<path fill="none" stroke="#63b8ff" d="M829.71,-333.52C985.37,-320.52 1379.86,-283.45 1418.04,-239 1455.39,-195.5 1451.69,-156.42 1418.04,-110 1397.93,-82.26 1360.02,-71.49 1329.32,-67.46"/>
<polygon fill="#63b8ff" stroke="#63b8ff" points="1329.55,-63.97 1319.22,-66.34 1328.77,-70.92 1329.55,-63.97"/>
</a>
</g>
</g>
<!-- Node31&#45;&gt;Node7 -->
<g id="edge49_Node000031_Node000007" class="edge">
<title>Node31&#45;&gt;Node7</title>
<g id="a_edge49_Node000031_Node000007"><a xlink:title=" ">
<path fill="none" stroke="#63b8ff" d="M1034.78,-329.98C978.59,-320.65 888.47,-305.67 828.52,-295.71"/>
<polygon fill="#63b8ff" stroke="#63b8ff" points="828.87,-292.22 818.43,-294.04 827.72,-299.13 828.87,-292.22"/>
</a>
</g>
</g>
<!-- Node31&#45;&gt;Node25 -->
<g id="edge47_Node000031_Node000025" class="edge">
<title>Node31&#45;&gt;Node25</title>
<g id="a_edge47_Node000031_Node000025"><a xlink:title=" ">
<path fill="none" stroke="#63b8ff" d="M1092.65,-329.74C1112.26,-303.76 1170.31,-226.83 1196.25,-192.44"/>
<polygon fill="#63b8ff" stroke="#63b8ff" points="1199.16,-194.4 1202.39,-184.31 1193.57,-190.18 1199.16,-194.4"/>
</a>
</g>
</g>
<!-- Node31&#45;&gt;Node27 -->
<g id="edge48_Node000031_Node000027" class="edge">
<title>Node31&#45;&gt;Node27</title>
<g id="a_edge48_Node000031_Node000027"><a xlink:title=" ">
<path fill="none" stroke="#63b8ff" d="M1148.97,-334.06C1259.06,-324.54 1475.04,-297.35 1475.04,-230.5 1475.04,-230.5 1475.04,-230.5 1475.04,-173.5 1475.04,-143.33 1473.45,-130.2 1451.04,-110 1417.77,-80.02 1366.67,-69.82 1329.37,-66.55"/>
<polygon fill="#63b8ff" stroke="#63b8ff" points="1329.47,-63.05 1319.24,-65.81 1328.96,-70.03 1329.47,-63.05"/>
</a>
</g>
</g>
<!-- Node32&#45;&gt;Node3 -->
<g id="edge53_Node000032_Node000003" class="edge">
<title>Node32&#45;&gt;Node3</title>
<g id="a_edge53_Node000032_Node000003"><a xlink:title=" ">
<path fill="none" stroke="#63b8ff" d="M396.69,-219.98C358.88,-210.87 298.77,-196.4 257.47,-186.45"/>
<polygon fill="#63b8ff" stroke="#63b8ff" points="258.2,-183.02 247.66,-184.08 256.56,-189.83 258.2,-183.02"/>
</a>
</g>
</g>
<!-- Node32&#45;&gt;Node5 -->
<g id="edge54_Node000032_Node000005" class="edge">
<title>Node32&#45;&gt;Node5</title>
<g id="a_edge54_Node000032_Node000005"><a xlink:title=" ">
<path fill="none" stroke="#63b8ff" d="M407.99,-219.85C345.94,-197.43 184.74,-138.55 177.04,-129 153.89,-100.31 153.66,-54.69 155.73,-29.23"/>
<polygon fill="#63b8ff" stroke="#63b8ff" points="159.23,-29.39 156.77,-19.09 152.27,-28.68 159.23,-29.39"/>
</a>
</g>
</g>
<!-- Node32&#45;&gt;Node25 -->
<g id="edge51_Node000032_Node000025" class="edge">
<title>Node32&#45;&gt;Node25</title>
<g id="a_edge51_Node000032_Node000025"><a xlink:title=" ">
<path fill="none" stroke="#63b8ff" d="M492.37,-225.08C611.48,-218.21 885.21,-201.88 1115.04,-184 1125.31,-183.2 1136.21,-182.28 1146.81,-181.35"/>
<polygon fill="#63b8ff" stroke="#63b8ff" points="1147.2,-184.83 1156.85,-180.45 1146.58,-177.86 1147.2,-184.83"/>
</a>
</g>
</g>
<!-- Node32&#45;&gt;Node27 -->
<g id="edge52_Node000032_Node000027" class="edge">
<title>Node32&#45;&gt;Node27</title>
<g id="a_edge52_Node000032_Node000027"><a xlink:title=" ">
<path fill="none" stroke="#63b8ff" d="M446.92,-219.97C487.24,-197.35 602.56,-135.79 707.04,-110 806.7,-85.39 1115.64,-71.65 1234.64,-67.16"/>
<polygon fill="#63b8ff" stroke="#63b8ff" points="1235.02,-70.65 1244.88,-66.78 1234.76,-63.65 1235.02,-70.65"/>
</a>
</g>
</g>
</g>
</svg>
