<?xml version="1.0" encoding="UTF-8" standalone="no"?>
<!DOCTYPE svg PUBLIC "-//W3C//DTD SVG 1.1//EN"
 "http://www.w3.org/Graphics/SVG/1.1/DTD/svg11.dtd">
<!-- Generated by graphviz version 12.2.1 (0)
 -->
<!-- Title: include/Engine.hpp Pages: 1 -->
<svg width="1621pt" height="483pt"
 viewBox="0.00 0.00 1620.65 482.75" xmlns="http://www.w3.org/2000/svg" xmlns:xlink="http://www.w3.org/1999/xlink">
<g id="graph0" class="graph" transform="scale(1 1) rotate(0) translate(4 478.75)">
<title>include/Engine.hpp</title>
<!-- Node1 -->
<g id="Node000001" class="node">
<title>Node1</title>
<g id="a_Node000001"><a xlink:title="Defines the core Engine class responsible for running simulation.">
<polygon fill="#999999" stroke="#666666" points="553.88,-474.75 445.62,-474.75 445.62,-454 553.88,-454 553.88,-474.75"/>
<text text-anchor="middle" x="499.75" y="-461.25" font-family="Helvetica,sans-Serif" font-size="10.00">include/Engine.hpp</text>
</a>
</g>
</g>
<!-- Node2 -->
<g id="Node000002" class="node">
<title>Node2</title>
<g id="a_Node000002"><a xlink:href="Registry_8hpp.html" target="_top" xlink:title="Defines the Registry class for managing ECS entities and components.">
<polygon fill="white" stroke="#666666" points="537.75,-191 461.75,-191 461.75,-170.25 537.75,-170.25 537.75,-191"/>
<text text-anchor="middle" x="499.75" y="-177.5" font-family="Helvetica,sans-Serif" font-size="10.00">Registry.hpp</text>
</a>
</g>
</g>
<!-- Node1&#45;&gt;Node2 -->
<g id="edge1_Node000001_Node000002" class="edge">
<title>Node1&#45;&gt;Node2</title>
<g id="a_edge1_Node000001_Node000002"><a xlink:title=" ">
<path fill="none" stroke="#63b8ff" d="M499.75,-453.53C499.75,-434.1 499.75,-389.43 499.75,-351.88 499.75,-351.88 499.75,-351.88 499.75,-293.12 499.75,-261.73 499.75,-225.37 499.75,-202.93"/>
<polygon fill="#63b8ff" stroke="#63b8ff" points="503.25,-202.98 499.75,-192.98 496.25,-202.98 503.25,-202.98"/>
</a>
</g>
</g>
<!-- Node9 -->
<g id="Node000009" class="node">
<title>Node9</title>
<g id="a_Node000009"><a xlink:href="Window_8hpp.html" target="_top" xlink:title="Provides a window for OpenGL rendering using GLFW.">
<polygon fill="white" stroke="#666666" points="290.38,-191 215.12,-191 215.12,-170.25 290.38,-170.25 290.38,-191"/>
<text text-anchor="middle" x="252.75" y="-177.5" font-family="Helvetica,sans-Serif" font-size="10.00">Window.hpp</text>
</a>
</g>
</g>
<!-- Node1&#45;&gt;Node9 -->
<g id="edge8_Node000001_Node000009" class="edge">
<title>Node1&#45;&gt;Node9</title>
<g id="a_edge8_Node000001_Node000009"><a xlink:title=" ">
<path fill="none" stroke="#63b8ff" d="M466.46,-453.55C424.49,-438.87 357.75,-406.88 357.75,-351.88 357.75,-351.88 357.75,-351.88 357.75,-293.12 357.75,-248.93 313.49,-215.12 282.44,-196.84"/>
<polygon fill="#63b8ff" stroke="#63b8ff" points="284.25,-193.84 273.82,-191.99 280.82,-199.94 284.25,-193.84"/>
</a>
</g>
</g>
<!-- Node13 -->
<g id="Node000013" class="node">
<title>Node13</title>
<g id="a_Node000013"><a xlink:href="Renderer_8hpp.html" target="_top" xlink:title="Manages the rendering pipeline and object submission.">
<polygon fill="white" stroke="#666666" points="978.12,-418 847.38,-418 847.38,-397.25 978.12,-397.25 978.12,-418"/>
<text text-anchor="middle" x="912.75" y="-404.5" font-family="Helvetica,sans-Serif" font-size="10.00">rendering/Renderer.hpp</text>
</a>
</g>
</g>
<!-- Node1&#45;&gt;Node13 -->
<g id="edge12_Node000001_Node000013" class="edge">
<title>Node1&#45;&gt;Node13</title>
<g id="a_edge12_Node000001_Node000013"><a xlink:title=" ">
<path fill="none" stroke="#63b8ff" d="M554.17,-456.16C626.24,-446.61 753.76,-429.7 835.71,-418.84"/>
<polygon fill="#63b8ff" stroke="#63b8ff" points="836,-422.33 845.45,-417.55 835.08,-415.39 836,-422.33"/>
</a>
</g>
</g>
<!-- Node3 -->
<g id="Node000003" class="node">
<title>Node3</title>
<g id="a_Node000003"><a xlink:title=" ">
<polygon fill="#e0e0e0" stroke="#999999" points="471.38,-134.25 408.12,-134.25 408.12,-113.5 471.38,-113.5 471.38,-134.25"/>
<text text-anchor="middle" x="439.75" y="-120.75" font-family="Helvetica,sans-Serif" font-size="10.00">algorithm</text>
</a>
</g>
</g>
<!-- Node2&#45;&gt;Node3 -->
<g id="edge2_Node000002_Node000003" class="edge">
<title>Node2&#45;&gt;Node3</title>
<g id="a_edge2_Node000002_Node000003"><a xlink:title=" ">
<path fill="none" stroke="#63b8ff" d="M489.02,-169.84C480.66,-162.21 468.84,-151.42 458.87,-142.32"/>
<polygon fill="#63b8ff" stroke="#63b8ff" points="461.25,-139.75 451.5,-135.6 456.53,-144.92 461.25,-139.75"/>
</a>
</g>
</g>
<!-- Node4 -->
<g id="Node000004" class="node">
<title>Node4</title>
<g id="a_Node000004"><a xlink:title=" ">
<polygon fill="#e0e0e0" stroke="#999999" points="533.62,-134.25 489.88,-134.25 489.88,-113.5 533.62,-113.5 533.62,-134.25"/>
<text text-anchor="middle" x="511.75" y="-120.75" font-family="Helvetica,sans-Serif" font-size="10.00">bitset</text>
</a>
</g>
</g>
<!-- Node2&#45;&gt;Node4 -->
<g id="edge3_Node000002_Node000004" class="edge">
<title>Node2&#45;&gt;Node4</title>
<g id="a_edge3_Node000002_Node000004"><a xlink:title=" ">
<path fill="none" stroke="#63b8ff" d="M501.9,-169.84C503.36,-163.14 505.36,-154.01 507.18,-145.73"/>
<polygon fill="#63b8ff" stroke="#63b8ff" points="510.58,-146.57 509.3,-136.06 503.74,-145.08 510.58,-146.57"/>
</a>
</g>
</g>
<!-- Node5 -->
<g id="Node000005" class="node">
<title>Node5</title>
<g id="a_Node000005"><a xlink:title=" ">
<polygon fill="#e0e0e0" stroke="#999999" points="197.38,-134.25 140.12,-134.25 140.12,-113.5 197.38,-113.5 197.38,-134.25"/>
<text text-anchor="middle" x="168.75" y="-120.75" font-family="Helvetica,sans-Serif" font-size="10.00">memory</text>
</a>
</g>
</g>
<!-- Node2&#45;&gt;Node5 -->
<g id="edge4_Node000002_Node000005" class="edge">
<title>Node2&#45;&gt;Node5</title>
<g id="a_edge4_Node000002_Node000005"><a xlink:title=" ">
<path fill="none" stroke="#63b8ff" d="M461.63,-174.82C407.63,-167.76 305.54,-153.56 208.88,-134.53"/>
<polygon fill="#63b8ff" stroke="#63b8ff" points="209.71,-131.12 199.22,-132.6 208.34,-137.99 209.71,-131.12"/>
</a>
</g>
</g>
<!-- Node6 -->
<g id="Node000006" class="node">
<title>Node6</title>
<g id="a_Node000006"><a xlink:title=" ">
<polygon fill="#e0e0e0" stroke="#999999" points="279.75,-134.25 215.75,-134.25 215.75,-113.5 279.75,-113.5 279.75,-134.25"/>
<text text-anchor="middle" x="247.75" y="-120.75" font-family="Helvetica,sans-Serif" font-size="10.00">stdexcept</text>
</a>
</g>
</g>
<!-- Node2&#45;&gt;Node6 -->
<g id="edge5_Node000002_Node000006" class="edge">
<title>Node2&#45;&gt;Node6</title>
<g id="a_edge5_Node000002_Node000006"><a xlink:title=" ">
<path fill="none" stroke="#63b8ff" d="M461.6,-171.58C421.54,-163.09 356.43,-149.2 290.91,-134.71"/>
<polygon fill="#63b8ff" stroke="#63b8ff" points="291.97,-131.36 281.45,-132.61 290.45,-138.19 291.97,-131.36"/>
</a>
</g>
</g>
<!-- Node7 -->
<g id="Node000007" class="node">
<title>Node7</title>
<g id="a_Node000007"><a xlink:title=" ">
<polygon fill="#e0e0e0" stroke="#999999" points="390,-134.25 297.5,-134.25 297.5,-113.5 390,-113.5 390,-134.25"/>
<text text-anchor="middle" x="343.75" y="-120.75" font-family="Helvetica,sans-Serif" font-size="10.00">unordered_map</text>
</a>
</g>
</g>
<!-- Node2&#45;&gt;Node7 -->
<g id="edge6_Node000002_Node000007" class="edge">
<title>Node2&#45;&gt;Node7</title>
<g id="a_edge6_Node000002_Node000007"><a xlink:title=" ">
<path fill="none" stroke="#63b8ff" d="M471.86,-169.84C446.87,-161.07 409.98,-148.12 382.19,-138.37"/>
<polygon fill="#63b8ff" stroke="#63b8ff" points="383.68,-135.18 373.09,-135.17 381.37,-141.79 383.68,-135.18"/>
</a>
</g>
</g>
<!-- Node8 -->
<g id="Node000008" class="node">
<title>Node8</title>
<g id="a_Node000008"><a xlink:title=" ">
<polygon fill="#e0e0e0" stroke="#999999" points="598.12,-134.25 551.38,-134.25 551.38,-113.5 598.12,-113.5 598.12,-134.25"/>
<text text-anchor="middle" x="574.75" y="-120.75" font-family="Helvetica,sans-Serif" font-size="10.00">vector</text>
</a>
</g>
</g>
<!-- Node2&#45;&gt;Node8 -->
<g id="edge7_Node000002_Node000008" class="edge">
<title>Node2&#45;&gt;Node8</title>
<g id="a_edge7_Node000002_Node000008"><a xlink:title=" ">
<path fill="none" stroke="#63b8ff" d="M513.16,-169.84C524.04,-161.9 539.61,-150.53 552.37,-141.21"/>
<polygon fill="#63b8ff" stroke="#63b8ff" points="554.22,-144.19 560.24,-135.47 550.09,-138.54 554.22,-144.19"/>
</a>
</g>
</g>
<!-- Node10 -->
<g id="Node000010" class="node">
<title>Node10</title>
<g id="a_Node000010"><a xlink:title=" ">
<polygon fill="#e0e0e0" stroke="#999999" points="723.75,-134.25 653.75,-134.25 653.75,-113.5 723.75,-113.5 723.75,-134.25"/>
<text text-anchor="middle" x="688.75" y="-120.75" font-family="Helvetica,sans-Serif" font-size="10.00">glad/glad.h</text>
</a>
</g>
</g>
<!-- Node9&#45;&gt;Node10 -->
<g id="edge9_Node000009_Node000010" class="edge">
<title>Node9&#45;&gt;Node10</title>
<g id="a_edge9_Node000009_Node000010"><a xlink:title=" ">
<path fill="none" stroke="#63b8ff" d="M290.68,-174.86C370.4,-164.85 555.15,-141.65 642.02,-130.74"/>
<polygon fill="#63b8ff" stroke="#63b8ff" points="642.37,-134.23 651.86,-129.51 641.5,-127.28 642.37,-134.23"/>
</a>
</g>
</g>
<!-- Node11 -->
<g id="Node000011" class="node">
<title>Node11</title>
<g id="a_Node000011"><a xlink:title=" ">
<polygon fill="#e0e0e0" stroke="#999999" points="83.5,-134.25 0,-134.25 0,-113.5 83.5,-113.5 83.5,-134.25"/>
<text text-anchor="middle" x="41.75" y="-120.75" font-family="Helvetica,sans-Serif" font-size="10.00">GLFW/glfw3.h</text>
</a>
</g>
</g>
<!-- Node9&#45;&gt;Node11 -->
<g id="edge10_Node000009_Node000011" class="edge">
<title>Node9&#45;&gt;Node11</title>
<g id="a_edge10_Node000009_Node000011"><a xlink:title=" ">
<path fill="none" stroke="#63b8ff" d="M215.03,-169.84C180.18,-160.79 128.22,-147.31 90.29,-137.47"/>
<polygon fill="#63b8ff" stroke="#63b8ff" points="91.52,-134.17 80.97,-135.05 89.77,-140.95 91.52,-134.17"/>
</a>
</g>
</g>
<!-- Node12 -->
<g id="Node000012" class="node">
<title>Node12</title>
<g id="a_Node000012"><a xlink:title=" ">
<polygon fill="#e0e0e0" stroke="#999999" points="773.62,-20.75 729.88,-20.75 729.88,0 773.62,0 773.62,-20.75"/>
<text text-anchor="middle" x="751.75" y="-7.25" font-family="Helvetica,sans-Serif" font-size="10.00">string</text>
</a>
</g>
</g>
<!-- Node9&#45;&gt;Node12 -->
<g id="edge11_Node000009_Node000012" class="edge">
<title>Node9&#45;&gt;Node12</title>
<g id="a_edge11_Node000009_Node000012"><a xlink:title=" ">
<path fill="none" stroke="#63b8ff" d="M214.87,-173.45C169.73,-164.52 103.62,-145.46 130.75,-113.5 207.41,-23.2 599.7,-12.6 717.96,-11.47"/>
<polygon fill="#63b8ff" stroke="#63b8ff" points="717.98,-14.97 727.95,-11.4 717.92,-7.97 717.98,-14.97"/>
</a>
</g>
</g>
<!-- Node13&#45;&gt;Node2 -->
<g id="edge13_Node000013_Node000002" class="edge">
<title>Node13&#45;&gt;Node2</title>
<g id="a_edge13_Node000013_Node000002"><a xlink:title=" ">
<path fill="none" stroke="#63b8ff" d="M846.99,-405.47C760.67,-402.68 615.26,-393.23 573.75,-361.25 560.35,-350.93 522.51,-246.48 506.76,-201.77"/>
<polygon fill="#63b8ff" stroke="#63b8ff" points="510.13,-200.8 503.52,-192.52 503.53,-203.11 510.13,-200.8"/>
</a>
</g>
</g>
<!-- Node13&#45;&gt;Node8 -->
<g id="edge57_Node000013_Node000008" class="edge">
<title>Node13&#45;&gt;Node8</title>
<g id="a_edge57_Node000013_Node000008"><a xlink:title=" ">
<path fill="none" stroke="#63b8ff" d="M846.98,-397.67C752.02,-382.86 587.75,-349.41 587.75,-295.12 587.75,-295.12 587.75,-295.12 587.75,-236.38 587.75,-204.62 582.48,-168.12 578.66,-145.78"/>
<polygon fill="#63b8ff" stroke="#63b8ff" points="582.14,-145.39 576.93,-136.16 575.25,-146.62 582.14,-145.39"/>
</a>
</g>
</g>
<!-- Node14 -->
<g id="Node000014" class="node">
<title>Node14</title>
<g id="a_Node000014"><a xlink:href="Object_8hpp.html" target="_top" xlink:title="Defines the Object class, a special ECS entity wrapper.">
<polygon fill="white" stroke="#666666" points="1011.12,-304.5 904.38,-304.5 904.38,-283.75 1011.12,-283.75 1011.12,-304.5"/>
<text text-anchor="middle" x="957.75" y="-291" font-family="Helvetica,sans-Serif" font-size="10.00">objects/Object.hpp</text>
</a>
</g>
</g>
<!-- Node13&#45;&gt;Node14 -->
<g id="edge14_Node000013_Node000014" class="edge">
<title>Node13&#45;&gt;Node14</title>
<g id="a_edge14_Node000013_Node000014"><a xlink:title=" ">
<path fill="none" stroke="#63b8ff" d="M914.76,-396.96C917.65,-383.86 923.56,-359.86 931.75,-340.5 935.49,-331.65 940.59,-322.35 945.28,-314.5"/>
<polygon fill="#63b8ff" stroke="#63b8ff" points="948.16,-316.49 950.45,-306.15 942.21,-312.8 948.16,-316.49"/>
</a>
</g>
</g>
<!-- Node30 -->
<g id="Node000030" class="node">
<title>Node30</title>
<g id="a_Node000030"><a xlink:href="PointLight_8hpp_source.html" target="_top" xlink:title=" ">
<polygon fill="white" stroke="#666666" points="1064.75,-361.25 940.75,-361.25 940.75,-340.5 1064.75,-340.5 1064.75,-361.25"/>
<text text-anchor="middle" x="1002.75" y="-347.75" font-family="Helvetica,sans-Serif" font-size="10.00">objects/PointLight.hpp</text>
</a>
</g>
</g>
<!-- Node13&#45;&gt;Node30 -->
<g id="edge45_Node000013_Node000030" class="edge">
<title>Node13&#45;&gt;Node30</title>
<g id="a_edge45_Node000013_Node000030"><a xlink:title=" ">
<path fill="none" stroke="#63b8ff" d="M928.84,-396.84C942.28,-388.66 961.68,-376.86 977.24,-367.4"/>
<polygon fill="#63b8ff" stroke="#63b8ff" points="978.78,-370.55 985.51,-362.37 975.14,-364.57 978.78,-370.55"/>
</a>
</g>
</g>
<!-- Node31 -->
<g id="Node000031" class="node">
<title>Node31</title>
<g id="a_Node000031"><a xlink:href="Camera_8hpp.html" target="_top" xlink:title="Defines the Camera class for view and projection.">
<polygon fill="white" stroke="#666666" points="1467.12,-361.25 1342.38,-361.25 1342.38,-340.5 1467.12,-340.5 1467.12,-361.25"/>
<text text-anchor="middle" x="1404.75" y="-347.75" font-family="Helvetica,sans-Serif" font-size="10.00">rendering/Camera.hpp</text>
</a>
</g>
</g>
<!-- Node13&#45;&gt;Node31 -->
<g id="edge48_Node000013_Node000031" class="edge">
<title>Node13&#45;&gt;Node31</title>
<g id="a_edge48_Node000013_Node000031"><a xlink:title=" ">
<path fill="none" stroke="#63b8ff" d="M978.59,-399.3C1070.06,-389.12 1235.07,-370.76 1330.71,-360.11"/>
<polygon fill="#63b8ff" stroke="#63b8ff" points="1330.96,-363.61 1340.51,-359.02 1330.19,-356.65 1330.96,-363.61"/>
</a>
</g>
</g>
<!-- Node32 -->
<g id="Node000032" class="node">
<title>Node32</title>
<g id="a_Node000032"><a xlink:href="Shader_8hpp.html" target="_top" xlink:title="Manages OpenGL shaders.">
<polygon fill="white" stroke="#666666" points="1275.88,-247.75 1155.62,-247.75 1155.62,-227 1275.88,-227 1275.88,-247.75"/>
<text text-anchor="middle" x="1215.75" y="-234.25" font-family="Helvetica,sans-Serif" font-size="10.00">rendering/Shader.hpp</text>
</a>
</g>
</g>
<!-- Node13&#45;&gt;Node32 -->
<g id="edge52_Node000013_Node000032" class="edge">
<title>Node13&#45;&gt;Node32</title>
<g id="a_edge52_Node000013_Node000032"><a xlink:title=" ">
<path fill="none" stroke="#63b8ff" d="M969.34,-396.77C1001.25,-389.75 1041.12,-378.45 1073.75,-361.25 1126.12,-333.65 1175.64,-283.38 1200.01,-256.49"/>
<polygon fill="#63b8ff" stroke="#63b8ff" points="1202.5,-258.95 1206.53,-249.16 1197.27,-254.3 1202.5,-258.95"/>
</a>
</g>
</g>
<!-- Node15 -->
<g id="Node000015" class="node">
<title>Node15</title>
<g id="a_Node000015"><a xlink:href="Entity_8hpp.html" target="_top" xlink:title="Defines the Entity class, which serves as a wrapper for ECS entities.">
<polygon fill="white" stroke="#666666" points="885.75,-247.75 821.75,-247.75 821.75,-227 885.75,-227 885.75,-247.75"/>
<text text-anchor="middle" x="853.75" y="-234.25" font-family="Helvetica,sans-Serif" font-size="10.00">Entity.hpp</text>
</a>
</g>
</g>
<!-- Node14&#45;&gt;Node15 -->
<g id="edge15_Node000014_Node000015" class="edge">
<title>Node14&#45;&gt;Node15</title>
<g id="a_edge15_Node000014_Node000015"><a xlink:title=" ">
<path fill="none" stroke="#63b8ff" d="M939.16,-283.34C923.33,-275.01 900.35,-262.91 882.21,-253.36"/>
<polygon fill="#63b8ff" stroke="#63b8ff" points="884,-250.34 873.52,-248.78 880.74,-256.54 884,-250.34"/>
</a>
</g>
</g>
<!-- Node24 -->
<g id="Node000024" class="node">
<title>Node24</title>
<g id="a_Node000024"><a xlink:href="TransformComponent_8hpp.html" target="_top" xlink:title="Defines the TransformComponent for ECS&#45;based spatial transformations.">
<polygon fill="white" stroke="#666666" points="1499.62,-247.75 1293.88,-247.75 1293.88,-227 1499.62,-227 1499.62,-247.75"/>
<text text-anchor="middle" x="1396.75" y="-234.25" font-family="Helvetica,sans-Serif" font-size="10.00">components/TransformComponent.hpp</text>
</a>
</g>
</g>
<!-- Node14&#45;&gt;Node24 -->
<g id="edge27_Node000014_Node000024" class="edge">
<title>Node14&#45;&gt;Node24</title>
<g id="a_edge27_Node000014_Node000024"><a xlink:title=" ">
<path fill="none" stroke="#63b8ff" d="M1011.58,-286.41C1084.95,-277.26 1217.36,-260.75 1306.17,-249.67"/>
<polygon fill="#63b8ff" stroke="#63b8ff" points="1306.59,-253.15 1316.08,-248.44 1305.73,-246.2 1306.59,-253.15"/>
</a>
</g>
</g>
<!-- Node29 -->
<g id="Node000029" class="node">
<title>Node29</title>
<g id="a_Node000029"><a xlink:href="Mesh_8hpp.html" target="_top" xlink:title="Defines the Mesh class for managing 3D geometry.">
<polygon fill="white" stroke="#666666" points="736.12,-191 623.38,-191 623.38,-170.25 736.12,-170.25 736.12,-191"/>
<text text-anchor="middle" x="679.75" y="-177.5" font-family="Helvetica,sans-Serif" font-size="10.00">rendering/Mesh.hpp</text>
</a>
</g>
</g>
<!-- Node14&#45;&gt;Node29 -->
<g id="edge40_Node000014_Node000029" class="edge">
<title>Node14&#45;&gt;Node29</title>
<g id="a_edge40_Node000014_Node000029"><a xlink:title=" ">
<path fill="none" stroke="#63b8ff" d="M920.84,-283.32C891.2,-275.03 848.73,-262.22 812.75,-247.75 775.11,-232.61 733.5,-211.11 707.02,-196.78"/>
<polygon fill="#63b8ff" stroke="#63b8ff" points="708.77,-193.74 698.31,-192.02 705.41,-199.89 708.77,-193.74"/>
</a>
</g>
</g>
<!-- Node15&#45;&gt;Node2 -->
<g id="edge25_Node000015_Node000002" class="edge">
<title>Node15&#45;&gt;Node2</title>
<g id="a_edge25_Node000015_Node000002"><a xlink:title=" ">
<path fill="none" stroke="#63b8ff" d="M821.4,-231.37C759.26,-221.76 622.89,-200.67 549.25,-189.28"/>
<polygon fill="#63b8ff" stroke="#63b8ff" points="549.91,-185.84 539.49,-187.77 548.84,-192.76 549.91,-185.84"/>
</a>
</g>
</g>
<!-- Node16 -->
<g id="Node000016" class="node">
<title>Node16</title>
<g id="a_Node000016"><a xlink:href="Logger_8hpp.html" target="_top" xlink:title="Provides logging functionality.">
<polygon fill="white" stroke="#666666" points="1058.75,-191 988.75,-191 988.75,-170.25 1058.75,-170.25 1058.75,-191"/>
<text text-anchor="middle" x="1023.75" y="-177.5" font-family="Helvetica,sans-Serif" font-size="10.00">Logger.hpp</text>
</a>
</g>
</g>
<!-- Node15&#45;&gt;Node16 -->
<g id="edge16_Node000015_Node000016" class="edge">
<title>Node15&#45;&gt;Node16</title>
<g id="a_edge16_Node000015_Node000016"><a xlink:title=" ">
<path fill="none" stroke="#63b8ff" d="M884.14,-226.59C911.62,-217.74 952.29,-204.64 982.66,-194.86"/>
<polygon fill="#63b8ff" stroke="#63b8ff" points="983.45,-198.28 991.89,-191.88 981.3,-191.62 983.45,-198.28"/>
</a>
</g>
</g>
<!-- Node21 -->
<g id="Node000021" class="node">
<title>Node21</title>
<g id="a_Node000021"><a xlink:title=" ">
<polygon fill="#e0e0e0" stroke="#999999" points="877.5,-134.25 818,-134.25 818,-113.5 877.5,-113.5 877.5,-134.25"/>
<text text-anchor="middle" x="847.75" y="-120.75" font-family="Helvetica,sans-Serif" font-size="10.00">iostream</text>
</a>
</g>
</g>
<!-- Node15&#45;&gt;Node21 -->
<g id="edge26_Node000015_Node000021" class="edge">
<title>Node15&#45;&gt;Node21</title>
<g id="a_edge26_Node000015_Node000021"><a xlink:title=" ">
<path fill="none" stroke="#63b8ff" d="M853.24,-226.87C852.28,-209.02 850.18,-170.11 848.88,-145.84"/>
<polygon fill="#63b8ff" stroke="#63b8ff" points="852.39,-145.98 848.36,-136.19 845.4,-146.36 852.39,-145.98"/>
</a>
</g>
</g>
<!-- Node16&#45;&gt;Node12 -->
<g id="edge24_Node000016_Node000012" class="edge">
<title>Node16&#45;&gt;Node12</title>
<g id="a_edge24_Node000016_Node000012"><a xlink:title=" ">
<path fill="none" stroke="#63b8ff" d="M999.11,-169.85C978.68,-161.4 949.15,-148.34 924.75,-134.25 866.93,-100.86 804.26,-53.16 772.6,-28.15"/>
<polygon fill="#63b8ff" stroke="#63b8ff" points="774.99,-25.58 764.99,-22.09 770.64,-31.06 774.99,-25.58"/>
</a>
</g>
</g>
<!-- Node17 -->
<g id="Node000017" class="node">
<title>Node17</title>
<g id="a_Node000017"><a xlink:title=" ">
<polygon fill="#e0e0e0" stroke="#999999" points="1048.25,-134.25 999.25,-134.25 999.25,-113.5 1048.25,-113.5 1048.25,-134.25"/>
<text text-anchor="middle" x="1023.75" y="-120.75" font-family="Helvetica,sans-Serif" font-size="10.00">chrono</text>
</a>
</g>
</g>
<!-- Node16&#45;&gt;Node17 -->
<g id="edge17_Node000016_Node000017" class="edge">
<title>Node16&#45;&gt;Node17</title>
<g id="a_edge17_Node000016_Node000017"><a xlink:title=" ">
<path fill="none" stroke="#63b8ff" d="M1023.75,-169.84C1023.75,-163.22 1023.75,-154.22 1023.75,-146.02"/>
<polygon fill="#63b8ff" stroke="#63b8ff" points="1027.25,-146.09 1023.75,-136.09 1020.25,-146.09 1027.25,-146.09"/>
</a>
</g>
</g>
<!-- Node18 -->
<g id="Node000018" class="node">
<title>Node18</title>
<g id="a_Node000018"><a xlink:title=" ">
<polygon fill="#e0e0e0" stroke="#999999" points="1137.12,-134.25 1066.38,-134.25 1066.38,-113.5 1137.12,-113.5 1137.12,-134.25"/>
<text text-anchor="middle" x="1101.75" y="-120.75" font-family="Helvetica,sans-Serif" font-size="10.00">fmt/printf.h</text>
</a>
</g>
</g>
<!-- Node16&#45;&gt;Node18 -->
<g id="edge18_Node000016_Node000018" class="edge">
<title>Node16&#45;&gt;Node18</title>
<g id="a_edge18_Node000016_Node000018"><a xlink:title=" ">
<path fill="none" stroke="#63b8ff" d="M1037.69,-169.84C1049.12,-161.82 1065.52,-150.31 1078.86,-140.94"/>
<polygon fill="#63b8ff" stroke="#63b8ff" points="1080.51,-144.06 1086.69,-135.45 1076.49,-138.33 1080.51,-144.06"/>
</a>
</g>
</g>
<!-- Node19 -->
<g id="Node000019" class="node">
<title>Node19</title>
<g id="a_Node000019"><a xlink:title=" ">
<polygon fill="#e0e0e0" stroke="#999999" points="1209.88,-134.25 1155.62,-134.25 1155.62,-113.5 1209.88,-113.5 1209.88,-134.25"/>
<text text-anchor="middle" x="1182.75" y="-120.75" font-family="Helvetica,sans-Serif" font-size="10.00">fstream</text>
</a>
</g>
</g>
<!-- Node16&#45;&gt;Node19 -->
<g id="edge19_Node000016_Node000019" class="edge">
<title>Node16&#45;&gt;Node19</title>
<g id="a_edge19_Node000016_Node000019"><a xlink:title=" ">
<path fill="none" stroke="#63b8ff" d="M1052.18,-169.84C1077.96,-160.96 1116.18,-147.8 1144.61,-138.01"/>
<polygon fill="#63b8ff" stroke="#63b8ff" points="1145.62,-141.36 1153.94,-134.8 1143.34,-134.74 1145.62,-141.36"/>
</a>
</g>
</g>
<!-- Node20 -->
<g id="Node000020" class="node">
<title>Node20</title>
<g id="a_Node000020"><a xlink:title=" ">
<polygon fill="#e0e0e0" stroke="#999999" points="1435.62,-134.25 1379.88,-134.25 1379.88,-113.5 1435.62,-113.5 1435.62,-134.25"/>
<text text-anchor="middle" x="1407.75" y="-120.75" font-family="Helvetica,sans-Serif" font-size="10.00">iomanip</text>
</a>
</g>
</g>
<!-- Node16&#45;&gt;Node20 -->
<g id="edge20_Node000016_Node000020" class="edge">
<title>Node16&#45;&gt;Node20</title>
<g id="a_edge20_Node000016_Node000020"><a xlink:title=" ">
<path fill="none" stroke="#63b8ff" d="M1059.19,-174.57C1131.01,-164.33 1293.25,-141.2 1368.3,-130.5"/>
<polygon fill="#63b8ff" stroke="#63b8ff" points="1368.67,-133.98 1378.07,-129.11 1367.68,-127.05 1368.67,-133.98"/>
</a>
</g>
</g>
<!-- Node16&#45;&gt;Node21 -->
<g id="edge21_Node000016_Node000021" class="edge">
<title>Node16&#45;&gt;Node21</title>
<g id="a_edge21_Node000016_Node000021"><a xlink:title=" ">
<path fill="none" stroke="#63b8ff" d="M992.28,-169.84C963.27,-160.81 920.05,-147.37 888.43,-137.53"/>
<polygon fill="#63b8ff" stroke="#63b8ff" points="889.8,-134.29 879.21,-134.66 887.72,-140.98 889.8,-134.29"/>
</a>
</g>
</g>
<!-- Node22 -->
<g id="Node000022" class="node">
<title>Node22</title>
<g id="a_Node000022"><a xlink:title=" ">
<polygon fill="#e0e0e0" stroke="#999999" points="981.5,-134.25 934,-134.25 934,-113.5 981.5,-113.5 981.5,-134.25"/>
<text text-anchor="middle" x="957.75" y="-120.75" font-family="Helvetica,sans-Serif" font-size="10.00">mutex</text>
</a>
</g>
</g>
<!-- Node16&#45;&gt;Node22 -->
<g id="edge22_Node000016_Node000022" class="edge">
<title>Node16&#45;&gt;Node22</title>
<g id="a_edge22_Node000016_Node000022"><a xlink:title=" ">
<path fill="none" stroke="#63b8ff" d="M1011.95,-169.84C1002.57,-162.05 989.21,-150.97 978.11,-141.76"/>
<polygon fill="#63b8ff" stroke="#63b8ff" points="980.54,-139.24 970.61,-135.54 976.07,-144.62 980.54,-139.24"/>
</a>
</g>
</g>
<!-- Node23 -->
<g id="Node000023" class="node">
<title>Node23</title>
<g id="a_Node000023"><a xlink:title=" ">
<polygon fill="#e0e0e0" stroke="#999999" points="1379.62,-20.75 1323.88,-20.75 1323.88,0 1379.62,0 1379.62,-20.75"/>
<text text-anchor="middle" x="1351.75" y="-7.25" font-family="Helvetica,sans-Serif" font-size="10.00">sstream</text>
</a>
</g>
</g>
<!-- Node16&#45;&gt;Node23 -->
<g id="edge23_Node000016_Node000023" class="edge">
<title>Node16&#45;&gt;Node23</title>
<g id="a_edge23_Node000016_Node000023"><a xlink:title=" ">
<path fill="none" stroke="#63b8ff" d="M1059.11,-176.88C1099.7,-172.52 1167.3,-161.51 1218.75,-134.25 1232.14,-127.16 1300.78,-61.07 1333.87,-28.86"/>
<polygon fill="#63b8ff" stroke="#63b8ff" points="1336.02,-31.65 1340.74,-22.16 1331.14,-26.64 1336.02,-31.65"/>
</a>
</g>
</g>
<!-- Node25 -->
<g id="Node000025" class="node">
<title>Node25</title>
<g id="a_Node000025"><a xlink:href="Matrix4_8hpp.html" target="_top" xlink:title="Defines the Matrix4 class for 3D transformation operations.">
<polygon fill="white" stroke="#666666" points="1509.25,-191 1406.25,-191 1406.25,-170.25 1509.25,-170.25 1509.25,-191"/>
<text text-anchor="middle" x="1457.75" y="-177.5" font-family="Helvetica,sans-Serif" font-size="10.00">math/Matrix4.hpp</text>
</a>
</g>
</g>
<!-- Node24&#45;&gt;Node25 -->
<g id="edge28_Node000024_Node000025" class="edge">
<title>Node24&#45;&gt;Node25</title>
<g id="a_edge28_Node000024_Node000025"><a xlink:title=" ">
<path fill="none" stroke="#63b8ff" d="M1407.66,-226.59C1416.24,-218.88 1428.42,-207.95 1438.63,-198.79"/>
<polygon fill="#63b8ff" stroke="#63b8ff" points="1440.71,-201.62 1445.81,-192.34 1436.03,-196.41 1440.71,-201.62"/>
</a>
</g>
</g>
<!-- Node26 -->
<g id="Node000026" class="node">
<title>Node26</title>
<g id="a_Node000026"><a xlink:href="Quaternion_8hpp.html" target="_top" xlink:title="Defines the Quaternion class for representing 3D rotations.">
<polygon fill="white" stroke="#666666" points="1583.25,-134.25 1492.25,-134.25 1492.25,-113.5 1583.25,-113.5 1583.25,-134.25"/>
<text text-anchor="middle" x="1537.75" y="-120.75" font-family="Helvetica,sans-Serif" font-size="10.00">Quaternion.hpp</text>
</a>
</g>
</g>
<!-- Node24&#45;&gt;Node26 -->
<g id="edge38_Node000024_Node000026" class="edge">
<title>Node24&#45;&gt;Node26</title>
<g id="a_edge38_Node000024_Node000026"><a xlink:title=" ">
<path fill="none" stroke="#63b8ff" d="M1454.67,-226.55C1477.41,-219.98 1502.01,-209.07 1518.75,-191 1530.05,-178.8 1534.68,-160.31 1536.55,-145.99"/>
<polygon fill="#63b8ff" stroke="#63b8ff" points="1540.02,-146.51 1537.45,-136.24 1533.05,-145.87 1540.02,-146.51"/>
</a>
</g>
</g>
<!-- Node27 -->
<g id="Node000027" class="node">
<title>Node27</title>
<g id="a_Node000027"><a xlink:href="Vector3_8hpp.html" target="_top" xlink:title="Defines the Vector3 class.">
<polygon fill="white" stroke="#666666" points="1389,-77.5 1314.5,-77.5 1314.5,-56.75 1389,-56.75 1389,-77.5"/>
<text text-anchor="middle" x="1351.75" y="-64" font-family="Helvetica,sans-Serif" font-size="10.00">Vector3.hpp</text>
</a>
</g>
</g>
<!-- Node24&#45;&gt;Node27 -->
<g id="edge39_Node000024_Node000027" class="edge">
<title>Node24&#45;&gt;Node27</title>
<g id="a_edge39_Node000024_Node000027"><a xlink:title=" ">
<path fill="none" stroke="#63b8ff" d="M1394.2,-226.85C1387.12,-200.37 1367.08,-125.43 1357.28,-88.8"/>
<polygon fill="#63b8ff" stroke="#63b8ff" points="1360.74,-88.19 1354.77,-79.43 1353.98,-89.99 1360.74,-88.19"/>
</a>
</g>
</g>
<!-- Node25&#45;&gt;Node20 -->
<g id="edge36_Node000025_Node000020" class="edge">
<title>Node25&#45;&gt;Node20</title>
<g id="a_edge36_Node000025_Node000020"><a xlink:title=" ">
<path fill="none" stroke="#63b8ff" d="M1448.81,-169.84C1441.99,-162.36 1432.39,-151.86 1424.19,-142.88"/>
<polygon fill="#63b8ff" stroke="#63b8ff" points="1426.96,-140.72 1417.63,-135.7 1421.79,-145.44 1426.96,-140.72"/>
</a>
</g>
</g>
<!-- Node25&#45;&gt;Node23 -->
<g id="edge37_Node000025_Node000023" class="edge">
<title>Node25&#45;&gt;Node23</title>
<g id="a_edge37_Node000025_Node000023"><a xlink:title=" ">
<path fill="none" stroke="#63b8ff" d="M1509.31,-173.54C1556.57,-165.65 1615.95,-148.53 1592.75,-113.5 1547.65,-45.41 1447.1,-22.59 1391.18,-15.04"/>
<polygon fill="#63b8ff" stroke="#63b8ff" points="1391.82,-11.59 1381.46,-13.83 1390.96,-18.54 1391.82,-11.59"/>
</a>
</g>
</g>
<!-- Node25&#45;&gt;Node26 -->
<g id="edge29_Node000025_Node000026" class="edge">
<title>Node25&#45;&gt;Node26</title>
<g id="a_edge29_Node000025_Node000026"><a xlink:title=" ">
<path fill="none" stroke="#63b8ff" d="M1472.05,-169.84C1483.77,-161.82 1500.59,-150.31 1514.28,-140.94"/>
<polygon fill="#63b8ff" stroke="#63b8ff" points="1516.05,-143.97 1522.32,-135.43 1512.09,-138.19 1516.05,-143.97"/>
</a>
</g>
</g>
<!-- Node25&#45;&gt;Node27 -->
<g id="edge35_Node000025_Node000027" class="edge">
<title>Node25&#45;&gt;Node27</title>
<g id="a_edge35_Node000025_Node000027"><a xlink:title=" ">
<path fill="none" stroke="#63b8ff" d="M1458.39,-170.02C1458.8,-156.1 1457.59,-130.19 1444.75,-113.5 1433.52,-98.9 1416.37,-88.71 1399.84,-81.75"/>
<polygon fill="#63b8ff" stroke="#63b8ff" points="1401.13,-78.5 1390.54,-78.17 1398.62,-85.03 1401.13,-78.5"/>
</a>
</g>
</g>
<!-- Node26&#45;&gt;Node27 -->
<g id="edge30_Node000026_Node000027" class="edge">
<title>Node26&#45;&gt;Node27</title>
<g id="a_edge30_Node000026_Node000027"><a xlink:title=" ">
<path fill="none" stroke="#63b8ff" d="M1504.5,-113.09C1474.17,-104.16 1429.15,-90.91 1395.84,-81.1"/>
<polygon fill="#63b8ff" stroke="#63b8ff" points="1397.06,-77.81 1386.48,-78.35 1395.08,-84.53 1397.06,-77.81"/>
</a>
</g>
</g>
<!-- Node28 -->
<g id="Node000028" class="node">
<title>Node28</title>
<g id="a_Node000028"><a xlink:title=" ">
<polygon fill="#e0e0e0" stroke="#999999" points="1577.12,-20.75 1530.38,-20.75 1530.38,0 1577.12,0 1577.12,-20.75"/>
<text text-anchor="middle" x="1553.75" y="-7.25" font-family="Helvetica,sans-Serif" font-size="10.00">cmath</text>
</a>
</g>
</g>
<!-- Node26&#45;&gt;Node28 -->
<g id="edge34_Node000026_Node000028" class="edge">
<title>Node26&#45;&gt;Node28</title>
<g id="a_edge34_Node000026_Node000028"><a xlink:title=" ">
<path fill="none" stroke="#63b8ff" d="M1539.11,-113.37C1541.68,-95.52 1547.26,-56.61 1550.74,-32.34"/>
<polygon fill="#63b8ff" stroke="#63b8ff" points="1554.17,-33.07 1552.13,-22.67 1547.24,-32.07 1554.17,-33.07"/>
</a>
</g>
</g>
<!-- Node27&#45;&gt;Node12 -->
<g id="edge33_Node000027_Node000012" class="edge">
<title>Node27&#45;&gt;Node12</title>
<g id="a_edge33_Node000027_Node000012"><a xlink:title=" ">
<path fill="none" stroke="#63b8ff" d="M1314.22,-62.7C1205.14,-52.75 889.36,-23.93 785.39,-14.44"/>
<polygon fill="#63b8ff" stroke="#63b8ff" points="785.84,-10.97 775.56,-13.55 785.21,-17.94 785.84,-10.97"/>
</a>
</g>
</g>
<!-- Node27&#45;&gt;Node23 -->
<g id="edge32_Node000027_Node000023" class="edge">
<title>Node27&#45;&gt;Node23</title>
<g id="a_edge32_Node000027_Node000023"><a xlink:title=" ">
<path fill="none" stroke="#63b8ff" d="M1351.75,-56.34C1351.75,-49.72 1351.75,-40.72 1351.75,-32.52"/>
<polygon fill="#63b8ff" stroke="#63b8ff" points="1355.25,-32.59 1351.75,-22.59 1348.25,-32.59 1355.25,-32.59"/>
</a>
</g>
</g>
<!-- Node27&#45;&gt;Node28 -->
<g id="edge31_Node000027_Node000028" class="edge">
<title>Node27&#45;&gt;Node28</title>
<g id="a_edge31_Node000027_Node000028"><a xlink:title=" ">
<path fill="none" stroke="#63b8ff" d="M1387.86,-56.34C1424.93,-46.29 1482.22,-30.76 1518.84,-20.84"/>
<polygon fill="#63b8ff" stroke="#63b8ff" points="1519.76,-24.21 1528.5,-18.22 1517.93,-17.46 1519.76,-24.21"/>
</a>
</g>
</g>
<!-- Node29&#45;&gt;Node8 -->
<g id="edge44_Node000029_Node000008" class="edge">
<title>Node29&#45;&gt;Node8</title>
<g id="a_edge44_Node000029_Node000008"><a xlink:title=" ">
<path fill="none" stroke="#63b8ff" d="M660.98,-169.84C645,-161.51 621.8,-149.41 603.49,-139.86"/>
<polygon fill="#63b8ff" stroke="#63b8ff" points="605.19,-136.8 594.7,-135.28 601.95,-143.01 605.19,-136.8"/>
</a>
</g>
</g>
<!-- Node29&#45;&gt;Node10 -->
<g id="edge42_Node000029_Node000010" class="edge">
<title>Node29&#45;&gt;Node10</title>
<g id="a_edge42_Node000029_Node000010"><a xlink:title=" ">
<path fill="none" stroke="#63b8ff" d="M681.36,-169.84C682.46,-163.14 683.96,-154.01 685.32,-145.73"/>
<polygon fill="#63b8ff" stroke="#63b8ff" points="688.74,-146.51 686.91,-136.07 681.83,-145.37 688.74,-146.51"/>
</a>
</g>
</g>
<!-- Node29&#45;&gt;Node12 -->
<g id="edge43_Node000029_Node000012" class="edge">
<title>Node29&#45;&gt;Node12</title>
<g id="a_edge43_Node000029_Node000012"><a xlink:title=" ">
<path fill="none" stroke="#63b8ff" d="M668.54,-170.01C655.22,-157.36 635.86,-134.28 644.75,-113.5 661.07,-75.36 699.41,-44.69 725.47,-27.24"/>
<polygon fill="#63b8ff" stroke="#63b8ff" points="727.35,-30.2 733.85,-21.83 723.55,-24.32 727.35,-30.2"/>
</a>
</g>
</g>
<!-- Node29&#45;&gt;Node27 -->
<g id="edge41_Node000029_Node000027" class="edge">
<title>Node29&#45;&gt;Node27</title>
<g id="a_edge41_Node000029_Node000027"><a xlink:title=" ">
<path fill="none" stroke="#63b8ff" d="M694.06,-169.9C717.06,-154.82 764.23,-126.23 808.75,-113.5 900.97,-87.13 1187.81,-74.07 1303.07,-69.77"/>
<polygon fill="#63b8ff" stroke="#63b8ff" points="1302.95,-73.28 1312.81,-69.42 1302.69,-66.29 1302.95,-73.28"/>
</a>
</g>
</g>
<!-- Node30&#45;&gt;Node14 -->
<g id="edge46_Node000030_Node000014" class="edge">
<title>Node30&#45;&gt;Node14</title>
<g id="a_edge46_Node000030_Node000014"><a xlink:title=" ">
<path fill="none" stroke="#63b8ff" d="M994.7,-340.09C988.69,-332.77 980.28,-322.54 973.01,-313.69"/>
<polygon fill="#63b8ff" stroke="#63b8ff" points="975.74,-311.5 966.69,-306 970.33,-315.95 975.74,-311.5"/>
</a>
</g>
</g>
<!-- Node30&#45;&gt;Node27 -->
<g id="edge47_Node000030_Node000027" class="edge">
<title>Node30&#45;&gt;Node27</title>
<g id="a_edge47_Node000030_Node000027"><a xlink:title=" ">
<path fill="none" stroke="#63b8ff" d="M1013.8,-340.13C1037.73,-319.11 1096.27,-268.06 1146.75,-227 1212.16,-173.79 1291.57,-113.41 1329.5,-84.83"/>
<polygon fill="#63b8ff" stroke="#63b8ff" points="1331.54,-87.67 1337.42,-78.86 1327.33,-82.08 1331.54,-87.67"/>
</a>
</g>
</g>
<!-- Node31&#45;&gt;Node14 -->
<g id="edge51_Node000031_Node000014" class="edge">
<title>Node31&#45;&gt;Node14</title>
<g id="a_edge51_Node000031_Node000014"><a xlink:title=" ">
<path fill="none" stroke="#63b8ff" d="M1342.13,-342.2C1257.82,-331.88 1108.55,-313.6 1022.94,-303.11"/>
<polygon fill="#63b8ff" stroke="#63b8ff" points="1023.41,-299.64 1013.06,-301.9 1022.56,-306.59 1023.41,-299.64"/>
</a>
</g>
</g>
<!-- Node31&#45;&gt;Node25 -->
<g id="edge49_Node000031_Node000025" class="edge">
<title>Node31&#45;&gt;Node25</title>
<g id="a_edge49_Node000031_Node000025"><a xlink:title=" ">
<path fill="none" stroke="#63b8ff" d="M1420.93,-340.12C1445.39,-324.29 1490.83,-290.45 1508.75,-247.75 1512.32,-239.25 1512.53,-235.41 1508.75,-227 1503.58,-215.48 1493.89,-205.7 1484.33,-198.19"/>
<polygon fill="#63b8ff" stroke="#63b8ff" points="1486.37,-195.35 1476.21,-192.36 1482.29,-201.04 1486.37,-195.35"/>
</a>
</g>
</g>
<!-- Node31&#45;&gt;Node27 -->
<g id="edge50_Node000031_Node000027" class="edge">
<title>Node31&#45;&gt;Node27</title>
<g id="a_edge50_Node000031_Node000027"><a xlink:title=" ">
<path fill="none" stroke="#63b8ff" d="M1467.42,-342.66C1528.34,-331.75 1611.75,-304.71 1611.75,-238.38 1611.75,-238.38 1611.75,-238.38 1611.75,-179.62 1611.75,-149.05 1615.36,-134.09 1592.75,-113.5 1565.19,-88.41 1462.58,-76.41 1400.48,-71.34"/>
<polygon fill="#63b8ff" stroke="#63b8ff" points="1401.14,-67.88 1390.89,-70.59 1400.59,-74.86 1401.14,-67.88"/>
</a>
</g>
</g>
<!-- Node32&#45;&gt;Node10 -->
<g id="edge55_Node000032_Node000010" class="edge">
<title>Node32&#45;&gt;Node10</title>
<g id="a_edge55_Node000032_Node000010"><a xlink:title=" ">
<path fill="none" stroke="#63b8ff" d="M1155.39,-235.54C1077.69,-233.08 939.16,-223.95 825.75,-191 784.78,-179.1 740.96,-155.88 714.2,-140.37"/>
<polygon fill="#63b8ff" stroke="#63b8ff" points="716.19,-137.48 705.8,-135.42 712.63,-143.51 716.19,-137.48"/>
</a>
</g>
</g>
<!-- Node32&#45;&gt;Node12 -->
<g id="edge56_Node000032_Node000012" class="edge">
<title>Node32&#45;&gt;Node12</title>
<g id="a_edge56_Node000032_Node000012"><a xlink:title=" ">
<path fill="none" stroke="#63b8ff" d="M1155.27,-228.18C1054.87,-213.46 859.78,-179.78 808.75,-134.25 778.01,-106.83 762.65,-59.4 756.02,-32.19"/>
<polygon fill="#63b8ff" stroke="#63b8ff" points="759.5,-31.71 753.89,-22.73 752.67,-33.25 759.5,-31.71"/>
</a>
</g>
</g>
<!-- Node32&#45;&gt;Node25 -->
<g id="edge53_Node000032_Node000025" class="edge">
<title>Node32&#45;&gt;Node25</title>
<g id="a_edge53_Node000032_Node000025"><a xlink:title=" ">
<path fill="none" stroke="#63b8ff" d="M1259.29,-226.52C1299.6,-217.4 1359.7,-203.81 1403.19,-193.97"/>
<polygon fill="#63b8ff" stroke="#63b8ff" points="1403.69,-197.44 1412.67,-191.82 1402.15,-190.62 1403.69,-197.44"/>
</a>
</g>
</g>
<!-- Node32&#45;&gt;Node27 -->
<g id="edge54_Node000032_Node000027" class="edge">
<title>Node32&#45;&gt;Node27</title>
<g id="a_edge54_Node000032_Node000027"><a xlink:title=" ">
<path fill="none" stroke="#63b8ff" d="M1223.45,-226.85C1245.23,-199.91 1307.55,-122.81 1336.56,-86.92"/>
<polygon fill="#63b8ff" stroke="#63b8ff" points="1339.28,-89.12 1342.84,-79.14 1333.83,-84.72 1339.28,-89.12"/>
</a>
</g>
</g>
</g>
</svg>
