<?xml version="1.0" encoding="UTF-8" standalone="no"?>
<!DOCTYPE svg PUBLIC "-//W3C//DTD SVG 1.1//EN"
 "http://www.w3.org/Graphics/SVG/1.1/DTD/svg11.dtd">
<!-- Generated by graphviz version 12.2.1 (0)
 -->
<!-- Title: include/Entity.hpp Pages: 1 -->
<svg width="1049pt" height="142pt"
 viewBox="0.00 0.00 1048.88 142.25" xmlns="http://www.w3.org/2000/svg" xmlns:xlink="http://www.w3.org/1999/xlink">
<g id="graph0" class="graph" transform="scale(1 1) rotate(0) translate(4 138.25)">
<title>include/Entity.hpp</title>
<!-- Node1 -->
<g id="Node000001" class="node">
<title>Node1</title>
<g id="a_Node000001"><a xlink:title="Defines the Entity class, which serves as a wrapper for ECS entities.">
<polygon fill="#999999" stroke="#666666" points="585.62,-134.25 483.38,-134.25 483.38,-113.5 585.62,-113.5 585.62,-134.25"/>
<text text-anchor="middle" x="534.5" y="-120.75" font-family="Helvetica,sans-Serif" font-size="10.00">include/Entity.hpp</text>
</a>
</g>
</g>
<!-- Node2 -->
<g id="Node000002" class="node">
<title>Node2</title>
<g id="a_Node000002"><a xlink:href="Logger_8hpp.html" target="_top" xlink:title="Provides logging functionality.">
<polygon fill="white" stroke="#666666" points="361.5,-77.5 291.5,-77.5 291.5,-56.75 361.5,-56.75 361.5,-77.5"/>
<text text-anchor="middle" x="326.5" y="-64" font-family="Helvetica,sans-Serif" font-size="10.00">Logger.hpp</text>
</a>
</g>
</g>
<!-- Node1&#45;&gt;Node2 -->
<g id="edge1_Node000001_Node000002" class="edge">
<title>Node1&#45;&gt;Node2</title>
<g id="a_edge1_Node000001_Node000002"><a xlink:title=" ">
<path fill="none" stroke="#63b8ff" d="M497.31,-113.09C462.43,-103.9 410.15,-90.14 372.63,-80.27"/>
<polygon fill="#63b8ff" stroke="#63b8ff" points="374,-77.01 363.44,-77.85 372.22,-83.78 374,-77.01"/>
</a>
</g>
</g>
<!-- Node7 -->
<g id="Node000007" class="node">
<title>Node7</title>
<g id="a_Node000007"><a xlink:title=" ">
<polygon fill="#e0e0e0" stroke="#999999" points="564.25,-20.75 504.75,-20.75 504.75,0 564.25,0 564.25,-20.75"/>
<text text-anchor="middle" x="534.5" y="-7.25" font-family="Helvetica,sans-Serif" font-size="10.00">iostream</text>
</a>
</g>
</g>
<!-- Node1&#45;&gt;Node7 -->
<g id="edge17_Node000001_Node000007" class="edge">
<title>Node1&#45;&gt;Node7</title>
<g id="a_edge17_Node000001_Node000007"><a xlink:title=" ">
<path fill="none" stroke="#63b8ff" d="M534.5,-113.37C534.5,-95.6 534.5,-56.97 534.5,-32.68"/>
<polygon fill="#63b8ff" stroke="#63b8ff" points="538,-32.69 534.5,-22.69 531,-32.69 538,-32.69"/>
</a>
</g>
</g>
<!-- Node11 -->
<g id="Node000011" class="node">
<title>Node11</title>
<g id="a_Node000011"><a xlink:href="Registry_8hpp.html" target="_top" xlink:title="Defines the Registry class for managing ECS entities and components.">
<polygon fill="white" stroke="#666666" points="792.5,-77.5 716.5,-77.5 716.5,-56.75 792.5,-56.75 792.5,-77.5"/>
<text text-anchor="middle" x="754.5" y="-64" font-family="Helvetica,sans-Serif" font-size="10.00">Registry.hpp</text>
</a>
</g>
</g>
<!-- Node1&#45;&gt;Node11 -->
<g id="edge10_Node000001_Node000011" class="edge">
<title>Node1&#45;&gt;Node11</title>
<g id="a_edge10_Node000001_Node000011"><a xlink:title=" ">
<path fill="none" stroke="#63b8ff" d="M574.09,-113.02C610.87,-103.87 665.78,-90.2 705.35,-80.36"/>
<polygon fill="#63b8ff" stroke="#63b8ff" points="706.01,-83.8 714.87,-77.99 704.32,-77.01 706.01,-83.8"/>
</a>
</g>
</g>
<!-- Node3 -->
<g id="Node000003" class="node">
<title>Node3</title>
<g id="a_Node000003"><a xlink:title=" ">
<polygon fill="#e0e0e0" stroke="#999999" points="49,-20.75 0,-20.75 0,0 49,0 49,-20.75"/>
<text text-anchor="middle" x="24.5" y="-7.25" font-family="Helvetica,sans-Serif" font-size="10.00">chrono</text>
</a>
</g>
</g>
<!-- Node2&#45;&gt;Node3 -->
<g id="edge2_Node000002_Node000003" class="edge">
<title>Node2&#45;&gt;Node3</title>
<g id="a_edge2_Node000002_Node000003"><a xlink:title=" ">
<path fill="none" stroke="#63b8ff" d="M291.16,-61.31C241.74,-54.32 149.01,-40.28 60.37,-20.97"/>
<polygon fill="#63b8ff" stroke="#63b8ff" points="61.31,-17.59 50.79,-18.85 59.8,-24.43 61.31,-17.59"/>
</a>
</g>
</g>
<!-- Node4 -->
<g id="Node000004" class="node">
<title>Node4</title>
<g id="a_Node000004"><a xlink:title=" ">
<polygon fill="#e0e0e0" stroke="#999999" points="137.88,-20.75 67.12,-20.75 67.12,0 137.88,0 137.88,-20.75"/>
<text text-anchor="middle" x="102.5" y="-7.25" font-family="Helvetica,sans-Serif" font-size="10.00">fmt/printf.h</text>
</a>
</g>
</g>
<!-- Node2&#45;&gt;Node4 -->
<g id="edge3_Node000002_Node000004" class="edge">
<title>Node2&#45;&gt;Node4</title>
<g id="a_edge3_Node000002_Node000004"><a xlink:title=" ">
<path fill="none" stroke="#63b8ff" d="M291.01,-57.45C252.7,-48.09 191.52,-33.13 149.3,-22.81"/>
<polygon fill="#63b8ff" stroke="#63b8ff" points="150.21,-19.43 139.67,-20.46 148.55,-26.23 150.21,-19.43"/>
</a>
</g>
</g>
<!-- Node5 -->
<g id="Node000005" class="node">
<title>Node5</title>
<g id="a_Node000005"><a xlink:title=" ">
<polygon fill="#e0e0e0" stroke="#999999" points="210.62,-20.75 156.38,-20.75 156.38,0 210.62,0 210.62,-20.75"/>
<text text-anchor="middle" x="183.5" y="-7.25" font-family="Helvetica,sans-Serif" font-size="10.00">fstream</text>
</a>
</g>
</g>
<!-- Node2&#45;&gt;Node5 -->
<g id="edge4_Node000002_Node000005" class="edge">
<title>Node2&#45;&gt;Node5</title>
<g id="a_edge4_Node000002_Node000005"><a xlink:title=" ">
<path fill="none" stroke="#63b8ff" d="M300.93,-56.34C278.26,-47.66 244.9,-34.88 219.52,-25.17"/>
<polygon fill="#63b8ff" stroke="#63b8ff" points="220.85,-21.93 210.26,-21.62 218.35,-28.46 220.85,-21.93"/>
</a>
</g>
</g>
<!-- Node6 -->
<g id="Node000006" class="node">
<title>Node6</title>
<g id="a_Node000006"><a xlink:title=" ">
<polygon fill="#e0e0e0" stroke="#999999" points="284.38,-20.75 228.62,-20.75 228.62,0 284.38,0 284.38,-20.75"/>
<text text-anchor="middle" x="256.5" y="-7.25" font-family="Helvetica,sans-Serif" font-size="10.00">iomanip</text>
</a>
</g>
</g>
<!-- Node2&#45;&gt;Node6 -->
<g id="edge5_Node000002_Node000006" class="edge">
<title>Node2&#45;&gt;Node6</title>
<g id="a_edge5_Node000002_Node000006"><a xlink:title=" ">
<path fill="none" stroke="#63b8ff" d="M313.99,-56.34C303.93,-48.47 289.59,-37.25 277.74,-27.99"/>
<polygon fill="#63b8ff" stroke="#63b8ff" points="280.13,-25.41 270.1,-22.01 275.82,-30.93 280.13,-25.41"/>
</a>
</g>
</g>
<!-- Node2&#45;&gt;Node7 -->
<g id="edge6_Node000002_Node000007" class="edge">
<title>Node2&#45;&gt;Node7</title>
<g id="a_edge6_Node000002_Node000007"><a xlink:title=" ">
<path fill="none" stroke="#63b8ff" d="M361.78,-56.84C398.28,-47.23 455.22,-32.24 493.65,-22.13"/>
<polygon fill="#63b8ff" stroke="#63b8ff" points="494.21,-25.6 502.99,-19.67 492.43,-18.83 494.21,-25.6"/>
</a>
</g>
</g>
<!-- Node8 -->
<g id="Node000008" class="node">
<title>Node8</title>
<g id="a_Node000008"><a xlink:title=" ">
<polygon fill="#e0e0e0" stroke="#999999" points="350.25,-20.75 302.75,-20.75 302.75,0 350.25,0 350.25,-20.75"/>
<text text-anchor="middle" x="326.5" y="-7.25" font-family="Helvetica,sans-Serif" font-size="10.00">mutex</text>
</a>
</g>
</g>
<!-- Node2&#45;&gt;Node8 -->
<g id="edge7_Node000002_Node000008" class="edge">
<title>Node2&#45;&gt;Node8</title>
<g id="a_edge7_Node000002_Node000008"><a xlink:title=" ">
<path fill="none" stroke="#63b8ff" d="M326.5,-56.34C326.5,-49.72 326.5,-40.72 326.5,-32.52"/>
<polygon fill="#63b8ff" stroke="#63b8ff" points="330,-32.59 326.5,-22.59 323,-32.59 330,-32.59"/>
</a>
</g>
</g>
<!-- Node9 -->
<g id="Node000009" class="node">
<title>Node9</title>
<g id="a_Node000009"><a xlink:title=" ">
<polygon fill="#e0e0e0" stroke="#999999" points="424.38,-20.75 368.62,-20.75 368.62,0 424.38,0 424.38,-20.75"/>
<text text-anchor="middle" x="396.5" y="-7.25" font-family="Helvetica,sans-Serif" font-size="10.00">sstream</text>
</a>
</g>
</g>
<!-- Node2&#45;&gt;Node9 -->
<g id="edge8_Node000002_Node000009" class="edge">
<title>Node2&#45;&gt;Node9</title>
<g id="a_edge8_Node000002_Node000009"><a xlink:title=" ">
<path fill="none" stroke="#63b8ff" d="M339.01,-56.34C349.07,-48.47 363.41,-37.25 375.26,-27.99"/>
<polygon fill="#63b8ff" stroke="#63b8ff" points="377.18,-30.93 382.9,-22.01 372.87,-25.41 377.18,-30.93"/>
</a>
</g>
</g>
<!-- Node10 -->
<g id="Node000010" class="node">
<title>Node10</title>
<g id="a_Node000010"><a xlink:title=" ">
<polygon fill="#e0e0e0" stroke="#999999" points="486.38,-20.75 442.62,-20.75 442.62,0 486.38,0 486.38,-20.75"/>
<text text-anchor="middle" x="464.5" y="-7.25" font-family="Helvetica,sans-Serif" font-size="10.00">string</text>
</a>
</g>
</g>
<!-- Node2&#45;&gt;Node10 -->
<g id="edge9_Node000002_Node000010" class="edge">
<title>Node2&#45;&gt;Node10</title>
<g id="a_edge9_Node000002_Node000010"><a xlink:title=" ">
<path fill="none" stroke="#63b8ff" d="M351.17,-56.34C373.63,-47.43 406.94,-34.21 431.65,-24.41"/>
<polygon fill="#63b8ff" stroke="#63b8ff" points="432.91,-27.67 440.91,-20.73 430.33,-21.17 432.91,-27.67"/>
</a>
</g>
</g>
<!-- Node12 -->
<g id="Node000012" class="node">
<title>Node12</title>
<g id="a_Node000012"><a xlink:title=" ">
<polygon fill="#e0e0e0" stroke="#999999" points="645.12,-20.75 581.88,-20.75 581.88,0 645.12,0 645.12,-20.75"/>
<text text-anchor="middle" x="613.5" y="-7.25" font-family="Helvetica,sans-Serif" font-size="10.00">algorithm</text>
</a>
</g>
</g>
<!-- Node11&#45;&gt;Node12 -->
<g id="edge11_Node000011_Node000012" class="edge">
<title>Node11&#45;&gt;Node12</title>
<g id="a_edge11_Node000011_Node000012"><a xlink:title=" ">
<path fill="none" stroke="#63b8ff" d="M729.29,-56.34C706.94,-47.66 674.04,-34.88 649.02,-25.17"/>
<polygon fill="#63b8ff" stroke="#63b8ff" points="650.49,-21.98 639.9,-21.63 647.96,-28.51 650.49,-21.98"/>
</a>
</g>
</g>
<!-- Node13 -->
<g id="Node000013" class="node">
<title>Node13</title>
<g id="a_Node000013"><a xlink:title=" ">
<polygon fill="#e0e0e0" stroke="#999999" points="707.38,-20.75 663.62,-20.75 663.62,0 707.38,0 707.38,-20.75"/>
<text text-anchor="middle" x="685.5" y="-7.25" font-family="Helvetica,sans-Serif" font-size="10.00">bitset</text>
</a>
</g>
</g>
<!-- Node11&#45;&gt;Node13 -->
<g id="edge12_Node000011_Node000013" class="edge">
<title>Node11&#45;&gt;Node13</title>
<g id="a_edge12_Node000011_Node000013"><a xlink:title=" ">
<path fill="none" stroke="#63b8ff" d="M742.16,-56.34C732.25,-48.47 718.11,-37.25 706.44,-27.99"/>
<polygon fill="#63b8ff" stroke="#63b8ff" points="708.92,-25.49 698.91,-22.02 704.57,-30.98 708.92,-25.49"/>
</a>
</g>
</g>
<!-- Node14 -->
<g id="Node000014" class="node">
<title>Node14</title>
<g id="a_Node000014"><a xlink:title=" ">
<polygon fill="#e0e0e0" stroke="#999999" points="783.12,-20.75 725.88,-20.75 725.88,0 783.12,0 783.12,-20.75"/>
<text text-anchor="middle" x="754.5" y="-7.25" font-family="Helvetica,sans-Serif" font-size="10.00">memory</text>
</a>
</g>
</g>
<!-- Node11&#45;&gt;Node14 -->
<g id="edge13_Node000011_Node000014" class="edge">
<title>Node11&#45;&gt;Node14</title>
<g id="a_edge13_Node000011_Node000014"><a xlink:title=" ">
<path fill="none" stroke="#63b8ff" d="M754.5,-56.34C754.5,-49.72 754.5,-40.72 754.5,-32.52"/>
<polygon fill="#63b8ff" stroke="#63b8ff" points="758,-32.59 754.5,-22.59 751,-32.59 758,-32.59"/>
</a>
</g>
</g>
<!-- Node15 -->
<g id="Node000015" class="node">
<title>Node15</title>
<g id="a_Node000015"><a xlink:title=" ">
<polygon fill="#e0e0e0" stroke="#999999" points="865.5,-20.75 801.5,-20.75 801.5,0 865.5,0 865.5,-20.75"/>
<text text-anchor="middle" x="833.5" y="-7.25" font-family="Helvetica,sans-Serif" font-size="10.00">stdexcept</text>
</a>
</g>
</g>
<!-- Node11&#45;&gt;Node15 -->
<g id="edge14_Node000011_Node000015" class="edge">
<title>Node11&#45;&gt;Node15</title>
<g id="a_edge14_Node000011_Node000015"><a xlink:title=" ">
<path fill="none" stroke="#63b8ff" d="M768.62,-56.34C780.19,-48.32 796.8,-36.81 810.32,-27.44"/>
<polygon fill="#63b8ff" stroke="#63b8ff" points="812.03,-30.51 818.25,-21.94 808.04,-24.76 812.03,-30.51"/>
</a>
</g>
</g>
<!-- Node16 -->
<g id="Node000016" class="node">
<title>Node16</title>
<g id="a_Node000016"><a xlink:title=" ">
<polygon fill="#e0e0e0" stroke="#999999" points="975.75,-20.75 883.25,-20.75 883.25,0 975.75,0 975.75,-20.75"/>
<text text-anchor="middle" x="929.5" y="-7.25" font-family="Helvetica,sans-Serif" font-size="10.00">unordered_map</text>
</a>
</g>
</g>
<!-- Node11&#45;&gt;Node16 -->
<g id="edge15_Node000011_Node000016" class="edge">
<title>Node11&#45;&gt;Node16</title>
<g id="a_edge15_Node000011_Node000016"><a xlink:title=" ">
<path fill="none" stroke="#63b8ff" d="M785.79,-56.34C814.19,-47.45 856.31,-34.27 887.61,-24.48"/>
<polygon fill="#63b8ff" stroke="#63b8ff" points="888.25,-27.95 896.75,-21.62 886.16,-21.27 888.25,-27.95"/>
</a>
</g>
</g>
<!-- Node17 -->
<g id="Node000017" class="node">
<title>Node17</title>
<g id="a_Node000017"><a xlink:title=" ">
<polygon fill="#e0e0e0" stroke="#999999" points="1040.88,-20.75 994.12,-20.75 994.12,0 1040.88,0 1040.88,-20.75"/>
<text text-anchor="middle" x="1017.5" y="-7.25" font-family="Helvetica,sans-Serif" font-size="10.00">vector</text>
</a>
</g>
</g>
<!-- Node11&#45;&gt;Node17 -->
<g id="edge16_Node000011_Node000017" class="edge">
<title>Node11&#45;&gt;Node17</title>
<g id="a_edge16_Node000011_Node000017"><a xlink:title=" ">
<path fill="none" stroke="#63b8ff" d="M792.96,-59.53C836.57,-51.84 910,-38.23 982.6,-21.04"/>
<polygon fill="#63b8ff" stroke="#63b8ff" points="983.39,-24.45 992.3,-18.72 981.76,-17.65 983.39,-24.45"/>
</a>
</g>
</g>
</g>
</svg>
