<?xml version="1.0" encoding="UTF-8" standalone="no"?>
<!DOCTYPE svg PUBLIC "-//W3C//DTD SVG 1.1//EN"
 "http://www.w3.org/Graphics/SVG/1.1/DTD/svg11.dtd">
<!-- Generated by graphviz version 2.43.0 (0)
 -->
<!-- Title: include/Entity.hpp Pages: 1 -->
<svg width="413pt" height="302pt"
 viewBox="0.00 0.00 412.59 302.00" xmlns="http://www.w3.org/2000/svg" xmlns:xlink="http://www.w3.org/1999/xlink">
<g id="graph0" class="graph" transform="scale(1 1) rotate(0) translate(4 298)">
<title>include/Entity.hpp</title>
<!-- Node1 -->
<g id="Node000001" class="node">
<title>Node1</title>
<g id="a_Node000001"><a xlink:title="Defines the Entity class, which serves as a wrapper for ECS entities.">
<polygon fill="#999999" stroke="#666666" points="209.09,-294 106.09,-294 106.09,-275 209.09,-275 209.09,-294"/>
<text text-anchor="middle" x="157.59" y="-282" font-family="Helvetica,sans-Serif" font-size="10.00">include/Entity.hpp</text>
</a>
</g>
</g>
<!-- Node2 -->
<g id="Node000002" class="node">
<title>Node2</title>
<g id="a_Node000002"><a xlink:href="Object_8hpp.html" target="_top" xlink:title="Defines the Object class, a special ECS entity wrapper.">
<polygon fill="white" stroke="#666666" points="230.59,-239 84.59,-239 84.59,-220 230.59,-220 230.59,-239"/>
<text text-anchor="middle" x="157.59" y="-227" font-family="Helvetica,sans-Serif" font-size="10.00">include/objects/Object.hpp</text>
</a>
</g>
</g>
<!-- Node1&#45;&gt;Node2 -->
<g id="edge1_Node000001_Node000002" class="edge">
<title>Node1&#45;&gt;Node2</title>
<g id="a_edge1_Node000001_Node000002"><a xlink:title=" ">
<path fill="none" stroke="#63b8ff" d="M157.59,-264.66C157.59,-255.93 157.59,-245.99 157.59,-239.09"/>
<polygon fill="#63b8ff" stroke="#63b8ff" points="154.09,-264.75 157.59,-274.75 161.09,-264.75 154.09,-264.75"/>
</a>
</g>
</g>
<!-- Node3 -->
<g id="Node000003" class="node">
<title>Node3</title>
<g id="a_Node000003"><a xlink:href="FrameEngine_8hpp_source.html" target="_top" xlink:title=" ">
<polygon fill="white" stroke="#666666" points="207.59,-19 67.59,-19 67.59,0 207.59,0 207.59,-19"/>
<text text-anchor="middle" x="137.59" y="-7" font-family="Helvetica,sans-Serif" font-size="10.00">include/FrameEngine.hpp</text>
</a>
</g>
</g>
<!-- Node2&#45;&gt;Node3 -->
<g id="edge2_Node000002_Node000003" class="edge">
<title>Node2&#45;&gt;Node3</title>
<g id="a_edge2_Node000002_Node000003"><a xlink:title=" ">
<path fill="none" stroke="#63b8ff" d="M74.37,-221.74C50.28,-215.45 26.49,-204.12 11.59,-184 -35.05,-121.03 80.2,-44.31 122.64,-19.03"/>
<polygon fill="#63b8ff" stroke="#63b8ff" points="73.78,-225.19 84.32,-224.06 75.37,-218.38 73.78,-225.19"/>
</a>
</g>
</g>
<!-- Node4 -->
<g id="Node000004" class="node">
<title>Node4</title>
<g id="a_Node000004"><a xlink:href="PointLight_8hpp_source.html" target="_top" xlink:title=" ">
<polygon fill="white" stroke="#666666" points="184.09,-184 21.09,-184 21.09,-165 184.09,-165 184.09,-184"/>
<text text-anchor="middle" x="102.59" y="-172" font-family="Helvetica,sans-Serif" font-size="10.00">include/objects/PointLight.hpp</text>
</a>
</g>
</g>
<!-- Node2&#45;&gt;Node4 -->
<g id="edge3_Node000002_Node000004" class="edge">
<title>Node2&#45;&gt;Node4</title>
<g id="a_edge3_Node000002_Node000004"><a xlink:title=" ">
<path fill="none" stroke="#63b8ff" d="M141.29,-212.8C131.55,-203.41 119.54,-191.83 111.5,-184.09"/>
<polygon fill="#63b8ff" stroke="#63b8ff" points="138.88,-215.33 148.51,-219.75 143.73,-210.29 138.88,-215.33"/>
</a>
</g>
</g>
<!-- Node5 -->
<g id="Node000005" class="node">
<title>Node5</title>
<g id="a_Node000005"><a xlink:href="Renderer_8hpp.html" target="_top" xlink:title="Manages the rendering pipeline and object submission.">
<polygon fill="white" stroke="#666666" points="296.09,-129 127.09,-129 127.09,-110 296.09,-110 296.09,-129"/>
<text text-anchor="middle" x="211.59" y="-117" font-family="Helvetica,sans-Serif" font-size="10.00">include/rendering/Renderer.hpp</text>
</a>
</g>
</g>
<!-- Node2&#45;&gt;Node5 -->
<g id="edge12_Node000002_Node000005" class="edge">
<title>Node2&#45;&gt;Node5</title>
<g id="a_edge12_Node000002_Node000005"><a xlink:title=" ">
<path fill="none" stroke="#63b8ff" d="M172.61,-212.47C179.49,-204.43 187.28,-194.23 192.59,-184 202.13,-165.61 207.65,-141.69 210.08,-129.11"/>
<polygon fill="#63b8ff" stroke="#63b8ff" points="169.95,-210.2 165.9,-219.99 175.17,-214.86 169.95,-210.2"/>
</a>
</g>
</g>
<!-- Node7 -->
<g id="Node000007" class="node">
<title>Node7</title>
<g id="a_Node000007"><a xlink:href="Camera_8hpp.html" target="_top" xlink:title="Defines the Camera class for view and projection.">
<polygon fill="white" stroke="#666666" points="404.59,-184 240.59,-184 240.59,-165 404.59,-165 404.59,-184"/>
<text text-anchor="middle" x="322.59" y="-172" font-family="Helvetica,sans-Serif" font-size="10.00">include/rendering/Camera.hpp</text>
</a>
</g>
</g>
<!-- Node2&#45;&gt;Node7 -->
<g id="edge9_Node000002_Node000007" class="edge">
<title>Node2&#45;&gt;Node7</title>
<g id="a_edge9_Node000002_Node000007"><a xlink:title=" ">
<path fill="none" stroke="#63b8ff" d="M194.02,-216.8C224.81,-206.91 268.21,-192.97 295.87,-184.08"/>
<polygon fill="#63b8ff" stroke="#63b8ff" points="192.55,-213.59 184.1,-219.98 194.69,-220.26 192.55,-213.59"/>
</a>
</g>
</g>
<!-- Node4&#45;&gt;Node3 -->
<g id="edge4_Node000004_Node000003" class="edge">
<title>Node4&#45;&gt;Node3</title>
<g id="a_edge4_Node000004_Node000003"><a xlink:title=" ">
<path fill="none" stroke="#63b8ff" d="M106.6,-154.83C114.15,-119.67 130.2,-44.9 135.7,-19.31"/>
<polygon fill="#63b8ff" stroke="#63b8ff" points="103.15,-154.22 104.47,-164.74 109.99,-155.69 103.15,-154.22"/>
</a>
</g>
</g>
<!-- Node4&#45;&gt;Node5 -->
<g id="edge5_Node000004_Node000005" class="edge">
<title>Node4&#45;&gt;Node5</title>
<g id="a_edge5_Node000004_Node000005"><a xlink:title=" ">
<path fill="none" stroke="#63b8ff" d="M129.32,-160.5C149.37,-150.75 176.27,-137.68 193.76,-129.17"/>
<polygon fill="#63b8ff" stroke="#63b8ff" points="127.56,-157.46 120.1,-164.98 130.62,-163.76 127.56,-157.46"/>
</a>
</g>
</g>
<!-- Node5&#45;&gt;Node3 -->
<g id="edge8_Node000005_Node000003" class="edge">
<title>Node5&#45;&gt;Node3</title>
<g id="a_edge8_Node000005_Node000003"><a xlink:title=" ">
<path fill="none" stroke="#63b8ff" d="M188.01,-104.21C177.05,-96.5 164.68,-86.07 156.59,-74 145.05,-56.8 140.35,-32.39 138.57,-19.42"/>
<polygon fill="#63b8ff" stroke="#63b8ff" points="186.12,-107.16 196.39,-109.8 190.01,-101.34 186.12,-107.16"/>
</a>
</g>
</g>
<!-- Node6 -->
<g id="Node000006" class="node">
<title>Node6</title>
<g id="a_Node000006"><a xlink:href="Engine_8hpp.html" target="_top" xlink:title="Defines the core Engine class responsible for running simulation.">
<polygon fill="white" stroke="#666666" points="275.09,-74 166.09,-74 166.09,-55 275.09,-55 275.09,-74"/>
<text text-anchor="middle" x="220.59" y="-62" font-family="Helvetica,sans-Serif" font-size="10.00">include/Engine.hpp</text>
</a>
</g>
</g>
<!-- Node5&#45;&gt;Node6 -->
<g id="edge6_Node000005_Node000006" class="edge">
<title>Node5&#45;&gt;Node6</title>
<g id="a_edge6_Node000005_Node000006"><a xlink:title=" ">
<path fill="none" stroke="#63b8ff" d="M214.79,-99.66C216.27,-90.93 217.96,-80.99 219.13,-74.09"/>
<polygon fill="#63b8ff" stroke="#63b8ff" points="211.3,-99.3 213.07,-109.75 218.2,-100.48 211.3,-99.3"/>
</a>
</g>
</g>
<!-- Node6&#45;&gt;Node3 -->
<g id="edge7_Node000006_Node000003" class="edge">
<title>Node6&#45;&gt;Node3</title>
<g id="a_edge7_Node000006_Node000003"><a xlink:title=" ">
<path fill="none" stroke="#63b8ff" d="M198.54,-49.42C183.48,-39.81 164,-27.37 151.17,-19.17"/>
<polygon fill="#63b8ff" stroke="#63b8ff" points="196.94,-52.55 207.25,-54.98 200.71,-46.65 196.94,-52.55"/>
</a>
</g>
</g>
<!-- Node7&#45;&gt;Node3 -->
<g id="edge10_Node000007_Node000003" class="edge">
<title>Node7&#45;&gt;Node3</title>
<g id="a_edge10_Node000007_Node000003"><a xlink:title=" ">
<path fill="none" stroke="#63b8ff" d="M321.8,-154.78C319.67,-128.62 311.86,-81.39 283.59,-55 262.96,-35.74 234.22,-24.81 207.7,-18.6"/>
<polygon fill="#63b8ff" stroke="#63b8ff" points="318.32,-155.11 322.43,-164.87 325.3,-154.68 318.32,-155.11"/>
</a>
</g>
</g>
<!-- Node7&#45;&gt;Node5 -->
<g id="edge11_Node000007_Node000005" class="edge">
<title>Node7&#45;&gt;Node5</title>
<g id="a_edge11_Node000007_Node000005"><a xlink:title=" ">
<path fill="none" stroke="#63b8ff" d="M295.64,-160.63C275.19,-150.87 247.64,-137.71 229.75,-129.17"/>
<polygon fill="#63b8ff" stroke="#63b8ff" points="294.22,-163.83 304.75,-164.98 297.24,-157.52 294.22,-163.83"/>
</a>
</g>
</g>
</g>
</svg>
