<?xml version="1.0" encoding="UTF-8" standalone="no"?>
<!DOCTYPE svg PUBLIC "-//W3C//DTD SVG 1.1//EN"
 "http://www.w3.org/Graphics/SVG/1.1/DTD/svg11.dtd">
<!-- Generated by graphviz version 2.43.0 (0)
 -->
<!-- Title: Graphical Class Hierarchy Pages: 1 -->
<svg width="448pt" height="64pt"
 viewBox="0.00 0.00 448.00 64.00" xmlns="http://www.w3.org/2000/svg" xmlns:xlink="http://www.w3.org/1999/xlink">
<g id="graph0" class="graph" transform="scale(1 1) rotate(0) translate(4 60)">
<title>Graphical Class Hierarchy</title>
<!-- Node0 -->
<g id="Node000000" class="node">
<title>Node0</title>
<g id="a_Node000000"><a xlink:href="classFrameEngine_1_1Entity.html" target="_top" xlink:title="A high&#45;level ECS entity wrapper.">
<polygon fill="white" stroke="#666666" points="115,-37 0,-37 0,-18 115,-18 115,-37"/>
<text text-anchor="middle" x="57.5" y="-25" font-family="Helvetica,sans-Serif" font-size="10.00">FrameEngine::Entity</text>
</a>
</g>
</g>
<!-- Node1 -->
<g id="Node000001" class="node">
<title>Node1</title>
<g id="a_Node000001"><a xlink:href="classFrameEngine_1_1Object.html" target="_top" xlink:title="A high&#45;level ECS entity wrapper with default components.">
<polygon fill="white" stroke="#666666" points="269,-37 151,-37 151,-18 269,-18 269,-37"/>
<text text-anchor="middle" x="210" y="-25" font-family="Helvetica,sans-Serif" font-size="10.00">FrameEngine::Object</text>
</a>
</g>
</g>
<!-- Node0&#45;&gt;Node1 -->
<g id="edge2_Node000000_Node000001" class="edge">
<title>Node0&#45;&gt;Node1</title>
<g id="a_edge2_Node000000_Node000001"><a xlink:title=" ">
<path fill="none" stroke="#63b8ff" d="M125.56,-27.5C133.97,-27.5 142.51,-27.5 150.77,-27.5"/>
<polygon fill="#63b8ff" stroke="#63b8ff" points="125.4,-24 115.4,-27.5 125.4,-31 125.4,-24"/>
</a>
</g>
</g>
<!-- Node2 -->
<g id="Node000002" class="node">
<title>Node2</title>
<g id="a_Node000002"><a xlink:href="classFrameEngine_1_1Camera.html" target="_top" xlink:title="A camera.">
<polygon fill="white" stroke="#666666" points="435,-56 310,-56 310,-37 435,-37 435,-56"/>
<text text-anchor="middle" x="372.5" y="-44" font-family="Helvetica,sans-Serif" font-size="10.00">FrameEngine::Camera</text>
</a>
</g>
</g>
<!-- Node1&#45;&gt;Node2 -->
<g id="edge3_Node000001_Node000002" class="edge">
<title>Node1&#45;&gt;Node2</title>
<g id="a_edge3_Node000001_Node000002"><a xlink:title=" ">
<path fill="none" stroke="#63b8ff" d="M279.41,-35.6C289.54,-36.8 299.93,-38.03 309.9,-39.21"/>
<polygon fill="#63b8ff" stroke="#63b8ff" points="279.74,-32.11 269.4,-34.41 278.92,-39.06 279.74,-32.11"/>
</a>
</g>
</g>
<!-- Node3 -->
<g id="Node000003" class="node">
<title>Node3</title>
<g id="a_Node000003"><a xlink:href="classFrameEngine_1_1PointLight.html" target="_top" xlink:title="An ECS entity representing a point light source.">
<polygon fill="white" stroke="#666666" points="440,-19 305,-19 305,0 440,0 440,-19"/>
<text text-anchor="middle" x="372.5" y="-7" font-family="Helvetica,sans-Serif" font-size="10.00">FrameEngine::PointLight</text>
</a>
</g>
</g>
<!-- Node1&#45;&gt;Node3 -->
<g id="edge4_Node000001_Node000003" class="edge">
<title>Node1&#45;&gt;Node3</title>
<g id="a_edge4_Node000001_Node000003"><a xlink:title=" ">
<path fill="none" stroke="#63b8ff" d="M279.56,-19.81C287.99,-18.87 296.59,-17.9 304.99,-16.96"/>
<polygon fill="#63b8ff" stroke="#63b8ff" points="278.95,-16.36 269.4,-20.95 279.73,-23.31 278.95,-16.36"/>
</a>
</g>
</g>
</g>
</svg>
