<?xml version="1.0" encoding="UTF-8" standalone="no"?>
<!DOCTYPE svg PUBLIC "-//W3C//DTD SVG 1.1//EN"
 "http://www.w3.org/Graphics/SVG/1.1/DTD/svg11.dtd">
<!-- Generated by graphviz version 2.43.0 (0)
 -->
<!-- Title: Graphical Class Hierarchy Pages: 1 -->
<svg width="238pt" height="64pt"
 viewBox="0.00 0.00 238.00 64.00" xmlns="http://www.w3.org/2000/svg" xmlns:xlink="http://www.w3.org/1999/xlink">
<g id="graph0" class="graph" transform="scale(1 1) rotate(0) translate(4 60)">
<title>Graphical Class Hierarchy</title>
<!-- Node0 -->
<g id="Node000000" class="node">
<title>Node0</title>
<g id="a_Node000000"><a xlink:href="classEntity.html" target="_top" xlink:title="A high&#45;level ECS entity wrapper.">
<polygon fill="white" stroke="#666666" points="45,-37 0,-37 0,-18 45,-18 45,-37"/>
<text text-anchor="middle" x="22.5" y="-25" font-family="Helvetica,sans-Serif" font-size="10.00">Entity</text>
</a>
</g>
</g>
<!-- Node1 -->
<g id="Node000001" class="node">
<title>Node1</title>
<g id="a_Node000001"><a xlink:href="classObject.html" target="_top" xlink:title="A high&#45;level ECS entity wrapper with default components.">
<polygon fill="white" stroke="#666666" points="129,-37 81,-37 81,-18 129,-18 129,-37"/>
<text text-anchor="middle" x="105" y="-25" font-family="Helvetica,sans-Serif" font-size="10.00">Object</text>
</a>
</g>
</g>
<!-- Node0&#45;&gt;Node1 -->
<g id="edge2_Node000000_Node000001" class="edge">
<title>Node0&#45;&gt;Node1</title>
<g id="a_edge2_Node000000_Node000001"><a xlink:title=" ">
<path fill="none" stroke="#63b8ff" d="M55.18,-27.5C63.78,-27.5 72.93,-27.5 80.96,-27.5"/>
<polygon fill="#63b8ff" stroke="#63b8ff" points="55.07,-24 45.07,-27.5 55.07,-31 55.07,-24"/>
</a>
</g>
</g>
<!-- Node2 -->
<g id="Node000002" class="node">
<title>Node2</title>
<g id="a_Node000002"><a xlink:href="classCamera.html" target="_top" xlink:title="A camera.">
<polygon fill="white" stroke="#666666" points="225,-56 170,-56 170,-37 225,-37 225,-56"/>
<text text-anchor="middle" x="197.5" y="-44" font-family="Helvetica,sans-Serif" font-size="10.00">Camera</text>
</a>
</g>
</g>
<!-- Node1&#45;&gt;Node2 -->
<g id="edge3_Node000001_Node000002" class="edge">
<title>Node1&#45;&gt;Node2</title>
<g id="a_edge3_Node000001_Node000002"><a xlink:title=" ">
<path fill="none" stroke="#63b8ff" d="M139.35,-34.5C149.37,-36.6 160.22,-38.88 169.75,-40.88"/>
<polygon fill="#63b8ff" stroke="#63b8ff" points="139.81,-31.02 129.31,-32.39 138.37,-37.87 139.81,-31.02"/>
</a>
</g>
</g>
<!-- Node3 -->
<g id="Node000003" class="node">
<title>Node3</title>
<g id="a_Node000003"><a xlink:href="classPointLight.html" target="_top" xlink:title="An ECS entity representing a point light source.">
<polygon fill="white" stroke="#666666" points="230,-19 165,-19 165,0 230,0 230,-19"/>
<text text-anchor="middle" x="197.5" y="-7" font-family="Helvetica,sans-Serif" font-size="10.00">PointLight</text>
</a>
</g>
</g>
<!-- Node1&#45;&gt;Node3 -->
<g id="edge4_Node000001_Node000003" class="edge">
<title>Node1&#45;&gt;Node3</title>
<g id="a_edge4_Node000001_Node000003"><a xlink:title=" ">
<path fill="none" stroke="#63b8ff" d="M139.13,-20.91C147.49,-19.25 156.45,-17.47 164.75,-15.82"/>
<polygon fill="#63b8ff" stroke="#63b8ff" points="138.43,-17.48 129.31,-22.86 139.8,-24.35 138.43,-17.48"/>
</a>
</g>
</g>
</g>
</svg>
