<?xml version="1.0" encoding="UTF-8" standalone="no"?>
<!DOCTYPE svg PUBLIC "-//W3C//DTD SVG 1.1//EN"
 "http://www.w3.org/Graphics/SVG/1.1/DTD/svg11.dtd">
<!-- Generated by graphviz version 12.2.1 (0)
 -->
<!-- Title: Graphical Class Hierarchy Pages: 1 -->
<svg width="237pt" height="68pt"
 viewBox="0.00 0.00 236.75 67.75" xmlns="http://www.w3.org/2000/svg" xmlns:xlink="http://www.w3.org/1999/xlink">
<g id="graph0" class="graph" transform="scale(1 1) rotate(0) translate(4 63.75)">
<title>Graphical Class Hierarchy</title>
<!-- Node0 -->
<g id="Node000000" class="node">
<title>Node0</title>
<g id="a_Node000000"><a xlink:href="classEntity.html" target="_top" xlink:title="A high&#45;level ECS entity wrapper.">
<polygon fill="white" stroke="#666666" points="44.5,-39.75 0,-39.75 0,-19 44.5,-19 44.5,-39.75"/>
<text text-anchor="middle" x="22.25" y="-26.25" font-family="Helvetica,sans-Serif" font-size="10.00">Entity</text>
</a>
</g>
</g>
<!-- Node1 -->
<g id="Node000001" class="node">
<title>Node1</title>
<g id="a_Node000001"><a xlink:href="classObject.html" target="_top" xlink:title="A high&#45;level ECS entity wrapper with default components.">
<polygon fill="white" stroke="#666666" points="128,-39.75 80.5,-39.75 80.5,-19 128,-19 128,-39.75"/>
<text text-anchor="middle" x="104.25" y="-26.25" font-family="Helvetica,sans-Serif" font-size="10.00">Object</text>
</a>
</g>
</g>
<!-- Node0&#45;&gt;Node1 -->
<g id="edge2_Node000000_Node000001" class="edge">
<title>Node0&#45;&gt;Node1</title>
<g id="a_edge2_Node000000_Node000001"><a xlink:title=" ">
<path fill="none" stroke="#63b8ff" d="M56.05,-29.38C64.11,-29.38 72.57,-29.38 80.07,-29.38"/>
<polygon fill="#63b8ff" stroke="#63b8ff" points="56.2,-25.88 46.2,-29.38 56.2,-32.88 56.2,-25.88"/>
</a>
</g>
</g>
<!-- Node2 -->
<g id="Node000002" class="node">
<title>Node2</title>
<g id="a_Node000002"><a xlink:href="classCamera.html" target="_top" xlink:title="A camera.">
<polygon fill="white" stroke="#666666" points="223.5,-59.75 169.25,-59.75 169.25,-39 223.5,-39 223.5,-59.75"/>
<text text-anchor="middle" x="196.38" y="-46.25" font-family="Helvetica,sans-Serif" font-size="10.00">Camera</text>
</a>
</g>
</g>
<!-- Node1&#45;&gt;Node2 -->
<g id="edge3_Node000001_Node000002" class="edge">
<title>Node1&#45;&gt;Node2</title>
<g id="a_edge3_Node000001_Node000002"><a xlink:title=" ">
<path fill="none" stroke="#63b8ff" d="M139.51,-36.98C149.3,-39.15 159.82,-41.48 169.06,-43.54"/>
<polygon fill="#63b8ff" stroke="#63b8ff" points="140.46,-33.6 129.94,-34.85 138.94,-40.44 140.46,-33.6"/>
</a>
</g>
</g>
<!-- Node3 -->
<g id="Node000003" class="node">
<title>Node3</title>
<g id="a_Node000003"><a xlink:href="classPointLight.html" target="_top" xlink:title="An ECS entity representing a point light source.">
<polygon fill="white" stroke="#666666" points="228.75,-20.75 164,-20.75 164,0 228.75,0 228.75,-20.75"/>
<text text-anchor="middle" x="196.38" y="-7.25" font-family="Helvetica,sans-Serif" font-size="10.00">PointLight</text>
</a>
</g>
</g>
<!-- Node1&#45;&gt;Node3 -->
<g id="edge4_Node000001_Node000003" class="edge">
<title>Node1&#45;&gt;Node3</title>
<g id="a_edge4_Node000001_Node000003"><a xlink:title=" ">
<path fill="none" stroke="#63b8ff" d="M139.62,-22.13C147.55,-20.46 155.95,-18.69 163.75,-17.04"/>
<polygon fill="#63b8ff" stroke="#63b8ff" points="139,-18.68 129.94,-24.17 140.45,-25.53 139,-18.68"/>
</a>
</g>
</g>
</g>
</svg>
