<?xml version="1.0" encoding="UTF-8" standalone="no"?>
<!DOCTYPE svg PUBLIC "-//W3C//DTD SVG 1.1//EN"
 "http://www.w3.org/Graphics/SVG/1.1/DTD/svg11.dtd">
<!-- Generated by graphviz version 2.43.0 (0)
 -->
<!-- Title: include/Logger.hpp Pages: 1 -->
<svg width="392pt" height="302pt"
 viewBox="0.00 0.00 391.50 302.00" xmlns="http://www.w3.org/2000/svg" xmlns:xlink="http://www.w3.org/1999/xlink">
<g id="graph0" class="graph" transform="scale(1 1) rotate(0) translate(4 298)">
<title>include/Logger.hpp</title>
<!-- Node1 -->
<g id="Node000001" class="node">
<title>Node1</title>
<g id="a_Node000001"><a xlink:title="Provides logging functionality.">
<polygon fill="#999999" stroke="#666666" points="245.5,-294 137.5,-294 137.5,-275 245.5,-275 245.5,-294"/>
<text text-anchor="middle" x="191.5" y="-282" font-family="Helvetica,sans-Serif" font-size="10.00">include/Logger.hpp</text>
</a>
</g>
</g>
<!-- Node2 -->
<g id="Node000002" class="node">
<title>Node2</title>
<g id="a_Node000002"><a xlink:href="Entity_8hpp.html" target="_top" xlink:title="Defines the Entity class, which serves as a wrapper for ECS entities.">
<polygon fill="white" stroke="#666666" points="243,-239 140,-239 140,-220 243,-220 243,-239"/>
<text text-anchor="middle" x="191.5" y="-227" font-family="Helvetica,sans-Serif" font-size="10.00">include/Entity.hpp</text>
</a>
</g>
</g>
<!-- Node1&#45;&gt;Node2 -->
<g id="edge1_Node000001_Node000002" class="edge">
<title>Node1&#45;&gt;Node2</title>
<g id="a_edge1_Node000001_Node000002"><a xlink:title=" ">
<path fill="none" stroke="#63b8ff" d="M191.5,-264.66C191.5,-255.93 191.5,-245.99 191.5,-239.09"/>
<polygon fill="#63b8ff" stroke="#63b8ff" points="188,-264.75 191.5,-274.75 195,-264.75 188,-264.75"/>
</a>
</g>
</g>
<!-- Node3 -->
<g id="Node000003" class="node">
<title>Node3</title>
<g id="a_Node000003"><a xlink:href="Object_8hpp.html" target="_top" xlink:title="Defines the Object class, a special ECS entity wrapper.">
<polygon fill="white" stroke="#666666" points="264.5,-184 118.5,-184 118.5,-165 264.5,-165 264.5,-184"/>
<text text-anchor="middle" x="191.5" y="-172" font-family="Helvetica,sans-Serif" font-size="10.00">include/objects/Object.hpp</text>
</a>
</g>
</g>
<!-- Node2&#45;&gt;Node3 -->
<g id="edge2_Node000002_Node000003" class="edge">
<title>Node2&#45;&gt;Node3</title>
<g id="a_edge2_Node000002_Node000003"><a xlink:title=" ">
<path fill="none" stroke="#63b8ff" d="M191.5,-209.66C191.5,-200.93 191.5,-190.99 191.5,-184.09"/>
<polygon fill="#63b8ff" stroke="#63b8ff" points="188,-209.75 191.5,-219.75 195,-209.75 188,-209.75"/>
</a>
</g>
</g>
<!-- Node4 -->
<g id="Node000004" class="node">
<title>Node4</title>
<g id="a_Node000004"><a xlink:href="PointLight_8hpp_source.html" target="_top" xlink:title=" ">
<polygon fill="white" stroke="#666666" points="163,-129 0,-129 0,-110 163,-110 163,-129"/>
<text text-anchor="middle" x="81.5" y="-117" font-family="Helvetica,sans-Serif" font-size="10.00">include/objects/PointLight.hpp</text>
</a>
</g>
</g>
<!-- Node3&#45;&gt;Node4 -->
<g id="edge3_Node000003_Node000004" class="edge">
<title>Node3&#45;&gt;Node4</title>
<g id="a_edge3_Node000003_Node000004"><a xlink:title=" ">
<path fill="none" stroke="#63b8ff" d="M164.8,-160.63C144.53,-150.87 117.23,-137.71 99.49,-129.17"/>
<polygon fill="#63b8ff" stroke="#63b8ff" points="163.3,-163.8 173.83,-164.98 166.34,-157.49 163.3,-163.8"/>
</a>
</g>
</g>
<!-- Node5 -->
<g id="Node000005" class="node">
<title>Node5</title>
<g id="a_Node000005"><a xlink:href="Renderer_8hpp.html" target="_top" xlink:title="Manages the rendering pipeline and object submission.">
<polygon fill="white" stroke="#666666" points="276,-74 107,-74 107,-55 276,-55 276,-74"/>
<text text-anchor="middle" x="191.5" y="-62" font-family="Helvetica,sans-Serif" font-size="10.00">include/rendering/Renderer.hpp</text>
</a>
</g>
</g>
<!-- Node3&#45;&gt;Node5 -->
<g id="edge8_Node000003_Node000005" class="edge">
<title>Node3&#45;&gt;Node5</title>
<g id="a_edge8_Node000003_Node000005"><a xlink:title=" ">
<path fill="none" stroke="#63b8ff" d="M191.5,-154.48C191.5,-130.84 191.5,-91.5 191.5,-74.16"/>
<polygon fill="#63b8ff" stroke="#63b8ff" points="188,-154.66 191.5,-164.66 195,-154.66 188,-154.66"/>
</a>
</g>
</g>
<!-- Node7 -->
<g id="Node000007" class="node">
<title>Node7</title>
<g id="a_Node000007"><a xlink:href="Camera_8hpp.html" target="_top" xlink:title="Defines the Camera class for view and projection.">
<polygon fill="white" stroke="#666666" points="383.5,-129 219.5,-129 219.5,-110 383.5,-110 383.5,-129"/>
<text text-anchor="middle" x="301.5" y="-117" font-family="Helvetica,sans-Serif" font-size="10.00">include/rendering/Camera.hpp</text>
</a>
</g>
</g>
<!-- Node3&#45;&gt;Node7 -->
<g id="edge6_Node000003_Node000007" class="edge">
<title>Node3&#45;&gt;Node7</title>
<g id="a_edge6_Node000003_Node000007"><a xlink:title=" ">
<path fill="none" stroke="#63b8ff" d="M218.2,-160.63C238.47,-150.87 265.77,-137.71 283.51,-129.17"/>
<polygon fill="#63b8ff" stroke="#63b8ff" points="216.66,-157.49 209.17,-164.98 219.7,-163.8 216.66,-157.49"/>
</a>
</g>
</g>
<!-- Node4&#45;&gt;Node5 -->
<g id="edge4_Node000004_Node000005" class="edge">
<title>Node4&#45;&gt;Node5</title>
<g id="a_edge4_Node000004_Node000005"><a xlink:title=" ">
<path fill="none" stroke="#63b8ff" d="M108.2,-105.63C128.47,-95.87 155.77,-82.71 173.51,-74.17"/>
<polygon fill="#63b8ff" stroke="#63b8ff" points="106.66,-102.49 99.17,-109.98 109.7,-108.8 106.66,-102.49"/>
</a>
</g>
</g>
<!-- Node6 -->
<g id="Node000006" class="node">
<title>Node6</title>
<g id="a_Node000006"><a xlink:href="Engine_8hpp.html" target="_top" xlink:title="Defines the core Engine class responsible for running simulation.">
<polygon fill="white" stroke="#666666" points="246,-19 137,-19 137,0 246,0 246,-19"/>
<text text-anchor="middle" x="191.5" y="-7" font-family="Helvetica,sans-Serif" font-size="10.00">include/Engine.hpp</text>
</a>
</g>
</g>
<!-- Node5&#45;&gt;Node6 -->
<g id="edge5_Node000005_Node000006" class="edge">
<title>Node5&#45;&gt;Node6</title>
<g id="a_edge5_Node000005_Node000006"><a xlink:title=" ">
<path fill="none" stroke="#63b8ff" d="M191.5,-44.66C191.5,-35.93 191.5,-25.99 191.5,-19.09"/>
<polygon fill="#63b8ff" stroke="#63b8ff" points="188,-44.75 191.5,-54.75 195,-44.75 188,-44.75"/>
</a>
</g>
</g>
<!-- Node7&#45;&gt;Node5 -->
<g id="edge7_Node000007_Node000005" class="edge">
<title>Node7&#45;&gt;Node5</title>
<g id="a_edge7_Node000007_Node000005"><a xlink:title=" ">
<path fill="none" stroke="#63b8ff" d="M274.8,-105.63C254.53,-95.87 227.23,-82.71 209.49,-74.17"/>
<polygon fill="#63b8ff" stroke="#63b8ff" points="273.3,-108.8 283.83,-109.98 276.34,-102.49 273.3,-108.8"/>
</a>
</g>
</g>
</g>
</svg>
