<?xml version="1.0" encoding="UTF-8" standalone="no"?>
<!DOCTYPE svg PUBLIC "-//W3C//DTD SVG 1.1//EN"
 "http://www.w3.org/Graphics/SVG/1.1/DTD/svg11.dtd">
<!-- Generated by graphviz version 12.2.1 (0)
 -->
<!-- Title: include/Logger.hpp Pages: 1 -->
<svg width="572pt" height="86pt"
 viewBox="0.00 0.00 572.38 85.50" xmlns="http://www.w3.org/2000/svg" xmlns:xlink="http://www.w3.org/1999/xlink">
<g id="graph0" class="graph" transform="scale(1 1) rotate(0) translate(4 81.5)">
<title>include/Logger.hpp</title>
<!-- Node1 -->
<g id="Node000001" class="node">
<title>Node1</title>
<g id="a_Node000001"><a xlink:title="Provides logging functionality.">
<polygon fill="#999999" stroke="#666666" points="348.62,-77.5 240.38,-77.5 240.38,-56.75 348.62,-56.75 348.62,-77.5"/>
<text text-anchor="middle" x="294.5" y="-64" font-family="Helvetica,sans-Serif" font-size="10.00">include/Logger.hpp</text>
</a>
</g>
</g>
<!-- Node2 -->
<g id="Node000002" class="node">
<title>Node2</title>
<g id="a_Node000002"><a xlink:title=" ">
<polygon fill="#e0e0e0" stroke="#999999" points="49,-20.75 0,-20.75 0,0 49,0 49,-20.75"/>
<text text-anchor="middle" x="24.5" y="-7.25" font-family="Helvetica,sans-Serif" font-size="10.00">chrono</text>
</a>
</g>
</g>
<!-- Node1&#45;&gt;Node2 -->
<g id="edge1_Node000001_Node000002" class="edge">
<title>Node1&#45;&gt;Node2</title>
<g id="a_edge1_Node000001_Node000002"><a xlink:title=" ">
<path fill="none" stroke="#63b8ff" d="M240.35,-56.97C194.78,-48.98 127.7,-36.57 60.16,-20.99"/>
<polygon fill="#63b8ff" stroke="#63b8ff" points="61.33,-17.67 50.8,-18.81 59.74,-24.49 61.33,-17.67"/>
</a>
</g>
</g>
<!-- Node3 -->
<g id="Node000003" class="node">
<title>Node3</title>
<g id="a_Node000003"><a xlink:title=" ">
<polygon fill="#e0e0e0" stroke="#999999" points="137.88,-20.75 67.12,-20.75 67.12,0 137.88,0 137.88,-20.75"/>
<text text-anchor="middle" x="102.5" y="-7.25" font-family="Helvetica,sans-Serif" font-size="10.00">fmt/printf.h</text>
</a>
</g>
</g>
<!-- Node1&#45;&gt;Node3 -->
<g id="edge2_Node000001_Node000003" class="edge">
<title>Node1&#45;&gt;Node3</title>
<g id="a_edge2_Node000001_Node000003"><a xlink:title=" ">
<path fill="none" stroke="#63b8ff" d="M260.17,-56.34C228.74,-47.37 182,-34.04 147.56,-24.23"/>
<polygon fill="#63b8ff" stroke="#63b8ff" points="148.88,-20.96 138.31,-21.59 146.96,-27.69 148.88,-20.96"/>
</a>
</g>
</g>
<!-- Node4 -->
<g id="Node000004" class="node">
<title>Node4</title>
<g id="a_Node000004"><a xlink:title=" ">
<polygon fill="#e0e0e0" stroke="#999999" points="210.62,-20.75 156.38,-20.75 156.38,0 210.62,0 210.62,-20.75"/>
<text text-anchor="middle" x="183.5" y="-7.25" font-family="Helvetica,sans-Serif" font-size="10.00">fstream</text>
</a>
</g>
</g>
<!-- Node1&#45;&gt;Node4 -->
<g id="edge3_Node000001_Node000004" class="edge">
<title>Node1&#45;&gt;Node4</title>
<g id="a_edge3_Node000001_Node000004"><a xlink:title=" ">
<path fill="none" stroke="#63b8ff" d="M274.66,-56.34C257.61,-47.93 232.78,-35.68 213.34,-26.09"/>
<polygon fill="#63b8ff" stroke="#63b8ff" points="215.05,-23.03 204.53,-21.75 211.95,-29.31 215.05,-23.03"/>
</a>
</g>
</g>
<!-- Node5 -->
<g id="Node000005" class="node">
<title>Node5</title>
<g id="a_Node000005"><a xlink:title=" ">
<polygon fill="#e0e0e0" stroke="#999999" points="284.38,-20.75 228.62,-20.75 228.62,0 284.38,0 284.38,-20.75"/>
<text text-anchor="middle" x="256.5" y="-7.25" font-family="Helvetica,sans-Serif" font-size="10.00">iomanip</text>
</a>
</g>
</g>
<!-- Node1&#45;&gt;Node5 -->
<g id="edge4_Node000001_Node000005" class="edge">
<title>Node1&#45;&gt;Node5</title>
<g id="a_edge4_Node000001_Node000005"><a xlink:title=" ">
<path fill="none" stroke="#63b8ff" d="M287.71,-56.34C282.73,-49.17 275.83,-39.23 269.78,-30.51"/>
<polygon fill="#63b8ff" stroke="#63b8ff" points="272.68,-28.54 264.1,-22.32 266.92,-32.53 272.68,-28.54"/>
</a>
</g>
</g>
<!-- Node6 -->
<g id="Node000006" class="node">
<title>Node6</title>
<g id="a_Node000006"><a xlink:title=" ">
<polygon fill="#e0e0e0" stroke="#999999" points="362.25,-20.75 302.75,-20.75 302.75,0 362.25,0 362.25,-20.75"/>
<text text-anchor="middle" x="332.5" y="-7.25" font-family="Helvetica,sans-Serif" font-size="10.00">iostream</text>
</a>
</g>
</g>
<!-- Node1&#45;&gt;Node6 -->
<g id="edge5_Node000001_Node000006" class="edge">
<title>Node1&#45;&gt;Node6</title>
<g id="a_edge5_Node000001_Node000006"><a xlink:title=" ">
<path fill="none" stroke="#63b8ff" d="M301.29,-56.34C306.27,-49.17 313.17,-39.23 319.22,-30.51"/>
<polygon fill="#63b8ff" stroke="#63b8ff" points="322.08,-32.53 324.9,-22.32 316.32,-28.54 322.08,-32.53"/>
</a>
</g>
</g>
<!-- Node7 -->
<g id="Node000007" class="node">
<title>Node7</title>
<g id="a_Node000007"><a xlink:title=" ">
<polygon fill="#e0e0e0" stroke="#999999" points="428.25,-20.75 380.75,-20.75 380.75,0 428.25,0 428.25,-20.75"/>
<text text-anchor="middle" x="404.5" y="-7.25" font-family="Helvetica,sans-Serif" font-size="10.00">mutex</text>
</a>
</g>
</g>
<!-- Node1&#45;&gt;Node7 -->
<g id="edge6_Node000001_Node000007" class="edge">
<title>Node1&#45;&gt;Node7</title>
<g id="a_edge6_Node000001_Node000007"><a xlink:title=" ">
<path fill="none" stroke="#63b8ff" d="M314.17,-56.34C331.06,-47.93 355.67,-35.68 374.93,-26.09"/>
<polygon fill="#63b8ff" stroke="#63b8ff" points="376.26,-29.34 383.65,-21.75 373.14,-23.08 376.26,-29.34"/>
</a>
</g>
</g>
<!-- Node8 -->
<g id="Node000008" class="node">
<title>Node8</title>
<g id="a_Node000008"><a xlink:title=" ">
<polygon fill="#e0e0e0" stroke="#999999" points="502.38,-20.75 446.62,-20.75 446.62,0 502.38,0 502.38,-20.75"/>
<text text-anchor="middle" x="474.5" y="-7.25" font-family="Helvetica,sans-Serif" font-size="10.00">sstream</text>
</a>
</g>
</g>
<!-- Node1&#45;&gt;Node8 -->
<g id="edge7_Node000001_Node000008" class="edge">
<title>Node1&#45;&gt;Node8</title>
<g id="a_edge7_Node000001_Node000008"><a xlink:title=" ">
<path fill="none" stroke="#63b8ff" d="M326.68,-56.34C357.07,-47.09 402.72,-33.21 435.24,-23.32"/>
<polygon fill="#63b8ff" stroke="#63b8ff" points="436.16,-26.7 444.7,-20.44 434.12,-20 436.16,-26.7"/>
</a>
</g>
</g>
<!-- Node9 -->
<g id="Node000009" class="node">
<title>Node9</title>
<g id="a_Node000009"><a xlink:title=" ">
<polygon fill="#e0e0e0" stroke="#999999" points="564.38,-20.75 520.62,-20.75 520.62,0 564.38,0 564.38,-20.75"/>
<text text-anchor="middle" x="542.5" y="-7.25" font-family="Helvetica,sans-Serif" font-size="10.00">string</text>
</a>
</g>
</g>
<!-- Node1&#45;&gt;Node9 -->
<g id="edge8_Node000001_Node000009" class="edge">
<title>Node1&#45;&gt;Node9</title>
<g id="a_edge8_Node000001_Node000009"><a xlink:title=" ">
<path fill="none" stroke="#63b8ff" d="M347.86,-56.32C389.47,-48.37 448.92,-36.34 509.33,-21.14"/>
<polygon fill="#63b8ff" stroke="#63b8ff" points="509.92,-24.6 518.75,-18.74 508.19,-17.82 509.92,-24.6"/>
</a>
</g>
</g>
</g>
</svg>
