<?xml version="1.0" encoding="UTF-8" standalone="no"?>
<!DOCTYPE svg PUBLIC "-//W3C//DTD SVG 1.1//EN"
 "http://www.w3.org/Graphics/SVG/1.1/DTD/svg11.dtd">
<!-- Generated by graphviz version 2.43.0 (0)
 -->
<!-- Title: include/math/Matrix4.hpp Pages: 1 -->
<svg width="696pt" height="489pt"
 viewBox="0.00 0.00 696.00 489.00" xmlns="http://www.w3.org/2000/svg" xmlns:xlink="http://www.w3.org/1999/xlink">
<g id="graph0" class="graph" transform="scale(1 1) rotate(0) translate(4 485)">
<title>include/math/Matrix4.hpp</title>
<!-- Node1 -->
<g id="Node000001" class="node">
<title>Node1</title>
<g id="a_Node000001"><a xlink:title="Defines the Matrix4 class for 3D transformation operations.">
<polygon fill="#999999" stroke="#666666" points="174,-481 32,-481 32,-462 174,-462 174,-481"/>
<text text-anchor="middle" x="103" y="-469" font-family="Helvetica,sans-Serif" font-size="10.00">include/math/Matrix4.hpp</text>
</a>
</g>
</g>
<!-- Node2 -->
<g id="Node000002" class="node">
<title>Node2</title>
<g id="a_Node000002"><a xlink:href="FrameEngine_8hpp_source.html" target="_top" xlink:title=" ">
<polygon fill="white" stroke="#666666" points="453,-19 313,-19 313,0 453,0 453,-19"/>
<text text-anchor="middle" x="383" y="-7" font-family="Helvetica,sans-Serif" font-size="10.00">include/FrameEngine.hpp</text>
</a>
</g>
</g>
<!-- Node1&#45;&gt;Node2 -->
<g id="edge1_Node000001_Node000002" class="edge">
<title>Node1&#45;&gt;Node2</title>
<g id="a_edge1_Node000001_Node000002"><a xlink:title=" ">
<path fill="none" stroke="#63b8ff" d="M76.14,-457.15C45.62,-439.87 0,-406.64 0,-362.5 0,-362.5 0,-362.5 0,-118.5 0,-54.25 202.18,-26.35 312.75,-15.9"/>
<polygon fill="#63b8ff" stroke="#63b8ff" points="74.6,-460.3 85.06,-462 77.94,-454.15 74.6,-460.3"/>
</a>
</g>
</g>
<!-- Node3 -->
<g id="Node000003" class="node">
<title>Node3</title>
<g id="a_Node000003"><a xlink:href="TransformComponent_8hpp.html" target="_top" xlink:title="Defines the TransformComponent for ECS&#45;based spatial transformations.">
<polygon fill="white" stroke="#666666" points="230,-316 84,-316 84,-286 230,-286 230,-316"/>
<text text-anchor="start" x="92" y="-304" font-family="Helvetica,sans-Serif" font-size="10.00">include/components</text>
<text text-anchor="middle" x="157" y="-293" font-family="Helvetica,sans-Serif" font-size="10.00">/TransformComponent.hpp</text>
</a>
</g>
</g>
<!-- Node1&#45;&gt;Node3 -->
<g id="edge2_Node000001_Node000003" class="edge">
<title>Node1&#45;&gt;Node3</title>
<g id="a_edge2_Node000001_Node000003"><a xlink:title=" ">
<path fill="none" stroke="#63b8ff" d="M108.94,-451.95C119.82,-418.02 142.69,-346.65 152.44,-316.22"/>
<polygon fill="#63b8ff" stroke="#63b8ff" points="105.47,-451.32 105.75,-461.91 112.14,-453.46 105.47,-451.32"/>
</a>
</g>
</g>
<!-- Node8 -->
<g id="Node000008" class="node">
<title>Node8</title>
<g id="a_Node000008"><a xlink:href="Camera_8hpp.html" target="_top" xlink:title="Defines the Camera class for view and projection.">
<polygon fill="white" stroke="#666666" points="192,-184 28,-184 28,-165 192,-165 192,-184"/>
<text text-anchor="middle" x="110" y="-172" font-family="Helvetica,sans-Serif" font-size="10.00">include/rendering/Camera.hpp</text>
</a>
</g>
</g>
<!-- Node1&#45;&gt;Node8 -->
<g id="edge17_Node000001_Node000008" class="edge">
<title>Node1&#45;&gt;Node8</title>
<g id="a_edge17_Node000001_Node000008"><a xlink:title=" ">
<path fill="none" stroke="#63b8ff" d="M90.43,-453.57C76.51,-433.1 56,-397.08 56,-362.5 56,-362.5 56,-362.5 56,-300 56,-263.35 60.1,-253.02 76,-220 82.58,-206.33 93.77,-192.8 101.5,-184.31"/>
<polygon fill="#63b8ff" stroke="#63b8ff" points="87.63,-455.68 96.27,-461.82 93.35,-451.63 87.63,-455.68"/>
</a>
</g>
</g>
<!-- Node10 -->
<g id="Node000010" class="node">
<title>Node10</title>
<g id="a_Node000010"><a xlink:href="Shader_8hpp.html" target="_top" xlink:title="Manages OpenGL shaders.">
<polygon fill="white" stroke="#666666" points="352,-426 194,-426 194,-407 352,-407 352,-426"/>
<text text-anchor="middle" x="273" y="-414" font-family="Helvetica,sans-Serif" font-size="10.00">include/rendering/Shader.hpp</text>
</a>
</g>
</g>
<!-- Node1&#45;&gt;Node10 -->
<g id="edge18_Node000001_Node000010" class="edge">
<title>Node1&#45;&gt;Node10</title>
<g id="a_edge18_Node000001_Node000010"><a xlink:title=" ">
<path fill="none" stroke="#63b8ff" d="M140.12,-458.93C171.87,-449.03 216.85,-435.01 245.47,-426.08"/>
<polygon fill="#63b8ff" stroke="#63b8ff" points="138.82,-455.67 130.31,-461.98 140.9,-462.35 138.82,-455.67"/>
</a>
</g>
</g>
<!-- Node4 -->
<g id="Node000004" class="node">
<title>Node4</title>
<g id="a_Node000004"><a xlink:href="Object_8hpp.html" target="_top" xlink:title="Defines the Object class, a special ECS entity wrapper.">
<polygon fill="white" stroke="#666666" points="432,-244.5 286,-244.5 286,-225.5 432,-225.5 432,-244.5"/>
<text text-anchor="middle" x="359" y="-232.5" font-family="Helvetica,sans-Serif" font-size="10.00">include/objects/Object.hpp</text>
</a>
</g>
</g>
<!-- Node3&#45;&gt;Node4 -->
<g id="edge3_Node000003_Node000004" class="edge">
<title>Node3&#45;&gt;Node4</title>
<g id="a_edge3_Node000003_Node000004"><a xlink:title=" ">
<path fill="none" stroke="#63b8ff" d="M210.99,-282.89C250.11,-270.5 301.33,-254.27 332.12,-244.52"/>
<polygon fill="#63b8ff" stroke="#63b8ff" points="209.81,-279.6 201.33,-285.95 211.92,-286.27 209.81,-279.6"/>
</a>
</g>
</g>
<!-- Node9 -->
<g id="Node000009" class="node">
<title>Node9</title>
<g id="a_Node000009"><a xlink:href="LightingSystem_8hpp_source.html" target="_top" xlink:title=" ">
<polygon fill="white" stroke="#666666" points="228.5,-250 85.5,-250 85.5,-220 228.5,-220 228.5,-250"/>
<text text-anchor="start" x="93.5" y="-238" font-family="Helvetica,sans-Serif" font-size="10.00">include/rendering/Lighting</text>
<text text-anchor="middle" x="157" y="-227" font-family="Helvetica,sans-Serif" font-size="10.00">System.hpp</text>
</a>
</g>
</g>
<!-- Node3&#45;&gt;Node9 -->
<g id="edge15_Node000003_Node000009" class="edge">
<title>Node3&#45;&gt;Node9</title>
<g id="a_edge15_Node000003_Node000009"><a xlink:title=" ">
<path fill="none" stroke="#63b8ff" d="M157,-275.54C157,-266.96 157,-257.61 157,-250.16"/>
<polygon fill="#63b8ff" stroke="#63b8ff" points="153.5,-275.8 157,-285.8 160.5,-275.8 153.5,-275.8"/>
</a>
</g>
</g>
<!-- Node4&#45;&gt;Node2 -->
<g id="edge4_Node000004_Node000002" class="edge">
<title>Node4&#45;&gt;Node2</title>
<g id="a_edge4_Node000004_Node000002"><a xlink:title=" ">
<path fill="none" stroke="#63b8ff" d="M438.03,-222.61C460.44,-215.33 482.41,-203.42 496,-184 512.89,-159.86 477.63,-151.82 459,-129 427.93,-90.95 398.8,-39.6 387.71,-19.29"/>
<polygon fill="#63b8ff" stroke="#63b8ff" points="437.02,-219.26 428.42,-225.46 439.01,-225.98 437.02,-219.26"/>
</a>
</g>
</g>
<!-- Node5 -->
<g id="Node000005" class="node">
<title>Node5</title>
<g id="a_Node000005"><a xlink:href="PointLight_8hpp_source.html" target="_top" xlink:title=" ">
<polygon fill="white" stroke="#666666" points="487.5,-184 324.5,-184 324.5,-165 487.5,-165 487.5,-184"/>
<text text-anchor="middle" x="406" y="-172" font-family="Helvetica,sans-Serif" font-size="10.00">include/objects/PointLight.hpp</text>
</a>
</g>
</g>
<!-- Node4&#45;&gt;Node5 -->
<g id="edge5_Node000004_Node000005" class="edge">
<title>Node4&#45;&gt;Node5</title>
<g id="a_edge5_Node000004_Node000005"><a xlink:title=" ">
<path fill="none" stroke="#63b8ff" d="M372.3,-217.45C381,-206.62 392.01,-192.91 399.04,-184.17"/>
<polygon fill="#63b8ff" stroke="#63b8ff" points="369.47,-215.38 365.94,-225.37 374.93,-219.76 369.47,-215.38"/>
</a>
</g>
</g>
<!-- Node6 -->
<g id="Node000006" class="node">
<title>Node6</title>
<g id="a_Node000006"><a xlink:href="Renderer_8hpp.html" target="_top" xlink:title="Manages the rendering pipeline and object submission.">
<polygon fill="white" stroke="#666666" points="365.5,-129 196.5,-129 196.5,-110 365.5,-110 365.5,-129"/>
<text text-anchor="middle" x="281" y="-117" font-family="Helvetica,sans-Serif" font-size="10.00">include/rendering/Renderer.hpp</text>
</a>
</g>
</g>
<!-- Node4&#45;&gt;Node6 -->
<g id="edge14_Node000004_Node000006" class="edge">
<title>Node4&#45;&gt;Node6</title>
<g id="a_edge14_Node000004_Node000006"><a xlink:title=" ">
<path fill="none" stroke="#63b8ff" d="M343.09,-217.86C334.24,-208.43 323.36,-196.05 315,-184 302.17,-165.51 290.57,-141.63 284.82,-129.08"/>
<polygon fill="#63b8ff" stroke="#63b8ff" points="340.78,-220.51 350.23,-225.31 345.83,-215.67 340.78,-220.51"/>
</a>
</g>
</g>
<!-- Node4&#45;&gt;Node8 -->
<g id="edge11_Node000004_Node000008" class="edge">
<title>Node4&#45;&gt;Node8</title>
<g id="a_edge11_Node000004_Node000008"><a xlink:title=" ">
<path fill="none" stroke="#63b8ff" d="M312.95,-223.18C264.83,-211.88 190.34,-194.38 146.25,-184.02"/>
<polygon fill="#63b8ff" stroke="#63b8ff" points="312.26,-226.61 322.79,-225.49 313.86,-219.8 312.26,-226.61"/>
</a>
</g>
</g>
<!-- Node5&#45;&gt;Node2 -->
<g id="edge6_Node000005_Node000002" class="edge">
<title>Node5&#45;&gt;Node2</title>
<g id="a_edge6_Node000005_Node000002"><a xlink:title=" ">
<path fill="none" stroke="#63b8ff" d="M403.37,-154.83C398.4,-119.67 387.85,-44.9 384.24,-19.31"/>
<polygon fill="#63b8ff" stroke="#63b8ff" points="399.9,-155.32 404.76,-164.74 406.83,-154.35 399.9,-155.32"/>
</a>
</g>
</g>
<!-- Node5&#45;&gt;Node6 -->
<g id="edge7_Node000005_Node000006" class="edge">
<title>Node5&#45;&gt;Node6</title>
<g id="a_edge7_Node000005_Node000006"><a xlink:title=" ">
<path fill="none" stroke="#63b8ff" d="M376.59,-161.03C353.47,-151.23 321.87,-137.83 301.45,-129.17"/>
<polygon fill="#63b8ff" stroke="#63b8ff" points="375.34,-164.3 385.92,-164.98 378.08,-157.86 375.34,-164.3"/>
</a>
</g>
</g>
<!-- Node6&#45;&gt;Node2 -->
<g id="edge10_Node000006_Node000002" class="edge">
<title>Node6&#45;&gt;Node2</title>
<g id="a_edge10_Node000006_Node000002"><a xlink:title=" ">
<path fill="none" stroke="#63b8ff" d="M305.19,-104.7C317.72,-96.78 332.72,-86.03 344,-74 360.11,-56.82 373.02,-31.98 379.15,-19.04"/>
<polygon fill="#63b8ff" stroke="#63b8ff" points="303.3,-101.75 296.58,-109.94 306.94,-107.73 303.3,-101.75"/>
</a>
</g>
</g>
<!-- Node7 -->
<g id="Node000007" class="node">
<title>Node7</title>
<g id="a_Node000007"><a xlink:href="Engine_8hpp.html" target="_top" xlink:title="Defines the core Engine class responsible for running simulation.">
<polygon fill="white" stroke="#666666" points="335.5,-74 226.5,-74 226.5,-55 335.5,-55 335.5,-74"/>
<text text-anchor="middle" x="281" y="-62" font-family="Helvetica,sans-Serif" font-size="10.00">include/Engine.hpp</text>
</a>
</g>
</g>
<!-- Node6&#45;&gt;Node7 -->
<g id="edge8_Node000006_Node000007" class="edge">
<title>Node6&#45;&gt;Node7</title>
<g id="a_edge8_Node000006_Node000007"><a xlink:title=" ">
<path fill="none" stroke="#63b8ff" d="M281,-99.66C281,-90.93 281,-80.99 281,-74.09"/>
<polygon fill="#63b8ff" stroke="#63b8ff" points="277.5,-99.75 281,-109.75 284.5,-99.75 277.5,-99.75"/>
</a>
</g>
</g>
<!-- Node7&#45;&gt;Node2 -->
<g id="edge9_Node000007_Node000002" class="edge">
<title>Node7&#45;&gt;Node2</title>
<g id="a_edge9_Node000007_Node000002"><a xlink:title=" ">
<path fill="none" stroke="#63b8ff" d="M306.27,-50.37C325.01,-40.63 350.02,-27.64 366.31,-19.17"/>
<polygon fill="#63b8ff" stroke="#63b8ff" points="304.65,-47.27 297.39,-54.98 307.88,-53.48 304.65,-47.27"/>
</a>
</g>
</g>
<!-- Node8&#45;&gt;Node2 -->
<g id="edge12_Node000008_Node000002" class="edge">
<title>Node8&#45;&gt;Node2</title>
<g id="a_edge12_Node000008_Node000002"><a xlink:title=" ">
<path fill="none" stroke="#63b8ff" d="M120.7,-156.37C137.81,-130.43 173.83,-81.41 217,-55 247.54,-36.31 285.92,-25.37 318.09,-19.01"/>
<polygon fill="#63b8ff" stroke="#63b8ff" points="117.75,-154.49 115.28,-164.8 123.63,-158.28 117.75,-154.49"/>
</a>
</g>
</g>
<!-- Node8&#45;&gt;Node6 -->
<g id="edge13_Node000008_Node000006" class="edge">
<title>Node8&#45;&gt;Node6</title>
<g id="a_edge13_Node000008_Node000006"><a xlink:title=" ">
<path fill="none" stroke="#63b8ff" d="M147.34,-161.93C179.28,-152.03 224.52,-138.01 253.31,-129.08"/>
<polygon fill="#63b8ff" stroke="#63b8ff" points="145.99,-158.68 137.47,-164.98 148.06,-165.37 145.99,-158.68"/>
</a>
</g>
</g>
<!-- Node9&#45;&gt;Node6 -->
<g id="edge16_Node000009_Node000006" class="edge">
<title>Node9&#45;&gt;Node6</title>
<g id="a_edge16_Node000009_Node000006"><a xlink:title=" ">
<path fill="none" stroke="#63b8ff" d="M180.03,-212.92C207.46,-187.81 251.98,-147.06 271.42,-129.27"/>
<polygon fill="#63b8ff" stroke="#63b8ff" points="177.47,-210.52 172.45,-219.85 182.19,-215.68 177.47,-210.52"/>
</a>
</g>
</g>
<!-- Node10&#45;&gt;Node2 -->
<g id="edge19_Node000010_Node000002" class="edge">
<title>Node10&#45;&gt;Node2</title>
<g id="a_edge19_Node000010_Node000002"><a xlink:title=" ">
<path fill="none" stroke="#63b8ff" d="M362.12,-409.1C484.07,-397.85 688,-369.02 688,-302 688,-302 688,-302 688,-118.5 688,-66.75 530.01,-33.55 441.45,-19"/>
<polygon fill="#63b8ff" stroke="#63b8ff" points="361.68,-405.63 352.04,-410.01 362.31,-412.6 361.68,-405.63"/>
</a>
</g>
</g>
<!-- Node10&#45;&gt;Node6 -->
<g id="edge26_Node000010_Node000006" class="edge">
<title>Node10&#45;&gt;Node6</title>
<g id="a_edge26_Node000010_Node000006"><a xlink:title=" ">
<path fill="none" stroke="#63b8ff" d="M269.01,-396.87C264.57,-374.47 258,-335.67 258,-302 258,-302 258,-302 258,-234 258,-194.19 271.76,-148.07 277.99,-129.21"/>
<polygon fill="#63b8ff" stroke="#63b8ff" points="265.59,-397.63 271.04,-406.72 272.45,-396.22 265.59,-397.63"/>
</a>
</g>
</g>
<!-- Node11 -->
<g id="Node000011" class="node">
<title>Node11</title>
<g id="a_Node000011"><a xlink:href="Material_8hpp_source.html" target="_top" xlink:title=" ">
<polygon fill="white" stroke="#666666" points="480,-371 314,-371 314,-352 480,-352 480,-371"/>
<text text-anchor="middle" x="397" y="-359" font-family="Helvetica,sans-Serif" font-size="10.00">include/rendering/Material.hpp</text>
</a>
</g>
</g>
<!-- Node10&#45;&gt;Node11 -->
<g id="edge20_Node000010_Node000011" class="edge">
<title>Node10&#45;&gt;Node11</title>
<g id="a_edge20_Node000010_Node000011"><a xlink:title=" ">
<path fill="none" stroke="#63b8ff" d="M302.18,-403.03C325.11,-393.23 356.45,-379.83 376.71,-371.17"/>
<polygon fill="#63b8ff" stroke="#63b8ff" points="300.74,-399.84 292.92,-406.98 303.49,-406.27 300.74,-399.84"/>
</a>
</g>
</g>
<!-- Node11&#45;&gt;Node4 -->
<g id="edge25_Node000011_Node000004" class="edge">
<title>Node11&#45;&gt;Node4</title>
<g id="a_edge25_Node000011_Node000004"><a xlink:title=" ">
<path fill="none" stroke="#63b8ff" d="M373.35,-346.09C363.23,-338.52 352.5,-328.26 347,-316 336.19,-291.91 347.73,-260.06 354.62,-244.84"/>
<polygon fill="#63b8ff" stroke="#63b8ff" points="371.36,-348.97 381.57,-351.8 375.35,-343.22 371.36,-348.97"/>
</a>
</g>
</g>
<!-- Node12 -->
<g id="Node000012" class="node">
<title>Node12</title>
<g id="a_Node000012"><a xlink:href="MaterialComponent_8hpp_source.html" target="_top" xlink:title=" ">
<polygon fill="white" stroke="#666666" points="493.5,-316 356.5,-316 356.5,-286 493.5,-286 493.5,-316"/>
<text text-anchor="start" x="364.5" y="-304" font-family="Helvetica,sans-Serif" font-size="10.00">include/components</text>
<text text-anchor="middle" x="425" y="-293" font-family="Helvetica,sans-Serif" font-size="10.00">/MaterialComponent.hpp</text>
</a>
</g>
</g>
<!-- Node11&#45;&gt;Node12 -->
<g id="edge21_Node000011_Node000012" class="edge">
<title>Node11&#45;&gt;Node12</title>
<g id="a_edge21_Node000011_Node000012"><a xlink:title=" ">
<path fill="none" stroke="#63b8ff" d="M405.48,-342.78C409.57,-334.23 414.41,-324.13 418.24,-316.11"/>
<polygon fill="#63b8ff" stroke="#63b8ff" points="402.29,-341.34 401.13,-351.87 408.61,-344.36 402.29,-341.34"/>
</a>
</g>
</g>
<!-- Node13 -->
<g id="Node000013" class="node">
<title>Node13</title>
<g id="a_Node000013"><a xlink:href="BasicMaterial_8hpp_source.html" target="_top" xlink:title=" ">
<polygon fill="white" stroke="#666666" points="660,-129 468,-129 468,-110 660,-110 660,-129"/>
<text text-anchor="middle" x="564" y="-117" font-family="Helvetica,sans-Serif" font-size="10.00">include/materials/BasicMaterial.hpp</text>
</a>
</g>
</g>
<!-- Node11&#45;&gt;Node13 -->
<g id="edge23_Node000011_Node000013" class="edge">
<title>Node11&#45;&gt;Node13</title>
<g id="a_edge23_Node000011_Node000013"><a xlink:title=" ">
<path fill="none" stroke="#63b8ff" d="M447.38,-348.89C466.75,-342.16 487.63,-331.78 502,-316 553.78,-259.13 562.32,-159.05 563.72,-129.16"/>
<polygon fill="#63b8ff" stroke="#63b8ff" points="446.18,-345.6 437.74,-352 448.33,-352.26 446.18,-345.6"/>
</a>
</g>
</g>
<!-- Node12&#45;&gt;Node4 -->
<g id="edge22_Node000012_Node000004" class="edge">
<title>Node12&#45;&gt;Node4</title>
<g id="a_edge22_Node000012_Node000004"><a xlink:title=" ">
<path fill="none" stroke="#63b8ff" d="M402.94,-278.6C391.07,-267.1 377.07,-253.52 368.12,-244.84"/>
<polygon fill="#63b8ff" stroke="#63b8ff" points="400.74,-281.35 410.35,-285.8 405.61,-276.32 400.74,-281.35"/>
</a>
</g>
</g>
<!-- Node13&#45;&gt;Node2 -->
<g id="edge24_Node000013_Node000002" class="edge">
<title>Node13&#45;&gt;Node2</title>
<g id="a_edge24_Node000013_Node000002"><a xlink:title=" ">
<path fill="none" stroke="#63b8ff" d="M540.66,-104.57C502.64,-81.89 428.48,-37.64 397.32,-19.05"/>
<polygon fill="#63b8ff" stroke="#63b8ff" points="539.11,-107.73 549.49,-109.84 542.7,-101.71 539.11,-107.73"/>
</a>
</g>
</g>
</g>
</svg>
