<?xml version="1.0" encoding="UTF-8" standalone="no"?>
<!DOCTYPE svg PUBLIC "-//W3C//DTD SVG 1.1//EN"
 "http://www.w3.org/Graphics/SVG/1.1/DTD/svg11.dtd">
<!-- Generated by graphviz version 2.43.0 (0)
 -->
<!-- Title: include/math/Matrix4.hpp Pages: 1 -->
<svg width="676pt" height="368pt"
 viewBox="0.00 0.00 676.00 368.00" xmlns="http://www.w3.org/2000/svg" xmlns:xlink="http://www.w3.org/1999/xlink">
<g id="graph0" class="graph" transform="scale(1 1) rotate(0) translate(4 364)">
<title>include/math/Matrix4.hpp</title>
<!-- Node1 -->
<g id="Node000001" class="node">
<title>Node1</title>
<g id="a_Node000001"><a xlink:title="Defines the Matrix4 class for 3D transformation operations.">
<polygon fill="#999999" stroke="#666666" points="430,-360 288,-360 288,-341 430,-341 430,-360"/>
<text text-anchor="middle" x="359" y="-348" font-family="Helvetica,sans-Serif" font-size="10.00">include/math/Matrix4.hpp</text>
</a>
</g>
</g>
<!-- Node2 -->
<g id="Node000002" class="node">
<title>Node2</title>
<g id="a_Node000002"><a xlink:href="FrameEngine_8hpp_source.html" target="_top" xlink:title=" ">
<polygon fill="white" stroke="#666666" points="341,-19 201,-19 201,0 341,0 341,-19"/>
<text text-anchor="middle" x="271" y="-7" font-family="Helvetica,sans-Serif" font-size="10.00">include/FrameEngine.hpp</text>
</a>
</g>
</g>
<!-- Node1&#45;&gt;Node2 -->
<g id="edge1_Node000001_Node000002" class="edge">
<title>Node1&#45;&gt;Node2</title>
<g id="a_edge1_Node000001_Node000002"><a xlink:title=" ">
<path fill="none" stroke="#63b8ff" d="M280.2,-339.5C174.52,-323.83 0,-289.1 0,-230.5 0,-230.5 0,-230.5 0,-118.5 0,-70.7 147.32,-34.68 224.72,-19.05"/>
<polygon fill="#63b8ff" stroke="#63b8ff" points="279.81,-342.97 290.21,-340.95 280.81,-336.05 279.81,-342.97"/>
</a>
</g>
</g>
<!-- Node3 -->
<g id="Node000003" class="node">
<title>Node3</title>
<g id="a_Node000003"><a xlink:href="TransformComponent_8hpp.html" target="_top" xlink:title="Defines the TransformComponent for ECS&#45;based spatial transformations.">
<polygon fill="white" stroke="#666666" points="382,-305 236,-305 236,-275 382,-275 382,-305"/>
<text text-anchor="start" x="244" y="-293" font-family="Helvetica,sans-Serif" font-size="10.00">include/components</text>
<text text-anchor="middle" x="309" y="-282" font-family="Helvetica,sans-Serif" font-size="10.00">/TransformComponent.hpp</text>
</a>
</g>
</g>
<!-- Node1&#45;&gt;Node3 -->
<g id="edge2_Node000001_Node000003" class="edge">
<title>Node1&#45;&gt;Node3</title>
<g id="a_edge2_Node000001_Node000003"><a xlink:title=" ">
<path fill="none" stroke="#63b8ff" d="M345.03,-333.15C337.49,-324.34 328.28,-313.56 321.06,-305.11"/>
<polygon fill="#63b8ff" stroke="#63b8ff" points="342.46,-335.54 351.62,-340.87 347.79,-330.99 342.46,-335.54"/>
</a>
</g>
</g>
<!-- Node8 -->
<g id="Node000008" class="node">
<title>Node8</title>
<g id="a_Node000008"><a xlink:href="Camera_8hpp.html" target="_top" xlink:title="Defines the Camera class for view and projection.">
<polygon fill="white" stroke="#666666" points="492,-184 328,-184 328,-165 492,-165 492,-184"/>
<text text-anchor="middle" x="410" y="-172" font-family="Helvetica,sans-Serif" font-size="10.00">include/rendering/Camera.hpp</text>
</a>
</g>
</g>
<!-- Node1&#45;&gt;Node8 -->
<g id="edge16_Node000001_Node000008" class="edge">
<title>Node1&#45;&gt;Node8</title>
<g id="a_edge16_Node000001_Node000008"><a xlink:title=" ">
<path fill="none" stroke="#63b8ff" d="M373.77,-333.01C380.07,-325.08 386.91,-315.11 391,-305 408.39,-262.03 410.13,-205.31 410.12,-184.04"/>
<polygon fill="#63b8ff" stroke="#63b8ff" points="371.03,-330.82 367.28,-340.73 376.39,-335.32 371.03,-330.82"/>
</a>
</g>
</g>
<!-- Node10 -->
<g id="Node000010" class="node">
<title>Node10</title>
<g id="a_Node000010"><a xlink:href="Shader_8hpp.html" target="_top" xlink:title="Manages OpenGL shaders.">
<polygon fill="white" stroke="#666666" points="668,-184 510,-184 510,-165 668,-165 668,-184"/>
<text text-anchor="middle" x="589" y="-172" font-family="Helvetica,sans-Serif" font-size="10.00">include/rendering/Shader.hpp</text>
</a>
</g>
</g>
<!-- Node1&#45;&gt;Node10 -->
<g id="edge17_Node000001_Node000010" class="edge">
<title>Node1&#45;&gt;Node10</title>
<g id="a_edge17_Node000001_Node000010"><a xlink:title=" ">
<path fill="none" stroke="#63b8ff" d="M378.46,-334.78C424.82,-299.71 540.64,-212.09 577.53,-184.18"/>
<polygon fill="#63b8ff" stroke="#63b8ff" points="376.27,-332.05 370.41,-340.87 380.49,-337.63 376.27,-332.05"/>
</a>
</g>
</g>
<!-- Node4 -->
<g id="Node000004" class="node">
<title>Node4</title>
<g id="a_Node000004"><a xlink:href="Object_8hpp.html" target="_top" xlink:title="Defines the Object class, a special ECS entity wrapper.">
<polygon fill="white" stroke="#666666" points="382,-239 236,-239 236,-220 382,-220 382,-239"/>
<text text-anchor="middle" x="309" y="-227" font-family="Helvetica,sans-Serif" font-size="10.00">include/objects/Object.hpp</text>
</a>
</g>
</g>
<!-- Node3&#45;&gt;Node4 -->
<g id="edge3_Node000003_Node000004" class="edge">
<title>Node3&#45;&gt;Node4</title>
<g id="a_edge3_Node000003_Node000004"><a xlink:title=" ">
<path fill="none" stroke="#63b8ff" d="M309,-264.75C309,-255.72 309,-246.03 309,-239.27"/>
<polygon fill="#63b8ff" stroke="#63b8ff" points="305.5,-264.84 309,-274.84 312.5,-264.84 305.5,-264.84"/>
</a>
</g>
</g>
<!-- Node9 -->
<g id="Node000009" class="node">
<title>Node9</title>
<g id="a_Node000009"><a xlink:href="PhysicsSystem_8hpp.html" target="_top" xlink:title="Defines the PhysicsSystem.">
<polygon fill="white" stroke="#666666" points="217.5,-239 28.5,-239 28.5,-220 217.5,-220 217.5,-239"/>
<text text-anchor="middle" x="123" y="-227" font-family="Helvetica,sans-Serif" font-size="10.00">include/physics/PhysicsSystem.hpp</text>
</a>
</g>
</g>
<!-- Node3&#45;&gt;Node9 -->
<g id="edge15_Node000003_Node000009" class="edge">
<title>Node3&#45;&gt;Node9</title>
<g id="a_edge15_Node000003_Node000009"><a xlink:title=" ">
<path fill="none" stroke="#63b8ff" d="M254.57,-271.88C220.28,-261.09 177.49,-247.64 150.2,-239.05"/>
<polygon fill="#63b8ff" stroke="#63b8ff" points="253.86,-275.33 264.45,-274.99 255.96,-268.65 253.86,-275.33"/>
</a>
</g>
</g>
<!-- Node4&#45;&gt;Node2 -->
<g id="edge4_Node000004_Node000002" class="edge">
<title>Node4&#45;&gt;Node2</title>
<g id="a_edge4_Node000004_Node000002"><a xlink:title=" ">
<path fill="none" stroke="#63b8ff" d="M240.65,-218.37C182.88,-209.11 108.07,-195.2 99,-184 43.33,-115.29 192.43,-43.41 249.68,-19.11"/>
<polygon fill="#63b8ff" stroke="#63b8ff" points="240.43,-221.88 250.86,-219.99 241.53,-214.97 240.43,-221.88"/>
</a>
</g>
</g>
<!-- Node5 -->
<g id="Node000005" class="node">
<title>Node5</title>
<g id="a_Node000005"><a xlink:href="PointLight_8hpp_source.html" target="_top" xlink:title=" ">
<polygon fill="white" stroke="#666666" points="271.5,-184 108.5,-184 108.5,-165 271.5,-165 271.5,-184"/>
<text text-anchor="middle" x="190" y="-172" font-family="Helvetica,sans-Serif" font-size="10.00">include/objects/PointLight.hpp</text>
</a>
</g>
</g>
<!-- Node4&#45;&gt;Node5 -->
<g id="edge5_Node000004_Node000005" class="edge">
<title>Node4&#45;&gt;Node5</title>
<g id="a_edge5_Node000004_Node000005"><a xlink:title=" ">
<path fill="none" stroke="#63b8ff" d="M280.7,-215.9C258.72,-206.11 228.82,-192.79 209.47,-184.17"/>
<polygon fill="#63b8ff" stroke="#63b8ff" points="279.32,-219.11 289.88,-219.98 282.17,-212.72 279.32,-219.11"/>
</a>
</g>
</g>
<!-- Node6 -->
<g id="Node000006" class="node">
<title>Node6</title>
<g id="a_Node000006"><a xlink:href="Renderer_8hpp.html" target="_top" xlink:title="Manages the rendering pipeline and object submission.">
<polygon fill="white" stroke="#666666" points="384.5,-129 215.5,-129 215.5,-110 384.5,-110 384.5,-129"/>
<text text-anchor="middle" x="300" y="-117" font-family="Helvetica,sans-Serif" font-size="10.00">include/rendering/Renderer.hpp</text>
</a>
</g>
</g>
<!-- Node4&#45;&gt;Node6 -->
<g id="edge14_Node000004_Node000006" class="edge">
<title>Node4&#45;&gt;Node6</title>
<g id="a_edge14_Node000004_Node000006"><a xlink:title=" ">
<path fill="none" stroke="#63b8ff" d="M307.42,-209.48C305.45,-185.84 302.17,-146.5 300.72,-129.16"/>
<polygon fill="#63b8ff" stroke="#63b8ff" points="303.95,-209.99 308.26,-219.66 310.92,-209.41 303.95,-209.99"/>
</a>
</g>
</g>
<!-- Node4&#45;&gt;Node8 -->
<g id="edge11_Node000004_Node000008" class="edge">
<title>Node4&#45;&gt;Node8</title>
<g id="a_edge11_Node000004_Node000008"><a xlink:title=" ">
<path fill="none" stroke="#63b8ff" d="M334.28,-215.23C352.8,-205.51 377.42,-192.6 393.48,-184.17"/>
<polygon fill="#63b8ff" stroke="#63b8ff" points="332.46,-212.24 325.23,-219.98 335.71,-218.44 332.46,-212.24"/>
</a>
</g>
</g>
<!-- Node5&#45;&gt;Node2 -->
<g id="edge6_Node000005_Node000002" class="edge">
<title>Node5&#45;&gt;Node2</title>
<g id="a_edge6_Node000005_Node000002"><a xlink:title=" ">
<path fill="none" stroke="#63b8ff" d="M188.52,-154.83C187.48,-130.1 188.84,-86.03 208,-55 218.2,-38.48 237.06,-26.4 251.49,-19.03"/>
<polygon fill="#63b8ff" stroke="#63b8ff" points="185.04,-155.22 189.14,-164.99 192.03,-154.79 185.04,-155.22"/>
</a>
</g>
</g>
<!-- Node5&#45;&gt;Node6 -->
<g id="edge7_Node000005_Node000006" class="edge">
<title>Node5&#45;&gt;Node6</title>
<g id="a_edge7_Node000005_Node000006"><a xlink:title=" ">
<path fill="none" stroke="#63b8ff" d="M216.7,-160.63C236.97,-150.87 264.27,-137.71 282.01,-129.17"/>
<polygon fill="#63b8ff" stroke="#63b8ff" points="215.16,-157.49 207.67,-164.98 218.2,-163.8 215.16,-157.49"/>
</a>
</g>
</g>
<!-- Node6&#45;&gt;Node2 -->
<g id="edge10_Node000006_Node000002" class="edge">
<title>Node6&#45;&gt;Node2</title>
<g id="a_edge10_Node000006_Node000002"><a xlink:title=" ">
<path fill="none" stroke="#63b8ff" d="M318.19,-102.79C330.69,-90.01 343.6,-71.44 335,-55 326.16,-38.09 307.64,-26.31 292.79,-19.13"/>
<polygon fill="#63b8ff" stroke="#63b8ff" points="315.5,-100.52 310.66,-109.94 320.32,-105.59 315.5,-100.52"/>
</a>
</g>
</g>
<!-- Node7 -->
<g id="Node000007" class="node">
<title>Node7</title>
<g id="a_Node000007"><a xlink:href="Engine_8hpp.html" target="_top" xlink:title="Defines the core Engine class responsible for running simulation.">
<polygon fill="white" stroke="#666666" points="325.5,-74 216.5,-74 216.5,-55 325.5,-55 325.5,-74"/>
<text text-anchor="middle" x="271" y="-62" font-family="Helvetica,sans-Serif" font-size="10.00">include/Engine.hpp</text>
</a>
</g>
</g>
<!-- Node6&#45;&gt;Node7 -->
<g id="edge8_Node000006_Node000007" class="edge">
<title>Node6&#45;&gt;Node7</title>
<g id="a_edge8_Node000006_Node000007"><a xlink:title=" ">
<path fill="none" stroke="#63b8ff" d="M290.32,-100.82C285.4,-91.82 279.64,-81.29 275.7,-74.09"/>
<polygon fill="#63b8ff" stroke="#63b8ff" points="287.34,-102.66 295.21,-109.75 293.48,-99.3 287.34,-102.66"/>
</a>
</g>
</g>
<!-- Node7&#45;&gt;Node2 -->
<g id="edge9_Node000007_Node000002" class="edge">
<title>Node7&#45;&gt;Node2</title>
<g id="a_edge9_Node000007_Node000002"><a xlink:title=" ">
<path fill="none" stroke="#63b8ff" d="M271,-44.66C271,-35.93 271,-25.99 271,-19.09"/>
<polygon fill="#63b8ff" stroke="#63b8ff" points="267.5,-44.75 271,-54.75 274.5,-44.75 267.5,-44.75"/>
</a>
</g>
</g>
<!-- Node8&#45;&gt;Node2 -->
<g id="edge12_Node000008_Node000002" class="edge">
<title>Node8&#45;&gt;Node2</title>
<g id="a_edge12_Node000008_Node000002"><a xlink:title=" ">
<path fill="none" stroke="#63b8ff" d="M407.44,-154.76C405.15,-141.71 401.04,-124.18 394,-110 380.08,-81.96 373.85,-75.27 350,-55 331.89,-39.61 307.66,-26.89 290.83,-19.05"/>
<polygon fill="#63b8ff" stroke="#63b8ff" points="404.02,-155.53 409.01,-164.88 410.94,-154.46 404.02,-155.53"/>
</a>
</g>
</g>
<!-- Node8&#45;&gt;Node6 -->
<g id="edge13_Node000008_Node000006" class="edge">
<title>Node8&#45;&gt;Node6</title>
<g id="a_edge13_Node000008_Node000006"><a xlink:title=" ">
<path fill="none" stroke="#63b8ff" d="M383.3,-160.63C363.03,-150.87 335.73,-137.71 317.99,-129.17"/>
<polygon fill="#63b8ff" stroke="#63b8ff" points="381.8,-163.8 392.33,-164.98 384.84,-157.49 381.8,-163.8"/>
</a>
</g>
</g>
<!-- Node10&#45;&gt;Node2 -->
<g id="edge18_Node000010_Node000002" class="edge">
<title>Node10&#45;&gt;Node2</title>
<g id="a_edge18_Node000010_Node000002"><a xlink:title=" ">
<path fill="none" stroke="#63b8ff" d="M565.67,-159.67C526.62,-136.75 445.27,-89.93 374,-55 346.36,-41.45 313.61,-27.68 292.58,-19.12"/>
<polygon fill="#63b8ff" stroke="#63b8ff" points="564.26,-162.91 574.66,-164.96 567.82,-156.87 564.26,-162.91"/>
</a>
</g>
</g>
<!-- Node10&#45;&gt;Node6 -->
<g id="edge19_Node000010_Node000006" class="edge">
<title>Node10&#45;&gt;Node6</title>
<g id="a_edge19_Node000010_Node000006"><a xlink:title=" ">
<path fill="none" stroke="#63b8ff" d="M532.44,-163.13C478.26,-153.19 397.46,-138.37 346.8,-129.08"/>
<polygon fill="#63b8ff" stroke="#63b8ff" points="532.1,-166.62 542.57,-164.98 533.36,-159.74 532.1,-166.62"/>
</a>
</g>
</g>
</g>
</svg>
