<?xml version="1.0" encoding="UTF-8" standalone="no"?>
<!DOCTYPE svg PUBLIC "-//W3C//DTD SVG 1.1//EN"
 "http://www.w3.org/Graphics/SVG/1.1/DTD/svg11.dtd">
<!-- Generated by graphviz version 2.43.0 (0)
 -->
<!-- Title: include/math/Matrix4.hpp Pages: 1 -->
<svg width="686pt" height="489pt"
 viewBox="0.00 0.00 686.00 489.00" xmlns="http://www.w3.org/2000/svg" xmlns:xlink="http://www.w3.org/1999/xlink">
<g id="graph0" class="graph" transform="scale(1 1) rotate(0) translate(4 485)">
<title>include/math/Matrix4.hpp</title>
<!-- Node1 -->
<g id="Node000001" class="node">
<title>Node1</title>
<g id="a_Node000001"><a xlink:title="Defines the Matrix4 class for 3D transformation operations.">
<polygon fill="#999999" stroke="#666666" points="188,-481 46,-481 46,-462 188,-462 188,-481"/>
<text text-anchor="middle" x="117" y="-469" font-family="Helvetica,sans-Serif" font-size="10.00">include/math/Matrix4.hpp</text>
</a>
</g>
</g>
<!-- Node2 -->
<g id="Node000002" class="node">
<title>Node2</title>
<g id="a_Node000002"><a xlink:href="FrameEngine_8hpp_source.html" target="_top" xlink:title=" ">
<polygon fill="white" stroke="#666666" points="542,-19 402,-19 402,0 542,0 542,-19"/>
<text text-anchor="middle" x="472" y="-7" font-family="Helvetica,sans-Serif" font-size="10.00">include/FrameEngine.hpp</text>
</a>
</g>
</g>
<!-- Node1&#45;&gt;Node2 -->
<g id="edge1_Node000001_Node000002" class="edge">
<title>Node1&#45;&gt;Node2</title>
<g id="a_edge1_Node000001_Node000002"><a xlink:title=" ">
<path fill="none" stroke="#63b8ff" d="M85.71,-457.77C51.05,-441.36 0,-409.25 0,-362.5 0,-362.5 0,-362.5 0,-118.5 0,-37.06 270.36,-17.03 401.85,-12.11"/>
<polygon fill="#63b8ff" stroke="#63b8ff" points="84.44,-461.04 94.99,-461.99 87.33,-454.67 84.44,-461.04"/>
</a>
</g>
</g>
<!-- Node3 -->
<g id="Node000003" class="node">
<title>Node3</title>
<g id="a_Node000003"><a xlink:href="TransformComponent_8hpp.html" target="_top" xlink:title="Defines the TransformComponent for ECS&#45;based spatial transformations.">
<polygon fill="white" stroke="#666666" points="324,-316 178,-316 178,-286 324,-286 324,-316"/>
<text text-anchor="start" x="186" y="-304" font-family="Helvetica,sans-Serif" font-size="10.00">include/components</text>
<text text-anchor="middle" x="251" y="-293" font-family="Helvetica,sans-Serif" font-size="10.00">/TransformComponent.hpp</text>
</a>
</g>
</g>
<!-- Node1&#45;&gt;Node3 -->
<g id="edge2_Node000001_Node000003" class="edge">
<title>Node1&#45;&gt;Node3</title>
<g id="a_edge2_Node000001_Node000003"><a xlink:title=" ">
<path fill="none" stroke="#63b8ff" d="M130.37,-453.69C156.75,-420.52 215.07,-347.18 239.69,-316.22"/>
<polygon fill="#63b8ff" stroke="#63b8ff" points="127.31,-451.91 123.83,-461.91 132.79,-456.26 127.31,-451.91"/>
</a>
</g>
</g>
<!-- Node8 -->
<g id="Node000008" class="node">
<title>Node8</title>
<g id="a_Node000008"><a xlink:href="Camera_8hpp.html" target="_top" xlink:title="Defines the Camera class for view and projection.">
<polygon fill="white" stroke="#666666" points="192,-189.5 28,-189.5 28,-170.5 192,-170.5 192,-189.5"/>
<text text-anchor="middle" x="110" y="-177.5" font-family="Helvetica,sans-Serif" font-size="10.00">include/rendering/Camera.hpp</text>
</a>
</g>
</g>
<!-- Node1&#45;&gt;Node8 -->
<g id="edge18_Node000001_Node000008" class="edge">
<title>Node1&#45;&gt;Node8</title>
<g id="a_edge18_Node000001_Node000008"><a xlink:title=" ">
<path fill="none" stroke="#63b8ff" d="M111.78,-452.23C106.16,-430.9 98,-394.44 98,-362.5 98,-362.5 98,-362.5 98,-300 98,-258.47 105.32,-209.2 108.53,-189.63"/>
<polygon fill="#63b8ff" stroke="#63b8ff" points="108.42,-453.19 114.44,-461.91 115.17,-451.34 108.42,-453.19"/>
</a>
</g>
</g>
<!-- Node11 -->
<g id="Node000011" class="node">
<title>Node11</title>
<g id="a_Node000011"><a xlink:href="Shader_8hpp.html" target="_top" xlink:title="Manages OpenGL shaders.">
<polygon fill="white" stroke="#666666" points="516,-426 358,-426 358,-407 516,-407 516,-426"/>
<text text-anchor="middle" x="437" y="-414" font-family="Helvetica,sans-Serif" font-size="10.00">include/rendering/Shader.hpp</text>
</a>
</g>
</g>
<!-- Node1&#45;&gt;Node11 -->
<g id="edge19_Node000001_Node000011" class="edge">
<title>Node1&#45;&gt;Node11</title>
<g id="a_edge19_Node000001_Node000011"><a xlink:title=" ">
<path fill="none" stroke="#63b8ff" d="M178.53,-460.31C238.62,-450.36 329.03,-435.38 385.45,-426.04"/>
<polygon fill="#63b8ff" stroke="#63b8ff" points="177.71,-456.9 168.41,-461.98 178.85,-463.8 177.71,-456.9"/>
</a>
</g>
</g>
<!-- Node4 -->
<g id="Node000004" class="node">
<title>Node4</title>
<g id="a_Node000004"><a xlink:href="Object_8hpp.html" target="_top" xlink:title="Defines the Object class, a special ECS entity wrapper.">
<polygon fill="white" stroke="#666666" points="556,-250 410,-250 410,-231 556,-231 556,-250"/>
<text text-anchor="middle" x="483" y="-238" font-family="Helvetica,sans-Serif" font-size="10.00">include/objects/Object.hpp</text>
</a>
</g>
</g>
<!-- Node3&#45;&gt;Node4 -->
<g id="edge3_Node000003_Node000004" class="edge">
<title>Node3&#45;&gt;Node4</title>
<g id="a_edge3_Node000003_Node000004"><a xlink:title=" ">
<path fill="none" stroke="#63b8ff" d="M316.43,-283.5C359.6,-272.62 414.38,-258.8 449.08,-250.05"/>
<polygon fill="#63b8ff" stroke="#63b8ff" points="315.41,-280.15 306.57,-285.99 317.12,-286.94 315.41,-280.15"/>
</a>
</g>
</g>
<!-- Node9 -->
<g id="Node000009" class="node">
<title>Node9</title>
<g id="a_Node000009"><a xlink:href="PhysicsSystem_8hpp.html" target="_top" xlink:title="Defines the PhysicsSystem.">
<polygon fill="white" stroke="#666666" points="315.5,-250 126.5,-250 126.5,-231 315.5,-231 315.5,-250"/>
<text text-anchor="middle" x="221" y="-238" font-family="Helvetica,sans-Serif" font-size="10.00">include/physics/PhysicsSystem.hpp</text>
</a>
</g>
</g>
<!-- Node3&#45;&gt;Node9 -->
<g id="edge15_Node000003_Node000009" class="edge">
<title>Node3&#45;&gt;Node9</title>
<g id="a_edge15_Node000003_Node000009"><a xlink:title=" ">
<path fill="none" stroke="#63b8ff" d="M239.17,-276.92C234.37,-267.56 229.11,-257.32 225.5,-250.27"/>
<polygon fill="#63b8ff" stroke="#63b8ff" points="236.06,-278.54 243.74,-285.84 242.29,-275.34 236.06,-278.54"/>
</a>
</g>
</g>
<!-- Node10 -->
<g id="Node000010" class="node">
<title>Node10</title>
<g id="a_Node000010"><a xlink:href="LightingSystem_8hpp_source.html" target="_top" xlink:title=" ">
<polygon fill="white" stroke="#666666" points="353.5,-195 210.5,-195 210.5,-165 353.5,-165 353.5,-195"/>
<text text-anchor="start" x="218.5" y="-183" font-family="Helvetica,sans-Serif" font-size="10.00">include/rendering/Lighting</text>
<text text-anchor="middle" x="282" y="-172" font-family="Helvetica,sans-Serif" font-size="10.00">System.hpp</text>
</a>
</g>
</g>
<!-- Node3&#45;&gt;Node10 -->
<g id="edge16_Node000003_Node000010" class="edge">
<title>Node3&#45;&gt;Node10</title>
<g id="a_edge16_Node000003_Node000010"><a xlink:title=" ">
<path fill="none" stroke="#63b8ff" d="M293.55,-280.66C305.6,-272.94 317.26,-262.79 324,-250 334.27,-230.52 316.14,-208.98 300.59,-195.24"/>
<polygon fill="#63b8ff" stroke="#63b8ff" points="291.6,-277.74 284.78,-285.85 295.17,-283.77 291.6,-277.74"/>
</a>
</g>
</g>
<!-- Node4&#45;&gt;Node2 -->
<g id="edge4_Node000004_Node000002" class="edge">
<title>Node4&#45;&gt;Node2</title>
<g id="a_edge4_Node000004_Node000002"><a xlink:title=" ">
<path fill="none" stroke="#63b8ff" d="M566.12,-230.4C587.37,-223.87 607.89,-213 621,-195 628.85,-184.22 625.99,-177.36 621,-165 592.96,-95.54 517.1,-39.91 485.8,-19.21"/>
<polygon fill="#63b8ff" stroke="#63b8ff" points="565.03,-227.06 556.32,-233.1 566.9,-233.81 565.03,-227.06"/>
</a>
</g>
</g>
<!-- Node5 -->
<g id="Node000005" class="node">
<title>Node5</title>
<g id="a_Node000005"><a xlink:href="PointLight_8hpp_source.html" target="_top" xlink:title=" ">
<polygon fill="white" stroke="#666666" points="611.5,-189.5 448.5,-189.5 448.5,-170.5 611.5,-170.5 611.5,-189.5"/>
<text text-anchor="middle" x="530" y="-177.5" font-family="Helvetica,sans-Serif" font-size="10.00">include/objects/PointLight.hpp</text>
</a>
</g>
</g>
<!-- Node4&#45;&gt;Node5 -->
<g id="edge5_Node000004_Node000005" class="edge">
<title>Node4&#45;&gt;Node5</title>
<g id="a_edge5_Node000004_Node000005"><a xlink:title=" ">
<path fill="none" stroke="#63b8ff" d="M496.3,-222.95C505,-212.12 516.01,-198.41 523.04,-189.67"/>
<polygon fill="#63b8ff" stroke="#63b8ff" points="493.47,-220.88 489.94,-230.87 498.93,-225.26 493.47,-220.88"/>
</a>
</g>
</g>
<!-- Node6 -->
<g id="Node000006" class="node">
<title>Node6</title>
<g id="a_Node000006"><a xlink:href="Renderer_8hpp.html" target="_top" xlink:title="Manages the rendering pipeline and object submission.">
<polygon fill="white" stroke="#666666" points="473.5,-129 304.5,-129 304.5,-110 473.5,-110 473.5,-129"/>
<text text-anchor="middle" x="389" y="-117" font-family="Helvetica,sans-Serif" font-size="10.00">include/rendering/Renderer.hpp</text>
</a>
</g>
</g>
<!-- Node4&#45;&gt;Node6 -->
<g id="edge14_Node000004_Node000006" class="edge">
<title>Node4&#45;&gt;Node6</title>
<g id="a_edge14_Node000004_Node000006"><a xlink:title=" ">
<path fill="none" stroke="#63b8ff" d="M466.33,-223.57C458.06,-215.35 448.13,-204.97 440,-195 421.57,-172.41 403,-143.32 394.22,-129.1"/>
<polygon fill="#63b8ff" stroke="#63b8ff" points="464.04,-226.22 473.64,-230.71 468.93,-221.22 464.04,-226.22"/>
</a>
</g>
</g>
<!-- Node4&#45;&gt;Node8 -->
<g id="edge11_Node000004_Node000008" class="edge">
<title>Node4&#45;&gt;Node8</title>
<g id="a_edge11_Node000004_Node000008"><a xlink:title=" ">
<path fill="none" stroke="#63b8ff" d="M418.48,-229.38C346.63,-218.11 231.74,-200.09 164.3,-189.52"/>
<polygon fill="#63b8ff" stroke="#63b8ff" points="418.34,-232.9 428.76,-230.99 419.43,-225.99 418.34,-232.9"/>
</a>
</g>
</g>
<!-- Node5&#45;&gt;Node2 -->
<g id="edge6_Node000005_Node000002" class="edge">
<title>Node5&#45;&gt;Node2</title>
<g id="a_edge6_Node000005_Node000002"><a xlink:title=" ">
<path fill="none" stroke="#63b8ff" d="M523.7,-160.71C511.3,-124.66 484.1,-45.65 475.02,-19.27"/>
<polygon fill="#63b8ff" stroke="#63b8ff" points="520.48,-162.1 527.04,-170.41 527.1,-159.82 520.48,-162.1"/>
</a>
</g>
</g>
<!-- Node5&#45;&gt;Node6 -->
<g id="edge7_Node000005_Node000006" class="edge">
<title>Node5&#45;&gt;Node6</title>
<g id="a_edge7_Node000005_Node000006"><a xlink:title=" ">
<path fill="none" stroke="#63b8ff" d="M500.07,-166.58C472.83,-155.28 433.35,-138.9 409.53,-129.02"/>
<polygon fill="#63b8ff" stroke="#63b8ff" points="498.92,-169.89 509.5,-170.49 501.6,-163.43 498.92,-169.89"/>
</a>
</g>
</g>
<!-- Node6&#45;&gt;Node2 -->
<g id="edge10_Node000006_Node000002" class="edge">
<title>Node6&#45;&gt;Node2</title>
<g id="a_edge10_Node000006_Node000002"><a xlink:title=" ">
<path fill="none" stroke="#63b8ff" d="M416.48,-104.98C429.23,-97.45 443.61,-86.96 453,-74 465.29,-57.04 469.71,-32.1 471.24,-19.1"/>
<polygon fill="#63b8ff" stroke="#63b8ff" points="414.62,-102.01 407.58,-109.93 418.02,-108.13 414.62,-102.01"/>
</a>
</g>
</g>
<!-- Node7 -->
<g id="Node000007" class="node">
<title>Node7</title>
<g id="a_Node000007"><a xlink:href="Engine_8hpp.html" target="_top" xlink:title="Defines the core Engine class responsible for running simulation.">
<polygon fill="white" stroke="#666666" points="443.5,-74 334.5,-74 334.5,-55 443.5,-55 443.5,-74"/>
<text text-anchor="middle" x="389" y="-62" font-family="Helvetica,sans-Serif" font-size="10.00">include/Engine.hpp</text>
</a>
</g>
</g>
<!-- Node6&#45;&gt;Node7 -->
<g id="edge8_Node000006_Node000007" class="edge">
<title>Node6&#45;&gt;Node7</title>
<g id="a_edge8_Node000006_Node000007"><a xlink:title=" ">
<path fill="none" stroke="#63b8ff" d="M389,-99.66C389,-90.93 389,-80.99 389,-74.09"/>
<polygon fill="#63b8ff" stroke="#63b8ff" points="385.5,-99.75 389,-109.75 392.5,-99.75 385.5,-99.75"/>
</a>
</g>
</g>
<!-- Node7&#45;&gt;Node2 -->
<g id="edge9_Node000007_Node000002" class="edge">
<title>Node7&#45;&gt;Node2</title>
<g id="a_edge9_Node000007_Node000002"><a xlink:title=" ">
<path fill="none" stroke="#63b8ff" d="M411.04,-49.42C426.11,-39.81 445.59,-27.37 458.42,-19.17"/>
<polygon fill="#63b8ff" stroke="#63b8ff" points="408.88,-46.65 402.34,-54.98 412.65,-52.55 408.88,-46.65"/>
</a>
</g>
</g>
<!-- Node8&#45;&gt;Node2 -->
<g id="edge12_Node000008_Node000002" class="edge">
<title>Node8&#45;&gt;Node2</title>
<g id="a_edge12_Node000008_Node000002"><a xlink:title=" ">
<path fill="none" stroke="#63b8ff" d="M131.12,-164.61C168.71,-139.51 250.27,-87.35 325,-55 361.46,-39.22 405.28,-26.73 435.53,-19.05"/>
<polygon fill="#63b8ff" stroke="#63b8ff" points="128.89,-161.89 122.55,-170.38 132.8,-167.7 128.89,-161.89"/>
</a>
</g>
</g>
<!-- Node8&#45;&gt;Node6 -->
<g id="edge13_Node000008_Node000006" class="edge">
<title>Node8&#45;&gt;Node6</title>
<g id="a_edge13_Node000008_Node000006"><a xlink:title=" ">
<path fill="none" stroke="#63b8ff" d="M160.59,-168.39C214.46,-157.1 298.67,-139.44 348.38,-129.02"/>
<polygon fill="#63b8ff" stroke="#63b8ff" points="159.64,-165.02 150.57,-170.49 161.07,-171.87 159.64,-165.02"/>
</a>
</g>
</g>
<!-- Node10&#45;&gt;Node6 -->
<g id="edge17_Node000010_Node000006" class="edge">
<title>Node10&#45;&gt;Node6</title>
<g id="a_edge17_Node000010_Node000006"><a xlink:title=" ">
<path fill="none" stroke="#63b8ff" d="M316.63,-160.07C335.67,-149.66 358.36,-137.25 373.2,-129.14"/>
<polygon fill="#63b8ff" stroke="#63b8ff" points="314.72,-157.12 307.63,-164.99 318.08,-163.26 314.72,-157.12"/>
</a>
</g>
</g>
<!-- Node11&#45;&gt;Node2 -->
<g id="edge20_Node000011_Node000002" class="edge">
<title>Node11&#45;&gt;Node2</title>
<g id="a_edge20_Node000011_Node000002"><a xlink:title=" ">
<path fill="none" stroke="#63b8ff" d="M526.25,-408.99C594.87,-398.54 678,-371.54 678,-302 678,-302 678,-302 678,-118.5 678,-55.61 601.75,-29.27 542.03,-18.28"/>
<polygon fill="#63b8ff" stroke="#63b8ff" points="525.65,-405.54 516.25,-410.42 526.64,-412.47 525.65,-405.54"/>
</a>
</g>
</g>
<!-- Node11&#45;&gt;Node6 -->
<g id="edge25_Node000011_Node000006" class="edge">
<title>Node11&#45;&gt;Node6</title>
<g id="a_edge25_Node000011_Node000006"><a xlink:title=" ">
<path fill="none" stroke="#63b8ff" d="M421.16,-399.29C414.12,-391.31 406.26,-381.23 401,-371 386.47,-342.71 382,-333.81 382,-302 382,-302 382,-302 382,-239.5 382,-198.11 386.27,-148.76 388.14,-129.15"/>
<polygon fill="#63b8ff" stroke="#63b8ff" points="418.7,-401.78 428.05,-406.75 423.84,-397.03 418.7,-401.78"/>
</a>
</g>
</g>
<!-- Node12 -->
<g id="Node000012" class="node">
<title>Node12</title>
<g id="a_Node000012"><a xlink:href="Material_8hpp_source.html" target="_top" xlink:title=" ">
<polygon fill="white" stroke="#666666" points="576,-371 410,-371 410,-352 576,-352 576,-371"/>
<text text-anchor="middle" x="493" y="-359" font-family="Helvetica,sans-Serif" font-size="10.00">include/rendering/Material.hpp</text>
</a>
</g>
</g>
<!-- Node11&#45;&gt;Node12 -->
<g id="edge21_Node000011_Node000012" class="edge">
<title>Node11&#45;&gt;Node12</title>
<g id="a_edge21_Node000011_Node000012"><a xlink:title=" ">
<path fill="none" stroke="#63b8ff" d="M453.33,-400.04C463.26,-390.64 475.59,-378.98 483.84,-371.17"/>
<polygon fill="#63b8ff" stroke="#63b8ff" points="450.85,-397.57 446,-406.98 455.67,-402.65 450.85,-397.57"/>
</a>
</g>
</g>
<!-- Node12&#45;&gt;Node4 -->
<g id="edge24_Node000012_Node000004" class="edge">
<title>Node12&#45;&gt;Node4</title>
<g id="a_edge24_Node000012_Node000004"><a xlink:title=" ">
<path fill="none" stroke="#63b8ff" d="M482.43,-342.77C478.3,-334.86 474.08,-325.26 472,-316 466.74,-292.53 474.72,-264.31 479.63,-250.29"/>
<polygon fill="#63b8ff" stroke="#63b8ff" points="479.49,-344.69 487.42,-351.72 485.6,-341.28 479.49,-344.69"/>
</a>
</g>
</g>
<!-- Node13 -->
<g id="Node000013" class="node">
<title>Node13</title>
<g id="a_Node000013"><a xlink:href="MaterialComponent_8hpp_source.html" target="_top" xlink:title=" ">
<polygon fill="white" stroke="#666666" points="617.5,-316 480.5,-316 480.5,-286 617.5,-286 617.5,-316"/>
<text text-anchor="start" x="488.5" y="-304" font-family="Helvetica,sans-Serif" font-size="10.00">include/components</text>
<text text-anchor="middle" x="549" y="-293" font-family="Helvetica,sans-Serif" font-size="10.00">/MaterialComponent.hpp</text>
</a>
</g>
</g>
<!-- Node12&#45;&gt;Node13 -->
<g id="edge22_Node000012_Node000013" class="edge">
<title>Node12&#45;&gt;Node13</title>
<g id="a_edge22_Node000012_Node000013"><a xlink:title=" ">
<path fill="none" stroke="#63b8ff" d="M508.39,-344.43C516.88,-335.56 527.32,-324.65 535.49,-316.11"/>
<polygon fill="#63b8ff" stroke="#63b8ff" points="505.65,-342.22 501.26,-351.87 510.71,-347.06 505.65,-342.22"/>
</a>
</g>
</g>
<!-- Node13&#45;&gt;Node4 -->
<g id="edge23_Node000013_Node000004" class="edge">
<title>Node13&#45;&gt;Node4</title>
<g id="a_edge23_Node000013_Node000004"><a xlink:title=" ">
<path fill="none" stroke="#63b8ff" d="M525.26,-278.96C514.11,-269.07 501.43,-257.83 492.89,-250.27"/>
<polygon fill="#63b8ff" stroke="#63b8ff" points="523.22,-281.82 533.02,-285.84 527.86,-276.59 523.22,-281.82"/>
</a>
</g>
</g>
</g>
</svg>
