<?xml version="1.0" encoding="UTF-8" standalone="no"?>
<!DOCTYPE svg PUBLIC "-//W3C//DTD SVG 1.1//EN"
 "http://www.w3.org/Graphics/SVG/1.1/DTD/svg11.dtd">
<!-- Generated by graphviz version 12.2.1 (0)
 -->
<!-- Title: include/math/Matrix4.hpp Pages: 1 -->
<svg width="249pt" height="199pt"
 viewBox="0.00 0.00 249.38 199.00" xmlns="http://www.w3.org/2000/svg" xmlns:xlink="http://www.w3.org/1999/xlink">
<g id="graph0" class="graph" transform="scale(1 1) rotate(0) translate(4 195)">
<title>include/math/Matrix4.hpp</title>
<!-- Node1 -->
<g id="Node000001" class="node">
<title>Node1</title>
<g id="a_Node000001"><a xlink:title="Defines the Matrix4 class for 3D transformation operations.">
<polygon fill="#999999" stroke="#666666" points="209.12,-191 67.88,-191 67.88,-170.25 209.12,-170.25 209.12,-191"/>
<text text-anchor="middle" x="138.5" y="-177.5" font-family="Helvetica,sans-Serif" font-size="10.00">include/math/Matrix4.hpp</text>
</a>
</g>
</g>
<!-- Node2 -->
<g id="Node000002" class="node">
<title>Node2</title>
<g id="a_Node000002"><a xlink:href="Quaternion_8hpp.html" target="_top" xlink:title="Defines the Quaternion class for representing 3D rotations.">
<polygon fill="white" stroke="#666666" points="91,-134.25 0,-134.25 0,-113.5 91,-113.5 91,-134.25"/>
<text text-anchor="middle" x="45.5" y="-120.75" font-family="Helvetica,sans-Serif" font-size="10.00">Quaternion.hpp</text>
</a>
</g>
</g>
<!-- Node1&#45;&gt;Node2 -->
<g id="edge1_Node000001_Node000002" class="edge">
<title>Node1&#45;&gt;Node2</title>
<g id="a_edge1_Node000001_Node000002"><a xlink:title=" ">
<path fill="none" stroke="#63b8ff" d="M121.87,-169.84C107.99,-161.66 87.94,-149.86 71.87,-140.4"/>
<polygon fill="#63b8ff" stroke="#63b8ff" points="73.68,-137.4 63.29,-135.35 70.13,-143.44 73.68,-137.4"/>
</a>
</g>
</g>
<!-- Node3 -->
<g id="Node000003" class="node">
<title>Node3</title>
<g id="a_Node000003"><a xlink:href="Vector3_8hpp.html" target="_top" xlink:title="Defines the Vector3 class.">
<polygon fill="white" stroke="#666666" points="129.75,-77.5 55.25,-77.5 55.25,-56.75 129.75,-56.75 129.75,-77.5"/>
<text text-anchor="middle" x="92.5" y="-64" font-family="Helvetica,sans-Serif" font-size="10.00">Vector3.hpp</text>
</a>
</g>
</g>
<!-- Node1&#45;&gt;Node3 -->
<g id="edge7_Node000001_Node000003" class="edge">
<title>Node1&#45;&gt;Node3</title>
<g id="a_edge7_Node000001_Node000003"><a xlink:title=" ">
<path fill="none" stroke="#63b8ff" d="M134.58,-170.12C127.15,-152.11 110.87,-112.64 100.88,-88.43"/>
<polygon fill="#63b8ff" stroke="#63b8ff" points="104.17,-87.23 97.12,-79.32 97.7,-89.9 104.17,-87.23"/>
</a>
</g>
</g>
<!-- Node5 -->
<g id="Node000005" class="node">
<title>Node5</title>
<g id="a_Node000005"><a xlink:title=" ">
<polygon fill="#e0e0e0" stroke="#999999" points="186.38,-20.75 130.62,-20.75 130.62,0 186.38,0 186.38,-20.75"/>
<text text-anchor="middle" x="158.5" y="-7.25" font-family="Helvetica,sans-Serif" font-size="10.00">sstream</text>
</a>
</g>
</g>
<!-- Node1&#45;&gt;Node5 -->
<g id="edge9_Node000001_Node000005" class="edge">
<title>Node1&#45;&gt;Node5</title>
<g id="a_edge9_Node000001_Node000005"><a xlink:title=" ">
<path fill="none" stroke="#63b8ff" d="M139.63,-170.1C142.77,-143.73 151.61,-69.33 155.99,-32.53"/>
<polygon fill="#63b8ff" stroke="#63b8ff" points="159.45,-33.06 157.15,-22.72 152.5,-32.24 159.45,-33.06"/>
</a>
</g>
</g>
<!-- Node7 -->
<g id="Node000007" class="node">
<title>Node7</title>
<g id="a_Node000007"><a xlink:title=" ">
<polygon fill="#e0e0e0" stroke="#999999" points="241.38,-134.25 185.62,-134.25 185.62,-113.5 241.38,-113.5 241.38,-134.25"/>
<text text-anchor="middle" x="213.5" y="-120.75" font-family="Helvetica,sans-Serif" font-size="10.00">iomanip</text>
</a>
</g>
</g>
<!-- Node1&#45;&gt;Node7 -->
<g id="edge8_Node000001_Node000007" class="edge">
<title>Node1&#45;&gt;Node7</title>
<g id="a_edge8_Node000001_Node000007"><a xlink:title=" ">
<path fill="none" stroke="#63b8ff" d="M151.91,-169.84C162.79,-161.9 178.36,-150.53 191.12,-141.21"/>
<polygon fill="#63b8ff" stroke="#63b8ff" points="192.97,-144.19 198.99,-135.47 188.84,-138.54 192.97,-144.19"/>
</a>
</g>
</g>
<!-- Node2&#45;&gt;Node3 -->
<g id="edge2_Node000002_Node000003" class="edge">
<title>Node2&#45;&gt;Node3</title>
<g id="a_edge2_Node000002_Node000003"><a xlink:title=" ">
<path fill="none" stroke="#63b8ff" d="M53.9,-113.09C60.25,-105.69 69.15,-95.32 76.8,-86.41"/>
<polygon fill="#63b8ff" stroke="#63b8ff" points="79.33,-88.84 83.18,-78.98 74.01,-84.28 79.33,-88.84"/>
</a>
</g>
</g>
<!-- Node4 -->
<g id="Node000004" class="node">
<title>Node4</title>
<g id="a_Node000004"><a xlink:title=" ">
<polygon fill="#e0e0e0" stroke="#999999" points="50.88,-20.75 4.12,-20.75 4.12,0 50.88,0 50.88,-20.75"/>
<text text-anchor="middle" x="27.5" y="-7.25" font-family="Helvetica,sans-Serif" font-size="10.00">cmath</text>
</a>
</g>
</g>
<!-- Node2&#45;&gt;Node4 -->
<g id="edge6_Node000002_Node000004" class="edge">
<title>Node2&#45;&gt;Node4</title>
<g id="a_edge6_Node000002_Node000004"><a xlink:title=" ">
<path fill="none" stroke="#63b8ff" d="M43.97,-113.37C41.08,-95.52 34.8,-56.61 30.88,-32.34"/>
<polygon fill="#63b8ff" stroke="#63b8ff" points="34.37,-31.98 29.32,-22.67 27.46,-33.1 34.37,-31.98"/>
</a>
</g>
</g>
<!-- Node3&#45;&gt;Node4 -->
<g id="edge3_Node000003_Node000004" class="edge">
<title>Node3&#45;&gt;Node4</title>
<g id="a_edge3_Node000003_Node000004"><a xlink:title=" ">
<path fill="none" stroke="#63b8ff" d="M80.88,-56.34C71.64,-48.55 58.49,-37.47 47.55,-28.26"/>
<polygon fill="#63b8ff" stroke="#63b8ff" points="50.08,-25.82 40.18,-22.05 45.57,-31.17 50.08,-25.82"/>
</a>
</g>
</g>
<!-- Node3&#45;&gt;Node5 -->
<g id="edge4_Node000003_Node000005" class="edge">
<title>Node3&#45;&gt;Node5</title>
<g id="a_edge4_Node000003_Node000005"><a xlink:title=" ">
<path fill="none" stroke="#63b8ff" d="M104.3,-56.34C113.68,-48.55 127.04,-37.47 138.14,-28.26"/>
<polygon fill="#63b8ff" stroke="#63b8ff" points="140.18,-31.12 145.64,-22.04 135.71,-25.74 140.18,-31.12"/>
</a>
</g>
</g>
<!-- Node6 -->
<g id="Node000006" class="node">
<title>Node6</title>
<g id="a_Node000006"><a xlink:title=" ">
<polygon fill="#e0e0e0" stroke="#999999" points="112.38,-20.75 68.62,-20.75 68.62,0 112.38,0 112.38,-20.75"/>
<text text-anchor="middle" x="90.5" y="-7.25" font-family="Helvetica,sans-Serif" font-size="10.00">string</text>
</a>
</g>
</g>
<!-- Node3&#45;&gt;Node6 -->
<g id="edge5_Node000003_Node000006" class="edge">
<title>Node3&#45;&gt;Node6</title>
<g id="a_edge5_Node000003_Node000006"><a xlink:title=" ">
<path fill="none" stroke="#63b8ff" d="M92.14,-56.34C91.9,-49.72 91.57,-40.72 91.27,-32.52"/>
<polygon fill="#63b8ff" stroke="#63b8ff" points="94.77,-32.46 90.91,-22.59 87.78,-32.71 94.77,-32.46"/>
</a>
</g>
</g>
</g>
</svg>
