<?xml version="1.0" encoding="UTF-8" standalone="no"?>
<!DOCTYPE svg PUBLIC "-//W3C//DTD SVG 1.1//EN"
 "http://www.w3.org/Graphics/SVG/1.1/DTD/svg11.dtd">
<!-- Generated by graphviz version 2.43.0 (0)
 -->
<!-- Title: include/math/Matrix4.hpp Pages: 1 -->
<svg width="585pt" height="313pt"
 viewBox="0.00 0.00 584.50 313.00" xmlns="http://www.w3.org/2000/svg" xmlns:xlink="http://www.w3.org/1999/xlink">
<g id="graph0" class="graph" transform="scale(1 1) rotate(0) translate(4 309)">
<title>include/math/Matrix4.hpp</title>
<!-- Node1 -->
<g id="Node000001" class="node">
<title>Node1</title>
<g id="a_Node000001"><a xlink:title="Defines the Matrix4 class for 3D transformation operations.">
<polygon fill="#999999" stroke="#666666" points="461.5,-305 319.5,-305 319.5,-286 461.5,-286 461.5,-305"/>
<text text-anchor="middle" x="390.5" y="-293" font-family="Helvetica,sans-Serif" font-size="10.00">include/math/Matrix4.hpp</text>
</a>
</g>
</g>
<!-- Node2 -->
<g id="Node000002" class="node">
<title>Node2</title>
<g id="a_Node000002"><a xlink:href="TransformComponent_8hpp.html" target="_top" xlink:title="Defines the TransformComponent for ECS&#45;based spatial transformations.">
<polygon fill="white" stroke="#666666" points="340.5,-250 194.5,-250 194.5,-220 340.5,-220 340.5,-250"/>
<text text-anchor="start" x="202.5" y="-238" font-family="Helvetica,sans-Serif" font-size="10.00">include/components</text>
<text text-anchor="middle" x="267.5" y="-227" font-family="Helvetica,sans-Serif" font-size="10.00">/TransformComponent.hpp</text>
</a>
</g>
</g>
<!-- Node1&#45;&gt;Node2 -->
<g id="edge1_Node000001_Node000002" class="edge">
<title>Node1&#45;&gt;Node2</title>
<g id="a_edge1_Node000001_Node000002"><a xlink:title=" ">
<path fill="none" stroke="#63b8ff" d="M363.35,-281.59C343.81,-272.29 317.44,-259.75 297.31,-250.18"/>
<polygon fill="#63b8ff" stroke="#63b8ff" points="362.08,-284.86 372.61,-285.99 365.09,-278.54 362.08,-284.86"/>
</a>
</g>
</g>
<!-- Node7 -->
<g id="Node000007" class="node">
<title>Node7</title>
<g id="a_Node000007"><a xlink:href="Camera_8hpp.html" target="_top" xlink:title="Defines the Camera class for view and projection.">
<polygon fill="white" stroke="#666666" points="383.5,-129 219.5,-129 219.5,-110 383.5,-110 383.5,-129"/>
<text text-anchor="middle" x="301.5" y="-117" font-family="Helvetica,sans-Serif" font-size="10.00">include/rendering/Camera.hpp</text>
</a>
</g>
</g>
<!-- Node1&#45;&gt;Node7 -->
<g id="edge10_Node000001_Node000007" class="edge">
<title>Node1&#45;&gt;Node7</title>
<g id="a_edge10_Node000001_Node000007"><a xlink:title=" ">
<path fill="none" stroke="#63b8ff" d="M392.19,-275.48C393.61,-248.63 392.61,-199.08 370.5,-165 359.48,-148.02 339.46,-136.19 323.81,-129.01"/>
<polygon fill="#63b8ff" stroke="#63b8ff" points="388.67,-275.56 391.46,-285.79 395.65,-276.06 388.67,-275.56"/>
</a>
</g>
</g>
<!-- Node9 -->
<g id="Node000009" class="node">
<title>Node9</title>
<g id="a_Node000009"><a xlink:href="Shader_8hpp.html" target="_top" xlink:title="Manages OpenGL shaders.">
<polygon fill="white" stroke="#666666" points="576.5,-244.5 418.5,-244.5 418.5,-225.5 576.5,-225.5 576.5,-244.5"/>
<text text-anchor="middle" x="497.5" y="-232.5" font-family="Helvetica,sans-Serif" font-size="10.00">include/rendering/Shader.hpp</text>
</a>
</g>
</g>
<!-- Node1&#45;&gt;Node9 -->
<g id="edge11_Node000001_Node000009" class="edge">
<title>Node1&#45;&gt;Node9</title>
<g id="a_edge11_Node000001_Node000009"><a xlink:title=" ">
<path fill="none" stroke="#63b8ff" d="M415.33,-280.92C435.78,-269.74 464.16,-254.23 481.65,-244.67"/>
<polygon fill="#63b8ff" stroke="#63b8ff" points="413.38,-278 406.29,-285.87 416.74,-284.14 413.38,-278"/>
</a>
</g>
</g>
<!-- Node3 -->
<g id="Node000003" class="node">
<title>Node3</title>
<g id="a_Node000003"><a xlink:href="Object_8hpp.html" target="_top" xlink:title="Defines the Object class, a special ECS entity wrapper.">
<polygon fill="white" stroke="#666666" points="154.5,-184 8.5,-184 8.5,-165 154.5,-165 154.5,-184"/>
<text text-anchor="middle" x="81.5" y="-172" font-family="Helvetica,sans-Serif" font-size="10.00">include/objects/Object.hpp</text>
</a>
</g>
</g>
<!-- Node2&#45;&gt;Node3 -->
<g id="edge2_Node000002_Node000003" class="edge">
<title>Node2&#45;&gt;Node3</title>
<g id="a_edge2_Node000002_Node000003"><a xlink:title=" ">
<path fill="none" stroke="#63b8ff" d="M213.07,-216.88C178.78,-206.09 135.99,-192.64 108.7,-184.05"/>
<polygon fill="#63b8ff" stroke="#63b8ff" points="212.36,-220.33 222.95,-219.99 214.46,-213.65 212.36,-220.33"/>
</a>
</g>
</g>
<!-- Node8 -->
<g id="Node000008" class="node">
<title>Node8</title>
<g id="a_Node000008"><a xlink:href="PhysicsSystem_8hpp.html" target="_top" xlink:title="Defines the PhysicsSystem.">
<polygon fill="white" stroke="#666666" points="362,-184 173,-184 173,-165 362,-165 362,-184"/>
<text text-anchor="middle" x="267.5" y="-172" font-family="Helvetica,sans-Serif" font-size="10.00">include/physics/PhysicsSystem.hpp</text>
</a>
</g>
</g>
<!-- Node2&#45;&gt;Node8 -->
<g id="edge9_Node000002_Node000008" class="edge">
<title>Node2&#45;&gt;Node8</title>
<g id="a_edge9_Node000002_Node000008"><a xlink:title=" ">
<path fill="none" stroke="#63b8ff" d="M267.5,-209.75C267.5,-200.72 267.5,-191.03 267.5,-184.27"/>
<polygon fill="#63b8ff" stroke="#63b8ff" points="264,-209.84 267.5,-219.84 271,-209.84 264,-209.84"/>
</a>
</g>
</g>
<!-- Node4 -->
<g id="Node000004" class="node">
<title>Node4</title>
<g id="a_Node000004"><a xlink:href="PointLight_8hpp_source.html" target="_top" xlink:title=" ">
<polygon fill="white" stroke="#666666" points="163,-129 0,-129 0,-110 163,-110 163,-129"/>
<text text-anchor="middle" x="81.5" y="-117" font-family="Helvetica,sans-Serif" font-size="10.00">include/objects/PointLight.hpp</text>
</a>
</g>
</g>
<!-- Node3&#45;&gt;Node4 -->
<g id="edge3_Node000003_Node000004" class="edge">
<title>Node3&#45;&gt;Node4</title>
<g id="a_edge3_Node000003_Node000004"><a xlink:title=" ">
<path fill="none" stroke="#63b8ff" d="M81.5,-154.66C81.5,-145.93 81.5,-135.99 81.5,-129.09"/>
<polygon fill="#63b8ff" stroke="#63b8ff" points="78,-154.75 81.5,-164.75 85,-154.75 78,-154.75"/>
</a>
</g>
</g>
<!-- Node5 -->
<g id="Node000005" class="node">
<title>Node5</title>
<g id="a_Node000005"><a xlink:href="Renderer_8hpp.html" target="_top" xlink:title="Manages the rendering pipeline and object submission.">
<polygon fill="white" stroke="#666666" points="331,-74 162,-74 162,-55 331,-55 331,-74"/>
<text text-anchor="middle" x="246.5" y="-62" font-family="Helvetica,sans-Serif" font-size="10.00">include/rendering/Renderer.hpp</text>
</a>
</g>
</g>
<!-- Node3&#45;&gt;Node5 -->
<g id="edge8_Node000003_Node000005" class="edge">
<title>Node3&#45;&gt;Node5</title>
<g id="a_edge8_Node000003_Node000005"><a xlink:title=" ">
<path fill="none" stroke="#63b8ff" d="M111.7,-160.8C129.67,-152.7 152.57,-141.43 171.5,-129 197.46,-111.96 224.41,-87.05 237.83,-74.08"/>
<polygon fill="#63b8ff" stroke="#63b8ff" points="110.03,-157.71 102.29,-164.95 112.85,-164.12 110.03,-157.71"/>
</a>
</g>
</g>
<!-- Node3&#45;&gt;Node7 -->
<g id="edge6_Node000003_Node000007" class="edge">
<title>Node3&#45;&gt;Node7</title>
<g id="a_edge6_Node000003_Node000007"><a xlink:title=" ">
<path fill="none" stroke="#63b8ff" d="M126.63,-162.63C167.84,-152.7 227.95,-138.22 265.88,-129.08"/>
<polygon fill="#63b8ff" stroke="#63b8ff" points="125.75,-159.24 116.85,-164.98 127.39,-166.05 125.75,-159.24"/>
</a>
</g>
</g>
<!-- Node4&#45;&gt;Node5 -->
<g id="edge4_Node000004_Node000005" class="edge">
<title>Node4&#45;&gt;Node5</title>
<g id="a_edge4_Node000004_Node000005"><a xlink:title=" ">
<path fill="none" stroke="#63b8ff" d="M117.93,-106.8C148.72,-96.91 192.12,-82.97 219.78,-74.08"/>
<polygon fill="#63b8ff" stroke="#63b8ff" points="116.46,-103.59 108.01,-109.98 118.6,-110.26 116.46,-103.59"/>
</a>
</g>
</g>
<!-- Node6 -->
<g id="Node000006" class="node">
<title>Node6</title>
<g id="a_Node000006"><a xlink:href="Engine_8hpp.html" target="_top" xlink:title="Defines the core Engine class responsible for running simulation.">
<polygon fill="white" stroke="#666666" points="301,-19 192,-19 192,0 301,0 301,-19"/>
<text text-anchor="middle" x="246.5" y="-7" font-family="Helvetica,sans-Serif" font-size="10.00">include/Engine.hpp</text>
</a>
</g>
</g>
<!-- Node5&#45;&gt;Node6 -->
<g id="edge5_Node000005_Node000006" class="edge">
<title>Node5&#45;&gt;Node6</title>
<g id="a_edge5_Node000005_Node000006"><a xlink:title=" ">
<path fill="none" stroke="#63b8ff" d="M246.5,-44.66C246.5,-35.93 246.5,-25.99 246.5,-19.09"/>
<polygon fill="#63b8ff" stroke="#63b8ff" points="243,-44.75 246.5,-54.75 250,-44.75 243,-44.75"/>
</a>
</g>
</g>
<!-- Node7&#45;&gt;Node5 -->
<g id="edge7_Node000007_Node000005" class="edge">
<title>Node7&#45;&gt;Node5</title>
<g id="a_edge7_Node000007_Node000005"><a xlink:title=" ">
<path fill="none" stroke="#63b8ff" d="M285.21,-102.8C275.46,-93.41 263.45,-81.83 255.41,-74.09"/>
<polygon fill="#63b8ff" stroke="#63b8ff" points="282.79,-105.33 292.42,-109.75 287.65,-100.29 282.79,-105.33"/>
</a>
</g>
</g>
<!-- Node9&#45;&gt;Node5 -->
<g id="edge12_Node000009_Node000005" class="edge">
<title>Node9&#45;&gt;Node5</title>
<g id="a_edge12_Node000009_Node000005"><a xlink:title=" ">
<path fill="none" stroke="#63b8ff" d="M487.4,-216.63C470.93,-189.81 435.73,-138.45 392.5,-110 364.61,-91.65 328.8,-80.58 299.63,-74.07"/>
<polygon fill="#63b8ff" stroke="#63b8ff" points="484.46,-218.53 492.6,-225.31 490.47,-214.94 484.46,-218.53"/>
</a>
</g>
</g>
</g>
</svg>
