<?xml version="1.0" encoding="UTF-8" standalone="no"?>
<!DOCTYPE svg PUBLIC "-//W3C//DTD SVG 1.1//EN"
 "http://www.w3.org/Graphics/SVG/1.1/DTD/svg11.dtd">
<!-- Generated by graphviz version 2.43.0 (0)
 -->
<!-- Title: include/rendering/Mesh.hpp Pages: 1 -->
<svg width="441pt" height="247pt"
 viewBox="0.00 0.00 441.00 247.00" xmlns="http://www.w3.org/2000/svg" xmlns:xlink="http://www.w3.org/1999/xlink">
<g id="graph0" class="graph" transform="scale(1 1) rotate(0) translate(4 243)">
<title>include/rendering/Mesh.hpp</title>
<!-- Node1 -->
<g id="Node000001" class="node">
<title>Node1</title>
<g id="a_Node000001"><a xlink:title="Defines the Mesh class for managing 3D geometry.">
<polygon fill="#999999" stroke="#666666" points="234,-239 82,-239 82,-220 234,-220 234,-239"/>
<text text-anchor="middle" x="158" y="-227" font-family="Helvetica,sans-Serif" font-size="10.00">include/rendering/Mesh.hpp</text>
</a>
</g>
</g>
<!-- Node2 -->
<g id="Node000002" class="node">
<title>Node2</title>
<g id="a_Node000002"><a xlink:href="MeshGenerator_8hpp_source.html" target="_top" xlink:title=" ">
<polygon fill="white" stroke="#666666" points="150,-184 0,-184 0,-165 150,-165 150,-184"/>
<text text-anchor="middle" x="75" y="-172" font-family="Helvetica,sans-Serif" font-size="10.00">include/MeshGenerator.hpp</text>
</a>
</g>
</g>
<!-- Node1&#45;&gt;Node2 -->
<g id="edge1_Node000001_Node000002" class="edge">
<title>Node1&#45;&gt;Node2</title>
<g id="a_edge1_Node000001_Node000002"><a xlink:title=" ">
<path fill="none" stroke="#63b8ff" d="M135.96,-214.42C120.89,-204.81 101.41,-192.37 88.58,-184.17"/>
<polygon fill="#63b8ff" stroke="#63b8ff" points="134.35,-217.55 144.66,-219.98 138.12,-211.65 134.35,-217.55"/>
</a>
</g>
</g>
<!-- Node3 -->
<g id="Node000003" class="node">
<title>Node3</title>
<g id="a_Node000003"><a xlink:href="Object_8hpp.html" target="_top" xlink:title="Defines the Object class, a special ECS entity wrapper.">
<polygon fill="white" stroke="#666666" points="314,-184 168,-184 168,-165 314,-165 314,-184"/>
<text text-anchor="middle" x="241" y="-172" font-family="Helvetica,sans-Serif" font-size="10.00">include/objects/Object.hpp</text>
</a>
</g>
</g>
<!-- Node1&#45;&gt;Node3 -->
<g id="edge2_Node000001_Node000003" class="edge">
<title>Node1&#45;&gt;Node3</title>
<g id="a_edge2_Node000001_Node000003"><a xlink:title=" ">
<path fill="none" stroke="#63b8ff" d="M180.04,-214.42C195.11,-204.81 214.59,-192.37 227.42,-184.17"/>
<polygon fill="#63b8ff" stroke="#63b8ff" points="177.88,-211.65 171.34,-219.98 181.65,-217.55 177.88,-211.65"/>
</a>
</g>
</g>
<!-- Node4 -->
<g id="Node000004" class="node">
<title>Node4</title>
<g id="a_Node000004"><a xlink:href="PointLight_8hpp_source.html" target="_top" xlink:title=" ">
<polygon fill="white" stroke="#666666" points="212.5,-129 49.5,-129 49.5,-110 212.5,-110 212.5,-129"/>
<text text-anchor="middle" x="131" y="-117" font-family="Helvetica,sans-Serif" font-size="10.00">include/objects/PointLight.hpp</text>
</a>
</g>
</g>
<!-- Node3&#45;&gt;Node4 -->
<g id="edge3_Node000003_Node000004" class="edge">
<title>Node3&#45;&gt;Node4</title>
<g id="a_edge3_Node000003_Node000004"><a xlink:title=" ">
<path fill="none" stroke="#63b8ff" d="M214.3,-160.63C194.03,-150.87 166.73,-137.71 148.99,-129.17"/>
<polygon fill="#63b8ff" stroke="#63b8ff" points="212.8,-163.8 223.33,-164.98 215.84,-157.49 212.8,-163.8"/>
</a>
</g>
</g>
<!-- Node5 -->
<g id="Node000005" class="node">
<title>Node5</title>
<g id="a_Node000005"><a xlink:href="Renderer_8hpp.html" target="_top" xlink:title="Manages the rendering pipeline and object submission.">
<polygon fill="white" stroke="#666666" points="325.5,-74 156.5,-74 156.5,-55 325.5,-55 325.5,-74"/>
<text text-anchor="middle" x="241" y="-62" font-family="Helvetica,sans-Serif" font-size="10.00">include/rendering/Renderer.hpp</text>
</a>
</g>
</g>
<!-- Node3&#45;&gt;Node5 -->
<g id="edge8_Node000003_Node000005" class="edge">
<title>Node3&#45;&gt;Node5</title>
<g id="a_edge8_Node000003_Node000005"><a xlink:title=" ">
<path fill="none" stroke="#63b8ff" d="M241,-154.48C241,-130.84 241,-91.5 241,-74.16"/>
<polygon fill="#63b8ff" stroke="#63b8ff" points="237.5,-154.66 241,-164.66 244.5,-154.66 237.5,-154.66"/>
</a>
</g>
</g>
<!-- Node7 -->
<g id="Node000007" class="node">
<title>Node7</title>
<g id="a_Node000007"><a xlink:href="Camera_8hpp.html" target="_top" xlink:title="Defines the Camera class for view and projection.">
<polygon fill="white" stroke="#666666" points="433,-129 269,-129 269,-110 433,-110 433,-129"/>
<text text-anchor="middle" x="351" y="-117" font-family="Helvetica,sans-Serif" font-size="10.00">include/rendering/Camera.hpp</text>
</a>
</g>
</g>
<!-- Node3&#45;&gt;Node7 -->
<g id="edge6_Node000003_Node000007" class="edge">
<title>Node3&#45;&gt;Node7</title>
<g id="a_edge6_Node000003_Node000007"><a xlink:title=" ">
<path fill="none" stroke="#63b8ff" d="M267.7,-160.63C287.97,-150.87 315.27,-137.71 333.01,-129.17"/>
<polygon fill="#63b8ff" stroke="#63b8ff" points="266.16,-157.49 258.67,-164.98 269.2,-163.8 266.16,-157.49"/>
</a>
</g>
</g>
<!-- Node4&#45;&gt;Node5 -->
<g id="edge4_Node000004_Node000005" class="edge">
<title>Node4&#45;&gt;Node5</title>
<g id="a_edge4_Node000004_Node000005"><a xlink:title=" ">
<path fill="none" stroke="#63b8ff" d="M157.7,-105.63C177.97,-95.87 205.27,-82.71 223.01,-74.17"/>
<polygon fill="#63b8ff" stroke="#63b8ff" points="156.16,-102.49 148.67,-109.98 159.2,-108.8 156.16,-102.49"/>
</a>
</g>
</g>
<!-- Node6 -->
<g id="Node000006" class="node">
<title>Node6</title>
<g id="a_Node000006"><a xlink:href="Engine_8hpp.html" target="_top" xlink:title="Defines the core Engine class responsible for running simulation.">
<polygon fill="white" stroke="#666666" points="295.5,-19 186.5,-19 186.5,0 295.5,0 295.5,-19"/>
<text text-anchor="middle" x="241" y="-7" font-family="Helvetica,sans-Serif" font-size="10.00">include/Engine.hpp</text>
</a>
</g>
</g>
<!-- Node5&#45;&gt;Node6 -->
<g id="edge5_Node000005_Node000006" class="edge">
<title>Node5&#45;&gt;Node6</title>
<g id="a_edge5_Node000005_Node000006"><a xlink:title=" ">
<path fill="none" stroke="#63b8ff" d="M241,-44.66C241,-35.93 241,-25.99 241,-19.09"/>
<polygon fill="#63b8ff" stroke="#63b8ff" points="237.5,-44.75 241,-54.75 244.5,-44.75 237.5,-44.75"/>
</a>
</g>
</g>
<!-- Node7&#45;&gt;Node5 -->
<g id="edge7_Node000007_Node000005" class="edge">
<title>Node7&#45;&gt;Node5</title>
<g id="a_edge7_Node000007_Node000005"><a xlink:title=" ">
<path fill="none" stroke="#63b8ff" d="M324.3,-105.63C304.03,-95.87 276.73,-82.71 258.99,-74.17"/>
<polygon fill="#63b8ff" stroke="#63b8ff" points="322.8,-108.8 333.33,-109.98 325.84,-102.49 322.8,-108.8"/>
</a>
</g>
</g>
</g>
</svg>
