<?xml version="1.0" encoding="UTF-8" standalone="no"?>
<!DOCTYPE svg PUBLIC "-//W3C//DTD SVG 1.1//EN"
 "http://www.w3.org/Graphics/SVG/1.1/DTD/svg11.dtd">
<!-- Generated by graphviz version 2.43.0 (0)
 -->
<!-- Title: include/rendering/Mesh.hpp Pages: 1 -->
<svg width="528pt" height="368pt"
 viewBox="0.00 0.00 528.00 368.00" xmlns="http://www.w3.org/2000/svg" xmlns:xlink="http://www.w3.org/1999/xlink">
<g id="graph0" class="graph" transform="scale(1 1) rotate(0) translate(4 364)">
<title>include/rendering/Mesh.hpp</title>
<!-- Node1 -->
<g id="Node000001" class="node">
<title>Node1</title>
<g id="a_Node000001"><a xlink:title="Defines the Mesh class for managing 3D geometry.">
<polygon fill="#999999" stroke="#666666" points="220,-360 68,-360 68,-341 220,-341 220,-360"/>
<text text-anchor="middle" x="144" y="-348" font-family="Helvetica,sans-Serif" font-size="10.00">include/rendering/Mesh.hpp</text>
</a>
</g>
</g>
<!-- Node2 -->
<g id="Node000002" class="node">
<title>Node2</title>
<g id="a_Node000002"><a xlink:href="FrameEngine_8hpp_source.html" target="_top" xlink:title=" ">
<polygon fill="white" stroke="#666666" points="245,-19 105,-19 105,0 245,0 245,-19"/>
<text text-anchor="middle" x="175" y="-7" font-family="Helvetica,sans-Serif" font-size="10.00">include/FrameEngine.hpp</text>
</a>
</g>
</g>
<!-- Node1&#45;&gt;Node2 -->
<g id="edge1_Node000001_Node000002" class="edge">
<title>Node1&#45;&gt;Node2</title>
<g id="a_edge1_Node000001_Node000002"><a xlink:title=" ">
<path fill="none" stroke="#63b8ff" d="M107.39,-337.38C64.73,-320.68 0,-286.16 0,-230.5 0,-230.5 0,-230.5 0,-118.5 0,-59.06 74.03,-31.25 125.79,-19.07"/>
<polygon fill="#63b8ff" stroke="#63b8ff" points="106.32,-340.72 116.91,-340.96 108.79,-334.17 106.32,-340.72"/>
</a>
</g>
</g>
<!-- Node3 -->
<g id="Node000003" class="node">
<title>Node3</title>
<g id="a_Node000003"><a xlink:href="MeshGenerator_8hpp_source.html" target="_top" xlink:title=" ">
<polygon fill="white" stroke="#666666" points="178,-239 28,-239 28,-220 178,-220 178,-239"/>
<text text-anchor="middle" x="103" y="-227" font-family="Helvetica,sans-Serif" font-size="10.00">include/MeshGenerator.hpp</text>
</a>
</g>
</g>
<!-- Node1&#45;&gt;Node3 -->
<g id="edge2_Node000001_Node000003" class="edge">
<title>Node1&#45;&gt;Node3</title>
<g id="a_edge2_Node000001_Node000003"><a xlink:title=" ">
<path fill="none" stroke="#63b8ff" d="M132.17,-332.32C127.14,-324.32 121.61,-314.5 118,-305 109.27,-282.07 105.31,-253.13 103.79,-239.02"/>
<polygon fill="#63b8ff" stroke="#63b8ff" points="129.28,-334.3 137.7,-340.74 135.13,-330.46 129.28,-334.3"/>
</a>
</g>
</g>
<!-- Node4 -->
<g id="Node000004" class="node">
<title>Node4</title>
<g id="a_Node000004"><a xlink:href="MeshComponent_8hpp_source.html" target="_top" xlink:title=" ">
<polygon fill="white" stroke="#666666" points="250.5,-305 127.5,-305 127.5,-275 250.5,-275 250.5,-305"/>
<text text-anchor="start" x="135.5" y="-293" font-family="Helvetica,sans-Serif" font-size="10.00">include/components</text>
<text text-anchor="middle" x="189" y="-282" font-family="Helvetica,sans-Serif" font-size="10.00">/MeshComponent.hpp</text>
</a>
</g>
</g>
<!-- Node1&#45;&gt;Node4 -->
<g id="edge4_Node000001_Node000004" class="edge">
<title>Node1&#45;&gt;Node4</title>
<g id="a_edge4_Node000001_Node000004"><a xlink:title=" ">
<path fill="none" stroke="#63b8ff" d="M156.78,-332.88C163.53,-324.11 171.71,-313.48 178.14,-305.11"/>
<polygon fill="#63b8ff" stroke="#63b8ff" points="153.96,-330.81 150.64,-340.87 159.51,-335.08 153.96,-330.81"/>
</a>
</g>
</g>
<!-- Node5 -->
<g id="Node000005" class="node">
<title>Node5</title>
<g id="a_Node000005"><a xlink:href="Object_8hpp.html" target="_top" xlink:title="Defines the Object class, a special ECS entity wrapper.">
<polygon fill="white" stroke="#666666" points="349,-239 203,-239 203,-220 349,-220 349,-239"/>
<text text-anchor="middle" x="276" y="-227" font-family="Helvetica,sans-Serif" font-size="10.00">include/objects/Object.hpp</text>
</a>
</g>
</g>
<!-- Node1&#45;&gt;Node5 -->
<g id="edge17_Node000001_Node000005" class="edge">
<title>Node1&#45;&gt;Node5</title>
<g id="a_edge17_Node000001_Node000005"><a xlink:title=" ">
<path fill="none" stroke="#63b8ff" d="M204.65,-338.04C224.52,-331.46 245.04,-321.14 259,-305 275.49,-285.93 276.87,-254.13 276.48,-239"/>
<polygon fill="#63b8ff" stroke="#63b8ff" points="203.54,-334.72 194.99,-340.98 205.57,-341.42 203.54,-334.72"/>
</a>
</g>
</g>
<!-- Node3&#45;&gt;Node2 -->
<g id="edge3_Node000003_Node000002" class="edge">
<title>Node3&#45;&gt;Node2</title>
<g id="a_edge3_Node000003_Node000002"><a xlink:title=" ">
<path fill="none" stroke="#63b8ff" d="M95.94,-210.37C84.17,-176.98 64.62,-104.66 94,-55 104.7,-36.91 125.66,-25.68 143.58,-19.03"/>
<polygon fill="#63b8ff" stroke="#63b8ff" points="92.66,-211.6 99.41,-219.76 99.22,-209.17 92.66,-211.6"/>
</a>
</g>
</g>
<!-- Node4&#45;&gt;Node5 -->
<g id="edge5_Node000004_Node000005" class="edge">
<title>Node4&#45;&gt;Node5</title>
<g id="a_edge5_Node000004_Node000005"><a xlink:title=" ">
<path fill="none" stroke="#63b8ff" d="M218.65,-269.06C233.84,-258.85 251.54,-246.95 263.22,-239.09"/>
<polygon fill="#63b8ff" stroke="#63b8ff" points="216.41,-266.35 210.06,-274.84 220.31,-272.16 216.41,-266.35"/>
</a>
</g>
</g>
<!-- Node5&#45;&gt;Node2 -->
<g id="edge6_Node000005_Node000002" class="edge">
<title>Node5&#45;&gt;Node2</title>
<g id="a_edge6_Node000005_Node000002"><a xlink:title=" ">
<path fill="none" stroke="#63b8ff" d="M215.13,-217.92C178.9,-210.24 137.91,-198.64 127,-184 87.23,-130.62 146.87,-45.96 168.03,-19.02"/>
<polygon fill="#63b8ff" stroke="#63b8ff" points="214.69,-221.4 225.19,-219.98 216.1,-214.54 214.69,-221.4"/>
</a>
</g>
</g>
<!-- Node6 -->
<g id="Node000006" class="node">
<title>Node6</title>
<g id="a_Node000006"><a xlink:href="PointLight_8hpp_source.html" target="_top" xlink:title=" ">
<polygon fill="white" stroke="#666666" points="299.5,-184 136.5,-184 136.5,-165 299.5,-165 299.5,-184"/>
<text text-anchor="middle" x="218" y="-172" font-family="Helvetica,sans-Serif" font-size="10.00">include/objects/PointLight.hpp</text>
</a>
</g>
</g>
<!-- Node5&#45;&gt;Node6 -->
<g id="edge7_Node000005_Node000006" class="edge">
<title>Node5&#45;&gt;Node6</title>
<g id="a_edge7_Node000005_Node000006"><a xlink:title=" ">
<path fill="none" stroke="#63b8ff" d="M259.09,-213.04C248.8,-203.64 236.03,-191.98 227.49,-184.17"/>
<polygon fill="#63b8ff" stroke="#63b8ff" points="256.94,-215.82 266.68,-219.98 261.66,-210.66 256.94,-215.82"/>
</a>
</g>
</g>
<!-- Node7 -->
<g id="Node000007" class="node">
<title>Node7</title>
<g id="a_Node000007"><a xlink:href="Renderer_8hpp.html" target="_top" xlink:title="Manages the rendering pipeline and object submission.">
<polygon fill="white" stroke="#666666" points="380.5,-129 211.5,-129 211.5,-110 380.5,-110 380.5,-129"/>
<text text-anchor="middle" x="296" y="-117" font-family="Helvetica,sans-Serif" font-size="10.00">include/rendering/Renderer.hpp</text>
</a>
</g>
</g>
<!-- Node5&#45;&gt;Node7 -->
<g id="edge16_Node000005_Node000007" class="edge">
<title>Node5&#45;&gt;Node7</title>
<g id="a_edge16_Node000005_Node000007"><a xlink:title=" ">
<path fill="none" stroke="#63b8ff" d="M291.92,-212.34C298.57,-204.47 305.54,-194.46 309,-184 315.28,-164.98 306.54,-141.71 300.63,-129.3"/>
<polygon fill="#63b8ff" stroke="#63b8ff" points="289.14,-210.2 285.02,-219.96 294.33,-214.9 289.14,-210.2"/>
</a>
</g>
</g>
<!-- Node9 -->
<g id="Node000009" class="node">
<title>Node9</title>
<g id="a_Node000009"><a xlink:href="Camera_8hpp.html" target="_top" xlink:title="Defines the Camera class for view and projection.">
<polygon fill="white" stroke="#666666" points="520,-184 356,-184 356,-165 520,-165 520,-184"/>
<text text-anchor="middle" x="438" y="-172" font-family="Helvetica,sans-Serif" font-size="10.00">include/rendering/Camera.hpp</text>
</a>
</g>
</g>
<!-- Node5&#45;&gt;Node9 -->
<g id="edge13_Node000005_Node000009" class="edge">
<title>Node5&#45;&gt;Node9</title>
<g id="a_edge13_Node000005_Node000009"><a xlink:title=" ">
<path fill="none" stroke="#63b8ff" d="M311.77,-216.8C342,-206.91 384.61,-192.97 411.77,-184.08"/>
<polygon fill="#63b8ff" stroke="#63b8ff" points="310.44,-213.55 302.03,-219.98 312.62,-220.2 310.44,-213.55"/>
</a>
</g>
</g>
<!-- Node6&#45;&gt;Node2 -->
<g id="edge8_Node000006_Node000002" class="edge">
<title>Node6&#45;&gt;Node2</title>
<g id="a_edge8_Node000006_Node000002"><a xlink:title=" ">
<path fill="none" stroke="#63b8ff" d="M211.43,-155.27C208.65,-147.27 205.49,-137.72 203,-129 191.37,-88.35 180.82,-38.89 176.76,-19.2"/>
<polygon fill="#63b8ff" stroke="#63b8ff" points="208.13,-156.45 214.77,-164.71 214.73,-154.12 208.13,-156.45"/>
</a>
</g>
</g>
<!-- Node6&#45;&gt;Node7 -->
<g id="edge9_Node000006_Node000007" class="edge">
<title>Node6&#45;&gt;Node7</title>
<g id="a_edge9_Node000006_Node000007"><a xlink:title=" ">
<path fill="none" stroke="#63b8ff" d="M239.12,-159.15C253.21,-149.57 271.29,-137.29 283.24,-129.17"/>
<polygon fill="#63b8ff" stroke="#63b8ff" points="236.84,-156.47 230.53,-164.98 240.77,-162.26 236.84,-156.47"/>
</a>
</g>
</g>
<!-- Node7&#45;&gt;Node2 -->
<g id="edge12_Node000007_Node000002" class="edge">
<title>Node7&#45;&gt;Node2</title>
<g id="a_edge12_Node000007_Node000002"><a xlink:title=" ">
<path fill="none" stroke="#63b8ff" d="M273.24,-104.53C260.57,-96.3 244.81,-85.32 232,-74 212.01,-56.35 191.95,-32.13 181.8,-19.3"/>
<polygon fill="#63b8ff" stroke="#63b8ff" points="271.52,-107.58 281.83,-109.99 275.27,-101.67 271.52,-107.58"/>
</a>
</g>
</g>
<!-- Node8 -->
<g id="Node000008" class="node">
<title>Node8</title>
<g id="a_Node000008"><a xlink:href="Engine_8hpp.html" target="_top" xlink:title="Defines the core Engine class responsible for running simulation.">
<polygon fill="white" stroke="#666666" points="350.5,-74 241.5,-74 241.5,-55 350.5,-55 350.5,-74"/>
<text text-anchor="middle" x="296" y="-62" font-family="Helvetica,sans-Serif" font-size="10.00">include/Engine.hpp</text>
</a>
</g>
</g>
<!-- Node7&#45;&gt;Node8 -->
<g id="edge10_Node000007_Node000008" class="edge">
<title>Node7&#45;&gt;Node8</title>
<g id="a_edge10_Node000007_Node000008"><a xlink:title=" ">
<path fill="none" stroke="#63b8ff" d="M296,-99.66C296,-90.93 296,-80.99 296,-74.09"/>
<polygon fill="#63b8ff" stroke="#63b8ff" points="292.5,-99.75 296,-109.75 299.5,-99.75 292.5,-99.75"/>
</a>
</g>
</g>
<!-- Node8&#45;&gt;Node2 -->
<g id="edge11_Node000008_Node000002" class="edge">
<title>Node8&#45;&gt;Node2</title>
<g id="a_edge11_Node000008_Node000002"><a xlink:title=" ">
<path fill="none" stroke="#63b8ff" d="M267.23,-50.9C244.88,-41.11 214.48,-27.79 194.79,-19.17"/>
<polygon fill="#63b8ff" stroke="#63b8ff" points="266,-54.18 276.56,-54.98 268.8,-47.77 266,-54.18"/>
</a>
</g>
</g>
<!-- Node9&#45;&gt;Node2 -->
<g id="edge14_Node000009_Node000002" class="edge">
<title>Node9&#45;&gt;Node2</title>
<g id="a_edge14_Node000009_Node000002"><a xlink:title=" ">
<path fill="none" stroke="#63b8ff" d="M431.08,-155.18C420.15,-128.81 396.31,-80.51 360,-55 326.48,-31.45 282.03,-20.28 245.1,-15.01"/>
<polygon fill="#63b8ff" stroke="#63b8ff" points="427.92,-156.72 434.87,-164.72 434.43,-154.13 427.92,-156.72"/>
</a>
</g>
</g>
<!-- Node9&#45;&gt;Node7 -->
<g id="edge15_Node000009_Node000007" class="edge">
<title>Node9&#45;&gt;Node7</title>
<g id="a_edge15_Node000009_Node000007"><a xlink:title=" ">
<path fill="none" stroke="#63b8ff" d="M405.64,-161.42C379.29,-151.59 342.74,-137.95 319.23,-129.17"/>
<polygon fill="#63b8ff" stroke="#63b8ff" points="404.59,-164.77 415.19,-164.98 407.04,-158.21 404.59,-164.77"/>
</a>
</g>
</g>
</g>
</svg>
