<?xml version="1.0" encoding="UTF-8" standalone="no"?>
<!DOCTYPE svg PUBLIC "-//W3C//DTD SVG 1.1//EN"
 "http://www.w3.org/Graphics/SVG/1.1/DTD/svg11.dtd">
<!-- Generated by graphviz version 12.2.1 (0)
 -->
<!-- Title: include/rendering/Mesh.hpp Pages: 1 -->
<svg width="441pt" height="256pt"
 viewBox="0.00 0.00 440.62 255.75" xmlns="http://www.w3.org/2000/svg" xmlns:xlink="http://www.w3.org/1999/xlink">
<g id="graph0" class="graph" transform="scale(1 1) rotate(0) translate(4 251.75)">
<title>include/rendering/Mesh.hpp</title>
<!-- Node1 -->
<g id="Node000001" class="node">
<title>Node1</title>
<g id="a_Node000001"><a xlink:title="Defines the Mesh class for managing 3D geometry.">
<polygon fill="#999999" stroke="#666666" points="233.62,-247.75 82.62,-247.75 82.62,-227 233.62,-227 233.62,-247.75"/>
<text text-anchor="middle" x="158.12" y="-234.25" font-family="Helvetica,sans-Serif" font-size="10.00">include/rendering/Mesh.hpp</text>
</a>
</g>
</g>
<!-- Node2 -->
<g id="Node000002" class="node">
<title>Node2</title>
<g id="a_Node000002"><a xlink:href="MeshGenerator_8hpp_source.html" target="_top" xlink:title=" ">
<polygon fill="white" stroke="#666666" points="150.25,-191 0,-191 0,-170.25 150.25,-170.25 150.25,-191"/>
<text text-anchor="middle" x="75.12" y="-177.5" font-family="Helvetica,sans-Serif" font-size="10.00">include/MeshGenerator.hpp</text>
</a>
</g>
</g>
<!-- Node1&#45;&gt;Node2 -->
<g id="edge1_Node000001_Node000002" class="edge">
<title>Node1&#45;&gt;Node2</title>
<g id="a_edge1_Node000001_Node000002"><a xlink:title=" ">
<path fill="none" stroke="#63b8ff" d="M134.03,-220.48C119.74,-211.05 102.07,-199.4 89.84,-191.33"/>
<polygon fill="#63b8ff" stroke="#63b8ff" points="131.75,-223.17 142.02,-225.75 135.6,-217.33 131.75,-223.17"/>
</a>
</g>
</g>
<!-- Node3 -->
<g id="Node000003" class="node">
<title>Node3</title>
<g id="a_Node000003"><a xlink:href="Object_8hpp.html" target="_top" xlink:title="Defines the Object class, a special ECS entity wrapper.">
<polygon fill="white" stroke="#666666" points="313.62,-191 168.62,-191 168.62,-170.25 313.62,-170.25 313.62,-191"/>
<text text-anchor="middle" x="241.12" y="-177.5" font-family="Helvetica,sans-Serif" font-size="10.00">include/objects/Object.hpp</text>
</a>
</g>
</g>
<!-- Node1&#45;&gt;Node3 -->
<g id="edge2_Node000001_Node000003" class="edge">
<title>Node1&#45;&gt;Node3</title>
<g id="a_edge2_Node000001_Node000003"><a xlink:title=" ">
<path fill="none" stroke="#63b8ff" d="M182.22,-220.48C196.51,-211.05 214.18,-199.4 226.41,-191.33"/>
<polygon fill="#63b8ff" stroke="#63b8ff" points="180.65,-217.33 174.23,-225.75 184.5,-223.17 180.65,-217.33"/>
</a>
</g>
</g>
<!-- Node4 -->
<g id="Node000004" class="node">
<title>Node4</title>
<g id="a_Node000004"><a xlink:href="PointLight_8hpp_source.html" target="_top" xlink:title=" ">
<polygon fill="white" stroke="#666666" points="213.25,-134.25 51,-134.25 51,-113.5 213.25,-113.5 213.25,-134.25"/>
<text text-anchor="middle" x="132.12" y="-120.75" font-family="Helvetica,sans-Serif" font-size="10.00">include/objects/PointLight.hpp</text>
</a>
</g>
</g>
<!-- Node3&#45;&gt;Node4 -->
<g id="edge3_Node000003_Node000004" class="edge">
<title>Node3&#45;&gt;Node4</title>
<g id="a_edge3_Node000003_Node000004"><a xlink:title=" ">
<path fill="none" stroke="#63b8ff" d="M211.37,-164.68C192.28,-155.09 168.05,-142.92 151.44,-134.58"/>
<polygon fill="#63b8ff" stroke="#63b8ff" points="209.78,-167.8 220.29,-169.16 212.92,-161.54 209.78,-167.8"/>
</a>
</g>
</g>
<!-- Node5 -->
<g id="Node000005" class="node">
<title>Node5</title>
<g id="a_Node000005"><a xlink:href="Renderer_8hpp.html" target="_top" xlink:title="Manages the rendering pipeline and object submission.">
<polygon fill="white" stroke="#666666" points="325.62,-77.5 156.62,-77.5 156.62,-56.75 325.62,-56.75 325.62,-77.5"/>
<text text-anchor="middle" x="241.12" y="-64" font-family="Helvetica,sans-Serif" font-size="10.00">include/rendering/Renderer.hpp</text>
</a>
</g>
</g>
<!-- Node3&#45;&gt;Node5 -->
<g id="edge8_Node000003_Node000005" class="edge">
<title>Node3&#45;&gt;Node5</title>
<g id="a_edge8_Node000003_Node000005"><a xlink:title=" ">
<path fill="none" stroke="#63b8ff" d="M241.12,-158.72C241.12,-134.59 241.12,-95.92 241.12,-77.93"/>
<polygon fill="#63b8ff" stroke="#63b8ff" points="237.63,-158.6 241.13,-168.61 244.63,-158.61 237.63,-158.6"/>
</a>
</g>
</g>
<!-- Node7 -->
<g id="Node000007" class="node">
<title>Node7</title>
<g id="a_Node000007"><a xlink:href="Camera_8hpp.html" target="_top" xlink:title="Defines the Camera class for view and projection.">
<polygon fill="white" stroke="#666666" points="432.62,-134.25 269.62,-134.25 269.62,-113.5 432.62,-113.5 432.62,-134.25"/>
<text text-anchor="middle" x="351.12" y="-120.75" font-family="Helvetica,sans-Serif" font-size="10.00">include/rendering/Camera.hpp</text>
</a>
</g>
</g>
<!-- Node3&#45;&gt;Node7 -->
<g id="edge6_Node000003_Node000007" class="edge">
<title>Node3&#45;&gt;Node7</title>
<g id="a_edge6_Node000003_Node000007"><a xlink:title=" ">
<path fill="none" stroke="#63b8ff" d="M270.89,-164.81C290.19,-155.2 314.79,-142.96 331.63,-134.58"/>
<polygon fill="#63b8ff" stroke="#63b8ff" points="269.54,-161.57 262.15,-169.16 272.66,-167.84 269.54,-161.57"/>
</a>
</g>
</g>
<!-- Node4&#45;&gt;Node5 -->
<g id="edge4_Node000004_Node000005" class="edge">
<title>Node4&#45;&gt;Node5</title>
<g id="a_edge4_Node000004_Node000005"><a xlink:title=" ">
<path fill="none" stroke="#63b8ff" d="M161.88,-107.93C180.97,-98.34 205.2,-86.17 221.81,-77.83"/>
<polygon fill="#63b8ff" stroke="#63b8ff" points="160.33,-104.79 152.96,-112.41 163.47,-111.05 160.33,-104.79"/>
</a>
</g>
</g>
<!-- Node6 -->
<g id="Node000006" class="node">
<title>Node6</title>
<g id="a_Node000006"><a xlink:href="Engine_8hpp.html" target="_top" xlink:title="Defines the core Engine class responsible for running simulation.">
<polygon fill="white" stroke="#666666" points="295.25,-20.75 187,-20.75 187,0 295.25,0 295.25,-20.75"/>
<text text-anchor="middle" x="241.12" y="-7.25" font-family="Helvetica,sans-Serif" font-size="10.00">include/Engine.hpp</text>
</a>
</g>
</g>
<!-- Node5&#45;&gt;Node6 -->
<g id="edge5_Node000005_Node000006" class="edge">
<title>Node5&#45;&gt;Node6</title>
<g id="a_edge5_Node000005_Node000006"><a xlink:title=" ">
<path fill="none" stroke="#63b8ff" d="M241.12,-44.88C241.12,-36.66 241.12,-27.68 241.12,-21.08"/>
<polygon fill="#63b8ff" stroke="#63b8ff" points="237.63,-44.82 241.13,-54.82 244.63,-44.82 237.63,-44.82"/>
</a>
</g>
</g>
<!-- Node7&#45;&gt;Node5 -->
<g id="edge7_Node000007_Node000005" class="edge">
<title>Node7&#45;&gt;Node5</title>
<g id="a_edge7_Node000007_Node000005"><a xlink:title=" ">
<path fill="none" stroke="#63b8ff" d="M321.36,-108.06C302.06,-98.45 277.46,-86.21 260.62,-77.83"/>
<polygon fill="#63b8ff" stroke="#63b8ff" points="319.59,-111.09 330.1,-112.41 322.71,-104.82 319.59,-111.09"/>
</a>
</g>
</g>
</g>
</svg>
