<?xml version="1.0" encoding="UTF-8" standalone="no"?>
<!DOCTYPE svg PUBLIC "-//W3C//DTD SVG 1.1//EN"
 "http://www.w3.org/Graphics/SVG/1.1/DTD/svg11.dtd">
<!-- Generated by graphviz version 2.43.0 (0)
 -->
<!-- Title: include/rendering/Mesh.hpp Pages: 1 -->
<svg width="618pt" height="302pt"
 viewBox="0.00 0.00 618.00 302.00" xmlns="http://www.w3.org/2000/svg" xmlns:xlink="http://www.w3.org/1999/xlink">
<g id="graph0" class="graph" transform="scale(1 1) rotate(0) translate(4 298)">
<title>include/rendering/Mesh.hpp</title>
<!-- Node1 -->
<g id="Node000001" class="node">
<title>Node1</title>
<g id="a_Node000001"><a xlink:title="Defines the Mesh class for managing 3D geometry.">
<polygon fill="#999999" stroke="#666666" points="179,-294 27,-294 27,-275 179,-275 179,-294"/>
<text text-anchor="middle" x="103" y="-282" font-family="Helvetica,sans-Serif" font-size="10.00">include/rendering/Mesh.hpp</text>
</a>
</g>
</g>
<!-- Node2 -->
<g id="Node000002" class="node">
<title>Node2</title>
<g id="a_Node000002"><a xlink:href="FrameEngine_8hpp_source.html" target="_top" xlink:title=" ">
<polygon fill="white" stroke="#666666" points="343,-19 203,-19 203,0 343,0 343,-19"/>
<text text-anchor="middle" x="273" y="-7" font-family="Helvetica,sans-Serif" font-size="10.00">include/FrameEngine.hpp</text>
</a>
</g>
</g>
<!-- Node1&#45;&gt;Node2 -->
<g id="edge1_Node000001_Node000002" class="edge">
<title>Node1&#45;&gt;Node2</title>
<g id="a_edge1_Node000001_Node000002"><a xlink:title=" ">
<path fill="none" stroke="#63b8ff" d="M76.14,-270.15C45.62,-252.87 0,-219.64 0,-175.5 0,-175.5 0,-175.5 0,-118.5 0,-70.46 148.01,-34.61 226.07,-19.05"/>
<polygon fill="#63b8ff" stroke="#63b8ff" points="74.6,-273.3 85.06,-275 77.94,-267.15 74.6,-273.3"/>
</a>
</g>
</g>
<!-- Node3 -->
<g id="Node000003" class="node">
<title>Node3</title>
<g id="a_Node000003"><a xlink:href="MeshGenerator_8hpp_source.html" target="_top" xlink:title=" ">
<polygon fill="white" stroke="#666666" points="178,-129 28,-129 28,-110 178,-110 178,-129"/>
<text text-anchor="middle" x="103" y="-117" font-family="Helvetica,sans-Serif" font-size="10.00">include/MeshGenerator.hpp</text>
</a>
</g>
</g>
<!-- Node1&#45;&gt;Node3 -->
<g id="edge2_Node000001_Node000003" class="edge">
<title>Node1&#45;&gt;Node3</title>
<g id="a_edge2_Node000001_Node000003"><a xlink:title=" ">
<path fill="none" stroke="#63b8ff" d="M103,-264.37C103,-229.03 103,-154.79 103,-129.31"/>
<polygon fill="#63b8ff" stroke="#63b8ff" points="99.5,-264.74 103,-274.74 106.5,-264.74 99.5,-264.74"/>
</a>
</g>
</g>
<!-- Node4 -->
<g id="Node000004" class="node">
<title>Node4</title>
<g id="a_Node000004"><a xlink:href="Object_8hpp.html" target="_top" xlink:title="Defines the Object class, a special ECS entity wrapper.">
<polygon fill="white" stroke="#666666" points="381,-239 235,-239 235,-220 381,-220 381,-239"/>
<text text-anchor="middle" x="308" y="-227" font-family="Helvetica,sans-Serif" font-size="10.00">include/objects/Object.hpp</text>
</a>
</g>
</g>
<!-- Node1&#45;&gt;Node4 -->
<g id="edge4_Node000001_Node000004" class="edge">
<title>Node1&#45;&gt;Node4</title>
<g id="a_edge4_Node000001_Node000004"><a xlink:title=" ">
<path fill="none" stroke="#63b8ff" d="M145.79,-272.44C184.17,-262.52 239.69,-248.16 274.81,-239.08"/>
<polygon fill="#63b8ff" stroke="#63b8ff" points="144.74,-269.09 135.94,-274.98 146.49,-275.87 144.74,-269.09"/>
</a>
</g>
</g>
<!-- Node3&#45;&gt;Node2 -->
<g id="edge3_Node000003_Node000002" class="edge">
<title>Node3&#45;&gt;Node2</title>
<g id="a_edge3_Node000003_Node000002"><a xlink:title=" ">
<path fill="none" stroke="#63b8ff" d="M122.59,-103.51C140.32,-90.19 167.37,-70.48 192,-55 213.46,-41.51 239.29,-27.72 255.91,-19.14"/>
<polygon fill="#63b8ff" stroke="#63b8ff" points="120.09,-101.01 114.23,-109.84 124.31,-106.6 120.09,-101.01"/>
</a>
</g>
</g>
<!-- Node4&#45;&gt;Node2 -->
<g id="edge5_Node000004_Node000002" class="edge">
<title>Node4&#45;&gt;Node2</title>
<g id="a_edge5_Node000004_Node000002"><a xlink:title=" ">
<path fill="none" stroke="#63b8ff" d="M259.93,-216.41C243.41,-209.7 226.65,-199.46 217,-184 181.47,-127.08 243.19,-45.45 265.46,-19.07"/>
<polygon fill="#63b8ff" stroke="#63b8ff" points="258.98,-219.79 269.58,-219.96 261.4,-213.22 258.98,-219.79"/>
</a>
</g>
</g>
<!-- Node5 -->
<g id="Node000005" class="node">
<title>Node5</title>
<g id="a_Node000005"><a xlink:href="PointLight_8hpp_source.html" target="_top" xlink:title=" ">
<polygon fill="white" stroke="#666666" points="389.5,-184 226.5,-184 226.5,-165 389.5,-165 389.5,-184"/>
<text text-anchor="middle" x="308" y="-172" font-family="Helvetica,sans-Serif" font-size="10.00">include/objects/PointLight.hpp</text>
</a>
</g>
</g>
<!-- Node4&#45;&gt;Node5 -->
<g id="edge6_Node000004_Node000005" class="edge">
<title>Node4&#45;&gt;Node5</title>
<g id="a_edge6_Node000004_Node000005"><a xlink:title=" ">
<path fill="none" stroke="#63b8ff" d="M308,-209.66C308,-200.93 308,-190.99 308,-184.09"/>
<polygon fill="#63b8ff" stroke="#63b8ff" points="304.5,-209.75 308,-219.75 311.5,-209.75 304.5,-209.75"/>
</a>
</g>
</g>
<!-- Node6 -->
<g id="Node000006" class="node">
<title>Node6</title>
<g id="a_Node000006"><a xlink:href="Renderer_8hpp.html" target="_top" xlink:title="Manages the rendering pipeline and object submission.">
<polygon fill="white" stroke="#666666" points="478.5,-129 309.5,-129 309.5,-110 478.5,-110 478.5,-129"/>
<text text-anchor="middle" x="394" y="-117" font-family="Helvetica,sans-Serif" font-size="10.00">include/rendering/Renderer.hpp</text>
</a>
</g>
</g>
<!-- Node4&#45;&gt;Node6 -->
<g id="edge15_Node000004_Node000006" class="edge">
<title>Node4&#45;&gt;Node6</title>
<g id="a_edge15_Node000004_Node000006"><a xlink:title=" ">
<path fill="none" stroke="#63b8ff" d="M355.55,-216.29C371.9,-209.56 388.47,-199.35 398,-184 408.61,-166.92 402.11,-142.03 397.47,-129.07"/>
<polygon fill="#63b8ff" stroke="#63b8ff" points="354.15,-213.07 346.01,-219.85 356.61,-219.63 354.15,-213.07"/>
</a>
</g>
</g>
<!-- Node8 -->
<g id="Node000008" class="node">
<title>Node8</title>
<g id="a_Node000008"><a xlink:href="Camera_8hpp.html" target="_top" xlink:title="Defines the Camera class for view and projection.">
<polygon fill="white" stroke="#666666" points="610,-184 446,-184 446,-165 610,-165 610,-184"/>
<text text-anchor="middle" x="528" y="-172" font-family="Helvetica,sans-Serif" font-size="10.00">include/rendering/Camera.hpp</text>
</a>
</g>
</g>
<!-- Node4&#45;&gt;Node8 -->
<g id="edge12_Node000004_Node000008" class="edge">
<title>Node4&#45;&gt;Node8</title>
<g id="a_edge12_Node000004_Node000008"><a xlink:title=" ">
<path fill="none" stroke="#63b8ff" d="M353.13,-217.63C394.34,-207.7 454.45,-193.22 492.38,-184.08"/>
<polygon fill="#63b8ff" stroke="#63b8ff" points="352.25,-214.24 343.35,-219.98 353.89,-221.05 352.25,-214.24"/>
</a>
</g>
</g>
<!-- Node5&#45;&gt;Node2 -->
<g id="edge7_Node000005_Node000002" class="edge">
<title>Node5&#45;&gt;Node2</title>
<g id="a_edge7_Node000005_Node000002"><a xlink:title=" ">
<path fill="none" stroke="#63b8ff" d="M303.99,-154.83C296.44,-119.67 280.39,-44.9 274.89,-19.31"/>
<polygon fill="#63b8ff" stroke="#63b8ff" points="300.6,-155.69 306.12,-164.74 307.44,-154.22 300.6,-155.69"/>
</a>
</g>
</g>
<!-- Node5&#45;&gt;Node6 -->
<g id="edge8_Node000005_Node000006" class="edge">
<title>Node5&#45;&gt;Node6</title>
<g id="a_edge8_Node000005_Node000006"><a xlink:title=" ">
<path fill="none" stroke="#63b8ff" d="M330.4,-159.7C346.07,-150.04 366.51,-137.44 379.93,-129.17"/>
<polygon fill="#63b8ff" stroke="#63b8ff" points="328.49,-156.76 321.82,-164.98 332.17,-162.72 328.49,-156.76"/>
</a>
</g>
</g>
<!-- Node6&#45;&gt;Node2 -->
<g id="edge11_Node000006_Node000002" class="edge">
<title>Node6&#45;&gt;Node2</title>
<g id="a_edge11_Node000006_Node000002"><a xlink:title=" ">
<path fill="none" stroke="#63b8ff" d="M371.24,-104.53C358.57,-96.3 342.81,-85.32 330,-74 310.01,-56.35 289.95,-32.13 279.8,-19.3"/>
<polygon fill="#63b8ff" stroke="#63b8ff" points="369.52,-107.58 379.83,-109.99 373.27,-101.67 369.52,-107.58"/>
</a>
</g>
</g>
<!-- Node7 -->
<g id="Node000007" class="node">
<title>Node7</title>
<g id="a_Node000007"><a xlink:href="Engine_8hpp.html" target="_top" xlink:title="Defines the core Engine class responsible for running simulation.">
<polygon fill="white" stroke="#666666" points="448.5,-74 339.5,-74 339.5,-55 448.5,-55 448.5,-74"/>
<text text-anchor="middle" x="394" y="-62" font-family="Helvetica,sans-Serif" font-size="10.00">include/Engine.hpp</text>
</a>
</g>
</g>
<!-- Node6&#45;&gt;Node7 -->
<g id="edge9_Node000006_Node000007" class="edge">
<title>Node6&#45;&gt;Node7</title>
<g id="a_edge9_Node000006_Node000007"><a xlink:title=" ">
<path fill="none" stroke="#63b8ff" d="M394,-99.66C394,-90.93 394,-80.99 394,-74.09"/>
<polygon fill="#63b8ff" stroke="#63b8ff" points="390.5,-99.75 394,-109.75 397.5,-99.75 390.5,-99.75"/>
</a>
</g>
</g>
<!-- Node7&#45;&gt;Node2 -->
<g id="edge10_Node000007_Node000002" class="edge">
<title>Node7&#45;&gt;Node2</title>
<g id="a_edge10_Node000007_Node000002"><a xlink:title=" ">
<path fill="none" stroke="#63b8ff" d="M365.23,-50.9C342.88,-41.11 312.48,-27.79 292.79,-19.17"/>
<polygon fill="#63b8ff" stroke="#63b8ff" points="364,-54.18 374.56,-54.98 366.8,-47.77 364,-54.18"/>
</a>
</g>
</g>
<!-- Node8&#45;&gt;Node2 -->
<g id="edge13_Node000008_Node000002" class="edge">
<title>Node8&#45;&gt;Node2</title>
<g id="a_edge13_Node000008_Node000002"><a xlink:title=" ">
<path fill="none" stroke="#63b8ff" d="M522.17,-155.21C512.79,-128.87 491.81,-80.6 457,-55 424.17,-30.85 379.97,-19.66 343.13,-14.53"/>
<polygon fill="#63b8ff" stroke="#63b8ff" points="518.87,-156.38 525.38,-164.73 525.5,-154.14 518.87,-156.38"/>
</a>
</g>
</g>
<!-- Node8&#45;&gt;Node6 -->
<g id="edge14_Node000008_Node000006" class="edge">
<title>Node8&#45;&gt;Node6</title>
<g id="a_edge14_Node000008_Node000006"><a xlink:title=" ">
<path fill="none" stroke="#63b8ff" d="M497.13,-161.29C472.3,-151.47 438.01,-137.91 415.92,-129.17"/>
<polygon fill="#63b8ff" stroke="#63b8ff" points="495.88,-164.56 506.47,-164.98 498.46,-158.05 495.88,-164.56"/>
</a>
</g>
</g>
</g>
</svg>
