<?xml version="1.0" encoding="UTF-8" standalone="no"?>
<!DOCTYPE svg PUBLIC "-//W3C//DTD SVG 1.1//EN"
 "http://www.w3.org/Graphics/SVG/1.1/DTD/svg11.dtd">
<!-- Generated by graphviz version 2.43.0 (0)
 -->
<!-- Title: include/objects/Object.hpp Pages: 1 -->
<svg width="1309pt" height="302pt"
 viewBox="0.00 0.00 1308.50 302.00" xmlns="http://www.w3.org/2000/svg" xmlns:xlink="http://www.w3.org/1999/xlink">
<g id="graph0" class="graph" transform="scale(1 1) rotate(0) translate(4 298)">
<title>include/objects/Object.hpp</title>
<!-- Node1 -->
<g id="Node000001" class="node">
<title>Node1</title>
<g id="a_Node000001"><a xlink:title="Defines the Object class, a special ECS entity wrapper.">
<polygon fill="#999999" stroke="#666666" points="1161,-294 1015,-294 1015,-275 1161,-275 1161,-294"/>
<text text-anchor="middle" x="1088" y="-282" font-family="Helvetica,sans-Serif" font-size="10.00">include/objects/Object.hpp</text>
</a>
</g>
</g>
<!-- Node2 -->
<g id="Node000002" class="node">
<title>Node2</title>
<g id="a_Node000002"><a xlink:href="Entity_8hpp.html" target="_top" xlink:title="Defines the Entity class, which serves as a wrapper for ECS entities.">
<polygon fill="white" stroke="#666666" points="519.5,-184 454.5,-184 454.5,-165 519.5,-165 519.5,-184"/>
<text text-anchor="middle" x="487" y="-172" font-family="Helvetica,sans-Serif" font-size="10.00">Entity.hpp</text>
</a>
</g>
</g>
<!-- Node1&#45;&gt;Node2 -->
<g id="edge1_Node000001_Node000002" class="edge">
<title>Node1&#45;&gt;Node2</title>
<g id="a_edge1_Node000001_Node000002"><a xlink:title=" ">
<path fill="none" stroke="#63b8ff" d="M1040.59,-274.98C926.6,-254.5 638.59,-202.74 529.64,-183.16"/>
<polygon fill="#63b8ff" stroke="#63b8ff" points="530.13,-179.69 519.67,-181.37 528.89,-186.58 530.13,-179.69"/>
</a>
</g>
</g>
<!-- Node19 -->
<g id="Node000019" class="node">
<title>Node19</title>
<g id="a_Node000019"><a xlink:href="TransformComponent_8hpp.html" target="_top" xlink:title="Defines the TransformComponent for ECS&#45;based spatial transformations.">
<polygon fill="white" stroke="#666666" points="1191,-239 985,-239 985,-220 1191,-220 1191,-239"/>
<text text-anchor="middle" x="1088" y="-227" font-family="Helvetica,sans-Serif" font-size="10.00">components/TransformComponent.hpp</text>
</a>
</g>
</g>
<!-- Node1&#45;&gt;Node19 -->
<g id="edge19_Node000001_Node000019" class="edge">
<title>Node1&#45;&gt;Node19</title>
<g id="a_edge19_Node000001_Node000019"><a xlink:title=" ">
<path fill="none" stroke="#63b8ff" d="M1088,-274.75C1088,-267.8 1088,-257.85 1088,-249.13"/>
<polygon fill="#63b8ff" stroke="#63b8ff" points="1091.5,-249.09 1088,-239.09 1084.5,-249.09 1091.5,-249.09"/>
</a>
</g>
</g>
<!-- Node24 -->
<g id="Node000024" class="node">
<title>Node24</title>
<g id="a_Node000024"><a xlink:href="Mesh_8hpp.html" target="_top" xlink:title="Defines the Mesh class for managing 3D geometry.">
<polygon fill="white" stroke="#666666" points="1300.5,-129 1187.5,-129 1187.5,-110 1300.5,-110 1300.5,-129"/>
<text text-anchor="middle" x="1244" y="-117" font-family="Helvetica,sans-Serif" font-size="10.00">rendering/Mesh.hpp</text>
</a>
</g>
</g>
<!-- Node1&#45;&gt;Node24 -->
<g id="edge32_Node000001_Node000024" class="edge">
<title>Node1&#45;&gt;Node24</title>
<g id="a_edge32_Node000001_Node000024"><a xlink:title=" ">
<path fill="none" stroke="#63b8ff" d="M1132.44,-274.93C1155.24,-268.48 1181.94,-257.48 1200,-239 1227.26,-211.11 1237.88,-164.84 1241.82,-139.15"/>
<polygon fill="#63b8ff" stroke="#63b8ff" points="1245.29,-139.6 1243.16,-129.22 1238.35,-138.66 1245.29,-139.6"/>
</a>
</g>
</g>
<!-- Node3 -->
<g id="Node000003" class="node">
<title>Node3</title>
<g id="a_Node000003"><a xlink:href="Logger_8hpp.html" target="_top" xlink:title="Provides logging functionality.">
<polygon fill="white" stroke="#666666" points="368,-129 298,-129 298,-110 368,-110 368,-129"/>
<text text-anchor="middle" x="333" y="-117" font-family="Helvetica,sans-Serif" font-size="10.00">Logger.hpp</text>
</a>
</g>
</g>
<!-- Node2&#45;&gt;Node3 -->
<g id="edge2_Node000002_Node000003" class="edge">
<title>Node2&#45;&gt;Node3</title>
<g id="a_edge2_Node000002_Node000003"><a xlink:title=" ">
<path fill="none" stroke="#63b8ff" d="M462.26,-164.98C436.63,-156.16 396.37,-142.31 367.59,-132.41"/>
<polygon fill="#63b8ff" stroke="#63b8ff" points="368.53,-129.03 357.94,-129.08 366.25,-135.65 368.53,-129.03"/>
</a>
</g>
</g>
<!-- Node8 -->
<g id="Node000008" class="node">
<title>Node8</title>
<g id="a_Node000008"><a xlink:title=" ">
<polygon fill="#e0e0e0" stroke="#999999" points="60,-74 0,-74 0,-55 60,-55 60,-74"/>
<text text-anchor="middle" x="30" y="-62" font-family="Helvetica,sans-Serif" font-size="10.00">iostream</text>
</a>
</g>
</g>
<!-- Node2&#45;&gt;Node8 -->
<g id="edge18_Node000002_Node000008" class="edge">
<title>Node2&#45;&gt;Node8</title>
<g id="a_edge18_Node000002_Node000008"><a xlink:title=" ">
<path fill="none" stroke="#63b8ff" d="M454.37,-166.37C415.09,-157.74 347.14,-142.66 289,-129 211.42,-110.77 121.06,-88.35 70.19,-75.61"/>
<polygon fill="#63b8ff" stroke="#63b8ff" points="70.81,-72.16 60.26,-73.12 69.11,-78.95 70.81,-72.16"/>
</a>
</g>
</g>
<!-- Node12 -->
<g id="Node000012" class="node">
<title>Node12</title>
<g id="a_Node000012"><a xlink:href="Registry_8hpp.html" target="_top" xlink:title="Defines the Registry class for managing ECS entities and components.">
<polygon fill="white" stroke="#666666" points="736.5,-129 659.5,-129 659.5,-110 736.5,-110 736.5,-129"/>
<text text-anchor="middle" x="698" y="-117" font-family="Helvetica,sans-Serif" font-size="10.00">Registry.hpp</text>
</a>
</g>
</g>
<!-- Node2&#45;&gt;Node12 -->
<g id="edge11_Node000002_Node000012" class="edge">
<title>Node2&#45;&gt;Node12</title>
<g id="a_edge11_Node000002_Node000012"><a xlink:title=" ">
<path fill="none" stroke="#63b8ff" d="M519.51,-165.33C555.63,-156.26 614.16,-141.56 654.28,-131.48"/>
<polygon fill="#63b8ff" stroke="#63b8ff" points="655.21,-134.86 664.06,-129.03 653.51,-128.07 655.21,-134.86"/>
</a>
</g>
</g>
<!-- Node4 -->
<g id="Node000004" class="node">
<title>Node4</title>
<g id="a_Node000004"><a xlink:title=" ">
<polygon fill="#e0e0e0" stroke="#999999" points="128,-74 78,-74 78,-55 128,-55 128,-74"/>
<text text-anchor="middle" x="103" y="-62" font-family="Helvetica,sans-Serif" font-size="10.00">chrono</text>
</a>
</g>
</g>
<!-- Node3&#45;&gt;Node4 -->
<g id="edge3_Node000003_Node000004" class="edge">
<title>Node3&#45;&gt;Node4</title>
<g id="a_edge3_Node000003_Node000004"><a xlink:title=" ">
<path fill="none" stroke="#63b8ff" d="M297.89,-110.77C260.63,-102.51 199.75,-88.87 138.13,-74.23"/>
<polygon fill="#63b8ff" stroke="#63b8ff" points="138.78,-70.79 128.24,-71.87 137.15,-77.6 138.78,-70.79"/>
</a>
</g>
</g>
<!-- Node5 -->
<g id="Node000005" class="node">
<title>Node5</title>
<g id="a_Node000005"><a xlink:title=" ">
<polygon fill="#e0e0e0" stroke="#999999" points="217.5,-74 146.5,-74 146.5,-55 217.5,-55 217.5,-74"/>
<text text-anchor="middle" x="182" y="-62" font-family="Helvetica,sans-Serif" font-size="10.00">fmt/printf.h</text>
</a>
</g>
</g>
<!-- Node3&#45;&gt;Node5 -->
<g id="edge4_Node000003_Node000005" class="edge">
<title>Node3&#45;&gt;Node5</title>
<g id="a_edge4_Node000003_Node000005"><a xlink:title=" ">
<path fill="none" stroke="#63b8ff" d="M308.74,-109.98C283.68,-101.19 244.37,-87.39 216.17,-77.49"/>
<polygon fill="#63b8ff" stroke="#63b8ff" points="217.3,-74.18 206.7,-74.17 214.98,-80.78 217.3,-74.18"/>
</a>
</g>
</g>
<!-- Node6 -->
<g id="Node000006" class="node">
<title>Node6</title>
<g id="a_Node000006"><a xlink:title=" ">
<polygon fill="#e0e0e0" stroke="#999999" points="290.5,-74 235.5,-74 235.5,-55 290.5,-55 290.5,-74"/>
<text text-anchor="middle" x="263" y="-62" font-family="Helvetica,sans-Serif" font-size="10.00">fstream</text>
</a>
</g>
</g>
<!-- Node3&#45;&gt;Node6 -->
<g id="edge5_Node000003_Node000006" class="edge">
<title>Node3&#45;&gt;Node6</title>
<g id="a_edge5_Node000003_Node000006"><a xlink:title=" ">
<path fill="none" stroke="#63b8ff" d="M321.75,-109.98C311.2,-102 295.2,-89.88 282.56,-80.31"/>
<polygon fill="#63b8ff" stroke="#63b8ff" points="284.54,-77.42 274.45,-74.17 280.31,-83 284.54,-77.42"/>
</a>
</g>
</g>
<!-- Node7 -->
<g id="Node000007" class="node">
<title>Node7</title>
<g id="a_Node000007"><a xlink:title=" ">
<polygon fill="#e0e0e0" stroke="#999999" points="507,-74 451,-74 451,-55 507,-55 507,-74"/>
<text text-anchor="middle" x="479" y="-62" font-family="Helvetica,sans-Serif" font-size="10.00">iomanip</text>
</a>
</g>
</g>
<!-- Node3&#45;&gt;Node7 -->
<g id="edge6_Node000003_Node000007" class="edge">
<title>Node3&#45;&gt;Node7</title>
<g id="a_edge6_Node000003_Node000007"><a xlink:title=" ">
<path fill="none" stroke="#63b8ff" d="M356.46,-109.98C380.58,-101.23 418.37,-87.51 445.6,-77.62"/>
<polygon fill="#63b8ff" stroke="#63b8ff" points="446.91,-80.87 455.12,-74.17 444.52,-74.29 446.91,-80.87"/>
</a>
</g>
</g>
<!-- Node3&#45;&gt;Node8 -->
<g id="edge7_Node000003_Node000008" class="edge">
<title>Node3&#45;&gt;Node8</title>
<g id="a_edge7_Node000003_Node000008"><a xlink:title=" ">
<path fill="none" stroke="#63b8ff" d="M297.89,-113.13C249.04,-105.53 157.6,-90.89 70.03,-74.13"/>
<polygon fill="#63b8ff" stroke="#63b8ff" points="70.69,-70.69 60.2,-72.23 69.36,-77.56 70.69,-70.69"/>
</a>
</g>
</g>
<!-- Node9 -->
<g id="Node000009" class="node">
<title>Node9</title>
<g id="a_Node000009"><a xlink:title=" ">
<polygon fill="#e0e0e0" stroke="#999999" points="357,-74 309,-74 309,-55 357,-55 357,-74"/>
<text text-anchor="middle" x="333" y="-62" font-family="Helvetica,sans-Serif" font-size="10.00">mutex</text>
</a>
</g>
</g>
<!-- Node3&#45;&gt;Node9 -->
<g id="edge8_Node000003_Node000009" class="edge">
<title>Node3&#45;&gt;Node9</title>
<g id="a_edge8_Node000003_Node000009"><a xlink:title=" ">
<path fill="none" stroke="#63b8ff" d="M333,-109.75C333,-102.8 333,-92.85 333,-84.13"/>
<polygon fill="#63b8ff" stroke="#63b8ff" points="336.5,-84.09 333,-74.09 329.5,-84.09 336.5,-84.09"/>
</a>
</g>
</g>
<!-- Node10 -->
<g id="Node000010" class="node">
<title>Node10</title>
<g id="a_Node000010"><a xlink:title=" ">
<polygon fill="#e0e0e0" stroke="#999999" points="1041,-19 985,-19 985,0 1041,0 1041,-19"/>
<text text-anchor="middle" x="1013" y="-7" font-family="Helvetica,sans-Serif" font-size="10.00">sstream</text>
</a>
</g>
</g>
<!-- Node3&#45;&gt;Node10 -->
<g id="edge9_Node000003_Node000010" class="edge">
<title>Node3&#45;&gt;Node10</title>
<g id="a_edge9_Node000003_Node000010"><a xlink:title=" ">
<path fill="none" stroke="#63b8ff" d="M340.29,-109.55C352.67,-95.09 379.36,-67 409,-55 512.25,-13.19 858.35,-10.1 974.57,-10.28"/>
<polygon fill="#63b8ff" stroke="#63b8ff" points="974.76,-13.78 984.77,-10.31 974.78,-6.78 974.76,-13.78"/>
</a>
</g>
</g>
<!-- Node11 -->
<g id="Node000011" class="node">
<title>Node11</title>
<g id="a_Node000011"><a xlink:title=" ">
<polygon fill="#e0e0e0" stroke="#999999" points="1103,-19 1059,-19 1059,0 1103,0 1103,-19"/>
<text text-anchor="middle" x="1081" y="-7" font-family="Helvetica,sans-Serif" font-size="10.00">string</text>
</a>
</g>
</g>
<!-- Node3&#45;&gt;Node11 -->
<g id="edge10_Node000003_Node000011" class="edge">
<title>Node3&#45;&gt;Node11</title>
<g id="a_edge10_Node000003_Node000011"><a xlink:title=" ">
<path fill="none" stroke="#63b8ff" d="M347.31,-109.93C375.7,-92.95 436.86,-56.55 442,-55 697.97,22.31 780.89,-60.95 1048.76,-18.81"/>
<polygon fill="#63b8ff" stroke="#63b8ff" points="1049.46,-22.24 1058.77,-17.19 1048.34,-15.33 1049.46,-22.24"/>
</a>
</g>
</g>
<!-- Node13 -->
<g id="Node000013" class="node">
<title>Node13</title>
<g id="a_Node000013"><a xlink:title=" ">
<polygon fill="#e0e0e0" stroke="#999999" points="589,-74 525,-74 525,-55 589,-55 589,-74"/>
<text text-anchor="middle" x="557" y="-62" font-family="Helvetica,sans-Serif" font-size="10.00">algorithm</text>
</a>
</g>
</g>
<!-- Node12&#45;&gt;Node13 -->
<g id="edge12_Node000012_Node000013" class="edge">
<title>Node12&#45;&gt;Node13</title>
<g id="a_edge12_Node000012_Node000013"><a xlink:title=" ">
<path fill="none" stroke="#63b8ff" d="M675.35,-109.98C652.15,-101.27 615.88,-87.63 589.6,-77.75"/>
<polygon fill="#63b8ff" stroke="#63b8ff" points="590.66,-74.41 580.07,-74.17 588.2,-80.97 590.66,-74.41"/>
</a>
</g>
</g>
<!-- Node14 -->
<g id="Node000014" class="node">
<title>Node14</title>
<g id="a_Node000014"><a xlink:title=" ">
<polygon fill="#e0e0e0" stroke="#999999" points="651,-74 607,-74 607,-55 651,-55 651,-74"/>
<text text-anchor="middle" x="629" y="-62" font-family="Helvetica,sans-Serif" font-size="10.00">bitset</text>
</a>
</g>
</g>
<!-- Node12&#45;&gt;Node14 -->
<g id="edge13_Node000012_Node000014" class="edge">
<title>Node12&#45;&gt;Node14</title>
<g id="a_edge13_Node000012_Node000014"><a xlink:title=" ">
<path fill="none" stroke="#63b8ff" d="M686.91,-109.98C676.51,-102 660.74,-89.88 648.28,-80.31"/>
<polygon fill="#63b8ff" stroke="#63b8ff" points="650.35,-77.49 640.29,-74.17 646.09,-83.04 650.35,-77.49"/>
</a>
</g>
</g>
<!-- Node15 -->
<g id="Node000015" class="node">
<title>Node15</title>
<g id="a_Node000015"><a xlink:title=" ">
<polygon fill="#e0e0e0" stroke="#999999" points="727,-74 669,-74 669,-55 727,-55 727,-74"/>
<text text-anchor="middle" x="698" y="-62" font-family="Helvetica,sans-Serif" font-size="10.00">memory</text>
</a>
</g>
</g>
<!-- Node12&#45;&gt;Node15 -->
<g id="edge14_Node000012_Node000015" class="edge">
<title>Node12&#45;&gt;Node15</title>
<g id="a_edge14_Node000012_Node000015"><a xlink:title=" ">
<path fill="none" stroke="#63b8ff" d="M698,-109.75C698,-102.8 698,-92.85 698,-84.13"/>
<polygon fill="#63b8ff" stroke="#63b8ff" points="701.5,-84.09 698,-74.09 694.5,-84.09 701.5,-84.09"/>
</a>
</g>
</g>
<!-- Node16 -->
<g id="Node000016" class="node">
<title>Node16</title>
<g id="a_Node000016"><a xlink:title=" ">
<polygon fill="#e0e0e0" stroke="#999999" points="810.5,-74 745.5,-74 745.5,-55 810.5,-55 810.5,-74"/>
<text text-anchor="middle" x="778" y="-62" font-family="Helvetica,sans-Serif" font-size="10.00">stdexcept</text>
</a>
</g>
</g>
<!-- Node12&#45;&gt;Node16 -->
<g id="edge15_Node000012_Node000016" class="edge">
<title>Node12&#45;&gt;Node16</title>
<g id="a_edge15_Node000012_Node000016"><a xlink:title=" ">
<path fill="none" stroke="#63b8ff" d="M710.85,-109.98C723.14,-101.84 741.91,-89.41 756.48,-79.76"/>
<polygon fill="#63b8ff" stroke="#63b8ff" points="758.51,-82.61 764.91,-74.17 754.64,-76.78 758.51,-82.61"/>
</a>
</g>
</g>
<!-- Node17 -->
<g id="Node000017" class="node">
<title>Node17</title>
<g id="a_Node000017"><a xlink:title=" ">
<polygon fill="#e0e0e0" stroke="#999999" points="921.5,-74 828.5,-74 828.5,-55 921.5,-55 921.5,-74"/>
<text text-anchor="middle" x="875" y="-62" font-family="Helvetica,sans-Serif" font-size="10.00">unordered_map</text>
</a>
</g>
</g>
<!-- Node12&#45;&gt;Node17 -->
<g id="edge16_Node000012_Node000017" class="edge">
<title>Node12&#45;&gt;Node17</title>
<g id="a_edge16_Node000012_Node000017"><a xlink:title=" ">
<path fill="none" stroke="#63b8ff" d="M726.44,-109.98C756.28,-101.05 803.38,-86.94 836.53,-77.02"/>
<polygon fill="#63b8ff" stroke="#63b8ff" points="837.76,-80.3 846.34,-74.08 835.76,-73.6 837.76,-80.3"/>
</a>
</g>
</g>
<!-- Node18 -->
<g id="Node000018" class="node">
<title>Node18</title>
<g id="a_Node000018"><a xlink:title=" ">
<polygon fill="#e0e0e0" stroke="#999999" points="986.5,-74 939.5,-74 939.5,-55 986.5,-55 986.5,-74"/>
<text text-anchor="middle" x="963" y="-62" font-family="Helvetica,sans-Serif" font-size="10.00">vector</text>
</a>
</g>
</g>
<!-- Node12&#45;&gt;Node18 -->
<g id="edge17_Node000012_Node000018" class="edge">
<title>Node12&#45;&gt;Node18</title>
<g id="a_edge17_Node000012_Node000018"><a xlink:title=" ">
<path fill="none" stroke="#63b8ff" d="M736.52,-112.01C780.87,-104.34 856.12,-90.75 929.42,-74.24"/>
<polygon fill="#63b8ff" stroke="#63b8ff" points="930.31,-77.63 939.28,-72 928.75,-70.8 930.31,-77.63"/>
</a>
</g>
</g>
<!-- Node20 -->
<g id="Node000020" class="node">
<title>Node20</title>
<g id="a_Node000020"><a xlink:href="Matrix4_8hpp.html" target="_top" xlink:title="Defines the Matrix4 class for 3D transformation operations.">
<polygon fill="white" stroke="#666666" points="1060,-184 956,-184 956,-165 1060,-165 1060,-184"/>
<text text-anchor="middle" x="1008" y="-172" font-family="Helvetica,sans-Serif" font-size="10.00">math/Matrix4.hpp</text>
</a>
</g>
</g>
<!-- Node19&#45;&gt;Node20 -->
<g id="edge20_Node000019_Node000020" class="edge">
<title>Node19&#45;&gt;Node20</title>
<g id="a_edge20_Node000019_Node000020"><a xlink:title=" ">
<path fill="none" stroke="#63b8ff" d="M1075.15,-219.98C1062.86,-211.84 1044.09,-199.41 1029.52,-189.76"/>
<polygon fill="#63b8ff" stroke="#63b8ff" points="1031.36,-186.78 1021.09,-184.17 1027.49,-192.61 1031.36,-186.78"/>
</a>
</g>
</g>
<!-- Node21 -->
<g id="Node000021" class="node">
<title>Node21</title>
<g id="a_Node000021"><a xlink:href="Quaternion_8hpp.html" target="_top" xlink:title="Defines the Quaternion class for representing 3D rotations.">
<polygon fill="white" stroke="#666666" points="1131,-129 1039,-129 1039,-110 1131,-110 1131,-129"/>
<text text-anchor="middle" x="1085" y="-117" font-family="Helvetica,sans-Serif" font-size="10.00">Quaternion.hpp</text>
</a>
</g>
</g>
<!-- Node19&#45;&gt;Node21 -->
<g id="edge30_Node000019_Node000021" class="edge">
<title>Node19&#45;&gt;Node21</title>
<g id="a_edge30_Node000019_Node000021"><a xlink:title=" ">
<path fill="none" stroke="#63b8ff" d="M1087.75,-219.66C1087.27,-202.17 1086.18,-162.8 1085.52,-139.27"/>
<polygon fill="#63b8ff" stroke="#63b8ff" points="1089.02,-139.06 1085.24,-129.16 1082.02,-139.25 1089.02,-139.06"/>
</a>
</g>
</g>
<!-- Node22 -->
<g id="Node000022" class="node">
<title>Node22</title>
<g id="a_Node000022"><a xlink:href="Vector3_8hpp.html" target="_top" xlink:title="Defines the Vector3 class.">
<polygon fill="white" stroke="#666666" points="1118,-74 1044,-74 1044,-55 1118,-55 1118,-74"/>
<text text-anchor="middle" x="1081" y="-62" font-family="Helvetica,sans-Serif" font-size="10.00">Vector3.hpp</text>
</a>
</g>
</g>
<!-- Node19&#45;&gt;Node22 -->
<g id="edge31_Node000019_Node000022" class="edge">
<title>Node19&#45;&gt;Node22</title>
<g id="a_edge31_Node000019_Node000022"><a xlink:title=" ">
<path fill="none" stroke="#63b8ff" d="M1097.25,-219.74C1117.03,-199.92 1160.04,-150.22 1140,-110 1133.43,-96.82 1120.9,-86.52 1109.07,-79.16"/>
<polygon fill="#63b8ff" stroke="#63b8ff" points="1110.68,-76.05 1100.27,-74.1 1107.2,-82.12 1110.68,-76.05"/>
</a>
</g>
</g>
<!-- Node20&#45;&gt;Node7 -->
<g id="edge28_Node000020_Node000007" class="edge">
<title>Node20&#45;&gt;Node7</title>
<g id="a_edge28_Node000020_Node000007"><a xlink:title=" ">
<path fill="none" stroke="#63b8ff" d="M955.89,-170.76C885.76,-166.22 757.5,-154.93 651,-129 598.64,-116.25 540.32,-92.6 506.81,-78.03"/>
<polygon fill="#63b8ff" stroke="#63b8ff" points="508.21,-74.82 497.64,-74.01 505.39,-81.23 508.21,-74.82"/>
</a>
</g>
</g>
<!-- Node20&#45;&gt;Node10 -->
<g id="edge29_Node000020_Node000010" class="edge">
<title>Node20&#45;&gt;Node10</title>
<g id="a_edge29_Node000020_Node000010"><a xlink:title=" ">
<path fill="none" stroke="#63b8ff" d="M1008.27,-164.74C1009.05,-139.31 1011.33,-65.08 1012.41,-29.69"/>
<polygon fill="#63b8ff" stroke="#63b8ff" points="1015.92,-29.41 1012.73,-19.31 1008.92,-29.19 1015.92,-29.41"/>
</a>
</g>
</g>
<!-- Node20&#45;&gt;Node21 -->
<g id="edge21_Node000020_Node000021" class="edge">
<title>Node20&#45;&gt;Node21</title>
<g id="a_edge21_Node000020_Node000021"><a xlink:title=" ">
<path fill="none" stroke="#63b8ff" d="M1020.37,-164.98C1032.09,-156.92 1049.92,-144.65 1063.89,-135.03"/>
<polygon fill="#63b8ff" stroke="#63b8ff" points="1066.15,-137.72 1072.4,-129.17 1062.18,-131.96 1066.15,-137.72"/>
</a>
</g>
</g>
<!-- Node20&#45;&gt;Node22 -->
<g id="edge27_Node000020_Node000022" class="edge">
<title>Node20&#45;&gt;Node22</title>
<g id="a_edge27_Node000020_Node000022"><a xlink:title=" ">
<path fill="none" stroke="#63b8ff" d="M1009.56,-164.64C1012.15,-151.73 1018.26,-127.41 1030,-110 1037.8,-98.43 1049.34,-88.02 1059.47,-80.18"/>
<polygon fill="#63b8ff" stroke="#63b8ff" points="1061.56,-82.99 1067.53,-74.23 1057.41,-77.35 1061.56,-82.99"/>
</a>
</g>
</g>
<!-- Node21&#45;&gt;Node22 -->
<g id="edge22_Node000021_Node000022" class="edge">
<title>Node21&#45;&gt;Node22</title>
<g id="a_edge22_Node000021_Node000022"><a xlink:title=" ">
<path fill="none" stroke="#63b8ff" d="M1084.34,-109.75C1083.82,-102.8 1083.06,-92.85 1082.41,-84.13"/>
<polygon fill="#63b8ff" stroke="#63b8ff" points="1085.89,-83.8 1081.65,-74.09 1078.91,-84.32 1085.89,-83.8"/>
</a>
</g>
</g>
<!-- Node23 -->
<g id="Node000023" class="node">
<title>Node23</title>
<g id="a_Node000023"><a xlink:title=" ">
<polygon fill="#e0e0e0" stroke="#999999" points="1168.5,-19 1121.5,-19 1121.5,0 1168.5,0 1168.5,-19"/>
<text text-anchor="middle" x="1145" y="-7" font-family="Helvetica,sans-Serif" font-size="10.00">cmath</text>
</a>
</g>
</g>
<!-- Node21&#45;&gt;Node23 -->
<g id="edge26_Node000021_Node000023" class="edge">
<title>Node21&#45;&gt;Node23</title>
<g id="a_edge26_Node000021_Node000023"><a xlink:title=" ">
<path fill="none" stroke="#63b8ff" d="M1095.84,-109.71C1105.36,-101.44 1118.92,-88.23 1127,-74 1134.88,-60.13 1139.51,-42.56 1142.1,-29.43"/>
<polygon fill="#63b8ff" stroke="#63b8ff" points="1145.61,-29.68 1143.88,-19.22 1138.71,-28.47 1145.61,-29.68"/>
</a>
</g>
</g>
<!-- Node22&#45;&gt;Node10 -->
<g id="edge24_Node000022_Node000010" class="edge">
<title>Node22&#45;&gt;Node10</title>
<g id="a_edge24_Node000022_Node000010"><a xlink:title=" ">
<path fill="none" stroke="#63b8ff" d="M1070.07,-54.98C1059.92,-47.07 1044.58,-35.11 1032.35,-25.58"/>
<polygon fill="#63b8ff" stroke="#63b8ff" points="1034.16,-22.56 1024.12,-19.17 1029.86,-28.08 1034.16,-22.56"/>
</a>
</g>
</g>
<!-- Node22&#45;&gt;Node11 -->
<g id="edge25_Node000022_Node000011" class="edge">
<title>Node22&#45;&gt;Node11</title>
<g id="a_edge25_Node000022_Node000011"><a xlink:title=" ">
<path fill="none" stroke="#63b8ff" d="M1081,-54.75C1081,-47.8 1081,-37.85 1081,-29.13"/>
<polygon fill="#63b8ff" stroke="#63b8ff" points="1084.5,-29.09 1081,-19.09 1077.5,-29.09 1084.5,-29.09"/>
</a>
</g>
</g>
<!-- Node22&#45;&gt;Node23 -->
<g id="edge23_Node000022_Node000023" class="edge">
<title>Node22&#45;&gt;Node23</title>
<g id="a_edge23_Node000022_Node000023"><a xlink:title=" ">
<path fill="none" stroke="#63b8ff" d="M1091.28,-54.98C1100.84,-47.07 1115.28,-35.11 1126.78,-25.58"/>
<polygon fill="#63b8ff" stroke="#63b8ff" points="1129.06,-28.24 1134.53,-19.17 1124.6,-22.85 1129.06,-28.24"/>
</a>
</g>
</g>
<!-- Node24&#45;&gt;Node11 -->
<g id="edge35_Node000024_Node000011" class="edge">
<title>Node24&#45;&gt;Node11</title>
<g id="a_edge35_Node000024_Node000011"><a xlink:title=" ">
<path fill="none" stroke="#63b8ff" d="M1230.94,-109.84C1202.92,-91.28 1136.82,-47.49 1102.51,-24.75"/>
<polygon fill="#63b8ff" stroke="#63b8ff" points="1104.4,-21.8 1094.13,-19.2 1100.53,-27.64 1104.4,-21.8"/>
</a>
</g>
</g>
<!-- Node24&#45;&gt;Node18 -->
<g id="edge36_Node000024_Node000018" class="edge">
<title>Node24&#45;&gt;Node18</title>
<g id="a_edge36_Node000024_Node000018"><a xlink:title=" ">
<path fill="none" stroke="#63b8ff" d="M1198.85,-109.98C1142.51,-99.36 1047.43,-81.43 996.92,-71.9"/>
<polygon fill="#63b8ff" stroke="#63b8ff" points="997.32,-68.41 986.85,-70 996.02,-75.29 997.32,-68.41"/>
</a>
</g>
</g>
<!-- Node24&#45;&gt;Node22 -->
<g id="edge33_Node000024_Node000022" class="edge">
<title>Node24&#45;&gt;Node22</title>
<g id="a_edge33_Node000024_Node000022"><a xlink:title=" ">
<path fill="none" stroke="#63b8ff" d="M1217.81,-109.98C1190.56,-101.13 1147.7,-87.19 1117.22,-77.28"/>
<polygon fill="#63b8ff" stroke="#63b8ff" points="1117.99,-73.85 1107.39,-74.08 1115.82,-80.5 1117.99,-73.85"/>
</a>
</g>
</g>
<!-- Node25 -->
<g id="Node000025" class="node">
<title>Node25</title>
<g id="a_Node000025"><a xlink:title=" ">
<polygon fill="#e0e0e0" stroke="#999999" points="1283.5,-74 1212.5,-74 1212.5,-55 1283.5,-55 1283.5,-74"/>
<text text-anchor="middle" x="1248" y="-62" font-family="Helvetica,sans-Serif" font-size="10.00">glad/glad.h</text>
</a>
</g>
</g>
<!-- Node24&#45;&gt;Node25 -->
<g id="edge34_Node000024_Node000025" class="edge">
<title>Node24&#45;&gt;Node25</title>
<g id="a_edge34_Node000024_Node000025"><a xlink:title=" ">
<path fill="none" stroke="#63b8ff" d="M1244.66,-109.75C1245.18,-102.8 1245.94,-92.85 1246.59,-84.13"/>
<polygon fill="#63b8ff" stroke="#63b8ff" points="1250.09,-84.32 1247.35,-74.09 1243.11,-83.8 1250.09,-84.32"/>
</a>
</g>
</g>
</g>
</svg>
