<?xml version="1.0" encoding="UTF-8" standalone="no"?>
<!DOCTYPE svg PUBLIC "-//W3C//DTD SVG 1.1//EN"
 "http://www.w3.org/Graphics/SVG/1.1/DTD/svg11.dtd">
<!-- Generated by graphviz version 2.43.0 (0)
 -->
<!-- Title: include/objects/Object.hpp Pages: 1 -->
<svg width="1292pt" height="302pt"
 viewBox="0.00 0.00 1292.00 302.00" xmlns="http://www.w3.org/2000/svg" xmlns:xlink="http://www.w3.org/1999/xlink">
<g id="graph0" class="graph" transform="scale(1 1) rotate(0) translate(4 298)">
<title>include/objects/Object.hpp</title>
<!-- Node1 -->
<g id="Node000001" class="node">
<title>Node1</title>
<g id="a_Node000001"><a xlink:title="Defines the Object class, a special ECS entity wrapper.">
<polygon fill="#999999" stroke="#666666" points="1121.5,-294 975.5,-294 975.5,-275 1121.5,-275 1121.5,-294"/>
<text text-anchor="middle" x="1048.5" y="-282" font-family="Helvetica,sans-Serif" font-size="10.00">include/objects/Object.hpp</text>
</a>
</g>
</g>
<!-- Node2 -->
<g id="Node000002" class="node">
<title>Node2</title>
<g id="a_Node000002"><a xlink:href="Entity_8hpp.html" target="_top" xlink:title="Defines the Entity class, which serves as a wrapper for ECS entities.">
<polygon fill="white" stroke="#666666" points="812,-184 747,-184 747,-165 812,-165 812,-184"/>
<text text-anchor="middle" x="779.5" y="-172" font-family="Helvetica,sans-Serif" font-size="10.00">Entity.hpp</text>
</a>
</g>
</g>
<!-- Node1&#45;&gt;Node2 -->
<g id="edge1_Node000001_Node000002" class="edge">
<title>Node1&#45;&gt;Node2</title>
<g id="a_edge1_Node000001_Node000002"><a xlink:title=" ">
<path fill="none" stroke="#63b8ff" d="M1026.59,-274.84C1004,-265.9 967.77,-251.53 936.5,-239 892.54,-221.38 841.75,-200.79 810.12,-187.95"/>
<polygon fill="#63b8ff" stroke="#63b8ff" points="811.14,-184.59 800.56,-184.07 808.51,-191.07 811.14,-184.59"/>
</a>
</g>
</g>
<!-- Node19 -->
<g id="Node000019" class="node">
<title>Node19</title>
<g id="a_Node000019"><a xlink:href="TransformComponent_8hpp.html" target="_top" xlink:title="Defines the TransformComponent for ECS&#45;based spatial transformations.">
<polygon fill="white" stroke="#666666" points="1151.5,-239 945.5,-239 945.5,-220 1151.5,-220 1151.5,-239"/>
<text text-anchor="middle" x="1048.5" y="-227" font-family="Helvetica,sans-Serif" font-size="10.00">components/TransformComponent.hpp</text>
</a>
</g>
</g>
<!-- Node1&#45;&gt;Node19 -->
<g id="edge18_Node000001_Node000019" class="edge">
<title>Node1&#45;&gt;Node19</title>
<g id="a_edge18_Node000001_Node000019"><a xlink:title=" ">
<path fill="none" stroke="#63b8ff" d="M1048.5,-274.75C1048.5,-267.8 1048.5,-257.85 1048.5,-249.13"/>
<polygon fill="#63b8ff" stroke="#63b8ff" points="1052,-249.09 1048.5,-239.09 1045,-249.09 1052,-249.09"/>
</a>
</g>
</g>
<!-- Node24 -->
<g id="Node000024" class="node">
<title>Node24</title>
<g id="a_Node000024"><a xlink:href="Mesh_8hpp.html" target="_top" xlink:title="Defines the Mesh class for managing 3D geometry.">
<polygon fill="white" stroke="#666666" points="1278,-129 1165,-129 1165,-110 1278,-110 1278,-129"/>
<text text-anchor="middle" x="1221.5" y="-117" font-family="Helvetica,sans-Serif" font-size="10.00">rendering/Mesh.hpp</text>
</a>
</g>
</g>
<!-- Node1&#45;&gt;Node24 -->
<g id="edge31_Node000001_Node000024" class="edge">
<title>Node1&#45;&gt;Node24</title>
<g id="a_edge31_Node000001_Node000024"><a xlink:title=" ">
<path fill="none" stroke="#63b8ff" d="M1088.82,-274.98C1112.01,-268.38 1140.43,-257.21 1160.5,-239 1191.09,-211.25 1208.68,-164.58 1216.52,-138.88"/>
<polygon fill="#63b8ff" stroke="#63b8ff" points="1219.89,-139.83 1219.3,-129.26 1213.16,-137.89 1219.89,-139.83"/>
</a>
</g>
</g>
<!-- Node3 -->
<g id="Node000003" class="node">
<title>Node3</title>
<g id="a_Node000003"><a xlink:href="Logger_8hpp.html" target="_top" xlink:title="Provides logging functionality.">
<polygon fill="white" stroke="#666666" points="367.5,-129 297.5,-129 297.5,-110 367.5,-110 367.5,-129"/>
<text text-anchor="middle" x="332.5" y="-117" font-family="Helvetica,sans-Serif" font-size="10.00">Logger.hpp</text>
</a>
</g>
</g>
<!-- Node2&#45;&gt;Node3 -->
<g id="edge2_Node000002_Node000003" class="edge">
<title>Node2&#45;&gt;Node3</title>
<g id="a_edge2_Node000002_Node000003"><a xlink:title=" ">
<path fill="none" stroke="#63b8ff" d="M746.99,-169.65C668.44,-160.33 468.12,-136.58 377.83,-125.88"/>
<polygon fill="#63b8ff" stroke="#63b8ff" points="377.98,-122.37 367.64,-124.67 377.16,-129.32 377.98,-122.37"/>
</a>
</g>
</g>
<!-- Node12 -->
<g id="Node000012" class="node">
<title>Node12</title>
<g id="a_Node000012"><a xlink:href="Registry_8hpp.html" target="_top" xlink:title="Defines the Registry class for managing ECS entities and components.">
<polygon fill="white" stroke="#666666" points="818,-129 741,-129 741,-110 818,-110 818,-129"/>
<text text-anchor="middle" x="779.5" y="-117" font-family="Helvetica,sans-Serif" font-size="10.00">Registry.hpp</text>
</a>
</g>
</g>
<!-- Node2&#45;&gt;Node12 -->
<g id="edge11_Node000002_Node000012" class="edge">
<title>Node2&#45;&gt;Node12</title>
<g id="a_edge11_Node000002_Node000012"><a xlink:title=" ">
<path fill="none" stroke="#63b8ff" d="M779.5,-164.75C779.5,-157.8 779.5,-147.85 779.5,-139.13"/>
<polygon fill="#63b8ff" stroke="#63b8ff" points="783,-139.09 779.5,-129.09 776,-139.09 783,-139.09"/>
</a>
</g>
</g>
<!-- Node4 -->
<g id="Node000004" class="node">
<title>Node4</title>
<g id="a_Node000004"><a xlink:title=" ">
<polygon fill="#e0e0e0" stroke="#999999" points="357.5,-74 307.5,-74 307.5,-55 357.5,-55 357.5,-74"/>
<text text-anchor="middle" x="332.5" y="-62" font-family="Helvetica,sans-Serif" font-size="10.00">chrono</text>
</a>
</g>
</g>
<!-- Node3&#45;&gt;Node4 -->
<g id="edge3_Node000003_Node000004" class="edge">
<title>Node3&#45;&gt;Node4</title>
<g id="a_edge3_Node000003_Node000004"><a xlink:title=" ">
<path fill="none" stroke="#63b8ff" d="M332.5,-109.75C332.5,-102.8 332.5,-92.85 332.5,-84.13"/>
<polygon fill="#63b8ff" stroke="#63b8ff" points="336,-84.09 332.5,-74.09 329,-84.09 336,-84.09"/>
</a>
</g>
</g>
<!-- Node5 -->
<g id="Node000005" class="node">
<title>Node5</title>
<g id="a_Node000005"><a xlink:title=" ">
<polygon fill="#e0e0e0" stroke="#999999" points="71,-74 0,-74 0,-55 71,-55 71,-74"/>
<text text-anchor="middle" x="35.5" y="-62" font-family="Helvetica,sans-Serif" font-size="10.00">fmt/printf.h</text>
</a>
</g>
</g>
<!-- Node3&#45;&gt;Node5 -->
<g id="edge4_Node000003_Node000005" class="edge">
<title>Node3&#45;&gt;Node5</title>
<g id="a_edge4_Node000003_Node000005"><a xlink:title=" ">
<path fill="none" stroke="#63b8ff" d="M297.42,-112.44C250.56,-104.32 164.71,-89.33 81.25,-74.12"/>
<polygon fill="#63b8ff" stroke="#63b8ff" points="81.82,-70.67 71.35,-72.31 80.56,-77.55 81.82,-70.67"/>
</a>
</g>
</g>
<!-- Node6 -->
<g id="Node000006" class="node">
<title>Node6</title>
<g id="a_Node000006"><a xlink:title=" ">
<polygon fill="#e0e0e0" stroke="#999999" points="289,-74 234,-74 234,-55 289,-55 289,-74"/>
<text text-anchor="middle" x="261.5" y="-62" font-family="Helvetica,sans-Serif" font-size="10.00">fstream</text>
</a>
</g>
</g>
<!-- Node3&#45;&gt;Node6 -->
<g id="edge5_Node000003_Node000006" class="edge">
<title>Node3&#45;&gt;Node6</title>
<g id="a_edge5_Node000003_Node000006"><a xlink:title=" ">
<path fill="none" stroke="#63b8ff" d="M321.09,-109.98C310.39,-102 294.16,-89.88 281.34,-80.31"/>
<polygon fill="#63b8ff" stroke="#63b8ff" points="283.22,-77.35 273.11,-74.17 279.03,-82.96 283.22,-77.35"/>
</a>
</g>
</g>
<!-- Node7 -->
<g id="Node000007" class="node">
<title>Node7</title>
<g id="a_Node000007"><a xlink:title=" ">
<polygon fill="#e0e0e0" stroke="#999999" points="507.5,-74 451.5,-74 451.5,-55 507.5,-55 507.5,-74"/>
<text text-anchor="middle" x="479.5" y="-62" font-family="Helvetica,sans-Serif" font-size="10.00">iomanip</text>
</a>
</g>
</g>
<!-- Node3&#45;&gt;Node7 -->
<g id="edge6_Node000003_Node000007" class="edge">
<title>Node3&#45;&gt;Node7</title>
<g id="a_edge6_Node000003_Node000007"><a xlink:title=" ">
<path fill="none" stroke="#63b8ff" d="M356.12,-109.98C380.4,-101.23 418.45,-87.51 445.87,-77.62"/>
<polygon fill="#63b8ff" stroke="#63b8ff" points="447.23,-80.85 455.45,-74.17 444.86,-74.27 447.23,-80.85"/>
</a>
</g>
</g>
<!-- Node8 -->
<g id="Node000008" class="node">
<title>Node8</title>
<g id="a_Node000008"><a xlink:title=" ">
<polygon fill="#e0e0e0" stroke="#999999" points="149.5,-74 89.5,-74 89.5,-55 149.5,-55 149.5,-74"/>
<text text-anchor="middle" x="119.5" y="-62" font-family="Helvetica,sans-Serif" font-size="10.00">iostream</text>
</a>
</g>
</g>
<!-- Node3&#45;&gt;Node8 -->
<g id="edge7_Node000003_Node000008" class="edge">
<title>Node3&#45;&gt;Node8</title>
<g id="a_edge7_Node000003_Node000008"><a xlink:title=" ">
<path fill="none" stroke="#63b8ff" d="M298.28,-109.98C260.41,-100.56 199.47,-85.4 159.45,-75.44"/>
<polygon fill="#63b8ff" stroke="#63b8ff" points="160.06,-71.98 149.51,-72.97 158.37,-78.78 160.06,-71.98"/>
</a>
</g>
</g>
<!-- Node9 -->
<g id="Node000009" class="node">
<title>Node9</title>
<g id="a_Node000009"><a xlink:title=" ">
<polygon fill="#e0e0e0" stroke="#999999" points="215.5,-74 167.5,-74 167.5,-55 215.5,-55 215.5,-74"/>
<text text-anchor="middle" x="191.5" y="-62" font-family="Helvetica,sans-Serif" font-size="10.00">mutex</text>
</a>
</g>
</g>
<!-- Node3&#45;&gt;Node9 -->
<g id="edge8_Node000003_Node000009" class="edge">
<title>Node3&#45;&gt;Node9</title>
<g id="a_edge8_Node000003_Node000009"><a xlink:title=" ">
<path fill="none" stroke="#63b8ff" d="M309.85,-109.98C286.65,-101.27 250.38,-87.63 224.1,-77.75"/>
<polygon fill="#63b8ff" stroke="#63b8ff" points="225.16,-74.41 214.57,-74.17 222.7,-80.97 225.16,-74.41"/>
</a>
</g>
</g>
<!-- Node10 -->
<g id="Node000010" class="node">
<title>Node10</title>
<g id="a_Node000010"><a xlink:title=" ">
<polygon fill="#e0e0e0" stroke="#999999" points="978.5,-19 922.5,-19 922.5,0 978.5,0 978.5,-19"/>
<text text-anchor="middle" x="950.5" y="-7" font-family="Helvetica,sans-Serif" font-size="10.00">sstream</text>
</a>
</g>
</g>
<!-- Node3&#45;&gt;Node10 -->
<g id="edge9_Node000003_Node000010" class="edge">
<title>Node3&#45;&gt;Node10</title>
<g id="a_edge9_Node000003_Node000010"><a xlink:title=" ">
<path fill="none" stroke="#63b8ff" d="M339.93,-109.57C352.52,-95.15 379.64,-67.13 409.5,-55 500.86,-17.89 804.4,-11.71 912.15,-10.7"/>
<polygon fill="#63b8ff" stroke="#63b8ff" points="912.28,-14.2 922.25,-10.61 912.22,-7.2 912.28,-14.2"/>
</a>
</g>
</g>
<!-- Node11 -->
<g id="Node000011" class="node">
<title>Node11</title>
<g id="a_Node000011"><a xlink:title=" ">
<polygon fill="#e0e0e0" stroke="#999999" points="1141.5,-19 1097.5,-19 1097.5,0 1141.5,0 1141.5,-19"/>
<text text-anchor="middle" x="1119.5" y="-7" font-family="Helvetica,sans-Serif" font-size="10.00">string</text>
</a>
</g>
</g>
<!-- Node3&#45;&gt;Node11 -->
<g id="edge10_Node000003_Node000011" class="edge">
<title>Node3&#45;&gt;Node11</title>
<g id="a_edge10_Node000003_Node000011"><a xlink:title=" ">
<path fill="none" stroke="#63b8ff" d="M347.37,-109.8C376.81,-92.58 439.91,-55.77 442.5,-55 717.22,26.89 803.22,-62.96 1086.5,-19 1086.72,-18.97 1086.94,-18.93 1087.16,-18.9"/>
<polygon fill="#63b8ff" stroke="#63b8ff" points="1088.15,-22.27 1097.26,-16.86 1086.76,-15.41 1088.15,-22.27"/>
</a>
</g>
</g>
<!-- Node13 -->
<g id="Node000013" class="node">
<title>Node13</title>
<g id="a_Node000013"><a xlink:title=" ">
<polygon fill="#e0e0e0" stroke="#999999" points="860.5,-74 796.5,-74 796.5,-55 860.5,-55 860.5,-74"/>
<text text-anchor="middle" x="828.5" y="-62" font-family="Helvetica,sans-Serif" font-size="10.00">algorithm</text>
</a>
</g>
</g>
<!-- Node12&#45;&gt;Node13 -->
<g id="edge12_Node000012_Node000013" class="edge">
<title>Node12&#45;&gt;Node13</title>
<g id="a_edge12_Node000012_Node000013"><a xlink:title=" ">
<path fill="none" stroke="#63b8ff" d="M787.59,-109.75C794.66,-102.11 805.09,-90.82 813.65,-81.56"/>
<polygon fill="#63b8ff" stroke="#63b8ff" points="816.34,-83.81 820.56,-74.09 811.2,-79.06 816.34,-83.81"/>
</a>
</g>
</g>
<!-- Node14 -->
<g id="Node000014" class="node">
<title>Node14</title>
<g id="a_Node000014"><a xlink:title=" ">
<polygon fill="#e0e0e0" stroke="#999999" points="922.5,-74 878.5,-74 878.5,-55 922.5,-55 922.5,-74"/>
<text text-anchor="middle" x="900.5" y="-62" font-family="Helvetica,sans-Serif" font-size="10.00">bitset</text>
</a>
</g>
</g>
<!-- Node12&#45;&gt;Node14 -->
<g id="edge13_Node000012_Node000014" class="edge">
<title>Node12&#45;&gt;Node14</title>
<g id="a_edge13_Node000012_Node000014"><a xlink:title=" ">
<path fill="none" stroke="#63b8ff" d="M798.94,-109.98C818.49,-101.42 848.88,-88.11 871.32,-78.28"/>
<polygon fill="#63b8ff" stroke="#63b8ff" points="872.95,-81.39 880.71,-74.17 870.14,-74.98 872.95,-81.39"/>
</a>
</g>
</g>
<!-- Node15 -->
<g id="Node000015" class="node">
<title>Node15</title>
<g id="a_Node000015"><a xlink:title=" ">
<polygon fill="#e0e0e0" stroke="#999999" points="583.5,-74 525.5,-74 525.5,-55 583.5,-55 583.5,-74"/>
<text text-anchor="middle" x="554.5" y="-62" font-family="Helvetica,sans-Serif" font-size="10.00">memory</text>
</a>
</g>
</g>
<!-- Node12&#45;&gt;Node15 -->
<g id="edge14_Node000012_Node000015" class="edge">
<title>Node12&#45;&gt;Node15</title>
<g id="a_edge14_Node000012_Node000015"><a xlink:title=" ">
<path fill="none" stroke="#63b8ff" d="M743.35,-109.98C702.38,-100.33 635.83,-84.66 593.66,-74.72"/>
<polygon fill="#63b8ff" stroke="#63b8ff" points="594.29,-71.28 583.75,-72.39 592.68,-78.09 594.29,-71.28"/>
</a>
</g>
</g>
<!-- Node16 -->
<g id="Node000016" class="node">
<title>Node16</title>
<g id="a_Node000016"><a xlink:title=" ">
<polygon fill="#e0e0e0" stroke="#999999" points="667,-74 602,-74 602,-55 667,-55 667,-74"/>
<text text-anchor="middle" x="634.5" y="-62" font-family="Helvetica,sans-Serif" font-size="10.00">stdexcept</text>
</a>
</g>
</g>
<!-- Node12&#45;&gt;Node16 -->
<g id="edge15_Node000012_Node000016" class="edge">
<title>Node12&#45;&gt;Node16</title>
<g id="a_edge15_Node000012_Node000016"><a xlink:title=" ">
<path fill="none" stroke="#63b8ff" d="M756.2,-109.98C732.25,-101.23 694.72,-87.51 667.67,-77.62"/>
<polygon fill="#63b8ff" stroke="#63b8ff" points="668.81,-74.32 658.22,-74.17 666.41,-80.89 668.81,-74.32"/>
</a>
</g>
</g>
<!-- Node17 -->
<g id="Node000017" class="node">
<title>Node17</title>
<g id="a_Node000017"><a xlink:title=" ">
<polygon fill="#e0e0e0" stroke="#999999" points="778,-74 685,-74 685,-55 778,-55 778,-74"/>
<text text-anchor="middle" x="731.5" y="-62" font-family="Helvetica,sans-Serif" font-size="10.00">unordered_map</text>
</a>
</g>
</g>
<!-- Node12&#45;&gt;Node17 -->
<g id="edge16_Node000012_Node000017" class="edge">
<title>Node12&#45;&gt;Node17</title>
<g id="a_edge16_Node000012_Node000017"><a xlink:title=" ">
<path fill="none" stroke="#63b8ff" d="M771.57,-109.75C764.65,-102.11 754.43,-90.82 746.05,-81.56"/>
<polygon fill="#63b8ff" stroke="#63b8ff" points="748.59,-79.15 739.28,-74.09 743.4,-83.85 748.59,-79.15"/>
</a>
</g>
</g>
<!-- Node18 -->
<g id="Node000018" class="node">
<title>Node18</title>
<g id="a_Node000018"><a xlink:title=" ">
<polygon fill="#e0e0e0" stroke="#999999" points="1026,-74 979,-74 979,-55 1026,-55 1026,-74"/>
<text text-anchor="middle" x="1002.5" y="-62" font-family="Helvetica,sans-Serif" font-size="10.00">vector</text>
</a>
</g>
</g>
<!-- Node12&#45;&gt;Node18 -->
<g id="edge17_Node000012_Node000018" class="edge">
<title>Node12&#45;&gt;Node18</title>
<g id="a_edge17_Node000012_Node000018"><a xlink:title=" ">
<path fill="none" stroke="#63b8ff" d="M815.33,-109.98C857.66,-99.92 927.56,-83.31 968.9,-73.49"/>
<polygon fill="#63b8ff" stroke="#63b8ff" points="969.84,-76.86 978.76,-71.14 968.22,-70.05 969.84,-76.86"/>
</a>
</g>
</g>
<!-- Node20 -->
<g id="Node000020" class="node">
<title>Node20</title>
<g id="a_Node000020"><a xlink:href="Matrix4_8hpp.html" target="_top" xlink:title="Defines the Matrix4 class for 3D transformation operations.">
<polygon fill="white" stroke="#666666" points="1020.5,-184 916.5,-184 916.5,-165 1020.5,-165 1020.5,-184"/>
<text text-anchor="middle" x="968.5" y="-172" font-family="Helvetica,sans-Serif" font-size="10.00">math/Matrix4.hpp</text>
</a>
</g>
</g>
<!-- Node19&#45;&gt;Node20 -->
<g id="edge19_Node000019_Node000020" class="edge">
<title>Node19&#45;&gt;Node20</title>
<g id="a_edge19_Node000019_Node000020"><a xlink:title=" ">
<path fill="none" stroke="#63b8ff" d="M1035.65,-219.98C1023.36,-211.84 1004.59,-199.41 990.02,-189.76"/>
<polygon fill="#63b8ff" stroke="#63b8ff" points="991.86,-186.78 981.59,-184.17 987.99,-192.61 991.86,-186.78"/>
</a>
</g>
</g>
<!-- Node21 -->
<g id="Node000021" class="node">
<title>Node21</title>
<g id="a_Node000021"><a xlink:href="Quaternion_8hpp.html" target="_top" xlink:title="Defines the Quaternion class for representing 3D rotations.">
<polygon fill="white" stroke="#666666" points="1070.5,-129 978.5,-129 978.5,-110 1070.5,-110 1070.5,-129"/>
<text text-anchor="middle" x="1024.5" y="-117" font-family="Helvetica,sans-Serif" font-size="10.00">Quaternion.hpp</text>
</a>
</g>
</g>
<!-- Node19&#45;&gt;Node21 -->
<g id="edge29_Node000019_Node000021" class="edge">
<title>Node19&#45;&gt;Node21</title>
<g id="a_edge29_Node000019_Node000021"><a xlink:title=" ">
<path fill="none" stroke="#63b8ff" d="M1046.54,-219.66C1042.63,-202.09 1033.82,-162.45 1028.6,-138.95"/>
<polygon fill="#63b8ff" stroke="#63b8ff" points="1032.01,-138.16 1026.42,-129.16 1025.18,-139.68 1032.01,-138.16"/>
</a>
</g>
</g>
<!-- Node22 -->
<g id="Node000022" class="node">
<title>Node22</title>
<g id="a_Node000022"><a xlink:href="Vector3_8hpp.html" target="_top" xlink:title="Defines the Vector3 class.">
<polygon fill="white" stroke="#666666" points="1156.5,-74 1082.5,-74 1082.5,-55 1156.5,-55 1156.5,-74"/>
<text text-anchor="middle" x="1119.5" y="-62" font-family="Helvetica,sans-Serif" font-size="10.00">Vector3.hpp</text>
</a>
</g>
</g>
<!-- Node19&#45;&gt;Node22 -->
<g id="edge30_Node000019_Node000022" class="edge">
<title>Node19&#45;&gt;Node22</title>
<g id="a_edge30_Node000019_Node000022"><a xlink:title=" ">
<path fill="none" stroke="#63b8ff" d="M1054.15,-219.79C1064.89,-202.9 1088.45,-164.24 1102.5,-129 1108.32,-114.41 1112.8,-97.14 1115.69,-84.3"/>
<polygon fill="#63b8ff" stroke="#63b8ff" points="1119.15,-84.85 1117.82,-74.34 1112.31,-83.38 1119.15,-84.85"/>
</a>
</g>
</g>
<!-- Node20&#45;&gt;Node7 -->
<g id="edge27_Node000020_Node000007" class="edge">
<title>Node20&#45;&gt;Node7</title>
<g id="a_edge27_Node000020_Node000007"><a xlink:title=" ">
<path fill="none" stroke="#63b8ff" d="M917.92,-164.93C869.82,-156.56 795.49,-143.06 731.5,-129 655.18,-112.24 566.8,-89.09 517.6,-75.87"/>
<polygon fill="#63b8ff" stroke="#63b8ff" points="518.28,-72.43 507.71,-73.21 516.45,-79.19 518.28,-72.43"/>
</a>
</g>
</g>
<!-- Node20&#45;&gt;Node10 -->
<g id="edge28_Node000020_Node000010" class="edge">
<title>Node20&#45;&gt;Node10</title>
<g id="a_edge28_Node000020_Node000010"><a xlink:title=" ">
<path fill="none" stroke="#63b8ff" d="M967.53,-164.74C964.72,-139.31 956.53,-65.08 952.62,-29.69"/>
<polygon fill="#63b8ff" stroke="#63b8ff" points="956.05,-28.86 951.47,-19.31 949.09,-29.63 956.05,-28.86"/>
</a>
</g>
</g>
<!-- Node20&#45;&gt;Node21 -->
<g id="edge20_Node000020_Node000021" class="edge">
<title>Node20&#45;&gt;Node21</title>
<g id="a_edge20_Node000020_Node000021"><a xlink:title=" ">
<path fill="none" stroke="#63b8ff" d="M977.5,-164.98C985.69,-157.23 998.01,-145.58 1007.97,-136.14"/>
<polygon fill="#63b8ff" stroke="#63b8ff" points="1010.48,-138.59 1015.34,-129.17 1005.67,-133.5 1010.48,-138.59"/>
</a>
</g>
</g>
<!-- Node20&#45;&gt;Node22 -->
<g id="edge26_Node000020_Node000022" class="edge">
<title>Node20&#45;&gt;Node22</title>
<g id="a_edge26_Node000020_Node000022"><a xlink:title=" ">
<path fill="none" stroke="#63b8ff" d="M1005.54,-164.95C1028.72,-158.17 1058.13,-146.82 1079.5,-129 1094.32,-116.65 1105.38,-97.34 1112.07,-83.26"/>
<polygon fill="#63b8ff" stroke="#63b8ff" points="1115.27,-84.66 1116.16,-74.1 1108.88,-81.8 1115.27,-84.66"/>
</a>
</g>
</g>
<!-- Node21&#45;&gt;Node22 -->
<g id="edge21_Node000021_Node000022" class="edge">
<title>Node21&#45;&gt;Node22</title>
<g id="a_edge21_Node000021_Node000022"><a xlink:title=" ">
<path fill="none" stroke="#63b8ff" d="M1039.76,-109.98C1054.63,-101.69 1077.48,-88.94 1094.92,-79.22"/>
<polygon fill="#63b8ff" stroke="#63b8ff" points="1096.93,-82.1 1103.96,-74.17 1093.52,-75.99 1096.93,-82.1"/>
</a>
</g>
</g>
<!-- Node23 -->
<g id="Node000023" class="node">
<title>Node23</title>
<g id="a_Node000023"><a xlink:title=" ">
<polygon fill="#e0e0e0" stroke="#999999" points="1078,-19 1031,-19 1031,0 1078,0 1078,-19"/>
<text text-anchor="middle" x="1054.5" y="-7" font-family="Helvetica,sans-Serif" font-size="10.00">cmath</text>
</a>
</g>
</g>
<!-- Node21&#45;&gt;Node23 -->
<g id="edge25_Node000021_Node000023" class="edge">
<title>Node21&#45;&gt;Node23</title>
<g id="a_edge25_Node000021_Node000023"><a xlink:title=" ">
<path fill="none" stroke="#63b8ff" d="M1026.96,-109.66C1031.84,-92.09 1042.85,-52.45 1049.37,-28.95"/>
<polygon fill="#63b8ff" stroke="#63b8ff" points="1052.79,-29.73 1052.09,-19.16 1046.05,-27.86 1052.79,-29.73"/>
</a>
</g>
</g>
<!-- Node22&#45;&gt;Node10 -->
<g id="edge23_Node000022_Node000010" class="edge">
<title>Node22&#45;&gt;Node10</title>
<g id="a_edge23_Node000022_Node000010"><a xlink:title=" ">
<path fill="none" stroke="#63b8ff" d="M1092.35,-54.98C1063.97,-46.09 1019.27,-32.07 987.64,-22.15"/>
<polygon fill="#63b8ff" stroke="#63b8ff" points="988.45,-18.73 977.87,-19.08 986.36,-25.41 988.45,-18.73"/>
</a>
</g>
</g>
<!-- Node22&#45;&gt;Node11 -->
<g id="edge24_Node000022_Node000011" class="edge">
<title>Node22&#45;&gt;Node11</title>
<g id="a_edge24_Node000022_Node000011"><a xlink:title=" ">
<path fill="none" stroke="#63b8ff" d="M1119.5,-54.75C1119.5,-47.8 1119.5,-37.85 1119.5,-29.13"/>
<polygon fill="#63b8ff" stroke="#63b8ff" points="1123,-29.09 1119.5,-19.09 1116,-29.09 1123,-29.09"/>
</a>
</g>
</g>
<!-- Node22&#45;&gt;Node23 -->
<g id="edge22_Node000022_Node000023" class="edge">
<title>Node22&#45;&gt;Node23</title>
<g id="a_edge22_Node000022_Node000023"><a xlink:title=" ">
<path fill="none" stroke="#63b8ff" d="M1109.06,-54.98C1099.35,-47.07 1084.68,-35.11 1073,-25.58"/>
<polygon fill="#63b8ff" stroke="#63b8ff" points="1075.1,-22.78 1065.13,-19.17 1070.67,-28.2 1075.1,-22.78"/>
</a>
</g>
</g>
<!-- Node24&#45;&gt;Node11 -->
<g id="edge34_Node000024_Node000011" class="edge">
<title>Node24&#45;&gt;Node11</title>
<g id="a_edge34_Node000024_Node000011"><a xlink:title=" ">
<path fill="none" stroke="#63b8ff" d="M1214.1,-109.68C1203.58,-97.23 1183.57,-73.92 1165.5,-55 1156.1,-45.16 1145.16,-34.54 1136.31,-26.15"/>
<polygon fill="#63b8ff" stroke="#63b8ff" points="1138.56,-23.46 1128.87,-19.16 1133.76,-28.56 1138.56,-23.46"/>
</a>
</g>
</g>
<!-- Node24&#45;&gt;Node18 -->
<g id="edge35_Node000024_Node000018" class="edge">
<title>Node24&#45;&gt;Node18</title>
<g id="a_edge35_Node000024_Node000018"><a xlink:title=" ">
<path fill="none" stroke="#63b8ff" d="M1186.31,-109.98C1144.94,-99.97 1076.76,-83.47 1036.09,-73.63"/>
<polygon fill="#63b8ff" stroke="#63b8ff" points="1036.67,-70.17 1026.13,-71.22 1035.02,-76.97 1036.67,-70.17"/>
</a>
</g>
</g>
<!-- Node24&#45;&gt;Node22 -->
<g id="edge32_Node000024_Node000022" class="edge">
<title>Node24&#45;&gt;Node22</title>
<g id="a_edge32_Node000024_Node000022"><a xlink:title=" ">
<path fill="none" stroke="#63b8ff" d="M1205.11,-109.98C1188.93,-101.57 1163.93,-88.59 1145.12,-78.81"/>
<polygon fill="#63b8ff" stroke="#63b8ff" points="1146.67,-75.68 1136.19,-74.17 1143.45,-81.89 1146.67,-75.68"/>
</a>
</g>
</g>
<!-- Node25 -->
<g id="Node000025" class="node">
<title>Node25</title>
<g id="a_Node000025"><a xlink:title=" ">
<polygon fill="#e0e0e0" stroke="#999999" points="1284,-74 1213,-74 1213,-55 1284,-55 1284,-74"/>
<text text-anchor="middle" x="1248.5" y="-62" font-family="Helvetica,sans-Serif" font-size="10.00">glad/glad.h</text>
</a>
</g>
</g>
<!-- Node24&#45;&gt;Node25 -->
<g id="edge33_Node000024_Node000025" class="edge">
<title>Node24&#45;&gt;Node25</title>
<g id="a_edge33_Node000024_Node000025"><a xlink:title=" ">
<path fill="none" stroke="#63b8ff" d="M1225.96,-109.75C1229.62,-102.57 1234.91,-92.18 1239.45,-83.27"/>
<polygon fill="#63b8ff" stroke="#63b8ff" points="1242.7,-84.59 1244.12,-74.09 1236.47,-81.41 1242.7,-84.59"/>
</a>
</g>
</g>
</g>
</svg>
