<?xml version="1.0" encoding="UTF-8" standalone="no"?>
<!DOCTYPE svg PUBLIC "-//W3C//DTD SVG 1.1//EN"
 "http://www.w3.org/Graphics/SVG/1.1/DTD/svg11.dtd">
<!-- Generated by graphviz version 2.43.0 (0)
 -->
<!-- Title: include/objects/Object.hpp Pages: 1 -->
<svg width="1297pt" height="412pt"
 viewBox="0.00 0.00 1296.50 412.00" xmlns="http://www.w3.org/2000/svg" xmlns:xlink="http://www.w3.org/1999/xlink">
<g id="graph0" class="graph" transform="scale(1 1) rotate(0) translate(4 408)">
<title>include/objects/Object.hpp</title>
<!-- Node1 -->
<g id="Node000001" class="node">
<title>Node1</title>
<g id="a_Node000001"><a xlink:title="Defines the Object class, a special ECS entity wrapper.">
<polygon fill="#999999" stroke="#666666" points="817.5,-404 671.5,-404 671.5,-385 817.5,-385 817.5,-404"/>
<text text-anchor="middle" x="744.5" y="-392" font-family="Helvetica,sans-Serif" font-size="10.00">include/objects/Object.hpp</text>
</a>
</g>
</g>
<!-- Node2 -->
<g id="Node000002" class="node">
<title>Node2</title>
<g id="a_Node000002"><a xlink:href="Entity_8hpp.html" target="_top" xlink:title="Defines the Entity class, which serves as a wrapper for ECS entities.">
<polygon fill="white" stroke="#666666" points="483,-294 418,-294 418,-275 483,-275 483,-294"/>
<text text-anchor="middle" x="450.5" y="-282" font-family="Helvetica,sans-Serif" font-size="10.00">Entity.hpp</text>
</a>
</g>
</g>
<!-- Node1&#45;&gt;Node2 -->
<g id="edge1_Node000001_Node000002" class="edge">
<title>Node1&#45;&gt;Node2</title>
<g id="a_edge1_Node000001_Node000002"><a xlink:title=" ">
<path fill="none" stroke="#63b8ff" d="M671.37,-393.04C620.83,-389.75 553.73,-379.24 502.5,-349 483.78,-337.95 468.9,-317.51 459.94,-302.81"/>
<polygon fill="#63b8ff" stroke="#63b8ff" points="462.95,-301.03 454.92,-294.12 456.89,-304.53 462.95,-301.03"/>
</a>
</g>
</g>
<!-- Node19 -->
<g id="Node000019" class="node">
<title>Node19</title>
<g id="a_Node000019"><a xlink:href="MaterialComponent_8hpp_source.html" target="_top" xlink:title=" ">
<polygon fill="white" stroke="#666666" points="991,-349 794,-349 794,-330 991,-330 991,-349"/>
<text text-anchor="middle" x="892.5" y="-337" font-family="Helvetica,sans-Serif" font-size="10.00">components/MaterialComponent.hpp</text>
</a>
</g>
</g>
<!-- Node1&#45;&gt;Node19 -->
<g id="edge18_Node000001_Node000019" class="edge">
<title>Node1&#45;&gt;Node19</title>
<g id="a_edge18_Node000001_Node000019"><a xlink:title=" ">
<path fill="none" stroke="#63b8ff" d="M768.28,-384.98C792.73,-376.23 831.03,-362.51 858.65,-352.62"/>
<polygon fill="#63b8ff" stroke="#63b8ff" points="860.05,-355.84 868.29,-349.17 857.69,-349.25 860.05,-355.84"/>
</a>
</g>
</g>
<!-- Node22 -->
<g id="Node000022" class="node">
<title>Node22</title>
<g id="a_Node000022"><a xlink:href="Material_8hpp_source.html" target="_top" xlink:title=" ">
<polygon fill="white" stroke="#666666" points="956.5,-294 828.5,-294 828.5,-275 956.5,-275 956.5,-294"/>
<text text-anchor="middle" x="892.5" y="-282" font-family="Helvetica,sans-Serif" font-size="10.00">rendering/Material.hpp</text>
</a>
</g>
</g>
<!-- Node1&#45;&gt;Node22 -->
<g id="edge49_Node000001_Node000022" class="edge">
<title>Node1&#45;&gt;Node22</title>
<g id="a_edge49_Node000001_Node000022"><a xlink:title=" ">
<path fill="none" stroke="#63b8ff" d="M747.86,-384.92C753.52,-371.49 766.16,-345.44 784.5,-330 802.65,-314.72 826.76,-304.12 847.6,-297.1"/>
<polygon fill="#63b8ff" stroke="#63b8ff" points="848.75,-300.41 857.21,-294.03 846.62,-293.74 848.75,-300.41"/>
</a>
</g>
</g>
<!-- Node28 -->
<g id="Node000028" class="node">
<title>Node28</title>
<g id="a_Node000028"><a xlink:href="MeshComponent_8hpp_source.html" target="_top" xlink:title=" ">
<polygon fill="white" stroke="#666666" points="695,-349 512,-349 512,-330 695,-330 695,-349"/>
<text text-anchor="middle" x="603.5" y="-337" font-family="Helvetica,sans-Serif" font-size="10.00">components/MeshComponent.hpp</text>
</a>
</g>
</g>
<!-- Node1&#45;&gt;Node28 -->
<g id="edge39_Node000001_Node000028" class="edge">
<title>Node1&#45;&gt;Node28</title>
<g id="a_edge39_Node000001_Node000028"><a xlink:title=" ">
<path fill="none" stroke="#63b8ff" d="M721.85,-384.98C698.65,-376.27 662.38,-362.63 636.1,-352.75"/>
<polygon fill="#63b8ff" stroke="#63b8ff" points="637.16,-349.41 626.57,-349.17 634.7,-355.97 637.16,-349.41"/>
</a>
</g>
</g>
<!-- Node29 -->
<g id="Node000029" class="node">
<title>Node29</title>
<g id="a_Node000029"><a xlink:href="Mesh_8hpp.html" target="_top" xlink:title="Defines the Mesh class for managing 3D geometry.">
<polygon fill="white" stroke="#666666" points="659,-239 546,-239 546,-220 659,-220 659,-239"/>
<text text-anchor="middle" x="602.5" y="-227" font-family="Helvetica,sans-Serif" font-size="10.00">rendering/Mesh.hpp</text>
</a>
</g>
</g>
<!-- Node1&#45;&gt;Node29 -->
<g id="edge50_Node000001_Node000029" class="edge">
<title>Node1&#45;&gt;Node29</title>
<g id="a_edge50_Node000001_Node000029"><a xlink:title=" ">
<path fill="none" stroke="#63b8ff" d="M739.75,-384.88C732.62,-372.27 718.41,-348.32 703.5,-330 677.17,-297.64 641.43,-264.51 620.28,-245.82"/>
<polygon fill="#63b8ff" stroke="#63b8ff" points="622.52,-243.13 612.69,-239.17 617.91,-248.39 622.52,-243.13"/>
</a>
</g>
</g>
<!-- Node30 -->
<g id="Node000030" class="node">
<title>Node30</title>
<g id="a_Node000030"><a xlink:href="TransformComponent_8hpp.html" target="_top" xlink:title="Defines the TransformComponent for ECS&#45;based spatial transformations.">
<polygon fill="white" stroke="#666666" points="1288.5,-239 1082.5,-239 1082.5,-220 1288.5,-220 1288.5,-239"/>
<text text-anchor="middle" x="1185.5" y="-227" font-family="Helvetica,sans-Serif" font-size="10.00">components/TransformComponent.hpp</text>
</a>
</g>
</g>
<!-- Node1&#45;&gt;Node30 -->
<g id="edge45_Node000001_Node000030" class="edge">
<title>Node1&#45;&gt;Node30</title>
<g id="a_edge45_Node000001_Node000030"><a xlink:title=" ">
<path fill="none" stroke="#63b8ff" d="M817.74,-388.53C870.09,-383.13 941.43,-371.97 1000.5,-349 1067.44,-322.97 1135.99,-271.12 1167.57,-245.52"/>
<polygon fill="#63b8ff" stroke="#63b8ff" points="1169.96,-248.09 1175.47,-239.04 1165.52,-242.68 1169.96,-248.09"/>
</a>
</g>
</g>
<!-- Node3 -->
<g id="Node000003" class="node">
<title>Node3</title>
<g id="a_Node000003"><a xlink:href="Logger_8hpp.html" target="_top" xlink:title="Provides logging functionality.">
<polygon fill="white" stroke="#666666" points="485.5,-184 415.5,-184 415.5,-165 485.5,-165 485.5,-184"/>
<text text-anchor="middle" x="450.5" y="-172" font-family="Helvetica,sans-Serif" font-size="10.00">Logger.hpp</text>
</a>
</g>
</g>
<!-- Node2&#45;&gt;Node3 -->
<g id="edge2_Node000002_Node000003" class="edge">
<title>Node2&#45;&gt;Node3</title>
<g id="a_edge2_Node000002_Node000003"><a xlink:title=" ">
<path fill="none" stroke="#63b8ff" d="M450.5,-274.66C450.5,-257.17 450.5,-217.8 450.5,-194.27"/>
<polygon fill="#63b8ff" stroke="#63b8ff" points="454,-194.16 450.5,-184.16 447,-194.16 454,-194.16"/>
</a>
</g>
</g>
<!-- Node12 -->
<g id="Node000012" class="node">
<title>Node12</title>
<g id="a_Node000012"><a xlink:href="Registry_8hpp.html" target="_top" xlink:title="Defines the Registry class for managing ECS entities and components.">
<polygon fill="white" stroke="#666666" points="323,-239 246,-239 246,-220 323,-220 323,-239"/>
<text text-anchor="middle" x="284.5" y="-227" font-family="Helvetica,sans-Serif" font-size="10.00">Registry.hpp</text>
</a>
</g>
</g>
<!-- Node2&#45;&gt;Node12 -->
<g id="edge11_Node000002_Node000012" class="edge">
<title>Node2&#45;&gt;Node12</title>
<g id="a_edge11_Node000002_Node000012"><a xlink:title=" ">
<path fill="none" stroke="#63b8ff" d="M423.83,-274.98C395.96,-266.09 352.05,-252.07 320.98,-242.15"/>
<polygon fill="#63b8ff" stroke="#63b8ff" points="321.97,-238.79 311.38,-239.08 319.84,-245.46 321.97,-238.79"/>
</a>
</g>
</g>
<!-- Node4 -->
<g id="Node000004" class="node">
<title>Node4</title>
<g id="a_Node000004"><a xlink:title=" ">
<polygon fill="#e0e0e0" stroke="#999999" points="394.5,-129 344.5,-129 344.5,-110 394.5,-110 394.5,-129"/>
<text text-anchor="middle" x="369.5" y="-117" font-family="Helvetica,sans-Serif" font-size="10.00">chrono</text>
</a>
</g>
</g>
<!-- Node3&#45;&gt;Node4 -->
<g id="edge3_Node000003_Node000004" class="edge">
<title>Node3&#45;&gt;Node4</title>
<g id="a_edge3_Node000003_Node000004"><a xlink:title=" ">
<path fill="none" stroke="#63b8ff" d="M437.49,-164.98C425.04,-156.84 406.04,-144.41 391.29,-134.76"/>
<polygon fill="#63b8ff" stroke="#63b8ff" points="393.04,-131.72 382.75,-129.17 389.2,-137.57 393.04,-131.72"/>
</a>
</g>
</g>
<!-- Node5 -->
<g id="Node000005" class="node">
<title>Node5</title>
<g id="a_Node000005"><a xlink:title=" ">
<polygon fill="#e0e0e0" stroke="#999999" points="484,-129 413,-129 413,-110 484,-110 484,-129"/>
<text text-anchor="middle" x="448.5" y="-117" font-family="Helvetica,sans-Serif" font-size="10.00">fmt/printf.h</text>
</a>
</g>
</g>
<!-- Node3&#45;&gt;Node5 -->
<g id="edge4_Node000003_Node000005" class="edge">
<title>Node3&#45;&gt;Node5</title>
<g id="a_edge4_Node000003_Node000005"><a xlink:title=" ">
<path fill="none" stroke="#63b8ff" d="M450.17,-164.75C449.91,-157.8 449.53,-147.85 449.2,-139.13"/>
<polygon fill="#63b8ff" stroke="#63b8ff" points="452.7,-138.95 448.82,-129.09 445.7,-139.21 452.7,-138.95"/>
</a>
</g>
</g>
<!-- Node6 -->
<g id="Node000006" class="node">
<title>Node6</title>
<g id="a_Node000006"><a xlink:title=" ">
<polygon fill="#e0e0e0" stroke="#999999" points="557,-129 502,-129 502,-110 557,-110 557,-129"/>
<text text-anchor="middle" x="529.5" y="-117" font-family="Helvetica,sans-Serif" font-size="10.00">fstream</text>
</a>
</g>
</g>
<!-- Node3&#45;&gt;Node6 -->
<g id="edge5_Node000003_Node000006" class="edge">
<title>Node3&#45;&gt;Node6</title>
<g id="a_edge5_Node000003_Node000006"><a xlink:title=" ">
<path fill="none" stroke="#63b8ff" d="M463.19,-164.98C475.33,-156.84 493.86,-144.41 508.25,-134.76"/>
<polygon fill="#63b8ff" stroke="#63b8ff" points="510.22,-137.65 516.58,-129.17 506.32,-131.84 510.22,-137.65"/>
</a>
</g>
</g>
<!-- Node7 -->
<g id="Node000007" class="node">
<title>Node7</title>
<g id="a_Node000007"><a xlink:title=" ">
<polygon fill="#e0e0e0" stroke="#999999" points="874.5,-129 818.5,-129 818.5,-110 874.5,-110 874.5,-129"/>
<text text-anchor="middle" x="846.5" y="-117" font-family="Helvetica,sans-Serif" font-size="10.00">iomanip</text>
</a>
</g>
</g>
<!-- Node3&#45;&gt;Node7 -->
<g id="edge6_Node000003_Node000007" class="edge">
<title>Node3&#45;&gt;Node7</title>
<g id="a_edge6_Node000003_Node000007"><a xlink:title=" ">
<path fill="none" stroke="#63b8ff" d="M485.6,-167.08C489.94,-166.35 494.32,-165.64 498.5,-165 610.87,-147.88 744.33,-132.07 808.43,-124.76"/>
<polygon fill="#63b8ff" stroke="#63b8ff" points="808.93,-128.23 818.47,-123.62 808.14,-121.27 808.93,-128.23"/>
</a>
</g>
</g>
<!-- Node8 -->
<g id="Node000008" class="node">
<title>Node8</title>
<g id="a_Node000008"><a xlink:title=" ">
<polygon fill="#e0e0e0" stroke="#999999" points="222.5,-129 162.5,-129 162.5,-110 222.5,-110 222.5,-129"/>
<text text-anchor="middle" x="192.5" y="-117" font-family="Helvetica,sans-Serif" font-size="10.00">iostream</text>
</a>
</g>
</g>
<!-- Node3&#45;&gt;Node8 -->
<g id="edge7_Node000003_Node000008" class="edge">
<title>Node3&#45;&gt;Node8</title>
<g id="a_edge7_Node000003_Node000008"><a xlink:title=" ">
<path fill="none" stroke="#63b8ff" d="M415.19,-166.49C373.83,-158.23 302.96,-143.98 232.64,-129.22"/>
<polygon fill="#63b8ff" stroke="#63b8ff" points="233.23,-125.77 222.72,-127.13 231.79,-132.62 233.23,-125.77"/>
</a>
</g>
</g>
<!-- Node9 -->
<g id="Node000009" class="node">
<title>Node9</title>
<g id="a_Node000009"><a xlink:title=" ">
<polygon fill="#e0e0e0" stroke="#999999" points="288.5,-129 240.5,-129 240.5,-110 288.5,-110 288.5,-129"/>
<text text-anchor="middle" x="264.5" y="-117" font-family="Helvetica,sans-Serif" font-size="10.00">mutex</text>
</a>
</g>
</g>
<!-- Node3&#45;&gt;Node9 -->
<g id="edge8_Node000003_Node000009" class="edge">
<title>Node3&#45;&gt;Node9</title>
<g id="a_edge8_Node000003_Node000009"><a xlink:title=" ">
<path fill="none" stroke="#63b8ff" d="M420.62,-164.98C387.25,-155.48 333.36,-140.12 298.43,-130.17"/>
<polygon fill="#63b8ff" stroke="#63b8ff" points="299.26,-126.76 288.68,-127.39 297.34,-133.5 299.26,-126.76"/>
</a>
</g>
</g>
<!-- Node10 -->
<g id="Node000010" class="node">
<title>Node10</title>
<g id="a_Node000010"><a xlink:title=" ">
<polygon fill="#e0e0e0" stroke="#999999" points="930.5,-19 874.5,-19 874.5,0 930.5,0 930.5,-19"/>
<text text-anchor="middle" x="902.5" y="-7" font-family="Helvetica,sans-Serif" font-size="10.00">sstream</text>
</a>
</g>
</g>
<!-- Node3&#45;&gt;Node10 -->
<g id="edge9_Node000003_Node000010" class="edge">
<title>Node3&#45;&gt;Node10</title>
<g id="a_edge9_Node000003_Node000010"><a xlink:title=" ">
<path fill="none" stroke="#63b8ff" d="M474.17,-164.97C549.21,-137.9 782.04,-53.94 869.15,-22.53"/>
<polygon fill="#63b8ff" stroke="#63b8ff" points="870.58,-25.73 878.8,-19.05 868.2,-19.15 870.58,-25.73"/>
</a>
</g>
</g>
<!-- Node11 -->
<g id="Node000011" class="node">
<title>Node11</title>
<g id="a_Node000011"><a xlink:title=" ">
<polygon fill="#e0e0e0" stroke="#999999" points="683.5,-19 639.5,-19 639.5,0 683.5,0 683.5,-19"/>
<text text-anchor="middle" x="661.5" y="-7" font-family="Helvetica,sans-Serif" font-size="10.00">string</text>
</a>
</g>
</g>
<!-- Node3&#45;&gt;Node11 -->
<g id="edge10_Node000003_Node000011" class="edge">
<title>Node3&#45;&gt;Node11</title>
<g id="a_edge10_Node000003_Node000011"><a xlink:title=" ">
<path fill="none" stroke="#63b8ff" d="M416.76,-164.98C386.36,-156.55 345.03,-142.91 335.5,-129 330.73,-122.03 330.48,-116.79 335.5,-110 371.07,-61.95 553.59,-27.76 628.92,-15.49"/>
<polygon fill="#63b8ff" stroke="#63b8ff" points="629.91,-18.88 639.23,-13.84 628.8,-11.97 629.91,-18.88"/>
</a>
</g>
</g>
<!-- Node13 -->
<g id="Node000013" class="node">
<title>Node13</title>
<g id="a_Node000013"><a xlink:title=" ">
<polygon fill="#e0e0e0" stroke="#999999" points="175.5,-184 111.5,-184 111.5,-165 175.5,-165 175.5,-184"/>
<text text-anchor="middle" x="143.5" y="-172" font-family="Helvetica,sans-Serif" font-size="10.00">algorithm</text>
</a>
</g>
</g>
<!-- Node12&#45;&gt;Node13 -->
<g id="edge12_Node000012_Node000013" class="edge">
<title>Node12&#45;&gt;Node13</title>
<g id="a_edge12_Node000012_Node000013"><a xlink:title=" ">
<path fill="none" stroke="#63b8ff" d="M261.85,-219.98C238.65,-211.27 202.38,-197.63 176.1,-187.75"/>
<polygon fill="#63b8ff" stroke="#63b8ff" points="177.16,-184.41 166.57,-184.17 174.7,-190.97 177.16,-184.41"/>
</a>
</g>
</g>
<!-- Node14 -->
<g id="Node000014" class="node">
<title>Node14</title>
<g id="a_Node000014"><a xlink:title=" ">
<polygon fill="#e0e0e0" stroke="#999999" points="237.5,-184 193.5,-184 193.5,-165 237.5,-165 237.5,-184"/>
<text text-anchor="middle" x="215.5" y="-172" font-family="Helvetica,sans-Serif" font-size="10.00">bitset</text>
</a>
</g>
</g>
<!-- Node12&#45;&gt;Node14 -->
<g id="edge13_Node000012_Node000014" class="edge">
<title>Node12&#45;&gt;Node14</title>
<g id="a_edge13_Node000012_Node000014"><a xlink:title=" ">
<path fill="none" stroke="#63b8ff" d="M273.41,-219.98C263.01,-212 247.24,-199.88 234.78,-190.31"/>
<polygon fill="#63b8ff" stroke="#63b8ff" points="236.85,-187.49 226.79,-184.17 232.59,-193.04 236.85,-187.49"/>
</a>
</g>
</g>
<!-- Node15 -->
<g id="Node000015" class="node">
<title>Node15</title>
<g id="a_Node000015"><a xlink:title=" ">
<polygon fill="#e0e0e0" stroke="#999999" points="313.5,-184 255.5,-184 255.5,-165 313.5,-165 313.5,-184"/>
<text text-anchor="middle" x="284.5" y="-172" font-family="Helvetica,sans-Serif" font-size="10.00">memory</text>
</a>
</g>
</g>
<!-- Node12&#45;&gt;Node15 -->
<g id="edge14_Node000012_Node000015" class="edge">
<title>Node12&#45;&gt;Node15</title>
<g id="a_edge14_Node000012_Node000015"><a xlink:title=" ">
<path fill="none" stroke="#63b8ff" d="M284.5,-219.75C284.5,-212.8 284.5,-202.85 284.5,-194.13"/>
<polygon fill="#63b8ff" stroke="#63b8ff" points="288,-194.09 284.5,-184.09 281,-194.09 288,-194.09"/>
</a>
</g>
</g>
<!-- Node16 -->
<g id="Node000016" class="node">
<title>Node16</title>
<g id="a_Node000016"><a xlink:title=" ">
<polygon fill="#e0e0e0" stroke="#999999" points="397,-184 332,-184 332,-165 397,-165 397,-184"/>
<text text-anchor="middle" x="364.5" y="-172" font-family="Helvetica,sans-Serif" font-size="10.00">stdexcept</text>
</a>
</g>
</g>
<!-- Node12&#45;&gt;Node16 -->
<g id="edge15_Node000012_Node000016" class="edge">
<title>Node12&#45;&gt;Node16</title>
<g id="a_edge15_Node000012_Node000016"><a xlink:title=" ">
<path fill="none" stroke="#63b8ff" d="M297.35,-219.98C309.64,-211.84 328.41,-199.41 342.98,-189.76"/>
<polygon fill="#63b8ff" stroke="#63b8ff" points="345.01,-192.61 351.41,-184.17 341.14,-186.78 345.01,-192.61"/>
</a>
</g>
</g>
<!-- Node17 -->
<g id="Node000017" class="node">
<title>Node17</title>
<g id="a_Node000017"><a xlink:title=" ">
<polygon fill="#e0e0e0" stroke="#999999" points="93,-184 0,-184 0,-165 93,-165 93,-184"/>
<text text-anchor="middle" x="46.5" y="-172" font-family="Helvetica,sans-Serif" font-size="10.00">unordered_map</text>
</a>
</g>
</g>
<!-- Node12&#45;&gt;Node17 -->
<g id="edge16_Node000012_Node000017" class="edge">
<title>Node12&#45;&gt;Node17</title>
<g id="a_edge16_Node000012_Node000017"><a xlink:title=" ">
<path fill="none" stroke="#63b8ff" d="M246.26,-219.98C205.09,-210.82 139.51,-196.21 94.8,-186.26"/>
<polygon fill="#63b8ff" stroke="#63b8ff" points="95.56,-182.84 85.04,-184.08 94.04,-189.67 95.56,-182.84"/>
</a>
</g>
</g>
<!-- Node18 -->
<g id="Node000018" class="node">
<title>Node18</title>
<g id="a_Node000018"><a xlink:title=" ">
<polygon fill="#e0e0e0" stroke="#999999" points="555,-184 508,-184 508,-165 555,-165 555,-184"/>
<text text-anchor="middle" x="531.5" y="-172" font-family="Helvetica,sans-Serif" font-size="10.00">vector</text>
</a>
</g>
</g>
<!-- Node12&#45;&gt;Node18 -->
<g id="edge17_Node000012_Node000018" class="edge">
<title>Node12&#45;&gt;Node18</title>
<g id="a_edge17_Node000012_Node000018"><a xlink:title=" ">
<path fill="none" stroke="#63b8ff" d="M323.25,-220.49C365.42,-211.73 434.82,-197.18 494.5,-184 495.56,-183.77 496.64,-183.53 497.73,-183.28"/>
<polygon fill="#63b8ff" stroke="#63b8ff" points="498.65,-186.66 507.63,-181.05 497.1,-179.84 498.65,-186.66"/>
</a>
</g>
</g>
<!-- Node20 -->
<g id="Node000020" class="node">
<title>Node20</title>
<g id="a_Node000020"><a xlink:href="Vector3_8hpp.html" target="_top" xlink:title="Defines the Vector3 class.">
<polygon fill="white" stroke="#666666" points="1051,-74 948,-74 948,-55 1051,-55 1051,-74"/>
<text text-anchor="middle" x="999.5" y="-62" font-family="Helvetica,sans-Serif" font-size="10.00">math/Vector3.hpp</text>
</a>
</g>
</g>
<!-- Node19&#45;&gt;Node20 -->
<g id="edge19_Node000019_Node000020" class="edge">
<title>Node19&#45;&gt;Node20</title>
<g id="a_edge19_Node000019_Node000020"><a xlink:title=" ">
<path fill="none" stroke="#63b8ff" d="M933.8,-329.92C981.8,-317.24 1054.5,-288.47 1054.5,-230.5 1054.5,-230.5 1054.5,-230.5 1054.5,-173.5 1054.5,-137.94 1030.53,-102.27 1014.24,-82.12"/>
<polygon fill="#63b8ff" stroke="#63b8ff" points="1016.73,-79.65 1007.62,-74.25 1011.38,-84.16 1016.73,-79.65"/>
</a>
</g>
</g>
<!-- Node19&#45;&gt;Node22 -->
<g id="edge23_Node000019_Node000022" class="edge">
<title>Node19&#45;&gt;Node22</title>
<g id="a_edge23_Node000019_Node000022"><a xlink:title=" ">
<path fill="none" stroke="#63b8ff" d="M892.5,-329.75C892.5,-322.8 892.5,-312.85 892.5,-304.13"/>
<polygon fill="#63b8ff" stroke="#63b8ff" points="896,-304.09 892.5,-294.09 889,-304.09 896,-304.09"/>
</a>
</g>
</g>
<!-- Node20&#45;&gt;Node10 -->
<g id="edge21_Node000020_Node000010" class="edge">
<title>Node20&#45;&gt;Node10</title>
<g id="a_edge21_Node000020_Node000010"><a xlink:title=" ">
<path fill="none" stroke="#63b8ff" d="M983.92,-54.98C968.73,-46.69 945.4,-33.94 927.6,-24.22"/>
<polygon fill="#63b8ff" stroke="#63b8ff" points="928.82,-20.89 918.37,-19.17 925.47,-27.04 928.82,-20.89"/>
</a>
</g>
</g>
<!-- Node20&#45;&gt;Node11 -->
<g id="edge22_Node000020_Node000011" class="edge">
<title>Node20&#45;&gt;Node11</title>
<g id="a_edge22_Node000020_Node000011"><a xlink:title=" ">
<path fill="none" stroke="#63b8ff" d="M947.8,-55.39C877.12,-44.31 752.42,-24.76 693.74,-15.56"/>
<polygon fill="#63b8ff" stroke="#63b8ff" points="694,-12.05 683.58,-13.96 692.92,-18.97 694,-12.05"/>
</a>
</g>
</g>
<!-- Node21 -->
<g id="Node000021" class="node">
<title>Node21</title>
<g id="a_Node000021"><a xlink:title=" ">
<polygon fill="#e0e0e0" stroke="#999999" points="1075,-19 1028,-19 1028,0 1075,0 1075,-19"/>
<text text-anchor="middle" x="1051.5" y="-7" font-family="Helvetica,sans-Serif" font-size="10.00">cmath</text>
</a>
</g>
</g>
<!-- Node20&#45;&gt;Node21 -->
<g id="edge20_Node000020_Node000021" class="edge">
<title>Node20&#45;&gt;Node21</title>
<g id="a_edge20_Node000020_Node000021"><a xlink:title=" ">
<path fill="none" stroke="#63b8ff" d="M1008.09,-54.75C1015.66,-47.03 1026.88,-35.6 1036.01,-26.28"/>
<polygon fill="#63b8ff" stroke="#63b8ff" points="1038.57,-28.68 1043.07,-19.09 1033.57,-23.78 1038.57,-28.68"/>
</a>
</g>
</g>
<!-- Node22&#45;&gt;Node20 -->
<g id="edge24_Node000022_Node000020" class="edge">
<title>Node22&#45;&gt;Node20</title>
<g id="a_edge24_Node000022_Node000020"><a xlink:title=" ">
<path fill="none" stroke="#63b8ff" d="M909.8,-274.99C924.68,-267.09 946.13,-254.27 961.5,-239 982.23,-218.41 988.92,-211.93 997.5,-184 1007.94,-150.03 1005.2,-107.95 1002.32,-84.17"/>
<polygon fill="#63b8ff" stroke="#63b8ff" points="1005.76,-83.52 1000.95,-74.08 998.82,-84.47 1005.76,-83.52"/>
</a>
</g>
</g>
<!-- Node23 -->
<g id="Node000023" class="node">
<title>Node23</title>
<g id="a_Node000023"><a xlink:href="Shader_8hpp.html" target="_top" xlink:title="Manages OpenGL shaders.">
<polygon fill="white" stroke="#666666" points="952.5,-239 832.5,-239 832.5,-220 952.5,-220 952.5,-239"/>
<text text-anchor="middle" x="892.5" y="-227" font-family="Helvetica,sans-Serif" font-size="10.00">rendering/Shader.hpp</text>
</a>
</g>
</g>
<!-- Node22&#45;&gt;Node23 -->
<g id="edge25_Node000022_Node000023" class="edge">
<title>Node22&#45;&gt;Node23</title>
<g id="a_edge25_Node000022_Node000023"><a xlink:title=" ">
<path fill="none" stroke="#63b8ff" d="M892.5,-274.75C892.5,-267.8 892.5,-257.85 892.5,-249.13"/>
<polygon fill="#63b8ff" stroke="#63b8ff" points="896,-249.09 892.5,-239.09 889,-249.09 896,-249.09"/>
</a>
</g>
</g>
<!-- Node27 -->
<g id="Node000027" class="node">
<title>Node27</title>
<g id="a_Node000027"><a xlink:href="Texture2D_8hpp_source.html" target="_top" xlink:title=" ">
<polygon fill="white" stroke="#666666" points="814,-239 677,-239 677,-220 814,-220 814,-239"/>
<text text-anchor="middle" x="745.5" y="-227" font-family="Helvetica,sans-Serif" font-size="10.00">rendering/Texture2D.hpp</text>
</a>
</g>
</g>
<!-- Node22&#45;&gt;Node27 -->
<g id="edge36_Node000022_Node000027" class="edge">
<title>Node22&#45;&gt;Node27</title>
<g id="a_edge36_Node000022_Node000027"><a xlink:title=" ">
<path fill="none" stroke="#63b8ff" d="M868.88,-274.98C844.6,-266.23 806.55,-252.51 779.13,-242.62"/>
<polygon fill="#63b8ff" stroke="#63b8ff" points="780.14,-239.27 769.55,-239.17 777.77,-245.85 780.14,-239.27"/>
</a>
</g>
</g>
<!-- Node23&#45;&gt;Node11 -->
<g id="edge35_Node000023_Node000011" class="edge">
<title>Node23&#45;&gt;Node11</title>
<g id="a_edge35_Node000023_Node000011"><a xlink:title=" ">
<path fill="none" stroke="#63b8ff" d="M883.44,-219.95C848.74,-187.2 723.85,-69.34 678.29,-26.34"/>
<polygon fill="#63b8ff" stroke="#63b8ff" points="680.42,-23.54 670.74,-19.22 675.61,-28.63 680.42,-23.54"/>
</a>
</g>
</g>
<!-- Node23&#45;&gt;Node20 -->
<g id="edge33_Node000023_Node000020" class="edge">
<title>Node23&#45;&gt;Node20</title>
<g id="a_edge33_Node000023_Node000020"><a xlink:title=" ">
<path fill="none" stroke="#63b8ff" d="M886.55,-219.93C878.63,-207.39 866.61,-183.52 875.5,-165 895.21,-123.91 941.09,-94.43 971.17,-78.68"/>
<polygon fill="#63b8ff" stroke="#63b8ff" points="972.98,-81.68 980.33,-74.05 969.83,-75.43 972.98,-81.68"/>
</a>
</g>
</g>
<!-- Node24 -->
<g id="Node000024" class="node">
<title>Node24</title>
<g id="a_Node000024"><a xlink:href="Matrix4_8hpp.html" target="_top" xlink:title="Defines the Matrix4 class for 3D transformation operations.">
<polygon fill="white" stroke="#666666" points="988.5,-184 884.5,-184 884.5,-165 988.5,-165 988.5,-184"/>
<text text-anchor="middle" x="936.5" y="-172" font-family="Helvetica,sans-Serif" font-size="10.00">math/Matrix4.hpp</text>
</a>
</g>
</g>
<!-- Node23&#45;&gt;Node24 -->
<g id="edge26_Node000023_Node000024" class="edge">
<title>Node23&#45;&gt;Node24</title>
<g id="a_edge26_Node000023_Node000024"><a xlink:title=" ">
<path fill="none" stroke="#63b8ff" d="M899.77,-219.75C906.04,-212.18 915.29,-201.05 922.93,-191.84"/>
<polygon fill="#63b8ff" stroke="#63b8ff" points="925.67,-194.02 929.37,-184.09 920.29,-189.55 925.67,-194.02"/>
</a>
</g>
</g>
<!-- Node26 -->
<g id="Node000026" class="node">
<title>Node26</title>
<g id="a_Node000026"><a xlink:title=" ">
<polygon fill="#e0e0e0" stroke="#999999" points="790,-184 719,-184 719,-165 790,-165 790,-184"/>
<text text-anchor="middle" x="754.5" y="-172" font-family="Helvetica,sans-Serif" font-size="10.00">glad/glad.h</text>
</a>
</g>
</g>
<!-- Node23&#45;&gt;Node26 -->
<g id="edge34_Node000023_Node000026" class="edge">
<title>Node23&#45;&gt;Node26</title>
<g id="a_edge34_Node000023_Node000026"><a xlink:title=" ">
<path fill="none" stroke="#63b8ff" d="M870.33,-219.98C847.73,-211.3 812.44,-197.75 786.75,-187.88"/>
<polygon fill="#63b8ff" stroke="#63b8ff" points="787.67,-184.49 777.08,-184.17 785.16,-191.02 787.67,-184.49"/>
</a>
</g>
</g>
<!-- Node24&#45;&gt;Node7 -->
<g id="edge31_Node000024_Node000007" class="edge">
<title>Node24&#45;&gt;Node7</title>
<g id="a_edge31_Node000024_Node000007"><a xlink:title=" ">
<path fill="none" stroke="#63b8ff" d="M922.04,-164.98C908.08,-156.77 886.71,-144.18 870.25,-134.49"/>
<polygon fill="#63b8ff" stroke="#63b8ff" points="871.62,-131.23 861.22,-129.17 868.06,-137.26 871.62,-131.23"/>
</a>
</g>
</g>
<!-- Node24&#45;&gt;Node10 -->
<g id="edge32_Node000024_Node000010" class="edge">
<title>Node24&#45;&gt;Node10</title>
<g id="a_edge32_Node000024_Node000010"><a xlink:title=" ">
<path fill="none" stroke="#63b8ff" d="M934.67,-164.74C929.35,-139.2 913.75,-64.43 906.41,-29.23"/>
<polygon fill="#63b8ff" stroke="#63b8ff" points="909.81,-28.38 904.34,-19.31 902.95,-29.81 909.81,-28.38"/>
</a>
</g>
</g>
<!-- Node24&#45;&gt;Node20 -->
<g id="edge30_Node000024_Node000020" class="edge">
<title>Node24&#45;&gt;Node20</title>
<g id="a_edge30_Node000024_Node000020"><a xlink:title=" ">
<path fill="none" stroke="#63b8ff" d="M941.66,-164.66C952.04,-146.85 975.66,-106.37 989.29,-83.01"/>
<polygon fill="#63b8ff" stroke="#63b8ff" points="992.43,-84.56 994.45,-74.16 986.39,-81.03 992.43,-84.56"/>
</a>
</g>
</g>
<!-- Node25 -->
<g id="Node000025" class="node">
<title>Node25</title>
<g id="a_Node000025"><a xlink:href="Quaternion_8hpp.html" target="_top" xlink:title="Defines the Quaternion class for representing 3D rotations.">
<polygon fill="white" stroke="#666666" points="1174.5,-129 1082.5,-129 1082.5,-110 1174.5,-110 1174.5,-129"/>
<text text-anchor="middle" x="1128.5" y="-117" font-family="Helvetica,sans-Serif" font-size="10.00">Quaternion.hpp</text>
</a>
</g>
</g>
<!-- Node24&#45;&gt;Node25 -->
<g id="edge27_Node000024_Node000025" class="edge">
<title>Node24&#45;&gt;Node25</title>
<g id="a_edge27_Node000024_Node000025"><a xlink:title=" ">
<path fill="none" stroke="#63b8ff" d="M967.35,-164.98C1000,-155.97 1051.7,-141.7 1087.7,-131.76"/>
<polygon fill="#63b8ff" stroke="#63b8ff" points="1088.7,-135.12 1097.41,-129.08 1086.84,-128.37 1088.7,-135.12"/>
</a>
</g>
</g>
<!-- Node25&#45;&gt;Node20 -->
<g id="edge28_Node000025_Node000020" class="edge">
<title>Node25&#45;&gt;Node20</title>
<g id="a_edge28_Node000025_Node000020"><a xlink:title=" ">
<path fill="none" stroke="#63b8ff" d="M1107.77,-109.98C1086.74,-101.34 1053.95,-87.87 1029.96,-78.02"/>
<polygon fill="#63b8ff" stroke="#63b8ff" points="1031.18,-74.73 1020.6,-74.17 1028.52,-81.21 1031.18,-74.73"/>
</a>
</g>
</g>
<!-- Node25&#45;&gt;Node21 -->
<g id="edge29_Node000025_Node000021" class="edge">
<title>Node25&#45;&gt;Node21</title>
<g id="a_edge29_Node000025_Node000021"><a xlink:title=" ">
<path fill="none" stroke="#63b8ff" d="M1122.2,-109.66C1109.39,-91.69 1080.12,-50.64 1063.54,-27.38"/>
<polygon fill="#63b8ff" stroke="#63b8ff" points="1066.33,-25.27 1057.67,-19.16 1060.63,-29.33 1066.33,-25.27"/>
</a>
</g>
</g>
<!-- Node27&#45;&gt;Node11 -->
<g id="edge38_Node000027_Node000011" class="edge">
<title>Node27&#45;&gt;Node11</title>
<g id="a_edge38_Node000027_Node000011"><a xlink:title=" ">
<path fill="none" stroke="#63b8ff" d="M736.56,-219.74C728.41,-211.29 716.59,-197.79 709.5,-184 682.52,-131.54 669.23,-62.12 664.11,-29.27"/>
<polygon fill="#63b8ff" stroke="#63b8ff" points="667.56,-28.64 662.63,-19.26 660.63,-29.67 667.56,-28.64"/>
</a>
</g>
</g>
<!-- Node27&#45;&gt;Node26 -->
<g id="edge37_Node000027_Node000026" class="edge">
<title>Node27&#45;&gt;Node26</title>
<g id="a_edge37_Node000027_Node000026"><a xlink:title=" ">
<path fill="none" stroke="#63b8ff" d="M746.99,-219.75C748.17,-212.8 749.86,-202.85 751.34,-194.13"/>
<polygon fill="#63b8ff" stroke="#63b8ff" points="754.82,-194.53 753.04,-184.09 747.92,-193.36 754.82,-194.53"/>
</a>
</g>
</g>
<!-- Node28&#45;&gt;Node29 -->
<g id="edge40_Node000028_Node000029" class="edge">
<title>Node28&#45;&gt;Node29</title>
<g id="a_edge40_Node000028_Node000029"><a xlink:title=" ">
<path fill="none" stroke="#63b8ff" d="M603.42,-329.66C603.26,-312.17 602.89,-272.8 602.67,-249.27"/>
<polygon fill="#63b8ff" stroke="#63b8ff" points="606.17,-249.13 602.58,-239.16 599.17,-249.19 606.17,-249.13"/>
</a>
</g>
</g>
<!-- Node29&#45;&gt;Node11 -->
<g id="edge43_Node000029_Node000011" class="edge">
<title>Node29&#45;&gt;Node11</title>
<g id="a_edge43_Node000029_Node000011"><a xlink:title=" ">
<path fill="none" stroke="#63b8ff" d="M604.59,-219.79C610.74,-194.32 629.49,-117.82 647.5,-55 649.96,-46.44 652.89,-37.02 655.43,-29.06"/>
<polygon fill="#63b8ff" stroke="#63b8ff" points="658.83,-29.92 658.58,-19.33 652.17,-27.76 658.83,-29.92"/>
</a>
</g>
</g>
<!-- Node29&#45;&gt;Node18 -->
<g id="edge44_Node000029_Node000018" class="edge">
<title>Node29&#45;&gt;Node18</title>
<g id="a_edge44_Node000029_Node000018"><a xlink:title=" ">
<path fill="none" stroke="#63b8ff" d="M591.09,-219.98C580.39,-212 564.16,-199.88 551.34,-190.31"/>
<polygon fill="#63b8ff" stroke="#63b8ff" points="553.22,-187.35 543.11,-184.17 549.03,-192.96 553.22,-187.35"/>
</a>
</g>
</g>
<!-- Node29&#45;&gt;Node20 -->
<g id="edge41_Node000029_Node000020" class="edge">
<title>Node29&#45;&gt;Node20</title>
<g id="a_edge41_Node000029_Node000020"><a xlink:title=" ">
<path fill="none" stroke="#63b8ff" d="M616.61,-219.93C636.99,-207.59 675.93,-184.19 709.5,-165 753.54,-139.83 762.14,-128.17 809.5,-110 851.16,-94.01 900.26,-82.69 938.1,-75.47"/>
<polygon fill="#63b8ff" stroke="#63b8ff" points="938.78,-78.91 947.97,-73.64 937.5,-72.03 938.78,-78.91"/>
</a>
</g>
</g>
<!-- Node29&#45;&gt;Node26 -->
<g id="edge42_Node000029_Node000026" class="edge">
<title>Node29&#45;&gt;Node26</title>
<g id="a_edge42_Node000029_Node000026"><a xlink:title=" ">
<path fill="none" stroke="#63b8ff" d="M626.92,-219.98C652.22,-211.16 691.95,-197.31 720.36,-187.41"/>
<polygon fill="#63b8ff" stroke="#63b8ff" points="721.6,-190.68 729.89,-184.08 719.29,-184.07 721.6,-190.68"/>
</a>
</g>
</g>
<!-- Node30&#45;&gt;Node20 -->
<g id="edge48_Node000030_Node000020" class="edge">
<title>Node30&#45;&gt;Node20</title>
<g id="a_edge48_Node000030_Node000020"><a xlink:title=" ">
<path fill="none" stroke="#63b8ff" d="M1188.53,-219.87C1195.43,-198.56 1209.74,-142.76 1183.5,-110 1168.24,-90.94 1108.7,-79.01 1061.43,-72.36"/>
<polygon fill="#63b8ff" stroke="#63b8ff" points="1061.62,-68.86 1051.24,-70.98 1060.68,-75.79 1061.62,-68.86"/>
</a>
</g>
</g>
<!-- Node30&#45;&gt;Node24 -->
<g id="edge46_Node000030_Node000024" class="edge">
<title>Node30&#45;&gt;Node24</title>
<g id="a_edge46_Node000030_Node000024"><a xlink:title=" ">
<path fill="none" stroke="#63b8ff" d="M1145.49,-219.98C1102.33,-210.8 1033.52,-196.15 986.74,-186.19"/>
<polygon fill="#63b8ff" stroke="#63b8ff" points="987.33,-182.74 976.82,-184.08 985.87,-189.59 987.33,-182.74"/>
</a>
</g>
</g>
<!-- Node30&#45;&gt;Node25 -->
<g id="edge47_Node000030_Node000025" class="edge">
<title>Node30&#45;&gt;Node25</title>
<g id="a_edge47_Node000030_Node000025"><a xlink:title=" ">
<path fill="none" stroke="#63b8ff" d="M1180.84,-219.66C1171.44,-201.85 1150.07,-161.37 1137.74,-138.01"/>
<polygon fill="#63b8ff" stroke="#63b8ff" points="1140.83,-136.37 1133.07,-129.16 1134.64,-139.64 1140.83,-136.37"/>
</a>
</g>
</g>
</g>
</svg>
