<?xml version="1.0" encoding="UTF-8" standalone="no"?>
<!DOCTYPE svg PUBLIC "-//W3C//DTD SVG 1.1//EN"
 "http://www.w3.org/Graphics/SVG/1.1/DTD/svg11.dtd">
<!-- Generated by graphviz version 2.43.0 (0)
 -->
<!-- Title: include/physics/PhysicsSystem.hpp Pages: 1 -->
<svg width="908pt" height="302pt"
 viewBox="0.00 0.00 908.00 302.00" xmlns="http://www.w3.org/2000/svg" xmlns:xlink="http://www.w3.org/1999/xlink">
<g id="graph0" class="graph" transform="scale(1 1) rotate(0) translate(4 298)">
<title>include/physics/PhysicsSystem.hpp</title>
<!-- Node1 -->
<g id="Node000001" class="node">
<title>Node1</title>
<g id="a_Node000001"><a xlink:title="Defines the PhysicsSystem.">
<polygon fill="#999999" stroke="#666666" points="622.5,-294 433.5,-294 433.5,-275 622.5,-275 622.5,-294"/>
<text text-anchor="middle" x="528" y="-282" font-family="Helvetica,sans-Serif" font-size="10.00">include/physics/PhysicsSystem.hpp</text>
</a>
</g>
</g>
<!-- Node2 -->
<g id="Node000002" class="node">
<title>Node2</title>
<g id="a_Node000002"><a xlink:href="Registry_8hpp.html" target="_top" xlink:title="Defines the Registry class for managing ECS entities and components.">
<polygon fill="white" stroke="#666666" points="291.5,-239 214.5,-239 214.5,-220 291.5,-220 291.5,-239"/>
<text text-anchor="middle" x="253" y="-227" font-family="Helvetica,sans-Serif" font-size="10.00">Registry.hpp</text>
</a>
</g>
</g>
<!-- Node1&#45;&gt;Node2 -->
<g id="edge1_Node000001_Node000002" class="edge">
<title>Node1&#45;&gt;Node2</title>
<g id="a_edge1_Node000001_Node000002"><a xlink:title=" ">
<path fill="none" stroke="#63b8ff" d="M483.82,-274.98C434,-265.38 353.23,-249.82 301.65,-239.88"/>
<polygon fill="#63b8ff" stroke="#63b8ff" points="302.22,-236.42 291.74,-237.97 300.9,-243.3 302.22,-236.42"/>
</a>
</g>
</g>
<!-- Node9 -->
<g id="Node000009" class="node">
<title>Node9</title>
<g id="a_Node000009"><a xlink:href="PhysicsComponent_8hpp.html" target="_top" xlink:title="Defines the PhysicsComponent for ECS&#45;based physics simulation.">
<polygon fill="white" stroke="#666666" points="900,-129 706,-129 706,-110 900,-110 900,-129"/>
<text text-anchor="middle" x="803" y="-117" font-family="Helvetica,sans-Serif" font-size="10.00">components/PhysicsComponent.hpp</text>
</a>
</g>
</g>
<!-- Node1&#45;&gt;Node9 -->
<g id="edge8_Node000001_Node000009" class="edge">
<title>Node1&#45;&gt;Node9</title>
<g id="a_edge8_Node000001_Node000009"><a xlink:title=" ">
<path fill="none" stroke="#63b8ff" d="M555.1,-274.87C578.33,-266.98 612.33,-254.24 640,-239 696.38,-207.95 755.9,-160.33 784.94,-135.99"/>
<polygon fill="#63b8ff" stroke="#63b8ff" points="787.56,-138.36 792.93,-129.23 783.04,-133.01 787.56,-138.36"/>
</a>
</g>
</g>
<!-- Node14 -->
<g id="Node000014" class="node">
<title>Node14</title>
<g id="a_Node000014"><a xlink:href="TransformComponent_8hpp.html" target="_top" xlink:title="Defines the TransformComponent for ECS&#45;based spatial transformations.">
<polygon fill="white" stroke="#666666" points="631,-239 425,-239 425,-220 631,-220 631,-239"/>
<text text-anchor="middle" x="528" y="-227" font-family="Helvetica,sans-Serif" font-size="10.00">components/TransformComponent.hpp</text>
</a>
</g>
</g>
<!-- Node1&#45;&gt;Node14 -->
<g id="edge13_Node000001_Node000014" class="edge">
<title>Node1&#45;&gt;Node14</title>
<g id="a_edge13_Node000001_Node000014"><a xlink:title=" ">
<path fill="none" stroke="#63b8ff" d="M528,-274.75C528,-267.8 528,-257.85 528,-249.13"/>
<polygon fill="#63b8ff" stroke="#63b8ff" points="531.5,-249.09 528,-239.09 524.5,-249.09 531.5,-249.09"/>
</a>
</g>
</g>
<!-- Node3 -->
<g id="Node000003" class="node">
<title>Node3</title>
<g id="a_Node000003"><a xlink:title=" ">
<polygon fill="#e0e0e0" stroke="#999999" points="64,-184 0,-184 0,-165 64,-165 64,-184"/>
<text text-anchor="middle" x="32" y="-172" font-family="Helvetica,sans-Serif" font-size="10.00">algorithm</text>
</a>
</g>
</g>
<!-- Node2&#45;&gt;Node3 -->
<g id="edge2_Node000002_Node000003" class="edge">
<title>Node2&#45;&gt;Node3</title>
<g id="a_edge2_Node000002_Node000003"><a xlink:title=" ">
<path fill="none" stroke="#63b8ff" d="M217.49,-219.98C178.38,-210.6 115.53,-195.53 74,-185.57"/>
<polygon fill="#63b8ff" stroke="#63b8ff" points="74.73,-182.15 64.19,-183.22 73.09,-188.95 74.73,-182.15"/>
</a>
</g>
</g>
<!-- Node4 -->
<g id="Node000004" class="node">
<title>Node4</title>
<g id="a_Node000004"><a xlink:title=" ">
<polygon fill="#e0e0e0" stroke="#999999" points="126,-184 82,-184 82,-165 126,-165 126,-184"/>
<text text-anchor="middle" x="104" y="-172" font-family="Helvetica,sans-Serif" font-size="10.00">bitset</text>
</a>
</g>
</g>
<!-- Node2&#45;&gt;Node4 -->
<g id="edge3_Node000002_Node000004" class="edge">
<title>Node2&#45;&gt;Node4</title>
<g id="a_edge3_Node000002_Node000004"><a xlink:title=" ">
<path fill="none" stroke="#63b8ff" d="M229.06,-219.98C203.86,-211.02 164.04,-196.86 136.12,-186.92"/>
<polygon fill="#63b8ff" stroke="#63b8ff" points="137.01,-183.53 126.42,-183.47 134.67,-190.12 137.01,-183.53"/>
</a>
</g>
</g>
<!-- Node5 -->
<g id="Node000005" class="node">
<title>Node5</title>
<g id="a_Node000005"><a xlink:title=" ">
<polygon fill="#e0e0e0" stroke="#999999" points="202,-184 144,-184 144,-165 202,-165 202,-184"/>
<text text-anchor="middle" x="173" y="-172" font-family="Helvetica,sans-Serif" font-size="10.00">memory</text>
</a>
</g>
</g>
<!-- Node2&#45;&gt;Node5 -->
<g id="edge4_Node000002_Node000005" class="edge">
<title>Node2&#45;&gt;Node5</title>
<g id="a_edge4_Node000002_Node000005"><a xlink:title=" ">
<path fill="none" stroke="#63b8ff" d="M240.15,-219.98C227.86,-211.84 209.09,-199.41 194.52,-189.76"/>
<polygon fill="#63b8ff" stroke="#63b8ff" points="196.36,-186.78 186.09,-184.17 192.49,-192.61 196.36,-186.78"/>
</a>
</g>
</g>
<!-- Node6 -->
<g id="Node000006" class="node">
<title>Node6</title>
<g id="a_Node000006"><a xlink:title=" ">
<polygon fill="#e0e0e0" stroke="#999999" points="285.5,-184 220.5,-184 220.5,-165 285.5,-165 285.5,-184"/>
<text text-anchor="middle" x="253" y="-172" font-family="Helvetica,sans-Serif" font-size="10.00">stdexcept</text>
</a>
</g>
</g>
<!-- Node2&#45;&gt;Node6 -->
<g id="edge5_Node000002_Node000006" class="edge">
<title>Node2&#45;&gt;Node6</title>
<g id="a_edge5_Node000002_Node000006"><a xlink:title=" ">
<path fill="none" stroke="#63b8ff" d="M253,-219.75C253,-212.8 253,-202.85 253,-194.13"/>
<polygon fill="#63b8ff" stroke="#63b8ff" points="256.5,-194.09 253,-184.09 249.5,-194.09 256.5,-194.09"/>
</a>
</g>
</g>
<!-- Node7 -->
<g id="Node000007" class="node">
<title>Node7</title>
<g id="a_Node000007"><a xlink:title=" ">
<polygon fill="#e0e0e0" stroke="#999999" points="396.5,-184 303.5,-184 303.5,-165 396.5,-165 396.5,-184"/>
<text text-anchor="middle" x="350" y="-172" font-family="Helvetica,sans-Serif" font-size="10.00">unordered_map</text>
</a>
</g>
</g>
<!-- Node2&#45;&gt;Node7 -->
<g id="edge6_Node000002_Node000007" class="edge">
<title>Node2&#45;&gt;Node7</title>
<g id="a_edge6_Node000002_Node000007"><a xlink:title=" ">
<path fill="none" stroke="#63b8ff" d="M268.58,-219.98C283.77,-211.69 307.1,-198.94 324.9,-189.22"/>
<polygon fill="#63b8ff" stroke="#63b8ff" points="327.03,-192.04 334.13,-184.17 323.68,-185.89 327.03,-192.04"/>
</a>
</g>
</g>
<!-- Node8 -->
<g id="Node000008" class="node">
<title>Node8</title>
<g id="a_Node000008"><a xlink:title=" ">
<polygon fill="#e0e0e0" stroke="#999999" points="461.5,-184 414.5,-184 414.5,-165 461.5,-165 461.5,-184"/>
<text text-anchor="middle" x="438" y="-172" font-family="Helvetica,sans-Serif" font-size="10.00">vector</text>
</a>
</g>
</g>
<!-- Node2&#45;&gt;Node8 -->
<g id="edge7_Node000002_Node000008" class="edge">
<title>Node2&#45;&gt;Node8</title>
<g id="a_edge7_Node000002_Node000008"><a xlink:title=" ">
<path fill="none" stroke="#63b8ff" d="M282.72,-219.98C316,-210.45 369.81,-195.03 404.54,-185.09"/>
<polygon fill="#63b8ff" stroke="#63b8ff" points="405.58,-188.43 414.23,-182.31 403.65,-181.7 405.58,-188.43"/>
</a>
</g>
</g>
<!-- Node10 -->
<g id="Node000010" class="node">
<title>Node10</title>
<g id="a_Node000010"><a xlink:href="Vector3_8hpp.html" target="_top" xlink:title="Defines the Vector3 class.">
<polygon fill="white" stroke="#666666" points="601.5,-74 498.5,-74 498.5,-55 601.5,-55 601.5,-74"/>
<text text-anchor="middle" x="550" y="-62" font-family="Helvetica,sans-Serif" font-size="10.00">math/Vector3.hpp</text>
</a>
</g>
</g>
<!-- Node9&#45;&gt;Node10 -->
<g id="edge9_Node000009_Node000010" class="edge">
<title>Node9&#45;&gt;Node10</title>
<g id="a_edge9_Node000009_Node000010"><a xlink:title=" ">
<path fill="none" stroke="#63b8ff" d="M762.35,-109.98C718.5,-100.8 648.58,-86.15 601.05,-76.19"/>
<polygon fill="#63b8ff" stroke="#63b8ff" points="601.47,-72.71 590.97,-74.08 600.04,-79.56 601.47,-72.71"/>
</a>
</g>
</g>
<!-- Node11 -->
<g id="Node000011" class="node">
<title>Node11</title>
<g id="a_Node000011"><a xlink:title=" ">
<polygon fill="#e0e0e0" stroke="#999999" points="501.5,-19 454.5,-19 454.5,0 501.5,0 501.5,-19"/>
<text text-anchor="middle" x="478" y="-7" font-family="Helvetica,sans-Serif" font-size="10.00">cmath</text>
</a>
</g>
</g>
<!-- Node10&#45;&gt;Node11 -->
<g id="edge10_Node000010_Node000011" class="edge">
<title>Node10&#45;&gt;Node11</title>
<g id="a_edge10_Node000010_Node000011"><a xlink:title=" ">
<path fill="none" stroke="#63b8ff" d="M538.43,-54.98C527.58,-47 511.12,-34.88 498.12,-25.31"/>
<polygon fill="#63b8ff" stroke="#63b8ff" points="499.91,-22.28 489.78,-19.17 495.76,-27.92 499.91,-22.28"/>
</a>
</g>
</g>
<!-- Node12 -->
<g id="Node000012" class="node">
<title>Node12</title>
<g id="a_Node000012"><a xlink:title=" ">
<polygon fill="#e0e0e0" stroke="#999999" points="676,-19 620,-19 620,0 676,0 676,-19"/>
<text text-anchor="middle" x="648" y="-7" font-family="Helvetica,sans-Serif" font-size="10.00">sstream</text>
</a>
</g>
</g>
<!-- Node10&#45;&gt;Node12 -->
<g id="edge11_Node000010_Node000012" class="edge">
<title>Node10&#45;&gt;Node12</title>
<g id="a_edge11_Node000010_Node000012"><a xlink:title=" ">
<path fill="none" stroke="#63b8ff" d="M565.75,-54.98C581.23,-46.61 605.09,-33.7 623.14,-23.95"/>
<polygon fill="#63b8ff" stroke="#63b8ff" points="624.84,-27.01 631.97,-19.17 621.51,-20.85 624.84,-27.01"/>
</a>
</g>
</g>
<!-- Node13 -->
<g id="Node000013" class="node">
<title>Node13</title>
<g id="a_Node000013"><a xlink:title=" ">
<polygon fill="#e0e0e0" stroke="#999999" points="572,-19 528,-19 528,0 572,0 572,-19"/>
<text text-anchor="middle" x="550" y="-7" font-family="Helvetica,sans-Serif" font-size="10.00">string</text>
</a>
</g>
</g>
<!-- Node10&#45;&gt;Node13 -->
<g id="edge12_Node000010_Node000013" class="edge">
<title>Node10&#45;&gt;Node13</title>
<g id="a_edge12_Node000010_Node000013"><a xlink:title=" ">
<path fill="none" stroke="#63b8ff" d="M550,-54.75C550,-47.8 550,-37.85 550,-29.13"/>
<polygon fill="#63b8ff" stroke="#63b8ff" points="553.5,-29.09 550,-19.09 546.5,-29.09 553.5,-29.09"/>
</a>
</g>
</g>
<!-- Node14&#45;&gt;Node10 -->
<g id="edge22_Node000014_Node000010" class="edge">
<title>Node14&#45;&gt;Node10</title>
<g id="a_edge22_Node000014_Node000010"><a xlink:title=" ">
<path fill="none" stroke="#63b8ff" d="M529.18,-219.74C532.63,-194.2 542.72,-119.43 547.47,-84.23"/>
<polygon fill="#63b8ff" stroke="#63b8ff" points="550.94,-84.69 548.81,-74.31 544.01,-83.75 550.94,-84.69"/>
</a>
</g>
</g>
<!-- Node15 -->
<g id="Node000015" class="node">
<title>Node15</title>
<g id="a_Node000015"><a xlink:href="Matrix4_8hpp.html" target="_top" xlink:title="Defines the Matrix4 class for 3D transformation operations.">
<polygon fill="white" stroke="#666666" points="660,-184 556,-184 556,-165 660,-165 660,-184"/>
<text text-anchor="middle" x="608" y="-172" font-family="Helvetica,sans-Serif" font-size="10.00">math/Matrix4.hpp</text>
</a>
</g>
</g>
<!-- Node14&#45;&gt;Node15 -->
<g id="edge14_Node000014_Node000015" class="edge">
<title>Node14&#45;&gt;Node15</title>
<g id="a_edge14_Node000014_Node000015"><a xlink:title=" ">
<path fill="none" stroke="#63b8ff" d="M540.85,-219.98C553.14,-211.84 571.91,-199.41 586.48,-189.76"/>
<polygon fill="#63b8ff" stroke="#63b8ff" points="588.51,-192.61 594.91,-184.17 584.64,-186.78 588.51,-192.61"/>
</a>
</g>
</g>
<!-- Node16 -->
<g id="Node000016" class="node">
<title>Node16</title>
<g id="a_Node000016"><a xlink:href="Quaternion_8hpp.html" target="_top" xlink:title="Defines the Quaternion class for representing 3D rotations.">
<polygon fill="white" stroke="#666666" points="500,-129 408,-129 408,-110 500,-110 500,-129"/>
<text text-anchor="middle" x="454" y="-117" font-family="Helvetica,sans-Serif" font-size="10.00">Quaternion.hpp</text>
</a>
</g>
</g>
<!-- Node14&#45;&gt;Node16 -->
<g id="edge21_Node000014_Node000016" class="edge">
<title>Node14&#45;&gt;Node16</title>
<g id="a_edge21_Node000014_Node000016"><a xlink:title=" ">
<path fill="none" stroke="#63b8ff" d="M521.94,-219.66C509.69,-201.77 481.75,-161 465.78,-137.69"/>
<polygon fill="#63b8ff" stroke="#63b8ff" points="468.47,-135.43 459.93,-129.16 462.7,-139.39 468.47,-135.43"/>
</a>
</g>
</g>
<!-- Node15&#45;&gt;Node10 -->
<g id="edge18_Node000015_Node000010" class="edge">
<title>Node15&#45;&gt;Node10</title>
<g id="a_edge18_Node000015_Node000010"><a xlink:title=" ">
<path fill="none" stroke="#63b8ff" d="M603.25,-164.66C593.69,-146.85 571.95,-106.37 559.4,-83.01"/>
<polygon fill="#63b8ff" stroke="#63b8ff" points="562.46,-81.31 554.65,-74.16 556.3,-84.62 562.46,-81.31"/>
</a>
</g>
</g>
<!-- Node15&#45;&gt;Node12 -->
<g id="edge20_Node000015_Node000012" class="edge">
<title>Node15&#45;&gt;Node12</title>
<g id="a_edge20_Node000015_Node000012"><a xlink:title=" ">
<path fill="none" stroke="#63b8ff" d="M623.73,-164.88C635.88,-157.23 651.8,-144.83 659,-129 673.98,-96.05 663.31,-52.71 655.08,-28.63"/>
<polygon fill="#63b8ff" stroke="#63b8ff" points="658.29,-27.21 651.57,-19.02 651.71,-29.62 658.29,-27.21"/>
</a>
</g>
</g>
<!-- Node15&#45;&gt;Node16 -->
<g id="edge15_Node000015_Node000016" class="edge">
<title>Node15&#45;&gt;Node16</title>
<g id="a_edge15_Node000015_Node000016"><a xlink:title=" ">
<path fill="none" stroke="#63b8ff" d="M583.26,-164.98C557.63,-156.16 517.37,-142.31 488.59,-132.41"/>
<polygon fill="#63b8ff" stroke="#63b8ff" points="489.53,-129.03 478.94,-129.08 487.25,-135.65 489.53,-129.03"/>
</a>
</g>
</g>
<!-- Node17 -->
<g id="Node000017" class="node">
<title>Node17</title>
<g id="a_Node000017"><a xlink:title=" ">
<polygon fill="#e0e0e0" stroke="#999999" points="650,-129 594,-129 594,-110 650,-110 650,-129"/>
<text text-anchor="middle" x="622" y="-117" font-family="Helvetica,sans-Serif" font-size="10.00">iomanip</text>
</a>
</g>
</g>
<!-- Node15&#45;&gt;Node17 -->
<g id="edge19_Node000015_Node000017" class="edge">
<title>Node15&#45;&gt;Node17</title>
<g id="a_edge19_Node000015_Node000017"><a xlink:title=" ">
<path fill="none" stroke="#63b8ff" d="M610.31,-164.75C612.17,-157.72 614.84,-147.62 617.15,-138.84"/>
<polygon fill="#63b8ff" stroke="#63b8ff" points="620.56,-139.65 619.73,-129.09 613.79,-137.86 620.56,-139.65"/>
</a>
</g>
</g>
<!-- Node16&#45;&gt;Node10 -->
<g id="edge16_Node000016_Node000010" class="edge">
<title>Node16&#45;&gt;Node10</title>
<g id="a_edge16_Node000016_Node000010"><a xlink:title=" ">
<path fill="none" stroke="#63b8ff" d="M469.42,-109.98C484.45,-101.69 507.54,-88.94 525.16,-79.22"/>
<polygon fill="#63b8ff" stroke="#63b8ff" points="527.23,-82.07 534.3,-74.17 523.85,-75.94 527.23,-82.07"/>
</a>
</g>
</g>
<!-- Node16&#45;&gt;Node11 -->
<g id="edge17_Node000016_Node000011" class="edge">
<title>Node16&#45;&gt;Node11</title>
<g id="a_edge17_Node000016_Node000011"><a xlink:title=" ">
<path fill="none" stroke="#63b8ff" d="M455.96,-109.66C459.87,-92.09 468.68,-52.45 473.9,-28.95"/>
<polygon fill="#63b8ff" stroke="#63b8ff" points="477.32,-29.68 476.08,-19.16 470.49,-28.16 477.32,-29.68"/>
</a>
</g>
</g>
</g>
</svg>
