<?xml version="1.0" encoding="UTF-8" standalone="no"?>
<!DOCTYPE svg PUBLIC "-//W3C//DTD SVG 1.1//EN"
 "http://www.w3.org/Graphics/SVG/1.1/DTD/svg11.dtd">
<!-- Generated by graphviz version 12.2.1 (0)
 -->
<!-- Title: include/physics/PhysicsSystem.hpp Pages: 1 -->
<svg width="904pt" height="313pt"
 viewBox="0.00 0.00 904.12 312.50" xmlns="http://www.w3.org/2000/svg" xmlns:xlink="http://www.w3.org/1999/xlink">
<g id="graph0" class="graph" transform="scale(1 1) rotate(0) translate(4 308.5)">
<title>include/physics/PhysicsSystem.hpp</title>
<!-- Node1 -->
<g id="Node000001" class="node">
<title>Node1</title>
<g id="a_Node000001"><a xlink:title="Defines the PhysicsSystem.">
<polygon fill="#999999" stroke="#666666" points="618.88,-304.5 430.38,-304.5 430.38,-283.75 618.88,-283.75 618.88,-304.5"/>
<text text-anchor="middle" x="524.62" y="-291" font-family="Helvetica,sans-Serif" font-size="10.00">include/physics/PhysicsSystem.hpp</text>
</a>
</g>
</g>
<!-- Node2 -->
<g id="Node000002" class="node">
<title>Node2</title>
<g id="a_Node000002"><a xlink:href="Registry_8hpp.html" target="_top" xlink:title="Defines the Registry class for managing ECS entities and components.">
<polygon fill="white" stroke="#666666" points="289.62,-247.75 213.62,-247.75 213.62,-227 289.62,-227 289.62,-247.75"/>
<text text-anchor="middle" x="251.62" y="-234.25" font-family="Helvetica,sans-Serif" font-size="10.00">Registry.hpp</text>
</a>
</g>
</g>
<!-- Node1&#45;&gt;Node2 -->
<g id="edge1_Node000001_Node000002" class="edge">
<title>Node1&#45;&gt;Node2</title>
<g id="a_edge1_Node000001_Node000002"><a xlink:title=" ">
<path fill="none" stroke="#63b8ff" d="M475.5,-283.27C426.08,-273.36 350.3,-258.16 300.85,-248.25"/>
<polygon fill="#63b8ff" stroke="#63b8ff" points="301.77,-244.86 291.28,-246.33 300.4,-251.73 301.77,-244.86"/>
</a>
</g>
</g>
<!-- Node9 -->
<g id="Node000009" class="node">
<title>Node9</title>
<g id="a_Node000009"><a xlink:href="PhysicsComponent_8hpp.html" target="_top" xlink:title="Defines the PhysicsComponent for ECS&#45;based physics simulation.">
<polygon fill="white" stroke="#666666" points="896.12,-134.25 703.12,-134.25 703.12,-113.5 896.12,-113.5 896.12,-134.25"/>
<text text-anchor="middle" x="799.62" y="-120.75" font-family="Helvetica,sans-Serif" font-size="10.00">components/PhysicsComponent.hpp</text>
</a>
</g>
</g>
<!-- Node1&#45;&gt;Node9 -->
<g id="edge8_Node000001_Node000009" class="edge">
<title>Node1&#45;&gt;Node9</title>
<g id="a_edge8_Node000001_Node000009"><a xlink:title=" ">
<path fill="none" stroke="#63b8ff" d="M554.61,-283.39C577.74,-275.31 610.16,-262.74 636.62,-247.75 692.55,-216.07 751.05,-167.6 780.4,-142.04"/>
<polygon fill="#63b8ff" stroke="#63b8ff" points="782.53,-144.82 787.73,-135.59 777.91,-139.57 782.53,-144.82"/>
</a>
</g>
</g>
<!-- Node14 -->
<g id="Node000014" class="node">
<title>Node14</title>
<g id="a_Node000014"><a xlink:href="TransformComponent_8hpp.html" target="_top" xlink:title="Defines the TransformComponent for ECS&#45;based spatial transformations.">
<polygon fill="white" stroke="#666666" points="627.5,-247.75 421.75,-247.75 421.75,-227 627.5,-227 627.5,-247.75"/>
<text text-anchor="middle" x="524.62" y="-234.25" font-family="Helvetica,sans-Serif" font-size="10.00">components/TransformComponent.hpp</text>
</a>
</g>
</g>
<!-- Node1&#45;&gt;Node14 -->
<g id="edge13_Node000001_Node000014" class="edge">
<title>Node1&#45;&gt;Node14</title>
<g id="a_edge13_Node000001_Node000014"><a xlink:title=" ">
<path fill="none" stroke="#63b8ff" d="M524.62,-283.34C524.62,-276.72 524.62,-267.72 524.62,-259.52"/>
<polygon fill="#63b8ff" stroke="#63b8ff" points="528.13,-259.59 524.63,-249.59 521.13,-259.59 528.13,-259.59"/>
</a>
</g>
</g>
<!-- Node3 -->
<g id="Node000003" class="node">
<title>Node3</title>
<g id="a_Node000003"><a xlink:title=" ">
<polygon fill="#e0e0e0" stroke="#999999" points="63.25,-191 0,-191 0,-170.25 63.25,-170.25 63.25,-191"/>
<text text-anchor="middle" x="31.62" y="-177.5" font-family="Helvetica,sans-Serif" font-size="10.00">algorithm</text>
</a>
</g>
</g>
<!-- Node2&#45;&gt;Node3 -->
<g id="edge2_Node000002_Node000003" class="edge">
<title>Node2&#45;&gt;Node3</title>
<g id="a_edge2_Node000002_Node000003"><a xlink:title=" ">
<path fill="none" stroke="#63b8ff" d="M213.3,-226.84C174.56,-217.2 114.82,-202.33 74.52,-192.3"/>
<polygon fill="#63b8ff" stroke="#63b8ff" points="75.46,-188.93 64.91,-189.91 73.77,-195.72 75.46,-188.93"/>
</a>
</g>
</g>
<!-- Node4 -->
<g id="Node000004" class="node">
<title>Node4</title>
<g id="a_Node000004"><a xlink:title=" ">
<polygon fill="#e0e0e0" stroke="#999999" points="125.5,-191 81.75,-191 81.75,-170.25 125.5,-170.25 125.5,-191"/>
<text text-anchor="middle" x="103.62" y="-177.5" font-family="Helvetica,sans-Serif" font-size="10.00">bitset</text>
</a>
</g>
</g>
<!-- Node2&#45;&gt;Node4 -->
<g id="edge3_Node000002_Node000004" class="edge">
<title>Node2&#45;&gt;Node4</title>
<g id="a_edge3_Node000002_Node000004"><a xlink:title=" ">
<path fill="none" stroke="#63b8ff" d="M225.17,-226.59C200.43,-217.44 163.4,-203.74 136.72,-193.87"/>
<polygon fill="#63b8ff" stroke="#63b8ff" points="138,-190.61 127.41,-190.42 135.57,-197.17 138,-190.61"/>
</a>
</g>
</g>
<!-- Node5 -->
<g id="Node000005" class="node">
<title>Node5</title>
<g id="a_Node000005"><a xlink:title=" ">
<polygon fill="#e0e0e0" stroke="#999999" points="201.25,-191 144,-191 144,-170.25 201.25,-170.25 201.25,-191"/>
<text text-anchor="middle" x="172.62" y="-177.5" font-family="Helvetica,sans-Serif" font-size="10.00">memory</text>
</a>
</g>
</g>
<!-- Node2&#45;&gt;Node5 -->
<g id="edge4_Node000002_Node000005" class="edge">
<title>Node2&#45;&gt;Node5</title>
<g id="a_edge4_Node000002_Node000005"><a xlink:title=" ">
<path fill="none" stroke="#63b8ff" d="M237.5,-226.59C225.93,-218.57 209.32,-207.06 195.81,-197.69"/>
<polygon fill="#63b8ff" stroke="#63b8ff" points="198.08,-195.01 187.87,-192.19 194.1,-200.76 198.08,-195.01"/>
</a>
</g>
</g>
<!-- Node6 -->
<g id="Node000006" class="node">
<title>Node6</title>
<g id="a_Node000006"><a xlink:title=" ">
<polygon fill="#e0e0e0" stroke="#999999" points="283.62,-191 219.62,-191 219.62,-170.25 283.62,-170.25 283.62,-191"/>
<text text-anchor="middle" x="251.62" y="-177.5" font-family="Helvetica,sans-Serif" font-size="10.00">stdexcept</text>
</a>
</g>
</g>
<!-- Node2&#45;&gt;Node6 -->
<g id="edge5_Node000002_Node000006" class="edge">
<title>Node2&#45;&gt;Node6</title>
<g id="a_edge5_Node000002_Node000006"><a xlink:title=" ">
<path fill="none" stroke="#63b8ff" d="M251.62,-226.59C251.62,-219.97 251.62,-210.97 251.62,-202.77"/>
<polygon fill="#63b8ff" stroke="#63b8ff" points="255.13,-202.84 251.63,-192.84 248.13,-202.84 255.13,-202.84"/>
</a>
</g>
</g>
<!-- Node7 -->
<g id="Node000007" class="node">
<title>Node7</title>
<g id="a_Node000007"><a xlink:title=" ">
<polygon fill="#e0e0e0" stroke="#999999" points="393.88,-191 301.38,-191 301.38,-170.25 393.88,-170.25 393.88,-191"/>
<text text-anchor="middle" x="347.62" y="-177.5" font-family="Helvetica,sans-Serif" font-size="10.00">unordered_map</text>
</a>
</g>
</g>
<!-- Node2&#45;&gt;Node7 -->
<g id="edge6_Node000002_Node000007" class="edge">
<title>Node2&#45;&gt;Node7</title>
<g id="a_edge6_Node000002_Node000007"><a xlink:title=" ">
<path fill="none" stroke="#63b8ff" d="M268.79,-226.59C283.26,-218.33 304.21,-206.38 320.88,-196.88"/>
<polygon fill="#63b8ff" stroke="#63b8ff" points="322.34,-200.07 329.3,-192.08 318.88,-193.99 322.34,-200.07"/>
</a>
</g>
</g>
<!-- Node8 -->
<g id="Node000008" class="node">
<title>Node8</title>
<g id="a_Node000008"><a xlink:title=" ">
<polygon fill="#e0e0e0" stroke="#999999" points="459,-191 412.25,-191 412.25,-170.25 459,-170.25 459,-191"/>
<text text-anchor="middle" x="435.62" y="-177.5" font-family="Helvetica,sans-Serif" font-size="10.00">vector</text>
</a>
</g>
</g>
<!-- Node2&#45;&gt;Node8 -->
<g id="edge7_Node000002_Node000008" class="edge">
<title>Node2&#45;&gt;Node8</title>
<g id="a_edge7_Node000002_Node000008"><a xlink:title=" ">
<path fill="none" stroke="#63b8ff" d="M284.52,-226.59C317.4,-216.8 367.74,-201.83 401.16,-191.88"/>
<polygon fill="#63b8ff" stroke="#63b8ff" points="401.75,-195.36 410.34,-189.15 399.76,-188.65 401.75,-195.36"/>
</a>
</g>
</g>
<!-- Node10 -->
<g id="Node000010" class="node">
<title>Node10</title>
<g id="a_Node000010"><a xlink:href="Vector3_8hpp.html" target="_top" xlink:title="Defines the Vector3 class.">
<polygon fill="white" stroke="#666666" points="598.12,-77.5 495.12,-77.5 495.12,-56.75 598.12,-56.75 598.12,-77.5"/>
<text text-anchor="middle" x="546.62" y="-64" font-family="Helvetica,sans-Serif" font-size="10.00">math/Vector3.hpp</text>
</a>
</g>
</g>
<!-- Node9&#45;&gt;Node10 -->
<g id="edge9_Node000009_Node000010" class="edge">
<title>Node9&#45;&gt;Node10</title>
<g id="a_edge9_Node000009_Node000010"><a xlink:title=" ">
<path fill="none" stroke="#63b8ff" d="M754.1,-113.02C711.87,-103.88 648.87,-90.25 603.37,-80.41"/>
<polygon fill="#63b8ff" stroke="#63b8ff" points="604.2,-77 593.69,-78.31 602.72,-83.85 604.2,-77"/>
</a>
</g>
</g>
<!-- Node11 -->
<g id="Node000011" class="node">
<title>Node11</title>
<g id="a_Node000011"><a xlink:title=" ">
<polygon fill="#e0e0e0" stroke="#999999" points="499,-20.75 452.25,-20.75 452.25,0 499,0 499,-20.75"/>
<text text-anchor="middle" x="475.62" y="-7.25" font-family="Helvetica,sans-Serif" font-size="10.00">cmath</text>
</a>
</g>
</g>
<!-- Node10&#45;&gt;Node11 -->
<g id="edge10_Node000010_Node000011" class="edge">
<title>Node10&#45;&gt;Node11</title>
<g id="a_edge10_Node000010_Node000011"><a xlink:title=" ">
<path fill="none" stroke="#63b8ff" d="M533.93,-56.34C523.73,-48.47 509.18,-37.25 497.17,-27.99"/>
<polygon fill="#63b8ff" stroke="#63b8ff" points="499.46,-25.34 489.41,-22 495.19,-30.88 499.46,-25.34"/>
</a>
</g>
</g>
<!-- Node12 -->
<g id="Node000012" class="node">
<title>Node12</title>
<g id="a_Node000012"><a xlink:title=" ">
<polygon fill="#e0e0e0" stroke="#999999" points="672.5,-20.75 616.75,-20.75 616.75,0 672.5,0 672.5,-20.75"/>
<text text-anchor="middle" x="644.62" y="-7.25" font-family="Helvetica,sans-Serif" font-size="10.00">sstream</text>
</a>
</g>
</g>
<!-- Node10&#45;&gt;Node12 -->
<g id="edge11_Node000010_Node000012" class="edge">
<title>Node10&#45;&gt;Node12</title>
<g id="a_edge11_Node000010_Node000012"><a xlink:title=" ">
<path fill="none" stroke="#63b8ff" d="M564.15,-56.34C578.92,-48.08 600.31,-36.13 617.32,-26.63"/>
<polygon fill="#63b8ff" stroke="#63b8ff" points="618.91,-29.75 625.93,-21.82 615.5,-23.64 618.91,-29.75"/>
</a>
</g>
</g>
<!-- Node13 -->
<g id="Node000013" class="node">
<title>Node13</title>
<g id="a_Node000013"><a xlink:title=" ">
<polygon fill="#e0e0e0" stroke="#999999" points="568.5,-20.75 524.75,-20.75 524.75,0 568.5,0 568.5,-20.75"/>
<text text-anchor="middle" x="546.62" y="-7.25" font-family="Helvetica,sans-Serif" font-size="10.00">string</text>
</a>
</g>
</g>
<!-- Node10&#45;&gt;Node13 -->
<g id="edge12_Node000010_Node000013" class="edge">
<title>Node10&#45;&gt;Node13</title>
<g id="a_edge12_Node000010_Node000013"><a xlink:title=" ">
<path fill="none" stroke="#63b8ff" d="M546.62,-56.34C546.62,-49.72 546.62,-40.72 546.62,-32.52"/>
<polygon fill="#63b8ff" stroke="#63b8ff" points="550.13,-32.59 546.63,-22.59 543.13,-32.59 550.13,-32.59"/>
</a>
</g>
</g>
<!-- Node14&#45;&gt;Node10 -->
<g id="edge22_Node000014_Node000010" class="edge">
<title>Node14&#45;&gt;Node10</title>
<g id="a_edge22_Node000014_Node000010"><a xlink:title=" ">
<path fill="none" stroke="#63b8ff" d="M525.87,-226.85C529.32,-200.48 539.05,-126.08 543.86,-89.28"/>
<polygon fill="#63b8ff" stroke="#63b8ff" points="547.32,-89.84 545.14,-79.47 540.37,-88.93 547.32,-89.84"/>
</a>
</g>
</g>
<!-- Node15 -->
<g id="Node000015" class="node">
<title>Node15</title>
<g id="a_Node000015"><a xlink:href="Matrix4_8hpp.html" target="_top" xlink:title="Defines the Matrix4 class for 3D transformation operations.">
<polygon fill="white" stroke="#666666" points="656.12,-191 553.12,-191 553.12,-170.25 656.12,-170.25 656.12,-191"/>
<text text-anchor="middle" x="604.62" y="-177.5" font-family="Helvetica,sans-Serif" font-size="10.00">math/Matrix4.hpp</text>
</a>
</g>
</g>
<!-- Node14&#45;&gt;Node15 -->
<g id="edge14_Node000014_Node000015" class="edge">
<title>Node14&#45;&gt;Node15</title>
<g id="a_edge14_Node000014_Node000015"><a xlink:title=" ">
<path fill="none" stroke="#63b8ff" d="M538.93,-226.59C550.64,-218.57 567.46,-207.06 581.15,-197.69"/>
<polygon fill="#63b8ff" stroke="#63b8ff" points="582.92,-200.72 589.2,-192.18 578.97,-194.94 582.92,-200.72"/>
</a>
</g>
</g>
<!-- Node16 -->
<g id="Node000016" class="node">
<title>Node16</title>
<g id="a_Node000016"><a xlink:href="Quaternion_8hpp.html" target="_top" xlink:title="Defines the Quaternion class for representing 3D rotations.">
<polygon fill="white" stroke="#666666" points="496.12,-134.25 405.12,-134.25 405.12,-113.5 496.12,-113.5 496.12,-134.25"/>
<text text-anchor="middle" x="450.62" y="-120.75" font-family="Helvetica,sans-Serif" font-size="10.00">Quaternion.hpp</text>
</a>
</g>
</g>
<!-- Node14&#45;&gt;Node16 -->
<g id="edge21_Node000014_Node000016" class="edge">
<title>Node14&#45;&gt;Node16</title>
<g id="a_edge21_Node000014_Node000016"><a xlink:title=" ">
<path fill="none" stroke="#63b8ff" d="M518.32,-226.87C506.2,-208.61 479.45,-168.31 463.45,-144.2"/>
<polygon fill="#63b8ff" stroke="#63b8ff" points="466.41,-142.33 457.97,-135.94 460.58,-146.2 466.41,-142.33"/>
</a>
</g>
</g>
<!-- Node15&#45;&gt;Node10 -->
<g id="edge18_Node000015_Node000010" class="edge">
<title>Node15&#45;&gt;Node10</title>
<g id="a_edge18_Node000015_Node000010"><a xlink:title=" ">
<path fill="none" stroke="#63b8ff" d="M599.68,-170.12C590.27,-152.02 569.6,-112.28 557.01,-88.1"/>
<polygon fill="#63b8ff" stroke="#63b8ff" points="560.14,-86.52 552.42,-79.27 553.93,-89.75 560.14,-86.52"/>
</a>
</g>
</g>
<!-- Node15&#45;&gt;Node12 -->
<g id="edge20_Node000015_Node000012" class="edge">
<title>Node15&#45;&gt;Node12</title>
<g id="a_edge20_Node000015_Node000012"><a xlink:title=" ">
<path fill="none" stroke="#63b8ff" d="M621.86,-169.78C633.8,-161.89 648.73,-149.6 655.62,-134.25 670.62,-100.83 660.67,-57.23 652.42,-31.96"/>
<polygon fill="#63b8ff" stroke="#63b8ff" points="655.74,-30.85 649.12,-22.58 649.13,-33.18 655.74,-30.85"/>
</a>
</g>
</g>
<!-- Node15&#45;&gt;Node16 -->
<g id="edge15_Node000015_Node000016" class="edge">
<title>Node15&#45;&gt;Node16</title>
<g id="a_edge15_Node000015_Node000016"><a xlink:title=" ">
<path fill="none" stroke="#63b8ff" d="M577.09,-169.84C552.53,-161.11 516.33,-148.23 488.94,-138.5"/>
<polygon fill="#63b8ff" stroke="#63b8ff" points="490.2,-135.23 479.6,-135.18 487.85,-141.83 490.2,-135.23"/>
</a>
</g>
</g>
<!-- Node17 -->
<g id="Node000017" class="node">
<title>Node17</title>
<g id="a_Node000017"><a xlink:title=" ">
<polygon fill="#e0e0e0" stroke="#999999" points="646.5,-134.25 590.75,-134.25 590.75,-113.5 646.5,-113.5 646.5,-134.25"/>
<text text-anchor="middle" x="618.62" y="-120.75" font-family="Helvetica,sans-Serif" font-size="10.00">iomanip</text>
</a>
</g>
</g>
<!-- Node15&#45;&gt;Node17 -->
<g id="edge19_Node000015_Node000017" class="edge">
<title>Node15&#45;&gt;Node17</title>
<g id="a_edge19_Node000015_Node000017"><a xlink:title=" ">
<path fill="none" stroke="#63b8ff" d="M607.13,-169.84C608.84,-163.14 611.17,-154.01 613.29,-145.73"/>
<polygon fill="#63b8ff" stroke="#63b8ff" points="616.68,-146.6 615.77,-136.04 609.9,-144.87 616.68,-146.6"/>
</a>
</g>
</g>
<!-- Node16&#45;&gt;Node10 -->
<g id="edge16_Node000016_Node000010" class="edge">
<title>Node16&#45;&gt;Node10</title>
<g id="a_edge16_Node000016_Node000010"><a xlink:title=" ">
<path fill="none" stroke="#63b8ff" d="M467.79,-113.09C482.26,-104.83 503.21,-92.88 519.88,-83.38"/>
<polygon fill="#63b8ff" stroke="#63b8ff" points="521.34,-86.57 528.3,-78.58 517.88,-80.49 521.34,-86.57"/>
</a>
</g>
</g>
<!-- Node16&#45;&gt;Node11 -->
<g id="edge17_Node000016_Node000011" class="edge">
<title>Node16&#45;&gt;Node11</title>
<g id="a_edge17_Node000016_Node000011"><a xlink:title=" ">
<path fill="none" stroke="#63b8ff" d="M452.76,-113.37C456.76,-95.52 465.48,-56.61 470.92,-32.34"/>
<polygon fill="#63b8ff" stroke="#63b8ff" points="474.32,-33.18 473.1,-22.65 467.49,-31.64 474.32,-33.18"/>
</a>
</g>
</g>
</g>
</svg>
