<?xml version="1.0" encoding="UTF-8" standalone="no"?>
<!DOCTYPE svg PUBLIC "-//W3C//DTD SVG 1.1//EN"
 "http://www.w3.org/Graphics/SVG/1.1/DTD/svg11.dtd">
<!-- Generated by graphviz version 2.43.0 (0)
 -->
<!-- Title: include/math/Quaternion.hpp Pages: 1 -->
<svg width="662pt" height="423pt"
 viewBox="0.00 0.00 662.00 423.00" xmlns="http://www.w3.org/2000/svg" xmlns:xlink="http://www.w3.org/1999/xlink">
<g id="graph0" class="graph" transform="scale(1 1) rotate(0) translate(4 419)">
<title>include/math/Quaternion.hpp</title>
<!-- Node1 -->
<g id="Node000001" class="node">
<title>Node1</title>
<g id="a_Node000001"><a xlink:title="Defines the Quaternion class for representing 3D rotations.">
<polygon fill="#999999" stroke="#666666" points="426,-415 268,-415 268,-396 426,-396 426,-415"/>
<text text-anchor="middle" x="347" y="-403" font-family="Helvetica,sans-Serif" font-size="10.00">include/math/Quaternion.hpp</text>
</a>
</g>
</g>
<!-- Node2 -->
<g id="Node000002" class="node">
<title>Node2</title>
<g id="a_Node000002"><a xlink:href="FrameEngine_8hpp_source.html" target="_top" xlink:title=" ">
<polygon fill="white" stroke="#666666" points="306,-19 166,-19 166,0 306,0 306,-19"/>
<text text-anchor="middle" x="236" y="-7" font-family="Helvetica,sans-Serif" font-size="10.00">include/FrameEngine.hpp</text>
</a>
</g>
</g>
<!-- Node1&#45;&gt;Node2 -->
<g id="edge1_Node000001_Node000002" class="edge">
<title>Node1&#45;&gt;Node2</title>
<g id="a_edge1_Node000001_Node000002"><a xlink:title=" ">
<path fill="none" stroke="#63b8ff" d="M266.75,-394.55C164.26,-379.56 0,-346.82 0,-291 0,-291 0,-291 0,-118.5 0,-44.83 96.26,-21.21 165.83,-13.76"/>
<polygon fill="#63b8ff" stroke="#63b8ff" points="266.38,-398.03 276.78,-395.99 267.38,-391.1 266.38,-398.03"/>
</a>
</g>
</g>
<!-- Node3 -->
<g id="Node000003" class="node">
<title>Node3</title>
<g id="a_Node000003"><a xlink:href="TransformComponent_8hpp.html" target="_top" xlink:title="Defines the TransformComponent for ECS&#45;based spatial transformations.">
<polygon fill="white" stroke="#666666" points="420,-305 274,-305 274,-275 420,-275 420,-305"/>
<text text-anchor="start" x="282" y="-293" font-family="Helvetica,sans-Serif" font-size="10.00">include/components</text>
<text text-anchor="middle" x="347" y="-282" font-family="Helvetica,sans-Serif" font-size="10.00">/TransformComponent.hpp</text>
</a>
</g>
</g>
<!-- Node1&#45;&gt;Node3 -->
<g id="edge2_Node000001_Node000003" class="edge">
<title>Node1&#45;&gt;Node3</title>
<g id="a_edge2_Node000001_Node000003"><a xlink:title=" ">
<path fill="none" stroke="#63b8ff" d="M347,-385.96C347,-363.34 347,-325.61 347,-305.18"/>
<polygon fill="#63b8ff" stroke="#63b8ff" points="343.5,-385.97 347,-395.97 350.5,-385.97 343.5,-385.97"/>
</a>
</g>
</g>
<!-- Node10 -->
<g id="Node000010" class="node">
<title>Node10</title>
<g id="a_Node000010"><a xlink:href="Matrix4_8hpp.html" target="_top" xlink:title="Defines the Matrix4 class for 3D transformation operations.">
<polygon fill="white" stroke="#666666" points="541,-360 399,-360 399,-341 541,-341 541,-360"/>
<text text-anchor="middle" x="470" y="-348" font-family="Helvetica,sans-Serif" font-size="10.00">include/math/Matrix4.hpp</text>
</a>
</g>
</g>
<!-- Node1&#45;&gt;Node10 -->
<g id="edge16_Node000001_Node000010" class="edge">
<title>Node1&#45;&gt;Node10</title>
<g id="a_edge16_Node000001_Node000010"><a xlink:title=" ">
<path fill="none" stroke="#63b8ff" d="M376.25,-391.9C398.97,-382.11 429.87,-368.79 449.88,-360.17"/>
<polygon fill="#63b8ff" stroke="#63b8ff" points="374.56,-388.81 366.76,-395.98 377.33,-395.24 374.56,-388.81"/>
</a>
</g>
</g>
<!-- Node4 -->
<g id="Node000004" class="node">
<title>Node4</title>
<g id="a_Node000004"><a xlink:href="Object_8hpp.html" target="_top" xlink:title="Defines the Object class, a special ECS entity wrapper.">
<polygon fill="white" stroke="#666666" points="234,-239 88,-239 88,-220 234,-220 234,-239"/>
<text text-anchor="middle" x="161" y="-227" font-family="Helvetica,sans-Serif" font-size="10.00">include/objects/Object.hpp</text>
</a>
</g>
</g>
<!-- Node3&#45;&gt;Node4 -->
<g id="edge3_Node000003_Node000004" class="edge">
<title>Node3&#45;&gt;Node4</title>
<g id="a_edge3_Node000003_Node000004"><a xlink:title=" ">
<path fill="none" stroke="#63b8ff" d="M292.57,-271.88C258.28,-261.09 215.49,-247.64 188.2,-239.05"/>
<polygon fill="#63b8ff" stroke="#63b8ff" points="291.86,-275.33 302.45,-274.99 293.96,-268.65 291.86,-275.33"/>
</a>
</g>
</g>
<!-- Node9 -->
<g id="Node000009" class="node">
<title>Node9</title>
<g id="a_Node000009"><a xlink:href="PhysicsSystem_8hpp.html" target="_top" xlink:title="Defines the PhysicsSystem.">
<polygon fill="white" stroke="#666666" points="441.5,-239 252.5,-239 252.5,-220 441.5,-220 441.5,-239"/>
<text text-anchor="middle" x="347" y="-227" font-family="Helvetica,sans-Serif" font-size="10.00">include/physics/PhysicsSystem.hpp</text>
</a>
</g>
</g>
<!-- Node3&#45;&gt;Node9 -->
<g id="edge15_Node000003_Node000009" class="edge">
<title>Node3&#45;&gt;Node9</title>
<g id="a_edge15_Node000003_Node000009"><a xlink:title=" ">
<path fill="none" stroke="#63b8ff" d="M347,-264.75C347,-255.72 347,-246.03 347,-239.27"/>
<polygon fill="#63b8ff" stroke="#63b8ff" points="343.5,-264.84 347,-274.84 350.5,-264.84 343.5,-264.84"/>
</a>
</g>
</g>
<!-- Node4&#45;&gt;Node2 -->
<g id="edge4_Node000004_Node000002" class="edge">
<title>Node4&#45;&gt;Node2</title>
<g id="a_edge4_Node000004_Node000002"><a xlink:title=" ">
<path fill="none" stroke="#63b8ff" d="M106.9,-217.26C75.77,-207.79 44.98,-191.44 57,-165 90.8,-90.63 180.21,-38.52 218.36,-19.01"/>
<polygon fill="#63b8ff" stroke="#63b8ff" points="105.96,-220.63 116.53,-219.98 107.86,-213.89 105.96,-220.63"/>
</a>
</g>
</g>
<!-- Node5 -->
<g id="Node000005" class="node">
<title>Node5</title>
<g id="a_Node000005"><a xlink:href="PointLight_8hpp_source.html" target="_top" xlink:title=" ">
<polygon fill="white" stroke="#666666" points="229.5,-184 66.5,-184 66.5,-165 229.5,-165 229.5,-184"/>
<text text-anchor="middle" x="148" y="-172" font-family="Helvetica,sans-Serif" font-size="10.00">include/objects/PointLight.hpp</text>
</a>
</g>
</g>
<!-- Node4&#45;&gt;Node5 -->
<g id="edge5_Node000004_Node000005" class="edge">
<title>Node4&#45;&gt;Node5</title>
<g id="a_edge5_Node000004_Node000005"><a xlink:title=" ">
<path fill="none" stroke="#63b8ff" d="M156.45,-209.95C154.29,-201.15 151.82,-191.06 150.11,-184.09"/>
<polygon fill="#63b8ff" stroke="#63b8ff" points="153.07,-210.87 158.85,-219.75 159.87,-209.2 153.07,-210.87"/>
</a>
</g>
</g>
<!-- Node6 -->
<g id="Node000006" class="node">
<title>Node6</title>
<g id="a_Node000006"><a xlink:href="Renderer_8hpp.html" target="_top" xlink:title="Manages the rendering pipeline and object submission.">
<polygon fill="white" stroke="#666666" points="343.5,-129 174.5,-129 174.5,-110 343.5,-110 343.5,-129"/>
<text text-anchor="middle" x="259" y="-117" font-family="Helvetica,sans-Serif" font-size="10.00">include/rendering/Renderer.hpp</text>
</a>
</g>
</g>
<!-- Node4&#45;&gt;Node6 -->
<g id="edge14_Node000004_Node000006" class="edge">
<title>Node4&#45;&gt;Node6</title>
<g id="a_edge14_Node000004_Node000006"><a xlink:title=" ">
<path fill="none" stroke="#63b8ff" d="M194.46,-215.74C209.6,-208.47 226.62,-197.98 238,-184 251.34,-167.61 256.33,-142.43 258.09,-129.24"/>
<polygon fill="#63b8ff" stroke="#63b8ff" points="193.01,-212.55 185.34,-219.85 195.89,-218.93 193.01,-212.55"/>
</a>
</g>
</g>
<!-- Node8 -->
<g id="Node000008" class="node">
<title>Node8</title>
<g id="a_Node000008"><a xlink:href="Camera_8hpp.html" target="_top" xlink:title="Defines the Camera class for view and projection.">
<polygon fill="white" stroke="#666666" points="450,-184 286,-184 286,-165 450,-165 450,-184"/>
<text text-anchor="middle" x="368" y="-172" font-family="Helvetica,sans-Serif" font-size="10.00">include/rendering/Camera.hpp</text>
</a>
</g>
</g>
<!-- Node4&#45;&gt;Node8 -->
<g id="edge11_Node000004_Node000008" class="edge">
<title>Node4&#45;&gt;Node8</title>
<g id="a_edge11_Node000004_Node000008"><a xlink:title=" ">
<path fill="none" stroke="#63b8ff" d="M204.21,-217.44C242.96,-207.52 299.03,-193.16 334.48,-184.08"/>
<polygon fill="#63b8ff" stroke="#63b8ff" points="203.08,-214.11 194.26,-219.98 204.81,-220.89 203.08,-214.11"/>
</a>
</g>
</g>
<!-- Node5&#45;&gt;Node2 -->
<g id="edge6_Node000005_Node000002" class="edge">
<title>Node5&#45;&gt;Node2</title>
<g id="a_edge6_Node000005_Node000002"><a xlink:title=" ">
<path fill="none" stroke="#63b8ff" d="M151.15,-154.88C153.79,-141.89 158.22,-124.37 165,-110 182.38,-73.15 213.63,-35.61 228.16,-19.14"/>
<polygon fill="#63b8ff" stroke="#63b8ff" points="147.67,-154.48 149.29,-164.95 154.55,-155.75 147.67,-154.48"/>
</a>
</g>
</g>
<!-- Node5&#45;&gt;Node6 -->
<g id="edge7_Node000005_Node000006" class="edge">
<title>Node5&#45;&gt;Node6</title>
<g id="a_edge7_Node000005_Node000006"><a xlink:title=" ">
<path fill="none" stroke="#63b8ff" d="M174.95,-160.63C195.39,-150.87 222.95,-137.71 240.84,-129.17"/>
<polygon fill="#63b8ff" stroke="#63b8ff" points="173.35,-157.52 165.83,-164.98 176.37,-163.83 173.35,-157.52"/>
</a>
</g>
</g>
<!-- Node6&#45;&gt;Node2 -->
<g id="edge10_Node000006_Node000002" class="edge">
<title>Node6&#45;&gt;Node2</title>
<g id="a_edge10_Node000006_Node000002"><a xlink:title=" ">
<path fill="none" stroke="#63b8ff" d="M237.48,-103.45C228.42,-95.8 218.86,-85.64 214,-74 206,-54.84 219.76,-31.62 228.89,-19.26"/>
<polygon fill="#63b8ff" stroke="#63b8ff" points="235.48,-106.33 245.51,-109.75 239.8,-100.83 235.48,-106.33"/>
</a>
</g>
</g>
<!-- Node7 -->
<g id="Node000007" class="node">
<title>Node7</title>
<g id="a_Node000007"><a xlink:href="Engine_8hpp.html" target="_top" xlink:title="Defines the core Engine class responsible for running simulation.">
<polygon fill="white" stroke="#666666" points="332.5,-74 223.5,-74 223.5,-55 332.5,-55 332.5,-74"/>
<text text-anchor="middle" x="278" y="-62" font-family="Helvetica,sans-Serif" font-size="10.00">include/Engine.hpp</text>
</a>
</g>
</g>
<!-- Node6&#45;&gt;Node7 -->
<g id="edge8_Node000006_Node000007" class="edge">
<title>Node6&#45;&gt;Node7</title>
<g id="a_edge8_Node000006_Node000007"><a xlink:title=" ">
<path fill="none" stroke="#63b8ff" d="M265.55,-100.24C268.72,-91.37 272.39,-81.14 274.92,-74.09"/>
<polygon fill="#63b8ff" stroke="#63b8ff" points="262.22,-99.15 262.14,-109.75 268.81,-101.52 262.22,-99.15"/>
</a>
</g>
</g>
<!-- Node7&#45;&gt;Node2 -->
<g id="edge9_Node000007_Node000002" class="edge">
<title>Node7&#45;&gt;Node2</title>
<g id="a_edge9_Node000007_Node000002"><a xlink:title=" ">
<path fill="none" stroke="#63b8ff" d="M264.67,-46.67C257.39,-37.5 248.7,-26.52 242.81,-19.09"/>
<polygon fill="#63b8ff" stroke="#63b8ff" points="262.11,-49.08 271.06,-54.75 267.6,-44.74 262.11,-49.08"/>
</a>
</g>
</g>
<!-- Node8&#45;&gt;Node2 -->
<g id="edge12_Node000008_Node000002" class="edge">
<title>Node8&#45;&gt;Node2</title>
<g id="a_edge12_Node000008_Node000002"><a xlink:title=" ">
<path fill="none" stroke="#63b8ff" d="M368.72,-154.75C368.7,-129.27 364.96,-83.62 341,-55 325.43,-36.4 300.72,-25.41 279.18,-19.01"/>
<polygon fill="#63b8ff" stroke="#63b8ff" points="365.22,-154.84 368.53,-164.9 372.22,-154.97 365.22,-154.84"/>
</a>
</g>
</g>
<!-- Node8&#45;&gt;Node6 -->
<g id="edge13_Node000008_Node000006" class="edge">
<title>Node8&#45;&gt;Node6</title>
<g id="a_edge13_Node000008_Node000006"><a xlink:title=" ">
<path fill="none" stroke="#63b8ff" d="M341.27,-160.5C321.21,-150.75 294.32,-137.68 276.83,-129.17"/>
<polygon fill="#63b8ff" stroke="#63b8ff" points="339.96,-163.76 350.49,-164.98 343.02,-157.46 339.96,-163.76"/>
</a>
</g>
</g>
<!-- Node10&#45;&gt;Node2 -->
<g id="edge17_Node000010_Node000002" class="edge">
<title>Node10&#45;&gt;Node2</title>
<g id="a_edge17_Node000010_Node000002"><a xlink:title=" ">
<path fill="none" stroke="#63b8ff" d="M524.87,-338.44C579.1,-323.93 654,-292.64 654,-230.5 654,-230.5 654,-230.5 654,-118.5 654,-47.58 425.56,-22.49 306.44,-14.23"/>
<polygon fill="#63b8ff" stroke="#63b8ff" points="523.83,-335.09 515.01,-340.95 525.57,-341.87 523.83,-335.09"/>
</a>
</g>
</g>
<!-- Node10&#45;&gt;Node3 -->
<g id="edge18_Node000010_Node000003" class="edge">
<title>Node10&#45;&gt;Node3</title>
<g id="a_edge18_Node000010_Node000003"><a xlink:title=" ">
<path fill="none" stroke="#63b8ff" d="M442.85,-336.59C423.31,-327.29 396.94,-314.75 376.81,-305.18"/>
<polygon fill="#63b8ff" stroke="#63b8ff" points="441.58,-339.86 452.11,-340.99 444.59,-333.54 441.58,-339.86"/>
</a>
</g>
</g>
<!-- Node10&#45;&gt;Node8 -->
<g id="edge19_Node000010_Node000008" class="edge">
<title>Node10&#45;&gt;Node8</title>
<g id="a_edge19_Node000010_Node000008"><a xlink:title=" ">
<path fill="none" stroke="#63b8ff" d="M471.98,-331C473.88,-304.04 473.61,-253.53 450,-220 437.51,-202.25 415.62,-190.89 397.61,-184.09"/>
<polygon fill="#63b8ff" stroke="#63b8ff" points="468.49,-330.72 471.1,-340.99 475.47,-331.34 468.49,-330.72"/>
</a>
</g>
</g>
<!-- Node11 -->
<g id="Node000011" class="node">
<title>Node11</title>
<g id="a_Node000011"><a xlink:href="Shader_8hpp.html" target="_top" xlink:title="Manages OpenGL shaders.">
<polygon fill="white" stroke="#666666" points="626,-184 468,-184 468,-165 626,-165 626,-184"/>
<text text-anchor="middle" x="547" y="-172" font-family="Helvetica,sans-Serif" font-size="10.00">include/rendering/Shader.hpp</text>
</a>
</g>
</g>
<!-- Node10&#45;&gt;Node11 -->
<g id="edge20_Node000010_Node000011" class="edge">
<title>Node10&#45;&gt;Node11</title>
<g id="a_edge20_Node000010_Node000011"><a xlink:title=" ">
<path fill="none" stroke="#63b8ff" d="M478.17,-331.04C494.64,-293.83 531.26,-211.07 543.17,-184.14"/>
<polygon fill="#63b8ff" stroke="#63b8ff" points="474.77,-330.07 473.92,-340.63 481.17,-332.9 474.77,-330.07"/>
</a>
</g>
</g>
<!-- Node11&#45;&gt;Node2 -->
<g id="edge21_Node000011_Node000002" class="edge">
<title>Node11&#45;&gt;Node2</title>
<g id="a_edge21_Node000011_Node000002"><a xlink:title=" ">
<path fill="none" stroke="#63b8ff" d="M527,-158.61C493.85,-134.43 424.83,-86.2 361,-55 329.65,-39.67 291.62,-26.9 265.81,-19.03"/>
<polygon fill="#63b8ff" stroke="#63b8ff" points="525.23,-161.65 535.36,-164.75 529.38,-156.01 525.23,-161.65"/>
</a>
</g>
</g>
<!-- Node11&#45;&gt;Node6 -->
<g id="edge22_Node000011_Node000006" class="edge">
<title>Node11&#45;&gt;Node6</title>
<g id="a_edge22_Node000011_Node000006"><a xlink:title=" ">
<path fill="none" stroke="#63b8ff" d="M490.63,-163.13C436.64,-153.19 356.12,-138.37 305.63,-129.08"/>
<polygon fill="#63b8ff" stroke="#63b8ff" points="490.26,-166.62 500.73,-164.98 491.53,-159.73 490.26,-166.62"/>
</a>
</g>
</g>
</g>
</svg>
