<?xml version="1.0" encoding="UTF-8" standalone="no"?>
<!DOCTYPE svg PUBLIC "-//W3C//DTD SVG 1.1//EN"
 "http://www.w3.org/Graphics/SVG/1.1/DTD/svg11.dtd">
<!-- Generated by graphviz version 2.43.0 (0)
 -->
<!-- Title: include/math/Quaternion.hpp Pages: 1 -->
<svg width="808pt" height="544pt"
 viewBox="0.00 0.00 807.61 544.00" xmlns="http://www.w3.org/2000/svg" xmlns:xlink="http://www.w3.org/1999/xlink">
<g id="graph0" class="graph" transform="scale(1 1) rotate(0) translate(4 540)">
<title>include/math/Quaternion.hpp</title>
<!-- Node1 -->
<g id="Node000001" class="node">
<title>Node1</title>
<g id="a_Node000001"><a xlink:title="Defines the Quaternion class for representing 3D rotations.">
<polygon fill="#999999" stroke="#666666" points="271,-536 113,-536 113,-517 271,-517 271,-536"/>
<text text-anchor="middle" x="192" y="-524" font-family="Helvetica,sans-Serif" font-size="10.00">include/math/Quaternion.hpp</text>
</a>
</g>
</g>
<!-- Node2 -->
<g id="Node000002" class="node">
<title>Node2</title>
<g id="a_Node000002"><a xlink:href="FrameEngine_8hpp_source.html" target="_top" xlink:title=" ">
<polygon fill="white" stroke="#666666" points="356,-19 216,-19 216,0 356,0 356,-19"/>
<text text-anchor="middle" x="286" y="-7" font-family="Helvetica,sans-Serif" font-size="10.00">include/FrameEngine.hpp</text>
</a>
</g>
</g>
<!-- Node1&#45;&gt;Node2 -->
<g id="edge1_Node000001_Node000002" class="edge">
<title>Node1&#45;&gt;Node2</title>
<g id="a_edge1_Node000001_Node000002"><a xlink:title=" ">
<path fill="none" stroke="#63b8ff" d="M126.88,-514.7C71.2,-501.3 0,-472.36 0,-412 0,-412 0,-412 0,-118.5 0,-82.02 20.64,-73.64 52,-55 101.68,-25.47 166.85,-14.92 215.8,-11.43"/>
<polygon fill="#63b8ff" stroke="#63b8ff" points="126.19,-518.13 136.72,-516.95 127.75,-511.31 126.19,-518.13"/>
</a>
</g>
</g>
<!-- Node3 -->
<g id="Node000003" class="node">
<title>Node3</title>
<g id="a_Node000003"><a xlink:href="TransformComponent_8hpp.html" target="_top" xlink:title="Defines the TransformComponent for ECS&#45;based spatial transformations.">
<polygon fill="white" stroke="#666666" points="498,-426 352,-426 352,-396 498,-396 498,-426"/>
<text text-anchor="start" x="360" y="-414" font-family="Helvetica,sans-Serif" font-size="10.00">include/components</text>
<text text-anchor="middle" x="425" y="-403" font-family="Helvetica,sans-Serif" font-size="10.00">/TransformComponent.hpp</text>
</a>
</g>
</g>
<!-- Node1&#45;&gt;Node3 -->
<g id="edge2_Node000001_Node000003" class="edge">
<title>Node1&#45;&gt;Node3</title>
<g id="a_edge2_Node000001_Node000003"><a xlink:title=" ">
<path fill="none" stroke="#63b8ff" d="M218.73,-512.48C262.79,-491.02 350.31,-448.38 395.89,-426.18"/>
<polygon fill="#63b8ff" stroke="#63b8ff" points="216.97,-509.44 209.51,-516.97 220.04,-515.74 216.97,-509.44"/>
</a>
</g>
</g>
<!-- Node11 -->
<g id="Node000011" class="node">
<title>Node11</title>
<g id="a_Node000011"><a xlink:href="Matrix4_8hpp.html" target="_top" xlink:title="Defines the Matrix4 class for 3D transformation operations.">
<polygon fill="white" stroke="#666666" points="263,-481 121,-481 121,-462 263,-462 263,-481"/>
<text text-anchor="middle" x="192" y="-469" font-family="Helvetica,sans-Serif" font-size="10.00">include/math/Matrix4.hpp</text>
</a>
</g>
</g>
<!-- Node1&#45;&gt;Node11 -->
<g id="edge18_Node000001_Node000011" class="edge">
<title>Node1&#45;&gt;Node11</title>
<g id="a_edge18_Node000001_Node000011"><a xlink:title=" ">
<path fill="none" stroke="#63b8ff" d="M192,-506.66C192,-497.93 192,-487.99 192,-481.09"/>
<polygon fill="#63b8ff" stroke="#63b8ff" points="188.5,-506.75 192,-516.75 195.5,-506.75 188.5,-506.75"/>
</a>
</g>
</g>
<!-- Node4 -->
<g id="Node000004" class="node">
<title>Node4</title>
<g id="a_Node000004"><a xlink:href="Object_8hpp.html" target="_top" xlink:title="Defines the Object class, a special ECS entity wrapper.">
<polygon fill="white" stroke="#666666" points="517,-239 371,-239 371,-220 517,-220 517,-239"/>
<text text-anchor="middle" x="444" y="-227" font-family="Helvetica,sans-Serif" font-size="10.00">include/objects/Object.hpp</text>
</a>
</g>
</g>
<!-- Node3&#45;&gt;Node4 -->
<g id="edge3_Node000003_Node000004" class="edge">
<title>Node3&#45;&gt;Node4</title>
<g id="a_edge3_Node000003_Node000004"><a xlink:title=" ">
<path fill="none" stroke="#63b8ff" d="M508.32,-410.47C602.76,-409.02 748.12,-400.08 783,-360 861.26,-270.05 638.55,-242.32 517.09,-233.97"/>
<polygon fill="#63b8ff" stroke="#63b8ff" points="508.17,-406.97 498.21,-410.6 508.26,-413.97 508.17,-406.97"/>
</a>
</g>
</g>
<!-- Node9 -->
<g id="Node000009" class="node">
<title>Node9</title>
<g id="a_Node000009"><a xlink:href="PhysicsSystem_8hpp.html" target="_top" xlink:title="Defines the PhysicsSystem.">
<polygon fill="white" stroke="#666666" points="773.5,-360 584.5,-360 584.5,-341 773.5,-341 773.5,-360"/>
<text text-anchor="middle" x="679" y="-348" font-family="Helvetica,sans-Serif" font-size="10.00">include/physics/PhysicsSystem.hpp</text>
</a>
</g>
</g>
<!-- Node3&#45;&gt;Node9 -->
<g id="edge15_Node000003_Node000009" class="edge">
<title>Node3&#45;&gt;Node9</title>
<g id="a_edge15_Node000003_Node000009"><a xlink:title=" ">
<path fill="none" stroke="#63b8ff" d="M495.74,-393.71C543.14,-382.79 603.64,-368.86 641.86,-360.05"/>
<polygon fill="#63b8ff" stroke="#63b8ff" points="494.8,-390.33 485.84,-395.99 496.37,-397.15 494.8,-390.33"/>
</a>
</g>
</g>
<!-- Node10 -->
<g id="Node000010" class="node">
<title>Node10</title>
<g id="a_Node000010"><a xlink:href="LightingSystem_8hpp_source.html" target="_top" xlink:title=" ">
<polygon fill="white" stroke="#666666" points="369.5,-305 226.5,-305 226.5,-275 369.5,-275 369.5,-305"/>
<text text-anchor="start" x="234.5" y="-293" font-family="Helvetica,sans-Serif" font-size="10.00">include/rendering/Lighting</text>
<text text-anchor="middle" x="298" y="-282" font-family="Helvetica,sans-Serif" font-size="10.00">System.hpp</text>
</a>
</g>
</g>
<!-- Node3&#45;&gt;Node10 -->
<g id="edge16_Node000003_Node000010" class="edge">
<title>Node3&#45;&gt;Node10</title>
<g id="a_edge16_Node000003_Node000010"><a xlink:title=" ">
<path fill="none" stroke="#63b8ff" d="M362.74,-392.06C345.89,-384.55 329,-374.17 317,-360 303.75,-344.36 299.68,-320.22 298.47,-305.03"/>
<polygon fill="#63b8ff" stroke="#63b8ff" points="361.5,-395.33 372.08,-395.94 364.19,-388.86 361.5,-395.33"/>
</a>
</g>
</g>
<!-- Node4&#45;&gt;Node2 -->
<g id="edge4_Node000004_Node000002" class="edge">
<title>Node4&#45;&gt;Node2</title>
<g id="a_edge4_Node000004_Node000002"><a xlink:title=" ">
<path fill="none" stroke="#63b8ff" d="M489.08,-216.67C517.18,-206.64 546.07,-189.88 535,-165 496.23,-77.84 380.68,-35.48 321.62,-19.05"/>
<polygon fill="#63b8ff" stroke="#63b8ff" points="487.62,-213.46 479.24,-219.93 489.83,-220.1 487.62,-213.46"/>
</a>
</g>
</g>
<!-- Node5 -->
<g id="Node000005" class="node">
<title>Node5</title>
<g id="a_Node000005"><a xlink:href="PointLight_8hpp_source.html" target="_top" xlink:title=" ">
<polygon fill="white" stroke="#666666" points="525.5,-184 362.5,-184 362.5,-165 525.5,-165 525.5,-184"/>
<text text-anchor="middle" x="444" y="-172" font-family="Helvetica,sans-Serif" font-size="10.00">include/objects/PointLight.hpp</text>
</a>
</g>
</g>
<!-- Node4&#45;&gt;Node5 -->
<g id="edge5_Node000004_Node000005" class="edge">
<title>Node4&#45;&gt;Node5</title>
<g id="a_edge5_Node000004_Node000005"><a xlink:title=" ">
<path fill="none" stroke="#63b8ff" d="M444,-209.66C444,-200.93 444,-190.99 444,-184.09"/>
<polygon fill="#63b8ff" stroke="#63b8ff" points="440.5,-209.75 444,-219.75 447.5,-209.75 440.5,-209.75"/>
</a>
</g>
</g>
<!-- Node6 -->
<g id="Node000006" class="node">
<title>Node6</title>
<g id="a_Node000006"><a xlink:href="Renderer_8hpp.html" target="_top" xlink:title="Manages the rendering pipeline and object submission.">
<polygon fill="white" stroke="#666666" points="380.5,-129 211.5,-129 211.5,-110 380.5,-110 380.5,-129"/>
<text text-anchor="middle" x="296" y="-117" font-family="Helvetica,sans-Serif" font-size="10.00">include/rendering/Renderer.hpp</text>
</a>
</g>
</g>
<!-- Node4&#45;&gt;Node6 -->
<g id="edge14_Node000004_Node000006" class="edge">
<title>Node4&#45;&gt;Node6</title>
<g id="a_edge14_Node000004_Node000006"><a xlink:title=" ">
<path fill="none" stroke="#63b8ff" d="M410.99,-216.01C392.9,-208.3 370.64,-197.33 353,-184 331.49,-167.75 311.75,-142.51 302.14,-129.28"/>
<polygon fill="#63b8ff" stroke="#63b8ff" points="409.97,-219.38 420.55,-219.96 412.64,-212.91 409.97,-219.38"/>
</a>
</g>
</g>
<!-- Node8 -->
<g id="Node000008" class="node">
<title>Node8</title>
<g id="a_Node000008"><a xlink:href="Camera_8hpp.html" target="_top" xlink:title="Defines the Camera class for view and projection.">
<polygon fill="white" stroke="#666666" points="230,-184 66,-184 66,-165 230,-165 230,-184"/>
<text text-anchor="middle" x="148" y="-172" font-family="Helvetica,sans-Serif" font-size="10.00">include/rendering/Camera.hpp</text>
</a>
</g>
</g>
<!-- Node4&#45;&gt;Node8 -->
<g id="edge11_Node000004_Node000008" class="edge">
<title>Node4&#45;&gt;Node8</title>
<g id="a_edge11_Node000004_Node000008"><a xlink:title=" ">
<path fill="none" stroke="#63b8ff" d="M386.41,-218.19C330.92,-208.25 247.93,-193.39 195.93,-184.08"/>
<polygon fill="#63b8ff" stroke="#63b8ff" points="385.98,-221.67 396.44,-219.98 387.22,-214.78 385.98,-221.67"/>
</a>
</g>
</g>
<!-- Node5&#45;&gt;Node2 -->
<g id="edge6_Node000005_Node000002" class="edge">
<title>Node5&#45;&gt;Node2</title>
<g id="a_edge6_Node000005_Node000002"><a xlink:title=" ">
<path fill="none" stroke="#63b8ff" d="M440.18,-154.89C434.03,-129.25 419.6,-83.04 391,-55 372.55,-36.91 345.63,-25.7 323.66,-19.06"/>
<polygon fill="#63b8ff" stroke="#63b8ff" points="436.8,-155.8 442.39,-164.8 443.63,-154.28 436.8,-155.8"/>
</a>
</g>
</g>
<!-- Node5&#45;&gt;Node6 -->
<g id="edge7_Node000005_Node000006" class="edge">
<title>Node5&#45;&gt;Node6</title>
<g id="a_edge7_Node000005_Node000006"><a xlink:title=" ">
<path fill="none" stroke="#63b8ff" d="M410.63,-161.55C383.15,-151.71 344.83,-137.98 320.21,-129.17"/>
<polygon fill="#63b8ff" stroke="#63b8ff" points="409.63,-164.91 420.22,-164.98 411.99,-158.32 409.63,-164.91"/>
</a>
</g>
</g>
<!-- Node6&#45;&gt;Node2 -->
<g id="edge10_Node000006_Node000002" class="edge">
<title>Node6&#45;&gt;Node2</title>
<g id="a_edge10_Node000006_Node000002"><a xlink:title=" ">
<path fill="none" stroke="#63b8ff" d="M280.55,-102.26C274.1,-94.38 267.34,-84.38 264,-74 257.63,-54.23 270.75,-31.25 279.34,-19.09"/>
<polygon fill="#63b8ff" stroke="#63b8ff" points="278.03,-104.69 287.25,-109.9 283.29,-100.08 278.03,-104.69"/>
</a>
</g>
</g>
<!-- Node7 -->
<g id="Node000007" class="node">
<title>Node7</title>
<g id="a_Node000007"><a xlink:href="Engine_8hpp.html" target="_top" xlink:title="Defines the core Engine class responsible for running simulation.">
<polygon fill="white" stroke="#666666" points="382.5,-74 273.5,-74 273.5,-55 382.5,-55 382.5,-74"/>
<text text-anchor="middle" x="328" y="-62" font-family="Helvetica,sans-Serif" font-size="10.00">include/Engine.hpp</text>
</a>
</g>
</g>
<!-- Node6&#45;&gt;Node7 -->
<g id="edge8_Node000006_Node000007" class="edge">
<title>Node6&#45;&gt;Node7</title>
<g id="a_edge8_Node000006_Node000007"><a xlink:title=" ">
<path fill="none" stroke="#63b8ff" d="M306.5,-101.1C311.97,-92.04 318.42,-81.37 322.81,-74.09"/>
<polygon fill="#63b8ff" stroke="#63b8ff" points="303.46,-99.38 301.28,-109.75 309.45,-103 303.46,-99.38"/>
</a>
</g>
</g>
<!-- Node7&#45;&gt;Node2 -->
<g id="edge9_Node000007_Node000002" class="edge">
<title>Node7&#45;&gt;Node2</title>
<g id="a_edge9_Node000007_Node000002"><a xlink:title=" ">
<path fill="none" stroke="#63b8ff" d="M314.67,-46.67C307.39,-37.5 298.7,-26.52 292.81,-19.09"/>
<polygon fill="#63b8ff" stroke="#63b8ff" points="312.11,-49.08 321.06,-54.75 317.6,-44.74 312.11,-49.08"/>
</a>
</g>
</g>
<!-- Node8&#45;&gt;Node2 -->
<g id="edge12_Node000008_Node000002" class="edge">
<title>Node8&#45;&gt;Node2</title>
<g id="a_edge12_Node000008_Node000002"><a xlink:title=" ">
<path fill="none" stroke="#63b8ff" d="M161.92,-157.05C190.81,-122.93 256.41,-45.45 278.54,-19.31"/>
<polygon fill="#63b8ff" stroke="#63b8ff" points="159.21,-154.84 155.42,-164.74 164.55,-159.37 159.21,-154.84"/>
</a>
</g>
</g>
<!-- Node8&#45;&gt;Node6 -->
<g id="edge13_Node000008_Node000006" class="edge">
<title>Node8&#45;&gt;Node6</title>
<g id="a_edge13_Node000008_Node000006"><a xlink:title=" ">
<path fill="none" stroke="#63b8ff" d="M181.37,-161.55C208.85,-151.71 247.17,-137.98 271.79,-129.17"/>
<polygon fill="#63b8ff" stroke="#63b8ff" points="180.01,-158.32 171.78,-164.98 182.37,-164.91 180.01,-158.32"/>
</a>
</g>
</g>
<!-- Node10&#45;&gt;Node6 -->
<g id="edge17_Node000010_Node000006" class="edge">
<title>Node10&#45;&gt;Node6</title>
<g id="a_edge17_Node000010_Node000006"><a xlink:title=" ">
<path fill="none" stroke="#63b8ff" d="M297.71,-264.69C297.26,-226.5 296.4,-154.23 296.1,-129.25"/>
<polygon fill="#63b8ff" stroke="#63b8ff" points="294.21,-264.97 297.83,-274.92 301.21,-264.88 294.21,-264.97"/>
</a>
</g>
</g>
<!-- Node11&#45;&gt;Node2 -->
<g id="edge19_Node000011_Node000002" class="edge">
<title>Node11&#45;&gt;Node2</title>
<g id="a_edge19_Node000011_Node000002"><a xlink:title=" ">
<path fill="none" stroke="#63b8ff" d="M151.56,-458.69C105.93,-442.58 38,-408.95 38,-351.5 38,-351.5 38,-351.5 38,-118.5 38,-40.43 142.59,-18.21 215.93,-12.23"/>
<polygon fill="#63b8ff" stroke="#63b8ff" points="150.61,-462.06 161.21,-461.95 152.86,-455.43 150.61,-462.06"/>
</a>
</g>
</g>
<!-- Node11&#45;&gt;Node3 -->
<g id="edge20_Node000011_Node000003" class="edge">
<title>Node11&#45;&gt;Node3</title>
<g id="a_edge20_Node000011_Node000003"><a xlink:title=" ">
<path fill="none" stroke="#63b8ff" d="M236.04,-459.44C273.73,-449.98 328.2,-436.3 368.98,-426.06"/>
<polygon fill="#63b8ff" stroke="#63b8ff" points="234.73,-456.16 225.88,-461.99 236.43,-462.95 234.73,-456.16"/>
</a>
</g>
</g>
<!-- Node11&#45;&gt;Node8 -->
<g id="edge21_Node000011_Node000008" class="edge">
<title>Node11&#45;&gt;Node8</title>
<g id="a_edge21_Node000011_Node000008"><a xlink:title=" ">
<path fill="none" stroke="#63b8ff" d="M180.89,-453.22C176.1,-445.19 170.75,-435.36 167,-426 154.3,-394.28 148,-385.67 148,-351.5 148,-351.5 148,-351.5 148,-289 148,-249.79 148,-202.95 148,-184.04"/>
<polygon fill="#63b8ff" stroke="#63b8ff" points="178.07,-455.31 186.31,-461.97 184.02,-451.63 178.07,-455.31"/>
</a>
</g>
</g>
<!-- Node12 -->
<g id="Node000012" class="node">
<title>Node12</title>
<g id="a_Node000012"><a xlink:href="Shader_8hpp.html" target="_top" xlink:title="Manages OpenGL shaders.">
<polygon fill="white" stroke="#666666" points="334,-420.5 176,-420.5 176,-401.5 334,-401.5 334,-420.5"/>
<text text-anchor="middle" x="255" y="-408.5" font-family="Helvetica,sans-Serif" font-size="10.00">include/rendering/Shader.hpp</text>
</a>
</g>
</g>
<!-- Node11&#45;&gt;Node12 -->
<g id="edge22_Node000011_Node000012" class="edge">
<title>Node11&#45;&gt;Node12</title>
<g id="a_edge22_Node000011_Node000012"><a xlink:title=" ">
<path fill="none" stroke="#63b8ff" d="M208.79,-454.91C220.6,-443.94 235.97,-429.67 245.67,-420.67"/>
<polygon fill="#63b8ff" stroke="#63b8ff" points="206.24,-452.5 201.3,-461.87 211.01,-457.63 206.24,-452.5"/>
</a>
</g>
</g>
<!-- Node12&#45;&gt;Node2 -->
<g id="edge23_Node000012_Node000002" class="edge">
<title>Node12&#45;&gt;Node2</title>
<g id="a_edge23_Node000012_Node000002"><a xlink:title=" ">
<path fill="none" stroke="#63b8ff" d="M312.77,-399.67C380.01,-387.42 484.04,-367.7 501,-360 565.05,-330.9 592,-300.84 592,-230.5 592,-230.5 592,-230.5 592,-118.5 592,-66.67 433.92,-33.55 345,-19.02"/>
<polygon fill="#63b8ff" stroke="#63b8ff" points="311.94,-396.26 302.73,-401.49 313.19,-403.15 311.94,-396.26"/>
</a>
</g>
</g>
<!-- Node12&#45;&gt;Node6 -->
<g id="edge28_Node000012_Node000006" class="edge">
<title>Node12&#45;&gt;Node6</title>
<g id="a_edge28_Node000012_Node000006"><a xlink:title=" ">
<path fill="none" stroke="#63b8ff" d="M244.04,-392.3C229.49,-366.61 206.78,-317.42 217,-275 231.46,-214.96 273.42,-152 289.56,-129.3"/>
<polygon fill="#63b8ff" stroke="#63b8ff" points="241.2,-394.38 249.3,-401.22 247.23,-390.82 241.2,-394.38"/>
</a>
</g>
</g>
<!-- Node13 -->
<g id="Node000013" class="node">
<title>Node13</title>
<g id="a_Node000013"><a xlink:href="Material_8hpp_source.html" target="_top" xlink:title=" ">
<polygon fill="white" stroke="#666666" points="492,-360 326,-360 326,-341 492,-341 492,-360"/>
<text text-anchor="middle" x="409" y="-348" font-family="Helvetica,sans-Serif" font-size="10.00">include/rendering/Material.hpp</text>
</a>
</g>
</g>
<!-- Node12&#45;&gt;Node13 -->
<g id="edge24_Node000012_Node000013" class="edge">
<title>Node12&#45;&gt;Node13</title>
<g id="a_edge24_Node000012_Node000013"><a xlink:title=" ">
<path fill="none" stroke="#63b8ff" d="M286.91,-397.88C316.68,-386.57 360.34,-369.99 386.58,-360.02"/>
<polygon fill="#63b8ff" stroke="#63b8ff" points="285.5,-394.67 277.39,-401.49 287.98,-401.21 285.5,-394.67"/>
</a>
</g>
</g>
<!-- Node13&#45;&gt;Node4 -->
<g id="edge27_Node000013_Node000004" class="edge">
<title>Node13&#45;&gt;Node4</title>
<g id="a_edge27_Node000013_Node000004"><a xlink:title=" ">
<path fill="none" stroke="#63b8ff" d="M408.77,-330.72C409.12,-315.35 410.82,-293.26 417,-275 421.57,-261.48 430.79,-247.69 437.17,-239.12"/>
<polygon fill="#63b8ff" stroke="#63b8ff" points="405.27,-330.96 408.73,-340.98 412.27,-330.99 405.27,-330.96"/>
</a>
</g>
</g>
<!-- Node14 -->
<g id="Node000014" class="node">
<title>Node14</title>
<g id="a_Node000014"><a xlink:href="MaterialComponent_8hpp_source.html" target="_top" xlink:title=" ">
<polygon fill="white" stroke="#666666" points="563.5,-305 426.5,-305 426.5,-275 563.5,-275 563.5,-305"/>
<text text-anchor="start" x="434.5" y="-293" font-family="Helvetica,sans-Serif" font-size="10.00">include/components</text>
<text text-anchor="middle" x="495" y="-282" font-family="Helvetica,sans-Serif" font-size="10.00">/MaterialComponent.hpp</text>
</a>
</g>
</g>
<!-- Node13&#45;&gt;Node14 -->
<g id="edge25_Node000013_Node000014" class="edge">
<title>Node13&#45;&gt;Node14</title>
<g id="a_edge25_Node000013_Node000014"><a xlink:title=" ">
<path fill="none" stroke="#63b8ff" d="M430.27,-335.03C443.69,-325.9 460.93,-314.17 474.25,-305.11"/>
<polygon fill="#63b8ff" stroke="#63b8ff" points="427.99,-332.35 421.69,-340.87 431.93,-338.14 427.99,-332.35"/>
</a>
</g>
</g>
<!-- Node14&#45;&gt;Node4 -->
<g id="edge26_Node000014_Node000004" class="edge">
<title>Node14&#45;&gt;Node4</title>
<g id="a_edge26_Node000014_Node000004"><a xlink:title=" ">
<path fill="none" stroke="#63b8ff" d="M475.9,-267.09C467.47,-257.42 458.05,-246.61 451.64,-239.27"/>
<polygon fill="#63b8ff" stroke="#63b8ff" points="473.44,-269.6 482.65,-274.84 478.72,-265 473.44,-269.6"/>
</a>
</g>
</g>
</g>
</svg>
