<?xml version="1.0" encoding="UTF-8" standalone="no"?>
<!DOCTYPE svg PUBLIC "-//W3C//DTD SVG 1.1//EN"
 "http://www.w3.org/Graphics/SVG/1.1/DTD/svg11.dtd">
<!-- Generated by graphviz version 2.43.0 (0)
 -->
<!-- Title: include/math/Quaternion.hpp Pages: 1 -->
<svg width="585pt" height="368pt"
 viewBox="0.00 0.00 584.50 368.00" xmlns="http://www.w3.org/2000/svg" xmlns:xlink="http://www.w3.org/1999/xlink">
<g id="graph0" class="graph" transform="scale(1 1) rotate(0) translate(4 364)">
<title>include/math/Quaternion.hpp</title>
<!-- Node1 -->
<g id="Node000001" class="node">
<title>Node1</title>
<g id="a_Node000001"><a xlink:title="Defines the Quaternion class for representing 3D rotations.">
<polygon fill="#999999" stroke="#666666" points="407.5,-360 249.5,-360 249.5,-341 407.5,-341 407.5,-360"/>
<text text-anchor="middle" x="328.5" y="-348" font-family="Helvetica,sans-Serif" font-size="10.00">include/math/Quaternion.hpp</text>
</a>
</g>
</g>
<!-- Node2 -->
<g id="Node000002" class="node">
<title>Node2</title>
<g id="a_Node000002"><a xlink:href="TransformComponent_8hpp.html" target="_top" xlink:title="Defines the TransformComponent for ECS&#45;based spatial transformations.">
<polygon fill="white" stroke="#666666" points="351.5,-250 205.5,-250 205.5,-220 351.5,-220 351.5,-250"/>
<text text-anchor="start" x="213.5" y="-238" font-family="Helvetica,sans-Serif" font-size="10.00">include/components</text>
<text text-anchor="middle" x="278.5" y="-227" font-family="Helvetica,sans-Serif" font-size="10.00">/TransformComponent.hpp</text>
</a>
</g>
</g>
<!-- Node1&#45;&gt;Node2 -->
<g id="edge1_Node000001_Node000002" class="edge">
<title>Node1&#45;&gt;Node2</title>
<g id="a_edge1_Node000001_Node000002"><a xlink:title=" ">
<path fill="none" stroke="#63b8ff" d="M315.32,-332.66C309.53,-324.64 303.03,-314.69 298.5,-305 290.04,-286.93 284.34,-264.49 281.26,-250.21"/>
<polygon fill="#63b8ff" stroke="#63b8ff" points="312.62,-334.89 321.42,-340.79 318.22,-330.69 312.62,-334.89"/>
</a>
</g>
</g>
<!-- Node9 -->
<g id="Node000009" class="node">
<title>Node9</title>
<g id="a_Node000009"><a xlink:href="Matrix4_8hpp.html" target="_top" xlink:title="Defines the Matrix4 class for 3D transformation operations.">
<polygon fill="white" stroke="#666666" points="449.5,-305 307.5,-305 307.5,-286 449.5,-286 449.5,-305"/>
<text text-anchor="middle" x="378.5" y="-293" font-family="Helvetica,sans-Serif" font-size="10.00">include/math/Matrix4.hpp</text>
</a>
</g>
</g>
<!-- Node1&#45;&gt;Node9 -->
<g id="edge10_Node000001_Node000009" class="edge">
<title>Node1&#45;&gt;Node9</title>
<g id="a_edge10_Node000001_Node000009"><a xlink:title=" ">
<path fill="none" stroke="#63b8ff" d="M343.84,-333.24C352.6,-323.95 363.24,-312.68 370.4,-305.09"/>
<polygon fill="#63b8ff" stroke="#63b8ff" points="341.07,-331.07 336.76,-340.75 346.16,-335.88 341.07,-331.07"/>
</a>
</g>
</g>
<!-- Node3 -->
<g id="Node000003" class="node">
<title>Node3</title>
<g id="a_Node000003"><a xlink:href="Object_8hpp.html" target="_top" xlink:title="Defines the Object class, a special ECS entity wrapper.">
<polygon fill="white" stroke="#666666" points="154.5,-184 8.5,-184 8.5,-165 154.5,-165 154.5,-184"/>
<text text-anchor="middle" x="81.5" y="-172" font-family="Helvetica,sans-Serif" font-size="10.00">include/objects/Object.hpp</text>
</a>
</g>
</g>
<!-- Node2&#45;&gt;Node3 -->
<g id="edge2_Node000002_Node000003" class="edge">
<title>Node2&#45;&gt;Node3</title>
<g id="a_edge2_Node000002_Node000003"><a xlink:title=" ">
<path fill="none" stroke="#63b8ff" d="M221.31,-217.02C184.92,-206.21 139.33,-192.67 110.3,-184.05"/>
<polygon fill="#63b8ff" stroke="#63b8ff" points="220.73,-220.5 231.31,-219.99 222.72,-213.79 220.73,-220.5"/>
</a>
</g>
</g>
<!-- Node8 -->
<g id="Node000008" class="node">
<title>Node8</title>
<g id="a_Node000008"><a xlink:href="PhysicsSystem_8hpp.html" target="_top" xlink:title="Defines the PhysicsSystem.">
<polygon fill="white" stroke="#666666" points="362,-184 173,-184 173,-165 362,-165 362,-184"/>
<text text-anchor="middle" x="267.5" y="-172" font-family="Helvetica,sans-Serif" font-size="10.00">include/physics/PhysicsSystem.hpp</text>
</a>
</g>
</g>
<!-- Node2&#45;&gt;Node8 -->
<g id="edge9_Node000002_Node000008" class="edge">
<title>Node2&#45;&gt;Node8</title>
<g id="a_edge9_Node000002_Node000008"><a xlink:title=" ">
<path fill="none" stroke="#63b8ff" d="M273.94,-209.75C272.24,-200.72 270.42,-191.03 269.15,-184.27"/>
<polygon fill="#63b8ff" stroke="#63b8ff" points="270.55,-210.66 275.84,-219.84 277.43,-209.36 270.55,-210.66"/>
</a>
</g>
</g>
<!-- Node4 -->
<g id="Node000004" class="node">
<title>Node4</title>
<g id="a_Node000004"><a xlink:href="PointLight_8hpp_source.html" target="_top" xlink:title=" ">
<polygon fill="white" stroke="#666666" points="163,-129 0,-129 0,-110 163,-110 163,-129"/>
<text text-anchor="middle" x="81.5" y="-117" font-family="Helvetica,sans-Serif" font-size="10.00">include/objects/PointLight.hpp</text>
</a>
</g>
</g>
<!-- Node3&#45;&gt;Node4 -->
<g id="edge3_Node000003_Node000004" class="edge">
<title>Node3&#45;&gt;Node4</title>
<g id="a_edge3_Node000003_Node000004"><a xlink:title=" ">
<path fill="none" stroke="#63b8ff" d="M81.5,-154.66C81.5,-145.93 81.5,-135.99 81.5,-129.09"/>
<polygon fill="#63b8ff" stroke="#63b8ff" points="78,-154.75 81.5,-164.75 85,-154.75 78,-154.75"/>
</a>
</g>
</g>
<!-- Node5 -->
<g id="Node000005" class="node">
<title>Node5</title>
<g id="a_Node000005"><a xlink:href="Renderer_8hpp.html" target="_top" xlink:title="Manages the rendering pipeline and object submission.">
<polygon fill="white" stroke="#666666" points="331,-74 162,-74 162,-55 331,-55 331,-74"/>
<text text-anchor="middle" x="246.5" y="-62" font-family="Helvetica,sans-Serif" font-size="10.00">include/rendering/Renderer.hpp</text>
</a>
</g>
</g>
<!-- Node3&#45;&gt;Node5 -->
<g id="edge8_Node000003_Node000005" class="edge">
<title>Node3&#45;&gt;Node5</title>
<g id="a_edge8_Node000003_Node000005"><a xlink:title=" ">
<path fill="none" stroke="#63b8ff" d="M111.7,-160.8C129.67,-152.7 152.57,-141.43 171.5,-129 197.46,-111.96 224.41,-87.05 237.83,-74.08"/>
<polygon fill="#63b8ff" stroke="#63b8ff" points="110.03,-157.71 102.29,-164.95 112.85,-164.12 110.03,-157.71"/>
</a>
</g>
</g>
<!-- Node7 -->
<g id="Node000007" class="node">
<title>Node7</title>
<g id="a_Node000007"><a xlink:href="Camera_8hpp.html" target="_top" xlink:title="Defines the Camera class for view and projection.">
<polygon fill="white" stroke="#666666" points="383.5,-129 219.5,-129 219.5,-110 383.5,-110 383.5,-129"/>
<text text-anchor="middle" x="301.5" y="-117" font-family="Helvetica,sans-Serif" font-size="10.00">include/rendering/Camera.hpp</text>
</a>
</g>
</g>
<!-- Node3&#45;&gt;Node7 -->
<g id="edge6_Node000003_Node000007" class="edge">
<title>Node3&#45;&gt;Node7</title>
<g id="a_edge6_Node000003_Node000007"><a xlink:title=" ">
<path fill="none" stroke="#63b8ff" d="M126.63,-162.63C167.84,-152.7 227.95,-138.22 265.88,-129.08"/>
<polygon fill="#63b8ff" stroke="#63b8ff" points="125.75,-159.24 116.85,-164.98 127.39,-166.05 125.75,-159.24"/>
</a>
</g>
</g>
<!-- Node4&#45;&gt;Node5 -->
<g id="edge4_Node000004_Node000005" class="edge">
<title>Node4&#45;&gt;Node5</title>
<g id="a_edge4_Node000004_Node000005"><a xlink:title=" ">
<path fill="none" stroke="#63b8ff" d="M117.93,-106.8C148.72,-96.91 192.12,-82.97 219.78,-74.08"/>
<polygon fill="#63b8ff" stroke="#63b8ff" points="116.46,-103.59 108.01,-109.98 118.6,-110.26 116.46,-103.59"/>
</a>
</g>
</g>
<!-- Node6 -->
<g id="Node000006" class="node">
<title>Node6</title>
<g id="a_Node000006"><a xlink:href="Engine_8hpp.html" target="_top" xlink:title="Defines the core Engine class responsible for running simulation.">
<polygon fill="white" stroke="#666666" points="301,-19 192,-19 192,0 301,0 301,-19"/>
<text text-anchor="middle" x="246.5" y="-7" font-family="Helvetica,sans-Serif" font-size="10.00">include/Engine.hpp</text>
</a>
</g>
</g>
<!-- Node5&#45;&gt;Node6 -->
<g id="edge5_Node000005_Node000006" class="edge">
<title>Node5&#45;&gt;Node6</title>
<g id="a_edge5_Node000005_Node000006"><a xlink:title=" ">
<path fill="none" stroke="#63b8ff" d="M246.5,-44.66C246.5,-35.93 246.5,-25.99 246.5,-19.09"/>
<polygon fill="#63b8ff" stroke="#63b8ff" points="243,-44.75 246.5,-54.75 250,-44.75 243,-44.75"/>
</a>
</g>
</g>
<!-- Node7&#45;&gt;Node5 -->
<g id="edge7_Node000007_Node000005" class="edge">
<title>Node7&#45;&gt;Node5</title>
<g id="a_edge7_Node000007_Node000005"><a xlink:title=" ">
<path fill="none" stroke="#63b8ff" d="M285.21,-102.8C275.46,-93.41 263.45,-81.83 255.41,-74.09"/>
<polygon fill="#63b8ff" stroke="#63b8ff" points="282.79,-105.33 292.42,-109.75 287.65,-100.29 282.79,-105.33"/>
</a>
</g>
</g>
<!-- Node9&#45;&gt;Node2 -->
<g id="edge11_Node000009_Node000002" class="edge">
<title>Node9&#45;&gt;Node2</title>
<g id="a_edge11_Node000009_Node000002"><a xlink:title=" ">
<path fill="none" stroke="#63b8ff" d="M355.1,-280.81C339.33,-271.58 318.56,-259.43 302.63,-250.11"/>
<polygon fill="#63b8ff" stroke="#63b8ff" points="353.35,-283.84 363.74,-285.87 356.88,-277.8 353.35,-283.84"/>
</a>
</g>
</g>
<!-- Node9&#45;&gt;Node7 -->
<g id="edge12_Node000009_Node000007" class="edge">
<title>Node9&#45;&gt;Node7</title>
<g id="a_edge12_Node000009_Node000007"><a xlink:title=" ">
<path fill="none" stroke="#63b8ff" d="M382.27,-276.01C386.65,-249.45 390.92,-199.86 370.5,-165 360.41,-147.78 340.72,-136.09 324.95,-129.02"/>
<polygon fill="#63b8ff" stroke="#63b8ff" points="378.82,-275.4 380.45,-285.87 385.7,-276.67 378.82,-275.4"/>
</a>
</g>
</g>
<!-- Node10 -->
<g id="Node000010" class="node">
<title>Node10</title>
<g id="a_Node000010"><a xlink:href="Shader_8hpp.html" target="_top" xlink:title="Manages OpenGL shaders.">
<polygon fill="white" stroke="#666666" points="576.5,-244.5 418.5,-244.5 418.5,-225.5 576.5,-225.5 576.5,-244.5"/>
<text text-anchor="middle" x="497.5" y="-232.5" font-family="Helvetica,sans-Serif" font-size="10.00">include/rendering/Shader.hpp</text>
</a>
</g>
</g>
<!-- Node9&#45;&gt;Node10 -->
<g id="edge13_Node000009_Node000010" class="edge">
<title>Node9&#45;&gt;Node10</title>
<g id="a_edge13_Node000009_Node000010"><a xlink:title=" ">
<path fill="none" stroke="#63b8ff" d="M404.98,-281.48C427.91,-270.21 460.43,-254.23 480.18,-244.52"/>
<polygon fill="#63b8ff" stroke="#63b8ff" points="403.23,-278.44 395.8,-285.99 406.32,-284.72 403.23,-278.44"/>
</a>
</g>
</g>
<!-- Node10&#45;&gt;Node5 -->
<g id="edge14_Node000010_Node000005" class="edge">
<title>Node10&#45;&gt;Node5</title>
<g id="a_edge14_Node000010_Node000005"><a xlink:title=" ">
<path fill="none" stroke="#63b8ff" d="M487.4,-216.63C470.93,-189.81 435.73,-138.45 392.5,-110 364.61,-91.65 328.8,-80.58 299.63,-74.07"/>
<polygon fill="#63b8ff" stroke="#63b8ff" points="484.46,-218.53 492.6,-225.31 490.47,-214.94 484.46,-218.53"/>
</a>
</g>
</g>
</g>
</svg>
