<?xml version="1.0" encoding="UTF-8" standalone="no"?>
<!DOCTYPE svg PUBLIC "-//W3C//DTD SVG 1.1//EN"
 "http://www.w3.org/Graphics/SVG/1.1/DTD/svg11.dtd">
<!-- Generated by graphviz version 2.43.0 (0)
 -->
<!-- Title: include/math/Quaternion.hpp Pages: 1 -->
<svg width="734pt" height="555pt"
 viewBox="0.00 0.00 734.00 555.00" xmlns="http://www.w3.org/2000/svg" xmlns:xlink="http://www.w3.org/1999/xlink">
<g id="graph0" class="graph" transform="scale(1 1) rotate(0) translate(4 551)">
<title>include/math/Quaternion.hpp</title>
<!-- Node1 -->
<g id="Node000001" class="node">
<title>Node1</title>
<g id="a_Node000001"><a xlink:title="Defines the Quaternion class for representing 3D rotations.">
<polygon fill="#999999" stroke="#666666" points="430,-547 272,-547 272,-528 430,-528 430,-547"/>
<text text-anchor="middle" x="351" y="-535" font-family="Helvetica,sans-Serif" font-size="10.00">include/math/Quaternion.hpp</text>
</a>
</g>
</g>
<!-- Node2 -->
<g id="Node000002" class="node">
<title>Node2</title>
<g id="a_Node000002"><a xlink:href="FrameEngine_8hpp_source.html" target="_top" xlink:title=" ">
<polygon fill="white" stroke="#666666" points="439,-19 299,-19 299,0 439,0 439,-19"/>
<text text-anchor="middle" x="369" y="-7" font-family="Helvetica,sans-Serif" font-size="10.00">include/FrameEngine.hpp</text>
</a>
</g>
</g>
<!-- Node1&#45;&gt;Node2 -->
<g id="edge1_Node000001_Node000002" class="edge">
<title>Node1&#45;&gt;Node2</title>
<g id="a_edge1_Node000001_Node000002"><a xlink:title=" ">
<path fill="none" stroke="#63b8ff" d="M268.54,-526.54C164.79,-511.65 0,-479.17 0,-423 0,-423 0,-423 0,-118.5 0,-56.92 191.66,-28.01 298.73,-16.66"/>
<polygon fill="#63b8ff" stroke="#63b8ff" points="268.31,-530.04 278.7,-527.97 269.28,-523.11 268.31,-530.04"/>
</a>
</g>
</g>
<!-- Node3 -->
<g id="Node000003" class="node">
<title>Node3</title>
<g id="a_Node000003"><a xlink:href="TransformComponent_8hpp.html" target="_top" xlink:title="Defines the TransformComponent for ECS&#45;based spatial transformations.">
<polygon fill="white" stroke="#666666" points="424,-437 278,-437 278,-407 424,-407 424,-437"/>
<text text-anchor="start" x="286" y="-425" font-family="Helvetica,sans-Serif" font-size="10.00">include/components</text>
<text text-anchor="middle" x="351" y="-414" font-family="Helvetica,sans-Serif" font-size="10.00">/TransformComponent.hpp</text>
</a>
</g>
</g>
<!-- Node1&#45;&gt;Node3 -->
<g id="edge2_Node000001_Node000003" class="edge">
<title>Node1&#45;&gt;Node3</title>
<g id="a_edge2_Node000001_Node000003"><a xlink:title=" ">
<path fill="none" stroke="#63b8ff" d="M351,-517.96C351,-495.34 351,-457.61 351,-437.18"/>
<polygon fill="#63b8ff" stroke="#63b8ff" points="347.5,-517.97 351,-527.97 354.5,-517.97 347.5,-517.97"/>
</a>
</g>
</g>
<!-- Node10 -->
<g id="Node000010" class="node">
<title>Node10</title>
<g id="a_Node000010"><a xlink:href="Matrix4_8hpp.html" target="_top" xlink:title="Defines the Matrix4 class for 3D transformation operations.">
<polygon fill="white" stroke="#666666" points="592,-492 450,-492 450,-473 592,-473 592,-492"/>
<text text-anchor="middle" x="521" y="-480" font-family="Helvetica,sans-Serif" font-size="10.00">include/math/Matrix4.hpp</text>
</a>
</g>
</g>
<!-- Node1&#45;&gt;Node10 -->
<g id="edge17_Node000001_Node000010" class="edge">
<title>Node1&#45;&gt;Node10</title>
<g id="a_edge17_Node000001_Node000010"><a xlink:title=" ">
<path fill="none" stroke="#63b8ff" d="M388.12,-524.93C419.87,-515.03 464.85,-501.01 493.47,-492.08"/>
<polygon fill="#63b8ff" stroke="#63b8ff" points="386.82,-521.67 378.31,-527.98 388.9,-528.35 386.82,-521.67"/>
</a>
</g>
</g>
<!-- Node4 -->
<g id="Node000004" class="node">
<title>Node4</title>
<g id="a_Node000004"><a xlink:href="Object_8hpp.html" target="_top" xlink:title="Defines the Object class, a special ECS entity wrapper.">
<polygon fill="white" stroke="#666666" points="310,-244.5 164,-244.5 164,-225.5 310,-225.5 310,-244.5"/>
<text text-anchor="middle" x="237" y="-232.5" font-family="Helvetica,sans-Serif" font-size="10.00">include/objects/Object.hpp</text>
</a>
</g>
</g>
<!-- Node3&#45;&gt;Node4 -->
<g id="edge3_Node000003_Node000004" class="edge">
<title>Node3&#45;&gt;Node4</title>
<g id="a_edge3_Node000003_Node000004"><a xlink:title=" ">
<path fill="none" stroke="#63b8ff" d="M268.08,-412.31C242.39,-405.26 216.73,-392.82 201,-371 171.78,-330.46 212.9,-267.75 230.07,-244.8"/>
<polygon fill="#63b8ff" stroke="#63b8ff" points="267.35,-415.73 277.9,-414.75 269.04,-408.94 267.35,-415.73"/>
</a>
</g>
</g>
<!-- Node9 -->
<g id="Node000009" class="node">
<title>Node9</title>
<g id="a_Node000009"><a xlink:href="LightingSystem_8hpp_source.html" target="_top" xlink:title=" ">
<polygon fill="white" stroke="#666666" points="471.5,-250 328.5,-250 328.5,-220 471.5,-220 471.5,-250"/>
<text text-anchor="start" x="336.5" y="-238" font-family="Helvetica,sans-Serif" font-size="10.00">include/rendering/Lighting</text>
<text text-anchor="middle" x="400" y="-227" font-family="Helvetica,sans-Serif" font-size="10.00">System.hpp</text>
</a>
</g>
</g>
<!-- Node3&#45;&gt;Node9 -->
<g id="edge15_Node000003_Node000009" class="edge">
<title>Node3&#45;&gt;Node9</title>
<g id="a_edge15_Node000003_Node000009"><a xlink:title=" ">
<path fill="none" stroke="#63b8ff" d="M369.53,-398.76C375.44,-390.52 381.38,-380.79 385,-371 400.45,-329.19 401.26,-275.53 400.63,-250.31"/>
<polygon fill="#63b8ff" stroke="#63b8ff" points="366.73,-396.66 363.48,-406.75 372.31,-400.89 366.73,-396.66"/>
</a>
</g>
</g>
<!-- Node4&#45;&gt;Node2 -->
<g id="edge4_Node000004_Node000002" class="edge">
<title>Node4&#45;&gt;Node2</title>
<g id="a_edge4_Node000004_Node000002"><a xlink:title=" ">
<path fill="none" stroke="#63b8ff" d="M216.25,-219.16C200.29,-205.78 182.33,-185.16 191,-165 200.19,-143.63 212.99,-145.88 229,-129 258.72,-97.66 258.82,-82.65 292,-55 310.03,-39.98 333.79,-27.1 350.13,-19.13"/>
<polygon fill="#63b8ff" stroke="#63b8ff" points="214.23,-222.02 224.25,-225.45 218.56,-216.52 214.23,-222.02"/>
</a>
</g>
</g>
<!-- Node5 -->
<g id="Node000005" class="node">
<title>Node5</title>
<g id="a_Node000005"><a xlink:href="PointLight_8hpp_source.html" target="_top" xlink:title=" ">
<polygon fill="white" stroke="#666666" points="363.5,-184 200.5,-184 200.5,-165 363.5,-165 363.5,-184"/>
<text text-anchor="middle" x="282" y="-172" font-family="Helvetica,sans-Serif" font-size="10.00">include/objects/PointLight.hpp</text>
</a>
</g>
</g>
<!-- Node4&#45;&gt;Node5 -->
<g id="edge5_Node000004_Node000005" class="edge">
<title>Node4&#45;&gt;Node5</title>
<g id="a_edge5_Node000004_Node000005"><a xlink:title=" ">
<path fill="none" stroke="#63b8ff" d="M249.98,-217.13C258.27,-206.35 268.68,-192.82 275.33,-184.17"/>
<polygon fill="#63b8ff" stroke="#63b8ff" points="246.96,-215.31 243.64,-225.37 252.51,-219.58 246.96,-215.31"/>
</a>
</g>
</g>
<!-- Node6 -->
<g id="Node000006" class="node">
<title>Node6</title>
<g id="a_Node000006"><a xlink:href="Renderer_8hpp.html" target="_top" xlink:title="Manages the rendering pipeline and object submission.">
<polygon fill="white" stroke="#666666" points="514.5,-129 345.5,-129 345.5,-110 514.5,-110 514.5,-129"/>
<text text-anchor="middle" x="430" y="-117" font-family="Helvetica,sans-Serif" font-size="10.00">include/rendering/Renderer.hpp</text>
</a>
</g>
</g>
<!-- Node4&#45;&gt;Node6 -->
<g id="edge14_Node000004_Node000006" class="edge">
<title>Node4&#45;&gt;Node6</title>
<g id="a_edge14_Node000004_Node000006"><a xlink:title=" ">
<path fill="none" stroke="#63b8ff" d="M284.28,-222.76C311.74,-214.79 346.11,-202.23 373,-184 395.56,-168.7 415.14,-142.59 424.36,-129.11"/>
<polygon fill="#63b8ff" stroke="#63b8ff" points="283.19,-219.43 274.5,-225.5 285.08,-226.18 283.19,-219.43"/>
</a>
</g>
</g>
<!-- Node8 -->
<g id="Node000008" class="node">
<title>Node8</title>
<g id="a_Node000008"><a xlink:href="Camera_8hpp.html" target="_top" xlink:title="Defines the Camera class for view and projection.">
<polygon fill="white" stroke="#666666" points="660,-184 496,-184 496,-165 660,-165 660,-184"/>
<text text-anchor="middle" x="578" y="-172" font-family="Helvetica,sans-Serif" font-size="10.00">include/rendering/Camera.hpp</text>
</a>
</g>
</g>
<!-- Node4&#45;&gt;Node8 -->
<g id="edge11_Node000004_Node000008" class="edge">
<title>Node4&#45;&gt;Node8</title>
<g id="a_edge11_Node000004_Node000008"><a xlink:title=" ">
<path fill="none" stroke="#63b8ff" d="M296.79,-223.74C362.53,-212.46 466.96,-194.55 528.36,-184.02"/>
<polygon fill="#63b8ff" stroke="#63b8ff" points="295.85,-220.35 286.58,-225.49 297.03,-227.25 295.85,-220.35"/>
</a>
</g>
</g>
<!-- Node5&#45;&gt;Node2 -->
<g id="edge6_Node000005_Node000002" class="edge">
<title>Node5&#45;&gt;Node2</title>
<g id="a_edge6_Node000005_Node000002"><a xlink:title=" ">
<path fill="none" stroke="#63b8ff" d="M281.66,-154.76C282.08,-129.97 285.91,-85.81 306,-55 316.68,-38.62 335.67,-26.45 350.02,-19.02"/>
<polygon fill="#63b8ff" stroke="#63b8ff" points="278.16,-154.96 281.67,-164.96 285.16,-154.95 278.16,-154.96"/>
</a>
</g>
</g>
<!-- Node5&#45;&gt;Node6 -->
<g id="edge7_Node000005_Node000006" class="edge">
<title>Node5&#45;&gt;Node6</title>
<g id="a_edge7_Node000005_Node000006"><a xlink:title=" ">
<path fill="none" stroke="#63b8ff" d="M315.37,-161.55C342.85,-151.71 381.17,-137.98 405.79,-129.17"/>
<polygon fill="#63b8ff" stroke="#63b8ff" points="314.01,-158.32 305.78,-164.98 316.37,-164.91 314.01,-158.32"/>
</a>
</g>
</g>
<!-- Node6&#45;&gt;Node2 -->
<g id="edge10_Node000006_Node000002" class="edge">
<title>Node6&#45;&gt;Node2</title>
<g id="a_edge10_Node000006_Node000002"><a xlink:title=" ">
<path fill="none" stroke="#63b8ff" d="M435.66,-99.81C438.57,-86.56 440.19,-68.75 433,-55 424.16,-38.09 405.64,-26.31 390.79,-19.13"/>
<polygon fill="#63b8ff" stroke="#63b8ff" points="432.22,-99.13 433.07,-109.69 438.99,-100.9 432.22,-99.13"/>
</a>
</g>
</g>
<!-- Node7 -->
<g id="Node000007" class="node">
<title>Node7</title>
<g id="a_Node000007"><a xlink:href="Engine_8hpp.html" target="_top" xlink:title="Defines the core Engine class responsible for running simulation.">
<polygon fill="white" stroke="#666666" points="423.5,-74 314.5,-74 314.5,-55 423.5,-55 423.5,-74"/>
<text text-anchor="middle" x="369" y="-62" font-family="Helvetica,sans-Serif" font-size="10.00">include/Engine.hpp</text>
</a>
</g>
</g>
<!-- Node6&#45;&gt;Node7 -->
<g id="edge8_Node000006_Node000007" class="edge">
<title>Node6&#45;&gt;Node7</title>
<g id="a_edge8_Node000006_Node000007"><a xlink:title=" ">
<path fill="none" stroke="#63b8ff" d="M412.53,-103.32C401.66,-93.87 388.06,-82.06 378.98,-74.17"/>
<polygon fill="#63b8ff" stroke="#63b8ff" points="410.35,-106.07 420.2,-109.98 414.95,-100.78 410.35,-106.07"/>
</a>
</g>
</g>
<!-- Node7&#45;&gt;Node2 -->
<g id="edge9_Node000007_Node000002" class="edge">
<title>Node7&#45;&gt;Node2</title>
<g id="a_edge9_Node000007_Node000002"><a xlink:title=" ">
<path fill="none" stroke="#63b8ff" d="M369,-44.66C369,-35.93 369,-25.99 369,-19.09"/>
<polygon fill="#63b8ff" stroke="#63b8ff" points="365.5,-44.75 369,-54.75 372.5,-44.75 365.5,-44.75"/>
</a>
</g>
</g>
<!-- Node8&#45;&gt;Node2 -->
<g id="edge12_Node000008_Node000002" class="edge">
<title>Node8&#45;&gt;Node2</title>
<g id="a_edge12_Node000008_Node000002"><a xlink:title=" ">
<path fill="none" stroke="#63b8ff" d="M565.28,-156.44C554.91,-143.09 539.49,-124.42 524,-110 479.99,-69.05 417.03,-34.58 386.68,-19.16"/>
<polygon fill="#63b8ff" stroke="#63b8ff" points="562.74,-158.89 571.59,-164.73 568.31,-154.65 562.74,-158.89"/>
</a>
</g>
</g>
<!-- Node8&#45;&gt;Node6 -->
<g id="edge13_Node000008_Node000006" class="edge">
<title>Node8&#45;&gt;Node6</title>
<g id="a_edge13_Node000008_Node000006"><a xlink:title=" ">
<path fill="none" stroke="#63b8ff" d="M544.63,-161.55C517.15,-151.71 478.83,-137.98 454.21,-129.17"/>
<polygon fill="#63b8ff" stroke="#63b8ff" points="543.63,-164.91 554.22,-164.98 545.99,-158.32 543.63,-164.91"/>
</a>
</g>
</g>
<!-- Node9&#45;&gt;Node6 -->
<g id="edge16_Node000009_Node000006" class="edge">
<title>Node9&#45;&gt;Node6</title>
<g id="a_edge16_Node000009_Node000006"><a xlink:title=" ">
<path fill="none" stroke="#63b8ff" d="M406.43,-209.69C413.1,-184.43 423.19,-146.25 427.69,-129.23"/>
<polygon fill="#63b8ff" stroke="#63b8ff" points="402.97,-209.06 403.8,-219.63 409.74,-210.85 402.97,-209.06"/>
</a>
</g>
</g>
<!-- Node10&#45;&gt;Node2 -->
<g id="edge18_Node000010_Node000002" class="edge">
<title>Node10&#45;&gt;Node2</title>
<g id="a_edge18_Node000010_Node000002"><a xlink:title=" ">
<path fill="none" stroke="#63b8ff" d="M589.25,-470.86C648.89,-457.23 726,-427.11 726,-362.5 726,-362.5 726,-362.5 726,-118.5 726,-59.17 543.07,-29.44 439.11,-17.33"/>
<polygon fill="#63b8ff" stroke="#63b8ff" points="588.5,-467.45 579.47,-472.99 589.99,-474.29 588.5,-467.45"/>
</a>
</g>
</g>
<!-- Node10&#45;&gt;Node3 -->
<g id="edge19_Node000010_Node000003" class="edge">
<title>Node10&#45;&gt;Node3</title>
<g id="a_edge19_Node000010_Node000003"><a xlink:title=" ">
<path fill="none" stroke="#63b8ff" d="M486.73,-469.71C459.34,-460.28 420.86,-447.04 391.87,-437.06"/>
<polygon fill="#63b8ff" stroke="#63b8ff" points="485.69,-473.05 496.28,-472.99 487.96,-466.43 485.69,-473.05"/>
</a>
</g>
</g>
<!-- Node10&#45;&gt;Node8 -->
<g id="edge20_Node000010_Node000008" class="edge">
<title>Node10&#45;&gt;Node8</title>
<g id="a_edge20_Node000010_Node000008"><a xlink:title=" ">
<path fill="none" stroke="#63b8ff" d="M557.17,-469.01C574.4,-461.71 594.38,-451.12 609,-437 636.19,-410.75 650,-400.29 650,-362.5 650,-362.5 650,-362.5 650,-300 650,-250.56 606.93,-203.12 587.41,-184.16"/>
<polygon fill="#63b8ff" stroke="#63b8ff" points="555.38,-465.96 547.41,-472.93 557.99,-472.45 555.38,-465.96"/>
</a>
</g>
</g>
<!-- Node11 -->
<g id="Node000011" class="node">
<title>Node11</title>
<g id="a_Node000011"><a xlink:href="Shader_8hpp.html" target="_top" xlink:title="Manages OpenGL shaders.">
<polygon fill="white" stroke="#666666" points="600,-431.5 442,-431.5 442,-412.5 600,-412.5 600,-431.5"/>
<text text-anchor="middle" x="521" y="-419.5" font-family="Helvetica,sans-Serif" font-size="10.00">include/rendering/Shader.hpp</text>
</a>
</g>
</g>
<!-- Node10&#45;&gt;Node11 -->
<g id="edge21_Node000010_Node000011" class="edge">
<title>Node10&#45;&gt;Node11</title>
<g id="a_edge21_Node000010_Node000011"><a xlink:title=" ">
<path fill="none" stroke="#63b8ff" d="M521,-462.66C521,-452.24 521,-439.8 521,-431.67"/>
<polygon fill="#63b8ff" stroke="#63b8ff" points="517.5,-462.87 521,-472.87 524.5,-462.87 517.5,-462.87"/>
</a>
</g>
</g>
<!-- Node11&#45;&gt;Node2 -->
<g id="edge22_Node000011_Node000002" class="edge">
<title>Node11&#45;&gt;Node2</title>
<g id="a_edge22_Node000011_Node000002"><a xlink:title=" ">
<path fill="none" stroke="#63b8ff" d="M540.75,-406.27C584.95,-371.45 688,-279.16 688,-175.5 688,-175.5 688,-175.5 688,-118.5 688,-65.29 526.77,-33.15 433.55,-19.02"/>
<polygon fill="#63b8ff" stroke="#63b8ff" points="538.52,-403.57 532.74,-412.45 542.8,-409.11 538.52,-403.57"/>
</a>
</g>
</g>
<!-- Node11&#45;&gt;Node6 -->
<g id="edge29_Node000011_Node000006" class="edge">
<title>Node11&#45;&gt;Node6</title>
<g id="a_edge29_Node000011_Node000006"><a xlink:title=" ">
<path fill="none" stroke="#63b8ff" d="M519.03,-402.31C514.86,-366.25 503.59,-284.89 481,-220 468.68,-184.62 445.95,-146.03 435.51,-129.18"/>
<polygon fill="#63b8ff" stroke="#63b8ff" points="515.57,-402.8 520.14,-412.35 522.52,-402.03 515.57,-402.8"/>
</a>
</g>
</g>
<!-- Node12 -->
<g id="Node000012" class="node">
<title>Node12</title>
<g id="a_Node000012"><a xlink:href="Material_8hpp_source.html" target="_top" xlink:title=" ">
<polygon fill="white" stroke="#666666" points="376,-371 210,-371 210,-352 376,-352 376,-371"/>
<text text-anchor="middle" x="293" y="-359" font-family="Helvetica,sans-Serif" font-size="10.00">include/rendering/Material.hpp</text>
</a>
</g>
</g>
<!-- Node11&#45;&gt;Node12 -->
<g id="edge23_Node000011_Node000012" class="edge">
<title>Node11&#45;&gt;Node12</title>
<g id="a_edge23_Node000011_Node000012"><a xlink:title=" ">
<path fill="none" stroke="#63b8ff" d="M478,-409.97C433.92,-398.66 366.31,-381.31 326.19,-371.02"/>
<polygon fill="#63b8ff" stroke="#63b8ff" points="477.29,-413.4 487.85,-412.49 479.03,-406.62 477.29,-413.4"/>
</a>
</g>
</g>
<!-- Node12&#45;&gt;Node4 -->
<g id="edge28_Node000012_Node000004" class="edge">
<title>Node12&#45;&gt;Node4</title>
<g id="a_edge28_Node000012_Node000004"><a xlink:title=" ">
<path fill="none" stroke="#63b8ff" d="M265.64,-346.89C253.93,-339.5 241.49,-329.15 235,-316 223.45,-292.57 229.94,-260.41 234.21,-244.98"/>
<polygon fill="#63b8ff" stroke="#63b8ff" points="263.93,-349.95 274.33,-351.97 267.46,-343.9 263.93,-349.95"/>
</a>
</g>
</g>
<!-- Node13 -->
<g id="Node000013" class="node">
<title>Node13</title>
<g id="a_Node000013"><a xlink:href="MaterialComponent_8hpp_source.html" target="_top" xlink:title=" ">
<polygon fill="white" stroke="#666666" points="380.5,-316 243.5,-316 243.5,-286 380.5,-286 380.5,-316"/>
<text text-anchor="start" x="251.5" y="-304" font-family="Helvetica,sans-Serif" font-size="10.00">include/components</text>
<text text-anchor="middle" x="312" y="-293" font-family="Helvetica,sans-Serif" font-size="10.00">/MaterialComponent.hpp</text>
</a>
</g>
</g>
<!-- Node12&#45;&gt;Node13 -->
<g id="edge24_Node000012_Node000013" class="edge">
<title>Node12&#45;&gt;Node13</title>
<g id="a_edge24_Node000012_Node000013"><a xlink:title=" ">
<path fill="none" stroke="#63b8ff" d="M298.94,-342.22C301.67,-333.79 304.87,-323.95 307.42,-316.11"/>
<polygon fill="#63b8ff" stroke="#63b8ff" points="295.56,-341.28 295.8,-351.87 302.22,-343.44 295.56,-341.28"/>
</a>
</g>
</g>
<!-- Node14 -->
<g id="Node000014" class="node">
<title>Node14</title>
<g id="a_Node000014"><a xlink:href="BasicMaterial_8hpp_source.html" target="_top" xlink:title=" ">
<polygon fill="white" stroke="#666666" points="220,-129 28,-129 28,-110 220,-110 220,-129"/>
<text text-anchor="middle" x="124" y="-117" font-family="Helvetica,sans-Serif" font-size="10.00">include/materials/BasicMaterial.hpp</text>
</a>
</g>
</g>
<!-- Node12&#45;&gt;Node14 -->
<g id="edge26_Node000012_Node000014" class="edge">
<title>Node12&#45;&gt;Node14</title>
<g id="a_edge26_Node000012_Node000014"><a xlink:title=" ">
<path fill="none" stroke="#63b8ff" d="M266.17,-347.13C234,-329.57 181.15,-295.54 155,-250 131.51,-209.1 125.77,-151.15 124.41,-129.3"/>
<polygon fill="#63b8ff" stroke="#63b8ff" points="264.57,-350.24 275.04,-351.84 267.85,-344.06 264.57,-350.24"/>
</a>
</g>
</g>
<!-- Node13&#45;&gt;Node4 -->
<g id="edge25_Node000013_Node000004" class="edge">
<title>Node13&#45;&gt;Node4</title>
<g id="a_edge25_Node000013_Node000004"><a xlink:title=" ">
<path fill="none" stroke="#63b8ff" d="M287.69,-279.26C274.05,-267.61 257.73,-253.69 247.36,-244.84"/>
<polygon fill="#63b8ff" stroke="#63b8ff" points="285.48,-281.97 295.36,-285.8 290.02,-276.64 285.48,-281.97"/>
</a>
</g>
</g>
<!-- Node14&#45;&gt;Node2 -->
<g id="edge27_Node000014_Node000002" class="edge">
<title>Node14&#45;&gt;Node2</title>
<g id="a_edge27_Node000014_Node000002"><a xlink:title=" ">
<path fill="none" stroke="#63b8ff" d="M145.17,-104.52C166.83,-90.65 201.77,-69.43 234,-55 268.12,-39.72 309.14,-26.94 336.94,-19.05"/>
<polygon fill="#63b8ff" stroke="#63b8ff" points="143.24,-101.6 136.75,-109.98 147.04,-107.48 143.24,-101.6"/>
</a>
</g>
</g>
</g>
</svg>
