<?xml version="1.0" encoding="UTF-8" standalone="no"?>
<!DOCTYPE svg PUBLIC "-//W3C//DTD SVG 1.1//EN"
 "http://www.w3.org/Graphics/SVG/1.1/DTD/svg11.dtd">
<!-- Generated by graphviz version 2.43.0 (0)
 -->
<!-- Title: include/Registry.hpp Pages: 1 -->
<svg width="637pt" height="302pt"
 viewBox="0.00 0.00 637.00 302.00" xmlns="http://www.w3.org/2000/svg" xmlns:xlink="http://www.w3.org/1999/xlink">
<g id="graph0" class="graph" transform="scale(1 1) rotate(0) translate(4 298)">
<title>include/Registry.hpp</title>
<!-- Node1 -->
<g id="Node000001" class="node">
<title>Node1</title>
<g id="a_Node000001"><a xlink:title="Defines the Registry class for managing ECS entities and components.">
<polygon fill="#999999" stroke="#666666" points="469,-294 354,-294 354,-275 469,-275 469,-294"/>
<text text-anchor="middle" x="411.5" y="-282" font-family="Helvetica,sans-Serif" font-size="10.00">include/Registry.hpp</text>
</a>
</g>
</g>
<!-- Node2 -->
<g id="Node000002" class="node">
<title>Node2</title>
<g id="a_Node000002"><a xlink:href="Entity_8hpp.html" target="_top" xlink:title="Defines the Entity class, which serves as a wrapper for ECS entities.">
<polygon fill="white" stroke="#666666" points="368,-239 265,-239 265,-220 368,-220 368,-239"/>
<text text-anchor="middle" x="316.5" y="-227" font-family="Helvetica,sans-Serif" font-size="10.00">include/Entity.hpp</text>
</a>
</g>
</g>
<!-- Node1&#45;&gt;Node2 -->
<g id="edge1_Node000001_Node000002" class="edge">
<title>Node1&#45;&gt;Node2</title>
<g id="a_edge1_Node000001_Node000002"><a xlink:title=" ">
<path fill="none" stroke="#63b8ff" d="M387.24,-269.97C369.87,-260.28 347.01,-247.52 332.04,-239.17"/>
<polygon fill="#63b8ff" stroke="#63b8ff" points="385.8,-273.17 396.24,-274.98 389.21,-267.06 385.8,-273.17"/>
</a>
</g>
</g>
<!-- Node5 -->
<g id="Node000005" class="node">
<title>Node5</title>
<g id="a_Node000005"><a xlink:href="Renderer_8hpp.html" target="_top" xlink:title="Manages the rendering pipeline and object submission.">
<polygon fill="white" stroke="#666666" points="331,-74 162,-74 162,-55 331,-55 331,-74"/>
<text text-anchor="middle" x="246.5" y="-62" font-family="Helvetica,sans-Serif" font-size="10.00">include/rendering/Renderer.hpp</text>
</a>
</g>
</g>
<!-- Node1&#45;&gt;Node5 -->
<g id="edge10_Node000001_Node000005" class="edge">
<title>Node1&#45;&gt;Node5</title>
<g id="a_edge10_Node000001_Node000005"><a xlink:title=" ">
<path fill="none" stroke="#63b8ff" d="M415.55,-264.44C421.8,-229.5 429.5,-154.65 392.5,-110 377.11,-91.43 354.22,-80.44 331.1,-73.99"/>
<polygon fill="#63b8ff" stroke="#63b8ff" points="412.04,-264.18 413.56,-274.67 418.91,-265.52 412.04,-264.18"/>
</a>
</g>
</g>
<!-- Node8 -->
<g id="Node000008" class="node">
<title>Node8</title>
<g id="a_Node000008"><a xlink:href="PhysicsSystem_8hpp.html" target="_top" xlink:title="Defines the PhysicsSystem.">
<polygon fill="white" stroke="#666666" points="629,-239 440,-239 440,-220 629,-220 629,-239"/>
<text text-anchor="middle" x="534.5" y="-227" font-family="Helvetica,sans-Serif" font-size="10.00">include/physics/PhysicsSystem.hpp</text>
</a>
</g>
</g>
<!-- Node1&#45;&gt;Node8 -->
<g id="edge9_Node000001_Node000008" class="edge">
<title>Node1&#45;&gt;Node8</title>
<g id="a_edge9_Node000001_Node000008"><a xlink:title=" ">
<path fill="none" stroke="#63b8ff" d="M440.75,-270.9C463.47,-261.11 494.37,-247.79 514.38,-239.17"/>
<polygon fill="#63b8ff" stroke="#63b8ff" points="439.06,-267.81 431.26,-274.98 441.83,-274.24 439.06,-267.81"/>
</a>
</g>
</g>
<!-- Node3 -->
<g id="Node000003" class="node">
<title>Node3</title>
<g id="a_Node000003"><a xlink:href="Object_8hpp.html" target="_top" xlink:title="Defines the Object class, a special ECS entity wrapper.">
<polygon fill="white" stroke="#666666" points="319.5,-184 173.5,-184 173.5,-165 319.5,-165 319.5,-184"/>
<text text-anchor="middle" x="246.5" y="-172" font-family="Helvetica,sans-Serif" font-size="10.00">include/objects/Object.hpp</text>
</a>
</g>
</g>
<!-- Node2&#45;&gt;Node3 -->
<g id="edge2_Node000002_Node000003" class="edge">
<title>Node2&#45;&gt;Node3</title>
<g id="a_edge2_Node000002_Node000003"><a xlink:title=" ">
<path fill="none" stroke="#63b8ff" d="M297.19,-213.88C284.59,-204.34 268.57,-192.21 257.95,-184.17"/>
<polygon fill="#63b8ff" stroke="#63b8ff" points="295.17,-216.74 305.25,-219.98 299.39,-211.16 295.17,-216.74"/>
</a>
</g>
</g>
<!-- Node4 -->
<g id="Node000004" class="node">
<title>Node4</title>
<g id="a_Node000004"><a xlink:href="PointLight_8hpp_source.html" target="_top" xlink:title=" ">
<polygon fill="white" stroke="#666666" points="163,-129 0,-129 0,-110 163,-110 163,-129"/>
<text text-anchor="middle" x="81.5" y="-117" font-family="Helvetica,sans-Serif" font-size="10.00">include/objects/PointLight.hpp</text>
</a>
</g>
</g>
<!-- Node3&#45;&gt;Node4 -->
<g id="edge3_Node000003_Node000004" class="edge">
<title>Node3&#45;&gt;Node4</title>
<g id="a_edge3_Node000003_Node000004"><a xlink:title=" ">
<path fill="none" stroke="#63b8ff" d="M210.07,-161.8C179.28,-151.91 135.88,-137.97 108.22,-129.08"/>
<polygon fill="#63b8ff" stroke="#63b8ff" points="209.4,-165.26 219.99,-164.98 211.54,-158.59 209.4,-165.26"/>
</a>
</g>
</g>
<!-- Node3&#45;&gt;Node5 -->
<g id="edge8_Node000003_Node000005" class="edge">
<title>Node3&#45;&gt;Node5</title>
<g id="a_edge8_Node000003_Node000005"><a xlink:title=" ">
<path fill="none" stroke="#63b8ff" d="M228.45,-157.65C216.63,-145.24 204.4,-127.25 210.5,-110 215.6,-95.57 227.6,-82.4 236.34,-74.19"/>
<polygon fill="#63b8ff" stroke="#63b8ff" points="226.35,-160.49 235.97,-164.93 231.23,-155.46 226.35,-160.49"/>
</a>
</g>
</g>
<!-- Node7 -->
<g id="Node000007" class="node">
<title>Node7</title>
<g id="a_Node000007"><a xlink:href="Camera_8hpp.html" target="_top" xlink:title="Defines the Camera class for view and projection.">
<polygon fill="white" stroke="#666666" points="383.5,-129 219.5,-129 219.5,-110 383.5,-110 383.5,-129"/>
<text text-anchor="middle" x="301.5" y="-117" font-family="Helvetica,sans-Serif" font-size="10.00">include/rendering/Camera.hpp</text>
</a>
</g>
</g>
<!-- Node3&#45;&gt;Node7 -->
<g id="edge6_Node000003_Node000007" class="edge">
<title>Node3&#45;&gt;Node7</title>
<g id="a_edge6_Node000003_Node000007"><a xlink:title=" ">
<path fill="none" stroke="#63b8ff" d="M262.79,-157.8C272.54,-148.41 284.55,-136.83 292.59,-129.09"/>
<polygon fill="#63b8ff" stroke="#63b8ff" points="260.35,-155.29 255.58,-164.75 265.21,-160.33 260.35,-155.29"/>
</a>
</g>
</g>
<!-- Node4&#45;&gt;Node5 -->
<g id="edge4_Node000004_Node000005" class="edge">
<title>Node4&#45;&gt;Node5</title>
<g id="a_edge4_Node000004_Node000005"><a xlink:title=" ">
<path fill="none" stroke="#63b8ff" d="M117.93,-106.8C148.72,-96.91 192.12,-82.97 219.78,-74.08"/>
<polygon fill="#63b8ff" stroke="#63b8ff" points="116.46,-103.59 108.01,-109.98 118.6,-110.26 116.46,-103.59"/>
</a>
</g>
</g>
<!-- Node6 -->
<g id="Node000006" class="node">
<title>Node6</title>
<g id="a_Node000006"><a xlink:href="Engine_8hpp.html" target="_top" xlink:title="Defines the core Engine class responsible for running simulation.">
<polygon fill="white" stroke="#666666" points="301,-19 192,-19 192,0 301,0 301,-19"/>
<text text-anchor="middle" x="246.5" y="-7" font-family="Helvetica,sans-Serif" font-size="10.00">include/Engine.hpp</text>
</a>
</g>
</g>
<!-- Node5&#45;&gt;Node6 -->
<g id="edge5_Node000005_Node000006" class="edge">
<title>Node5&#45;&gt;Node6</title>
<g id="a_edge5_Node000005_Node000006"><a xlink:title=" ">
<path fill="none" stroke="#63b8ff" d="M246.5,-44.66C246.5,-35.93 246.5,-25.99 246.5,-19.09"/>
<polygon fill="#63b8ff" stroke="#63b8ff" points="243,-44.75 246.5,-54.75 250,-44.75 243,-44.75"/>
</a>
</g>
</g>
<!-- Node7&#45;&gt;Node5 -->
<g id="edge7_Node000007_Node000005" class="edge">
<title>Node7&#45;&gt;Node5</title>
<g id="a_edge7_Node000007_Node000005"><a xlink:title=" ">
<path fill="none" stroke="#63b8ff" d="M285.21,-102.8C275.46,-93.41 263.45,-81.83 255.41,-74.09"/>
<polygon fill="#63b8ff" stroke="#63b8ff" points="282.79,-105.33 292.42,-109.75 287.65,-100.29 282.79,-105.33"/>
</a>
</g>
</g>
</g>
</svg>
