<?xml version="1.0" encoding="UTF-8" standalone="no"?>
<!DOCTYPE svg PUBLIC "-//W3C//DTD SVG 1.1//EN"
 "http://www.w3.org/Graphics/SVG/1.1/DTD/svg11.dtd">
<!-- Generated by graphviz version 2.43.0 (0)
 -->
<!-- Title: include/Registry.hpp Pages: 1 -->
<svg width="666pt" height="302pt"
 viewBox="0.00 0.00 665.50 302.00" xmlns="http://www.w3.org/2000/svg" xmlns:xlink="http://www.w3.org/1999/xlink">
<g id="graph0" class="graph" transform="scale(1 1) rotate(0) translate(4 298)">
<title>include/Registry.hpp</title>
<!-- Node1 -->
<g id="Node000001" class="node">
<title>Node1</title>
<g id="a_Node000001"><a xlink:title="Defines the Registry class for managing ECS entities and components.">
<polygon fill="#999999" stroke="#666666" points="469.5,-294 354.5,-294 354.5,-275 469.5,-275 469.5,-294"/>
<text text-anchor="middle" x="412" y="-282" font-family="Helvetica,sans-Serif" font-size="10.00">include/Registry.hpp</text>
</a>
</g>
</g>
<!-- Node2 -->
<g id="Node000002" class="node">
<title>Node2</title>
<g id="a_Node000002"><a xlink:href="Engine_8hpp.html" target="_top" xlink:title="Defines the core Engine class responsible for running simulation.">
<polygon fill="white" stroke="#666666" points="164.5,-19 55.5,-19 55.5,0 164.5,0 164.5,-19"/>
<text text-anchor="middle" x="110" y="-7" font-family="Helvetica,sans-Serif" font-size="10.00">include/Engine.hpp</text>
</a>
</g>
</g>
<!-- Node1&#45;&gt;Node2 -->
<g id="edge1_Node000001_Node000002" class="edge">
<title>Node1&#45;&gt;Node2</title>
<g id="a_edge1_Node000001_Node000002"><a xlink:title=" ">
<path fill="none" stroke="#63b8ff" d="M343.99,-279.68C226.98,-271.22 0,-245.75 0,-175.5 0,-175.5 0,-175.5 0,-118.5 0,-68.59 58.38,-34.08 90.08,-19.02"/>
<polygon fill="#63b8ff" stroke="#63b8ff" points="344.06,-283.19 354.28,-280.4 344.55,-276.21 344.06,-283.19"/>
</a>
</g>
</g>
<!-- Node3 -->
<g id="Node000003" class="node">
<title>Node3</title>
<g id="a_Node000003"><a xlink:href="Entity_8hpp.html" target="_top" xlink:title="Defines the Entity class, which serves as a wrapper for ECS entities.">
<polygon fill="white" stroke="#666666" points="353.5,-239 250.5,-239 250.5,-220 353.5,-220 353.5,-239"/>
<text text-anchor="middle" x="302" y="-227" font-family="Helvetica,sans-Serif" font-size="10.00">include/Entity.hpp</text>
</a>
</g>
</g>
<!-- Node1&#45;&gt;Node3 -->
<g id="edge2_Node000001_Node000003" class="edge">
<title>Node1&#45;&gt;Node3</title>
<g id="a_edge2_Node000001_Node000003"><a xlink:title=" ">
<path fill="none" stroke="#63b8ff" d="M385.3,-270.63C365.03,-260.87 337.73,-247.71 319.99,-239.17"/>
<polygon fill="#63b8ff" stroke="#63b8ff" points="383.8,-273.8 394.33,-274.98 386.84,-267.49 383.8,-273.8"/>
</a>
</g>
</g>
<!-- Node6 -->
<g id="Node000006" class="node">
<title>Node6</title>
<g id="a_Node000006"><a xlink:href="Renderer_8hpp.html" target="_top" xlink:title="Manages the rendering pipeline and object submission.">
<polygon fill="white" stroke="#666666" points="304.5,-74 135.5,-74 135.5,-55 304.5,-55 304.5,-74"/>
<text text-anchor="middle" x="220" y="-62" font-family="Helvetica,sans-Serif" font-size="10.00">include/rendering/Renderer.hpp</text>
</a>
</g>
</g>
<!-- Node1&#45;&gt;Node6 -->
<g id="edge11_Node000001_Node000006" class="edge">
<title>Node1&#45;&gt;Node6</title>
<g id="a_edge11_Node000001_Node000006"><a xlink:title=" ">
<path fill="none" stroke="#63b8ff" d="M419.98,-265.41C433.81,-230.98 457.45,-155.4 421,-110 406.15,-91.5 352.65,-80.22 304.58,-73.65"/>
<polygon fill="#63b8ff" stroke="#63b8ff" points="416.73,-264.12 416.08,-274.7 423.18,-266.84 416.73,-264.12"/>
</a>
</g>
</g>
<!-- Node8 -->
<g id="Node000008" class="node">
<title>Node8</title>
<g id="a_Node000008"><a xlink:href="PhysicsSystem_8hpp.html" target="_top" xlink:title="Defines the PhysicsSystem.">
<polygon fill="white" stroke="#666666" points="657.5,-239 468.5,-239 468.5,-220 657.5,-220 657.5,-239"/>
<text text-anchor="middle" x="563" y="-227" font-family="Helvetica,sans-Serif" font-size="10.00">include/physics/PhysicsSystem.hpp</text>
</a>
</g>
</g>
<!-- Node1&#45;&gt;Node8 -->
<g id="edge10_Node000001_Node000008" class="edge">
<title>Node1&#45;&gt;Node8</title>
<g id="a_edge10_Node000001_Node000008"><a xlink:title=" ">
<path fill="none" stroke="#63b8ff" d="M446.05,-271.55C474.09,-261.71 513.18,-247.98 538.3,-239.17"/>
<polygon fill="#63b8ff" stroke="#63b8ff" points="444.54,-268.37 436.26,-274.98 446.86,-274.98 444.54,-268.37"/>
</a>
</g>
</g>
<!-- Node4 -->
<g id="Node000004" class="node">
<title>Node4</title>
<g id="a_Node000004"><a xlink:href="Object_8hpp.html" target="_top" xlink:title="Defines the Object class, a special ECS entity wrapper.">
<polygon fill="white" stroke="#666666" points="320,-184 174,-184 174,-165 320,-165 320,-184"/>
<text text-anchor="middle" x="247" y="-172" font-family="Helvetica,sans-Serif" font-size="10.00">include/objects/Object.hpp</text>
</a>
</g>
</g>
<!-- Node3&#45;&gt;Node4 -->
<g id="edge3_Node000003_Node000004" class="edge">
<title>Node3&#45;&gt;Node4</title>
<g id="a_edge3_Node000003_Node000004"><a xlink:title=" ">
<path fill="none" stroke="#63b8ff" d="M285.71,-212.8C275.96,-203.41 263.95,-191.83 255.91,-184.09"/>
<polygon fill="#63b8ff" stroke="#63b8ff" points="283.29,-215.33 292.92,-219.75 288.15,-210.29 283.29,-215.33"/>
</a>
</g>
</g>
<!-- Node5 -->
<g id="Node000005" class="node">
<title>Node5</title>
<g id="a_Node000005"><a xlink:href="PointLight_8hpp_source.html" target="_top" xlink:title=" ">
<polygon fill="white" stroke="#666666" points="191.5,-129 28.5,-129 28.5,-110 191.5,-110 191.5,-129"/>
<text text-anchor="middle" x="110" y="-117" font-family="Helvetica,sans-Serif" font-size="10.00">include/objects/PointLight.hpp</text>
</a>
</g>
</g>
<!-- Node4&#45;&gt;Node5 -->
<g id="edge4_Node000004_Node000005" class="edge">
<title>Node4&#45;&gt;Node5</title>
<g id="a_edge4_Node000004_Node000005"><a xlink:title=" ">
<path fill="none" stroke="#63b8ff" d="M215.44,-161.29C190.05,-151.47 155,-137.91 132.41,-129.17"/>
<polygon fill="#63b8ff" stroke="#63b8ff" points="214.4,-164.64 224.99,-164.98 216.92,-158.11 214.4,-164.64"/>
</a>
</g>
</g>
<!-- Node4&#45;&gt;Node6 -->
<g id="edge9_Node000004_Node000006" class="edge">
<title>Node4&#45;&gt;Node6</title>
<g id="a_edge9_Node000004_Node000006"><a xlink:title=" ">
<path fill="none" stroke="#63b8ff" d="M242.33,-154.8C236.43,-131.2 226.52,-91.58 222.16,-74.16"/>
<polygon fill="#63b8ff" stroke="#63b8ff" points="238.97,-155.81 244.79,-164.66 245.76,-154.11 238.97,-155.81"/>
</a>
</g>
</g>
<!-- Node7 -->
<g id="Node000007" class="node">
<title>Node7</title>
<g id="a_Node000007"><a xlink:href="Camera_8hpp.html" target="_top" xlink:title="Defines the Camera class for view and projection.">
<polygon fill="white" stroke="#666666" points="412,-129 248,-129 248,-110 412,-110 412,-129"/>
<text text-anchor="middle" x="330" y="-117" font-family="Helvetica,sans-Serif" font-size="10.00">include/rendering/Camera.hpp</text>
</a>
</g>
</g>
<!-- Node4&#45;&gt;Node7 -->
<g id="edge7_Node000004_Node000007" class="edge">
<title>Node4&#45;&gt;Node7</title>
<g id="a_edge7_Node000004_Node000007"><a xlink:title=" ">
<path fill="none" stroke="#63b8ff" d="M269.04,-159.42C284.11,-149.81 303.59,-137.37 316.42,-129.17"/>
<polygon fill="#63b8ff" stroke="#63b8ff" points="266.88,-156.65 260.34,-164.98 270.65,-162.55 266.88,-156.65"/>
</a>
</g>
</g>
<!-- Node5&#45;&gt;Node6 -->
<g id="edge5_Node000005_Node000006" class="edge">
<title>Node5&#45;&gt;Node6</title>
<g id="a_edge5_Node000005_Node000006"><a xlink:title=" ">
<path fill="none" stroke="#63b8ff" d="M136.7,-105.63C156.97,-95.87 184.27,-82.71 202.01,-74.17"/>
<polygon fill="#63b8ff" stroke="#63b8ff" points="135.16,-102.49 127.67,-109.98 138.2,-108.8 135.16,-102.49"/>
</a>
</g>
</g>
<!-- Node6&#45;&gt;Node2 -->
<g id="edge6_Node000006_Node000002" class="edge">
<title>Node6&#45;&gt;Node2</title>
<g id="a_edge6_Node000006_Node000002"><a xlink:title=" ">
<path fill="none" stroke="#63b8ff" d="M193.3,-50.63C173.03,-40.87 145.73,-27.71 127.99,-19.17"/>
<polygon fill="#63b8ff" stroke="#63b8ff" points="191.8,-53.8 202.33,-54.98 194.84,-47.49 191.8,-53.8"/>
</a>
</g>
</g>
<!-- Node7&#45;&gt;Node6 -->
<g id="edge8_Node000007_Node000006" class="edge">
<title>Node7&#45;&gt;Node6</title>
<g id="a_edge8_Node000007_Node000006"><a xlink:title=" ">
<path fill="none" stroke="#63b8ff" d="M303.3,-105.63C283.03,-95.87 255.73,-82.71 237.99,-74.17"/>
<polygon fill="#63b8ff" stroke="#63b8ff" points="301.8,-108.8 312.33,-109.98 304.84,-102.49 301.8,-108.8"/>
</a>
</g>
</g>
</g>
</svg>
