<?xml version="1.0" encoding="UTF-8" standalone="no"?>
<!DOCTYPE svg PUBLIC "-//W3C//DTD SVG 1.1//EN"
 "http://www.w3.org/Graphics/SVG/1.1/DTD/svg11.dtd">
<!-- Generated by graphviz version 12.2.1 (0)
 -->
<!-- Title: include/Registry.hpp Pages: 1 -->
<svg width="467pt" height="86pt"
 viewBox="0.00 0.00 467.00 85.50" xmlns="http://www.w3.org/2000/svg" xmlns:xlink="http://www.w3.org/1999/xlink">
<g id="graph0" class="graph" transform="scale(1 1) rotate(0) translate(4 81.5)">
<title>include/Registry.hpp</title>
<!-- Node1 -->
<g id="Node000001" class="node">
<title>Node1</title>
<g id="a_Node000001"><a xlink:title="Defines the Registry class for managing ECS entities and components.">
<polygon fill="#999999" stroke="#666666" points="268.75,-77.5 154.5,-77.5 154.5,-56.75 268.75,-56.75 268.75,-77.5"/>
<text text-anchor="middle" x="211.62" y="-64" font-family="Helvetica,sans-Serif" font-size="10.00">include/Registry.hpp</text>
</a>
</g>
</g>
<!-- Node2 -->
<g id="Node000002" class="node">
<title>Node2</title>
<g id="a_Node000002"><a xlink:title=" ">
<polygon fill="#e0e0e0" stroke="#999999" points="63.25,-20.75 0,-20.75 0,0 63.25,0 63.25,-20.75"/>
<text text-anchor="middle" x="31.62" y="-7.25" font-family="Helvetica,sans-Serif" font-size="10.00">algorithm</text>
</a>
</g>
</g>
<!-- Node1&#45;&gt;Node2 -->
<g id="edge1_Node000001_Node000002" class="edge">
<title>Node1&#45;&gt;Node2</title>
<g id="a_edge1_Node000001_Node000002"><a xlink:title=" ">
<path fill="none" stroke="#63b8ff" d="M179.44,-56.34C150.14,-47.42 106.64,-34.19 74.41,-24.39"/>
<polygon fill="#63b8ff" stroke="#63b8ff" points="75.56,-21.08 64.97,-21.52 73.52,-27.78 75.56,-21.08"/>
</a>
</g>
</g>
<!-- Node3 -->
<g id="Node000003" class="node">
<title>Node3</title>
<g id="a_Node000003"><a xlink:title=" ">
<polygon fill="#e0e0e0" stroke="#999999" points="125.5,-20.75 81.75,-20.75 81.75,0 125.5,0 125.5,-20.75"/>
<text text-anchor="middle" x="103.62" y="-7.25" font-family="Helvetica,sans-Serif" font-size="10.00">bitset</text>
</a>
</g>
</g>
<!-- Node1&#45;&gt;Node3 -->
<g id="edge2_Node000001_Node000003" class="edge">
<title>Node1&#45;&gt;Node3</title>
<g id="a_edge2_Node000001_Node000003"><a xlink:title=" ">
<path fill="none" stroke="#63b8ff" d="M192.32,-56.34C175.81,-47.97 151.79,-35.79 132.92,-26.22"/>
<polygon fill="#63b8ff" stroke="#63b8ff" points="134.62,-23.16 124.12,-21.76 131.45,-29.41 134.62,-23.16"/>
</a>
</g>
</g>
<!-- Node4 -->
<g id="Node000004" class="node">
<title>Node4</title>
<g id="a_Node000004"><a xlink:title=" ">
<polygon fill="#e0e0e0" stroke="#999999" points="201.25,-20.75 144,-20.75 144,0 201.25,0 201.25,-20.75"/>
<text text-anchor="middle" x="172.62" y="-7.25" font-family="Helvetica,sans-Serif" font-size="10.00">memory</text>
</a>
</g>
</g>
<!-- Node1&#45;&gt;Node4 -->
<g id="edge3_Node000001_Node000004" class="edge">
<title>Node1&#45;&gt;Node4</title>
<g id="a_edge3_Node000001_Node000004"><a xlink:title=" ">
<path fill="none" stroke="#63b8ff" d="M204.65,-56.34C199.49,-49.1 192.31,-39.01 186.05,-30.22"/>
<polygon fill="#63b8ff" stroke="#63b8ff" points="189.07,-28.43 180.42,-22.31 183.37,-32.49 189.07,-28.43"/>
</a>
</g>
</g>
<!-- Node5 -->
<g id="Node000005" class="node">
<title>Node5</title>
<g id="a_Node000005"><a xlink:title=" ">
<polygon fill="#e0e0e0" stroke="#999999" points="283.62,-20.75 219.62,-20.75 219.62,0 283.62,0 283.62,-20.75"/>
<text text-anchor="middle" x="251.62" y="-7.25" font-family="Helvetica,sans-Serif" font-size="10.00">stdexcept</text>
</a>
</g>
</g>
<!-- Node1&#45;&gt;Node5 -->
<g id="edge4_Node000001_Node000005" class="edge">
<title>Node1&#45;&gt;Node5</title>
<g id="a_edge4_Node000001_Node000005"><a xlink:title=" ">
<path fill="none" stroke="#63b8ff" d="M218.78,-56.34C224.07,-49.1 231.44,-39.01 237.85,-30.22"/>
<polygon fill="#63b8ff" stroke="#63b8ff" points="240.57,-32.44 243.64,-22.3 234.92,-28.31 240.57,-32.44"/>
</a>
</g>
</g>
<!-- Node6 -->
<g id="Node000006" class="node">
<title>Node6</title>
<g id="a_Node000006"><a xlink:title=" ">
<polygon fill="#e0e0e0" stroke="#999999" points="393.88,-20.75 301.38,-20.75 301.38,0 393.88,0 393.88,-20.75"/>
<text text-anchor="middle" x="347.62" y="-7.25" font-family="Helvetica,sans-Serif" font-size="10.00">unordered_map</text>
</a>
</g>
</g>
<!-- Node1&#45;&gt;Node6 -->
<g id="edge5_Node000001_Node000006" class="edge">
<title>Node1&#45;&gt;Node6</title>
<g id="a_edge5_Node000001_Node000006"><a xlink:title=" ">
<path fill="none" stroke="#63b8ff" d="M235.94,-56.34C257.41,-47.69 288.95,-35 313.04,-25.3"/>
<polygon fill="#63b8ff" stroke="#63b8ff" points="314.15,-28.63 322.12,-21.64 311.53,-22.13 314.15,-28.63"/>
</a>
</g>
</g>
<!-- Node7 -->
<g id="Node000007" class="node">
<title>Node7</title>
<g id="a_Node000007"><a xlink:title=" ">
<polygon fill="#e0e0e0" stroke="#999999" points="459,-20.75 412.25,-20.75 412.25,0 459,0 459,-20.75"/>
<text text-anchor="middle" x="435.62" y="-7.25" font-family="Helvetica,sans-Serif" font-size="10.00">vector</text>
</a>
</g>
</g>
<!-- Node1&#45;&gt;Node7 -->
<g id="edge6_Node000001_Node000007" class="edge">
<title>Node1&#45;&gt;Node7</title>
<g id="a_edge6_Node000001_Node000007"><a xlink:title=" ">
<path fill="none" stroke="#63b8ff" d="M255.38,-56.3C291.83,-47.99 345.36,-35.49 401.07,-21.07"/>
<polygon fill="#63b8ff" stroke="#63b8ff" points="401.61,-24.55 410.4,-18.64 399.84,-17.77 401.61,-24.55"/>
</a>
</g>
</g>
</g>
</svg>
