<?xml version="1.0" encoding="UTF-8" standalone="no"?>
<!DOCTYPE svg PUBLIC "-//W3C//DTD SVG 1.1//EN"
 "http://www.w3.org/Graphics/SVG/1.1/DTD/svg11.dtd">
<!-- Generated by graphviz version 2.43.0 (0)
 -->
<!-- Title: include/Registry.hpp Pages: 1 -->
<svg width="498pt" height="368pt"
 viewBox="0.00 0.00 498.15 368.00" xmlns="http://www.w3.org/2000/svg" xmlns:xlink="http://www.w3.org/1999/xlink">
<g id="graph0" class="graph" transform="scale(1 1) rotate(0) translate(4 364)">
<title>include/Registry.hpp</title>
<!-- Node1 -->
<g id="Node000001" class="node">
<title>Node1</title>
<g id="a_Node000001"><a xlink:title="Defines the Registry class for managing ECS entities and components.">
<polygon fill="#999999" stroke="#666666" points="197.5,-360 82.5,-360 82.5,-341 197.5,-341 197.5,-360"/>
<text text-anchor="middle" x="140" y="-348" font-family="Helvetica,sans-Serif" font-size="10.00">include/Registry.hpp</text>
</a>
</g>
</g>
<!-- Node2 -->
<g id="Node000002" class="node">
<title>Node2</title>
<g id="a_Node000002"><a xlink:href="Entity_8hpp.html" target="_top" xlink:title="Defines the Entity class, which serves as a wrapper for ECS entities.">
<polygon fill="white" stroke="#666666" points="231.5,-305 128.5,-305 128.5,-286 231.5,-286 231.5,-305"/>
<text text-anchor="middle" x="180" y="-293" font-family="Helvetica,sans-Serif" font-size="10.00">include/Entity.hpp</text>
</a>
</g>
</g>
<!-- Node1&#45;&gt;Node2 -->
<g id="edge1_Node000001_Node000002" class="edge">
<title>Node1&#45;&gt;Node2</title>
<g id="a_edge1_Node000001_Node000002"><a xlink:title=" ">
<path fill="none" stroke="#63b8ff" d="M152.7,-332.67C159.63,-323.5 167.91,-312.52 173.52,-305.09"/>
<polygon fill="#63b8ff" stroke="#63b8ff" points="149.84,-330.66 146.61,-340.75 155.42,-334.87 149.84,-330.66"/>
</a>
</g>
</g>
<!-- Node4 -->
<g id="Node000004" class="node">
<title>Node4</title>
<g id="a_Node000004"><a xlink:href="FrameEngine_8hpp_source.html" target="_top" xlink:title=" ">
<polygon fill="white" stroke="#666666" points="325,-19 185,-19 185,0 325,0 325,-19"/>
<text text-anchor="middle" x="255" y="-7" font-family="Helvetica,sans-Serif" font-size="10.00">include/FrameEngine.hpp</text>
</a>
</g>
</g>
<!-- Node1&#45;&gt;Node4 -->
<g id="edge14_Node000001_Node000004" class="edge">
<title>Node1&#45;&gt;Node4</title>
<g id="a_edge14_Node000001_Node000004"><a xlink:title=" ">
<path fill="none" stroke="#63b8ff" d="M102.45,-337.39C60.98,-321.39 0,-288.87 0,-236 0,-236 0,-236 0,-118.5 0,-37.85 109.49,-16.52 184.98,-11.4"/>
<polygon fill="#63b8ff" stroke="#63b8ff" points="101.41,-340.74 112.01,-340.93 103.84,-334.18 101.41,-340.74"/>
</a>
</g>
</g>
<!-- Node9 -->
<g id="Node000009" class="node">
<title>Node9</title>
<g id="a_Node000009"><a xlink:href="PhysicsSystem_8hpp.html" target="_top" xlink:title="Defines the PhysicsSystem.">
<polygon fill="white" stroke="#666666" points="438.5,-305 249.5,-305 249.5,-286 438.5,-286 438.5,-305"/>
<text text-anchor="middle" x="344" y="-293" font-family="Helvetica,sans-Serif" font-size="10.00">include/physics/PhysicsSystem.hpp</text>
</a>
</g>
</g>
<!-- Node1&#45;&gt;Node9 -->
<g id="edge15_Node000001_Node000009" class="edge">
<title>Node1&#45;&gt;Node9</title>
<g id="a_edge15_Node000001_Node000009"><a xlink:title=" ">
<path fill="none" stroke="#63b8ff" d="M182.58,-338.44C220.77,-328.52 276.02,-314.16 310.97,-305.08"/>
<polygon fill="#63b8ff" stroke="#63b8ff" points="181.57,-335.08 172.78,-340.98 183.33,-341.86 181.57,-335.08"/>
</a>
</g>
</g>
<!-- Node10 -->
<g id="Node000010" class="node">
<title>Node10</title>
<g id="a_Node000010"><a xlink:href="LightingSystem_8hpp_source.html" target="_top" xlink:title=" ">
<polygon fill="white" stroke="#666666" points="171.5,-250 28.5,-250 28.5,-220 171.5,-220 171.5,-250"/>
<text text-anchor="start" x="36.5" y="-238" font-family="Helvetica,sans-Serif" font-size="10.00">include/rendering/Lighting</text>
<text text-anchor="middle" x="100" y="-227" font-family="Helvetica,sans-Serif" font-size="10.00">System.hpp</text>
</a>
</g>
</g>
<!-- Node1&#45;&gt;Node10 -->
<g id="edge16_Node000001_Node000010" class="edge">
<title>Node1&#45;&gt;Node10</title>
<g id="a_edge16_Node000001_Node000010"><a xlink:title=" ">
<path fill="none" stroke="#63b8ff" d="M131.29,-331.66C127.55,-323.62 123.29,-313.94 120,-305 113.16,-286.39 107.1,-264.28 103.49,-250.19"/>
<polygon fill="#63b8ff" stroke="#63b8ff" points="128.18,-333.27 135.64,-340.79 134.5,-330.25 128.18,-333.27"/>
</a>
</g>
</g>
<!-- Node3 -->
<g id="Node000003" class="node">
<title>Node3</title>
<g id="a_Node000003"><a xlink:href="Object_8hpp.html" target="_top" xlink:title="Defines the Object class, a special ECS entity wrapper.">
<polygon fill="white" stroke="#666666" points="336,-244.5 190,-244.5 190,-225.5 336,-225.5 336,-244.5"/>
<text text-anchor="middle" x="263" y="-232.5" font-family="Helvetica,sans-Serif" font-size="10.00">include/objects/Object.hpp</text>
</a>
</g>
</g>
<!-- Node2&#45;&gt;Node3 -->
<g id="edge2_Node000002_Node000003" class="edge">
<title>Node2&#45;&gt;Node3</title>
<g id="a_edge2_Node000002_Node000003"><a xlink:title=" ">
<path fill="none" stroke="#63b8ff" d="M200.79,-279.85C216.51,-268.77 237.56,-253.93 250.7,-244.67"/>
<polygon fill="#63b8ff" stroke="#63b8ff" points="198.4,-277.25 192.25,-285.87 202.44,-282.97 198.4,-277.25"/>
</a>
</g>
</g>
<!-- Node3&#45;&gt;Node4 -->
<g id="edge3_Node000003_Node000004" class="edge">
<title>Node3&#45;&gt;Node4</title>
<g id="a_edge3_Node000003_Node000004"><a xlink:title=" ">
<path fill="none" stroke="#63b8ff" d="M346.14,-225.2C399.02,-217.69 460.54,-204.74 477,-184 539.32,-105.44 359.47,-41.44 285.34,-19.06"/>
<polygon fill="#63b8ff" stroke="#63b8ff" points="345.47,-221.76 336.04,-226.58 346.42,-228.69 345.47,-221.76"/>
</a>
</g>
</g>
<!-- Node5 -->
<g id="Node000005" class="node">
<title>Node5</title>
<g id="a_Node000005"><a xlink:href="PointLight_8hpp_source.html" target="_top" xlink:title=" ">
<polygon fill="white" stroke="#666666" points="285.5,-184 122.5,-184 122.5,-165 285.5,-165 285.5,-184"/>
<text text-anchor="middle" x="204" y="-172" font-family="Helvetica,sans-Serif" font-size="10.00">include/objects/PointLight.hpp</text>
</a>
</g>
</g>
<!-- Node3&#45;&gt;Node5 -->
<g id="edge4_Node000003_Node000005" class="edge">
<title>Node3&#45;&gt;Node5</title>
<g id="a_edge4_Node000003_Node000005"><a xlink:title=" ">
<path fill="none" stroke="#63b8ff" d="M246.95,-218.09C235.94,-207.17 221.73,-193.08 212.74,-184.17"/>
<polygon fill="#63b8ff" stroke="#63b8ff" points="244.73,-220.81 254.29,-225.37 249.66,-215.84 244.73,-220.81"/>
</a>
</g>
</g>
<!-- Node6 -->
<g id="Node000006" class="node">
<title>Node6</title>
<g id="a_Node000006"><a xlink:href="Renderer_8hpp.html" target="_top" xlink:title="Manages the rendering pipeline and object submission.">
<polygon fill="white" stroke="#666666" points="242.5,-129 73.5,-129 73.5,-110 242.5,-110 242.5,-129"/>
<text text-anchor="middle" x="158" y="-117" font-family="Helvetica,sans-Serif" font-size="10.00">include/rendering/Renderer.hpp</text>
</a>
</g>
</g>
<!-- Node3&#45;&gt;Node6 -->
<g id="edge13_Node000003_Node000006" class="edge">
<title>Node3&#45;&gt;Node6</title>
<g id="a_edge13_Node000003_Node000006"><a xlink:title=" ">
<path fill="none" stroke="#63b8ff" d="M210.52,-223.19C172.43,-214.15 125.63,-200.17 114,-184 100.06,-164.62 126.78,-141.49 144.35,-129.19"/>
<polygon fill="#63b8ff" stroke="#63b8ff" points="209.96,-226.65 220.49,-225.49 211.53,-219.83 209.96,-226.65"/>
</a>
</g>
</g>
<!-- Node8 -->
<g id="Node000008" class="node">
<title>Node8</title>
<g id="a_Node000008"><a xlink:href="Camera_8hpp.html" target="_top" xlink:title="Defines the Camera class for view and projection.">
<polygon fill="white" stroke="#666666" points="468,-184 304,-184 304,-165 468,-165 468,-184"/>
<text text-anchor="middle" x="386" y="-172" font-family="Helvetica,sans-Serif" font-size="10.00">include/rendering/Camera.hpp</text>
</a>
</g>
</g>
<!-- Node3&#45;&gt;Node8 -->
<g id="edge10_Node000003_Node000008" class="edge">
<title>Node3&#45;&gt;Node8</title>
<g id="a_edge10_Node000003_Node000008"><a xlink:title=" ">
<path fill="none" stroke="#63b8ff" d="M290.05,-221.13C313.78,-209.85 347.59,-193.77 368.09,-184.02"/>
<polygon fill="#63b8ff" stroke="#63b8ff" points="288.41,-218.04 280.89,-225.49 291.42,-224.36 288.41,-218.04"/>
</a>
</g>
</g>
<!-- Node5&#45;&gt;Node4 -->
<g id="edge5_Node000005_Node000004" class="edge">
<title>Node5&#45;&gt;Node4</title>
<g id="a_edge5_Node000005_Node000004"><a xlink:title=" ">
<path fill="none" stroke="#63b8ff" d="M226.49,-158.91C236.21,-151.28 246.57,-141.01 252,-129 269.11,-91.11 261.09,-39.24 256.94,-19.04"/>
<polygon fill="#63b8ff" stroke="#63b8ff" points="224.28,-156.2 218.26,-164.92 228.4,-161.85 224.28,-156.2"/>
</a>
</g>
</g>
<!-- Node5&#45;&gt;Node6 -->
<g id="edge6_Node000005_Node000006" class="edge">
<title>Node5&#45;&gt;Node6</title>
<g id="a_edge6_Node000005_Node000006"><a xlink:title=" ">
<path fill="none" stroke="#63b8ff" d="M189.64,-156.96C181.63,-147.72 171.97,-136.6 165.45,-129.09"/>
<polygon fill="#63b8ff" stroke="#63b8ff" points="187.21,-159.49 196.4,-164.75 192.49,-154.9 187.21,-159.49"/>
</a>
</g>
</g>
<!-- Node6&#45;&gt;Node4 -->
<g id="edge9_Node000006_Node000004" class="edge">
<title>Node6&#45;&gt;Node4</title>
<g id="a_edge9_Node000006_Node000004"><a xlink:title=" ">
<path fill="none" stroke="#63b8ff" d="M180.77,-104.4C192.49,-96.42 206.48,-85.71 217,-74 232.45,-56.8 244.96,-32.39 251.03,-19.42"/>
<polygon fill="#63b8ff" stroke="#63b8ff" points="178.78,-101.52 172.35,-109.94 182.63,-107.37 178.78,-101.52"/>
</a>
</g>
</g>
<!-- Node7 -->
<g id="Node000007" class="node">
<title>Node7</title>
<g id="a_Node000007"><a xlink:href="Engine_8hpp.html" target="_top" xlink:title="Defines the core Engine class responsible for running simulation.">
<polygon fill="white" stroke="#666666" points="207.5,-74 98.5,-74 98.5,-55 207.5,-55 207.5,-74"/>
<text text-anchor="middle" x="153" y="-62" font-family="Helvetica,sans-Serif" font-size="10.00">include/Engine.hpp</text>
</a>
</g>
</g>
<!-- Node6&#45;&gt;Node7 -->
<g id="edge7_Node000006_Node000007" class="edge">
<title>Node6&#45;&gt;Node7</title>
<g id="a_edge7_Node000006_Node000007"><a xlink:title=" ">
<path fill="none" stroke="#63b8ff" d="M156.22,-99.66C155.4,-90.93 154.46,-80.99 153.81,-74.09"/>
<polygon fill="#63b8ff" stroke="#63b8ff" points="152.75,-100.12 157.17,-109.75 159.72,-99.46 152.75,-100.12"/>
</a>
</g>
</g>
<!-- Node7&#45;&gt;Node4 -->
<g id="edge8_Node000007_Node000004" class="edge">
<title>Node7&#45;&gt;Node4</title>
<g id="a_edge8_Node000007_Node000004"><a xlink:title=" ">
<path fill="none" stroke="#63b8ff" d="M178.27,-50.37C197.01,-40.63 222.02,-27.64 238.31,-19.17"/>
<polygon fill="#63b8ff" stroke="#63b8ff" points="176.65,-47.27 169.39,-54.98 179.88,-53.48 176.65,-47.27"/>
</a>
</g>
</g>
<!-- Node8&#45;&gt;Node4 -->
<g id="edge11_Node000008_Node000004" class="edge">
<title>Node8&#45;&gt;Node4</title>
<g id="a_edge11_Node000008_Node000004"><a xlink:title=" ">
<path fill="none" stroke="#63b8ff" d="M372.43,-156.62C344.83,-122.28 283,-45.34 262.08,-19.31"/>
<polygon fill="#63b8ff" stroke="#63b8ff" points="369.96,-159.13 378.96,-164.74 375.42,-154.75 369.96,-159.13"/>
</a>
</g>
</g>
<!-- Node8&#45;&gt;Node6 -->
<g id="edge12_Node000008_Node000006" class="edge">
<title>Node8&#45;&gt;Node6</title>
<g id="a_edge12_Node000008_Node000006"><a xlink:title=" ">
<path fill="none" stroke="#63b8ff" d="M339.5,-162.69C296.78,-152.76 234.3,-138.24 194.92,-129.08"/>
<polygon fill="#63b8ff" stroke="#63b8ff" points="338.84,-166.13 349.37,-164.98 340.42,-159.31 338.84,-166.13"/>
</a>
</g>
</g>
<!-- Node10&#45;&gt;Node6 -->
<g id="edge17_Node000010_Node000006" class="edge">
<title>Node10&#45;&gt;Node6</title>
<g id="a_edge17_Node000010_Node000006"><a xlink:title=" ">
<path fill="none" stroke="#63b8ff" d="M84.59,-211.02C77.28,-197.03 71.76,-179.2 80,-165 90.41,-147.07 111.06,-135.76 128.5,-129.03"/>
<polygon fill="#63b8ff" stroke="#63b8ff" points="81.74,-213.09 89.79,-219.99 87.8,-209.58 81.74,-213.09"/>
</a>
</g>
</g>
</g>
</svg>
