<?xml version="1.0" encoding="UTF-8" standalone="no"?>
<!DOCTYPE svg PUBLIC "-//W3C//DTD SVG 1.1//EN"
 "http://www.w3.org/Graphics/SVG/1.1/DTD/svg11.dtd">
<!-- Generated by graphviz version 2.43.0 (0)
 -->
<!-- Title: include/Registry.hpp Pages: 1 -->
<svg width="659pt" height="357pt"
 viewBox="0.00 0.00 658.92 357.00" xmlns="http://www.w3.org/2000/svg" xmlns:xlink="http://www.w3.org/1999/xlink">
<g id="graph0" class="graph" transform="scale(1 1) rotate(0) translate(4 353)">
<title>include/Registry.hpp</title>
<!-- Node1 -->
<g id="Node000001" class="node">
<title>Node1</title>
<g id="a_Node000001"><a xlink:title="Defines the Registry class for managing ECS entities and components.">
<polygon fill="#999999" stroke="#666666" points="490.92,-349 375.92,-349 375.92,-330 490.92,-330 490.92,-349"/>
<text text-anchor="middle" x="433.42" y="-337" font-family="Helvetica,sans-Serif" font-size="10.00">include/Registry.hpp</text>
</a>
</g>
</g>
<!-- Node2 -->
<g id="Node000002" class="node">
<title>Node2</title>
<g id="a_Node000002"><a xlink:href="Entity_8hpp.html" target="_top" xlink:title="Defines the Entity class, which serves as a wrapper for ECS entities.">
<polygon fill="white" stroke="#666666" points="334.92,-294 231.92,-294 231.92,-275 334.92,-275 334.92,-294"/>
<text text-anchor="middle" x="283.42" y="-282" font-family="Helvetica,sans-Serif" font-size="10.00">include/Entity.hpp</text>
</a>
</g>
</g>
<!-- Node1&#45;&gt;Node2 -->
<g id="edge1_Node000001_Node000002" class="edge">
<title>Node1&#45;&gt;Node2</title>
<g id="a_edge1_Node000001_Node000002"><a xlink:title=" ">
<path fill="none" stroke="#63b8ff" d="M399.6,-326.55C371.74,-316.71 332.9,-302.98 307.96,-294.17"/>
<polygon fill="#63b8ff" stroke="#63b8ff" points="398.72,-329.95 409.32,-329.98 401.06,-323.35 398.72,-329.95"/>
</a>
</g>
</g>
<!-- Node4 -->
<g id="Node000004" class="node">
<title>Node4</title>
<g id="a_Node000004"><a xlink:href="FrameEngine_8hpp_source.html" target="_top" xlink:title=" ">
<polygon fill="white" stroke="#666666" points="260.42,-19 120.42,-19 120.42,0 260.42,0 260.42,-19"/>
<text text-anchor="middle" x="190.42" y="-7" font-family="Helvetica,sans-Serif" font-size="10.00">include/FrameEngine.hpp</text>
</a>
</g>
</g>
<!-- Node1&#45;&gt;Node4 -->
<g id="edge14_Node000001_Node000004" class="edge">
<title>Node1&#45;&gt;Node4</title>
<g id="a_edge14_Node000001_Node000004"><a xlink:title=" ">
<path fill="none" stroke="#63b8ff" d="M433.42,-319.77C433.42,-298.23 433.42,-261.81 433.42,-230.5 433.42,-230.5 433.42,-230.5 433.42,-118.5 433.42,-42.33 332.47,-19.48 260.7,-12.86"/>
<polygon fill="#63b8ff" stroke="#63b8ff" points="429.92,-319.82 433.42,-329.82 436.92,-319.82 429.92,-319.82"/>
</a>
</g>
</g>
<!-- Node9 -->
<g id="Node000009" class="node">
<title>Node9</title>
<g id="a_Node000009"><a xlink:href="PhysicsSystem_8hpp.html" target="_top" xlink:title="Defines the PhysicsSystem.">
<polygon fill="white" stroke="#666666" points="650.92,-294 461.92,-294 461.92,-275 650.92,-275 650.92,-294"/>
<text text-anchor="middle" x="556.42" y="-282" font-family="Helvetica,sans-Serif" font-size="10.00">include/physics/PhysicsSystem.hpp</text>
</a>
</g>
</g>
<!-- Node1&#45;&gt;Node9 -->
<g id="edge15_Node000001_Node000009" class="edge">
<title>Node1&#45;&gt;Node9</title>
<g id="a_edge15_Node000001_Node000009"><a xlink:title=" ">
<path fill="none" stroke="#63b8ff" d="M462.67,-325.9C485.38,-316.11 516.29,-302.79 536.3,-294.17"/>
<polygon fill="#63b8ff" stroke="#63b8ff" points="460.98,-322.81 453.18,-329.98 463.75,-329.24 460.98,-322.81"/>
</a>
</g>
</g>
<!-- Node3 -->
<g id="Node000003" class="node">
<title>Node3</title>
<g id="a_Node000003"><a xlink:href="Object_8hpp.html" target="_top" xlink:title="Defines the Object class, a special ECS entity wrapper.">
<polygon fill="white" stroke="#666666" points="286.42,-239 140.42,-239 140.42,-220 286.42,-220 286.42,-239"/>
<text text-anchor="middle" x="213.42" y="-227" font-family="Helvetica,sans-Serif" font-size="10.00">include/objects/Object.hpp</text>
</a>
</g>
</g>
<!-- Node2&#45;&gt;Node3 -->
<g id="edge2_Node000002_Node000003" class="edge">
<title>Node2&#45;&gt;Node3</title>
<g id="a_edge2_Node000002_Node000003"><a xlink:title=" ">
<path fill="none" stroke="#63b8ff" d="M264.1,-268.88C251.51,-259.34 235.49,-247.21 224.87,-239.17"/>
<polygon fill="#63b8ff" stroke="#63b8ff" points="262.09,-271.74 272.17,-274.98 266.31,-266.16 262.09,-271.74"/>
</a>
</g>
</g>
<!-- Node3&#45;&gt;Node4 -->
<g id="edge3_Node000003_Node000004" class="edge">
<title>Node3&#45;&gt;Node4</title>
<g id="a_edge3_Node000003_Node000004"><a xlink:title=" ">
<path fill="none" stroke="#63b8ff" d="M130.47,-220.57C81.98,-214.03 27.44,-202.71 12.42,-184 -43.77,-114.01 108.85,-43.21 168.07,-19.13"/>
<polygon fill="#63b8ff" stroke="#63b8ff" points="130.02,-224.04 140.39,-221.86 130.92,-217.1 130.02,-224.04"/>
</a>
</g>
</g>
<!-- Node5 -->
<g id="Node000005" class="node">
<title>Node5</title>
<g id="a_Node000005"><a xlink:href="PointLight_8hpp_source.html" target="_top" xlink:title=" ">
<polygon fill="white" stroke="#666666" points="184.92,-184 21.92,-184 21.92,-165 184.92,-165 184.92,-184"/>
<text text-anchor="middle" x="103.42" y="-172" font-family="Helvetica,sans-Serif" font-size="10.00">include/objects/PointLight.hpp</text>
</a>
</g>
</g>
<!-- Node3&#45;&gt;Node5 -->
<g id="edge4_Node000003_Node000005" class="edge">
<title>Node3&#45;&gt;Node5</title>
<g id="a_edge4_Node000003_Node000005"><a xlink:title=" ">
<path fill="none" stroke="#63b8ff" d="M186.71,-215.63C166.45,-205.87 139.15,-192.71 121.41,-184.17"/>
<polygon fill="#63b8ff" stroke="#63b8ff" points="185.22,-218.8 195.75,-219.98 188.26,-212.49 185.22,-218.8"/>
</a>
</g>
</g>
<!-- Node6 -->
<g id="Node000006" class="node">
<title>Node6</title>
<g id="a_Node000006"><a xlink:href="Renderer_8hpp.html" target="_top" xlink:title="Manages the rendering pipeline and object submission.">
<polygon fill="white" stroke="#666666" points="297.92,-129 128.92,-129 128.92,-110 297.92,-110 297.92,-129"/>
<text text-anchor="middle" x="213.42" y="-117" font-family="Helvetica,sans-Serif" font-size="10.00">include/rendering/Renderer.hpp</text>
</a>
</g>
</g>
<!-- Node3&#45;&gt;Node6 -->
<g id="edge13_Node000003_Node000006" class="edge">
<title>Node3&#45;&gt;Node6</title>
<g id="a_edge13_Node000003_Node000006"><a xlink:title=" ">
<path fill="none" stroke="#63b8ff" d="M213.42,-209.48C213.42,-185.84 213.42,-146.5 213.42,-129.16"/>
<polygon fill="#63b8ff" stroke="#63b8ff" points="209.92,-209.66 213.42,-219.66 216.92,-209.66 209.92,-209.66"/>
</a>
</g>
</g>
<!-- Node8 -->
<g id="Node000008" class="node">
<title>Node8</title>
<g id="a_Node000008"><a xlink:href="Camera_8hpp.html" target="_top" xlink:title="Defines the Camera class for view and projection.">
<polygon fill="white" stroke="#666666" points="405.42,-184 241.42,-184 241.42,-165 405.42,-165 405.42,-184"/>
<text text-anchor="middle" x="323.42" y="-172" font-family="Helvetica,sans-Serif" font-size="10.00">include/rendering/Camera.hpp</text>
</a>
</g>
</g>
<!-- Node3&#45;&gt;Node8 -->
<g id="edge10_Node000003_Node000008" class="edge">
<title>Node3&#45;&gt;Node8</title>
<g id="a_edge10_Node000003_Node000008"><a xlink:title=" ">
<path fill="none" stroke="#63b8ff" d="M240.12,-215.63C260.39,-205.87 287.69,-192.71 305.42,-184.17"/>
<polygon fill="#63b8ff" stroke="#63b8ff" points="238.58,-212.49 231.09,-219.98 241.62,-218.8 238.58,-212.49"/>
</a>
</g>
</g>
<!-- Node5&#45;&gt;Node4 -->
<g id="edge5_Node000005_Node000004" class="edge">
<title>Node5&#45;&gt;Node4</title>
<g id="a_edge5_Node000005_Node000004"><a xlink:title=" ">
<path fill="none" stroke="#63b8ff" d="M106.22,-154.88C108.62,-141.89 112.77,-124.36 119.42,-110 136.53,-73.02 167.91,-35.54 182.53,-19.11"/>
<polygon fill="#63b8ff" stroke="#63b8ff" points="102.74,-154.5 104.54,-164.94 109.64,-155.66 102.74,-154.5"/>
</a>
</g>
</g>
<!-- Node5&#45;&gt;Node6 -->
<g id="edge6_Node000005_Node000006" class="edge">
<title>Node5&#45;&gt;Node6</title>
<g id="a_edge6_Node000005_Node000006"><a xlink:title=" ">
<path fill="none" stroke="#63b8ff" d="M130.12,-160.63C150.39,-150.87 177.69,-137.71 195.42,-129.17"/>
<polygon fill="#63b8ff" stroke="#63b8ff" points="128.58,-157.49 121.09,-164.98 131.62,-163.8 128.58,-157.49"/>
</a>
</g>
</g>
<!-- Node6&#45;&gt;Node4 -->
<g id="edge9_Node000006_Node000004" class="edge">
<title>Node6&#45;&gt;Node4</title>
<g id="a_edge9_Node000006_Node000004"><a xlink:title=" ">
<path fill="none" stroke="#63b8ff" d="M191.9,-103.45C182.84,-95.8 173.28,-85.64 168.42,-74 160.42,-54.84 174.18,-31.62 183.31,-19.26"/>
<polygon fill="#63b8ff" stroke="#63b8ff" points="189.9,-106.33 199.93,-109.75 194.22,-100.83 189.9,-106.33"/>
</a>
</g>
</g>
<!-- Node7 -->
<g id="Node000007" class="node">
<title>Node7</title>
<g id="a_Node000007"><a xlink:href="Engine_8hpp.html" target="_top" xlink:title="Defines the core Engine class responsible for running simulation.">
<polygon fill="white" stroke="#666666" points="286.92,-74 177.92,-74 177.92,-55 286.92,-55 286.92,-74"/>
<text text-anchor="middle" x="232.42" y="-62" font-family="Helvetica,sans-Serif" font-size="10.00">include/Engine.hpp</text>
</a>
</g>
</g>
<!-- Node6&#45;&gt;Node7 -->
<g id="edge7_Node000006_Node000007" class="edge">
<title>Node6&#45;&gt;Node7</title>
<g id="a_edge7_Node000006_Node000007"><a xlink:title=" ">
<path fill="none" stroke="#63b8ff" d="M219.96,-100.24C223.14,-91.37 226.81,-81.14 229.34,-74.09"/>
<polygon fill="#63b8ff" stroke="#63b8ff" points="216.64,-99.15 216.56,-109.75 223.23,-101.52 216.64,-99.15"/>
</a>
</g>
</g>
<!-- Node7&#45;&gt;Node4 -->
<g id="edge8_Node000007_Node000004" class="edge">
<title>Node7&#45;&gt;Node4</title>
<g id="a_edge8_Node000007_Node000004"><a xlink:title=" ">
<path fill="none" stroke="#63b8ff" d="M219.08,-46.67C211.81,-37.5 203.12,-26.52 197.23,-19.09"/>
<polygon fill="#63b8ff" stroke="#63b8ff" points="216.53,-49.08 225.48,-54.75 222.02,-44.74 216.53,-49.08"/>
</a>
</g>
</g>
<!-- Node8&#45;&gt;Node4 -->
<g id="edge11_Node000008_Node000004" class="edge">
<title>Node8&#45;&gt;Node4</title>
<g id="a_edge11_Node000008_Node000004"><a xlink:title=" ">
<path fill="none" stroke="#63b8ff" d="M323.96,-154.74C323.69,-129.25 319.54,-83.58 295.42,-55 279.78,-36.47 255.06,-25.48 233.54,-19.06"/>
<polygon fill="#63b8ff" stroke="#63b8ff" points="320.46,-154.87 323.87,-164.9 327.46,-154.93 320.46,-154.87"/>
</a>
</g>
</g>
<!-- Node8&#45;&gt;Node6 -->
<g id="edge12_Node000008_Node000006" class="edge">
<title>Node8&#45;&gt;Node6</title>
<g id="a_edge12_Node000008_Node000006"><a xlink:title=" ">
<path fill="none" stroke="#63b8ff" d="M296.71,-160.63C276.45,-150.87 249.15,-137.71 231.41,-129.17"/>
<polygon fill="#63b8ff" stroke="#63b8ff" points="295.22,-163.8 305.75,-164.98 298.26,-157.49 295.22,-163.8"/>
</a>
</g>
</g>
</g>
</svg>
