<?xml version="1.0" encoding="UTF-8" standalone="no"?>
<!DOCTYPE svg PUBLIC "-//W3C//DTD SVG 1.1//EN"
 "http://www.w3.org/Graphics/SVG/1.1/DTD/svg11.dtd">
<!-- Generated by graphviz version 12.2.1 (0)
 -->
<!-- Title: include/rendering/Renderer.hpp Pages: 1 -->
<svg width="1518pt" height="426pt"
 viewBox="0.00 0.00 1517.88 426.00" xmlns="http://www.w3.org/2000/svg" xmlns:xlink="http://www.w3.org/1999/xlink">
<g id="graph0" class="graph" transform="scale(1 1) rotate(0) translate(4 422)">
<title>include/rendering/Renderer.hpp</title>
<!-- Node1 -->
<g id="Node000001" class="node">
<title>Node1</title>
<g id="a_Node000001"><a xlink:title="Manages the rendering pipeline and object submission.">
<polygon fill="#999999" stroke="#666666" points="1142.38,-418 973.38,-418 973.38,-397.25 1142.38,-397.25 1142.38,-418"/>
<text text-anchor="middle" x="1057.88" y="-404.5" font-family="Helvetica,sans-Serif" font-size="10.00">include/rendering/Renderer.hpp</text>
</a>
</g>
</g>
<!-- Node2 -->
<g id="Node000002" class="node">
<title>Node2</title>
<g id="a_Node000002"><a xlink:href="Registry_8hpp.html" target="_top" xlink:title="Defines the Registry class for managing ECS entities and components.">
<polygon fill="white" stroke="#666666" points="351.88,-191 275.88,-191 275.88,-170.25 351.88,-170.25 351.88,-191"/>
<text text-anchor="middle" x="313.88" y="-177.5" font-family="Helvetica,sans-Serif" font-size="10.00">Registry.hpp</text>
</a>
</g>
</g>
<!-- Node1&#45;&gt;Node2 -->
<g id="edge1_Node000001_Node000002" class="edge">
<title>Node1&#45;&gt;Node2</title>
<g id="a_edge1_Node000001_Node000002"><a xlink:title=" ">
<path fill="none" stroke="#63b8ff" d="M972.95,-404.73C811.79,-400.52 473.53,-388.53 427.88,-361.25 366.65,-324.67 332.93,-241.07 320.05,-202.2"/>
<polygon fill="#63b8ff" stroke="#63b8ff" points="323.4,-201.19 317.05,-192.71 316.73,-203.3 323.4,-201.19"/>
</a>
</g>
</g>
<!-- Node8 -->
<g id="Node000008" class="node">
<title>Node8</title>
<g id="a_Node000008"><a xlink:title=" ">
<polygon fill="#e0e0e0" stroke="#999999" points="458.25,-134.25 411.5,-134.25 411.5,-113.5 458.25,-113.5 458.25,-134.25"/>
<text text-anchor="middle" x="434.88" y="-120.75" font-family="Helvetica,sans-Serif" font-size="10.00">vector</text>
</a>
</g>
</g>
<!-- Node1&#45;&gt;Node8 -->
<g id="edge51_Node000001_Node000008" class="edge">
<title>Node1&#45;&gt;Node8</title>
<g id="a_edge51_Node000001_Node000008"><a xlink:title=" ">
<path fill="none" stroke="#63b8ff" d="M973.19,-399.98C804.35,-385.59 441.88,-348.48 441.88,-295.12 441.88,-295.12 441.88,-295.12 441.88,-236.38 441.88,-204.92 439.07,-168.57 437.01,-146.15"/>
<polygon fill="#63b8ff" stroke="#63b8ff" points="440.49,-145.83 436.05,-136.21 433.52,-146.5 440.49,-145.83"/>
</a>
</g>
</g>
<!-- Node9 -->
<g id="Node000009" class="node">
<title>Node9</title>
<g id="a_Node000009"><a xlink:href="Object_8hpp.html" target="_top" xlink:title="Defines the Object class, a special ECS entity wrapper.">
<polygon fill="white" stroke="#666666" points="1196.25,-304.5 1089.5,-304.5 1089.5,-283.75 1196.25,-283.75 1196.25,-304.5"/>
<text text-anchor="middle" x="1142.88" y="-291" font-family="Helvetica,sans-Serif" font-size="10.00">objects/Object.hpp</text>
</a>
</g>
</g>
<!-- Node1&#45;&gt;Node9 -->
<g id="edge8_Node000001_Node000009" class="edge">
<title>Node1&#45;&gt;Node9</title>
<g id="a_edge8_Node000001_Node000009"><a xlink:title=" ">
<path fill="none" stroke="#63b8ff" d="M1062.27,-397.13C1068.67,-383.79 1081.38,-359.09 1095.88,-340.5 1103.74,-330.41 1113.8,-320.4 1122.6,-312.36"/>
<polygon fill="#63b8ff" stroke="#63b8ff" points="1124.86,-315.03 1130.02,-305.78 1120.22,-309.79 1124.86,-315.03"/>
</a>
</g>
</g>
<!-- Node27 -->
<g id="Node000027" class="node">
<title>Node27</title>
<g id="a_Node000027"><a xlink:href="PointLight_8hpp_source.html" target="_top" xlink:title=" ">
<polygon fill="white" stroke="#666666" points="1370.88,-361.25 1246.88,-361.25 1246.88,-340.5 1370.88,-340.5 1370.88,-361.25"/>
<text text-anchor="middle" x="1308.88" y="-347.75" font-family="Helvetica,sans-Serif" font-size="10.00">objects/PointLight.hpp</text>
</a>
</g>
</g>
<!-- Node1&#45;&gt;Node27 -->
<g id="edge39_Node000001_Node000027" class="edge">
<title>Node1&#45;&gt;Node27</title>
<g id="a_edge39_Node000001_Node000027"><a xlink:title=" ">
<path fill="none" stroke="#63b8ff" d="M1103.04,-396.77C1144.94,-387.63 1207.44,-374 1252.57,-364.16"/>
<polygon fill="#63b8ff" stroke="#63b8ff" points="1253.15,-367.61 1262.17,-362.06 1251.66,-360.77 1253.15,-367.61"/>
</a>
</g>
</g>
<!-- Node28 -->
<g id="Node000028" class="node">
<title>Node28</title>
<g id="a_Node000028"><a xlink:href="Camera_8hpp.html" target="_top" xlink:title="Defines the Camera class for view and projection.">
<polygon fill="white" stroke="#666666" points="1229.25,-361.25 1104.5,-361.25 1104.5,-340.5 1229.25,-340.5 1229.25,-361.25"/>
<text text-anchor="middle" x="1166.88" y="-347.75" font-family="Helvetica,sans-Serif" font-size="10.00">rendering/Camera.hpp</text>
</a>
</g>
</g>
<!-- Node1&#45;&gt;Node28 -->
<g id="edge42_Node000001_Node000028" class="edge">
<title>Node1&#45;&gt;Node28</title>
<g id="a_edge42_Node000001_Node000028"><a xlink:title=" ">
<path fill="none" stroke="#63b8ff" d="M1077.36,-396.84C1094.02,-388.47 1118.26,-376.29 1137.31,-366.72"/>
<polygon fill="#63b8ff" stroke="#63b8ff" points="1138.84,-369.87 1146.2,-362.26 1135.7,-363.62 1138.84,-369.87"/>
</a>
</g>
</g>
<!-- Node29 -->
<g id="Node000029" class="node">
<title>Node29</title>
<g id="a_Node000029"><a xlink:href="Shader_8hpp.html" target="_top" xlink:title="Manages OpenGL shaders.">
<polygon fill="white" stroke="#666666" points="1099,-247.75 978.75,-247.75 978.75,-227 1099,-227 1099,-247.75"/>
<text text-anchor="middle" x="1038.88" y="-234.25" font-family="Helvetica,sans-Serif" font-size="10.00">rendering/Shader.hpp</text>
</a>
</g>
</g>
<!-- Node1&#45;&gt;Node29 -->
<g id="edge46_Node000001_Node000029" class="edge">
<title>Node1&#45;&gt;Node29</title>
<g id="a_edge46_Node000001_Node000029"><a xlink:title=" ">
<path fill="none" stroke="#63b8ff" d="M1056.8,-397.1C1053.82,-370.73 1045.42,-296.33 1041.26,-259.53"/>
<polygon fill="#63b8ff" stroke="#63b8ff" points="1044.76,-259.27 1040.16,-249.72 1037.8,-260.05 1044.76,-259.27"/>
</a>
</g>
</g>
<!-- Node3 -->
<g id="Node000003" class="node">
<title>Node3</title>
<g id="a_Node000003"><a xlink:title=" ">
<polygon fill="#e0e0e0" stroke="#999999" points="393.5,-134.25 330.25,-134.25 330.25,-113.5 393.5,-113.5 393.5,-134.25"/>
<text text-anchor="middle" x="361.88" y="-120.75" font-family="Helvetica,sans-Serif" font-size="10.00">algorithm</text>
</a>
</g>
</g>
<!-- Node2&#45;&gt;Node3 -->
<g id="edge2_Node000002_Node000003" class="edge">
<title>Node2&#45;&gt;Node3</title>
<g id="a_edge2_Node000002_Node000003"><a xlink:title=" ">
<path fill="none" stroke="#63b8ff" d="M322.46,-169.84C328.94,-162.44 338.03,-152.07 345.85,-143.16"/>
<polygon fill="#63b8ff" stroke="#63b8ff" points="348.41,-145.54 352.37,-135.72 343.15,-140.93 348.41,-145.54"/>
</a>
</g>
</g>
<!-- Node4 -->
<g id="Node000004" class="node">
<title>Node4</title>
<g id="a_Node000004"><a xlink:title=" ">
<polygon fill="#e0e0e0" stroke="#999999" points="43.75,-134.25 0,-134.25 0,-113.5 43.75,-113.5 43.75,-134.25"/>
<text text-anchor="middle" x="21.88" y="-120.75" font-family="Helvetica,sans-Serif" font-size="10.00">bitset</text>
</a>
</g>
</g>
<!-- Node2&#45;&gt;Node4 -->
<g id="edge3_Node000002_Node000004" class="edge">
<title>Node2&#45;&gt;Node4</title>
<g id="a_edge3_Node000002_Node000004"><a xlink:title=" ">
<path fill="none" stroke="#63b8ff" d="M275.54,-174.45C226.55,-167.51 138.94,-154.02 55.13,-134.56"/>
<polygon fill="#63b8ff" stroke="#63b8ff" points="56.15,-131.2 45.61,-132.31 54.54,-138.01 56.15,-131.2"/>
</a>
</g>
</g>
<!-- Node5 -->
<g id="Node000005" class="node">
<title>Node5</title>
<g id="a_Node000005"><a xlink:title=" ">
<polygon fill="#e0e0e0" stroke="#999999" points="119.5,-134.25 62.25,-134.25 62.25,-113.5 119.5,-113.5 119.5,-134.25"/>
<text text-anchor="middle" x="90.88" y="-120.75" font-family="Helvetica,sans-Serif" font-size="10.00">memory</text>
</a>
</g>
</g>
<!-- Node2&#45;&gt;Node5 -->
<g id="edge4_Node000002_Node000005" class="edge">
<title>Node2&#45;&gt;Node5</title>
<g id="a_edge4_Node000002_Node000005"><a xlink:title=" ">
<path fill="none" stroke="#63b8ff" d="M275.61,-170.25C240.53,-161.66 186.85,-148.51 131.09,-134.79"/>
<polygon fill="#63b8ff" stroke="#63b8ff" points="131.94,-131.4 121.39,-132.41 130.26,-138.19 131.94,-131.4"/>
</a>
</g>
</g>
<!-- Node6 -->
<g id="Node000006" class="node">
<title>Node6</title>
<g id="a_Node000006"><a xlink:title=" ">
<polygon fill="#e0e0e0" stroke="#999999" points="201.88,-134.25 137.88,-134.25 137.88,-113.5 201.88,-113.5 201.88,-134.25"/>
<text text-anchor="middle" x="169.88" y="-120.75" font-family="Helvetica,sans-Serif" font-size="10.00">stdexcept</text>
</a>
</g>
</g>
<!-- Node2&#45;&gt;Node6 -->
<g id="edge5_Node000002_Node000006" class="edge">
<title>Node2&#45;&gt;Node6</title>
<g id="a_edge5_Node000002_Node000006"><a xlink:title=" ">
<path fill="none" stroke="#63b8ff" d="M288.13,-169.84C265.3,-161.16 231.7,-148.38 206.15,-138.67"/>
<polygon fill="#63b8ff" stroke="#63b8ff" points="207.4,-135.4 196.81,-135.12 204.91,-141.94 207.4,-135.4"/>
</a>
</g>
</g>
<!-- Node7 -->
<g id="Node000007" class="node">
<title>Node7</title>
<g id="a_Node000007"><a xlink:title=" ">
<polygon fill="#e0e0e0" stroke="#999999" points="312.12,-134.25 219.62,-134.25 219.62,-113.5 312.12,-113.5 312.12,-134.25"/>
<text text-anchor="middle" x="265.88" y="-120.75" font-family="Helvetica,sans-Serif" font-size="10.00">unordered_map</text>
</a>
</g>
</g>
<!-- Node2&#45;&gt;Node7 -->
<g id="edge6_Node000002_Node000007" class="edge">
<title>Node2&#45;&gt;Node7</title>
<g id="a_edge6_Node000002_Node000007"><a xlink:title=" ">
<path fill="none" stroke="#63b8ff" d="M305.29,-169.84C298.81,-162.44 289.72,-152.07 281.9,-143.16"/>
<polygon fill="#63b8ff" stroke="#63b8ff" points="284.6,-140.93 275.38,-135.72 279.34,-145.54 284.6,-140.93"/>
</a>
</g>
</g>
<!-- Node2&#45;&gt;Node8 -->
<g id="edge7_Node000002_Node000008" class="edge">
<title>Node2&#45;&gt;Node8</title>
<g id="a_edge7_Node000002_Node000008"><a xlink:title=" ">
<path fill="none" stroke="#63b8ff" d="M335.51,-169.84C354.35,-161.31 381.91,-148.84 403.23,-139.19"/>
<polygon fill="#63b8ff" stroke="#63b8ff" points="404.38,-142.51 412.05,-135.2 401.5,-136.14 404.38,-142.51"/>
</a>
</g>
</g>
<!-- Node10 -->
<g id="Node000010" class="node">
<title>Node10</title>
<g id="a_Node000010"><a xlink:href="Entity_8hpp.html" target="_top" xlink:title="Defines the Entity class, which serves as a wrapper for ECS entities.">
<polygon fill="white" stroke="#666666" points="960.88,-247.75 896.88,-247.75 896.88,-227 960.88,-227 960.88,-247.75"/>
<text text-anchor="middle" x="928.88" y="-234.25" font-family="Helvetica,sans-Serif" font-size="10.00">Entity.hpp</text>
</a>
</g>
</g>
<!-- Node9&#45;&gt;Node10 -->
<g id="edge9_Node000009_Node000010" class="edge">
<title>Node9&#45;&gt;Node10</title>
<g id="a_edge9_Node000009_Node000010"><a xlink:title=" ">
<path fill="none" stroke="#63b8ff" d="M1104.62,-283.34C1067.41,-273.82 1010.98,-259.38 972.16,-249.45"/>
<polygon fill="#63b8ff" stroke="#63b8ff" points="973.23,-246.11 962.68,-247.02 971.5,-252.89 973.23,-246.11"/>
</a>
</g>
</g>
<!-- Node20 -->
<g id="Node000020" class="node">
<title>Node20</title>
<g id="a_Node000020"><a xlink:href="TransformComponent_8hpp.html" target="_top" xlink:title="Defines the TransformComponent for ECS&#45;based spatial transformations.">
<polygon fill="white" stroke="#666666" points="1322.75,-247.75 1117,-247.75 1117,-227 1322.75,-227 1322.75,-247.75"/>
<text text-anchor="middle" x="1219.88" y="-234.25" font-family="Helvetica,sans-Serif" font-size="10.00">components/TransformComponent.hpp</text>
</a>
</g>
</g>
<!-- Node9&#45;&gt;Node20 -->
<g id="edge21_Node000009_Node000020" class="edge">
<title>Node9&#45;&gt;Node20</title>
<g id="a_edge21_Node000009_Node000020"><a xlink:title=" ">
<path fill="none" stroke="#63b8ff" d="M1156.64,-283.34C1167.81,-275.4 1183.79,-264.03 1196.9,-254.71"/>
<polygon fill="#63b8ff" stroke="#63b8ff" points="1198.87,-257.6 1204.99,-248.96 1194.82,-251.9 1198.87,-257.6"/>
</a>
</g>
</g>
<!-- Node25 -->
<g id="Node000025" class="node">
<title>Node25</title>
<g id="a_Node000025"><a xlink:href="Mesh_8hpp.html" target="_top" xlink:title="Defines the Mesh class for managing 3D geometry.">
<polygon fill="white" stroke="#666666" points="626.25,-191 513.5,-191 513.5,-170.25 626.25,-170.25 626.25,-191"/>
<text text-anchor="middle" x="569.88" y="-177.5" font-family="Helvetica,sans-Serif" font-size="10.00">rendering/Mesh.hpp</text>
</a>
</g>
</g>
<!-- Node9&#45;&gt;Node25 -->
<g id="edge34_Node000009_Node000025" class="edge">
<title>Node9&#45;&gt;Node25</title>
<g id="a_edge34_Node000009_Node000025"><a xlink:title=" ">
<path fill="none" stroke="#63b8ff" d="M1089.06,-284.01C1037.4,-275.16 957.19,-261.12 887.88,-247.75 795.95,-230.02 689.5,-207.47 626.03,-193.82"/>
<polygon fill="#63b8ff" stroke="#63b8ff" points="627.07,-190.46 616.56,-191.77 625.6,-197.3 627.07,-190.46"/>
</a>
</g>
</g>
<!-- Node10&#45;&gt;Node2 -->
<g id="edge19_Node000010_Node000002" class="edge">
<title>Node10&#45;&gt;Node2</title>
<g id="a_edge19_Node000010_Node000002"><a xlink:title=" ">
<path fill="none" stroke="#63b8ff" d="M896.68,-233.51C795.76,-224.52 485.13,-196.87 363.47,-186.04"/>
<polygon fill="#63b8ff" stroke="#63b8ff" points="364.08,-182.58 353.81,-185.18 363.46,-189.55 364.08,-182.58"/>
</a>
</g>
</g>
<!-- Node11 -->
<g id="Node000011" class="node">
<title>Node11</title>
<g id="a_Node000011"><a xlink:href="Logger_8hpp.html" target="_top" xlink:title="Provides logging functionality.">
<polygon fill="white" stroke="#666666" points="963.88,-191 893.88,-191 893.88,-170.25 963.88,-170.25 963.88,-191"/>
<text text-anchor="middle" x="928.88" y="-177.5" font-family="Helvetica,sans-Serif" font-size="10.00">Logger.hpp</text>
</a>
</g>
</g>
<!-- Node10&#45;&gt;Node11 -->
<g id="edge10_Node000010_Node000011" class="edge">
<title>Node10&#45;&gt;Node11</title>
<g id="a_edge10_Node000010_Node000011"><a xlink:title=" ">
<path fill="none" stroke="#63b8ff" d="M928.88,-226.59C928.88,-219.97 928.88,-210.97 928.88,-202.77"/>
<polygon fill="#63b8ff" stroke="#63b8ff" points="932.38,-202.84 928.88,-192.84 925.38,-202.84 932.38,-202.84"/>
</a>
</g>
</g>
<!-- Node16 -->
<g id="Node000016" class="node">
<title>Node16</title>
<g id="a_Node000016"><a xlink:title=" ">
<polygon fill="#e0e0e0" stroke="#999999" points="1108.62,-134.25 1049.12,-134.25 1049.12,-113.5 1108.62,-113.5 1108.62,-134.25"/>
<text text-anchor="middle" x="1078.88" y="-120.75" font-family="Helvetica,sans-Serif" font-size="10.00">iostream</text>
</a>
</g>
</g>
<!-- Node10&#45;&gt;Node16 -->
<g id="edge20_Node000010_Node000016" class="edge">
<title>Node10&#45;&gt;Node16</title>
<g id="a_edge20_Node000010_Node000016"><a xlink:title=" ">
<path fill="none" stroke="#63b8ff" d="M941.92,-226.68C967.63,-207.56 1025.09,-164.86 1056.8,-141.29"/>
<polygon fill="#63b8ff" stroke="#63b8ff" points="1058.6,-144.31 1064.53,-135.53 1054.42,-138.69 1058.6,-144.31"/>
</a>
</g>
</g>
<!-- Node12 -->
<g id="Node000012" class="node">
<title>Node12</title>
<g id="a_Node000012"><a xlink:title=" ">
<polygon fill="#e0e0e0" stroke="#999999" points="765.38,-134.25 716.38,-134.25 716.38,-113.5 765.38,-113.5 765.38,-134.25"/>
<text text-anchor="middle" x="740.88" y="-120.75" font-family="Helvetica,sans-Serif" font-size="10.00">chrono</text>
</a>
</g>
</g>
<!-- Node11&#45;&gt;Node12 -->
<g id="edge11_Node000011_Node000012" class="edge">
<title>Node11&#45;&gt;Node12</title>
<g id="a_edge11_Node000011_Node000012"><a xlink:title=" ">
<path fill="none" stroke="#63b8ff" d="M895.26,-169.84C861.86,-160.11 810.82,-145.24 776.67,-135.3"/>
<polygon fill="#63b8ff" stroke="#63b8ff" points="777.82,-131.99 767.24,-132.55 775.87,-138.71 777.82,-131.99"/>
</a>
</g>
</g>
<!-- Node13 -->
<g id="Node000013" class="node">
<title>Node13</title>
<g id="a_Node000013"><a xlink:title=" ">
<polygon fill="#e0e0e0" stroke="#999999" points="854.25,-134.25 783.5,-134.25 783.5,-113.5 854.25,-113.5 854.25,-134.25"/>
<text text-anchor="middle" x="818.88" y="-120.75" font-family="Helvetica,sans-Serif" font-size="10.00">fmt/printf.h</text>
</a>
</g>
</g>
<!-- Node11&#45;&gt;Node13 -->
<g id="edge12_Node000011_Node000013" class="edge">
<title>Node11&#45;&gt;Node13</title>
<g id="a_edge12_Node000011_Node000013"><a xlink:title=" ">
<path fill="none" stroke="#63b8ff" d="M909.21,-169.84C892.32,-161.43 867.71,-149.18 848.44,-139.59"/>
<polygon fill="#63b8ff" stroke="#63b8ff" points="850.24,-136.58 839.73,-135.25 847.12,-142.84 850.24,-136.58"/>
</a>
</g>
</g>
<!-- Node14 -->
<g id="Node000014" class="node">
<title>Node14</title>
<g id="a_Node000014"><a xlink:title=" ">
<polygon fill="#e0e0e0" stroke="#999999" points="927,-134.25 872.75,-134.25 872.75,-113.5 927,-113.5 927,-134.25"/>
<text text-anchor="middle" x="899.88" y="-120.75" font-family="Helvetica,sans-Serif" font-size="10.00">fstream</text>
</a>
</g>
</g>
<!-- Node11&#45;&gt;Node14 -->
<g id="edge13_Node000011_Node000014" class="edge">
<title>Node11&#45;&gt;Node14</title>
<g id="a_edge13_Node000011_Node000014"><a xlink:title=" ">
<path fill="none" stroke="#63b8ff" d="M923.69,-169.84C919.98,-162.83 914.86,-153.16 910.31,-144.58"/>
<polygon fill="#63b8ff" stroke="#63b8ff" points="913.5,-143.11 905.72,-135.92 907.31,-146.39 913.5,-143.11"/>
</a>
</g>
</g>
<!-- Node15 -->
<g id="Node000015" class="node">
<title>Node15</title>
<g id="a_Node000015"><a xlink:title=" ">
<polygon fill="#e0e0e0" stroke="#999999" points="1220.75,-134.25 1165,-134.25 1165,-113.5 1220.75,-113.5 1220.75,-134.25"/>
<text text-anchor="middle" x="1192.88" y="-120.75" font-family="Helvetica,sans-Serif" font-size="10.00">iomanip</text>
</a>
</g>
</g>
<!-- Node11&#45;&gt;Node15 -->
<g id="edge14_Node000011_Node000015" class="edge">
<title>Node11&#45;&gt;Node15</title>
<g id="a_edge14_Node000011_Node000015"><a xlink:title=" ">
<path fill="none" stroke="#63b8ff" d="M964.21,-172.3C1013.35,-162.11 1102.06,-143.71 1153.35,-133.07"/>
<polygon fill="#63b8ff" stroke="#63b8ff" points="1154.05,-136.5 1163.13,-131.04 1152.63,-129.65 1154.05,-136.5"/>
</a>
</g>
</g>
<!-- Node11&#45;&gt;Node16 -->
<g id="edge15_Node000011_Node000016" class="edge">
<title>Node11&#45;&gt;Node16</title>
<g id="a_edge15_Node000011_Node000016"><a xlink:title=" ">
<path fill="none" stroke="#63b8ff" d="M955.69,-169.84C979.61,-161.11 1014.88,-148.23 1041.55,-138.5"/>
<polygon fill="#63b8ff" stroke="#63b8ff" points="1042.42,-141.91 1050.62,-135.19 1040.02,-135.33 1042.42,-141.91"/>
</a>
</g>
</g>
<!-- Node17 -->
<g id="Node000017" class="node">
<title>Node17</title>
<g id="a_Node000017"><a xlink:title=" ">
<polygon fill="#e0e0e0" stroke="#999999" points="992.62,-134.25 945.12,-134.25 945.12,-113.5 992.62,-113.5 992.62,-134.25"/>
<text text-anchor="middle" x="968.88" y="-120.75" font-family="Helvetica,sans-Serif" font-size="10.00">mutex</text>
</a>
</g>
</g>
<!-- Node11&#45;&gt;Node17 -->
<g id="edge16_Node000011_Node000017" class="edge">
<title>Node11&#45;&gt;Node17</title>
<g id="a_edge16_Node000011_Node000017"><a xlink:title=" ">
<path fill="none" stroke="#63b8ff" d="M936.03,-169.84C941.32,-162.6 948.69,-152.51 955.1,-143.72"/>
<polygon fill="#63b8ff" stroke="#63b8ff" points="957.82,-145.94 960.89,-135.8 952.17,-141.81 957.82,-145.94"/>
</a>
</g>
</g>
<!-- Node18 -->
<g id="Node000018" class="node">
<title>Node18</title>
<g id="a_Node000018"><a xlink:title=" ">
<polygon fill="#e0e0e0" stroke="#999999" points="1311.75,-20.75 1256,-20.75 1256,0 1311.75,0 1311.75,-20.75"/>
<text text-anchor="middle" x="1283.88" y="-7.25" font-family="Helvetica,sans-Serif" font-size="10.00">sstream</text>
</a>
</g>
</g>
<!-- Node11&#45;&gt;Node18 -->
<g id="edge17_Node000011_Node000018" class="edge">
<title>Node11&#45;&gt;Node18</title>
<g id="a_edge17_Node000011_Node000018"><a xlink:title=" ">
<path fill="none" stroke="#63b8ff" d="M944.64,-169.86C970.55,-153.87 1021.15,-122.94 1039.88,-113.5 1111.02,-77.64 1197.79,-43.49 1246.34,-25.19"/>
<polygon fill="#63b8ff" stroke="#63b8ff" points="1247.41,-28.53 1255.55,-21.74 1244.96,-21.97 1247.41,-28.53"/>
</a>
</g>
</g>
<!-- Node19 -->
<g id="Node000019" class="node">
<title>Node19</title>
<g id="a_Node000019"><a xlink:title=" ">
<polygon fill="#e0e0e0" stroke="#999999" points="627.75,-20.75 584,-20.75 584,0 627.75,0 627.75,-20.75"/>
<text text-anchor="middle" x="605.88" y="-7.25" font-family="Helvetica,sans-Serif" font-size="10.00">string</text>
</a>
</g>
</g>
<!-- Node11&#45;&gt;Node19 -->
<g id="edge18_Node000011_Node000019" class="edge">
<title>Node11&#45;&gt;Node19</title>
<g id="a_edge18_Node000011_Node000019"><a xlink:title=" ">
<path fill="none" stroke="#63b8ff" d="M893.43,-175.31C839,-168.2 737.88,-152.93 706.88,-134.25 664.47,-108.7 631.92,-58.67 616.22,-30.98"/>
<polygon fill="#63b8ff" stroke="#63b8ff" points="619.32,-29.34 611.44,-22.25 613.18,-32.7 619.32,-29.34"/>
</a>
</g>
</g>
<!-- Node21 -->
<g id="Node000021" class="node">
<title>Node21</title>
<g id="a_Node000021"><a xlink:href="Matrix4_8hpp.html" target="_top" xlink:title="Defines the Matrix4 class for 3D transformation operations.">
<polygon fill="white" stroke="#666666" points="1351.38,-191 1248.38,-191 1248.38,-170.25 1351.38,-170.25 1351.38,-191"/>
<text text-anchor="middle" x="1299.88" y="-177.5" font-family="Helvetica,sans-Serif" font-size="10.00">math/Matrix4.hpp</text>
</a>
</g>
</g>
<!-- Node20&#45;&gt;Node21 -->
<g id="edge22_Node000020_Node000021" class="edge">
<title>Node20&#45;&gt;Node21</title>
<g id="a_edge22_Node000020_Node000021"><a xlink:title=" ">
<path fill="none" stroke="#63b8ff" d="M1234.18,-226.59C1245.89,-218.57 1262.71,-207.06 1276.4,-197.69"/>
<polygon fill="#63b8ff" stroke="#63b8ff" points="1278.17,-200.72 1284.45,-192.18 1274.22,-194.94 1278.17,-200.72"/>
</a>
</g>
</g>
<!-- Node22 -->
<g id="Node000022" class="node">
<title>Node22</title>
<g id="a_Node000022"><a xlink:href="Quaternion_8hpp.html" target="_top" xlink:title="Defines the Quaternion class for representing 3D rotations.">
<polygon fill="white" stroke="#666666" points="1329.38,-134.25 1238.38,-134.25 1238.38,-113.5 1329.38,-113.5 1329.38,-134.25"/>
<text text-anchor="middle" x="1283.88" y="-120.75" font-family="Helvetica,sans-Serif" font-size="10.00">Quaternion.hpp</text>
</a>
</g>
</g>
<!-- Node20&#45;&gt;Node22 -->
<g id="edge32_Node000020_Node000022" class="edge">
<title>Node20&#45;&gt;Node22</title>
<g id="a_edge32_Node000020_Node000022"><a xlink:title=" ">
<path fill="none" stroke="#63b8ff" d="M1221.3,-226.82C1223.61,-213.43 1229.05,-188.65 1239.88,-170.25 1246.01,-159.83 1255.01,-149.98 1263.27,-142.13"/>
<polygon fill="#63b8ff" stroke="#63b8ff" points="1265.57,-144.78 1270.66,-135.49 1260.88,-139.57 1265.57,-144.78"/>
</a>
</g>
</g>
<!-- Node23 -->
<g id="Node000023" class="node">
<title>Node23</title>
<g id="a_Node000023"><a xlink:href="Vector3_8hpp.html" target="_top" xlink:title="Defines the Vector3 class.">
<polygon fill="white" stroke="#666666" points="1321.12,-77.5 1246.62,-77.5 1246.62,-56.75 1321.12,-56.75 1321.12,-77.5"/>
<text text-anchor="middle" x="1283.88" y="-64" font-family="Helvetica,sans-Serif" font-size="10.00">Vector3.hpp</text>
</a>
</g>
</g>
<!-- Node20&#45;&gt;Node23 -->
<g id="edge33_Node000020_Node000023" class="edge">
<title>Node20&#45;&gt;Node23</title>
<g id="a_edge33_Node000020_Node000023"><a xlink:title=" ">
<path fill="none" stroke="#63b8ff" d="M1306.6,-226.57C1327.66,-219.86 1347.85,-208.87 1360.88,-191 1370.43,-177.89 1369.73,-138.83 1353.88,-113.5 1345.69,-100.42 1332.2,-90.37 1319.23,-83.09"/>
<polygon fill="#63b8ff" stroke="#63b8ff" points="1320.89,-80.01 1310.4,-78.54 1317.68,-86.23 1320.89,-80.01"/>
</a>
</g>
</g>
<!-- Node21&#45;&gt;Node15 -->
<g id="edge30_Node000021_Node000015" class="edge">
<title>Node21&#45;&gt;Node15</title>
<g id="a_edge30_Node000021_Node000015"><a xlink:title=" ">
<path fill="none" stroke="#63b8ff" d="M1280.75,-169.84C1264.39,-161.47 1240.6,-149.29 1221.9,-139.72"/>
<polygon fill="#63b8ff" stroke="#63b8ff" points="1223.68,-136.71 1213.19,-135.27 1220.49,-142.94 1223.68,-136.71"/>
</a>
</g>
</g>
<!-- Node21&#45;&gt;Node18 -->
<g id="edge31_Node000021_Node000018" class="edge">
<title>Node21&#45;&gt;Node18</title>
<g id="a_edge31_Node000021_Node000018"><a xlink:title=" ">
<path fill="none" stroke="#63b8ff" d="M1318.36,-169.86C1330.94,-162.08 1346.58,-149.9 1353.88,-134.25 1357.77,-125.89 1355.71,-122.54 1353.88,-113.5 1348.43,-86.66 1345.25,-79.41 1329.88,-56.75 1322.86,-46.42 1313.25,-36.49 1304.63,-28.57"/>
<polygon fill="#63b8ff" stroke="#63b8ff" points="1307.1,-26.09 1297.28,-22.11 1302.48,-31.34 1307.1,-26.09"/>
</a>
</g>
</g>
<!-- Node21&#45;&gt;Node22 -->
<g id="edge23_Node000021_Node000022" class="edge">
<title>Node21&#45;&gt;Node22</title>
<g id="a_edge23_Node000021_Node000022"><a xlink:title=" ">
<path fill="none" stroke="#63b8ff" d="M1297.01,-169.84C1295.04,-163.06 1292.33,-153.8 1289.88,-145.44"/>
<polygon fill="#63b8ff" stroke="#63b8ff" points="1293.3,-144.65 1287.14,-136.03 1286.58,-146.61 1293.3,-144.65"/>
</a>
</g>
</g>
<!-- Node21&#45;&gt;Node23 -->
<g id="edge29_Node000021_Node000023" class="edge">
<title>Node21&#45;&gt;Node23</title>
<g id="a_edge29_Node000021_Node000023"><a xlink:title=" ">
<path fill="none" stroke="#63b8ff" d="M1312.62,-169.86C1327.44,-157.22 1348.71,-134.36 1338.88,-113.5 1333.22,-101.5 1322.66,-91.59 1312.29,-84.13"/>
<polygon fill="#63b8ff" stroke="#63b8ff" points="1314.5,-81.4 1304.23,-78.81 1310.65,-87.24 1314.5,-81.4"/>
</a>
</g>
</g>
<!-- Node22&#45;&gt;Node23 -->
<g id="edge24_Node000022_Node000023" class="edge">
<title>Node22&#45;&gt;Node23</title>
<g id="a_edge24_Node000022_Node000023"><a xlink:title=" ">
<path fill="none" stroke="#63b8ff" d="M1283.88,-113.09C1283.88,-106.47 1283.88,-97.47 1283.88,-89.27"/>
<polygon fill="#63b8ff" stroke="#63b8ff" points="1287.38,-89.34 1283.88,-79.34 1280.38,-89.34 1287.38,-89.34"/>
</a>
</g>
</g>
<!-- Node24 -->
<g id="Node000024" class="node">
<title>Node24</title>
<g id="a_Node000024"><a xlink:title=" ">
<polygon fill="#e0e0e0" stroke="#999999" points="1122.25,-20.75 1075.5,-20.75 1075.5,0 1122.25,0 1122.25,-20.75"/>
<text text-anchor="middle" x="1098.88" y="-7.25" font-family="Helvetica,sans-Serif" font-size="10.00">cmath</text>
</a>
</g>
</g>
<!-- Node22&#45;&gt;Node24 -->
<g id="edge28_Node000022_Node000024" class="edge">
<title>Node22&#45;&gt;Node24</title>
<g id="a_edge28_Node000022_Node000024"><a xlink:title=" ">
<path fill="none" stroke="#63b8ff" d="M1267.78,-113.18C1235.66,-93.82 1163.38,-50.25 1124.6,-26.88"/>
<polygon fill="#63b8ff" stroke="#63b8ff" points="1126.73,-24.08 1116.36,-21.91 1123.12,-30.07 1126.73,-24.08"/>
</a>
</g>
</g>
<!-- Node23&#45;&gt;Node18 -->
<g id="edge26_Node000023_Node000018" class="edge">
<title>Node23&#45;&gt;Node18</title>
<g id="a_edge26_Node000023_Node000018"><a xlink:title=" ">
<path fill="none" stroke="#63b8ff" d="M1283.88,-56.34C1283.88,-49.72 1283.88,-40.72 1283.88,-32.52"/>
<polygon fill="#63b8ff" stroke="#63b8ff" points="1287.38,-32.59 1283.88,-22.59 1280.38,-32.59 1287.38,-32.59"/>
</a>
</g>
</g>
<!-- Node23&#45;&gt;Node19 -->
<g id="edge27_Node000023_Node000019" class="edge">
<title>Node23&#45;&gt;Node19</title>
<g id="a_edge27_Node000023_Node000019"><a xlink:title=" ">
<path fill="none" stroke="#63b8ff" d="M1246.46,-63.1C1126.73,-53.44 754.18,-23.35 639.69,-14.11"/>
<polygon fill="#63b8ff" stroke="#63b8ff" points="639.98,-10.62 629.74,-13.3 639.42,-17.6 639.98,-10.62"/>
</a>
</g>
</g>
<!-- Node23&#45;&gt;Node24 -->
<g id="edge25_Node000023_Node000024" class="edge">
<title>Node23&#45;&gt;Node24</title>
<g id="a_edge25_Node000023_Node000024"><a xlink:title=" ">
<path fill="none" stroke="#63b8ff" d="M1250.8,-56.34C1217.65,-46.53 1166.85,-31.49 1133.25,-21.55"/>
<polygon fill="#63b8ff" stroke="#63b8ff" points="1134.6,-18.3 1124.01,-18.81 1132.61,-25.01 1134.6,-18.3"/>
</a>
</g>
</g>
<!-- Node25&#45;&gt;Node8 -->
<g id="edge38_Node000025_Node000008" class="edge">
<title>Node25&#45;&gt;Node8</title>
<g id="a_edge38_Node000025_Node000008"><a xlink:title=" ">
<path fill="none" stroke="#63b8ff" d="M545.74,-169.84C524.3,-161.14 492.74,-148.34 468.76,-138.62"/>
<polygon fill="#63b8ff" stroke="#63b8ff" points="470.33,-135.48 459.75,-134.96 467.7,-141.97 470.33,-135.48"/>
</a>
</g>
</g>
<!-- Node25&#45;&gt;Node19 -->
<g id="edge37_Node000025_Node000019" class="edge">
<title>Node25&#45;&gt;Node19</title>
<g id="a_edge37_Node000025_Node000019"><a xlink:title=" ">
<path fill="none" stroke="#63b8ff" d="M568.77,-169.9C567.78,-160.73 566.42,-146.57 565.88,-134.25 565.47,-125.04 564.16,-122.56 565.88,-113.5 571.51,-83.64 585.66,-51.33 595.52,-31.22"/>
<polygon fill="#63b8ff" stroke="#63b8ff" points="598.54,-33.01 599.93,-22.5 592.3,-29.85 598.54,-33.01"/>
</a>
</g>
</g>
<!-- Node25&#45;&gt;Node23 -->
<g id="edge35_Node000025_Node000023" class="edge">
<title>Node25&#45;&gt;Node23</title>
<g id="a_edge35_Node000025_Node000023"><a xlink:title=" ">
<path fill="none" stroke="#63b8ff" d="M568.16,-169.8C566.23,-155.13 565.17,-127.71 580.88,-113.5 629.17,-69.83 1083.57,-67.41 1235.02,-67.84"/>
<polygon fill="#63b8ff" stroke="#63b8ff" points="1234.7,-71.34 1244.72,-67.87 1234.73,-64.34 1234.7,-71.34"/>
</a>
</g>
</g>
<!-- Node26 -->
<g id="Node000026" class="node">
<title>Node26</title>
<g id="a_Node000026"><a xlink:title=" ">
<polygon fill="#e0e0e0" stroke="#999999" points="659.88,-134.25 589.88,-134.25 589.88,-113.5 659.88,-113.5 659.88,-134.25"/>
<text text-anchor="middle" x="624.88" y="-120.75" font-family="Helvetica,sans-Serif" font-size="10.00">glad/glad.h</text>
</a>
</g>
</g>
<!-- Node25&#45;&gt;Node26 -->
<g id="edge36_Node000025_Node000026" class="edge">
<title>Node25&#45;&gt;Node26</title>
<g id="a_edge36_Node000025_Node000026"><a xlink:title=" ">
<path fill="none" stroke="#63b8ff" d="M579.71,-169.84C587.29,-162.28 597.99,-151.64 607.07,-142.6"/>
<polygon fill="#63b8ff" stroke="#63b8ff" points="609.44,-145.18 614.05,-135.65 604.5,-140.22 609.44,-145.18"/>
</a>
</g>
</g>
<!-- Node27&#45;&gt;Node9 -->
<g id="edge40_Node000027_Node000009" class="edge">
<title>Node27&#45;&gt;Node9</title>
<g id="a_edge40_Node000027_Node000009"><a xlink:title=" ">
<path fill="none" stroke="#63b8ff" d="M1279.2,-340.09C1252.49,-331.28 1213,-318.25 1183.39,-308.49"/>
<polygon fill="#63b8ff" stroke="#63b8ff" points="1184.61,-305.2 1174.01,-305.39 1182.41,-311.85 1184.61,-305.2"/>
</a>
</g>
</g>
<!-- Node27&#45;&gt;Node23 -->
<g id="edge41_Node000027_Node000023" class="edge">
<title>Node27&#45;&gt;Node23</title>
<g id="a_edge41_Node000027_Node000023"><a xlink:title=" ">
<path fill="none" stroke="#63b8ff" d="M1371.37,-341.75C1430.37,-330.16 1509.88,-302.62 1509.88,-238.38 1509.88,-238.38 1509.88,-238.38 1509.88,-179.62 1509.88,-101.15 1398.92,-77.9 1332.5,-71.02"/>
<polygon fill="#63b8ff" stroke="#63b8ff" points="1333.24,-67.57 1322.95,-70.12 1332.58,-74.54 1333.24,-67.57"/>
</a>
</g>
</g>
<!-- Node28&#45;&gt;Node9 -->
<g id="edge45_Node000028_Node000009" class="edge">
<title>Node28&#45;&gt;Node9</title>
<g id="a_edge45_Node000028_Node000009"><a xlink:title=" ">
<path fill="none" stroke="#63b8ff" d="M1162.58,-340.09C1159.55,-333.16 1155.37,-323.62 1151.64,-315.11"/>
<polygon fill="#63b8ff" stroke="#63b8ff" points="1154.96,-313.97 1147.74,-306.21 1148.55,-316.78 1154.96,-313.97"/>
</a>
</g>
</g>
<!-- Node28&#45;&gt;Node21 -->
<g id="edge43_Node000028_Node000021" class="edge">
<title>Node28&#45;&gt;Node21</title>
<g id="a_edge43_Node000028_Node000021"><a xlink:title=" ">
<path fill="none" stroke="#63b8ff" d="M1200.44,-340.1C1240.01,-326.57 1303.92,-297.93 1331.88,-247.75 1340.75,-231.82 1329.73,-213.05 1318.26,-199.59"/>
<polygon fill="#63b8ff" stroke="#63b8ff" points="1320.89,-197.28 1311.53,-192.33 1315.76,-202.04 1320.89,-197.28"/>
</a>
</g>
</g>
<!-- Node28&#45;&gt;Node23 -->
<g id="edge44_Node000028_Node000023" class="edge">
<title>Node28&#45;&gt;Node23</title>
<g id="a_edge44_Node000028_Node000023"><a xlink:title=" ">
<path fill="none" stroke="#63b8ff" d="M1215.23,-340.04C1292.17,-322.99 1433.88,-285.22 1433.88,-238.38 1433.88,-238.38 1433.88,-238.38 1433.88,-179.62 1433.88,-127.88 1375.66,-97.33 1331.76,-81.65"/>
<polygon fill="#63b8ff" stroke="#63b8ff" points="1332.98,-78.37 1322.39,-78.47 1330.73,-85 1332.98,-78.37"/>
</a>
</g>
</g>
<!-- Node29&#45;&gt;Node19 -->
<g id="edge50_Node000029_Node000019" class="edge">
<title>Node29&#45;&gt;Node19</title>
<g id="a_edge50_Node000029_Node000019"><a xlink:title=" ">
<path fill="none" stroke="#63b8ff" d="M978.32,-227.95C975.46,-227.61 972.64,-227.29 969.88,-227 918.35,-221.51 540.08,-229.03 504.88,-191 457.32,-139.62 541.49,-61.82 583.79,-28.03"/>
<polygon fill="#63b8ff" stroke="#63b8ff" points="585.68,-30.99 591.4,-22.08 581.36,-25.48 585.68,-30.99"/>
</a>
</g>
</g>
<!-- Node29&#45;&gt;Node21 -->
<g id="edge47_Node000029_Node000021" class="edge">
<title>Node29&#45;&gt;Node21</title>
<g id="a_edge47_Node000029_Node000021"><a xlink:title=" ">
<path fill="none" stroke="#63b8ff" d="M1085.84,-226.52C1129.5,-217.37 1194.67,-203.69 1241.63,-193.84"/>
<polygon fill="#63b8ff" stroke="#63b8ff" points="1242.3,-197.28 1251.37,-191.8 1240.86,-190.43 1242.3,-197.28"/>
</a>
</g>
</g>
<!-- Node29&#45;&gt;Node23 -->
<g id="edge48_Node000029_Node000023" class="edge">
<title>Node29&#45;&gt;Node23</title>
<g id="a_edge48_Node000029_Node000023"><a xlink:title=" ">
<path fill="none" stroke="#63b8ff" d="M1045.63,-226.6C1061.97,-203.66 1105.95,-145.87 1155.88,-113.5 1179.98,-97.87 1210.13,-86.84 1235.12,-79.57"/>
<polygon fill="#63b8ff" stroke="#63b8ff" points="1236.04,-82.95 1244.73,-76.9 1234.16,-76.2 1236.04,-82.95"/>
</a>
</g>
</g>
<!-- Node29&#45;&gt;Node26 -->
<g id="edge49_Node000029_Node000026" class="edge">
<title>Node29&#45;&gt;Node26</title>
<g id="a_edge49_Node000029_Node000026"><a xlink:title=" ">
<path fill="none" stroke="#63b8ff" d="M1002.5,-226.58C927.14,-206.28 754.07,-159.67 671.01,-137.3"/>
<polygon fill="#63b8ff" stroke="#63b8ff" points="672.17,-133.99 661.6,-134.77 670.35,-140.75 672.17,-133.99"/>
</a>
</g>
</g>
</g>
</svg>
