<?xml version="1.0" encoding="UTF-8" standalone="no"?>
<!DOCTYPE svg PUBLIC "-//W3C//DTD SVG 1.1//EN"
 "http://www.w3.org/Graphics/SVG/1.1/DTD/svg11.dtd">
<!-- Generated by graphviz version 2.43.0 (0)
 -->
<!-- Title: include/rendering/Renderer.hpp Pages: 1 -->
<svg width="1860pt" height="522pt"
 viewBox="0.00 0.00 1859.60 522.00" xmlns="http://www.w3.org/2000/svg" xmlns:xlink="http://www.w3.org/1999/xlink">
<g id="graph0" class="graph" transform="scale(1 1) rotate(0) translate(4 518)">
<title>include/rendering/Renderer.hpp</title>
<!-- Node1 -->
<g id="Node000001" class="node">
<title>Node1</title>
<g id="a_Node000001"><a xlink:title="Manages the rendering pipeline and object submission.">
<polygon fill="#999999" stroke="#666666" points="835,-514 666,-514 666,-495 835,-495 835,-514"/>
<text text-anchor="middle" x="750.5" y="-502" font-family="Helvetica,sans-Serif" font-size="10.00">include/rendering/Renderer.hpp</text>
</a>
</g>
</g>
<!-- Node2 -->
<g id="Node000002" class="node">
<title>Node2</title>
<g id="a_Node000002"><a xlink:href="Window_8hpp.html" target="_top" xlink:title="Provides a window for OpenGL rendering using GLFW.">
<polygon fill="white" stroke="#666666" points="100.5,-239 24.5,-239 24.5,-220 100.5,-220 100.5,-239"/>
<text text-anchor="middle" x="62.5" y="-227" font-family="Helvetica,sans-Serif" font-size="10.00">Window.hpp</text>
</a>
</g>
</g>
<!-- Node1&#45;&gt;Node2 -->
<g id="edge1_Node000001_Node000002" class="edge">
<title>Node1&#45;&gt;Node2</title>
<g id="a_edge1_Node000001_Node000002"><a xlink:title=" ">
<path fill="none" stroke="#63b8ff" d="M665.78,-500.7C531.86,-495.62 277.57,-483.09 190.5,-459 129.29,-442.07 62.5,-459 62.5,-395.5 62.5,-395.5 62.5,-395.5 62.5,-338.5 62.5,-307.19 62.5,-270.77 62.5,-249.23"/>
<polygon fill="#63b8ff" stroke="#63b8ff" points="66,-249.18 62.5,-239.18 59,-249.18 66,-249.18"/>
</a>
</g>
</g>
<!-- Node6 -->
<g id="Node000006" class="node">
<title>Node6</title>
<g id="a_Node000006"><a xlink:href="Object_8hpp.html" target="_top" xlink:title="Defines the Object class, a special ECS entity wrapper.">
<polygon fill="white" stroke="#666666" points="804,-404 697,-404 697,-385 804,-385 804,-404"/>
<text text-anchor="middle" x="750.5" y="-392" font-family="Helvetica,sans-Serif" font-size="10.00">objects/Object.hpp</text>
</a>
</g>
</g>
<!-- Node1&#45;&gt;Node6 -->
<g id="edge5_Node000001_Node000006" class="edge">
<title>Node1&#45;&gt;Node6</title>
<g id="a_edge5_Node000001_Node000006"><a xlink:title=" ">
<path fill="none" stroke="#63b8ff" d="M750.5,-494.66C750.5,-477.17 750.5,-437.8 750.5,-414.27"/>
<polygon fill="#63b8ff" stroke="#63b8ff" points="754,-414.16 750.5,-404.16 747,-414.16 754,-414.16"/>
</a>
</g>
</g>
<!-- Node22 -->
<g id="Node000022" class="node">
<title>Node22</title>
<g id="a_Node000022"><a xlink:title=" ">
<polygon fill="#e0e0e0" stroke="#999999" points="726,-184 679,-184 679,-165 726,-165 726,-184"/>
<text text-anchor="middle" x="702.5" y="-172" font-family="Helvetica,sans-Serif" font-size="10.00">vector</text>
</a>
</g>
</g>
<!-- Node1&#45;&gt;Node22 -->
<g id="edge74_Node000001_Node000022" class="edge">
<title>Node1&#45;&gt;Node22</title>
<g id="a_edge74_Node000001_Node000022"><a xlink:title=" ">
<path fill="none" stroke="#63b8ff" d="M835.43,-496.23C864.25,-490.05 894.86,-478.91 917.5,-459 940.4,-438.86 943.5,-426 943.5,-395.5 943.5,-395.5 943.5,-395.5 943.5,-283.5 943.5,-253.33 942.55,-239.47 919.5,-220 858.2,-168.23 819.7,-199.84 736.12,-183.86"/>
<polygon fill="#63b8ff" stroke="#63b8ff" points="736.76,-180.42 726.25,-181.8 735.32,-187.27 736.76,-180.42"/>
</a>
</g>
</g>
<!-- Node27 -->
<g id="Node000027" class="node">
<title>Node27</title>
<g id="a_Node000027"><a xlink:href="Shader_8hpp.html" target="_top" xlink:title="Manages OpenGL shaders.">
<polygon fill="white" stroke="#666666" points="432.5,-239 312.5,-239 312.5,-220 432.5,-220 432.5,-239"/>
<text text-anchor="middle" x="372.5" y="-227" font-family="Helvetica,sans-Serif" font-size="10.00">rendering/Shader.hpp</text>
</a>
</g>
</g>
<!-- Node1&#45;&gt;Node27 -->
<g id="edge73_Node000001_Node000027" class="edge">
<title>Node1&#45;&gt;Node27</title>
<g id="a_edge73_Node000001_Node000027"><a xlink:title=" ">
<path fill="none" stroke="#63b8ff" d="M665.86,-498.12C489.82,-485.81 100.5,-452.16 100.5,-395.5 100.5,-395.5 100.5,-395.5 100.5,-338.5 100.5,-292.52 236.48,-257.57 316.15,-241.04"/>
<polygon fill="#63b8ff" stroke="#63b8ff" points="316.95,-244.44 326.05,-239.02 315.55,-237.59 316.95,-244.44"/>
</a>
</g>
</g>
<!-- Node34 -->
<g id="Node000034" class="node">
<title>Node34</title>
<g id="a_Node000034"><a xlink:href="PointLight_8hpp_source.html" target="_top" xlink:title=" ">
<polygon fill="white" stroke="#666666" points="704,-459 579,-459 579,-440 704,-440 704,-459"/>
<text text-anchor="middle" x="641.5" y="-447" font-family="Helvetica,sans-Serif" font-size="10.00">objects/PointLight.hpp</text>
</a>
</g>
</g>
<!-- Node1&#45;&gt;Node34 -->
<g id="edge56_Node000001_Node000034" class="edge">
<title>Node1&#45;&gt;Node34</title>
<g id="a_edge56_Node000001_Node000034"><a xlink:title=" ">
<path fill="none" stroke="#63b8ff" d="M732.99,-494.98C715.53,-486.5 688.49,-473.35 668.33,-463.54"/>
<polygon fill="#63b8ff" stroke="#63b8ff" points="669.86,-460.4 659.33,-459.17 666.79,-466.69 669.86,-460.4"/>
</a>
</g>
</g>
<!-- Node36 -->
<g id="Node000036" class="node">
<title>Node36</title>
<g id="a_Node000036"><a xlink:href="Camera_8hpp.html" target="_top" xlink:title="Defines the Camera class for view and projection.">
<polygon fill="white" stroke="#666666" points="908,-459 783,-459 783,-440 908,-440 908,-459"/>
<text text-anchor="middle" x="845.5" y="-447" font-family="Helvetica,sans-Serif" font-size="10.00">rendering/Camera.hpp</text>
</a>
</g>
</g>
<!-- Node1&#45;&gt;Node36 -->
<g id="edge61_Node000001_Node000036" class="edge">
<title>Node1&#45;&gt;Node36</title>
<g id="a_edge61_Node000001_Node000036"><a xlink:title=" ">
<path fill="none" stroke="#63b8ff" d="M765.76,-494.98C780.63,-486.69 803.48,-473.94 820.92,-464.22"/>
<polygon fill="#63b8ff" stroke="#63b8ff" points="822.93,-467.1 829.96,-459.17 819.52,-460.99 822.93,-467.1"/>
</a>
</g>
</g>
<!-- Node37 -->
<g id="Node000037" class="node">
<title>Node37</title>
<g id="a_Node000037"><a xlink:href="LightingSystem_8hpp_source.html" target="_top" xlink:title=" ">
<polygon fill="white" stroke="#666666" points="1159,-294 996,-294 996,-275 1159,-275 1159,-294"/>
<text text-anchor="middle" x="1077.5" y="-282" font-family="Helvetica,sans-Serif" font-size="10.00">rendering/LightingSystem.hpp</text>
</a>
</g>
</g>
<!-- Node1&#45;&gt;Node37 -->
<g id="edge65_Node000001_Node000037" class="edge">
<title>Node1&#45;&gt;Node37</title>
<g id="a_edge65_Node000001_Node000037"><a xlink:title=" ">
<path fill="none" stroke="#63b8ff" d="M835.17,-499.58C875.03,-494.33 921.58,-482.98 957.5,-459 1016.85,-419.37 1055.37,-339.56 1070.39,-303.69"/>
<polygon fill="#63b8ff" stroke="#63b8ff" points="1073.78,-304.64 1074.29,-294.06 1067.29,-302.01 1073.78,-304.64"/>
</a>
</g>
</g>
<!-- Node3 -->
<g id="Node000003" class="node">
<title>Node3</title>
<g id="a_Node000003"><a xlink:title=" ">
<polygon fill="#e0e0e0" stroke="#999999" points="331,-184 260,-184 260,-165 331,-165 331,-184"/>
<text text-anchor="middle" x="295.5" y="-172" font-family="Helvetica,sans-Serif" font-size="10.00">glad/glad.h</text>
</a>
</g>
</g>
<!-- Node2&#45;&gt;Node3 -->
<g id="edge2_Node000002_Node000003" class="edge">
<title>Node2&#45;&gt;Node3</title>
<g id="a_edge2_Node000002_Node000003"><a xlink:title=" ">
<path fill="none" stroke="#63b8ff" d="M99.94,-219.98C140.75,-210.7 206.08,-195.84 249.87,-185.88"/>
<polygon fill="#63b8ff" stroke="#63b8ff" points="250.71,-189.28 259.69,-183.65 249.16,-182.45 250.71,-189.28"/>
</a>
</g>
</g>
<!-- Node4 -->
<g id="Node000004" class="node">
<title>Node4</title>
<g id="a_Node000004"><a xlink:title=" ">
<polygon fill="#e0e0e0" stroke="#999999" points="83,-184 0,-184 0,-165 83,-165 83,-184"/>
<text text-anchor="middle" x="41.5" y="-172" font-family="Helvetica,sans-Serif" font-size="10.00">GLFW/glfw3.h</text>
</a>
</g>
</g>
<!-- Node2&#45;&gt;Node4 -->
<g id="edge3_Node000002_Node000004" class="edge">
<title>Node2&#45;&gt;Node4</title>
<g id="a_edge3_Node000002_Node000004"><a xlink:title=" ">
<path fill="none" stroke="#63b8ff" d="M59.03,-219.75C56.22,-212.65 52.16,-202.4 48.65,-193.56"/>
<polygon fill="#63b8ff" stroke="#63b8ff" points="51.84,-192.1 44.9,-184.09 45.33,-194.68 51.84,-192.1"/>
</a>
</g>
</g>
<!-- Node5 -->
<g id="Node000005" class="node">
<title>Node5</title>
<g id="a_Node000005"><a xlink:title=" ">
<polygon fill="#e0e0e0" stroke="#999999" points="419.5,-19 375.5,-19 375.5,0 419.5,0 419.5,-19"/>
<text text-anchor="middle" x="397.5" y="-7" font-family="Helvetica,sans-Serif" font-size="10.00">string</text>
</a>
</g>
</g>
<!-- Node2&#45;&gt;Node5 -->
<g id="edge4_Node000002_Node000005" class="edge">
<title>Node2&#45;&gt;Node5</title>
<g id="a_edge4_Node000002_Node000005"><a xlink:title=" ">
<path fill="none" stroke="#63b8ff" d="M71.5,-219.71C84.84,-206.89 110.97,-182.68 135.5,-165 217.47,-105.94 323.25,-48.87 371.47,-23.79"/>
<polygon fill="#63b8ff" stroke="#63b8ff" points="373.32,-26.78 380.59,-19.08 370.1,-20.56 373.32,-26.78"/>
</a>
</g>
</g>
<!-- Node7 -->
<g id="Node000007" class="node">
<title>Node7</title>
<g id="a_Node000007"><a xlink:href="Entity_8hpp.html" target="_top" xlink:title="Defines the Entity class, which serves as a wrapper for ECS entities.">
<polygon fill="white" stroke="#666666" points="1243,-294 1178,-294 1178,-275 1243,-275 1243,-294"/>
<text text-anchor="middle" x="1210.5" y="-282" font-family="Helvetica,sans-Serif" font-size="10.00">Entity.hpp</text>
</a>
</g>
</g>
<!-- Node6&#45;&gt;Node7 -->
<g id="edge6_Node000006_Node000007" class="edge">
<title>Node6&#45;&gt;Node7</title>
<g id="a_edge6_Node000006_Node000007"><a xlink:title=" ">
<path fill="none" stroke="#63b8ff" d="M786.98,-384.94C871.08,-365.19 1078.2,-316.56 1167.92,-295.5"/>
<polygon fill="#63b8ff" stroke="#63b8ff" points="1168.82,-298.88 1177.76,-293.19 1167.22,-292.07 1168.82,-298.88"/>
</a>
</g>
</g>
<!-- Node23 -->
<g id="Node000023" class="node">
<title>Node23</title>
<g id="a_Node000023"><a xlink:href="MaterialComponent_8hpp_source.html" target="_top" xlink:title=" ">
<polygon fill="white" stroke="#666666" points="599,-349 402,-349 402,-330 599,-330 599,-349"/>
<text text-anchor="middle" x="500.5" y="-337" font-family="Helvetica,sans-Serif" font-size="10.00">components/MaterialComponent.hpp</text>
</a>
</g>
</g>
<!-- Node6&#45;&gt;Node23 -->
<g id="edge23_Node000006_Node000023" class="edge">
<title>Node6&#45;&gt;Node23</title>
<g id="a_edge23_Node000006_Node000023"><a xlink:title=" ">
<path fill="none" stroke="#63b8ff" d="M710.33,-384.98C667,-375.8 597.91,-361.15 550.94,-351.19"/>
<polygon fill="#63b8ff" stroke="#63b8ff" points="551.49,-347.73 540.98,-349.08 550.04,-354.58 551.49,-347.73"/>
</a>
</g>
</g>
<!-- Node26 -->
<g id="Node000026" class="node">
<title>Node26</title>
<g id="a_Node000026"><a xlink:href="Material_8hpp_source.html" target="_top" xlink:title=" ">
<polygon fill="white" stroke="#666666" points="437.5,-294 309.5,-294 309.5,-275 437.5,-275 437.5,-294"/>
<text text-anchor="middle" x="373.5" y="-282" font-family="Helvetica,sans-Serif" font-size="10.00">rendering/Material.hpp</text>
</a>
</g>
</g>
<!-- Node6&#45;&gt;Node26 -->
<g id="edge54_Node000006_Node000026" class="edge">
<title>Node6&#45;&gt;Node26</title>
<g id="a_edge54_Node000006_Node000026"><a xlink:title=" ">
<path fill="none" stroke="#63b8ff" d="M696.81,-393.7C608.63,-392.92 438.42,-386.44 393.5,-349 380.47,-338.14 375.81,-318.86 374.2,-304.39"/>
<polygon fill="#63b8ff" stroke="#63b8ff" points="377.67,-303.79 373.46,-294.06 370.68,-304.28 377.67,-303.79"/>
</a>
</g>
</g>
<!-- Node31 -->
<g id="Node000031" class="node">
<title>Node31</title>
<g id="a_Node000031"><a xlink:href="MeshComponent_8hpp_source.html" target="_top" xlink:title=" ">
<polygon fill="white" stroke="#666666" points="839,-349 656,-349 656,-330 839,-330 839,-349"/>
<text text-anchor="middle" x="747.5" y="-337" font-family="Helvetica,sans-Serif" font-size="10.00">components/MeshComponent.hpp</text>
</a>
</g>
</g>
<!-- Node6&#45;&gt;Node31 -->
<g id="edge44_Node000006_Node000031" class="edge">
<title>Node6&#45;&gt;Node31</title>
<g id="a_edge44_Node000006_Node000031"><a xlink:title=" ">
<path fill="none" stroke="#63b8ff" d="M750,-384.75C749.61,-377.8 749.05,-367.85 748.55,-359.13"/>
<polygon fill="#63b8ff" stroke="#63b8ff" points="752.05,-358.88 747.99,-349.09 745.06,-359.27 752.05,-358.88"/>
</a>
</g>
</g>
<!-- Node32 -->
<g id="Node000032" class="node">
<title>Node32</title>
<g id="a_Node000032"><a xlink:href="Mesh_8hpp.html" target="_top" xlink:title="Defines the Mesh class for managing 3D geometry.">
<polygon fill="white" stroke="#666666" points="678,-239 565,-239 565,-220 678,-220 678,-239"/>
<text text-anchor="middle" x="621.5" y="-227" font-family="Helvetica,sans-Serif" font-size="10.00">rendering/Mesh.hpp</text>
</a>
</g>
</g>
<!-- Node6&#45;&gt;Node32 -->
<g id="edge55_Node000006_Node000032" class="edge">
<title>Node6&#45;&gt;Node32</title>
<g id="a_edge55_Node000006_Node000032"><a xlink:title=" ">
<path fill="none" stroke="#63b8ff" d="M788.67,-384.95C823.26,-375.28 866.3,-357.24 848.5,-330 813.28,-276.11 741.7,-251.23 688.28,-239.85"/>
<polygon fill="#63b8ff" stroke="#63b8ff" points="688.69,-236.36 678.2,-237.81 687.31,-243.22 688.69,-236.36"/>
</a>
</g>
</g>
<!-- Node33 -->
<g id="Node000033" class="node">
<title>Node33</title>
<g id="a_Node000033"><a xlink:href="TransformComponent_8hpp.html" target="_top" xlink:title="Defines the TransformComponent for ECS&#45;based spatial transformations.">
<polygon fill="white" stroke="#666666" points="1375.5,-239 1169.5,-239 1169.5,-220 1375.5,-220 1375.5,-239"/>
<text text-anchor="middle" x="1272.5" y="-227" font-family="Helvetica,sans-Serif" font-size="10.00">components/TransformComponent.hpp</text>
</a>
</g>
</g>
<!-- Node6&#45;&gt;Node33 -->
<g id="edge50_Node000006_Node000033" class="edge">
<title>Node6&#45;&gt;Node33</title>
<g id="a_edge50_Node000006_Node000033"><a xlink:title=" ">
<path fill="none" stroke="#63b8ff" d="M804.35,-389.74C920.03,-380.61 1187.09,-353.47 1252.5,-294 1264.92,-282.71 1269.68,-263.8 1271.48,-249.55"/>
<polygon fill="#63b8ff" stroke="#63b8ff" points="1274.99,-249.62 1272.38,-239.35 1268.02,-249 1274.99,-249.62"/>
</a>
</g>
</g>
<!-- Node8 -->
<g id="Node000008" class="node">
<title>Node8</title>
<g id="a_Node000008"><a xlink:href="Logger_8hpp.html" target="_top" xlink:title="Provides logging functionality.">
<polygon fill="white" stroke="#666666" points="1574.5,-184 1504.5,-184 1504.5,-165 1574.5,-165 1574.5,-184"/>
<text text-anchor="middle" x="1539.5" y="-172" font-family="Helvetica,sans-Serif" font-size="10.00">Logger.hpp</text>
</a>
</g>
</g>
<!-- Node7&#45;&gt;Node8 -->
<g id="edge7_Node000007_Node000008" class="edge">
<title>Node7&#45;&gt;Node8</title>
<g id="a_edge7_Node000007_Node000008"><a xlink:title=" ">
<path fill="none" stroke="#63b8ff" d="M1243.16,-279.25C1284.6,-273.23 1357.85,-260.49 1417.5,-239 1453.99,-225.85 1493.29,-203.82 1517.15,-189.48"/>
<polygon fill="#63b8ff" stroke="#63b8ff" points="1519.07,-192.4 1525.79,-184.21 1515.43,-186.43 1519.07,-192.4"/>
</a>
</g>
</g>
<!-- Node16 -->
<g id="Node000016" class="node">
<title>Node16</title>
<g id="a_Node000016"><a xlink:href="Registry_8hpp.html" target="_top" xlink:title="Defines the Registry class for managing ECS entities and components.">
<polygon fill="white" stroke="#666666" points="1049,-239 972,-239 972,-220 1049,-220 1049,-239"/>
<text text-anchor="middle" x="1010.5" y="-227" font-family="Helvetica,sans-Serif" font-size="10.00">Registry.hpp</text>
</a>
</g>
</g>
<!-- Node7&#45;&gt;Node16 -->
<g id="edge16_Node000007_Node000016" class="edge">
<title>Node7&#45;&gt;Node16</title>
<g id="a_edge16_Node000007_Node000016"><a xlink:title=" ">
<path fill="none" stroke="#63b8ff" d="M1178.37,-274.98C1144.35,-265.97 1090.5,-251.7 1053,-241.76"/>
<polygon fill="#63b8ff" stroke="#63b8ff" points="1053.45,-238.26 1042.89,-239.08 1051.66,-245.03 1053.45,-238.26"/>
</a>
</g>
</g>
<!-- Node8&#45;&gt;Node5 -->
<g id="edge15_Node000008_Node000005" class="edge">
<title>Node8&#45;&gt;Node5</title>
<g id="a_edge15_Node000008_Node000005"><a xlink:title=" ">
<path fill="none" stroke="#63b8ff" d="M1526.73,-164.78C1503.27,-148.93 1453.91,-116.43 1434.5,-110 1240.84,-45.87 583.25,-17.5 429.73,-11.66"/>
<polygon fill="#63b8ff" stroke="#63b8ff" points="429.69,-8.16 419.56,-11.28 429.43,-15.16 429.69,-8.16"/>
</a>
</g>
</g>
<!-- Node9 -->
<g id="Node000009" class="node">
<title>Node9</title>
<g id="a_Node000009"><a xlink:title=" ">
<polygon fill="#e0e0e0" stroke="#999999" points="1597.5,-129 1547.5,-129 1547.5,-110 1597.5,-110 1597.5,-129"/>
<text text-anchor="middle" x="1572.5" y="-117" font-family="Helvetica,sans-Serif" font-size="10.00">chrono</text>
</a>
</g>
</g>
<!-- Node8&#45;&gt;Node9 -->
<g id="edge8_Node000008_Node000009" class="edge">
<title>Node8&#45;&gt;Node9</title>
<g id="a_edge8_Node000008_Node000009"><a xlink:title=" ">
<path fill="none" stroke="#63b8ff" d="M1544.95,-164.75C1549.51,-157.42 1556.17,-146.73 1561.79,-137.7"/>
<polygon fill="#63b8ff" stroke="#63b8ff" points="1564.84,-139.43 1567.15,-129.09 1558.9,-135.73 1564.84,-139.43"/>
</a>
</g>
</g>
<!-- Node10 -->
<g id="Node000010" class="node">
<title>Node10</title>
<g id="a_Node000010"><a xlink:title=" ">
<polygon fill="#e0e0e0" stroke="#999999" points="1687,-129 1616,-129 1616,-110 1687,-110 1687,-129"/>
<text text-anchor="middle" x="1651.5" y="-117" font-family="Helvetica,sans-Serif" font-size="10.00">fmt/printf.h</text>
</a>
</g>
</g>
<!-- Node8&#45;&gt;Node10 -->
<g id="edge9_Node000008_Node000010" class="edge">
<title>Node8&#45;&gt;Node10</title>
<g id="a_edge9_Node000008_Node000010"><a xlink:title=" ">
<path fill="none" stroke="#63b8ff" d="M1557.49,-164.98C1575.43,-156.5 1603.22,-143.35 1623.93,-133.54"/>
<polygon fill="#63b8ff" stroke="#63b8ff" points="1625.64,-136.61 1633.18,-129.17 1622.64,-130.28 1625.64,-136.61"/>
</a>
</g>
</g>
<!-- Node11 -->
<g id="Node000011" class="node">
<title>Node11</title>
<g id="a_Node000011"><a xlink:title=" ">
<polygon fill="#e0e0e0" stroke="#999999" points="1760,-129 1705,-129 1705,-110 1760,-110 1760,-129"/>
<text text-anchor="middle" x="1732.5" y="-117" font-family="Helvetica,sans-Serif" font-size="10.00">fstream</text>
</a>
</g>
</g>
<!-- Node8&#45;&gt;Node11 -->
<g id="edge10_Node000008_Node000011" class="edge">
<title>Node8&#45;&gt;Node11</title>
<g id="a_edge10_Node000008_Node000011"><a xlink:title=" ">
<path fill="none" stroke="#63b8ff" d="M1570.51,-164.98C1604.4,-155.68 1658.71,-140.76 1694.98,-130.8"/>
<polygon fill="#63b8ff" stroke="#63b8ff" points="1695.98,-134.16 1704.7,-128.13 1694.13,-127.41 1695.98,-134.16"/>
</a>
</g>
</g>
<!-- Node12 -->
<g id="Node000012" class="node">
<title>Node12</title>
<g id="a_Node000012"><a xlink:title=" ">
<polygon fill="#e0e0e0" stroke="#999999" points="1425.5,-129 1369.5,-129 1369.5,-110 1425.5,-110 1425.5,-129"/>
<text text-anchor="middle" x="1397.5" y="-117" font-family="Helvetica,sans-Serif" font-size="10.00">iomanip</text>
</a>
</g>
</g>
<!-- Node8&#45;&gt;Node12 -->
<g id="edge11_Node000008_Node000012" class="edge">
<title>Node8&#45;&gt;Node12</title>
<g id="a_edge11_Node000008_Node000012"><a xlink:title=" ">
<path fill="none" stroke="#63b8ff" d="M1516.69,-164.98C1493.33,-156.27 1456.8,-142.63 1430.33,-132.75"/>
<polygon fill="#63b8ff" stroke="#63b8ff" points="1431.32,-129.39 1420.73,-129.17 1428.87,-135.95 1431.32,-129.39"/>
</a>
</g>
</g>
<!-- Node13 -->
<g id="Node000013" class="node">
<title>Node13</title>
<g id="a_Node000013"><a xlink:title=" ">
<polygon fill="#e0e0e0" stroke="#999999" points="1838.5,-129 1778.5,-129 1778.5,-110 1838.5,-110 1838.5,-129"/>
<text text-anchor="middle" x="1808.5" y="-117" font-family="Helvetica,sans-Serif" font-size="10.00">iostream</text>
</a>
</g>
</g>
<!-- Node8&#45;&gt;Node13 -->
<g id="edge12_Node000008_Node000013" class="edge">
<title>Node8&#45;&gt;Node13</title>
<g id="a_edge12_Node000008_Node000013"><a xlink:title=" ">
<path fill="none" stroke="#63b8ff" d="M1574.62,-166.97C1617.83,-158.88 1693.7,-144.48 1768.25,-129.22"/>
<polygon fill="#63b8ff" stroke="#63b8ff" points="1769.19,-132.6 1778.28,-127.16 1767.78,-125.74 1769.19,-132.6"/>
</a>
</g>
</g>
<!-- Node14 -->
<g id="Node000014" class="node">
<title>Node14</title>
<g id="a_Node000014"><a xlink:title=" ">
<polygon fill="#e0e0e0" stroke="#999999" points="1529.5,-129 1481.5,-129 1481.5,-110 1529.5,-110 1529.5,-129"/>
<text text-anchor="middle" x="1505.5" y="-117" font-family="Helvetica,sans-Serif" font-size="10.00">mutex</text>
</a>
</g>
</g>
<!-- Node8&#45;&gt;Node14 -->
<g id="edge13_Node000008_Node000014" class="edge">
<title>Node8&#45;&gt;Node14</title>
<g id="a_edge13_Node000008_Node000014"><a xlink:title=" ">
<path fill="none" stroke="#63b8ff" d="M1533.89,-164.75C1529.18,-157.42 1522.33,-146.73 1516.53,-137.7"/>
<polygon fill="#63b8ff" stroke="#63b8ff" points="1519.36,-135.62 1511.01,-129.09 1513.46,-139.4 1519.36,-135.62"/>
</a>
</g>
</g>
<!-- Node15 -->
<g id="Node000015" class="node">
<title>Node15</title>
<g id="a_Node000015"><a xlink:title=" ">
<polygon fill="#e0e0e0" stroke="#999999" points="1369.5,-19 1313.5,-19 1313.5,0 1369.5,0 1369.5,-19"/>
<text text-anchor="middle" x="1341.5" y="-7" font-family="Helvetica,sans-Serif" font-size="10.00">sstream</text>
</a>
</g>
</g>
<!-- Node8&#45;&gt;Node15 -->
<g id="edge14_Node000008_Node000015" class="edge">
<title>Node8&#45;&gt;Node15</title>
<g id="a_edge14_Node000008_Node000015"><a xlink:title=" ">
<path fill="none" stroke="#63b8ff" d="M1574.65,-173.91C1647.8,-173.93 1812.53,-169.38 1847.5,-129 1853.03,-122.62 1852.86,-116.52 1847.5,-110 1787.92,-37.56 1486.92,-17.05 1379.59,-11.99"/>
<polygon fill="#63b8ff" stroke="#63b8ff" points="1379.67,-8.49 1369.53,-11.53 1379.36,-15.48 1379.67,-8.49"/>
</a>
</g>
</g>
<!-- Node17 -->
<g id="Node000017" class="node">
<title>Node17</title>
<g id="a_Node000017"><a xlink:title=" ">
<polygon fill="#e0e0e0" stroke="#999999" points="808.5,-184 744.5,-184 744.5,-165 808.5,-165 808.5,-184"/>
<text text-anchor="middle" x="776.5" y="-172" font-family="Helvetica,sans-Serif" font-size="10.00">algorithm</text>
</a>
</g>
</g>
<!-- Node16&#45;&gt;Node17 -->
<g id="edge17_Node000016_Node000017" class="edge">
<title>Node16&#45;&gt;Node17</title>
<g id="a_edge17_Node000016_Node000017"><a xlink:title=" ">
<path fill="none" stroke="#63b8ff" d="M972.9,-219.98C930.71,-210.43 862.44,-194.97 818.53,-185.02"/>
<polygon fill="#63b8ff" stroke="#63b8ff" points="819.26,-181.6 808.73,-182.8 817.71,-188.42 819.26,-181.6"/>
</a>
</g>
</g>
<!-- Node18 -->
<g id="Node000018" class="node">
<title>Node18</title>
<g id="a_Node000018"><a xlink:title=" ">
<polygon fill="#e0e0e0" stroke="#999999" points="870.5,-184 826.5,-184 826.5,-165 870.5,-165 870.5,-184"/>
<text text-anchor="middle" x="848.5" y="-172" font-family="Helvetica,sans-Serif" font-size="10.00">bitset</text>
</a>
</g>
</g>
<!-- Node16&#45;&gt;Node18 -->
<g id="edge18_Node000016_Node000018" class="edge">
<title>Node16&#45;&gt;Node18</title>
<g id="a_edge18_Node000016_Node000018"><a xlink:title=" ">
<path fill="none" stroke="#63b8ff" d="M984.47,-219.98C956.19,-210.73 910.97,-195.94 880.52,-185.98"/>
<polygon fill="#63b8ff" stroke="#63b8ff" points="881.41,-182.58 870.81,-182.8 879.23,-189.24 881.41,-182.58"/>
</a>
</g>
</g>
<!-- Node19 -->
<g id="Node000019" class="node">
<title>Node19</title>
<g id="a_Node000019"><a xlink:title=" ">
<polygon fill="#e0e0e0" stroke="#999999" points="946.5,-184 888.5,-184 888.5,-165 946.5,-165 946.5,-184"/>
<text text-anchor="middle" x="917.5" y="-172" font-family="Helvetica,sans-Serif" font-size="10.00">memory</text>
</a>
</g>
</g>
<!-- Node16&#45;&gt;Node19 -->
<g id="edge19_Node000016_Node000019" class="edge">
<title>Node16&#45;&gt;Node19</title>
<g id="a_edge19_Node000016_Node000019"><a xlink:title=" ">
<path fill="none" stroke="#63b8ff" d="M995.56,-219.98C981,-211.69 958.63,-198.94 941.57,-189.22"/>
<polygon fill="#63b8ff" stroke="#63b8ff" points="943.14,-186.08 932.71,-184.17 939.67,-192.16 943.14,-186.08"/>
</a>
</g>
</g>
<!-- Node20 -->
<g id="Node000020" class="node">
<title>Node20</title>
<g id="a_Node000020"><a xlink:title=" ">
<polygon fill="#e0e0e0" stroke="#999999" points="1030,-184 965,-184 965,-165 1030,-165 1030,-184"/>
<text text-anchor="middle" x="997.5" y="-172" font-family="Helvetica,sans-Serif" font-size="10.00">stdexcept</text>
</a>
</g>
</g>
<!-- Node16&#45;&gt;Node20 -->
<g id="edge20_Node000016_Node000020" class="edge">
<title>Node16&#45;&gt;Node20</title>
<g id="a_edge20_Node000016_Node000020"><a xlink:title=" ">
<path fill="none" stroke="#63b8ff" d="M1008.35,-219.75C1006.63,-212.72 1004.15,-202.62 1002,-193.84"/>
<polygon fill="#63b8ff" stroke="#63b8ff" points="1005.39,-192.97 999.61,-184.09 998.59,-194.63 1005.39,-192.97"/>
</a>
</g>
</g>
<!-- Node21 -->
<g id="Node000021" class="node">
<title>Node21</title>
<g id="a_Node000021"><a xlink:title=" ">
<polygon fill="#e0e0e0" stroke="#999999" points="1141,-184 1048,-184 1048,-165 1141,-165 1141,-184"/>
<text text-anchor="middle" x="1094.5" y="-172" font-family="Helvetica,sans-Serif" font-size="10.00">unordered_map</text>
</a>
</g>
</g>
<!-- Node16&#45;&gt;Node21 -->
<g id="edge21_Node000016_Node000021" class="edge">
<title>Node16&#45;&gt;Node21</title>
<g id="a_edge21_Node000016_Node000021"><a xlink:title=" ">
<path fill="none" stroke="#63b8ff" d="M1024,-219.98C1036.9,-211.84 1056.6,-199.41 1071.9,-189.76"/>
<polygon fill="#63b8ff" stroke="#63b8ff" points="1074.17,-192.47 1080.76,-184.17 1070.43,-186.55 1074.17,-192.47"/>
</a>
</g>
</g>
<!-- Node16&#45;&gt;Node22 -->
<g id="edge22_Node000016_Node000022" class="edge">
<title>Node16&#45;&gt;Node22</title>
<g id="a_edge22_Node000016_Node000022"><a xlink:title=" ">
<path fill="none" stroke="#63b8ff" d="M971.8,-222.28C905.69,-211.66 775.02,-190.64 736.19,-183.76"/>
<polygon fill="#63b8ff" stroke="#63b8ff" points="736.71,-180.3 726.23,-181.89 735.41,-187.18 736.71,-180.3"/>
</a>
</g>
</g>
<!-- Node24 -->
<g id="Node000024" class="node">
<title>Node24</title>
<g id="a_Node000024"><a xlink:href="Vector3_8hpp.html" target="_top" xlink:title="Defines the Vector3 class.">
<polygon fill="white" stroke="#666666" points="683,-74 580,-74 580,-55 683,-55 683,-74"/>
<text text-anchor="middle" x="631.5" y="-62" font-family="Helvetica,sans-Serif" font-size="10.00">math/Vector3.hpp</text>
</a>
</g>
</g>
<!-- Node23&#45;&gt;Node24 -->
<g id="edge24_Node000023_Node000024" class="edge">
<title>Node23&#45;&gt;Node24</title>
<g id="a_edge24_Node000023_Node000024"><a xlink:title=" ">
<path fill="none" stroke="#63b8ff" d="M505.51,-329.87C515.4,-311.97 536.5,-269.24 536.5,-230.5 536.5,-230.5 536.5,-230.5 536.5,-173.5 536.5,-130.91 578.66,-97.14 606.81,-79.33"/>
<polygon fill="#63b8ff" stroke="#63b8ff" points="608.66,-82.31 615.38,-74.12 605.02,-76.32 608.66,-82.31"/>
</a>
</g>
</g>
<!-- Node23&#45;&gt;Node26 -->
<g id="edge28_Node000023_Node000026" class="edge">
<title>Node23&#45;&gt;Node26</title>
<g id="a_edge28_Node000023_Node000026"><a xlink:title=" ">
<path fill="none" stroke="#63b8ff" d="M480.1,-329.98C459.48,-321.38 427.39,-307.99 403.81,-298.15"/>
<polygon fill="#63b8ff" stroke="#63b8ff" points="404.85,-294.79 394.28,-294.17 402.16,-301.25 404.85,-294.79"/>
</a>
</g>
</g>
<!-- Node24&#45;&gt;Node5 -->
<g id="edge27_Node000024_Node000005" class="edge">
<title>Node24&#45;&gt;Node5</title>
<g id="a_edge27_Node000024_Node000005"><a xlink:title=" ">
<path fill="none" stroke="#63b8ff" d="M593.9,-54.98C548.31,-44.66 472.26,-27.43 429.4,-17.73"/>
<polygon fill="#63b8ff" stroke="#63b8ff" points="430.04,-14.28 419.51,-15.49 428.49,-21.11 430.04,-14.28"/>
</a>
</g>
</g>
<!-- Node24&#45;&gt;Node15 -->
<g id="edge26_Node000024_Node000015" class="edge">
<title>Node24&#45;&gt;Node15</title>
<g id="a_edge26_Node000024_Node000015"><a xlink:title=" ">
<path fill="none" stroke="#63b8ff" d="M683.13,-59.65C818.96,-49.51 1183.98,-22.26 1303.23,-13.36"/>
<polygon fill="#63b8ff" stroke="#63b8ff" points="1303.63,-16.84 1313.34,-12.6 1303.11,-9.86 1303.63,-16.84"/>
</a>
</g>
</g>
<!-- Node25 -->
<g id="Node000025" class="node">
<title>Node25</title>
<g id="a_Node000025"><a xlink:title=" ">
<polygon fill="#e0e0e0" stroke="#999999" points="833,-19 786,-19 786,0 833,0 833,-19"/>
<text text-anchor="middle" x="809.5" y="-7" font-family="Helvetica,sans-Serif" font-size="10.00">cmath</text>
</a>
</g>
</g>
<!-- Node24&#45;&gt;Node25 -->
<g id="edge25_Node000024_Node000025" class="edge">
<title>Node24&#45;&gt;Node25</title>
<g id="a_edge25_Node000024_Node000025"><a xlink:title=" ">
<path fill="none" stroke="#63b8ff" d="M660.1,-54.98C691.72,-45.57 742.59,-30.42 776.03,-20.46"/>
<polygon fill="#63b8ff" stroke="#63b8ff" points="777.23,-23.76 785.81,-17.55 775.23,-17.05 777.23,-23.76"/>
</a>
</g>
</g>
<!-- Node26&#45;&gt;Node24 -->
<g id="edge29_Node000026_Node000024" class="edge">
<title>Node26&#45;&gt;Node24</title>
<g id="a_edge29_Node000026_Node000024"><a xlink:title=" ">
<path fill="none" stroke="#63b8ff" d="M390.9,-274.86C405.6,-266.96 426.58,-254.21 441.5,-239 488.92,-190.68 470.67,-153.55 522.5,-110 540.74,-94.67 564.96,-84.08 585.94,-77.09"/>
<polygon fill="#63b8ff" stroke="#63b8ff" points="587.14,-80.38 595.62,-74.03 585.03,-73.7 587.14,-80.38"/>
</a>
</g>
</g>
<!-- Node26&#45;&gt;Node27 -->
<g id="edge30_Node000026_Node000027" class="edge">
<title>Node26&#45;&gt;Node27</title>
<g id="a_edge30_Node000026_Node000027"><a xlink:title=" ">
<path fill="none" stroke="#63b8ff" d="M373.33,-274.75C373.2,-267.8 373.02,-257.85 372.85,-249.13"/>
<polygon fill="#63b8ff" stroke="#63b8ff" points="376.35,-249.02 372.66,-239.09 369.35,-249.15 376.35,-249.02"/>
</a>
</g>
</g>
<!-- Node30 -->
<g id="Node000030" class="node">
<title>Node30</title>
<g id="a_Node000030"><a xlink:href="Texture2D_8hpp_source.html" target="_top" xlink:title=" ">
<polygon fill="white" stroke="#666666" points="294,-239 157,-239 157,-220 294,-220 294,-239"/>
<text text-anchor="middle" x="225.5" y="-227" font-family="Helvetica,sans-Serif" font-size="10.00">rendering/Texture2D.hpp</text>
</a>
</g>
</g>
<!-- Node26&#45;&gt;Node30 -->
<g id="edge41_Node000026_Node000030" class="edge">
<title>Node26&#45;&gt;Node30</title>
<g id="a_edge41_Node000026_Node000030"><a xlink:title=" ">
<path fill="none" stroke="#63b8ff" d="M349.72,-274.98C325.27,-266.23 286.97,-252.51 259.35,-242.62"/>
<polygon fill="#63b8ff" stroke="#63b8ff" points="260.31,-239.25 249.71,-239.17 257.95,-245.84 260.31,-239.25"/>
</a>
</g>
</g>
<!-- Node27&#45;&gt;Node3 -->
<g id="edge39_Node000027_Node000003" class="edge">
<title>Node27&#45;&gt;Node3</title>
<g id="a_edge39_Node000027_Node000003"><a xlink:title=" ">
<path fill="none" stroke="#63b8ff" d="M360.13,-219.98C348.41,-211.92 330.58,-199.65 316.61,-190.03"/>
<polygon fill="#63b8ff" stroke="#63b8ff" points="318.32,-186.96 308.1,-184.17 314.35,-192.72 318.32,-186.96"/>
</a>
</g>
</g>
<!-- Node27&#45;&gt;Node5 -->
<g id="edge40_Node000027_Node000005" class="edge">
<title>Node27&#45;&gt;Node5</title>
<g id="a_edge40_Node000027_Node000005"><a xlink:title=" ">
<path fill="none" stroke="#63b8ff" d="M373.48,-219.95C377.15,-187.95 390.14,-74.68 395.33,-29.4"/>
<polygon fill="#63b8ff" stroke="#63b8ff" points="398.84,-29.56 396.5,-19.22 391.88,-28.76 398.84,-29.56"/>
</a>
</g>
</g>
<!-- Node27&#45;&gt;Node24 -->
<g id="edge38_Node000027_Node000024" class="edge">
<title>Node27&#45;&gt;Node24</title>
<g id="a_edge38_Node000027_Node000024"><a xlink:title=" ">
<path fill="none" stroke="#63b8ff" d="M376.33,-219.76C386.45,-197.68 416.18,-139.34 459.5,-110 492.16,-87.88 535.11,-76.76 569.92,-71.16"/>
<polygon fill="#63b8ff" stroke="#63b8ff" points="570.6,-74.6 579.97,-69.66 569.56,-67.68 570.6,-74.6"/>
</a>
</g>
</g>
<!-- Node28 -->
<g id="Node000028" class="node">
<title>Node28</title>
<g id="a_Node000028"><a xlink:href="Matrix4_8hpp.html" target="_top" xlink:title="Defines the Matrix4 class for 3D transformation operations.">
<polygon fill="white" stroke="#666666" points="1377.5,-184 1273.5,-184 1273.5,-165 1377.5,-165 1377.5,-184"/>
<text text-anchor="middle" x="1325.5" y="-172" font-family="Helvetica,sans-Serif" font-size="10.00">math/Matrix4.hpp</text>
</a>
</g>
</g>
<!-- Node27&#45;&gt;Node28 -->
<g id="edge31_Node000027_Node000028" class="edge">
<title>Node27&#45;&gt;Node28</title>
<g id="a_edge31_Node000027_Node000028"><a xlink:title=" ">
<path fill="none" stroke="#63b8ff" d="M432.84,-225.14C603.75,-215.64 1089.95,-188.6 1263.22,-178.96"/>
<polygon fill="#63b8ff" stroke="#63b8ff" points="1263.66,-182.44 1273.45,-178.39 1263.27,-175.46 1263.66,-182.44"/>
</a>
</g>
</g>
<!-- Node28&#45;&gt;Node12 -->
<g id="edge36_Node000028_Node000012" class="edge">
<title>Node28&#45;&gt;Node12</title>
<g id="a_edge36_Node000028_Node000012"><a xlink:title=" ">
<path fill="none" stroke="#63b8ff" d="M1337.07,-164.98C1347.92,-157 1364.38,-144.88 1377.38,-135.31"/>
<polygon fill="#63b8ff" stroke="#63b8ff" points="1379.74,-137.92 1385.72,-129.17 1375.59,-132.28 1379.74,-137.92"/>
</a>
</g>
</g>
<!-- Node28&#45;&gt;Node15 -->
<g id="edge37_Node000028_Node000015" class="edge">
<title>Node28&#45;&gt;Node15</title>
<g id="a_edge37_Node000028_Node000015"><a xlink:title=" ">
<path fill="none" stroke="#63b8ff" d="M1326.36,-164.74C1328.86,-139.31 1336.14,-65.08 1339.62,-29.69"/>
<polygon fill="#63b8ff" stroke="#63b8ff" points="1343.14,-29.6 1340.64,-19.31 1336.18,-28.92 1343.14,-29.6"/>
</a>
</g>
</g>
<!-- Node28&#45;&gt;Node24 -->
<g id="edge35_Node000028_Node000024" class="edge">
<title>Node28&#45;&gt;Node24</title>
<g id="a_edge35_Node000028_Node000024"><a xlink:title=" ">
<path fill="none" stroke="#63b8ff" d="M1322.7,-164.63C1317.64,-150.3 1305.53,-122.4 1284.5,-110 1234.39,-80.45 846.55,-69.7 693.41,-66.58"/>
<polygon fill="#63b8ff" stroke="#63b8ff" points="693.3,-63.08 683.23,-66.38 693.16,-70.08 693.3,-63.08"/>
</a>
</g>
</g>
<!-- Node29 -->
<g id="Node000029" class="node">
<title>Node29</title>
<g id="a_Node000029"><a xlink:href="Quaternion_8hpp.html" target="_top" xlink:title="Defines the Quaternion class for representing 3D rotations.">
<polygon fill="white" stroke="#666666" points="1275.5,-129 1183.5,-129 1183.5,-110 1275.5,-110 1275.5,-129"/>
<text text-anchor="middle" x="1229.5" y="-117" font-family="Helvetica,sans-Serif" font-size="10.00">Quaternion.hpp</text>
</a>
</g>
</g>
<!-- Node28&#45;&gt;Node29 -->
<g id="edge32_Node000028_Node000029" class="edge">
<title>Node28&#45;&gt;Node29</title>
<g id="a_edge32_Node000028_Node000029"><a xlink:title=" ">
<path fill="none" stroke="#63b8ff" d="M1310.08,-164.98C1295.05,-156.69 1271.96,-143.94 1254.34,-134.22"/>
<polygon fill="#63b8ff" stroke="#63b8ff" points="1255.65,-130.94 1245.2,-129.17 1252.27,-137.07 1255.65,-130.94"/>
</a>
</g>
</g>
<!-- Node29&#45;&gt;Node24 -->
<g id="edge33_Node000029_Node000024" class="edge">
<title>Node29&#45;&gt;Node24</title>
<g id="a_edge33_Node000029_Node000024"><a xlink:title=" ">
<path fill="none" stroke="#63b8ff" d="M1183.35,-111.69C1178.67,-111.08 1174,-110.5 1169.5,-110 997.46,-90.72 793.6,-76.09 693.4,-69.44"/>
<polygon fill="#63b8ff" stroke="#63b8ff" points="693.37,-65.93 683.16,-68.77 692.9,-72.92 693.37,-65.93"/>
</a>
</g>
</g>
<!-- Node29&#45;&gt;Node25 -->
<g id="edge34_Node000029_Node000025" class="edge">
<title>Node29&#45;&gt;Node25</title>
<g id="a_edge34_Node000029_Node000025"><a xlink:title=" ">
<path fill="none" stroke="#63b8ff" d="M1196.19,-109.94C1117.65,-89.74 921.56,-39.32 842.91,-19.09"/>
<polygon fill="#63b8ff" stroke="#63b8ff" points="843.61,-15.66 833.05,-16.56 841.86,-22.44 843.61,-15.66"/>
</a>
</g>
</g>
<!-- Node30&#45;&gt;Node3 -->
<g id="edge42_Node000030_Node000003" class="edge">
<title>Node30&#45;&gt;Node3</title>
<g id="a_edge42_Node000030_Node000003"><a xlink:title=" ">
<path fill="none" stroke="#63b8ff" d="M236.75,-219.98C247.3,-212 263.3,-199.88 275.94,-190.31"/>
<polygon fill="#63b8ff" stroke="#63b8ff" points="278.19,-193 284.05,-184.17 273.96,-187.42 278.19,-193"/>
</a>
</g>
</g>
<!-- Node30&#45;&gt;Node5 -->
<g id="edge43_Node000030_Node000005" class="edge">
<title>Node30&#45;&gt;Node5</title>
<g id="a_edge43_Node000030_Node000005"><a xlink:title=" ">
<path fill="none" stroke="#63b8ff" d="M227.94,-219.8C231.74,-207.09 239.88,-183.02 251.5,-165 288.8,-107.17 349.22,-51.62 379.29,-25.7"/>
<polygon fill="#63b8ff" stroke="#63b8ff" points="381.58,-28.35 386.93,-19.2 377.04,-23.02 381.58,-28.35"/>
</a>
</g>
</g>
<!-- Node31&#45;&gt;Node32 -->
<g id="edge45_Node000031_Node000032" class="edge">
<title>Node31&#45;&gt;Node32</title>
<g id="a_edge45_Node000031_Node000032"><a xlink:title=" ">
<path fill="none" stroke="#63b8ff" d="M737.19,-329.66C715.76,-311.3 666.2,-268.81 639.43,-245.87"/>
<polygon fill="#63b8ff" stroke="#63b8ff" points="641.47,-243.01 631.6,-239.16 636.92,-248.32 641.47,-243.01"/>
</a>
</g>
</g>
<!-- Node32&#45;&gt;Node3 -->
<g id="edge47_Node000032_Node000003" class="edge">
<title>Node32&#45;&gt;Node3</title>
<g id="a_edge47_Node000032_Node000003"><a xlink:title=" ">
<path fill="none" stroke="#63b8ff" d="M569.12,-219.98C506,-209.72 400.97,-192.65 341.06,-182.91"/>
<polygon fill="#63b8ff" stroke="#63b8ff" points="341.56,-179.44 331.13,-181.29 340.44,-186.35 341.56,-179.44"/>
</a>
</g>
</g>
<!-- Node32&#45;&gt;Node5 -->
<g id="edge48_Node000032_Node000005" class="edge">
<title>Node32&#45;&gt;Node5</title>
<g id="a_edge48_Node000032_Node000005"><a xlink:title=" ">
<path fill="none" stroke="#63b8ff" d="M612.72,-219.95C579.06,-187.2 457.96,-69.34 413.78,-26.34"/>
<polygon fill="#63b8ff" stroke="#63b8ff" points="416.07,-23.69 406.46,-19.22 411.19,-28.71 416.07,-23.69"/>
</a>
</g>
</g>
<!-- Node32&#45;&gt;Node22 -->
<g id="edge49_Node000032_Node000022" class="edge">
<title>Node32&#45;&gt;Node22</title>
<g id="a_edge49_Node000032_Node000022"><a xlink:title=" ">
<path fill="none" stroke="#63b8ff" d="M634.51,-219.98C646.96,-211.84 665.96,-199.41 680.71,-189.76"/>
<polygon fill="#63b8ff" stroke="#63b8ff" points="682.8,-192.57 689.25,-184.17 678.96,-186.72 682.8,-192.57"/>
</a>
</g>
</g>
<!-- Node32&#45;&gt;Node24 -->
<g id="edge46_Node000032_Node000024" class="edge">
<title>Node32&#45;&gt;Node24</title>
<g id="a_edge46_Node000032_Node000024"><a xlink:title=" ">
<path fill="none" stroke="#63b8ff" d="M615.4,-219.8C609.75,-211.17 601.75,-197.35 598.5,-184 590.73,-152.04 588.18,-141.23 598.5,-110 601.96,-99.54 608.93,-89.53 615.58,-81.66"/>
<polygon fill="#63b8ff" stroke="#63b8ff" points="618.36,-83.8 622.48,-74.04 613.17,-79.1 618.36,-83.8"/>
</a>
</g>
</g>
<!-- Node33&#45;&gt;Node24 -->
<g id="edge53_Node000033_Node000024" class="edge">
<title>Node33&#45;&gt;Node24</title>
<g id="a_edge53_Node000033_Node000024"><a xlink:title=" ">
<path fill="none" stroke="#63b8ff" d="M1265.7,-219.93C1247.09,-197.2 1192.62,-135.4 1131.5,-110 1053.87,-77.74 809.27,-68.83 693.46,-66.4"/>
<polygon fill="#63b8ff" stroke="#63b8ff" points="693.4,-62.9 683.33,-66.2 693.26,-69.89 693.4,-62.9"/>
</a>
</g>
</g>
<!-- Node33&#45;&gt;Node28 -->
<g id="edge51_Node000033_Node000028" class="edge">
<title>Node33&#45;&gt;Node28</title>
<g id="a_edge51_Node000033_Node000028"><a xlink:title=" ">
<path fill="none" stroke="#63b8ff" d="M1281.25,-219.75C1288.97,-212.03 1300.4,-200.6 1309.72,-191.28"/>
<polygon fill="#63b8ff" stroke="#63b8ff" points="1312.31,-193.64 1316.91,-184.09 1307.36,-188.69 1312.31,-193.64"/>
</a>
</g>
</g>
<!-- Node33&#45;&gt;Node29 -->
<g id="edge52_Node000033_Node000029" class="edge">
<title>Node33&#45;&gt;Node29</title>
<g id="a_edge52_Node000033_Node000029"><a xlink:title=" ">
<path fill="none" stroke="#63b8ff" d="M1268.98,-219.66C1261.95,-202.01 1246.06,-162.09 1236.72,-138.64"/>
<polygon fill="#63b8ff" stroke="#63b8ff" points="1239.9,-137.15 1232.95,-129.16 1233.39,-139.74 1239.9,-137.15"/>
</a>
</g>
</g>
<!-- Node34&#45;&gt;Node6 -->
<g id="edge57_Node000034_Node000006" class="edge">
<title>Node34&#45;&gt;Node6</title>
<g id="a_edge57_Node000034_Node000006"><a xlink:title=" ">
<path fill="none" stroke="#63b8ff" d="M659.01,-439.98C676.47,-431.5 703.51,-418.35 723.67,-408.54"/>
<polygon fill="#63b8ff" stroke="#63b8ff" points="725.21,-411.69 732.67,-404.17 722.14,-405.4 725.21,-411.69"/>
</a>
</g>
</g>
<!-- Node34&#45;&gt;Node24 -->
<g id="edge60_Node000034_Node000024" class="edge">
<title>Node34&#45;&gt;Node24</title>
<g id="a_edge60_Node000034_Node000024"><a xlink:title=" ">
<path fill="none" stroke="#63b8ff" d="M578.76,-444.65C425.01,-432.61 49.04,-385.86 148.5,-220 192.6,-146.45 449.31,-95.37 569.49,-75.15"/>
<polygon fill="#63b8ff" stroke="#63b8ff" points="570.35,-78.56 579.64,-73.46 569.2,-71.65 570.35,-78.56"/>
</a>
</g>
</g>
<!-- Node35 -->
<g id="Node000035" class="node">
<title>Node35</title>
<g id="a_Node000035"><a xlink:href="LightComponent_8hpp_source.html" target="_top" xlink:title=" ">
<polygon fill="white" stroke="#666666" points="877,-239 696,-239 696,-220 877,-220 877,-239"/>
<text text-anchor="middle" x="786.5" y="-227" font-family="Helvetica,sans-Serif" font-size="10.00">components/LightComponent.hpp</text>
</a>
</g>
</g>
<!-- Node34&#45;&gt;Node35 -->
<g id="edge58_Node000034_Node000035" class="edge">
<title>Node34&#45;&gt;Node35</title>
<g id="a_edge58_Node000034_Node000035"><a xlink:title=" ">
<path fill="none" stroke="#63b8ff" d="M639.53,-439.78C635.35,-419.19 627.55,-366.52 647.5,-330 670.88,-287.21 721.49,-258.37 754.76,-243.19"/>
<polygon fill="#63b8ff" stroke="#63b8ff" points="756.32,-246.33 764.06,-239.09 753.5,-239.92 756.32,-246.33"/>
</a>
</g>
</g>
<!-- Node35&#45;&gt;Node24 -->
<g id="edge59_Node000035_Node000024" class="edge">
<title>Node35&#45;&gt;Node24</title>
<g id="a_edge59_Node000035_Node000024"><a xlink:title=" ">
<path fill="none" stroke="#63b8ff" d="M695.7,-220.29C673.01,-213.74 651.03,-202.64 636.5,-184 614,-155.14 620.33,-109.25 626.3,-83.88"/>
<polygon fill="#63b8ff" stroke="#63b8ff" points="629.72,-84.64 628.84,-74.08 622.94,-82.89 629.72,-84.64"/>
</a>
</g>
</g>
<!-- Node36&#45;&gt;Node6 -->
<g id="edge64_Node000036_Node000006" class="edge">
<title>Node36&#45;&gt;Node6</title>
<g id="a_edge64_Node000036_Node000006"><a xlink:title=" ">
<path fill="none" stroke="#63b8ff" d="M830.24,-439.98C815.37,-431.69 792.52,-418.94 775.08,-409.22"/>
<polygon fill="#63b8ff" stroke="#63b8ff" points="776.48,-405.99 766.04,-404.17 773.07,-412.1 776.48,-405.99"/>
</a>
</g>
</g>
<!-- Node36&#45;&gt;Node24 -->
<g id="edge63_Node000036_Node000024" class="edge">
<title>Node36&#45;&gt;Node24</title>
<g id="a_edge63_Node000036_Node000024"><a xlink:title=" ">
<path fill="none" stroke="#63b8ff" d="M854.35,-439.89C871.04,-422.68 905.5,-382.11 905.5,-340.5 905.5,-340.5 905.5,-340.5 905.5,-283.5 905.5,-254.04 908.6,-239.48 886.5,-220 813.5,-155.64 744.37,-247.37 670.5,-184 641.14,-158.82 633.77,-111.11 631.99,-84.55"/>
<polygon fill="#63b8ff" stroke="#63b8ff" points="635.47,-84.12 631.51,-74.29 628.48,-84.44 635.47,-84.12"/>
</a>
</g>
</g>
<!-- Node36&#45;&gt;Node28 -->
<g id="edge62_Node000036_Node000028" class="edge">
<title>Node36&#45;&gt;Node28</title>
<g id="a_edge62_Node000036_Node000028"><a xlink:title=" ">
<path fill="none" stroke="#63b8ff" d="M908.29,-446.59C1027.06,-439.11 1281.91,-403.67 1384.5,-239 1396.56,-219.64 1373.66,-200.95 1352.96,-188.91"/>
<polygon fill="#63b8ff" stroke="#63b8ff" points="1354.5,-185.76 1344.04,-184.03 1351.13,-191.9 1354.5,-185.76"/>
</a>
</g>
</g>
<!-- Node37&#45;&gt;Node3 -->
<g id="edge72_Node000037_Node000003" class="edge">
<title>Node37&#45;&gt;Node3</title>
<g id="a_edge72_Node000037_Node000003"><a xlink:title=" ">
<path fill="none" stroke="#63b8ff" d="M995.8,-280.4C892.82,-275.61 710.6,-264.17 556.5,-239 476.41,-225.92 384.61,-201.28 334.02,-186.84"/>
<polygon fill="#63b8ff" stroke="#63b8ff" points="334.75,-183.41 324.17,-184.01 332.81,-190.14 334.75,-183.41"/>
</a>
</g>
</g>
<!-- Node37&#45;&gt;Node8 -->
<g id="edge66_Node000037_Node000008" class="edge">
<title>Node37&#45;&gt;Node8</title>
<g id="a_edge66_Node000037_Node000008"><a xlink:title=" ">
<path fill="none" stroke="#63b8ff" d="M1159.26,-275.17C1235.75,-266.73 1344.1,-252.98 1384.5,-239 1400.49,-233.47 1402.16,-227.15 1417.5,-220 1445.16,-207.11 1477.68,-195.41 1502.18,-187.25"/>
<polygon fill="#63b8ff" stroke="#63b8ff" points="1503.41,-190.53 1511.82,-184.08 1501.23,-183.88 1503.41,-190.53"/>
</a>
</g>
</g>
<!-- Node37&#45;&gt;Node16 -->
<g id="edge67_Node000037_Node000016" class="edge">
<title>Node37&#45;&gt;Node16</title>
<g id="a_edge67_Node000037_Node000016"><a xlink:title=" ">
<path fill="none" stroke="#63b8ff" d="M1066.74,-274.98C1056.73,-267.07 1041.61,-255.11 1029.57,-245.58"/>
<polygon fill="#63b8ff" stroke="#63b8ff" points="1031.47,-242.63 1021.46,-239.17 1027.13,-248.12 1031.47,-242.63"/>
</a>
</g>
</g>
<!-- Node37&#45;&gt;Node24 -->
<g id="edge70_Node000037_Node000024" class="edge">
<title>Node37&#45;&gt;Node24</title>
<g id="a_edge70_Node000037_Node000024"><a xlink:title=" ">
<path fill="none" stroke="#63b8ff" d="M1078.22,-274.87C1079.7,-261.83 1084.05,-236.84 1096.5,-220 1116.87,-192.46 1172.32,-191.41 1150.5,-165 1093.08,-95.53 818.09,-74.08 693.31,-67.87"/>
<polygon fill="#63b8ff" stroke="#63b8ff" points="693.31,-64.36 683.16,-67.38 692.98,-71.36 693.31,-64.36"/>
</a>
</g>
</g>
<!-- Node37&#45;&gt;Node33 -->
<g id="edge69_Node000037_Node000033" class="edge">
<title>Node37&#45;&gt;Node33</title>
<g id="a_edge69_Node000037_Node000033"><a xlink:title=" ">
<path fill="none" stroke="#63b8ff" d="M1108.83,-274.98C1141.99,-265.97 1194.5,-251.7 1231.06,-241.76"/>
<polygon fill="#63b8ff" stroke="#63b8ff" points="1232.19,-245.08 1240.92,-239.08 1230.36,-238.33 1232.19,-245.08"/>
</a>
</g>
</g>
<!-- Node37&#45;&gt;Node35 -->
<g id="edge68_Node000037_Node000035" class="edge">
<title>Node37&#45;&gt;Node35</title>
<g id="a_edge68_Node000037_Node000035"><a xlink:title=" ">
<path fill="none" stroke="#63b8ff" d="M1030.75,-274.98C979.78,-265.7 898.19,-250.84 843.51,-240.88"/>
<polygon fill="#63b8ff" stroke="#63b8ff" points="844.09,-237.43 833.62,-239.08 842.83,-244.32 844.09,-237.43"/>
</a>
</g>
</g>
<!-- Node38 -->
<g id="Node000038" class="node">
<title>Node38</title>
<g id="a_Node000038"><a xlink:title=" ">
<polygon fill="#e0e0e0" stroke="#999999" points="1151.5,-239 1105.5,-239 1105.5,-220 1151.5,-220 1151.5,-239"/>
<text text-anchor="middle" x="1128.5" y="-227" font-family="Helvetica,sans-Serif" font-size="10.00">cstdio</text>
</a>
</g>
</g>
<!-- Node37&#45;&gt;Node38 -->
<g id="edge71_Node000037_Node000038" class="edge">
<title>Node37&#45;&gt;Node38</title>
<g id="a_edge71_Node000037_Node000038"><a xlink:title=" ">
<path fill="none" stroke="#63b8ff" d="M1085.92,-274.75C1093.27,-267.11 1104.13,-255.82 1113.04,-246.56"/>
<polygon fill="#63b8ff" stroke="#63b8ff" points="1115.82,-248.72 1120.24,-239.09 1110.78,-243.87 1115.82,-248.72"/>
</a>
</g>
</g>
</g>
</svg>
