<?xml version="1.0" encoding="UTF-8" standalone="no"?>
<!DOCTYPE svg PUBLIC "-//W3C//DTD SVG 1.1//EN"
 "http://www.w3.org/Graphics/SVG/1.1/DTD/svg11.dtd">
<!-- Generated by graphviz version 2.43.0 (0)
 -->
<!-- Title: include/rendering/Renderer.hpp Pages: 1 -->
<svg width="1528pt" height="412pt"
 viewBox="0.00 0.00 1528.00 412.00" xmlns="http://www.w3.org/2000/svg" xmlns:xlink="http://www.w3.org/1999/xlink">
<g id="graph0" class="graph" transform="scale(1 1) rotate(0) translate(4 408)">
<title>include/rendering/Renderer.hpp</title>
<!-- Node1 -->
<g id="Node000001" class="node">
<title>Node1</title>
<g id="a_Node000001"><a xlink:title="Manages the rendering pipeline and object submission.">
<polygon fill="#999999" stroke="#666666" points="1152.5,-404 983.5,-404 983.5,-385 1152.5,-385 1152.5,-404"/>
<text text-anchor="middle" x="1068" y="-392" font-family="Helvetica,sans-Serif" font-size="10.00">include/rendering/Renderer.hpp</text>
</a>
</g>
</g>
<!-- Node2 -->
<g id="Node000002" class="node">
<title>Node2</title>
<g id="a_Node000002"><a xlink:href="Registry_8hpp.html" target="_top" xlink:title="Defines the Registry class for managing ECS entities and components.">
<polygon fill="white" stroke="#666666" points="355.5,-184 278.5,-184 278.5,-165 355.5,-165 355.5,-184"/>
<text text-anchor="middle" x="317" y="-172" font-family="Helvetica,sans-Serif" font-size="10.00">Registry.hpp</text>
</a>
</g>
</g>
<!-- Node1&#45;&gt;Node2 -->
<g id="edge1_Node000001_Node000002" class="edge">
<title>Node1&#45;&gt;Node2</title>
<g id="a_edge1_Node000001_Node000002"><a xlink:title=" ">
<path fill="none" stroke="#63b8ff" d="M983.26,-391.71C821.03,-387.69 478.47,-376.08 432,-349 370.88,-313.38 335.99,-230.79 322.96,-193.89"/>
<polygon fill="#63b8ff" stroke="#63b8ff" points="326.13,-192.35 319.61,-184.01 319.5,-194.6 326.13,-192.35"/>
</a>
</g>
</g>
<!-- Node8 -->
<g id="Node000008" class="node">
<title>Node8</title>
<g id="a_Node000008"><a xlink:title=" ">
<polygon fill="#e0e0e0" stroke="#999999" points="462.5,-129 415.5,-129 415.5,-110 462.5,-110 462.5,-129"/>
<text text-anchor="middle" x="439" y="-117" font-family="Helvetica,sans-Serif" font-size="10.00">vector</text>
</a>
</g>
</g>
<!-- Node1&#45;&gt;Node8 -->
<g id="edge51_Node000001_Node000008" class="edge">
<title>Node1&#45;&gt;Node8</title>
<g id="a_edge51_Node000001_Node000008"><a xlink:title=" ">
<path fill="none" stroke="#63b8ff" d="M983.47,-387.49C813.4,-374.25 446,-339.41 446,-285.5 446,-285.5 446,-285.5 446,-228.5 446,-197.12 443.02,-160.73 440.95,-139.21"/>
<polygon fill="#63b8ff" stroke="#63b8ff" points="444.42,-138.77 439.94,-129.17 437.46,-139.47 444.42,-138.77"/>
</a>
</g>
</g>
<!-- Node9 -->
<g id="Node000009" class="node">
<title>Node9</title>
<g id="a_Node000009"><a xlink:href="Object_8hpp.html" target="_top" xlink:title="Defines the Object class, a special ECS entity wrapper.">
<polygon fill="white" stroke="#666666" points="1207.5,-294 1100.5,-294 1100.5,-275 1207.5,-275 1207.5,-294"/>
<text text-anchor="middle" x="1154" y="-282" font-family="Helvetica,sans-Serif" font-size="10.00">objects/Object.hpp</text>
</a>
</g>
</g>
<!-- Node1&#45;&gt;Node9 -->
<g id="edge8_Node000001_Node000009" class="edge">
<title>Node1&#45;&gt;Node9</title>
<g id="a_edge8_Node000001_Node000009"><a xlink:title=" ">
<path fill="none" stroke="#63b8ff" d="M1072.39,-384.81C1079.01,-372.13 1092.33,-348.08 1107,-330 1115.57,-319.45 1126.53,-308.93 1135.72,-300.77"/>
<polygon fill="#63b8ff" stroke="#63b8ff" points="1138.26,-303.2 1143.53,-294.01 1133.68,-297.91 1138.26,-303.2"/>
</a>
</g>
</g>
<!-- Node27 -->
<g id="Node000027" class="node">
<title>Node27</title>
<g id="a_Node000027"><a xlink:href="PointLight_8hpp_source.html" target="_top" xlink:title=" ">
<polygon fill="white" stroke="#666666" points="1383.5,-349 1258.5,-349 1258.5,-330 1383.5,-330 1383.5,-349"/>
<text text-anchor="middle" x="1321" y="-337" font-family="Helvetica,sans-Serif" font-size="10.00">objects/PointLight.hpp</text>
</a>
</g>
</g>
<!-- Node1&#45;&gt;Node27 -->
<g id="edge39_Node000001_Node000027" class="edge">
<title>Node1&#45;&gt;Node27</title>
<g id="a_edge39_Node000001_Node000027"><a xlink:title=" ">
<path fill="none" stroke="#63b8ff" d="M1108.65,-384.98C1152.5,-375.8 1222.42,-361.15 1269.95,-351.19"/>
<polygon fill="#63b8ff" stroke="#63b8ff" points="1270.96,-354.56 1280.03,-349.08 1269.53,-347.71 1270.96,-354.56"/>
</a>
</g>
</g>
<!-- Node28 -->
<g id="Node000028" class="node">
<title>Node28</title>
<g id="a_Node000028"><a xlink:href="Camera_8hpp.html" target="_top" xlink:title="Defines the Camera class for view and projection.">
<polygon fill="white" stroke="#666666" points="1240.5,-349 1115.5,-349 1115.5,-330 1240.5,-330 1240.5,-349"/>
<text text-anchor="middle" x="1178" y="-337" font-family="Helvetica,sans-Serif" font-size="10.00">rendering/Camera.hpp</text>
</a>
</g>
</g>
<!-- Node1&#45;&gt;Node28 -->
<g id="edge42_Node000001_Node000028" class="edge">
<title>Node1&#45;&gt;Node28</title>
<g id="a_edge42_Node000001_Node000028"><a xlink:title=" ">
<path fill="none" stroke="#63b8ff" d="M1085.67,-384.98C1103.29,-376.5 1130.58,-363.35 1150.93,-353.54"/>
<polygon fill="#63b8ff" stroke="#63b8ff" points="1152.52,-356.66 1160.01,-349.17 1149.48,-350.36 1152.52,-356.66"/>
</a>
</g>
</g>
<!-- Node29 -->
<g id="Node000029" class="node">
<title>Node29</title>
<g id="a_Node000029"><a xlink:href="Shader_8hpp.html" target="_top" xlink:title="Manages OpenGL shaders.">
<polygon fill="white" stroke="#666666" points="1109,-239 989,-239 989,-220 1109,-220 1109,-239"/>
<text text-anchor="middle" x="1049" y="-227" font-family="Helvetica,sans-Serif" font-size="10.00">rendering/Shader.hpp</text>
</a>
</g>
</g>
<!-- Node1&#45;&gt;Node29 -->
<g id="edge46_Node000001_Node000029" class="edge">
<title>Node1&#45;&gt;Node29</title>
<g id="a_edge46_Node000001_Node000029"><a xlink:title=" ">
<path fill="none" stroke="#63b8ff" d="M1066.98,-384.74C1064.01,-359.31 1055.36,-285.08 1051.24,-249.69"/>
<polygon fill="#63b8ff" stroke="#63b8ff" points="1054.66,-248.83 1050.03,-239.31 1047.71,-249.64 1054.66,-248.83"/>
</a>
</g>
</g>
<!-- Node3 -->
<g id="Node000003" class="node">
<title>Node3</title>
<g id="a_Node000003"><a xlink:title=" ">
<polygon fill="#e0e0e0" stroke="#999999" points="397,-129 333,-129 333,-110 397,-110 397,-129"/>
<text text-anchor="middle" x="365" y="-117" font-family="Helvetica,sans-Serif" font-size="10.00">algorithm</text>
</a>
</g>
</g>
<!-- Node2&#45;&gt;Node3 -->
<g id="edge2_Node000002_Node000003" class="edge">
<title>Node2&#45;&gt;Node3</title>
<g id="a_edge2_Node000002_Node000003"><a xlink:title=" ">
<path fill="none" stroke="#63b8ff" d="M324.93,-164.75C331.85,-157.11 342.07,-145.82 350.45,-136.56"/>
<polygon fill="#63b8ff" stroke="#63b8ff" points="353.1,-138.85 357.22,-129.09 347.91,-134.15 353.1,-138.85"/>
</a>
</g>
</g>
<!-- Node4 -->
<g id="Node000004" class="node">
<title>Node4</title>
<g id="a_Node000004"><a xlink:title=" ">
<polygon fill="#e0e0e0" stroke="#999999" points="44,-129 0,-129 0,-110 44,-110 44,-129"/>
<text text-anchor="middle" x="22" y="-117" font-family="Helvetica,sans-Serif" font-size="10.00">bitset</text>
</a>
</g>
</g>
<!-- Node2&#45;&gt;Node4 -->
<g id="edge3_Node000002_Node000004" class="edge">
<title>Node2&#45;&gt;Node4</title>
<g id="a_edge3_Node000002_Node000004"><a xlink:title=" ">
<path fill="none" stroke="#63b8ff" d="M278.29,-168.22C228.55,-161.16 139.36,-147.59 54.12,-129.06"/>
<polygon fill="#63b8ff" stroke="#63b8ff" points="54.8,-125.63 44.28,-126.9 53.3,-132.47 54.8,-125.63"/>
</a>
</g>
</g>
<!-- Node5 -->
<g id="Node000005" class="node">
<title>Node5</title>
<g id="a_Node000005"><a xlink:title=" ">
<polygon fill="#e0e0e0" stroke="#999999" points="120,-129 62,-129 62,-110 120,-110 120,-129"/>
<text text-anchor="middle" x="91" y="-117" font-family="Helvetica,sans-Serif" font-size="10.00">memory</text>
</a>
</g>
</g>
<!-- Node2&#45;&gt;Node5 -->
<g id="edge4_Node000002_Node000005" class="edge">
<title>Node2&#45;&gt;Node5</title>
<g id="a_edge4_Node000002_Node000005"><a xlink:title=" ">
<path fill="none" stroke="#63b8ff" d="M280.69,-164.98C239.42,-155.31 172.32,-139.57 129.98,-129.64"/>
<polygon fill="#63b8ff" stroke="#63b8ff" points="130.57,-126.19 120.04,-127.31 128.97,-133 130.57,-126.19"/>
</a>
</g>
</g>
<!-- Node6 -->
<g id="Node000006" class="node">
<title>Node6</title>
<g id="a_Node000006"><a xlink:title=" ">
<polygon fill="#e0e0e0" stroke="#999999" points="203.5,-129 138.5,-129 138.5,-110 203.5,-110 203.5,-129"/>
<text text-anchor="middle" x="171" y="-117" font-family="Helvetica,sans-Serif" font-size="10.00">stdexcept</text>
</a>
</g>
</g>
<!-- Node2&#45;&gt;Node6 -->
<g id="edge5_Node000002_Node000006" class="edge">
<title>Node2&#45;&gt;Node6</title>
<g id="a_edge5_Node000002_Node000006"><a xlink:title=" ">
<path fill="none" stroke="#63b8ff" d="M293.54,-164.98C269.42,-156.23 231.63,-142.51 204.4,-132.62"/>
<polygon fill="#63b8ff" stroke="#63b8ff" points="205.48,-129.29 194.88,-129.17 203.09,-135.87 205.48,-129.29"/>
</a>
</g>
</g>
<!-- Node7 -->
<g id="Node000007" class="node">
<title>Node7</title>
<g id="a_Node000007"><a xlink:title=" ">
<polygon fill="#e0e0e0" stroke="#999999" points="314.5,-129 221.5,-129 221.5,-110 314.5,-110 314.5,-129"/>
<text text-anchor="middle" x="268" y="-117" font-family="Helvetica,sans-Serif" font-size="10.00">unordered_map</text>
</a>
</g>
</g>
<!-- Node2&#45;&gt;Node7 -->
<g id="edge6_Node000002_Node000007" class="edge">
<title>Node2&#45;&gt;Node7</title>
<g id="a_edge6_Node000002_Node000007"><a xlink:title=" ">
<path fill="none" stroke="#63b8ff" d="M308.91,-164.75C301.84,-157.11 291.41,-145.82 282.85,-136.56"/>
<polygon fill="#63b8ff" stroke="#63b8ff" points="285.3,-134.06 275.94,-129.09 280.16,-138.81 285.3,-134.06"/>
</a>
</g>
</g>
<!-- Node2&#45;&gt;Node8 -->
<g id="edge7_Node000002_Node000008" class="edge">
<title>Node2&#45;&gt;Node8</title>
<g id="a_edge7_Node000002_Node000008"><a xlink:title=" ">
<path fill="none" stroke="#63b8ff" d="M336.6,-164.98C356.32,-156.42 386.95,-143.11 409.58,-133.28"/>
<polygon fill="#63b8ff" stroke="#63b8ff" points="411.26,-136.37 419.04,-129.17 408.48,-129.94 411.26,-136.37"/>
</a>
</g>
</g>
<!-- Node10 -->
<g id="Node000010" class="node">
<title>Node10</title>
<g id="a_Node000010"><a xlink:href="Entity_8hpp.html" target="_top" xlink:title="Defines the Entity class, which serves as a wrapper for ECS entities.">
<polygon fill="white" stroke="#666666" points="970.5,-239 905.5,-239 905.5,-220 970.5,-220 970.5,-239"/>
<text text-anchor="middle" x="938" y="-227" font-family="Helvetica,sans-Serif" font-size="10.00">Entity.hpp</text>
</a>
</g>
</g>
<!-- Node9&#45;&gt;Node10 -->
<g id="edge9_Node000009_Node000010" class="edge">
<title>Node9&#45;&gt;Node10</title>
<g id="a_edge9_Node000009_Node000010"><a xlink:title=" ">
<path fill="none" stroke="#63b8ff" d="M1119.3,-274.98C1081.59,-265.73 1021.31,-250.94 980.72,-240.98"/>
<polygon fill="#63b8ff" stroke="#63b8ff" points="981.39,-237.54 970.85,-238.56 979.73,-244.34 981.39,-237.54"/>
</a>
</g>
</g>
<!-- Node20 -->
<g id="Node000020" class="node">
<title>Node20</title>
<g id="a_Node000020"><a xlink:href="TransformComponent_8hpp.html" target="_top" xlink:title="Defines the TransformComponent for ECS&#45;based spatial transformations.">
<polygon fill="white" stroke="#666666" points="1333,-239 1127,-239 1127,-220 1333,-220 1333,-239"/>
<text text-anchor="middle" x="1230" y="-227" font-family="Helvetica,sans-Serif" font-size="10.00">components/TransformComponent.hpp</text>
</a>
</g>
</g>
<!-- Node9&#45;&gt;Node20 -->
<g id="edge21_Node000009_Node000020" class="edge">
<title>Node9&#45;&gt;Node20</title>
<g id="a_edge21_Node000009_Node000020"><a xlink:title=" ">
<path fill="none" stroke="#63b8ff" d="M1166.21,-274.98C1177.78,-266.92 1195.38,-254.65 1209.16,-245.03"/>
<polygon fill="#63b8ff" stroke="#63b8ff" points="1211.37,-247.76 1217.57,-239.17 1207.36,-242.02 1211.37,-247.76"/>
</a>
</g>
</g>
<!-- Node25 -->
<g id="Node000025" class="node">
<title>Node25</title>
<g id="a_Node000025"><a xlink:href="Mesh_8hpp.html" target="_top" xlink:title="Defines the Mesh class for managing 3D geometry.">
<polygon fill="white" stroke="#666666" points="632.5,-184 519.5,-184 519.5,-165 632.5,-165 632.5,-184"/>
<text text-anchor="middle" x="576" y="-172" font-family="Helvetica,sans-Serif" font-size="10.00">rendering/Mesh.hpp</text>
</a>
</g>
</g>
<!-- Node9&#45;&gt;Node25 -->
<g id="edge34_Node000009_Node000025" class="edge">
<title>Node9&#45;&gt;Node25</title>
<g id="a_edge34_Node000009_Node000025"><a xlink:title=" ">
<path fill="none" stroke="#63b8ff" d="M1102.04,-274.93C1049.89,-266.24 967.28,-252.22 896,-239 801.05,-221.39 690.62,-199.07 627.46,-186.12"/>
<polygon fill="#63b8ff" stroke="#63b8ff" points="627.86,-182.63 617.36,-184.05 626.45,-189.49 627.86,-182.63"/>
</a>
</g>
</g>
<!-- Node10&#45;&gt;Node2 -->
<g id="edge19_Node000010_Node000002" class="edge">
<title>Node10&#45;&gt;Node2</title>
<g id="a_edge19_Node000010_Node000002"><a xlink:title=" ">
<path fill="none" stroke="#63b8ff" d="M905.49,-225.73C803.28,-217 488.02,-190.1 365.97,-179.68"/>
<polygon fill="#63b8ff" stroke="#63b8ff" points="366.06,-176.17 355.8,-178.81 365.47,-183.15 366.06,-176.17"/>
</a>
</g>
</g>
<!-- Node11 -->
<g id="Node000011" class="node">
<title>Node11</title>
<g id="a_Node000011"><a xlink:href="Logger_8hpp.html" target="_top" xlink:title="Provides logging functionality.">
<polygon fill="white" stroke="#666666" points="973,-184 903,-184 903,-165 973,-165 973,-184"/>
<text text-anchor="middle" x="938" y="-172" font-family="Helvetica,sans-Serif" font-size="10.00">Logger.hpp</text>
</a>
</g>
</g>
<!-- Node10&#45;&gt;Node11 -->
<g id="edge10_Node000010_Node000011" class="edge">
<title>Node10&#45;&gt;Node11</title>
<g id="a_edge10_Node000010_Node000011"><a xlink:title=" ">
<path fill="none" stroke="#63b8ff" d="M938,-219.75C938,-212.8 938,-202.85 938,-194.13"/>
<polygon fill="#63b8ff" stroke="#63b8ff" points="941.5,-194.09 938,-184.09 934.5,-194.09 941.5,-194.09"/>
</a>
</g>
</g>
<!-- Node16 -->
<g id="Node000016" class="node">
<title>Node16</title>
<g id="a_Node000016"><a xlink:title=" ">
<polygon fill="#e0e0e0" stroke="#999999" points="1118,-129 1058,-129 1058,-110 1118,-110 1118,-129"/>
<text text-anchor="middle" x="1088" y="-117" font-family="Helvetica,sans-Serif" font-size="10.00">iostream</text>
</a>
</g>
</g>
<!-- Node10&#45;&gt;Node16 -->
<g id="edge20_Node000010_Node000016" class="edge">
<title>Node10&#45;&gt;Node16</title>
<g id="a_edge20_Node000010_Node000016"><a xlink:title=" ">
<path fill="none" stroke="#63b8ff" d="M950.02,-219.84C975.69,-201.36 1036.11,-157.86 1067.8,-135.05"/>
<polygon fill="#63b8ff" stroke="#63b8ff" points="1069.85,-137.88 1075.92,-129.2 1065.76,-132.2 1069.85,-137.88"/>
</a>
</g>
</g>
<!-- Node12 -->
<g id="Node000012" class="node">
<title>Node12</title>
<g id="a_Node000012"><a xlink:title=" ">
<polygon fill="#e0e0e0" stroke="#999999" points="773,-129 723,-129 723,-110 773,-110 773,-129"/>
<text text-anchor="middle" x="748" y="-117" font-family="Helvetica,sans-Serif" font-size="10.00">chrono</text>
</a>
</g>
</g>
<!-- Node11&#45;&gt;Node12 -->
<g id="edge11_Node000011_Node000012" class="edge">
<title>Node11&#45;&gt;Node12</title>
<g id="a_edge11_Node000011_Node000012"><a xlink:title=" ">
<path fill="none" stroke="#63b8ff" d="M907.47,-164.98C873.58,-155.53 818.95,-140.29 783.26,-130.34"/>
<polygon fill="#63b8ff" stroke="#63b8ff" points="783.86,-126.87 773.28,-127.55 781.98,-133.61 783.86,-126.87"/>
</a>
</g>
</g>
<!-- Node13 -->
<g id="Node000013" class="node">
<title>Node13</title>
<g id="a_Node000013"><a xlink:title=" ">
<polygon fill="#e0e0e0" stroke="#999999" points="862.5,-129 791.5,-129 791.5,-110 862.5,-110 862.5,-129"/>
<text text-anchor="middle" x="827" y="-117" font-family="Helvetica,sans-Serif" font-size="10.00">fmt/printf.h</text>
</a>
</g>
</g>
<!-- Node11&#45;&gt;Node13 -->
<g id="edge12_Node000011_Node000013" class="edge">
<title>Node11&#45;&gt;Node13</title>
<g id="a_edge12_Node000011_Node000013"><a xlink:title=" ">
<path fill="none" stroke="#63b8ff" d="M920.17,-164.98C902.39,-156.5 874.85,-143.35 854.32,-133.54"/>
<polygon fill="#63b8ff" stroke="#63b8ff" points="855.69,-130.32 845.16,-129.17 852.67,-136.64 855.69,-130.32"/>
</a>
</g>
</g>
<!-- Node14 -->
<g id="Node000014" class="node">
<title>Node14</title>
<g id="a_Node000014"><a xlink:title=" ">
<polygon fill="#e0e0e0" stroke="#999999" points="935.5,-129 880.5,-129 880.5,-110 935.5,-110 935.5,-129"/>
<text text-anchor="middle" x="908" y="-117" font-family="Helvetica,sans-Serif" font-size="10.00">fstream</text>
</a>
</g>
</g>
<!-- Node11&#45;&gt;Node14 -->
<g id="edge13_Node000011_Node000014" class="edge">
<title>Node11&#45;&gt;Node14</title>
<g id="a_edge13_Node000011_Node000014"><a xlink:title=" ">
<path fill="none" stroke="#63b8ff" d="M933.05,-164.75C928.94,-157.49 922.97,-146.95 917.9,-137.98"/>
<polygon fill="#63b8ff" stroke="#63b8ff" points="920.83,-136.07 912.86,-129.09 914.74,-139.52 920.83,-136.07"/>
</a>
</g>
</g>
<!-- Node15 -->
<g id="Node000015" class="node">
<title>Node15</title>
<g id="a_Node000015"><a xlink:title=" ">
<polygon fill="#e0e0e0" stroke="#999999" points="1230,-129 1174,-129 1174,-110 1230,-110 1230,-129"/>
<text text-anchor="middle" x="1202" y="-117" font-family="Helvetica,sans-Serif" font-size="10.00">iomanip</text>
</a>
</g>
</g>
<!-- Node11&#45;&gt;Node15 -->
<g id="edge14_Node000011_Node000015" class="edge">
<title>Node11&#45;&gt;Node15</title>
<g id="a_edge14_Node000011_Node000015"><a xlink:title=" ">
<path fill="none" stroke="#63b8ff" d="M973.06,-166.46C1022.53,-156.53 1112.48,-138.47 1163.67,-128.19"/>
<polygon fill="#63b8ff" stroke="#63b8ff" points="1164.56,-131.59 1173.67,-126.19 1163.18,-124.72 1164.56,-131.59"/>
</a>
</g>
</g>
<!-- Node11&#45;&gt;Node16 -->
<g id="edge15_Node000011_Node000016" class="edge">
<title>Node11&#45;&gt;Node16</title>
<g id="a_edge15_Node000011_Node000016"><a xlink:title=" ">
<path fill="none" stroke="#63b8ff" d="M962.1,-164.98C986.88,-156.23 1025.7,-142.51 1053.69,-132.62"/>
<polygon fill="#63b8ff" stroke="#63b8ff" points="1055.2,-135.8 1063.46,-129.17 1052.87,-129.2 1055.2,-135.8"/>
</a>
</g>
</g>
<!-- Node17 -->
<g id="Node000017" class="node">
<title>Node17</title>
<g id="a_Node000017"><a xlink:title=" ">
<polygon fill="#e0e0e0" stroke="#999999" points="1002,-129 954,-129 954,-110 1002,-110 1002,-129"/>
<text text-anchor="middle" x="978" y="-117" font-family="Helvetica,sans-Serif" font-size="10.00">mutex</text>
</a>
</g>
</g>
<!-- Node11&#45;&gt;Node17 -->
<g id="edge16_Node000011_Node000017" class="edge">
<title>Node11&#45;&gt;Node17</title>
<g id="a_edge16_Node000011_Node000017"><a xlink:title=" ">
<path fill="none" stroke="#63b8ff" d="M944.61,-164.75C950.26,-157.26 958.54,-146.28 965.45,-137.13"/>
<polygon fill="#63b8ff" stroke="#63b8ff" points="968.29,-139.18 971.52,-129.09 962.7,-134.96 968.29,-139.18"/>
</a>
</g>
</g>
<!-- Node18 -->
<g id="Node000018" class="node">
<title>Node18</title>
<g id="a_Node000018"><a xlink:title=" ">
<polygon fill="#e0e0e0" stroke="#999999" points="1322,-19 1266,-19 1266,0 1322,0 1322,-19"/>
<text text-anchor="middle" x="1294" y="-7" font-family="Helvetica,sans-Serif" font-size="10.00">sstream</text>
</a>
</g>
</g>
<!-- Node11&#45;&gt;Node18 -->
<g id="edge17_Node000011_Node000018" class="edge">
<title>Node11&#45;&gt;Node18</title>
<g id="a_edge17_Node000011_Node000018"><a xlink:title=" ">
<path fill="none" stroke="#63b8ff" d="M951.69,-164.87C972.34,-152.04 1012.86,-127.58 1049,-110 1122.62,-74.19 1212.55,-39.99 1260.35,-22.53"/>
<polygon fill="#63b8ff" stroke="#63b8ff" points="1261.68,-25.77 1269.89,-19.07 1259.29,-19.19 1261.68,-25.77"/>
</a>
</g>
</g>
<!-- Node19 -->
<g id="Node000019" class="node">
<title>Node19</title>
<g id="a_Node000019"><a xlink:title=" ">
<polygon fill="#e0e0e0" stroke="#999999" points="634,-19 590,-19 590,0 634,0 634,-19"/>
<text text-anchor="middle" x="612" y="-7" font-family="Helvetica,sans-Serif" font-size="10.00">string</text>
</a>
</g>
</g>
<!-- Node11&#45;&gt;Node19 -->
<g id="edge18_Node000011_Node000019" class="edge">
<title>Node11&#45;&gt;Node19</title>
<g id="a_edge18_Node000011_Node000019"><a xlink:title=" ">
<path fill="none" stroke="#63b8ff" d="M902.73,-169.34C848,-162.41 745.59,-147.43 714,-129 671.17,-104.02 637.53,-54.35 621.77,-27.95"/>
<polygon fill="#63b8ff" stroke="#63b8ff" points="624.67,-25.97 616.63,-19.07 618.61,-29.48 624.67,-25.97"/>
</a>
</g>
</g>
<!-- Node21 -->
<g id="Node000021" class="node">
<title>Node21</title>
<g id="a_Node000021"><a xlink:href="Matrix4_8hpp.html" target="_top" xlink:title="Defines the Matrix4 class for 3D transformation operations.">
<polygon fill="white" stroke="#666666" points="1362,-184 1258,-184 1258,-165 1362,-165 1362,-184"/>
<text text-anchor="middle" x="1310" y="-172" font-family="Helvetica,sans-Serif" font-size="10.00">math/Matrix4.hpp</text>
</a>
</g>
</g>
<!-- Node20&#45;&gt;Node21 -->
<g id="edge22_Node000020_Node000021" class="edge">
<title>Node20&#45;&gt;Node21</title>
<g id="a_edge22_Node000020_Node000021"><a xlink:title=" ">
<path fill="none" stroke="#63b8ff" d="M1242.85,-219.98C1255.14,-211.84 1273.91,-199.41 1288.48,-189.76"/>
<polygon fill="#63b8ff" stroke="#63b8ff" points="1290.51,-192.61 1296.91,-184.17 1286.64,-186.78 1290.51,-192.61"/>
</a>
</g>
</g>
<!-- Node22 -->
<g id="Node000022" class="node">
<title>Node22</title>
<g id="a_Node000022"><a xlink:href="Quaternion_8hpp.html" target="_top" xlink:title="Defines the Quaternion class for representing 3D rotations.">
<polygon fill="white" stroke="#666666" points="1340,-129 1248,-129 1248,-110 1340,-110 1340,-129"/>
<text text-anchor="middle" x="1294" y="-117" font-family="Helvetica,sans-Serif" font-size="10.00">Quaternion.hpp</text>
</a>
</g>
</g>
<!-- Node20&#45;&gt;Node22 -->
<g id="edge32_Node000020_Node000022" class="edge">
<title>Node20&#45;&gt;Node22</title>
<g id="a_edge32_Node000020_Node000022"><a xlink:title=" ">
<path fill="none" stroke="#63b8ff" d="M1231.21,-219.73C1233.27,-206.94 1238.34,-182.76 1249,-165 1255.67,-153.89 1265.74,-143.58 1274.67,-135.68"/>
<polygon fill="#63b8ff" stroke="#63b8ff" points="1277.02,-138.28 1282.41,-129.16 1272.51,-132.92 1277.02,-138.28"/>
</a>
</g>
</g>
<!-- Node23 -->
<g id="Node000023" class="node">
<title>Node23</title>
<g id="a_Node000023"><a xlink:href="Vector3_8hpp.html" target="_top" xlink:title="Defines the Vector3 class.">
<polygon fill="white" stroke="#666666" points="1331,-74 1257,-74 1257,-55 1331,-55 1331,-74"/>
<text text-anchor="middle" x="1294" y="-62" font-family="Helvetica,sans-Serif" font-size="10.00">Vector3.hpp</text>
</a>
</g>
</g>
<!-- Node20&#45;&gt;Node23 -->
<g id="edge33_Node000020_Node000023" class="edge">
<title>Node20&#45;&gt;Node23</title>
<g id="a_edge33_Node000020_Node000023"><a xlink:title=" ">
<path fill="none" stroke="#63b8ff" d="M1314.48,-219.92C1336.34,-213.42 1357.49,-202.43 1371,-184 1380.38,-171.2 1380.99,-136.76 1364,-110 1355.22,-96.17 1340.42,-85.84 1326.69,-78.64"/>
<polygon fill="#63b8ff" stroke="#63b8ff" points="1327.96,-75.37 1317.44,-74.15 1324.9,-81.66 1327.96,-75.37"/>
</a>
</g>
</g>
<!-- Node21&#45;&gt;Node15 -->
<g id="edge30_Node000021_Node000015" class="edge">
<title>Node21&#45;&gt;Node15</title>
<g id="a_edge30_Node000021_Node000015"><a xlink:title=" ">
<path fill="none" stroke="#63b8ff" d="M1292.65,-164.98C1275.43,-156.54 1248.8,-143.47 1228.85,-133.68"/>
<polygon fill="#63b8ff" stroke="#63b8ff" points="1230.19,-130.43 1219.67,-129.17 1227.1,-136.72 1230.19,-130.43"/>
</a>
</g>
</g>
<!-- Node21&#45;&gt;Node18 -->
<g id="edge31_Node000021_Node000018" class="edge">
<title>Node21&#45;&gt;Node18</title>
<g id="a_edge31_Node000021_Node000018"><a xlink:title=" ">
<path fill="none" stroke="#63b8ff" d="M1326.89,-164.95C1339.71,-157.43 1356.38,-145.15 1364,-129 1367.6,-121.36 1365.73,-118.27 1364,-110 1358.55,-83.89 1355.21,-76.91 1340,-55 1332.43,-44.1 1321.91,-33.68 1312.84,-25.67"/>
<polygon fill="#63b8ff" stroke="#63b8ff" points="1314.94,-22.86 1305.05,-19.05 1310.4,-28.19 1314.94,-22.86"/>
</a>
</g>
</g>
<!-- Node21&#45;&gt;Node22 -->
<g id="edge23_Node000021_Node000022" class="edge">
<title>Node21&#45;&gt;Node22</title>
<g id="a_edge23_Node000021_Node000022"><a xlink:title=" ">
<path fill="none" stroke="#63b8ff" d="M1307.36,-164.75C1305.24,-157.72 1302.19,-147.62 1299.54,-138.84"/>
<polygon fill="#63b8ff" stroke="#63b8ff" points="1302.83,-137.65 1296.59,-129.09 1296.13,-139.67 1302.83,-137.65"/>
</a>
</g>
</g>
<!-- Node21&#45;&gt;Node23 -->
<g id="edge29_Node000021_Node000023" class="edge">
<title>Node21&#45;&gt;Node23</title>
<g id="a_edge29_Node000021_Node000023"><a xlink:title=" ">
<path fill="none" stroke="#63b8ff" d="M1321.92,-164.79C1336.7,-152.86 1358.81,-130.55 1349,-110 1342.91,-97.23 1331.16,-86.94 1320.08,-79.49"/>
<polygon fill="#63b8ff" stroke="#63b8ff" points="1321.8,-76.43 1311.46,-74.12 1318.1,-82.38 1321.8,-76.43"/>
</a>
</g>
</g>
<!-- Node22&#45;&gt;Node23 -->
<g id="edge24_Node000022_Node000023" class="edge">
<title>Node22&#45;&gt;Node23</title>
<g id="a_edge24_Node000022_Node000023"><a xlink:title=" ">
<path fill="none" stroke="#63b8ff" d="M1294,-109.75C1294,-102.8 1294,-92.85 1294,-84.13"/>
<polygon fill="#63b8ff" stroke="#63b8ff" points="1297.5,-84.09 1294,-74.09 1290.5,-84.09 1297.5,-84.09"/>
</a>
</g>
</g>
<!-- Node24 -->
<g id="Node000024" class="node">
<title>Node24</title>
<g id="a_Node000024"><a xlink:title=" ">
<polygon fill="#e0e0e0" stroke="#999999" points="1131.5,-19 1084.5,-19 1084.5,0 1131.5,0 1131.5,-19"/>
<text text-anchor="middle" x="1108" y="-7" font-family="Helvetica,sans-Serif" font-size="10.00">cmath</text>
</a>
</g>
</g>
<!-- Node22&#45;&gt;Node24 -->
<g id="edge28_Node000022_Node000024" class="edge">
<title>Node22&#45;&gt;Node24</title>
<g id="a_edge28_Node000022_Node000024"><a xlink:title=" ">
<path fill="none" stroke="#63b8ff" d="M1279.09,-109.84C1246.91,-91.16 1170.68,-46.9 1131.76,-24.3"/>
<polygon fill="#63b8ff" stroke="#63b8ff" points="1133.12,-21.04 1122.72,-19.05 1129.61,-27.1 1133.12,-21.04"/>
</a>
</g>
</g>
<!-- Node23&#45;&gt;Node18 -->
<g id="edge26_Node000023_Node000018" class="edge">
<title>Node23&#45;&gt;Node18</title>
<g id="a_edge26_Node000023_Node000018"><a xlink:title=" ">
<path fill="none" stroke="#63b8ff" d="M1294,-54.75C1294,-47.8 1294,-37.85 1294,-29.13"/>
<polygon fill="#63b8ff" stroke="#63b8ff" points="1297.5,-29.09 1294,-19.09 1290.5,-29.09 1297.5,-29.09"/>
</a>
</g>
</g>
<!-- Node23&#45;&gt;Node19 -->
<g id="edge27_Node000023_Node000019" class="edge">
<title>Node23&#45;&gt;Node19</title>
<g id="a_edge27_Node000023_Node000019"><a xlink:title=" ">
<path fill="none" stroke="#63b8ff" d="M1256.85,-60.61C1136.35,-51.25 757.6,-21.82 644.32,-13.01"/>
<polygon fill="#63b8ff" stroke="#63b8ff" points="644.44,-9.51 634.2,-12.23 643.9,-16.49 644.44,-9.51"/>
</a>
</g>
</g>
<!-- Node23&#45;&gt;Node24 -->
<g id="edge25_Node000023_Node000024" class="edge">
<title>Node23&#45;&gt;Node24</title>
<g id="a_edge25_Node000023_Node000024"><a xlink:title=" ">
<path fill="none" stroke="#63b8ff" d="M1264.12,-54.98C1230.56,-45.42 1176.25,-29.95 1141.35,-20"/>
<polygon fill="#63b8ff" stroke="#63b8ff" points="1142.19,-16.6 1131.61,-17.23 1140.27,-23.34 1142.19,-16.6"/>
</a>
</g>
</g>
<!-- Node25&#45;&gt;Node8 -->
<g id="edge38_Node000025_Node000008" class="edge">
<title>Node25&#45;&gt;Node8</title>
<g id="a_edge38_Node000025_Node000008"><a xlink:title=" ">
<path fill="none" stroke="#63b8ff" d="M553.99,-164.98C531.55,-156.3 496.52,-142.75 471.01,-132.88"/>
<polygon fill="#63b8ff" stroke="#63b8ff" points="472,-129.51 461.41,-129.17 469.48,-136.04 472,-129.51"/>
</a>
</g>
</g>
<!-- Node25&#45;&gt;Node19 -->
<g id="edge37_Node000025_Node000019" class="edge">
<title>Node25&#45;&gt;Node19</title>
<g id="a_edge37_Node000025_Node000019"><a xlink:title=" ">
<path fill="none" stroke="#63b8ff" d="M574.07,-164.78C571.66,-152.46 568.27,-129.3 572,-110 577.81,-79.96 592.65,-47.48 602.53,-28.08"/>
<polygon fill="#63b8ff" stroke="#63b8ff" points="605.63,-29.69 607.16,-19.2 599.43,-26.44 605.63,-29.69"/>
</a>
</g>
</g>
<!-- Node25&#45;&gt;Node23 -->
<g id="edge35_Node000025_Node000023" class="edge">
<title>Node25&#45;&gt;Node23</title>
<g id="a_edge35_Node000025_Node000023"><a xlink:title=" ">
<path fill="none" stroke="#63b8ff" d="M574.39,-164.99C572.33,-151.16 570.65,-123.98 586,-110 634.63,-65.71 1095.1,-64.35 1246.22,-65.11"/>
<polygon fill="#63b8ff" stroke="#63b8ff" points="1246.54,-68.62 1256.55,-65.17 1246.57,-61.62 1246.54,-68.62"/>
</a>
</g>
</g>
<!-- Node26 -->
<g id="Node000026" class="node">
<title>Node26</title>
<g id="a_Node000026"><a xlink:title=" ">
<polygon fill="#e0e0e0" stroke="#999999" points="666.5,-129 595.5,-129 595.5,-110 666.5,-110 666.5,-129"/>
<text text-anchor="middle" x="631" y="-117" font-family="Helvetica,sans-Serif" font-size="10.00">glad/glad.h</text>
</a>
</g>
</g>
<!-- Node25&#45;&gt;Node26 -->
<g id="edge36_Node000025_Node000026" class="edge">
<title>Node25&#45;&gt;Node26</title>
<g id="a_edge36_Node000025_Node000026"><a xlink:title=" ">
<path fill="none" stroke="#63b8ff" d="M585.08,-164.75C593.09,-157.03 604.96,-145.6 614.62,-136.28"/>
<polygon fill="#63b8ff" stroke="#63b8ff" points="617.31,-138.55 622.09,-129.09 612.46,-133.51 617.31,-138.55"/>
</a>
</g>
</g>
<!-- Node27&#45;&gt;Node9 -->
<g id="edge40_Node000027_Node000009" class="edge">
<title>Node27&#45;&gt;Node9</title>
<g id="a_edge40_Node000027_Node000009"><a xlink:title=" ">
<path fill="none" stroke="#63b8ff" d="M1294.17,-329.98C1266.13,-321.09 1221.95,-307.07 1190.7,-297.15"/>
<polygon fill="#63b8ff" stroke="#63b8ff" points="1191.63,-293.77 1181.04,-294.08 1189.51,-300.44 1191.63,-293.77"/>
</a>
</g>
</g>
<!-- Node27&#45;&gt;Node23 -->
<g id="edge41_Node000027_Node000023" class="edge">
<title>Node27&#45;&gt;Node23</title>
<g id="a_edge41_Node000027_Node000023"><a xlink:title=" ">
<path fill="none" stroke="#63b8ff" d="M1383.69,-330.91C1442.02,-319.94 1520,-293.49 1520,-230.5 1520,-230.5 1520,-230.5 1520,-173.5 1520,-94.97 1407.54,-73.49 1341.28,-67.65"/>
<polygon fill="#63b8ff" stroke="#63b8ff" points="1341.31,-64.14 1331.07,-66.84 1340.76,-71.12 1341.31,-64.14"/>
</a>
</g>
</g>
<!-- Node28&#45;&gt;Node9 -->
<g id="edge45_Node000028_Node000009" class="edge">
<title>Node28&#45;&gt;Node9</title>
<g id="a_edge45_Node000028_Node000009"><a xlink:title=" ">
<path fill="none" stroke="#63b8ff" d="M1174.04,-329.75C1170.79,-322.57 1166.08,-312.18 1162.05,-303.27"/>
<polygon fill="#63b8ff" stroke="#63b8ff" points="1165.2,-301.75 1157.89,-294.09 1158.83,-304.64 1165.2,-301.75"/>
</a>
</g>
</g>
<!-- Node28&#45;&gt;Node21 -->
<g id="edge43_Node000028_Node000021" class="edge">
<title>Node28&#45;&gt;Node21</title>
<g id="a_edge43_Node000028_Node000021"><a xlink:title=" ">
<path fill="none" stroke="#63b8ff" d="M1208.95,-329.96C1248.03,-317.32 1313.57,-289.5 1342,-239 1350.93,-223.14 1338.96,-204.49 1327.21,-191.52"/>
<polygon fill="#63b8ff" stroke="#63b8ff" points="1329.6,-188.96 1320.1,-184.26 1324.59,-193.86 1329.6,-188.96"/>
</a>
</g>
</g>
<!-- Node28&#45;&gt;Node23 -->
<g id="edge44_Node000028_Node000023" class="edge">
<title>Node28&#45;&gt;Node23</title>
<g id="a_edge44_Node000028_Node000023"><a xlink:title=" ">
<path fill="none" stroke="#63b8ff" d="M1222.52,-329.98C1298.25,-314.21 1444,-277.73 1444,-230.5 1444,-230.5 1444,-230.5 1444,-173.5 1444,-120.99 1382.72,-91.49 1338.5,-77.03"/>
<polygon fill="#63b8ff" stroke="#63b8ff" points="1339.38,-73.64 1328.79,-74 1337.3,-80.32 1339.38,-73.64"/>
</a>
</g>
</g>
<!-- Node29&#45;&gt;Node19 -->
<g id="edge50_Node000029_Node000019" class="edge">
<title>Node29&#45;&gt;Node19</title>
<g id="a_edge50_Node000029_Node000019"><a xlink:title=" ">
<path fill="none" stroke="#63b8ff" d="M988.69,-221C985.41,-220.65 982.17,-220.31 979,-220 926.99,-214.85 545.51,-222.34 510,-184 462.9,-133.14 550.06,-56.91 591.67,-25.18"/>
<polygon fill="#63b8ff" stroke="#63b8ff" points="593.88,-27.9 599.8,-19.11 589.69,-22.29 593.88,-27.9"/>
</a>
</g>
</g>
<!-- Node29&#45;&gt;Node21 -->
<g id="edge47_Node000029_Node000021" class="edge">
<title>Node29&#45;&gt;Node21</title>
<g id="a_edge47_Node000029_Node000021"><a xlink:title=" ">
<path fill="none" stroke="#63b8ff" d="M1090.93,-219.98C1136.27,-210.78 1208.61,-196.09 1257.65,-186.13"/>
<polygon fill="#63b8ff" stroke="#63b8ff" points="1258.63,-189.5 1267.74,-184.08 1257.24,-182.64 1258.63,-189.5"/>
</a>
</g>
</g>
<!-- Node29&#45;&gt;Node23 -->
<g id="edge48_Node000029_Node000023" class="edge">
<title>Node29&#45;&gt;Node23</title>
<g id="a_edge48_Node000029_Node000023"><a xlink:title=" ">
<path fill="none" stroke="#63b8ff" d="M1055.27,-219.71C1071.18,-198.01 1115.37,-141.4 1165,-110 1190.1,-94.12 1221.55,-83.12 1247.11,-76.03"/>
<polygon fill="#63b8ff" stroke="#63b8ff" points="1248.19,-79.37 1256.95,-73.41 1246.39,-72.6 1248.19,-79.37"/>
</a>
</g>
</g>
<!-- Node29&#45;&gt;Node26 -->
<g id="edge49_Node000029_Node000026" class="edge">
<title>Node29&#45;&gt;Node26</title>
<g id="a_edge49_Node000029_Node000026"><a xlink:title=" ">
<path fill="none" stroke="#63b8ff" d="M1015.85,-219.94C940.7,-200.52 757.44,-153.17 673.84,-131.57"/>
<polygon fill="#63b8ff" stroke="#63b8ff" points="674.71,-128.18 664.15,-129.07 672.96,-134.96 674.71,-128.18"/>
</a>
</g>
</g>
</g>
</svg>
