<?xml version="1.0" encoding="UTF-8" standalone="no"?>
<!DOCTYPE svg PUBLIC "-//W3C//DTD SVG 1.1//EN"
 "http://www.w3.org/Graphics/SVG/1.1/DTD/svg11.dtd">
<!-- Generated by graphviz version 2.43.0 (0)
 -->
<!-- Title: include/rendering/Renderer.hpp Pages: 1 -->
<svg width="1606pt" height="412pt"
 viewBox="0.00 0.00 1605.97 412.00" xmlns="http://www.w3.org/2000/svg" xmlns:xlink="http://www.w3.org/1999/xlink">
<g id="graph0" class="graph" transform="scale(1 1) rotate(0) translate(4 408)">
<title>include/rendering/Renderer.hpp</title>
<!-- Node1 -->
<g id="Node000001" class="node">
<title>Node1</title>
<g id="a_Node000001"><a xlink:title="Manages the rendering pipeline and object submission.">
<polygon fill="#999999" stroke="#666666" points="640.46,-404 471.46,-404 471.46,-385 640.46,-385 640.46,-404"/>
<text text-anchor="middle" x="555.96" y="-392" font-family="Helvetica,sans-Serif" font-size="10.00">include/rendering/Renderer.hpp</text>
</a>
</g>
</g>
<!-- Node2 -->
<g id="Node000002" class="node">
<title>Node2</title>
<g id="a_Node000002"><a xlink:href="Window_8hpp.html" target="_top" xlink:title="Provides a window for OpenGL rendering using GLFW.">
<polygon fill="white" stroke="#666666" points="107.96,-184 31.96,-184 31.96,-165 107.96,-165 107.96,-184"/>
<text text-anchor="middle" x="69.96" y="-172" font-family="Helvetica,sans-Serif" font-size="10.00">Window.hpp</text>
</a>
</g>
</g>
<!-- Node1&#45;&gt;Node2 -->
<g id="edge1_Node000001_Node000002" class="edge">
<title>Node1&#45;&gt;Node2</title>
<g id="a_edge1_Node000001_Node000002"><a xlink:title=" ">
<path fill="none" stroke="#63b8ff" d="M535.58,-384.93C514.57,-376.07 480.9,-361.76 451.96,-349 318.8,-290.28 160.79,-217.53 97.85,-188.42"/>
<polygon fill="#63b8ff" stroke="#63b8ff" points="99.13,-185.15 88.58,-184.13 96.19,-191.51 99.13,-185.15"/>
</a>
</g>
</g>
<!-- Node6 -->
<g id="Node000006" class="node">
<title>Node6</title>
<g id="a_Node000006"><a xlink:href="Object_8hpp.html" target="_top" xlink:title="Defines the Object class, a special ECS entity wrapper.">
<polygon fill="white" stroke="#666666" points="759.46,-294 652.46,-294 652.46,-275 759.46,-275 759.46,-294"/>
<text text-anchor="middle" x="705.96" y="-282" font-family="Helvetica,sans-Serif" font-size="10.00">objects/Object.hpp</text>
</a>
</g>
</g>
<!-- Node1&#45;&gt;Node6 -->
<g id="edge5_Node000001_Node000006" class="edge">
<title>Node1&#45;&gt;Node6</title>
<g id="a_edge5_Node000001_Node000006"><a xlink:title=" ">
<path fill="none" stroke="#63b8ff" d="M612.05,-384.99C636.54,-378.7 663.95,-367.82 682.96,-349 695.06,-337.03 700.84,-318.21 703.57,-304.16"/>
<polygon fill="#63b8ff" stroke="#63b8ff" points="707.05,-304.57 705.17,-294.14 700.14,-303.47 707.05,-304.57"/>
</a>
</g>
</g>
<!-- Node22 -->
<g id="Node000022" class="node">
<title>Node22</title>
<g id="a_Node000022"><a xlink:title=" ">
<polygon fill="#e0e0e0" stroke="#999999" points="403.46,-129 356.46,-129 356.46,-110 403.46,-110 403.46,-129"/>
<text text-anchor="middle" x="379.96" y="-117" font-family="Helvetica,sans-Serif" font-size="10.00">vector</text>
</a>
</g>
</g>
<!-- Node1&#45;&gt;Node22 -->
<g id="edge53_Node000001_Node000022" class="edge">
<title>Node1&#45;&gt;Node22</title>
<g id="a_edge53_Node000001_Node000022"><a xlink:title=" ">
<path fill="none" stroke="#63b8ff" d="M549.52,-384.77C537.07,-367.04 510.96,-325.11 510.96,-285.5 510.96,-285.5 510.96,-285.5 510.96,-228.5 510.96,-177.82 451.88,-146.5 413.07,-131.4"/>
<polygon fill="#63b8ff" stroke="#63b8ff" points="414.28,-128.11 403.69,-127.9 411.84,-134.67 414.28,-128.11"/>
</a>
</g>
</g>
<!-- Node29 -->
<g id="Node000029" class="node">
<title>Node29</title>
<g id="a_Node000029"><a xlink:href="PointLight_8hpp_source.html" target="_top" xlink:title=" ">
<polygon fill="white" stroke="#666666" points="855.46,-349 730.46,-349 730.46,-330 855.46,-330 855.46,-349"/>
<text text-anchor="middle" x="792.96" y="-337" font-family="Helvetica,sans-Serif" font-size="10.00">objects/PointLight.hpp</text>
</a>
</g>
</g>
<!-- Node1&#45;&gt;Node29 -->
<g id="edge41_Node000001_Node000029" class="edge">
<title>Node1&#45;&gt;Node29</title>
<g id="a_edge41_Node000001_Node000029"><a xlink:title=" ">
<path fill="none" stroke="#63b8ff" d="M594.04,-384.98C634.95,-375.84 700.07,-361.27 744.58,-351.32"/>
<polygon fill="#63b8ff" stroke="#63b8ff" points="745.59,-354.68 754.59,-349.08 744.07,-347.85 745.59,-354.68"/>
</a>
</g>
</g>
<!-- Node30 -->
<g id="Node000030" class="node">
<title>Node30</title>
<g id="a_Node000030"><a xlink:href="Camera_8hpp.html" target="_top" xlink:title="Defines the Camera class for view and projection.">
<polygon fill="white" stroke="#666666" points="673.46,-349 548.46,-349 548.46,-330 673.46,-330 673.46,-349"/>
<text text-anchor="middle" x="610.96" y="-337" font-family="Helvetica,sans-Serif" font-size="10.00">rendering/Camera.hpp</text>
</a>
</g>
</g>
<!-- Node1&#45;&gt;Node30 -->
<g id="edge44_Node000001_Node000030" class="edge">
<title>Node1&#45;&gt;Node30</title>
<g id="a_edge44_Node000001_Node000030"><a xlink:title=" ">
<path fill="none" stroke="#63b8ff" d="M565.05,-384.75C573.06,-377.03 584.92,-365.6 594.59,-356.28"/>
<polygon fill="#63b8ff" stroke="#63b8ff" points="597.28,-358.55 602.05,-349.09 592.42,-353.51 597.28,-358.55"/>
</a>
</g>
</g>
<!-- Node31 -->
<g id="Node000031" class="node">
<title>Node31</title>
<g id="a_Node000031"><a xlink:href="Shader_8hpp.html" target="_top" xlink:title="Manages OpenGL shaders.">
<polygon fill="white" stroke="#666666" points="349.96,-239 229.96,-239 229.96,-220 349.96,-220 349.96,-239"/>
<text text-anchor="middle" x="289.96" y="-227" font-family="Helvetica,sans-Serif" font-size="10.00">rendering/Shader.hpp</text>
</a>
</g>
</g>
<!-- Node1&#45;&gt;Node31 -->
<g id="edge48_Node000001_Node000031" class="edge">
<title>Node1&#45;&gt;Node31</title>
<g id="a_edge48_Node000001_Node000031"><a xlink:title=" ">
<path fill="none" stroke="#63b8ff" d="M542.04,-384.97C498.78,-358.46 366.41,-277.35 312.84,-244.52"/>
<polygon fill="#63b8ff" stroke="#63b8ff" points="314.43,-241.39 304.07,-239.15 310.77,-247.36 314.43,-241.39"/>
</a>
</g>
</g>
<!-- Node3 -->
<g id="Node000003" class="node">
<title>Node3</title>
<g id="a_Node000003"><a xlink:title=" ">
<polygon fill="#e0e0e0" stroke="#999999" points="185.46,-129 114.46,-129 114.46,-110 185.46,-110 185.46,-129"/>
<text text-anchor="middle" x="149.96" y="-117" font-family="Helvetica,sans-Serif" font-size="10.00">glad/glad.h</text>
</a>
</g>
</g>
<!-- Node2&#45;&gt;Node3 -->
<g id="edge2_Node000002_Node000003" class="edge">
<title>Node2&#45;&gt;Node3</title>
<g id="a_edge2_Node000002_Node000003"><a xlink:title=" ">
<path fill="none" stroke="#63b8ff" d="M82.82,-164.98C95.11,-156.84 113.87,-144.41 128.44,-134.76"/>
<polygon fill="#63b8ff" stroke="#63b8ff" points="130.47,-137.61 136.88,-129.17 126.61,-131.78 130.47,-137.61"/>
</a>
</g>
</g>
<!-- Node4 -->
<g id="Node000004" class="node">
<title>Node4</title>
<g id="a_Node000004"><a xlink:title=" ">
<polygon fill="#e0e0e0" stroke="#999999" points="96.46,-129 13.46,-129 13.46,-110 96.46,-110 96.46,-129"/>
<text text-anchor="middle" x="54.96" y="-117" font-family="Helvetica,sans-Serif" font-size="10.00">GLFW/glfw3.h</text>
</a>
</g>
</g>
<!-- Node2&#45;&gt;Node4 -->
<g id="edge3_Node000002_Node000004" class="edge">
<title>Node2&#45;&gt;Node4</title>
<g id="a_edge3_Node000002_Node000004"><a xlink:title=" ">
<path fill="none" stroke="#63b8ff" d="M67.49,-164.75C65.5,-157.72 62.64,-147.62 60.16,-138.84"/>
<polygon fill="#63b8ff" stroke="#63b8ff" points="63.49,-137.76 57.4,-129.09 56.75,-139.66 63.49,-137.76"/>
</a>
</g>
</g>
<!-- Node5 -->
<g id="Node000005" class="node">
<title>Node5</title>
<g id="a_Node000005"><a xlink:title=" ">
<polygon fill="#e0e0e0" stroke="#999999" points="273.96,-19 229.96,-19 229.96,0 273.96,0 273.96,-19"/>
<text text-anchor="middle" x="251.96" y="-7" font-family="Helvetica,sans-Serif" font-size="10.00">string</text>
</a>
</g>
</g>
<!-- Node2&#45;&gt;Node5 -->
<g id="edge4_Node000002_Node000005" class="edge">
<title>Node2&#45;&gt;Node5</title>
<g id="a_edge4_Node000002_Node000005"><a xlink:title=" ">
<path fill="none" stroke="#63b8ff" d="M48.79,-164.99C24.11,-153.77 -11.45,-132.79 3.96,-110 52.94,-37.59 164.18,-17.87 219.49,-12.5"/>
<polygon fill="#63b8ff" stroke="#63b8ff" points="220.12,-15.96 229.78,-11.61 219.51,-8.99 220.12,-15.96"/>
</a>
</g>
</g>
<!-- Node7 -->
<g id="Node000007" class="node">
<title>Node7</title>
<g id="a_Node000007"><a xlink:href="Entity_8hpp.html" target="_top" xlink:title="Defines the Entity class, which serves as a wrapper for ECS entities.">
<polygon fill="white" stroke="#666666" points="742.46,-239 677.46,-239 677.46,-220 742.46,-220 742.46,-239"/>
<text text-anchor="middle" x="709.96" y="-227" font-family="Helvetica,sans-Serif" font-size="10.00">Entity.hpp</text>
</a>
</g>
</g>
<!-- Node6&#45;&gt;Node7 -->
<g id="edge6_Node000006_Node000007" class="edge">
<title>Node6&#45;&gt;Node7</title>
<g id="a_edge6_Node000006_Node000007"><a xlink:title=" ">
<path fill="none" stroke="#63b8ff" d="M706.63,-274.75C707.15,-267.8 707.9,-257.85 708.56,-249.13"/>
<polygon fill="#63b8ff" stroke="#63b8ff" points="712.05,-249.32 709.32,-239.09 705.07,-248.8 712.05,-249.32"/>
</a>
</g>
</g>
<!-- Node23 -->
<g id="Node000023" class="node">
<title>Node23</title>
<g id="a_Node000023"><a xlink:href="TransformComponent_8hpp.html" target="_top" xlink:title="Defines the TransformComponent for ECS&#45;based spatial transformations.">
<polygon fill="white" stroke="#666666" points="1021.96,-239 815.96,-239 815.96,-220 1021.96,-220 1021.96,-239"/>
<text text-anchor="middle" x="918.96" y="-227" font-family="Helvetica,sans-Serif" font-size="10.00">components/TransformComponent.hpp</text>
</a>
</g>
</g>
<!-- Node6&#45;&gt;Node23 -->
<g id="edge23_Node000006_Node000023" class="edge">
<title>Node6&#45;&gt;Node23</title>
<g id="a_edge23_Node000006_Node000023"><a xlink:title=" ">
<path fill="none" stroke="#63b8ff" d="M740.19,-274.98C776.72,-265.89 834.74,-251.46 874.72,-241.51"/>
<polygon fill="#63b8ff" stroke="#63b8ff" points="875.62,-244.89 884.47,-239.08 873.93,-238.1 875.62,-244.89"/>
</a>
</g>
</g>
<!-- Node28 -->
<g id="Node000028" class="node">
<title>Node28</title>
<g id="a_Node000028"><a xlink:href="Mesh_8hpp.html" target="_top" xlink:title="Defines the Mesh class for managing 3D geometry.">
<polygon fill="white" stroke="#666666" points="431.46,-184 318.46,-184 318.46,-165 431.46,-165 431.46,-184"/>
<text text-anchor="middle" x="374.96" y="-172" font-family="Helvetica,sans-Serif" font-size="10.00">rendering/Mesh.hpp</text>
</a>
</g>
</g>
<!-- Node6&#45;&gt;Node28 -->
<g id="edge36_Node000006_Node000028" class="edge">
<title>Node6&#45;&gt;Node28</title>
<g id="a_edge36_Node000006_Node000028"><a xlink:title=" ">
<path fill="none" stroke="#63b8ff" d="M679.71,-274.94C620.81,-255.72 478.03,-209.13 410.93,-187.24"/>
<polygon fill="#63b8ff" stroke="#63b8ff" points="411.81,-183.84 401.22,-184.07 409.64,-190.5 411.81,-183.84"/>
</a>
</g>
</g>
<!-- Node8 -->
<g id="Node000008" class="node">
<title>Node8</title>
<g id="a_Node000008"><a xlink:href="Logger_8hpp.html" target="_top" xlink:title="Provides logging functionality.">
<polygon fill="white" stroke="#666666" points="1349.96,-184 1279.96,-184 1279.96,-165 1349.96,-165 1349.96,-184"/>
<text text-anchor="middle" x="1314.96" y="-172" font-family="Helvetica,sans-Serif" font-size="10.00">Logger.hpp</text>
</a>
</g>
</g>
<!-- Node7&#45;&gt;Node8 -->
<g id="edge7_Node000007_Node000008" class="edge">
<title>Node7&#45;&gt;Node8</title>
<g id="a_edge7_Node000007_Node000008"><a xlink:title=" ">
<path fill="none" stroke="#63b8ff" d="M742.49,-225.65C843.63,-216.79 1152.78,-189.71 1269.61,-179.47"/>
<polygon fill="#63b8ff" stroke="#63b8ff" points="1269.99,-182.95 1279.65,-178.59 1269.38,-175.98 1269.99,-182.95"/>
</a>
</g>
</g>
<!-- Node16 -->
<g id="Node000016" class="node">
<title>Node16</title>
<g id="a_Node000016"><a xlink:href="Registry_8hpp.html" target="_top" xlink:title="Defines the Registry class for managing ECS entities and components.">
<polygon fill="white" stroke="#666666" points="666.46,-184 589.46,-184 589.46,-165 666.46,-165 666.46,-184"/>
<text text-anchor="middle" x="627.96" y="-172" font-family="Helvetica,sans-Serif" font-size="10.00">Registry.hpp</text>
</a>
</g>
</g>
<!-- Node7&#45;&gt;Node16 -->
<g id="edge16_Node000007_Node000016" class="edge">
<title>Node7&#45;&gt;Node16</title>
<g id="a_edge16_Node000007_Node000016"><a xlink:title=" ">
<path fill="none" stroke="#63b8ff" d="M696.79,-219.98C684.19,-211.84 664.96,-199.41 650.03,-189.76"/>
<polygon fill="#63b8ff" stroke="#63b8ff" points="651.68,-186.66 641.38,-184.17 647.88,-192.54 651.68,-186.66"/>
</a>
</g>
</g>
<!-- Node8&#45;&gt;Node5 -->
<g id="edge15_Node000008_Node000005" class="edge">
<title>Node8&#45;&gt;Node5</title>
<g id="a_edge15_Node000008_Node000005"><a xlink:title=" ">
<path fill="none" stroke="#63b8ff" d="M1292.02,-164.96C1269.23,-156.35 1233.4,-142.44 1202.96,-129 1185.33,-121.21 1181.98,-116.87 1163.96,-110 1079.82,-77.93 1057.74,-70.1 968.96,-55 707.68,-10.57 386.12,-9.24 284.39,-10.07"/>
<polygon fill="#63b8ff" stroke="#63b8ff" points="284.13,-6.57 274.16,-10.17 284.2,-13.57 284.13,-6.57"/>
</a>
</g>
</g>
<!-- Node9 -->
<g id="Node000009" class="node">
<title>Node9</title>
<g id="a_Node000009"><a xlink:title=" ">
<polygon fill="#e0e0e0" stroke="#999999" points="1478.96,-129 1428.96,-129 1428.96,-110 1478.96,-110 1478.96,-129"/>
<text text-anchor="middle" x="1453.96" y="-117" font-family="Helvetica,sans-Serif" font-size="10.00">chrono</text>
</a>
</g>
</g>
<!-- Node8&#45;&gt;Node9 -->
<g id="edge8_Node000008_Node000009" class="edge">
<title>Node8&#45;&gt;Node9</title>
<g id="a_edge8_Node000008_Node000009"><a xlink:title=" ">
<path fill="none" stroke="#63b8ff" d="M1337.3,-164.98C1360.16,-156.27 1395.92,-142.63 1421.83,-132.75"/>
<polygon fill="#63b8ff" stroke="#63b8ff" points="1423.13,-136 1431.23,-129.17 1420.63,-129.46 1423.13,-136"/>
</a>
</g>
</g>
<!-- Node10 -->
<g id="Node000010" class="node">
<title>Node10</title>
<g id="a_Node000010"><a xlink:title=" ">
<polygon fill="#e0e0e0" stroke="#999999" points="1568.46,-129 1497.46,-129 1497.46,-110 1568.46,-110 1568.46,-129"/>
<text text-anchor="middle" x="1532.96" y="-117" font-family="Helvetica,sans-Serif" font-size="10.00">fmt/printf.h</text>
</a>
</g>
</g>
<!-- Node8&#45;&gt;Node10 -->
<g id="edge9_Node000008_Node000010" class="edge">
<title>Node8&#45;&gt;Node10</title>
<g id="a_edge9_Node000008_Node000010"><a xlink:title=" ">
<path fill="none" stroke="#63b8ff" d="M1349.99,-164.98C1387.46,-155.87 1447.02,-141.4 1487.94,-131.45"/>
<polygon fill="#63b8ff" stroke="#63b8ff" points="1488.77,-134.85 1497.66,-129.08 1487.12,-128.04 1488.77,-134.85"/>
</a>
</g>
</g>
<!-- Node11 -->
<g id="Node000011" class="node">
<title>Node11</title>
<g id="a_Node000011"><a xlink:title=" ">
<polygon fill="#e0e0e0" stroke="#999999" points="1266.46,-129 1211.46,-129 1211.46,-110 1266.46,-110 1266.46,-129"/>
<text text-anchor="middle" x="1238.96" y="-117" font-family="Helvetica,sans-Serif" font-size="10.00">fstream</text>
</a>
</g>
</g>
<!-- Node8&#45;&gt;Node11 -->
<g id="edge10_Node000008_Node000011" class="edge">
<title>Node8&#45;&gt;Node11</title>
<g id="a_edge10_Node000008_Node000011"><a xlink:title=" ">
<path fill="none" stroke="#63b8ff" d="M1302.75,-164.98C1291.19,-156.92 1273.59,-144.65 1259.8,-135.03"/>
<polygon fill="#63b8ff" stroke="#63b8ff" points="1261.6,-132.02 1251.4,-129.17 1257.6,-137.76 1261.6,-132.02"/>
</a>
</g>
</g>
<!-- Node12 -->
<g id="Node000012" class="node">
<title>Node12</title>
<g id="a_Node000012"><a xlink:title=" ">
<polygon fill="#e0e0e0" stroke="#999999" points="1154.96,-129 1098.96,-129 1098.96,-110 1154.96,-110 1154.96,-129"/>
<text text-anchor="middle" x="1126.96" y="-117" font-family="Helvetica,sans-Serif" font-size="10.00">iomanip</text>
</a>
</g>
</g>
<!-- Node8&#45;&gt;Node12 -->
<g id="edge11_Node000008_Node000012" class="edge">
<title>Node8&#45;&gt;Node12</title>
<g id="a_edge11_Node000008_Node000012"><a xlink:title=" ">
<path fill="none" stroke="#63b8ff" d="M1284.76,-164.98C1252.26,-155.82 1200.5,-141.23 1165.19,-131.28"/>
<polygon fill="#63b8ff" stroke="#63b8ff" points="1165.82,-127.82 1155.25,-128.47 1163.93,-134.56 1165.82,-127.82"/>
</a>
</g>
</g>
<!-- Node13 -->
<g id="Node000013" class="node">
<title>Node13</title>
<g id="a_Node000013"><a xlink:title=" ">
<polygon fill="#e0e0e0" stroke="#999999" points="1344.96,-129 1284.96,-129 1284.96,-110 1344.96,-110 1344.96,-129"/>
<text text-anchor="middle" x="1314.96" y="-117" font-family="Helvetica,sans-Serif" font-size="10.00">iostream</text>
</a>
</g>
</g>
<!-- Node8&#45;&gt;Node13 -->
<g id="edge12_Node000008_Node000013" class="edge">
<title>Node8&#45;&gt;Node13</title>
<g id="a_edge12_Node000008_Node000013"><a xlink:title=" ">
<path fill="none" stroke="#63b8ff" d="M1314.96,-164.75C1314.96,-157.8 1314.96,-147.85 1314.96,-139.13"/>
<polygon fill="#63b8ff" stroke="#63b8ff" points="1318.46,-139.09 1314.96,-129.09 1311.46,-139.09 1318.46,-139.09"/>
</a>
</g>
</g>
<!-- Node14 -->
<g id="Node000014" class="node">
<title>Node14</title>
<g id="a_Node000014"><a xlink:title=" ">
<polygon fill="#e0e0e0" stroke="#999999" points="1410.96,-129 1362.96,-129 1362.96,-110 1410.96,-110 1410.96,-129"/>
<text text-anchor="middle" x="1386.96" y="-117" font-family="Helvetica,sans-Serif" font-size="10.00">mutex</text>
</a>
</g>
</g>
<!-- Node8&#45;&gt;Node14 -->
<g id="edge13_Node000008_Node000014" class="edge">
<title>Node8&#45;&gt;Node14</title>
<g id="a_edge13_Node000008_Node000014"><a xlink:title=" ">
<path fill="none" stroke="#63b8ff" d="M1326.53,-164.98C1337.38,-157 1353.85,-144.88 1366.85,-135.31"/>
<polygon fill="#63b8ff" stroke="#63b8ff" points="1369.21,-137.92 1375.19,-129.17 1365.06,-132.28 1369.21,-137.92"/>
</a>
</g>
</g>
<!-- Node15 -->
<g id="Node000015" class="node">
<title>Node15</title>
<g id="a_Node000015"><a xlink:title=" ">
<polygon fill="#e0e0e0" stroke="#999999" points="950.96,-19 894.96,-19 894.96,0 950.96,0 950.96,-19"/>
<text text-anchor="middle" x="922.96" y="-7" font-family="Helvetica,sans-Serif" font-size="10.00">sstream</text>
</a>
</g>
</g>
<!-- Node8&#45;&gt;Node15 -->
<g id="edge14_Node000008_Node000015" class="edge">
<title>Node8&#45;&gt;Node15</title>
<g id="a_edge14_Node000008_Node000015"><a xlink:title=" ">
<path fill="none" stroke="#63b8ff" d="M1350.17,-172.93C1414.98,-171.05 1549.2,-163.04 1577.96,-129 1583.41,-122.55 1583.47,-116.4 1577.96,-110 1537.31,-62.71 1095.44,-24.13 961.33,-13.45"/>
<polygon fill="#63b8ff" stroke="#63b8ff" points="961.37,-9.94 951.13,-12.64 960.82,-16.92 961.37,-9.94"/>
</a>
</g>
</g>
<!-- Node17 -->
<g id="Node000017" class="node">
<title>Node17</title>
<g id="a_Node000017"><a xlink:title=" ">
<polygon fill="#e0e0e0" stroke="#999999" points="756.96,-129 692.96,-129 692.96,-110 756.96,-110 756.96,-129"/>
<text text-anchor="middle" x="724.96" y="-117" font-family="Helvetica,sans-Serif" font-size="10.00">algorithm</text>
</a>
</g>
</g>
<!-- Node16&#45;&gt;Node17 -->
<g id="edge17_Node000016_Node000017" class="edge">
<title>Node16&#45;&gt;Node17</title>
<g id="a_edge17_Node000016_Node000017"><a xlink:title=" ">
<path fill="none" stroke="#63b8ff" d="M643.55,-164.98C658.73,-156.69 682.06,-143.94 699.86,-134.22"/>
<polygon fill="#63b8ff" stroke="#63b8ff" points="702,-137.04 709.1,-129.17 698.64,-130.89 702,-137.04"/>
</a>
</g>
</g>
<!-- Node18 -->
<g id="Node000018" class="node">
<title>Node18</title>
<g id="a_Node000018"><a xlink:title=" ">
<polygon fill="#e0e0e0" stroke="#999999" points="818.96,-129 774.96,-129 774.96,-110 818.96,-110 818.96,-129"/>
<text text-anchor="middle" x="796.96" y="-117" font-family="Helvetica,sans-Serif" font-size="10.00">bitset</text>
</a>
</g>
</g>
<!-- Node16&#45;&gt;Node18 -->
<g id="edge18_Node000016_Node000018" class="edge">
<title>Node16&#45;&gt;Node18</title>
<g id="a_edge18_Node000016_Node000018"><a xlink:title=" ">
<path fill="none" stroke="#63b8ff" d="M655.12,-164.98C685.09,-155.58 733.29,-140.47 765.05,-130.51"/>
<polygon fill="#63b8ff" stroke="#63b8ff" points="766.24,-133.8 774.74,-127.47 764.15,-127.12 766.24,-133.8"/>
</a>
</g>
</g>
<!-- Node19 -->
<g id="Node000019" class="node">
<title>Node19</title>
<g id="a_Node000019"><a xlink:title=" ">
<polygon fill="#e0e0e0" stroke="#999999" points="479.96,-129 421.96,-129 421.96,-110 479.96,-110 479.96,-129"/>
<text text-anchor="middle" x="450.96" y="-117" font-family="Helvetica,sans-Serif" font-size="10.00">memory</text>
</a>
</g>
</g>
<!-- Node16&#45;&gt;Node19 -->
<g id="edge19_Node000016_Node000019" class="edge">
<title>Node16&#45;&gt;Node19</title>
<g id="a_edge19_Node000016_Node000019"><a xlink:title=" ">
<path fill="none" stroke="#63b8ff" d="M599.53,-164.98C569.68,-156.05 522.58,-141.94 489.43,-132.02"/>
<polygon fill="#63b8ff" stroke="#63b8ff" points="490.21,-128.6 479.63,-129.08 488.2,-135.3 490.21,-128.6"/>
</a>
</g>
</g>
<!-- Node20 -->
<g id="Node000020" class="node">
<title>Node20</title>
<g id="a_Node000020"><a xlink:title=" ">
<polygon fill="#e0e0e0" stroke="#999999" points="563.46,-129 498.46,-129 498.46,-110 563.46,-110 563.46,-129"/>
<text text-anchor="middle" x="530.96" y="-117" font-family="Helvetica,sans-Serif" font-size="10.00">stdexcept</text>
</a>
</g>
</g>
<!-- Node16&#45;&gt;Node20 -->
<g id="edge20_Node000016_Node000020" class="edge">
<title>Node16&#45;&gt;Node20</title>
<g id="a_edge20_Node000016_Node000020"><a xlink:title=" ">
<path fill="none" stroke="#63b8ff" d="M612.38,-164.98C597.2,-156.69 573.87,-143.94 556.07,-134.22"/>
<polygon fill="#63b8ff" stroke="#63b8ff" points="557.29,-130.89 546.83,-129.17 553.93,-137.04 557.29,-130.89"/>
</a>
</g>
</g>
<!-- Node21 -->
<g id="Node000021" class="node">
<title>Node21</title>
<g id="a_Node000021"><a xlink:title=" ">
<polygon fill="#e0e0e0" stroke="#999999" points="674.46,-129 581.46,-129 581.46,-110 674.46,-110 674.46,-129"/>
<text text-anchor="middle" x="627.96" y="-117" font-family="Helvetica,sans-Serif" font-size="10.00">unordered_map</text>
</a>
</g>
</g>
<!-- Node16&#45;&gt;Node21 -->
<g id="edge21_Node000016_Node000021" class="edge">
<title>Node16&#45;&gt;Node21</title>
<g id="a_edge21_Node000016_Node000021"><a xlink:title=" ">
<path fill="none" stroke="#63b8ff" d="M627.96,-164.75C627.96,-157.8 627.96,-147.85 627.96,-139.13"/>
<polygon fill="#63b8ff" stroke="#63b8ff" points="631.46,-139.09 627.96,-129.09 624.46,-139.09 631.46,-139.09"/>
</a>
</g>
</g>
<!-- Node16&#45;&gt;Node22 -->
<g id="edge22_Node000016_Node000022" class="edge">
<title>Node16&#45;&gt;Node22</title>
<g id="a_edge22_Node000016_Node000022"><a xlink:title=" ">
<path fill="none" stroke="#63b8ff" d="M589.39,-166.1C548.29,-158.08 481.09,-144.6 413.67,-129.07"/>
<polygon fill="#63b8ff" stroke="#63b8ff" points="414.26,-125.61 403.72,-126.77 412.68,-132.43 414.26,-125.61"/>
</a>
</g>
</g>
<!-- Node24 -->
<g id="Node000024" class="node">
<title>Node24</title>
<g id="a_Node000024"><a xlink:href="Matrix4_8hpp.html" target="_top" xlink:title="Defines the Matrix4 class for 3D transformation operations.">
<polygon fill="white" stroke="#666666" points="894.96,-184 790.96,-184 790.96,-165 894.96,-165 894.96,-184"/>
<text text-anchor="middle" x="842.96" y="-172" font-family="Helvetica,sans-Serif" font-size="10.00">math/Matrix4.hpp</text>
</a>
</g>
</g>
<!-- Node23&#45;&gt;Node24 -->
<g id="edge24_Node000023_Node000024" class="edge">
<title>Node23&#45;&gt;Node24</title>
<g id="a_edge24_Node000023_Node000024"><a xlink:title=" ">
<path fill="none" stroke="#63b8ff" d="M906.75,-219.98C895.19,-211.92 877.59,-199.65 863.8,-190.03"/>
<polygon fill="#63b8ff" stroke="#63b8ff" points="865.6,-187.02 855.4,-184.17 861.6,-192.76 865.6,-187.02"/>
</a>
</g>
</g>
<!-- Node25 -->
<g id="Node000025" class="node">
<title>Node25</title>
<g id="a_Node000025"><a xlink:href="Quaternion_8hpp.html" target="_top" xlink:title="Defines the Quaternion class for representing 3D rotations.">
<polygon fill="white" stroke="#666666" points="1042.96,-129 950.96,-129 950.96,-110 1042.96,-110 1042.96,-129"/>
<text text-anchor="middle" x="996.96" y="-117" font-family="Helvetica,sans-Serif" font-size="10.00">Quaternion.hpp</text>
</a>
</g>
</g>
<!-- Node23&#45;&gt;Node25 -->
<g id="edge34_Node000023_Node000025" class="edge">
<title>Node23&#45;&gt;Node25</title>
<g id="a_edge34_Node000023_Node000025"><a xlink:title=" ">
<path fill="none" stroke="#63b8ff" d="M925.35,-219.66C938.32,-201.69 967.97,-160.64 984.77,-137.38"/>
<polygon fill="#63b8ff" stroke="#63b8ff" points="987.69,-139.31 990.71,-129.16 982.02,-135.22 987.69,-139.31"/>
</a>
</g>
</g>
<!-- Node26 -->
<g id="Node000026" class="node">
<title>Node26</title>
<g id="a_Node000026"><a xlink:href="Vector3_8hpp.html" target="_top" xlink:title="Defines the Vector3 class.">
<polygon fill="white" stroke="#666666" points="959.96,-74 885.96,-74 885.96,-55 959.96,-55 959.96,-74"/>
<text text-anchor="middle" x="922.96" y="-62" font-family="Helvetica,sans-Serif" font-size="10.00">Vector3.hpp</text>
</a>
</g>
</g>
<!-- Node23&#45;&gt;Node26 -->
<g id="edge35_Node000023_Node000026" class="edge">
<title>Node23&#45;&gt;Node26</title>
<g id="a_edge35_Node000023_Node000026"><a xlink:title=" ">
<path fill="none" stroke="#63b8ff" d="M919.18,-219.74C919.8,-194.31 921.63,-120.08 922.49,-84.69"/>
<polygon fill="#63b8ff" stroke="#63b8ff" points="926,-84.39 922.75,-74.31 919,-84.22 926,-84.39"/>
</a>
</g>
</g>
<!-- Node24&#45;&gt;Node12 -->
<g id="edge32_Node000024_Node000012" class="edge">
<title>Node24&#45;&gt;Node12</title>
<g id="a_edge32_Node000024_Node000012"><a xlink:title=" ">
<path fill="none" stroke="#63b8ff" d="M888.59,-164.98C944.04,-154.64 1036.61,-137.36 1088.57,-127.66"/>
<polygon fill="#63b8ff" stroke="#63b8ff" points="1089.52,-131.05 1098.71,-125.77 1088.24,-124.17 1089.52,-131.05"/>
</a>
</g>
</g>
<!-- Node24&#45;&gt;Node15 -->
<g id="edge33_Node000024_Node000015" class="edge">
<title>Node24&#45;&gt;Node15</title>
<g id="a_edge33_Node000024_Node000015"><a xlink:title=" ">
<path fill="none" stroke="#63b8ff" d="M843.89,-164.85C846.41,-144.42 854.71,-92.07 876.96,-55 883.71,-43.77 894,-33.44 903.14,-25.57"/>
<polygon fill="#63b8ff" stroke="#63b8ff" points="905.55,-28.12 911.07,-19.08 901.12,-22.7 905.55,-28.12"/>
</a>
</g>
</g>
<!-- Node24&#45;&gt;Node25 -->
<g id="edge25_Node000024_Node000025" class="edge">
<title>Node24&#45;&gt;Node25</title>
<g id="a_edge25_Node000024_Node000025"><a xlink:title=" ">
<path fill="none" stroke="#63b8ff" d="M867.71,-164.98C893.34,-156.16 933.6,-142.31 962.37,-132.41"/>
<polygon fill="#63b8ff" stroke="#63b8ff" points="963.71,-135.65 972.03,-129.08 961.43,-129.03 963.71,-135.65"/>
</a>
</g>
</g>
<!-- Node24&#45;&gt;Node26 -->
<g id="edge31_Node000024_Node000026" class="edge">
<title>Node24&#45;&gt;Node26</title>
<g id="a_edge31_Node000024_Node000026"><a xlink:title=" ">
<path fill="none" stroke="#63b8ff" d="M849.51,-164.66C862.82,-146.69 893.23,-105.64 910.46,-82.38"/>
<polygon fill="#63b8ff" stroke="#63b8ff" points="913.41,-84.28 916.55,-74.16 907.79,-80.11 913.41,-84.28"/>
</a>
</g>
</g>
<!-- Node25&#45;&gt;Node26 -->
<g id="edge26_Node000025_Node000026" class="edge">
<title>Node25&#45;&gt;Node26</title>
<g id="a_edge26_Node000025_Node000026"><a xlink:title=" ">
<path fill="none" stroke="#63b8ff" d="M985.08,-109.98C973.81,-101.92 956.68,-89.65 943.26,-80.03"/>
<polygon fill="#63b8ff" stroke="#63b8ff" points="945.24,-77.15 935.07,-74.17 941.16,-82.84 945.24,-77.15"/>
</a>
</g>
</g>
<!-- Node27 -->
<g id="Node000027" class="node">
<title>Node27</title>
<g id="a_Node000027"><a xlink:title=" ">
<polygon fill="#e0e0e0" stroke="#999999" points="1130.46,-19 1083.46,-19 1083.46,0 1130.46,0 1130.46,-19"/>
<text text-anchor="middle" x="1106.96" y="-7" font-family="Helvetica,sans-Serif" font-size="10.00">cmath</text>
</a>
</g>
</g>
<!-- Node25&#45;&gt;Node27 -->
<g id="edge30_Node000025_Node000027" class="edge">
<title>Node25&#45;&gt;Node27</title>
<g id="a_edge30_Node000025_Node000027"><a xlink:title=" ">
<path fill="none" stroke="#63b8ff" d="M1005.97,-109.66C1024.59,-91.38 1067.57,-49.18 1091.01,-26.17"/>
<polygon fill="#63b8ff" stroke="#63b8ff" points="1093.46,-28.66 1098.15,-19.16 1088.56,-23.67 1093.46,-28.66"/>
</a>
</g>
</g>
<!-- Node26&#45;&gt;Node5 -->
<g id="edge29_Node000026_Node000005" class="edge">
<title>Node26&#45;&gt;Node5</title>
<g id="a_edge29_Node000026_Node000005"><a xlink:title=" ">
<path fill="none" stroke="#63b8ff" d="M885.93,-60.57C766.96,-51.18 395.75,-21.86 284.07,-13.04"/>
<polygon fill="#63b8ff" stroke="#63b8ff" points="284.33,-9.55 274.09,-12.25 283.78,-16.52 284.33,-9.55"/>
</a>
</g>
</g>
<!-- Node26&#45;&gt;Node15 -->
<g id="edge28_Node000026_Node000015" class="edge">
<title>Node26&#45;&gt;Node15</title>
<g id="a_edge28_Node000026_Node000015"><a xlink:title=" ">
<path fill="none" stroke="#63b8ff" d="M922.96,-54.75C922.96,-47.8 922.96,-37.85 922.96,-29.13"/>
<polygon fill="#63b8ff" stroke="#63b8ff" points="926.46,-29.09 922.96,-19.09 919.46,-29.09 926.46,-29.09"/>
</a>
</g>
</g>
<!-- Node26&#45;&gt;Node27 -->
<g id="edge27_Node000026_Node000027" class="edge">
<title>Node26&#45;&gt;Node27</title>
<g id="a_edge27_Node000026_Node000027"><a xlink:title=" ">
<path fill="none" stroke="#63b8ff" d="M952.53,-54.98C985.63,-45.45 1039.15,-30.03 1073.69,-20.09"/>
<polygon fill="#63b8ff" stroke="#63b8ff" points="1074.68,-23.44 1083.32,-17.31 1072.75,-16.71 1074.68,-23.44"/>
</a>
</g>
</g>
<!-- Node28&#45;&gt;Node3 -->
<g id="edge38_Node000028_Node000003" class="edge">
<title>Node28&#45;&gt;Node3</title>
<g id="a_edge38_Node000028_Node000003"><a xlink:title=" ">
<path fill="none" stroke="#63b8ff" d="M338.81,-164.98C299.83,-155.8 237.68,-141.16 195.41,-131.21"/>
<polygon fill="#63b8ff" stroke="#63b8ff" points="196.19,-127.79 185.65,-128.91 194.58,-134.61 196.19,-127.79"/>
</a>
</g>
</g>
<!-- Node28&#45;&gt;Node5 -->
<g id="edge39_Node000028_Node000005" class="edge">
<title>Node28&#45;&gt;Node5</title>
<g id="a_edge39_Node000028_Node000005"><a xlink:title=" ">
<path fill="none" stroke="#63b8ff" d="M367.42,-164.77C359.82,-155.9 347.83,-141.69 337.96,-129 310.54,-93.72 280.23,-51.02 263.93,-27.72"/>
<polygon fill="#63b8ff" stroke="#63b8ff" points="266.62,-25.47 258.03,-19.27 260.88,-29.47 266.62,-25.47"/>
</a>
</g>
</g>
<!-- Node28&#45;&gt;Node22 -->
<g id="edge40_Node000028_Node000022" class="edge">
<title>Node28&#45;&gt;Node22</title>
<g id="a_edge40_Node000028_Node000022"><a xlink:title=" ">
<path fill="none" stroke="#63b8ff" d="M375.79,-164.75C376.45,-157.8 377.38,-147.85 378.21,-139.13"/>
<polygon fill="#63b8ff" stroke="#63b8ff" points="381.7,-139.37 379.15,-129.09 374.73,-138.72 381.7,-139.37"/>
</a>
</g>
</g>
<!-- Node28&#45;&gt;Node26 -->
<g id="edge37_Node000028_Node000026" class="edge">
<title>Node28&#45;&gt;Node26</title>
<g id="a_edge37_Node000028_Node000026"><a xlink:title=" ">
<path fill="none" stroke="#63b8ff" d="M365.56,-164.68C352.5,-151.4 332.07,-126.09 346.96,-110 382.58,-71.53 744.25,-66.21 875.61,-65.56"/>
<polygon fill="#63b8ff" stroke="#63b8ff" points="875.78,-69.06 885.77,-65.52 875.75,-62.06 875.78,-69.06"/>
</a>
</g>
</g>
<!-- Node29&#45;&gt;Node6 -->
<g id="edge42_Node000029_Node000006" class="edge">
<title>Node29&#45;&gt;Node6</title>
<g id="a_edge42_Node000029_Node000006"><a xlink:title=" ">
<path fill="none" stroke="#63b8ff" d="M778.99,-329.98C765.5,-321.77 744.83,-309.18 728.92,-299.49"/>
<polygon fill="#63b8ff" stroke="#63b8ff" points="730.56,-296.38 720.2,-294.17 726.92,-302.36 730.56,-296.38"/>
</a>
</g>
</g>
<!-- Node29&#45;&gt;Node26 -->
<g id="edge43_Node000029_Node000026" class="edge">
<title>Node29&#45;&gt;Node26</title>
<g id="a_edge43_Node000029_Node000026"><a xlink:title=" ">
<path fill="none" stroke="#63b8ff" d="M855.72,-336.65C1044.94,-330.25 1596.96,-305.19 1596.96,-230.5 1596.96,-230.5 1596.96,-230.5 1596.96,-173.5 1596.96,-144.04 1600.98,-128.38 1577.96,-110 1530.78,-72.31 1112.76,-66.53 970.29,-65.65"/>
<polygon fill="#63b8ff" stroke="#63b8ff" points="970.14,-62.15 960.12,-65.59 970.1,-69.15 970.14,-62.15"/>
</a>
</g>
</g>
<!-- Node30&#45;&gt;Node6 -->
<g id="edge47_Node000030_Node000006" class="edge">
<title>Node30&#45;&gt;Node6</title>
<g id="a_edge47_Node000030_Node000006"><a xlink:title=" ">
<path fill="none" stroke="#63b8ff" d="M626.23,-329.98C641.1,-321.69 663.95,-308.94 681.38,-299.22"/>
<polygon fill="#63b8ff" stroke="#63b8ff" points="683.4,-302.1 690.42,-294.17 679.99,-295.99 683.4,-302.1"/>
</a>
</g>
</g>
<!-- Node30&#45;&gt;Node24 -->
<g id="edge45_Node000030_Node000024" class="edge">
<title>Node30&#45;&gt;Node24</title>
<g id="a_edge45_Node000030_Node000024"><a xlink:title=" ">
<path fill="none" stroke="#63b8ff" d="M612.62,-329.79C617.26,-307.8 632.54,-249.63 668.96,-220 700.22,-194.57 744.27,-183.47 780.22,-178.72"/>
<polygon fill="#63b8ff" stroke="#63b8ff" points="781.09,-182.14 790.61,-177.49 780.27,-175.19 781.09,-182.14"/>
</a>
</g>
</g>
<!-- Node30&#45;&gt;Node26 -->
<g id="edge46_Node000030_Node000026" class="edge">
<title>Node30&#45;&gt;Node26</title>
<g id="a_edge46_Node000030_Node000026"><a xlink:title=" ">
<path fill="none" stroke="#63b8ff" d="M673.48,-330.31C799.25,-312.97 1070.96,-270.85 1070.96,-230.5 1070.96,-230.5 1070.96,-230.5 1070.96,-173.5 1070.96,-144.04 1072.36,-131.26 1051.96,-110 1040.19,-97.72 1001.01,-85.21 968.89,-76.6"/>
<polygon fill="#63b8ff" stroke="#63b8ff" points="969.75,-73.2 959.19,-74.05 967.98,-79.97 969.75,-73.2"/>
</a>
</g>
</g>
<!-- Node31&#45;&gt;Node3 -->
<g id="edge51_Node000031_Node000003" class="edge">
<title>Node31&#45;&gt;Node3</title>
<g id="a_edge51_Node000031_Node000003"><a xlink:title=" ">
<path fill="none" stroke="#63b8ff" d="M265.73,-219.95C246.59,-212.42 219.86,-200.14 199.96,-184 183.85,-170.93 169.67,-151.77 160.56,-137.92"/>
<polygon fill="#63b8ff" stroke="#63b8ff" points="163.42,-135.89 155.11,-129.32 157.51,-139.64 163.42,-135.89"/>
</a>
</g>
</g>
<!-- Node31&#45;&gt;Node5 -->
<g id="edge52_Node000031_Node000005" class="edge">
<title>Node31&#45;&gt;Node5</title>
<g id="a_edge52_Node000031_Node000005"><a xlink:title=" ">
<path fill="none" stroke="#63b8ff" d="M288.48,-219.95C282.88,-187.88 263.07,-74.2 255.21,-29.12"/>
<polygon fill="#63b8ff" stroke="#63b8ff" points="258.65,-28.47 253.49,-19.22 251.75,-29.68 258.65,-28.47"/>
</a>
</g>
</g>
<!-- Node31&#45;&gt;Node24 -->
<g id="edge49_Node000031_Node000024" class="edge">
<title>Node31&#45;&gt;Node24</title>
<g id="a_edge49_Node000031_Node000024"><a xlink:title=" ">
<path fill="none" stroke="#63b8ff" d="M350.2,-222.73C455.96,-212.59 673.96,-191.7 780.96,-181.44"/>
<polygon fill="#63b8ff" stroke="#63b8ff" points="781.34,-184.92 790.96,-180.48 780.67,-177.95 781.34,-184.92"/>
</a>
</g>
</g>
<!-- Node31&#45;&gt;Node26 -->
<g id="edge50_Node000031_Node000026" class="edge">
<title>Node31&#45;&gt;Node26</title>
<g id="a_edge50_Node000031_Node000026"><a xlink:title=" ">
<path fill="none" stroke="#63b8ff" d="M290.35,-219.91C291.88,-197.13 299.55,-135.21 337.96,-110 382.48,-80.79 744.52,-69.61 875.71,-66.49"/>
<polygon fill="#63b8ff" stroke="#63b8ff" points="875.94,-69.99 885.85,-66.26 875.78,-62.99 875.94,-69.99"/>
</a>
</g>
</g>
</g>
</svg>
