<?xml version="1.0" encoding="UTF-8" standalone="no"?>
<!DOCTYPE svg PUBLIC "-//W3C//DTD SVG 1.1//EN"
 "http://www.w3.org/Graphics/SVG/1.1/DTD/svg11.dtd">
<!-- Generated by graphviz version 2.43.0 (0)
 -->
<!-- Title: include/rendering/Renderer.hpp Pages: 1 -->
<svg width="188pt" height="137pt"
 viewBox="0.00 0.00 188.00 137.00" xmlns="http://www.w3.org/2000/svg" xmlns:xlink="http://www.w3.org/1999/xlink">
<g id="graph0" class="graph" transform="scale(1 1) rotate(0) translate(4 133)">
<title>include/rendering/Renderer.hpp</title>
<!-- Node1 -->
<g id="Node000001" class="node">
<title>Node1</title>
<g id="a_Node000001"><a xlink:title="Manages the rendering pipeline and object submission.">
<polygon fill="#999999" stroke="#666666" points="180,-129 11,-129 11,-110 180,-110 180,-129"/>
<text text-anchor="middle" x="95.5" y="-117" font-family="Helvetica,sans-Serif" font-size="10.00">include/rendering/Renderer.hpp</text>
</a>
</g>
</g>
<!-- Node2 -->
<g id="Node000002" class="node">
<title>Node2</title>
<g id="a_Node000002"><a xlink:href="Engine_8hpp.html" target="_top" xlink:title="Defines the core Engine class responsible for running simulation.">
<polygon fill="white" stroke="#666666" points="109,-74 0,-74 0,-55 109,-55 109,-74"/>
<text text-anchor="middle" x="54.5" y="-62" font-family="Helvetica,sans-Serif" font-size="10.00">include/Engine.hpp</text>
</a>
</g>
</g>
<!-- Node1&#45;&gt;Node2 -->
<g id="edge1_Node000001_Node000002" class="edge">
<title>Node1&#45;&gt;Node2</title>
<g id="a_edge1_Node000001_Node000002"><a xlink:title=" ">
<path fill="none" stroke="#63b8ff" d="M82.48,-101.67C75.38,-92.5 66.9,-81.52 61.14,-74.09"/>
<polygon fill="#63b8ff" stroke="#63b8ff" points="79.84,-103.98 88.73,-109.75 85.38,-99.7 79.84,-103.98"/>
</a>
</g>
</g>
<!-- Node3 -->
<g id="Node000003" class="node">
<title>Node3</title>
<g id="a_Node000003"><a xlink:href="FrameEngine_8hpp_source.html" target="_top" xlink:title=" ">
<polygon fill="white" stroke="#666666" points="165.5,-19 25.5,-19 25.5,0 165.5,0 165.5,-19"/>
<text text-anchor="middle" x="95.5" y="-7" font-family="Helvetica,sans-Serif" font-size="10.00">include/FrameEngine.hpp</text>
</a>
</g>
</g>
<!-- Node1&#45;&gt;Node3 -->
<g id="edge3_Node000001_Node000003" class="edge">
<title>Node1&#45;&gt;Node3</title>
<g id="a_edge3_Node000001_Node000003"><a xlink:title=" ">
<path fill="none" stroke="#63b8ff" d="M106.92,-101.15C111.48,-93.22 116.19,-83.49 118.5,-74 123.38,-53.95 110.68,-31.45 102.26,-19.35"/>
<polygon fill="#63b8ff" stroke="#63b8ff" points="103.86,-99.45 101.6,-109.8 109.82,-103.11 103.86,-99.45"/>
</a>
</g>
</g>
<!-- Node2&#45;&gt;Node3 -->
<g id="edge2_Node000002_Node000003" class="edge">
<title>Node2&#45;&gt;Node3</title>
<g id="a_edge2_Node000002_Node000003"><a xlink:title=" ">
<path fill="none" stroke="#63b8ff" d="M67.52,-46.67C74.62,-37.5 83.1,-26.52 88.86,-19.09"/>
<polygon fill="#63b8ff" stroke="#63b8ff" points="64.62,-44.7 61.27,-54.75 70.16,-48.98 64.62,-44.7"/>
</a>
</g>
</g>
</g>
</svg>
