<?xml version="1.0" encoding="UTF-8" standalone="no"?>
<!DOCTYPE svg PUBLIC "-//W3C//DTD SVG 1.1//EN"
 "http://www.w3.org/Graphics/SVG/1.1/DTD/svg11.dtd">
<!-- Generated by graphviz version 2.43.0 (0)
 -->
<!-- Title: include/rendering/Renderer.hpp Pages: 1 -->
<svg width="1668pt" height="412pt"
 viewBox="0.00 0.00 1667.50 412.00" xmlns="http://www.w3.org/2000/svg" xmlns:xlink="http://www.w3.org/1999/xlink">
<g id="graph0" class="graph" transform="scale(1 1) rotate(0) translate(4 408)">
<title>include/rendering/Renderer.hpp</title>
<!-- Node1 -->
<g id="Node000001" class="node">
<title>Node1</title>
<g id="a_Node000001"><a xlink:title="Manages the rendering pipeline and object submission.">
<polygon fill="#999999" stroke="#666666" points="845,-404 676,-404 676,-385 845,-385 845,-404"/>
<text text-anchor="middle" x="760.5" y="-392" font-family="Helvetica,sans-Serif" font-size="10.00">include/rendering/Renderer.hpp</text>
</a>
</g>
</g>
<!-- Node2 -->
<g id="Node000002" class="node">
<title>Node2</title>
<g id="a_Node000002"><a xlink:href="Registry_8hpp.html" target="_top" xlink:title="Defines the Registry class for managing ECS entities and components.">
<polygon fill="white" stroke="#666666" points="512,-184 435,-184 435,-165 512,-165 512,-184"/>
<text text-anchor="middle" x="473.5" y="-172" font-family="Helvetica,sans-Serif" font-size="10.00">Registry.hpp</text>
</a>
</g>
</g>
<!-- Node1&#45;&gt;Node2 -->
<g id="edge1_Node000001_Node000002" class="edge">
<title>Node1&#45;&gt;Node2</title>
<g id="a_edge1_Node000001_Node000002"><a xlink:title=" ">
<path fill="none" stroke="#63b8ff" d="M675.62,-390.45C637.74,-385.31 594.53,-373.81 562.5,-349 510.82,-308.97 486.46,-230.61 477.62,-194.53"/>
<polygon fill="#63b8ff" stroke="#63b8ff" points="480.94,-193.35 475.28,-184.4 474.12,-194.93 480.94,-193.35"/>
</a>
</g>
</g>
<!-- Node8 -->
<g id="Node000008" class="node">
<title>Node8</title>
<g id="a_Node000008"><a xlink:title=" ">
<polygon fill="#e0e0e0" stroke="#999999" points="602,-129 555,-129 555,-110 602,-110 602,-129"/>
<text text-anchor="middle" x="578.5" y="-117" font-family="Helvetica,sans-Serif" font-size="10.00">vector</text>
</a>
</g>
</g>
<!-- Node1&#45;&gt;Node8 -->
<g id="edge54_Node000001_Node000008" class="edge">
<title>Node1&#45;&gt;Node8</title>
<g id="a_edge54_Node000001_Node000008"><a xlink:title=" ">
<path fill="none" stroke="#63b8ff" d="M704.79,-384.89C650.64,-372.98 576.5,-345.69 576.5,-285.5 576.5,-285.5 576.5,-285.5 576.5,-228.5 576.5,-197.18 577.35,-160.77 577.94,-139.23"/>
<polygon fill="#63b8ff" stroke="#63b8ff" points="581.44,-139.27 578.23,-129.18 574.45,-139.07 581.44,-139.27"/>
</a>
</g>
</g>
<!-- Node9 -->
<g id="Node000009" class="node">
<title>Node9</title>
<g id="a_Node000009"><a xlink:href="Window_8hpp.html" target="_top" xlink:title="Provides a window for OpenGL rendering using GLFW.">
<polygon fill="white" stroke="#666666" points="266.5,-184 190.5,-184 190.5,-165 266.5,-165 266.5,-184"/>
<text text-anchor="middle" x="228.5" y="-172" font-family="Helvetica,sans-Serif" font-size="10.00">Window.hpp</text>
</a>
</g>
</g>
<!-- Node1&#45;&gt;Node9 -->
<g id="edge8_Node000001_Node000009" class="edge">
<title>Node1&#45;&gt;Node9</title>
<g id="a_edge8_Node000001_Node000009"><a xlink:title=" ">
<path fill="none" stroke="#63b8ff" d="M689.21,-384.99C644.89,-378.3 587.26,-367.02 538.5,-349 421.92,-305.91 296.79,-223.15 248.81,-189.88"/>
<polygon fill="#63b8ff" stroke="#63b8ff" points="250.72,-186.94 240.52,-184.08 246.71,-192.68 250.72,-186.94"/>
</a>
</g>
</g>
<!-- Node13 -->
<g id="Node000013" class="node">
<title>Node13</title>
<g id="a_Node000013"><a xlink:href="Object_8hpp.html" target="_top" xlink:title="Defines the Object class, a special ECS entity wrapper.">
<polygon fill="white" stroke="#666666" points="922,-294 815,-294 815,-275 922,-275 922,-294"/>
<text text-anchor="middle" x="868.5" y="-282" font-family="Helvetica,sans-Serif" font-size="10.00">objects/Object.hpp</text>
</a>
</g>
</g>
<!-- Node1&#45;&gt;Node13 -->
<g id="edge12_Node000001_Node000013" class="edge">
<title>Node1&#45;&gt;Node13</title>
<g id="a_edge12_Node000001_Node000013"><a xlink:title=" ">
<path fill="none" stroke="#63b8ff" d="M768.1,-384.61C778.93,-372.08 799.59,-348.67 818.5,-330 828.73,-319.9 840.76,-309.16 850.45,-300.77"/>
<polygon fill="#63b8ff" stroke="#63b8ff" points="852.95,-303.24 858.26,-294.07 848.39,-297.92 852.95,-303.24"/>
</a>
</g>
</g>
<!-- Node29 -->
<g id="Node000029" class="node">
<title>Node29</title>
<g id="a_Node000029"><a xlink:href="PointLight_8hpp_source.html" target="_top" xlink:title=" ">
<polygon fill="white" stroke="#666666" points="952,-349 827,-349 827,-330 952,-330 952,-349"/>
<text text-anchor="middle" x="889.5" y="-337" font-family="Helvetica,sans-Serif" font-size="10.00">objects/PointLight.hpp</text>
</a>
</g>
</g>
<!-- Node1&#45;&gt;Node29 -->
<g id="edge42_Node000001_Node000029" class="edge">
<title>Node1&#45;&gt;Node29</title>
<g id="a_edge42_Node000001_Node000029"><a xlink:title=" ">
<path fill="none" stroke="#63b8ff" d="M781.23,-384.98C802.26,-376.34 835.05,-362.87 859.04,-353.02"/>
<polygon fill="#63b8ff" stroke="#63b8ff" points="860.48,-356.21 868.4,-349.17 857.82,-349.73 860.48,-356.21"/>
</a>
</g>
</g>
<!-- Node30 -->
<g id="Node000030" class="node">
<title>Node30</title>
<g id="a_Node000030"><a xlink:href="Camera_8hpp.html" target="_top" xlink:title="Defines the Camera class for view and projection.">
<polygon fill="white" stroke="#666666" points="1388,-349 1263,-349 1263,-330 1388,-330 1388,-349"/>
<text text-anchor="middle" x="1325.5" y="-337" font-family="Helvetica,sans-Serif" font-size="10.00">rendering/Camera.hpp</text>
</a>
</g>
</g>
<!-- Node1&#45;&gt;Node30 -->
<g id="edge45_Node000001_Node000030" class="edge">
<title>Node1&#45;&gt;Node30</title>
<g id="a_edge45_Node000001_Node000030"><a xlink:title=" ">
<path fill="none" stroke="#63b8ff" d="M845.09,-385.57C955.76,-375.18 1147.89,-357.16 1252.51,-347.35"/>
<polygon fill="#63b8ff" stroke="#63b8ff" points="1253.03,-350.81 1262.66,-346.39 1252.38,-343.84 1253.03,-350.81"/>
</a>
</g>
</g>
<!-- Node31 -->
<g id="Node000031" class="node">
<title>Node31</title>
<g id="a_Node000031"><a xlink:href="Shader_8hpp.html" target="_top" xlink:title="Manages OpenGL shaders.">
<polygon fill="white" stroke="#666666" points="956.5,-239 836.5,-239 836.5,-220 956.5,-220 956.5,-239"/>
<text text-anchor="middle" x="896.5" y="-227" font-family="Helvetica,sans-Serif" font-size="10.00">rendering/Shader.hpp</text>
</a>
</g>
</g>
<!-- Node1&#45;&gt;Node31 -->
<g id="edge49_Node000001_Node000031" class="edge">
<title>Node1&#45;&gt;Node31</title>
<g id="a_edge49_Node000001_Node000031"><a xlink:title=" ">
<path fill="none" stroke="#63b8ff" d="M761.66,-384.93C764.94,-363.74 776.11,-308.22 806.5,-275 820,-260.24 839.48,-249.77 856.87,-242.71"/>
<polygon fill="#63b8ff" stroke="#63b8ff" points="858.16,-245.97 866.26,-239.14 855.67,-239.43 858.16,-245.97"/>
</a>
</g>
</g>
<!-- Node3 -->
<g id="Node000003" class="node">
<title>Node3</title>
<g id="a_Node000003"><a xlink:title=" ">
<polygon fill="#e0e0e0" stroke="#999999" points="398.5,-129 334.5,-129 334.5,-110 398.5,-110 398.5,-129"/>
<text text-anchor="middle" x="366.5" y="-117" font-family="Helvetica,sans-Serif" font-size="10.00">algorithm</text>
</a>
</g>
</g>
<!-- Node2&#45;&gt;Node3 -->
<g id="edge2_Node000002_Node000003" class="edge">
<title>Node2&#45;&gt;Node3</title>
<g id="a_edge2_Node000002_Node000003"><a xlink:title=" ">
<path fill="none" stroke="#63b8ff" d="M456.31,-164.98C439.25,-156.54 412.87,-143.47 393.1,-133.68"/>
<polygon fill="#63b8ff" stroke="#63b8ff" points="394.52,-130.47 384,-129.17 391.41,-136.75 394.52,-130.47"/>
</a>
</g>
</g>
<!-- Node4 -->
<g id="Node000004" class="node">
<title>Node4</title>
<g id="a_Node000004"><a xlink:title=" ">
<polygon fill="#e0e0e0" stroke="#999999" points="460.5,-129 416.5,-129 416.5,-110 460.5,-110 460.5,-129"/>
<text text-anchor="middle" x="438.5" y="-117" font-family="Helvetica,sans-Serif" font-size="10.00">bitset</text>
</a>
</g>
</g>
<!-- Node2&#45;&gt;Node4 -->
<g id="edge3_Node000002_Node000004" class="edge">
<title>Node2&#45;&gt;Node4</title>
<g id="a_edge3_Node000002_Node000004"><a xlink:title=" ">
<path fill="none" stroke="#63b8ff" d="M467.72,-164.75C462.88,-157.42 455.82,-146.73 449.86,-137.7"/>
<polygon fill="#63b8ff" stroke="#63b8ff" points="452.6,-135.5 444.17,-129.09 446.76,-139.36 452.6,-135.5"/>
</a>
</g>
</g>
<!-- Node5 -->
<g id="Node000005" class="node">
<title>Node5</title>
<g id="a_Node000005"><a xlink:title=" ">
<polygon fill="#e0e0e0" stroke="#999999" points="536.5,-129 478.5,-129 478.5,-110 536.5,-110 536.5,-129"/>
<text text-anchor="middle" x="507.5" y="-117" font-family="Helvetica,sans-Serif" font-size="10.00">memory</text>
</a>
</g>
</g>
<!-- Node2&#45;&gt;Node5 -->
<g id="edge4_Node000002_Node000005" class="edge">
<title>Node2&#45;&gt;Node5</title>
<g id="a_edge4_Node000002_Node000005"><a xlink:title=" ">
<path fill="none" stroke="#63b8ff" d="M479.11,-164.75C483.82,-157.42 490.67,-146.73 496.47,-137.7"/>
<polygon fill="#63b8ff" stroke="#63b8ff" points="499.54,-139.4 501.99,-129.09 493.64,-135.62 499.54,-139.4"/>
</a>
</g>
</g>
<!-- Node6 -->
<g id="Node000006" class="node">
<title>Node6</title>
<g id="a_Node000006"><a xlink:title=" ">
<polygon fill="#e0e0e0" stroke="#999999" points="205,-129 140,-129 140,-110 205,-110 205,-129"/>
<text text-anchor="middle" x="172.5" y="-117" font-family="Helvetica,sans-Serif" font-size="10.00">stdexcept</text>
</a>
</g>
</g>
<!-- Node2&#45;&gt;Node6 -->
<g id="edge5_Node000002_Node000006" class="edge">
<title>Node2&#45;&gt;Node6</title>
<g id="a_edge5_Node000002_Node000006"><a xlink:title=" ">
<path fill="none" stroke="#63b8ff" d="M434.66,-167.29C385.71,-159.36 298.74,-144.96 215.07,-129.25"/>
<polygon fill="#63b8ff" stroke="#63b8ff" points="215.63,-125.79 205.15,-127.38 214.33,-132.67 215.63,-125.79"/>
</a>
</g>
</g>
<!-- Node7 -->
<g id="Node000007" class="node">
<title>Node7</title>
<g id="a_Node000007"><a xlink:title=" ">
<polygon fill="#e0e0e0" stroke="#999999" points="316,-129 223,-129 223,-110 316,-110 316,-129"/>
<text text-anchor="middle" x="269.5" y="-117" font-family="Helvetica,sans-Serif" font-size="10.00">unordered_map</text>
</a>
</g>
</g>
<!-- Node2&#45;&gt;Node7 -->
<g id="edge6_Node000002_Node000007" class="edge">
<title>Node2&#45;&gt;Node7</title>
<g id="a_edge6_Node000002_Node000007"><a xlink:title=" ">
<path fill="none" stroke="#63b8ff" d="M440.72,-164.98C405.88,-155.93 350.63,-141.58 312.36,-131.64"/>
<polygon fill="#63b8ff" stroke="#63b8ff" points="313.09,-128.21 302.53,-129.08 311.33,-134.98 313.09,-128.21"/>
</a>
</g>
</g>
<!-- Node2&#45;&gt;Node8 -->
<g id="edge7_Node000002_Node000008" class="edge">
<title>Node2&#45;&gt;Node8</title>
<g id="a_edge7_Node000002_Node000008"><a xlink:title=" ">
<path fill="none" stroke="#63b8ff" d="M490.37,-164.98C507.11,-156.54 533,-143.47 552.39,-133.68"/>
<polygon fill="#63b8ff" stroke="#63b8ff" points="553.97,-136.8 561.32,-129.17 550.82,-130.55 553.97,-136.8"/>
</a>
</g>
</g>
<!-- Node10 -->
<g id="Node000010" class="node">
<title>Node10</title>
<g id="a_Node000010"><a xlink:title=" ">
<polygon fill="#e0e0e0" stroke="#999999" points="691,-129 620,-129 620,-110 691,-110 691,-129"/>
<text text-anchor="middle" x="655.5" y="-117" font-family="Helvetica,sans-Serif" font-size="10.00">glad/glad.h</text>
</a>
</g>
</g>
<!-- Node9&#45;&gt;Node10 -->
<g id="edge9_Node000009_Node000010" class="edge">
<title>Node9&#45;&gt;Node10</title>
<g id="a_edge9_Node000009_Node000010"><a xlink:title=" ">
<path fill="none" stroke="#63b8ff" d="M266.68,-170.02C333.96,-163.69 478.23,-149.18 609.75,-129.17"/>
<polygon fill="#63b8ff" stroke="#63b8ff" points="610.65,-132.57 620,-127.6 609.58,-125.65 610.65,-132.57"/>
</a>
</g>
</g>
<!-- Node11 -->
<g id="Node000011" class="node">
<title>Node11</title>
<g id="a_Node000011"><a xlink:title=" ">
<polygon fill="#e0e0e0" stroke="#999999" points="83,-129 0,-129 0,-110 83,-110 83,-129"/>
<text text-anchor="middle" x="41.5" y="-117" font-family="Helvetica,sans-Serif" font-size="10.00">GLFW/glfw3.h</text>
</a>
</g>
</g>
<!-- Node9&#45;&gt;Node11 -->
<g id="edge10_Node000009_Node000011" class="edge">
<title>Node9&#45;&gt;Node11</title>
<g id="a_edge10_Node000009_Node000011"><a xlink:title=" ">
<path fill="none" stroke="#63b8ff" d="M198.46,-164.98C166.79,-156.01 116.73,-141.82 81.69,-131.89"/>
<polygon fill="#63b8ff" stroke="#63b8ff" points="82.36,-128.44 71.78,-129.08 80.45,-135.18 82.36,-128.44"/>
</a>
</g>
</g>
<!-- Node12 -->
<g id="Node000012" class="node">
<title>Node12</title>
<g id="a_Node000012"><a xlink:title=" ">
<polygon fill="#e0e0e0" stroke="#999999" points="779.5,-19 735.5,-19 735.5,0 779.5,0 779.5,-19"/>
<text text-anchor="middle" x="757.5" y="-7" font-family="Helvetica,sans-Serif" font-size="10.00">string</text>
</a>
</g>
</g>
<!-- Node9&#45;&gt;Node12 -->
<g id="edge11_Node000009_Node000012" class="edge">
<title>Node9&#45;&gt;Node12</title>
<g id="a_edge11_Node000009_Node000012"><a xlink:title=" ">
<path fill="none" stroke="#63b8ff" d="M192.58,-164.96C156.34,-154.7 108.65,-135.59 130.5,-110 208.49,-18.66 608.14,-10.73 725.23,-10.39"/>
<polygon fill="#63b8ff" stroke="#63b8ff" points="725.35,-13.89 735.35,-10.38 725.34,-6.89 725.35,-13.89"/>
</a>
</g>
</g>
<!-- Node14 -->
<g id="Node000014" class="node">
<title>Node14</title>
<g id="a_Node000014"><a xlink:href="Entity_8hpp.html" target="_top" xlink:title="Defines the Entity class, which serves as a wrapper for ECS entities.">
<polygon fill="white" stroke="#666666" points="818,-239 753,-239 753,-220 818,-220 818,-239"/>
<text text-anchor="middle" x="785.5" y="-227" font-family="Helvetica,sans-Serif" font-size="10.00">Entity.hpp</text>
</a>
</g>
</g>
<!-- Node13&#45;&gt;Node14 -->
<g id="edge13_Node000013_Node000014" class="edge">
<title>Node13&#45;&gt;Node14</title>
<g id="a_edge13_Node000013_Node000014"><a xlink:title=" ">
<path fill="none" stroke="#63b8ff" d="M855.16,-274.98C842.41,-266.84 822.95,-254.41 807.83,-244.76"/>
<polygon fill="#63b8ff" stroke="#63b8ff" points="809.39,-241.6 799.08,-239.17 805.62,-247.5 809.39,-241.6"/>
</a>
</g>
</g>
<!-- Node23 -->
<g id="Node000023" class="node">
<title>Node23</title>
<g id="a_Node000023"><a xlink:href="TransformComponent_8hpp.html" target="_top" xlink:title="Defines the TransformComponent for ECS&#45;based spatial transformations.">
<polygon fill="white" stroke="#666666" points="1593.5,-239 1387.5,-239 1387.5,-220 1593.5,-220 1593.5,-239"/>
<text text-anchor="middle" x="1490.5" y="-227" font-family="Helvetica,sans-Serif" font-size="10.00">components/TransformComponent.hpp</text>
</a>
</g>
</g>
<!-- Node13&#45;&gt;Node23 -->
<g id="edge24_Node000013_Node000023" class="edge">
<title>Node13&#45;&gt;Node23</title>
<g id="a_edge24_Node000013_Node000023"><a xlink:title=" ">
<path fill="none" stroke="#63b8ff" d="M922.07,-278.94C1023.52,-270.29 1245.55,-251.37 1380.13,-239.9"/>
<polygon fill="#63b8ff" stroke="#63b8ff" points="1380.8,-243.36 1390.47,-239.02 1380.21,-236.39 1380.8,-243.36"/>
</a>
</g>
</g>
<!-- Node28 -->
<g id="Node000028" class="node">
<title>Node28</title>
<g id="a_Node000028"><a xlink:href="Mesh_8hpp.html" target="_top" xlink:title="Defines the Mesh class for managing 3D geometry.">
<polygon fill="white" stroke="#666666" points="718,-184 605,-184 605,-165 718,-165 718,-184"/>
<text text-anchor="middle" x="661.5" y="-172" font-family="Helvetica,sans-Serif" font-size="10.00">rendering/Mesh.hpp</text>
</a>
</g>
</g>
<!-- Node13&#45;&gt;Node28 -->
<g id="edge37_Node000013_Node000028" class="edge">
<title>Node13&#45;&gt;Node28</title>
<g id="a_edge37_Node000013_Node000028"><a xlink:title=" ">
<path fill="none" stroke="#63b8ff" d="M836.52,-274.99C810.78,-267.45 774.13,-255.14 744.5,-239 719.81,-225.55 694.59,-205.11 678.54,-191.08"/>
<polygon fill="#63b8ff" stroke="#63b8ff" points="680.82,-188.43 671.03,-184.39 676.17,-193.65 680.82,-188.43"/>
</a>
</g>
</g>
<!-- Node14&#45;&gt;Node2 -->
<g id="edge23_Node000014_Node000002" class="edge">
<title>Node14&#45;&gt;Node2</title>
<g id="a_edge23_Node000014_Node000002"><a xlink:title=" ">
<path fill="none" stroke="#63b8ff" d="M752.99,-222.98C698.03,-213.64 586.45,-194.69 522.14,-183.76"/>
<polygon fill="#63b8ff" stroke="#63b8ff" points="522.69,-180.31 512.24,-182.08 521.51,-187.21 522.69,-180.31"/>
</a>
</g>
</g>
<!-- Node15 -->
<g id="Node000015" class="node">
<title>Node15</title>
<g id="a_Node000015"><a xlink:href="Logger_8hpp.html" target="_top" xlink:title="Provides logging functionality.">
<polygon fill="white" stroke="#666666" points="1072.5,-184 1002.5,-184 1002.5,-165 1072.5,-165 1072.5,-184"/>
<text text-anchor="middle" x="1037.5" y="-172" font-family="Helvetica,sans-Serif" font-size="10.00">Logger.hpp</text>
</a>
</g>
</g>
<!-- Node14&#45;&gt;Node15 -->
<g id="edge14_Node000014_Node000015" class="edge">
<title>Node14&#45;&gt;Node15</title>
<g id="a_edge14_Node000014_Node000015"><a xlink:title=" ">
<path fill="none" stroke="#63b8ff" d="M818.19,-221.63C862.67,-212.27 942.44,-195.49 992.53,-184.96"/>
<polygon fill="#63b8ff" stroke="#63b8ff" points="993.38,-188.36 1002.44,-182.87 991.94,-181.51 993.38,-188.36"/>
</a>
</g>
</g>
<!-- Node15&#45;&gt;Node12 -->
<g id="edge22_Node000015_Node000012" class="edge">
<title>Node15&#45;&gt;Node12</title>
<g id="a_edge22_Node000015_Node000012"><a xlink:title=" ">
<path fill="none" stroke="#63b8ff" d="M1002.37,-171.67C963.29,-168.2 899.62,-158.15 853.5,-129 812.81,-103.29 781.51,-54.34 766.77,-28.12"/>
<polygon fill="#63b8ff" stroke="#63b8ff" points="769.81,-26.39 761.95,-19.28 763.66,-29.74 769.81,-26.39"/>
</a>
</g>
</g>
<!-- Node16 -->
<g id="Node000016" class="node">
<title>Node16</title>
<g id="a_Node000016"><a xlink:title=" ">
<polygon fill="#e0e0e0" stroke="#999999" points="1129.5,-129 1079.5,-129 1079.5,-110 1129.5,-110 1129.5,-129"/>
<text text-anchor="middle" x="1104.5" y="-117" font-family="Helvetica,sans-Serif" font-size="10.00">chrono</text>
</a>
</g>
</g>
<!-- Node15&#45;&gt;Node16 -->
<g id="edge15_Node000015_Node000016" class="edge">
<title>Node15&#45;&gt;Node16</title>
<g id="a_edge15_Node000015_Node000016"><a xlink:title=" ">
<path fill="none" stroke="#63b8ff" d="M1048.26,-164.98C1058.27,-157.07 1073.39,-145.11 1085.43,-135.58"/>
<polygon fill="#63b8ff" stroke="#63b8ff" points="1087.87,-138.12 1093.54,-129.17 1083.53,-132.63 1087.87,-138.12"/>
</a>
</g>
</g>
<!-- Node17 -->
<g id="Node000017" class="node">
<title>Node17</title>
<g id="a_Node000017"><a xlink:title=" ">
<polygon fill="#e0e0e0" stroke="#999999" points="1219,-129 1148,-129 1148,-110 1219,-110 1219,-129"/>
<text text-anchor="middle" x="1183.5" y="-117" font-family="Helvetica,sans-Serif" font-size="10.00">fmt/printf.h</text>
</a>
</g>
</g>
<!-- Node15&#45;&gt;Node17 -->
<g id="edge16_Node000015_Node000017" class="edge">
<title>Node15&#45;&gt;Node17</title>
<g id="a_edge16_Node000015_Node000017"><a xlink:title=" ">
<path fill="none" stroke="#63b8ff" d="M1060.96,-164.98C1085.08,-156.23 1122.87,-142.51 1150.1,-132.62"/>
<polygon fill="#63b8ff" stroke="#63b8ff" points="1151.41,-135.87 1159.62,-129.17 1149.02,-129.29 1151.41,-135.87"/>
</a>
</g>
</g>
<!-- Node18 -->
<g id="Node000018" class="node">
<title>Node18</title>
<g id="a_Node000018"><a xlink:title=" ">
<polygon fill="#e0e0e0" stroke="#999999" points="917,-129 862,-129 862,-110 917,-110 917,-129"/>
<text text-anchor="middle" x="889.5" y="-117" font-family="Helvetica,sans-Serif" font-size="10.00">fstream</text>
</a>
</g>
</g>
<!-- Node15&#45;&gt;Node18 -->
<g id="edge17_Node000015_Node000018" class="edge">
<title>Node15&#45;&gt;Node18</title>
<g id="a_edge17_Node000015_Node000018"><a xlink:title=" ">
<path fill="none" stroke="#63b8ff" d="M1013.72,-164.98C989.27,-156.23 950.97,-142.51 923.35,-132.62"/>
<polygon fill="#63b8ff" stroke="#63b8ff" points="924.31,-129.25 913.71,-129.17 921.95,-135.84 924.31,-129.25"/>
</a>
</g>
</g>
<!-- Node19 -->
<g id="Node000019" class="node">
<title>Node19</title>
<g id="a_Node000019"><a xlink:title=" ">
<polygon fill="#e0e0e0" stroke="#999999" points="1369.5,-129 1313.5,-129 1313.5,-110 1369.5,-110 1369.5,-129"/>
<text text-anchor="middle" x="1341.5" y="-117" font-family="Helvetica,sans-Serif" font-size="10.00">iomanip</text>
</a>
</g>
</g>
<!-- Node15&#45;&gt;Node19 -->
<g id="edge18_Node000015_Node000019" class="edge">
<title>Node15&#45;&gt;Node19</title>
<g id="a_edge18_Node000015_Node000019"><a xlink:title=" ">
<path fill="none" stroke="#63b8ff" d="M1072.67,-167.37C1130.17,-157.34 1243.85,-137.53 1303.27,-127.16"/>
<polygon fill="#63b8ff" stroke="#63b8ff" points="1304.12,-130.57 1313.37,-125.4 1302.91,-123.67 1304.12,-130.57"/>
</a>
</g>
</g>
<!-- Node20 -->
<g id="Node000020" class="node">
<title>Node20</title>
<g id="a_Node000020"><a xlink:title=" ">
<polygon fill="#e0e0e0" stroke="#999999" points="995.5,-129 935.5,-129 935.5,-110 995.5,-110 995.5,-129"/>
<text text-anchor="middle" x="965.5" y="-117" font-family="Helvetica,sans-Serif" font-size="10.00">iostream</text>
</a>
</g>
</g>
<!-- Node15&#45;&gt;Node20 -->
<g id="edge19_Node000015_Node000020" class="edge">
<title>Node15&#45;&gt;Node20</title>
<g id="a_edge19_Node000015_Node000020"><a xlink:title=" ">
<path fill="none" stroke="#63b8ff" d="M1025.93,-164.98C1015.08,-157 998.62,-144.88 985.62,-135.31"/>
<polygon fill="#63b8ff" stroke="#63b8ff" points="987.41,-132.28 977.28,-129.17 983.26,-137.92 987.41,-132.28"/>
</a>
</g>
</g>
<!-- Node21 -->
<g id="Node000021" class="node">
<title>Node21</title>
<g id="a_Node000021"><a xlink:title=" ">
<polygon fill="#e0e0e0" stroke="#999999" points="1061.5,-129 1013.5,-129 1013.5,-110 1061.5,-110 1061.5,-129"/>
<text text-anchor="middle" x="1037.5" y="-117" font-family="Helvetica,sans-Serif" font-size="10.00">mutex</text>
</a>
</g>
</g>
<!-- Node15&#45;&gt;Node21 -->
<g id="edge20_Node000015_Node000021" class="edge">
<title>Node15&#45;&gt;Node21</title>
<g id="a_edge20_Node000015_Node000021"><a xlink:title=" ">
<path fill="none" stroke="#63b8ff" d="M1037.5,-164.75C1037.5,-157.8 1037.5,-147.85 1037.5,-139.13"/>
<polygon fill="#63b8ff" stroke="#63b8ff" points="1041,-139.09 1037.5,-129.09 1034,-139.09 1041,-139.09"/>
</a>
</g>
</g>
<!-- Node22 -->
<g id="Node000022" class="node">
<title>Node22</title>
<g id="a_Node000022"><a xlink:title=" ">
<polygon fill="#e0e0e0" stroke="#999999" points="1463.5,-19 1407.5,-19 1407.5,0 1463.5,0 1463.5,-19"/>
<text text-anchor="middle" x="1435.5" y="-7" font-family="Helvetica,sans-Serif" font-size="10.00">sstream</text>
</a>
</g>
</g>
<!-- Node15&#45;&gt;Node22 -->
<g id="edge21_Node000015_Node000022" class="edge">
<title>Node15&#45;&gt;Node22</title>
<g id="a_edge21_Node000015_Node000022"><a xlink:title=" ">
<path fill="none" stroke="#63b8ff" d="M1072.57,-168.47C1111.59,-162.17 1176.05,-149.61 1228.5,-129 1301.03,-100.5 1378.78,-49.87 1414.89,-25.04"/>
<polygon fill="#63b8ff" stroke="#63b8ff" points="1417.32,-27.62 1423.53,-19.04 1413.32,-21.87 1417.32,-27.62"/>
</a>
</g>
</g>
<!-- Node24 -->
<g id="Node000024" class="node">
<title>Node24</title>
<g id="a_Node000024"><a xlink:href="Matrix4_8hpp.html" target="_top" xlink:title="Defines the Matrix4 class for 3D transformation operations.">
<polygon fill="white" stroke="#666666" points="1567.5,-184 1463.5,-184 1463.5,-165 1567.5,-165 1567.5,-184"/>
<text text-anchor="middle" x="1515.5" y="-172" font-family="Helvetica,sans-Serif" font-size="10.00">math/Matrix4.hpp</text>
</a>
</g>
</g>
<!-- Node23&#45;&gt;Node24 -->
<g id="edge25_Node000023_Node000024" class="edge">
<title>Node23&#45;&gt;Node24</title>
<g id="a_edge25_Node000023_Node000024"><a xlink:title=" ">
<path fill="none" stroke="#63b8ff" d="M1494.63,-219.75C1498.01,-212.57 1502.92,-202.18 1507.12,-193.27"/>
<polygon fill="#63b8ff" stroke="#63b8ff" points="1510.35,-194.63 1511.45,-184.09 1504.02,-191.64 1510.35,-194.63"/>
</a>
</g>
</g>
<!-- Node25 -->
<g id="Node000025" class="node">
<title>Node25</title>
<g id="a_Node000025"><a xlink:href="Quaternion_8hpp.html" target="_top" xlink:title="Defines the Quaternion class for representing 3D rotations.">
<polygon fill="white" stroke="#666666" points="1593.5,-129 1501.5,-129 1501.5,-110 1593.5,-110 1593.5,-129"/>
<text text-anchor="middle" x="1547.5" y="-117" font-family="Helvetica,sans-Serif" font-size="10.00">Quaternion.hpp</text>
</a>
</g>
</g>
<!-- Node23&#45;&gt;Node25 -->
<g id="edge35_Node000023_Node000025" class="edge">
<title>Node23&#45;&gt;Node25</title>
<g id="a_edge35_Node000023_Node000025"><a xlink:title=" ">
<path fill="none" stroke="#63b8ff" d="M1525.55,-219.88C1544.15,-213.33 1565.4,-202.24 1576.5,-184 1585.8,-168.71 1574.73,-149.94 1563.68,-136.78"/>
<polygon fill="#63b8ff" stroke="#63b8ff" points="1565.96,-134.08 1556.65,-129.04 1560.79,-138.79 1565.96,-134.08"/>
</a>
</g>
</g>
<!-- Node26 -->
<g id="Node000026" class="node">
<title>Node26</title>
<g id="a_Node000026"><a xlink:href="Vector3_8hpp.html" target="_top" xlink:title="Defines the Vector3 class.">
<polygon fill="white" stroke="#666666" points="1472.5,-74 1398.5,-74 1398.5,-55 1472.5,-55 1472.5,-74"/>
<text text-anchor="middle" x="1435.5" y="-62" font-family="Helvetica,sans-Serif" font-size="10.00">Vector3.hpp</text>
</a>
</g>
</g>
<!-- Node23&#45;&gt;Node26 -->
<g id="edge36_Node000023_Node000026" class="edge">
<title>Node23&#45;&gt;Node26</title>
<g id="a_edge36_Node000023_Node000026"><a xlink:title=" ">
<path fill="none" stroke="#63b8ff" d="M1481.2,-219.92C1472.8,-211.58 1460.82,-198.16 1454.5,-184 1439.84,-151.13 1436.31,-108.67 1435.57,-84.52"/>
<polygon fill="#63b8ff" stroke="#63b8ff" points="1439.06,-84.2 1435.39,-74.26 1432.07,-84.32 1439.06,-84.2"/>
</a>
</g>
</g>
<!-- Node24&#45;&gt;Node19 -->
<g id="edge33_Node000024_Node000019" class="edge">
<title>Node24&#45;&gt;Node19</title>
<g id="a_edge33_Node000024_Node000019"><a xlink:title=" ">
<path fill="none" stroke="#63b8ff" d="M1487.54,-164.98C1458.2,-156.05 1411.9,-141.94 1379.31,-132.02"/>
<polygon fill="#63b8ff" stroke="#63b8ff" points="1380.26,-128.65 1369.68,-129.08 1378.22,-135.34 1380.26,-128.65"/>
</a>
</g>
</g>
<!-- Node24&#45;&gt;Node22 -->
<g id="edge34_Node000024_Node000022" class="edge">
<title>Node24&#45;&gt;Node22</title>
<g id="a_edge34_Node000024_Node000022"><a xlink:title=" ">
<path fill="none" stroke="#63b8ff" d="M1547.56,-164.94C1578.17,-155 1617.56,-136.5 1602.5,-110 1574.99,-61.58 1513.55,-34.24 1473.36,-20.92"/>
<polygon fill="#63b8ff" stroke="#63b8ff" points="1474.23,-17.52 1463.64,-17.83 1472.11,-24.2 1474.23,-17.52"/>
</a>
</g>
</g>
<!-- Node24&#45;&gt;Node25 -->
<g id="edge26_Node000024_Node000025" class="edge">
<title>Node24&#45;&gt;Node25</title>
<g id="a_edge26_Node000024_Node000025"><a xlink:title=" ">
<path fill="none" stroke="#63b8ff" d="M1520.78,-164.75C1525.21,-157.42 1531.66,-146.73 1537.12,-137.7"/>
<polygon fill="#63b8ff" stroke="#63b8ff" points="1540.14,-139.46 1542.31,-129.09 1534.15,-135.84 1540.14,-139.46"/>
</a>
</g>
</g>
<!-- Node24&#45;&gt;Node26 -->
<g id="edge32_Node000024_Node000026" class="edge">
<title>Node24&#45;&gt;Node26</title>
<g id="a_edge32_Node000024_Node000026"><a xlink:title=" ">
<path fill="none" stroke="#63b8ff" d="M1508.95,-164.66C1495.64,-146.69 1465.23,-105.64 1448.01,-82.38"/>
<polygon fill="#63b8ff" stroke="#63b8ff" points="1450.68,-80.11 1441.91,-74.16 1445.05,-84.28 1450.68,-80.11"/>
</a>
</g>
</g>
<!-- Node25&#45;&gt;Node26 -->
<g id="edge27_Node000025_Node000026" class="edge">
<title>Node25&#45;&gt;Node26</title>
<g id="a_edge27_Node000025_Node000026"><a xlink:title=" ">
<path fill="none" stroke="#63b8ff" d="M1529.51,-109.98C1511.57,-101.5 1483.78,-88.35 1463.07,-78.54"/>
<polygon fill="#63b8ff" stroke="#63b8ff" points="1464.36,-75.28 1453.82,-74.17 1461.36,-81.61 1464.36,-75.28"/>
</a>
</g>
</g>
<!-- Node27 -->
<g id="Node000027" class="node">
<title>Node27</title>
<g id="a_Node000027"><a xlink:title=" ">
<polygon fill="#e0e0e0" stroke="#999999" points="1539,-19 1492,-19 1492,0 1539,0 1539,-19"/>
<text text-anchor="middle" x="1515.5" y="-7" font-family="Helvetica,sans-Serif" font-size="10.00">cmath</text>
</a>
</g>
</g>
<!-- Node25&#45;&gt;Node27 -->
<g id="edge31_Node000025_Node000027" class="edge">
<title>Node25&#45;&gt;Node27</title>
<g id="a_edge31_Node000025_Node000027"><a xlink:title=" ">
<path fill="none" stroke="#63b8ff" d="M1544.88,-109.66C1539.68,-92.09 1527.93,-52.45 1520.97,-28.95"/>
<polygon fill="#63b8ff" stroke="#63b8ff" points="1524.26,-27.75 1518.07,-19.16 1517.55,-29.74 1524.26,-27.75"/>
</a>
</g>
</g>
<!-- Node26&#45;&gt;Node12 -->
<g id="edge30_Node000026_Node000012" class="edge">
<title>Node26&#45;&gt;Node12</title>
<g id="a_edge30_Node000026_Node000012"><a xlink:title=" ">
<path fill="none" stroke="#63b8ff" d="M1398.08,-60.57C1277.73,-51.17 901.94,-21.79 789.56,-13.01"/>
<polygon fill="#63b8ff" stroke="#63b8ff" points="789.76,-9.51 779.52,-12.22 789.22,-16.49 789.76,-9.51"/>
</a>
</g>
</g>
<!-- Node26&#45;&gt;Node22 -->
<g id="edge29_Node000026_Node000022" class="edge">
<title>Node26&#45;&gt;Node22</title>
<g id="a_edge29_Node000026_Node000022"><a xlink:title=" ">
<path fill="none" stroke="#63b8ff" d="M1435.5,-54.75C1435.5,-47.8 1435.5,-37.85 1435.5,-29.13"/>
<polygon fill="#63b8ff" stroke="#63b8ff" points="1439,-29.09 1435.5,-19.09 1432,-29.09 1439,-29.09"/>
</a>
</g>
</g>
<!-- Node26&#45;&gt;Node27 -->
<g id="edge28_Node000026_Node000027" class="edge">
<title>Node26&#45;&gt;Node27</title>
<g id="a_edge28_Node000026_Node000027"><a xlink:title=" ">
<path fill="none" stroke="#63b8ff" d="M1448.35,-54.98C1460.64,-46.84 1479.41,-34.41 1493.98,-24.76"/>
<polygon fill="#63b8ff" stroke="#63b8ff" points="1496.01,-27.61 1502.41,-19.17 1492.14,-21.78 1496.01,-27.61"/>
</a>
</g>
</g>
<!-- Node28&#45;&gt;Node8 -->
<g id="edge41_Node000028_Node000008" class="edge">
<title>Node28&#45;&gt;Node8</title>
<g id="a_edge41_Node000028_Node000008"><a xlink:title=" ">
<path fill="none" stroke="#63b8ff" d="M648.16,-164.98C635.41,-156.84 615.95,-144.41 600.83,-134.76"/>
<polygon fill="#63b8ff" stroke="#63b8ff" points="602.39,-131.6 592.08,-129.17 598.62,-137.5 602.39,-131.6"/>
</a>
</g>
</g>
<!-- Node28&#45;&gt;Node10 -->
<g id="edge39_Node000028_Node000010" class="edge">
<title>Node28&#45;&gt;Node10</title>
<g id="a_edge39_Node000028_Node000010"><a xlink:title=" ">
<path fill="none" stroke="#63b8ff" d="M660.51,-164.75C659.72,-157.8 658.6,-147.85 657.61,-139.13"/>
<polygon fill="#63b8ff" stroke="#63b8ff" points="661.08,-138.63 656.47,-129.09 654.12,-139.42 661.08,-138.63"/>
</a>
</g>
</g>
<!-- Node28&#45;&gt;Node12 -->
<g id="edge40_Node000028_Node000012" class="edge">
<title>Node28&#45;&gt;Node12</title>
<g id="a_edge40_Node000028_Node000012"><a xlink:title=" ">
<path fill="none" stroke="#63b8ff" d="M670.34,-164.88C678.79,-156.32 691.55,-142.54 700.5,-129 722.44,-95.8 740.93,-52.88 750.49,-28.86"/>
<polygon fill="#63b8ff" stroke="#63b8ff" points="753.87,-29.85 754.24,-19.26 747.34,-27.3 753.87,-29.85"/>
</a>
</g>
</g>
<!-- Node28&#45;&gt;Node26 -->
<g id="edge38_Node000028_Node000026" class="edge">
<title>Node28&#45;&gt;Node26</title>
<g id="a_edge38_Node000028_Node000026"><a xlink:title=" ">
<path fill="none" stroke="#63b8ff" d="M681.8,-164.96C716.35,-150.84 789.13,-122.91 853.5,-110 1049.27,-70.75 1288.44,-65.56 1388.24,-65.25"/>
<polygon fill="#63b8ff" stroke="#63b8ff" points="1388.31,-68.75 1398.31,-65.23 1388.3,-61.75 1388.31,-68.75"/>
</a>
</g>
</g>
<!-- Node29&#45;&gt;Node13 -->
<g id="edge43_Node000029_Node000013" class="edge">
<title>Node29&#45;&gt;Node13</title>
<g id="a_edge43_Node000029_Node000013"><a xlink:title=" ">
<path fill="none" stroke="#63b8ff" d="M886.03,-329.75C883.22,-322.65 879.16,-312.4 875.65,-303.56"/>
<polygon fill="#63b8ff" stroke="#63b8ff" points="878.84,-302.1 871.9,-294.09 872.33,-304.68 878.84,-302.1"/>
</a>
</g>
</g>
<!-- Node29&#45;&gt;Node26 -->
<g id="edge44_Node000029_Node000026" class="edge">
<title>Node29&#45;&gt;Node26</title>
<g id="a_edge44_Node000029_Node000026"><a xlink:title=" ">
<path fill="none" stroke="#63b8ff" d="M921.97,-329.92C1004.16,-307.13 1224.81,-239.19 1378.5,-129 1396.47,-116.11 1412.87,-96.66 1423.42,-82.68"/>
<polygon fill="#63b8ff" stroke="#63b8ff" points="1426.38,-84.55 1429.46,-74.41 1420.73,-80.42 1426.38,-84.55"/>
</a>
</g>
</g>
<!-- Node30&#45;&gt;Node13 -->
<g id="edge48_Node000030_Node000013" class="edge">
<title>Node30&#45;&gt;Node13</title>
<g id="a_edge48_Node000030_Node000013"><a xlink:title=" ">
<path fill="none" stroke="#63b8ff" d="M1262.91,-331.24C1176.03,-321.17 1019.7,-303.04 932.22,-292.89"/>
<polygon fill="#63b8ff" stroke="#63b8ff" points="932.5,-289.4 922.16,-291.72 931.69,-296.35 932.5,-289.4"/>
</a>
</g>
</g>
<!-- Node30&#45;&gt;Node24 -->
<g id="edge46_Node000030_Node000024" class="edge">
<title>Node30&#45;&gt;Node24</title>
<g id="a_edge46_Node000030_Node000024"><a xlink:title=" ">
<path fill="none" stroke="#63b8ff" d="M1388.13,-335.77C1453.86,-329.17 1554.22,-307.65 1602.5,-239 1618.66,-216.02 1585.89,-198.14 1556.05,-187.29"/>
<polygon fill="#63b8ff" stroke="#63b8ff" points="1557.13,-183.96 1546.53,-184.02 1554.85,-190.58 1557.13,-183.96"/>
</a>
</g>
</g>
<!-- Node30&#45;&gt;Node26 -->
<g id="edge47_Node000030_Node000026" class="edge">
<title>Node30&#45;&gt;Node26</title>
<g id="a_edge47_Node000030_Node000026"><a xlink:title=" ">
<path fill="none" stroke="#63b8ff" d="M1388.32,-331.19C1485.07,-318.17 1659.5,-286.87 1659.5,-230.5 1659.5,-230.5 1659.5,-230.5 1659.5,-173.5 1659.5,-95.74 1548.62,-73.94 1482.88,-67.85"/>
<polygon fill="#63b8ff" stroke="#63b8ff" points="1483,-64.34 1472.74,-67 1482.41,-71.32 1483,-64.34"/>
</a>
</g>
</g>
<!-- Node31&#45;&gt;Node10 -->
<g id="edge52_Node000031_Node000010" class="edge">
<title>Node31&#45;&gt;Node10</title>
<g id="a_edge52_Node000031_Node000010"><a xlink:title=" ">
<path fill="none" stroke="#63b8ff" d="M868.21,-219.98C842.32,-211.85 803.2,-198.68 770.5,-184 737.22,-169.06 700.63,-148 677.86,-134.3"/>
<polygon fill="#63b8ff" stroke="#63b8ff" points="679.64,-131.29 669.28,-129.09 676.01,-137.27 679.64,-131.29"/>
</a>
</g>
</g>
<!-- Node31&#45;&gt;Node12 -->
<g id="edge53_Node000031_Node000012" class="edge">
<title>Node31&#45;&gt;Node12</title>
<g id="a_edge53_Node000031_Node000012"><a xlink:title=" ">
<path fill="none" stroke="#63b8ff" d="M888.29,-219.79C867.48,-197.31 812.01,-134.83 779.5,-74 771.77,-59.53 765.89,-41.8 762.17,-28.75"/>
<polygon fill="#63b8ff" stroke="#63b8ff" points="765.54,-27.81 759.55,-19.07 758.78,-29.64 765.54,-27.81"/>
</a>
</g>
</g>
<!-- Node31&#45;&gt;Node24 -->
<g id="edge50_Node000031_Node000024" class="edge">
<title>Node31&#45;&gt;Node24</title>
<g id="a_edge50_Node000031_Node000024"><a xlink:title=" ">
<path fill="none" stroke="#63b8ff" d="M956.7,-223.35C1074.34,-213.27 1333.65,-191.07 1453.06,-180.85"/>
<polygon fill="#63b8ff" stroke="#63b8ff" points="1453.48,-184.32 1463.14,-179.98 1452.88,-177.35 1453.48,-184.32"/>
</a>
</g>
</g>
<!-- Node31&#45;&gt;Node26 -->
<g id="edge51_Node000031_Node000026" class="edge">
<title>Node31&#45;&gt;Node26</title>
<g id="a_edge51_Node000031_Node000026"><a xlink:title=" ">
<path fill="none" stroke="#63b8ff" d="M934.93,-219.93C972.46,-211.41 1031.12,-197.66 1081.5,-184 1163.06,-161.89 1184.53,-159.06 1263.5,-129 1282.27,-121.86 1285.85,-117.46 1304.5,-110 1335.54,-97.57 1371.56,-85.5 1397.97,-77.08"/>
<polygon fill="#63b8ff" stroke="#63b8ff" points="1399.11,-80.39 1407.59,-74.03 1397,-73.71 1399.11,-80.39"/>
</a>
</g>
</g>
</g>
</svg>
