<?xml version="1.0" encoding="UTF-8" standalone="no"?>
<!DOCTYPE svg PUBLIC "-//W3C//DTD SVG 1.1//EN"
 "http://www.w3.org/Graphics/SVG/1.1/DTD/svg11.dtd">
<!-- Generated by graphviz version 12.2.1 (0)
 -->
<!-- Title: include/rendering/Shader.hpp Pages: 1 -->
<svg width="414pt" height="256pt"
 viewBox="0.00 0.00 413.88 255.75" xmlns="http://www.w3.org/2000/svg" xmlns:xlink="http://www.w3.org/1999/xlink">
<g id="graph0" class="graph" transform="scale(1 1) rotate(0) translate(4 251.75)">
<title>include/rendering/Shader.hpp</title>
<!-- Node1 -->
<g id="Node000001" class="node">
<title>Node1</title>
<g id="a_Node000001"><a xlink:title="Manages OpenGL shaders.">
<polygon fill="#999999" stroke="#666666" points="368.12,-247.75 209.62,-247.75 209.62,-227 368.12,-227 368.12,-247.75"/>
<text text-anchor="middle" x="288.88" y="-234.25" font-family="Helvetica,sans-Serif" font-size="10.00">include/rendering/Shader.hpp</text>
</a>
</g>
</g>
<!-- Node2 -->
<g id="Node000002" class="node">
<title>Node2</title>
<g id="a_Node000002"><a xlink:href="Matrix4_8hpp.html" target="_top" xlink:title="Defines the Matrix4 class for 3D transformation operations.">
<polygon fill="white" stroke="#666666" points="209.38,-191 106.38,-191 106.38,-170.25 209.38,-170.25 209.38,-191"/>
<text text-anchor="middle" x="157.88" y="-177.5" font-family="Helvetica,sans-Serif" font-size="10.00">math/Matrix4.hpp</text>
</a>
</g>
</g>
<!-- Node1&#45;&gt;Node2 -->
<g id="edge1_Node000001_Node000002" class="edge">
<title>Node1&#45;&gt;Node2</title>
<g id="a_edge1_Node000001_Node000002"><a xlink:title=" ">
<path fill="none" stroke="#63b8ff" d="M265.45,-226.59C244.87,-217.98 214.67,-205.36 191.5,-195.68"/>
<polygon fill="#63b8ff" stroke="#63b8ff" points="193.07,-192.54 182.49,-191.91 190.37,-199 193.07,-192.54"/>
</a>
</g>
</g>
<!-- Node4 -->
<g id="Node000004" class="node">
<title>Node4</title>
<g id="a_Node000004"><a xlink:href="Vector3_8hpp.html" target="_top" xlink:title="Defines the Vector3 class.">
<polygon fill="white" stroke="#666666" points="265.12,-77.5 190.62,-77.5 190.62,-56.75 265.12,-56.75 265.12,-77.5"/>
<text text-anchor="middle" x="227.88" y="-64" font-family="Helvetica,sans-Serif" font-size="10.00">Vector3.hpp</text>
</a>
</g>
</g>
<!-- Node1&#45;&gt;Node4 -->
<g id="edge11_Node000001_Node000004" class="edge">
<title>Node1&#45;&gt;Node4</title>
<g id="a_edge11_Node000001_Node000004"><a xlink:title=" ">
<path fill="none" stroke="#63b8ff" d="M285.42,-226.85C275.78,-200.25 248.41,-124.77 235.2,-88.32"/>
<polygon fill="#63b8ff" stroke="#63b8ff" points="238.66,-87.6 231.96,-79.39 232.08,-89.98 238.66,-87.6"/>
</a>
</g>
</g>
<!-- Node7 -->
<g id="Node000007" class="node">
<title>Node7</title>
<g id="a_Node000007"><a xlink:title=" ">
<polygon fill="#e0e0e0" stroke="#999999" points="282.75,-20.75 239,-20.75 239,0 282.75,0 282.75,-20.75"/>
<text text-anchor="middle" x="260.88" y="-7.25" font-family="Helvetica,sans-Serif" font-size="10.00">string</text>
</a>
</g>
</g>
<!-- Node1&#45;&gt;Node7 -->
<g id="edge13_Node000001_Node000007" class="edge">
<title>Node1&#45;&gt;Node7</title>
<g id="a_edge13_Node000001_Node000007"><a xlink:title=" ">
<path fill="none" stroke="#63b8ff" d="M288.73,-226.55C288.18,-199.34 285.6,-120.78 273.88,-56.75 272.36,-48.5 269.98,-39.59 267.67,-31.87"/>
<polygon fill="#63b8ff" stroke="#63b8ff" points="271.03,-30.9 264.68,-22.42 264.36,-33.01 271.03,-30.9"/>
</a>
</g>
</g>
<!-- Node9 -->
<g id="Node000009" class="node">
<title>Node9</title>
<g id="a_Node000009"><a xlink:title=" ">
<polygon fill="#e0e0e0" stroke="#999999" points="405.88,-191 335.88,-191 335.88,-170.25 405.88,-170.25 405.88,-191"/>
<text text-anchor="middle" x="370.88" y="-177.5" font-family="Helvetica,sans-Serif" font-size="10.00">glad/glad.h</text>
</a>
</g>
</g>
<!-- Node1&#45;&gt;Node9 -->
<g id="edge12_Node000001_Node000009" class="edge">
<title>Node1&#45;&gt;Node9</title>
<g id="a_edge12_Node000001_Node000009"><a xlink:title=" ">
<path fill="none" stroke="#63b8ff" d="M303.53,-226.59C315.55,-218.57 332.79,-207.06 346.81,-197.69"/>
<polygon fill="#63b8ff" stroke="#63b8ff" points="348.71,-200.63 355.08,-192.17 344.82,-194.81 348.71,-200.63"/>
</a>
</g>
</g>
<!-- Node3 -->
<g id="Node000003" class="node">
<title>Node3</title>
<g id="a_Node000003"><a xlink:href="Quaternion_8hpp.html" target="_top" xlink:title="Defines the Quaternion class for representing 3D rotations.">
<polygon fill="white" stroke="#666666" points="203.38,-134.25 112.38,-134.25 112.38,-113.5 203.38,-113.5 203.38,-134.25"/>
<text text-anchor="middle" x="157.88" y="-120.75" font-family="Helvetica,sans-Serif" font-size="10.00">Quaternion.hpp</text>
</a>
</g>
</g>
<!-- Node2&#45;&gt;Node3 -->
<g id="edge2_Node000002_Node000003" class="edge">
<title>Node2&#45;&gt;Node3</title>
<g id="a_edge2_Node000002_Node000003"><a xlink:title=" ">
<path fill="none" stroke="#63b8ff" d="M157.88,-169.84C157.88,-163.22 157.88,-154.22 157.88,-146.02"/>
<polygon fill="#63b8ff" stroke="#63b8ff" points="161.38,-146.09 157.88,-136.09 154.38,-146.09 161.38,-146.09"/>
</a>
</g>
</g>
<!-- Node2&#45;&gt;Node4 -->
<g id="edge8_Node000002_Node000004" class="edge">
<title>Node2&#45;&gt;Node4</title>
<g id="a_edge8_Node000002_Node000004"><a xlink:title=" ">
<path fill="none" stroke="#63b8ff" d="M174.88,-169.88C187.29,-161.89 203.53,-149.43 212.88,-134.25 221.29,-120.59 224.99,-102.73 226.62,-89.02"/>
<polygon fill="#63b8ff" stroke="#63b8ff" points="230.08,-89.61 227.47,-79.34 223.11,-88.99 230.08,-89.61"/>
</a>
</g>
</g>
<!-- Node6 -->
<g id="Node000006" class="node">
<title>Node6</title>
<g id="a_Node000006"><a xlink:title=" ">
<polygon fill="#e0e0e0" stroke="#999999" points="144.75,-20.75 89,-20.75 89,0 144.75,0 144.75,-20.75"/>
<text text-anchor="middle" x="116.88" y="-7.25" font-family="Helvetica,sans-Serif" font-size="10.00">sstream</text>
</a>
</g>
</g>
<!-- Node2&#45;&gt;Node6 -->
<g id="edge10_Node000002_Node000006" class="edge">
<title>Node2&#45;&gt;Node6</title>
<g id="a_edge10_Node000002_Node000006"><a xlink:title=" ">
<path fill="none" stroke="#63b8ff" d="M139.39,-169.86C126.81,-162.08 111.17,-149.9 103.88,-134.25 88.31,-100.85 99.49,-56.94 108.53,-31.67"/>
<polygon fill="#63b8ff" stroke="#63b8ff" points="111.7,-33.19 112.01,-22.6 105.16,-30.68 111.7,-33.19"/>
</a>
</g>
</g>
<!-- Node8 -->
<g id="Node000008" class="node">
<title>Node8</title>
<g id="a_Node000008"><a xlink:title=" ">
<polygon fill="#e0e0e0" stroke="#999999" points="55.75,-134.25 0,-134.25 0,-113.5 55.75,-113.5 55.75,-134.25"/>
<text text-anchor="middle" x="27.88" y="-120.75" font-family="Helvetica,sans-Serif" font-size="10.00">iomanip</text>
</a>
</g>
</g>
<!-- Node2&#45;&gt;Node8 -->
<g id="edge9_Node000002_Node000008" class="edge">
<title>Node2&#45;&gt;Node8</title>
<g id="a_edge9_Node000002_Node000008"><a xlink:title=" ">
<path fill="none" stroke="#63b8ff" d="M134.63,-169.84C114.21,-161.23 84.24,-148.61 61.25,-138.93"/>
<polygon fill="#63b8ff" stroke="#63b8ff" points="62.88,-135.82 52.31,-135.17 60.17,-142.27 62.88,-135.82"/>
</a>
</g>
</g>
<!-- Node3&#45;&gt;Node4 -->
<g id="edge3_Node000003_Node000004" class="edge">
<title>Node3&#45;&gt;Node4</title>
<g id="a_edge3_Node000003_Node000004"><a xlink:title=" ">
<path fill="none" stroke="#63b8ff" d="M170.39,-113.09C180.44,-105.22 194.79,-94 206.63,-84.74"/>
<polygon fill="#63b8ff" stroke="#63b8ff" points="208.56,-87.68 214.28,-78.76 204.24,-82.16 208.56,-87.68"/>
</a>
</g>
</g>
<!-- Node5 -->
<g id="Node000005" class="node">
<title>Node5</title>
<g id="a_Node000005"><a xlink:title=" ">
<polygon fill="#e0e0e0" stroke="#999999" points="217.25,-20.75 170.5,-20.75 170.5,0 217.25,0 217.25,-20.75"/>
<text text-anchor="middle" x="193.88" y="-7.25" font-family="Helvetica,sans-Serif" font-size="10.00">cmath</text>
</a>
</g>
</g>
<!-- Node3&#45;&gt;Node5 -->
<g id="edge7_Node000003_Node000005" class="edge">
<title>Node3&#45;&gt;Node5</title>
<g id="a_edge7_Node000003_Node000005"><a xlink:title=" ">
<path fill="none" stroke="#63b8ff" d="M160.94,-113.37C166.73,-95.44 179.39,-56.25 187.21,-32.01"/>
<polygon fill="#63b8ff" stroke="#63b8ff" points="190.5,-33.21 190.25,-22.62 183.84,-31.06 190.5,-33.21"/>
</a>
</g>
</g>
<!-- Node4&#45;&gt;Node5 -->
<g id="edge4_Node000004_Node000005" class="edge">
<title>Node4&#45;&gt;Node5</title>
<g id="a_edge4_Node000004_Node000005"><a xlink:title=" ">
<path fill="none" stroke="#63b8ff" d="M221.8,-56.34C217.4,-49.25 211.3,-39.44 205.93,-30.79"/>
<polygon fill="#63b8ff" stroke="#63b8ff" points="208.95,-29.01 200.7,-22.36 203,-32.71 208.95,-29.01"/>
</a>
</g>
</g>
<!-- Node4&#45;&gt;Node6 -->
<g id="edge5_Node000004_Node000006" class="edge">
<title>Node4&#45;&gt;Node6</title>
<g id="a_edge5_Node000004_Node000006"><a xlink:title=" ">
<path fill="none" stroke="#63b8ff" d="M208.03,-56.34C190.98,-47.93 166.15,-35.68 146.71,-26.09"/>
<polygon fill="#63b8ff" stroke="#63b8ff" points="148.42,-23.03 137.91,-21.75 145.33,-29.31 148.42,-23.03"/>
</a>
</g>
</g>
<!-- Node4&#45;&gt;Node7 -->
<g id="edge6_Node000004_Node000007" class="edge">
<title>Node4&#45;&gt;Node7</title>
<g id="a_edge6_Node000004_Node000007"><a xlink:title=" ">
<path fill="none" stroke="#63b8ff" d="M233.77,-56.34C238.05,-49.25 243.96,-39.44 249.17,-30.79"/>
<polygon fill="#63b8ff" stroke="#63b8ff" points="252.08,-32.75 254.25,-22.37 246.09,-29.13 252.08,-32.75"/>
</a>
</g>
</g>
</g>
</svg>
