<?xml version="1.0" encoding="UTF-8" standalone="no"?>
<!DOCTYPE svg PUBLIC "-//W3C//DTD SVG 1.1//EN"
 "http://www.w3.org/Graphics/SVG/1.1/DTD/svg11.dtd">
<!-- Generated by graphviz version 2.43.0 (0)
 -->
<!-- Title: include/rendering/Shader.hpp Pages: 1 -->
<svg width="524pt" height="423pt"
 viewBox="0.00 0.00 524.00 423.00" xmlns="http://www.w3.org/2000/svg" xmlns:xlink="http://www.w3.org/1999/xlink">
<g id="graph0" class="graph" transform="scale(1 1) rotate(0) translate(4 419)">
<title>include/rendering/Shader.hpp</title>
<!-- Node1 -->
<g id="Node000001" class="node">
<title>Node1</title>
<g id="a_Node000001"><a xlink:title="Manages OpenGL shaders.">
<polygon fill="#999999" stroke="#666666" points="300,-415 142,-415 142,-396 300,-396 300,-415"/>
<text text-anchor="middle" x="221" y="-403" font-family="Helvetica,sans-Serif" font-size="10.00">include/rendering/Shader.hpp</text>
</a>
</g>
</g>
<!-- Node2 -->
<g id="Node000002" class="node">
<title>Node2</title>
<g id="a_Node000002"><a xlink:href="FrameEngine_8hpp_source.html" target="_top" xlink:title=" ">
<polygon fill="white" stroke="#666666" points="256,-19 116,-19 116,0 256,0 256,-19"/>
<text text-anchor="middle" x="186" y="-7" font-family="Helvetica,sans-Serif" font-size="10.00">include/FrameEngine.hpp</text>
</a>
</g>
</g>
<!-- Node1&#45;&gt;Node2 -->
<g id="edge1_Node000001_Node000002" class="edge">
<title>Node1&#45;&gt;Node2</title>
<g id="a_edge1_Node000001_Node000002"><a xlink:title=" ">
<path fill="none" stroke="#63b8ff" d="M131.69,-394.12C70.37,-381.44 0,-353.31 0,-291 0,-291 0,-291 0,-118.5 0,-58.01 74.48,-30.83 129.18,-19.02"/>
<polygon fill="#63b8ff" stroke="#63b8ff" points="131.35,-397.62 141.84,-396.1 132.69,-390.75 131.35,-397.62"/>
</a>
</g>
</g>
<!-- Node3 -->
<g id="Node000003" class="node">
<title>Node3</title>
<g id="a_Node000003"><a xlink:href="Material_8hpp_source.html" target="_top" xlink:title=" ">
<polygon fill="white" stroke="#666666" points="304,-360 138,-360 138,-341 304,-341 304,-360"/>
<text text-anchor="middle" x="221" y="-348" font-family="Helvetica,sans-Serif" font-size="10.00">include/rendering/Material.hpp</text>
</a>
</g>
</g>
<!-- Node1&#45;&gt;Node3 -->
<g id="edge2_Node000001_Node000003" class="edge">
<title>Node1&#45;&gt;Node3</title>
<g id="a_edge2_Node000001_Node000003"><a xlink:title=" ">
<path fill="none" stroke="#63b8ff" d="M221,-385.66C221,-376.93 221,-366.99 221,-360.09"/>
<polygon fill="#63b8ff" stroke="#63b8ff" points="217.5,-385.75 221,-395.75 224.5,-385.75 217.5,-385.75"/>
</a>
</g>
</g>
<!-- Node7 -->
<g id="Node000007" class="node">
<title>Node7</title>
<g id="a_Node000007"><a xlink:href="Renderer_8hpp.html" target="_top" xlink:title="Manages the rendering pipeline and object submission.">
<polygon fill="white" stroke="#666666" points="450.5,-129 281.5,-129 281.5,-110 450.5,-110 450.5,-129"/>
<text text-anchor="middle" x="366" y="-117" font-family="Helvetica,sans-Serif" font-size="10.00">include/rendering/Renderer.hpp</text>
</a>
</g>
</g>
<!-- Node1&#45;&gt;Node7 -->
<g id="edge19_Node000001_Node000007" class="edge">
<title>Node1&#45;&gt;Node7</title>
<g id="a_edge19_Node000001_Node000007"><a xlink:title=" ">
<path fill="none" stroke="#63b8ff" d="M280.64,-394.06C366.83,-377.25 516,-340.95 516,-291 516,-291 516,-291 516,-228.5 516,-172.02 445.1,-142.15 400.79,-129"/>
<polygon fill="#63b8ff" stroke="#63b8ff" points="279.87,-390.64 270.71,-395.97 281.19,-397.52 279.87,-390.64"/>
</a>
</g>
</g>
<!-- Node4 -->
<g id="Node000004" class="node">
<title>Node4</title>
<g id="a_Node000004"><a xlink:href="MaterialComponent_8hpp_source.html" target="_top" xlink:title=" ">
<polygon fill="white" stroke="#666666" points="289.5,-305 152.5,-305 152.5,-275 289.5,-275 289.5,-305"/>
<text text-anchor="start" x="160.5" y="-293" font-family="Helvetica,sans-Serif" font-size="10.00">include/components</text>
<text text-anchor="middle" x="221" y="-282" font-family="Helvetica,sans-Serif" font-size="10.00">/MaterialComponent.hpp</text>
</a>
</g>
</g>
<!-- Node3&#45;&gt;Node4 -->
<g id="edge3_Node000003_Node000004" class="edge">
<title>Node3&#45;&gt;Node4</title>
<g id="a_edge3_Node000003_Node000004"><a xlink:title=" ">
<path fill="none" stroke="#63b8ff" d="M221,-330.65C221,-322.36 221,-312.78 221,-305.11"/>
<polygon fill="#63b8ff" stroke="#63b8ff" points="217.5,-330.87 221,-340.87 224.5,-330.87 217.5,-330.87"/>
</a>
</g>
</g>
<!-- Node5 -->
<g id="Node000005" class="node">
<title>Node5</title>
<g id="a_Node000005"><a xlink:href="Object_8hpp.html" target="_top" xlink:title="Defines the Object class, a special ECS entity wrapper.">
<polygon fill="white" stroke="#666666" points="388,-239 242,-239 242,-220 388,-220 388,-239"/>
<text text-anchor="middle" x="315" y="-227" font-family="Helvetica,sans-Serif" font-size="10.00">include/objects/Object.hpp</text>
</a>
</g>
</g>
<!-- Node3&#45;&gt;Node5 -->
<g id="edge18_Node000003_Node000005" class="edge">
<title>Node3&#45;&gt;Node5</title>
<g id="a_edge18_Node000003_Node000005"><a xlink:title=" ">
<path fill="none" stroke="#63b8ff" d="M256.57,-336.9C271.8,-329.79 288.48,-319.38 299,-305 313.69,-284.93 315.43,-254.16 315.32,-239.23"/>
<polygon fill="#63b8ff" stroke="#63b8ff" points="255.11,-333.72 247.34,-340.92 257.9,-340.14 255.11,-333.72"/>
</a>
</g>
</g>
<!-- Node10 -->
<g id="Node000010" class="node">
<title>Node10</title>
<g id="a_Node000010"><a xlink:href="BasicMaterial_8hpp_source.html" target="_top" xlink:title=" ">
<polygon fill="white" stroke="#666666" points="220,-239 28,-239 28,-220 220,-220 220,-239"/>
<text text-anchor="middle" x="124" y="-227" font-family="Helvetica,sans-Serif" font-size="10.00">include/materials/BasicMaterial.hpp</text>
</a>
</g>
</g>
<!-- Node3&#45;&gt;Node10 -->
<g id="edge16_Node000003_Node000010" class="edge">
<title>Node3&#45;&gt;Node10</title>
<g id="a_edge16_Node000003_Node000010"><a xlink:title=" ">
<path fill="none" stroke="#63b8ff" d="M186.86,-336.87C171.72,-329.67 154.9,-319.2 144,-305 128.67,-285.03 125.07,-254.21 124.24,-239.25"/>
<polygon fill="#63b8ff" stroke="#63b8ff" points="185.44,-340.07 196,-340.93 188.29,-333.67 185.44,-340.07"/>
</a>
</g>
</g>
<!-- Node4&#45;&gt;Node5 -->
<g id="edge4_Node000004_Node000005" class="edge">
<title>Node4&#45;&gt;Node5</title>
<g id="a_edge4_Node000004_Node000005"><a xlink:title=" ">
<path fill="none" stroke="#63b8ff" d="M252.57,-269.35C269.09,-259.07 288.46,-247.02 301.19,-239.09"/>
<polygon fill="#63b8ff" stroke="#63b8ff" points="250.4,-266.58 243.75,-274.84 254.09,-272.53 250.4,-266.58"/>
</a>
</g>
</g>
<!-- Node5&#45;&gt;Node2 -->
<g id="edge5_Node000005_Node000002" class="edge">
<title>Node5&#45;&gt;Node2</title>
<g id="a_edge5_Node000005_Node000002"><a xlink:title=" ">
<path fill="none" stroke="#63b8ff" d="M243.01,-218.46C182.87,-209.34 105.46,-195.57 96,-184 50.48,-128.3 142.07,-45.87 174.9,-19.18"/>
<polygon fill="#63b8ff" stroke="#63b8ff" points="242.85,-221.97 253.25,-220 243.88,-215.05 242.85,-221.97"/>
</a>
</g>
</g>
<!-- Node6 -->
<g id="Node000006" class="node">
<title>Node6</title>
<g id="a_Node000006"><a xlink:href="PointLight_8hpp_source.html" target="_top" xlink:title=" ">
<polygon fill="white" stroke="#666666" points="267.5,-184 104.5,-184 104.5,-165 267.5,-165 267.5,-184"/>
<text text-anchor="middle" x="186" y="-172" font-family="Helvetica,sans-Serif" font-size="10.00">include/objects/PointLight.hpp</text>
</a>
</g>
</g>
<!-- Node5&#45;&gt;Node6 -->
<g id="edge6_Node000005_Node000006" class="edge">
<title>Node5&#45;&gt;Node6</title>
<g id="a_edge6_Node000005_Node000006"><a xlink:title=" ">
<path fill="none" stroke="#63b8ff" d="M284.96,-216.16C261.08,-206.35 228.28,-192.87 207.1,-184.17"/>
<polygon fill="#63b8ff" stroke="#63b8ff" points="283.69,-219.42 294.27,-219.98 286.35,-212.95 283.69,-219.42"/>
</a>
</g>
</g>
<!-- Node5&#45;&gt;Node7 -->
<g id="edge15_Node000005_Node000007" class="edge">
<title>Node5&#45;&gt;Node7</title>
<g id="a_edge15_Node000005_Node000007"><a xlink:title=" ">
<path fill="none" stroke="#63b8ff" d="M397.77,-221.29C421.3,-214.96 444.46,-203.71 459,-184 478.15,-158.04 433.98,-139.16 400.16,-129.03"/>
<polygon fill="#63b8ff" stroke="#63b8ff" points="396.94,-217.89 388.05,-223.64 398.59,-224.7 396.94,-217.89"/>
</a>
</g>
</g>
<!-- Node9 -->
<g id="Node000009" class="node">
<title>Node9</title>
<g id="a_Node000009"><a xlink:href="Camera_8hpp.html" target="_top" xlink:title="Defines the Camera class for view and projection.">
<polygon fill="white" stroke="#666666" points="450,-184 286,-184 286,-165 450,-165 450,-184"/>
<text text-anchor="middle" x="368" y="-172" font-family="Helvetica,sans-Serif" font-size="10.00">include/rendering/Camera.hpp</text>
</a>
</g>
</g>
<!-- Node5&#45;&gt;Node9 -->
<g id="edge12_Node000005_Node000009" class="edge">
<title>Node5&#45;&gt;Node9</title>
<g id="a_edge12_Node000005_Node000009"><a xlink:title=" ">
<path fill="none" stroke="#63b8ff" d="M330.98,-212.52C340.32,-203.18 351.75,-191.75 359.41,-184.09"/>
<polygon fill="#63b8ff" stroke="#63b8ff" points="328.35,-210.2 323.75,-219.75 333.3,-215.15 328.35,-210.2"/>
</a>
</g>
</g>
<!-- Node6&#45;&gt;Node2 -->
<g id="edge7_Node000006_Node000002" class="edge">
<title>Node6&#45;&gt;Node2</title>
<g id="a_edge7_Node000006_Node000002"><a xlink:title=" ">
<path fill="none" stroke="#63b8ff" d="M186,-154.37C186,-119.03 186,-44.79 186,-19.31"/>
<polygon fill="#63b8ff" stroke="#63b8ff" points="182.5,-154.74 186,-164.74 189.5,-154.74 182.5,-154.74"/>
</a>
</g>
</g>
<!-- Node6&#45;&gt;Node7 -->
<g id="edge8_Node000006_Node000007" class="edge">
<title>Node6&#45;&gt;Node7</title>
<g id="a_edge8_Node000006_Node000007"><a xlink:title=" ">
<path fill="none" stroke="#63b8ff" d="M224.87,-162.06C258.51,-152.15 306.42,-138.04 336.85,-129.08"/>
<polygon fill="#63b8ff" stroke="#63b8ff" points="223.52,-158.8 214.92,-164.98 225.5,-165.52 223.52,-158.8"/>
</a>
</g>
</g>
<!-- Node7&#45;&gt;Node2 -->
<g id="edge11_Node000007_Node000002" class="edge">
<title>Node7&#45;&gt;Node2</title>
<g id="a_edge11_Node000007_Node000002"><a xlink:title=" ">
<path fill="none" stroke="#63b8ff" d="M342.81,-104.59C305.11,-81.97 231.63,-37.88 200.49,-19.2"/>
<polygon fill="#63b8ff" stroke="#63b8ff" points="341.2,-107.7 351.57,-109.84 344.8,-101.7 341.2,-107.7"/>
</a>
</g>
</g>
<!-- Node8 -->
<g id="Node000008" class="node">
<title>Node8</title>
<g id="a_Node000008"><a xlink:href="Engine_8hpp.html" target="_top" xlink:title="Defines the core Engine class responsible for running simulation.">
<polygon fill="white" stroke="#666666" points="419.5,-74 310.5,-74 310.5,-55 419.5,-55 419.5,-74"/>
<text text-anchor="middle" x="365" y="-62" font-family="Helvetica,sans-Serif" font-size="10.00">include/Engine.hpp</text>
</a>
</g>
</g>
<!-- Node7&#45;&gt;Node8 -->
<g id="edge9_Node000007_Node000008" class="edge">
<title>Node7&#45;&gt;Node8</title>
<g id="a_edge9_Node000007_Node000008"><a xlink:title=" ">
<path fill="none" stroke="#63b8ff" d="M365.64,-99.66C365.48,-90.93 365.29,-80.99 365.16,-74.09"/>
<polygon fill="#63b8ff" stroke="#63b8ff" points="362.15,-99.82 365.83,-109.75 369.15,-99.68 362.15,-99.82"/>
</a>
</g>
</g>
<!-- Node8&#45;&gt;Node2 -->
<g id="edge10_Node000008_Node000002" class="edge">
<title>Node8&#45;&gt;Node2</title>
<g id="a_edge10_Node000008_Node000002"><a xlink:title=" ">
<path fill="none" stroke="#63b8ff" d="M326.35,-52.06C292.89,-42.15 245.25,-28.04 214.98,-19.08"/>
<polygon fill="#63b8ff" stroke="#63b8ff" points="325.66,-55.5 336.24,-54.98 327.65,-48.79 325.66,-55.5"/>
</a>
</g>
</g>
<!-- Node9&#45;&gt;Node2 -->
<g id="edge13_Node000009_Node000002" class="edge">
<title>Node9&#45;&gt;Node2</title>
<g id="a_edge13_Node000009_Node000002"><a xlink:title=" ">
<path fill="none" stroke="#63b8ff" d="M331.56,-161.39C312.78,-153.98 290.26,-143.18 273,-129 232.77,-95.95 201.41,-40.32 190.33,-19.09"/>
<polygon fill="#63b8ff" stroke="#63b8ff" points="330.4,-164.7 341,-164.96 332.88,-158.15 330.4,-164.7"/>
</a>
</g>
</g>
<!-- Node9&#45;&gt;Node7 -->
<g id="edge14_Node000009_Node000007" class="edge">
<title>Node9&#45;&gt;Node7</title>
<g id="a_edge14_Node000009_Node000007"><a xlink:title=" ">
<path fill="none" stroke="#63b8ff" d="M367.29,-154.66C366.96,-145.93 366.58,-135.99 366.32,-129.09"/>
<polygon fill="#63b8ff" stroke="#63b8ff" points="363.8,-154.89 367.67,-164.75 370.79,-154.62 363.8,-154.89"/>
</a>
</g>
</g>
<!-- Node10&#45;&gt;Node2 -->
<g id="edge17_Node000010_Node000002" class="edge">
<title>Node10&#45;&gt;Node2</title>
<g id="a_edge17_Node000010_Node000002"><a xlink:title=" ">
<path fill="none" stroke="#63b8ff" d="M94.65,-215.22C82.19,-207.93 68.96,-197.56 62,-184 35.82,-132.99 29.01,-101.89 62,-55 75.23,-36.2 97.18,-25.3 118.97,-19"/>
<polygon fill="#63b8ff" stroke="#63b8ff" points="93.02,-218.32 103.48,-220 96.35,-212.16 93.02,-218.32"/>
</a>
</g>
</g>
</g>
</svg>
