<?xml version="1.0" encoding="UTF-8" standalone="no"?>
<!DOCTYPE svg PUBLIC "-//W3C//DTD SVG 1.1//EN"
 "http://www.w3.org/Graphics/SVG/1.1/DTD/svg11.dtd">
<!-- Generated by graphviz version 2.43.0 (0)
 -->
<!-- Title: include/rendering/Shader.hpp Pages: 1 -->
<svg width="522pt" height="423pt"
 viewBox="0.00 0.00 521.72 423.00" xmlns="http://www.w3.org/2000/svg" xmlns:xlink="http://www.w3.org/1999/xlink">
<g id="graph0" class="graph" transform="scale(1 1) rotate(0) translate(4 419)">
<title>include/rendering/Shader.hpp</title>
<!-- Node1 -->
<g id="Node000001" class="node">
<title>Node1</title>
<g id="a_Node000001"><a xlink:title="Manages OpenGL shaders.">
<polygon fill="#999999" stroke="#666666" points="158,-415 0,-415 0,-396 158,-396 158,-415"/>
<text text-anchor="middle" x="79" y="-403" font-family="Helvetica,sans-Serif" font-size="10.00">include/rendering/Shader.hpp</text>
</a>
</g>
</g>
<!-- Node2 -->
<g id="Node000002" class="node">
<title>Node2</title>
<g id="a_Node000002"><a xlink:href="FrameEngine_8hpp_source.html" target="_top" xlink:title=" ">
<polygon fill="white" stroke="#666666" points="357,-19 217,-19 217,0 357,0 357,-19"/>
<text text-anchor="middle" x="287" y="-7" font-family="Helvetica,sans-Serif" font-size="10.00">include/FrameEngine.hpp</text>
</a>
</g>
</g>
<!-- Node1&#45;&gt;Node2 -->
<g id="edge1_Node000001_Node000002" class="edge">
<title>Node1&#45;&gt;Node2</title>
<g id="a_edge1_Node000001_Node000002"><a xlink:title=" ">
<path fill="none" stroke="#63b8ff" d="M69.2,-387C57.94,-365.21 41,-326.52 41,-291 41,-291 41,-291 41,-118.5 41,-41.19 144.12,-18.72 216.84,-12.48"/>
<polygon fill="#63b8ff" stroke="#63b8ff" points="66.22,-388.84 74.03,-396 72.39,-385.53 66.22,-388.84"/>
</a>
</g>
</g>
<!-- Node3 -->
<g id="Node000003" class="node">
<title>Node3</title>
<g id="a_Node000003"><a xlink:href="Material_8hpp_source.html" target="_top" xlink:title=" ">
<polygon fill="white" stroke="#666666" points="273,-360 107,-360 107,-341 273,-341 273,-360"/>
<text text-anchor="middle" x="190" y="-348" font-family="Helvetica,sans-Serif" font-size="10.00">include/rendering/Material.hpp</text>
</a>
</g>
</g>
<!-- Node1&#45;&gt;Node3 -->
<g id="edge2_Node000001_Node000003" class="edge">
<title>Node1&#45;&gt;Node3</title>
<g id="a_edge2_Node000001_Node000003"><a xlink:title=" ">
<path fill="none" stroke="#63b8ff" d="M105.95,-391.63C126.39,-381.87 153.95,-368.71 171.84,-360.17"/>
<polygon fill="#63b8ff" stroke="#63b8ff" points="104.35,-388.52 96.83,-395.98 107.37,-394.83 104.35,-388.52"/>
</a>
</g>
</g>
<!-- Node7 -->
<g id="Node000007" class="node">
<title>Node7</title>
<g id="a_Node000007"><a xlink:href="Renderer_8hpp.html" target="_top" xlink:title="Manages the rendering pipeline and object submission.">
<polygon fill="white" stroke="#666666" points="274.5,-129 105.5,-129 105.5,-110 274.5,-110 274.5,-129"/>
<text text-anchor="middle" x="190" y="-117" font-family="Helvetica,sans-Serif" font-size="10.00">include/rendering/Renderer.hpp</text>
</a>
</g>
</g>
<!-- Node1&#45;&gt;Node7 -->
<g id="edge17_Node000001_Node000007" class="edge">
<title>Node1&#45;&gt;Node7</title>
<g id="a_edge17_Node000001_Node000007"><a xlink:title=" ">
<path fill="none" stroke="#63b8ff" d="M79,-385.81C79,-363.31 79,-324.39 79,-291 79,-291 79,-291 79,-228.5 79,-178.49 137.6,-144.14 169.64,-129.09"/>
<polygon fill="#63b8ff" stroke="#63b8ff" points="75.5,-385.96 79,-395.96 82.5,-385.96 75.5,-385.96"/>
</a>
</g>
</g>
<!-- Node4 -->
<g id="Node000004" class="node">
<title>Node4</title>
<g id="a_Node000004"><a xlink:href="MaterialComponent_8hpp_source.html" target="_top" xlink:title=" ">
<polygon fill="white" stroke="#666666" points="340.5,-305 203.5,-305 203.5,-275 340.5,-275 340.5,-305"/>
<text text-anchor="start" x="211.5" y="-293" font-family="Helvetica,sans-Serif" font-size="10.00">include/components</text>
<text text-anchor="middle" x="272" y="-282" font-family="Helvetica,sans-Serif" font-size="10.00">/MaterialComponent.hpp</text>
</a>
</g>
</g>
<!-- Node3&#45;&gt;Node4 -->
<g id="edge3_Node000003_Node000004" class="edge">
<title>Node3&#45;&gt;Node4</title>
<g id="a_edge3_Node000003_Node000004"><a xlink:title=" ">
<path fill="none" stroke="#63b8ff" d="M210.28,-335.03C223.08,-325.9 239.52,-314.17 252.22,-305.11"/>
<polygon fill="#63b8ff" stroke="#63b8ff" points="208.21,-332.21 202.1,-340.87 212.27,-337.91 208.21,-332.21"/>
</a>
</g>
</g>
<!-- Node5 -->
<g id="Node000005" class="node">
<title>Node5</title>
<g id="a_Node000005"><a xlink:href="Object_8hpp.html" target="_top" xlink:title="Defines the Object class, a special ECS entity wrapper.">
<polygon fill="white" stroke="#666666" points="315,-239 169,-239 169,-220 315,-220 315,-239"/>
<text text-anchor="middle" x="242" y="-227" font-family="Helvetica,sans-Serif" font-size="10.00">include/objects/Object.hpp</text>
</a>
</g>
</g>
<!-- Node3&#45;&gt;Node5 -->
<g id="edge16_Node000003_Node000005" class="edge">
<title>Node3&#45;&gt;Node5</title>
<g id="a_edge16_Node000003_Node000005"><a xlink:title=" ">
<path fill="none" stroke="#63b8ff" d="M187.6,-330.71C186.43,-315.05 186.74,-292.56 195,-275 202.18,-259.75 217.08,-247.09 228.19,-239.23"/>
<polygon fill="#63b8ff" stroke="#63b8ff" points="184.12,-331.13 188.61,-340.73 191.09,-330.43 184.12,-331.13"/>
</a>
</g>
</g>
<!-- Node4&#45;&gt;Node5 -->
<g id="edge4_Node000004_Node000005" class="edge">
<title>Node4&#45;&gt;Node5</title>
<g id="a_edge4_Node000004_Node000005"><a xlink:title=" ">
<path fill="none" stroke="#63b8ff" d="M260.17,-265.92C255.37,-256.56 250.11,-246.32 246.5,-239.27"/>
<polygon fill="#63b8ff" stroke="#63b8ff" points="257.06,-267.54 264.74,-274.84 263.29,-264.34 257.06,-267.54"/>
</a>
</g>
</g>
<!-- Node5&#45;&gt;Node2 -->
<g id="edge5_Node000005_Node000002" class="edge">
<title>Node5&#45;&gt;Node2</title>
<g id="a_edge5_Node000005_Node000002"><a xlink:title=" ">
<path fill="none" stroke="#63b8ff" d="M325.13,-225.45C391.83,-221.05 477.86,-210.29 500,-184 563.45,-108.67 385.94,-41.98 314.93,-19"/>
<polygon fill="#63b8ff" stroke="#63b8ff" points="324.79,-221.96 315.03,-226.08 325.22,-228.95 324.79,-221.96"/>
</a>
</g>
</g>
<!-- Node6 -->
<g id="Node000006" class="node">
<title>Node6</title>
<g id="a_Node000006"><a xlink:href="PointLight_8hpp_source.html" target="_top" xlink:title=" ">
<polygon fill="white" stroke="#666666" points="490.5,-184 327.5,-184 327.5,-165 490.5,-165 490.5,-184"/>
<text text-anchor="middle" x="409" y="-172" font-family="Helvetica,sans-Serif" font-size="10.00">include/objects/PointLight.hpp</text>
</a>
</g>
</g>
<!-- Node5&#45;&gt;Node6 -->
<g id="edge6_Node000005_Node000006" class="edge">
<title>Node5&#45;&gt;Node6</title>
<g id="a_edge6_Node000005_Node000006"><a xlink:title=" ">
<path fill="none" stroke="#63b8ff" d="M278.46,-216.93C309.66,-207.03 353.84,-193.01 381.96,-184.08"/>
<polygon fill="#63b8ff" stroke="#63b8ff" points="277.3,-213.62 268.83,-219.98 279.42,-220.3 277.3,-213.62"/>
</a>
</g>
</g>
<!-- Node5&#45;&gt;Node7 -->
<g id="edge15_Node000005_Node000007" class="edge">
<title>Node5&#45;&gt;Node7</title>
<g id="a_edge15_Node000005_Node000007"><a xlink:title=" ">
<path fill="none" stroke="#63b8ff" d="M181.6,-216.64C163.93,-210.06 146.53,-199.85 136,-184 121.9,-162.79 152.71,-140.73 173.34,-129.01"/>
<polygon fill="#63b8ff" stroke="#63b8ff" points="180.82,-220.07 191.41,-219.94 183.05,-213.44 180.82,-220.07"/>
</a>
</g>
</g>
<!-- Node9 -->
<g id="Node000009" class="node">
<title>Node9</title>
<g id="a_Node000009"><a xlink:href="Camera_8hpp.html" target="_top" xlink:title="Defines the Camera class for view and projection.">
<polygon fill="white" stroke="#666666" points="309,-184 145,-184 145,-165 309,-165 309,-184"/>
<text text-anchor="middle" x="227" y="-172" font-family="Helvetica,sans-Serif" font-size="10.00">include/rendering/Camera.hpp</text>
</a>
</g>
</g>
<!-- Node5&#45;&gt;Node9 -->
<g id="edge12_Node000005_Node000009" class="edge">
<title>Node5&#45;&gt;Node9</title>
<g id="a_edge12_Node000005_Node000009"><a xlink:title=" ">
<path fill="none" stroke="#63b8ff" d="M236.75,-209.95C234.26,-201.15 231.4,-191.06 229.43,-184.09"/>
<polygon fill="#63b8ff" stroke="#63b8ff" points="233.43,-211.08 239.52,-219.75 240.17,-209.17 233.43,-211.08"/>
</a>
</g>
</g>
<!-- Node6&#45;&gt;Node2 -->
<g id="edge7_Node000006_Node000002" class="edge">
<title>Node6&#45;&gt;Node2</title>
<g id="a_edge7_Node000006_Node000002"><a xlink:title=" ">
<path fill="none" stroke="#63b8ff" d="M397.21,-156.26C381.13,-132.94 351.21,-90.21 324,-55 314.17,-42.28 302.17,-28.08 294.56,-19.21"/>
<polygon fill="#63b8ff" stroke="#63b8ff" points="394.47,-158.46 403.02,-164.72 400.24,-154.5 394.47,-158.46"/>
</a>
</g>
</g>
<!-- Node6&#45;&gt;Node7 -->
<g id="edge8_Node000006_Node000007" class="edge">
<title>Node6&#45;&gt;Node7</title>
<g id="a_edge8_Node000006_Node000007"><a xlink:title=" ">
<path fill="none" stroke="#63b8ff" d="M364.07,-162.63C323.05,-152.7 263.21,-138.22 225.46,-129.08"/>
<polygon fill="#63b8ff" stroke="#63b8ff" points="363.27,-166.03 373.81,-164.98 364.92,-159.23 363.27,-166.03"/>
</a>
</g>
</g>
<!-- Node7&#45;&gt;Node2 -->
<g id="edge11_Node000007_Node000002" class="edge">
<title>Node7&#45;&gt;Node2</title>
<g id="a_edge11_Node000007_Node000002"><a xlink:title=" ">
<path fill="none" stroke="#63b8ff" d="M182.06,-100.22C177.5,-86.66 174.23,-68.29 183,-55 195.38,-36.23 217.5,-25.35 238.15,-19.05"/>
<polygon fill="#63b8ff" stroke="#63b8ff" points="178.93,-101.81 185.8,-109.87 185.46,-99.28 178.93,-101.81"/>
</a>
</g>
</g>
<!-- Node8 -->
<g id="Node000008" class="node">
<title>Node8</title>
<g id="a_Node000008"><a xlink:href="Engine_8hpp.html" target="_top" xlink:title="Defines the core Engine class responsible for running simulation.">
<polygon fill="white" stroke="#666666" points="300.5,-74 191.5,-74 191.5,-55 300.5,-55 300.5,-74"/>
<text text-anchor="middle" x="246" y="-62" font-family="Helvetica,sans-Serif" font-size="10.00">include/Engine.hpp</text>
</a>
</g>
</g>
<!-- Node7&#45;&gt;Node8 -->
<g id="edge9_Node000007_Node000008" class="edge">
<title>Node7&#45;&gt;Node8</title>
<g id="a_edge9_Node000007_Node000008"><a xlink:title=" ">
<path fill="none" stroke="#63b8ff" d="M206.33,-103.04C216.26,-93.64 228.59,-81.98 236.84,-74.17"/>
<polygon fill="#63b8ff" stroke="#63b8ff" points="203.85,-100.57 199,-109.98 208.67,-105.65 203.85,-100.57"/>
</a>
</g>
</g>
<!-- Node8&#45;&gt;Node2 -->
<g id="edge10_Node000008_Node000002" class="edge">
<title>Node8&#45;&gt;Node2</title>
<g id="a_edge10_Node000008_Node000002"><a xlink:title=" ">
<path fill="none" stroke="#63b8ff" d="M259.02,-46.67C266.12,-37.5 274.6,-26.52 280.36,-19.09"/>
<polygon fill="#63b8ff" stroke="#63b8ff" points="256.12,-44.7 252.77,-54.75 261.66,-48.98 256.12,-44.7"/>
</a>
</g>
</g>
<!-- Node9&#45;&gt;Node2 -->
<g id="edge13_Node000009_Node000002" class="edge">
<title>Node9&#45;&gt;Node2</title>
<g id="a_edge13_Node000009_Node000002"><a xlink:title=" ">
<path fill="none" stroke="#63b8ff" d="M249.73,-158.98C260.78,-151.1 273.66,-140.6 283,-129 300.08,-107.79 303.84,-100.53 310,-74 314.67,-53.9 302.05,-31.42 293.7,-19.34"/>
<polygon fill="#63b8ff" stroke="#63b8ff" points="247.63,-156.18 241.36,-164.71 251.58,-161.95 247.63,-156.18"/>
</a>
</g>
</g>
<!-- Node9&#45;&gt;Node7 -->
<g id="edge14_Node000009_Node000007" class="edge">
<title>Node9&#45;&gt;Node7</title>
<g id="a_edge14_Node000009_Node000007"><a xlink:title=" ">
<path fill="none" stroke="#63b8ff" d="M215.05,-156.39C208.69,-147.27 201.13,-136.45 196,-129.09"/>
<polygon fill="#63b8ff" stroke="#63b8ff" points="212.3,-158.55 220.89,-164.75 218.04,-154.55 212.3,-158.55"/>
</a>
</g>
</g>
</g>
</svg>
