<?xml version="1.0" encoding="UTF-8" standalone="no"?>
<!DOCTYPE svg PUBLIC "-//W3C//DTD SVG 1.1//EN"
 "http://www.w3.org/Graphics/SVG/1.1/DTD/svg11.dtd">
<!-- Generated by graphviz version 12.2.1 (0)
 -->
<!-- Title: PhysicsComponent Pages: 1 -->
<svg width="140pt" height="413pt"
 viewBox="0.00 0.00 139.62 412.50" xmlns="http://www.w3.org/2000/svg" xmlns:xlink="http://www.w3.org/1999/xlink">
<g id="graph0" class="graph" transform="scale(1 1) rotate(0) translate(4 408.5)">
<title>PhysicsComponent</title>
<!-- Node1 -->
<g id="Node000001" class="node">
<title>Node1</title>
<g id="a_Node000001"><a xlink:title="Represents the physical properties of an entity in the ECS.">
<polygon fill="#999999" stroke="none" points="120.75,-54.25 0,-54.25 0,0 120.75,0 120.75,-54.25"/>
<text text-anchor="start" x="13.88" y="-40.75" font-family="Helvetica,sans-Serif" font-size="10.00">PhysicsComponent</text>
<text text-anchor="start" x="4" y="-24" font-family="Helvetica,sans-Serif" font-size="10.00">+</text>
<text text-anchor="start" x="16.25" y="-24" font-family="Helvetica,sans-Serif" font-size="10.00">mass</text>
<text text-anchor="start" x="4" y="-7.25" font-family="Helvetica,sans-Serif" font-size="10.00">+</text>
<text text-anchor="start" x="16.25" y="-7.25" font-family="Helvetica,sans-Serif" font-size="10.00">PhysicsComponent()</text>
<polygon fill="#666666" stroke="#666666" points="0,-35.5 0,-35.5 120.75,-35.5 120.75,-35.5 0,-35.5"/>
<polygon fill="#666666" stroke="#666666" points="0,-18.75 0,-18.75 14.25,-18.75 14.25,-18.75 0,-18.75"/>
<polygon fill="#666666" stroke="#666666" points="14.25,-18.75 14.25,-18.75 120.75,-18.75 120.75,-18.75 14.25,-18.75"/>
<polygon fill="none" stroke="#666666" points="0,0 0,-54.25 120.75,-54.25 120.75,0 0,0"/>
</a>
</g>
</g>
<!-- Node2 -->
<g id="Node000002" class="node">
<title>Node2</title>
<g id="a_Node000002"><a xlink:href="classVector3.html" target="_top" xlink:title=" ">
<polygon fill="white" stroke="none" points="103.12,-404.5 17.62,-404.5 17.62,-115.75 103.12,-115.75 103.12,-404.5"/>
<text text-anchor="start" x="41.62" y="-391" font-family="Helvetica,sans-Serif" font-size="10.00">Vector3</text>
<text text-anchor="start" x="21.62" y="-374.25" font-family="Helvetica,sans-Serif" font-size="10.00">+</text>
<text text-anchor="start" x="33.88" y="-374.25" font-family="Helvetica,sans-Serif" font-size="10.00">x</text>
<text text-anchor="start" x="21.62" y="-357.5" font-family="Helvetica,sans-Serif" font-size="10.00">+</text>
<text text-anchor="start" x="33.88" y="-357.5" font-family="Helvetica,sans-Serif" font-size="10.00">y</text>
<text text-anchor="start" x="21.62" y="-340.75" font-family="Helvetica,sans-Serif" font-size="10.00">+</text>
<text text-anchor="start" x="33.88" y="-340.75" font-family="Helvetica,sans-Serif" font-size="10.00">z</text>
<text text-anchor="start" x="21.62" y="-324" font-family="Helvetica,sans-Serif" font-size="10.00">+</text>
<text text-anchor="start" x="33.88" y="-324" font-family="Helvetica,sans-Serif" font-size="10.00">Vector3()</text>
<text text-anchor="start" x="21.62" y="-307.25" font-family="Helvetica,sans-Serif" font-size="10.00">+</text>
<text text-anchor="start" x="33.88" y="-307.25" font-family="Helvetica,sans-Serif" font-size="10.00">operator+()</text>
<text text-anchor="start" x="21.62" y="-290.5" font-family="Helvetica,sans-Serif" font-size="10.00">+</text>
<text text-anchor="start" x="33.88" y="-290.5" font-family="Helvetica,sans-Serif" font-size="10.00">operator&#45;()</text>
<text text-anchor="start" x="21.62" y="-273.75" font-family="Helvetica,sans-Serif" font-size="10.00">+</text>
<text text-anchor="start" x="33.88" y="-273.75" font-family="Helvetica,sans-Serif" font-size="10.00">operator*()</text>
<text text-anchor="start" x="21.62" y="-257" font-family="Helvetica,sans-Serif" font-size="10.00">+</text>
<text text-anchor="start" x="33.88" y="-257" font-family="Helvetica,sans-Serif" font-size="10.00">operator*=()</text>
<text text-anchor="start" x="21.62" y="-240.25" font-family="Helvetica,sans-Serif" font-size="10.00">+</text>
<text text-anchor="start" x="33.88" y="-240.25" font-family="Helvetica,sans-Serif" font-size="10.00">operator/()</text>
<text text-anchor="start" x="21.62" y="-223.5" font-family="Helvetica,sans-Serif" font-size="10.00">+</text>
<text text-anchor="start" x="33.88" y="-223.5" font-family="Helvetica,sans-Serif" font-size="10.00">operator==()</text>
<text text-anchor="start" x="21.62" y="-206.75" font-family="Helvetica,sans-Serif" font-size="10.00">+</text>
<text text-anchor="start" x="33.88" y="-206.75" font-family="Helvetica,sans-Serif" font-size="10.00">operator+=()</text>
<text text-anchor="start" x="21.62" y="-190" font-family="Helvetica,sans-Serif" font-size="10.00">+</text>
<text text-anchor="start" x="33.88" y="-190" font-family="Helvetica,sans-Serif" font-size="10.00">magnitude()</text>
<text text-anchor="start" x="21.62" y="-173.25" font-family="Helvetica,sans-Serif" font-size="10.00">+</text>
<text text-anchor="start" x="33.88" y="-173.25" font-family="Helvetica,sans-Serif" font-size="10.00">normalized()</text>
<text text-anchor="start" x="21.62" y="-156.5" font-family="Helvetica,sans-Serif" font-size="10.00">+</text>
<text text-anchor="start" x="33.88" y="-156.5" font-family="Helvetica,sans-Serif" font-size="10.00">dot()</text>
<text text-anchor="start" x="21.62" y="-139.75" font-family="Helvetica,sans-Serif" font-size="10.00">+</text>
<text text-anchor="start" x="33.88" y="-139.75" font-family="Helvetica,sans-Serif" font-size="10.00">cross()</text>
<text text-anchor="start" x="21.62" y="-123" font-family="Helvetica,sans-Serif" font-size="10.00">+</text>
<text text-anchor="start" x="33.88" y="-123" font-family="Helvetica,sans-Serif" font-size="10.00">toString()</text>
<polygon fill="#bfbfbf" stroke="#bfbfbf" points="17.62,-385.75 17.62,-385.75 103.12,-385.75 103.12,-385.75 17.62,-385.75"/>
<polygon fill="#bfbfbf" stroke="#bfbfbf" points="17.62,-335.5 17.62,-335.5 31.88,-335.5 31.88,-335.5 17.62,-335.5"/>
<polygon fill="#bfbfbf" stroke="#bfbfbf" points="31.88,-335.5 31.88,-335.5 103.12,-335.5 103.12,-335.5 31.88,-335.5"/>
<polygon fill="none" stroke="#bfbfbf" points="17.62,-115.75 17.62,-404.5 103.12,-404.5 103.12,-115.75 17.62,-115.75"/>
</a>
</g>
</g>
<!-- Node2&#45;&gt;Node1 -->
<g id="edge1_Node000001_Node000002" class="edge">
<title>Node2&#45;&gt;Node1</title>
<g id="a_edge1_Node000001_Node000002"><a xlink:title=" ">
<path fill="none" stroke="#63b8ff" d="M60.38,-115.79C60.38,-97.79 60.38,-80.76 60.38,-66.58"/>
<polygon fill="none" stroke="#63b8ff" points="60.38,-66.81 56.38,-60.81 60.38,-54.81 64.38,-60.81 60.38,-66.81"/>
</a>
</g>
<text text-anchor="middle" x="96" y="-88.25" font-family="Helvetica,sans-Serif" font-size="10.00" fill="grey"> +acceleration</text>
<text text-anchor="middle" x="96" y="-75.5" font-family="Helvetica,sans-Serif" font-size="10.00" fill="grey">+velocity</text>
</g>
</g>
</svg>
