<?xml version="1.0" encoding="UTF-8" standalone="no"?>
<!DOCTYPE svg PUBLIC "-//W3C//DTD SVG 1.1//EN"
 "http://www.w3.org/Graphics/SVG/1.1/DTD/svg11.dtd">
<!-- Generated by graphviz version 2.43.0 (0)
 -->
<!-- Title: FrameEngine::MaterialComponent Pages: 1 -->
<svg width="185pt" height="429pt"
 viewBox="0.00 0.00 185.00 429.00" xmlns="http://www.w3.org/2000/svg" xmlns:xlink="http://www.w3.org/1999/xlink">
<g id="graph0" class="graph" transform="scale(1 1) rotate(0) translate(4 425)">
<title>FrameEngine::MaterialComponent</title>
<!-- Node1 -->
<g id="Node000001" class="node">
<title>Node1</title>
<g id="a_Node000001"><a xlink:title=" ">
<polygon fill="#999999" stroke="transparent" points="177,-49 0,-49 0,0 177,0 177,-49"/>
<text text-anchor="start" x="5.5" y="-36.5" font-family="Helvetica,sans-Serif" font-size="10.00">FrameEngine::MaterialComponent</text>
<text text-anchor="start" x="87" y="-21.5" font-family="Helvetica,sans-Serif" font-size="10.00"> </text>
<text text-anchor="start" x="17" y="-6.5" font-family="Helvetica,sans-Serif" font-size="10.00">+</text>
<text text-anchor="start" x="42.5" y="-6.5" font-family="Helvetica,sans-Serif" font-size="10.00">MaterialComponent()</text>
<polygon fill="#666666" stroke="#666666" points="0.5,-31.5 0.5,-31.5 177.5,-31.5 177.5,-31.5 0.5,-31.5"/>
<polygon fill="#666666" stroke="#666666" points="0.5,-16.5 0.5,-16.5 177.5,-16.5 177.5,-16.5 0.5,-16.5"/>
<polygon fill="none" stroke="#666666" points="0,0 0,-49 177,-49 177,0 0,0"/>
</a>
</g>
</g>
<!-- Node2 -->
<g id="Node000002" class="node">
<title>Node2</title>
<g id="a_Node000002"><a xlink:href="classFrameEngine_1_1Material.html" target="_top" xlink:title=" ">
<polygon fill="white" stroke="transparent" points="149,-190 28,-190 28,-96 149,-96 149,-190"/>
<text text-anchor="start" x="33.5" y="-178" font-family="Helvetica,sans-Serif" font-size="10.00">FrameEngine::Material</text>
<text text-anchor="start" x="87" y="-163" font-family="Helvetica,sans-Serif" font-size="10.00"> </text>
<text text-anchor="start" x="37.5" y="-148" font-family="Helvetica,sans-Serif" font-size="10.00">+</text>
<text text-anchor="start" x="55.5" y="-148" font-family="Helvetica,sans-Serif" font-size="10.00">Material()</text>
<text text-anchor="start" x="37.5" y="-133" font-family="Helvetica,sans-Serif" font-size="10.00">+</text>
<text text-anchor="start" x="55.5" y="-133" font-family="Helvetica,sans-Serif" font-size="10.00">~Material()</text>
<text text-anchor="start" x="37.5" y="-118" font-family="Helvetica,sans-Serif" font-size="10.00">+</text>
<text text-anchor="start" x="55.5" y="-118" font-family="Helvetica,sans-Serif" font-size="10.00">getShader()</text>
<text text-anchor="start" x="37.5" y="-103" font-family="Helvetica,sans-Serif" font-size="10.00">+</text>
<text text-anchor="start" x="55.5" y="-103" font-family="Helvetica,sans-Serif" font-size="10.00">applyUniforms()</text>
<polygon fill="#bfbfbf" stroke="#bfbfbf" points="28.5,-173 28.5,-173 149.5,-173 149.5,-173 28.5,-173"/>
<polygon fill="#bfbfbf" stroke="#bfbfbf" points="28.5,-158 28.5,-158 149.5,-158 149.5,-158 28.5,-158"/>
<polygon fill="none" stroke="#bfbfbf" points="28,-96 28,-190 149,-190 149,-96 28,-96"/>
</a>
</g>
</g>
<!-- Node2&#45;&gt;Node1 -->
<g id="edge1_Node000001_Node000002" class="edge">
<title>Node2&#45;&gt;Node1</title>
<g id="a_edge1_Node000001_Node000002"><a xlink:title=" ">
<path fill="none" stroke="#63b8ff" d="M88.5,-95.96C88.5,-84.44 88.5,-72.25 88.5,-61.31"/>
<polygon fill="none" stroke="#63b8ff" points="88.5,-61.15 84.5,-55.15 88.5,-49.15 92.5,-55.15 88.5,-61.15"/>
</a>
</g>
<text text-anchor="middle" x="115" y="-70" font-family="Helvetica,sans-Serif" font-size="10.00" fill="grey"> +material</text>
</g>
<!-- Node3 -->
<g id="Node000003" class="node">
<title>Node3</title>
<g id="a_Node000003"><a xlink:href="classFrameEngine_1_1Shader.html" target="_top" xlink:title=" ">
<polygon fill="white" stroke="transparent" points="145.5,-421 31.5,-421 31.5,-237 145.5,-237 145.5,-421"/>
<text text-anchor="start" x="36.5" y="-409" font-family="Helvetica,sans-Serif" font-size="10.00">FrameEngine::Shader</text>
<text text-anchor="start" x="86.5" y="-394" font-family="Helvetica,sans-Serif" font-size="10.00"> </text>
<text text-anchor="start" x="36.5" y="-379" font-family="Helvetica,sans-Serif" font-size="10.00">+</text>
<text text-anchor="start" x="50.5" y="-379" font-family="Helvetica,sans-Serif" font-size="10.00">Shader()</text>
<text text-anchor="start" x="36.5" y="-364" font-family="Helvetica,sans-Serif" font-size="10.00">+</text>
<text text-anchor="start" x="50.5" y="-364" font-family="Helvetica,sans-Serif" font-size="10.00">Shader()</text>
<text text-anchor="start" x="36.5" y="-349" font-family="Helvetica,sans-Serif" font-size="10.00">+</text>
<text text-anchor="start" x="50.5" y="-349" font-family="Helvetica,sans-Serif" font-size="10.00">~Shader()</text>
<text text-anchor="start" x="36.5" y="-334" font-family="Helvetica,sans-Serif" font-size="10.00">+</text>
<text text-anchor="start" x="50.5" y="-334" font-family="Helvetica,sans-Serif" font-size="10.00">bind()</text>
<text text-anchor="start" x="36.5" y="-319" font-family="Helvetica,sans-Serif" font-size="10.00">+</text>
<text text-anchor="start" x="50.5" y="-319" font-family="Helvetica,sans-Serif" font-size="10.00">unbind()</text>
<text text-anchor="start" x="36.5" y="-304" font-family="Helvetica,sans-Serif" font-size="10.00">+</text>
<text text-anchor="start" x="50.5" y="-304" font-family="Helvetica,sans-Serif" font-size="10.00">setUniformInt()</text>
<text text-anchor="start" x="36.5" y="-289" font-family="Helvetica,sans-Serif" font-size="10.00">+</text>
<text text-anchor="start" x="50.5" y="-289" font-family="Helvetica,sans-Serif" font-size="10.00">setUniformFloat()</text>
<text text-anchor="start" x="36.5" y="-274" font-family="Helvetica,sans-Serif" font-size="10.00">+</text>
<text text-anchor="start" x="50.5" y="-274" font-family="Helvetica,sans-Serif" font-size="10.00">setUniformVec3()</text>
<text text-anchor="start" x="36.5" y="-259" font-family="Helvetica,sans-Serif" font-size="10.00">+</text>
<text text-anchor="start" x="50.5" y="-259" font-family="Helvetica,sans-Serif" font-size="10.00">setUniformMat4()</text>
<text text-anchor="start" x="36.5" y="-244" font-family="Helvetica,sans-Serif" font-size="10.00">+</text>
<text text-anchor="start" x="50.5" y="-244" font-family="Helvetica,sans-Serif" font-size="10.00">getProgramID()</text>
<polygon fill="#bfbfbf" stroke="#bfbfbf" points="31.5,-404 31.5,-404 145.5,-404 145.5,-404 31.5,-404"/>
<polygon fill="#bfbfbf" stroke="#bfbfbf" points="31.5,-389 31.5,-389 145.5,-389 145.5,-389 31.5,-389"/>
<polygon fill="none" stroke="#bfbfbf" points="31.5,-237 31.5,-421 145.5,-421 145.5,-237 31.5,-237"/>
</a>
</g>
</g>
<!-- Node3&#45;&gt;Node2 -->
<g id="edge2_Node000002_Node000003" class="edge">
<title>Node3&#45;&gt;Node2</title>
<g id="a_edge2_Node000002_Node000003"><a xlink:title=" ">
<path fill="none" stroke="#63b8ff" d="M88.5,-236.81C88.5,-225.12 88.5,-213.42 88.5,-202.45"/>
<polygon fill="none" stroke="#63b8ff" points="88.5,-202.42 84.5,-196.42 88.5,-190.42 92.5,-196.42 88.5,-202.42"/>
</a>
</g>
<text text-anchor="middle" x="111" y="-211" font-family="Helvetica,sans-Serif" font-size="10.00" fill="grey"> #shader</text>
</g>
</g>
</svg>
