<?xml version="1.0" encoding="UTF-8" standalone="no"?>
<!DOCTYPE svg PUBLIC "-//W3C//DTD SVG 1.1//EN"
 "http://www.w3.org/Graphics/SVG/1.1/DTD/svg11.dtd">
<!-- Generated by graphviz version 2.43.0 (0)
 -->
<!-- Title: FrameEngine::MeshComponent Pages: 1 -->
<svg width="171pt" height="318pt"
 viewBox="0.00 0.00 171.00 318.00" xmlns="http://www.w3.org/2000/svg" xmlns:xlink="http://www.w3.org/1999/xlink">
<g id="graph0" class="graph" transform="scale(1 1) rotate(0) translate(4 314)">
<title>FrameEngine::MeshComponent</title>
<!-- Node1 -->
<g id="Node000001" class="node">
<title>Node1</title>
<g id="a_Node000001"><a xlink:title=" ">
<polygon fill="#999999" stroke="transparent" points="163,-79 0,-79 0,0 163,0 163,-79"/>
<text text-anchor="start" x="5.5" y="-66.5" font-family="Helvetica,sans-Serif" font-size="10.00">FrameEngine::MeshComponent</text>
<text text-anchor="start" x="17" y="-51.5" font-family="Helvetica,sans-Serif" font-size="10.00">+</text>
<text text-anchor="start" x="42.5" y="-51.5" font-family="Helvetica,sans-Serif" font-size="10.00">wireframe</text>
<text text-anchor="start" x="17" y="-36.5" font-family="Helvetica,sans-Serif" font-size="10.00">+</text>
<text text-anchor="start" x="42.5" y="-36.5" font-family="Helvetica,sans-Serif" font-size="10.00">MeshComponent()</text>
<text text-anchor="start" x="17" y="-21.5" font-family="Helvetica,sans-Serif" font-size="10.00">+</text>
<text text-anchor="start" x="42.5" y="-21.5" font-family="Helvetica,sans-Serif" font-size="10.00">setWireframe()</text>
<text text-anchor="start" x="17" y="-6.5" font-family="Helvetica,sans-Serif" font-size="10.00">+</text>
<text text-anchor="start" x="42.5" y="-6.5" font-family="Helvetica,sans-Serif" font-size="10.00">isWireframe()</text>
<polygon fill="#666666" stroke="#666666" points="0.5,-61.5 0.5,-61.5 163.5,-61.5 163.5,-61.5 0.5,-61.5"/>
<polygon fill="#666666" stroke="#666666" points="0.5,-46.5 0.5,-46.5 40.5,-46.5 40.5,-46.5 0.5,-46.5"/>
<polygon fill="#666666" stroke="#666666" points="40.5,-46.5 40.5,-46.5 163.5,-46.5 163.5,-46.5 40.5,-46.5"/>
<polygon fill="none" stroke="#666666" points="0,0 0,-79 163,-79 163,0 0,0"/>
</a>
</g>
</g>
<!-- Node2 -->
<g id="Node000002" class="node">
<title>Node2</title>
<g id="a_Node000002"><a xlink:href="classFrameEngine_1_1Mesh.html" target="_top" xlink:title="The Mesh class encapsulates geometry data and uploads it to the GPU.">
<polygon fill="white" stroke="transparent" points="148,-310 15,-310 15,-126 148,-126 148,-310"/>
<text text-anchor="start" x="33.5" y="-298" font-family="Helvetica,sans-Serif" font-size="10.00">FrameEngine::Mesh</text>
<text text-anchor="start" x="80" y="-283" font-family="Helvetica,sans-Serif" font-size="10.00"> </text>
<text text-anchor="start" x="19.5" y="-268" font-family="Helvetica,sans-Serif" font-size="10.00">+</text>
<text text-anchor="start" x="32.5" y="-268" font-family="Helvetica,sans-Serif" font-size="10.00">Mesh()</text>
<text text-anchor="start" x="19.5" y="-253" font-family="Helvetica,sans-Serif" font-size="10.00">+</text>
<text text-anchor="start" x="32.5" y="-253" font-family="Helvetica,sans-Serif" font-size="10.00">Mesh()</text>
<text text-anchor="start" x="19.5" y="-238" font-family="Helvetica,sans-Serif" font-size="10.00">+</text>
<text text-anchor="start" x="32.5" y="-238" font-family="Helvetica,sans-Serif" font-size="10.00">~Mesh()</text>
<text text-anchor="start" x="19.5" y="-223" font-family="Helvetica,sans-Serif" font-size="10.00">+</text>
<text text-anchor="start" x="32.5" y="-223" font-family="Helvetica,sans-Serif" font-size="10.00">draw()</text>
<text text-anchor="start" x="19.5" y="-208" font-family="Helvetica,sans-Serif" font-size="10.00">+</text>
<text text-anchor="start" x="32.5" y="-208" font-family="Helvetica,sans-Serif" font-size="10.00">getVertexData()</text>
<text text-anchor="start" x="19.5" y="-193" font-family="Helvetica,sans-Serif" font-size="10.00">+</text>
<text text-anchor="start" x="32.5" y="-193" font-family="Helvetica,sans-Serif" font-size="10.00">getVAO()</text>
<text text-anchor="start" x="19.5" y="-178" font-family="Helvetica,sans-Serif" font-size="10.00">+</text>
<text text-anchor="start" x="32.5" y="-178" font-family="Helvetica,sans-Serif" font-size="10.00">getVBO()</text>
<text text-anchor="start" x="19.5" y="-163" font-family="Helvetica,sans-Serif" font-size="10.00">+</text>
<text text-anchor="start" x="32.5" y="-163" font-family="Helvetica,sans-Serif" font-size="10.00">updateVertexPosition()</text>
<text text-anchor="start" x="19.5" y="-148" font-family="Helvetica,sans-Serif" font-size="10.00">+</text>
<text text-anchor="start" x="32.5" y="-148" font-family="Helvetica,sans-Serif" font-size="10.00">updateBuffer()</text>
<text text-anchor="start" x="19.5" y="-133" font-family="Helvetica,sans-Serif" font-size="10.00">+</text>
<text text-anchor="start" x="32.5" y="-133" font-family="Helvetica,sans-Serif" font-size="10.00">loadFromOBJ()</text>
<polygon fill="#666666" stroke="#666666" points="15.5,-293 15.5,-293 148.5,-293 148.5,-293 15.5,-293"/>
<polygon fill="#666666" stroke="#666666" points="15.5,-278 15.5,-278 148.5,-278 148.5,-278 15.5,-278"/>
<polygon fill="none" stroke="#666666" points="15,-126 15,-310 148,-310 148,-126 15,-126"/>
</a>
</g>
</g>
<!-- Node2&#45;&gt;Node1 -->
<g id="edge1_Node000001_Node000002" class="edge">
<title>Node2&#45;&gt;Node1</title>
<g id="a_edge1_Node000001_Node000002"><a xlink:title=" ">
<path fill="none" stroke="#63b8ff" d="M81.5,-125.91C81.5,-114.03 81.5,-102.23 81.5,-91.35"/>
<polygon fill="none" stroke="#63b8ff" points="81.5,-91.06 77.5,-85.06 81.5,-79.06 85.5,-85.06 81.5,-91.06"/>
</a>
</g>
<text text-anchor="middle" x="101" y="-100" font-family="Helvetica,sans-Serif" font-size="10.00" fill="grey"> +mesh</text>
</g>
</g>
</svg>
