<?xml version="1.0" encoding="UTF-8" standalone="no"?>
<!DOCTYPE svg PUBLIC "-//W3C//DTD SVG 1.1//EN"
 "http://www.w3.org/Graphics/SVG/1.1/DTD/svg11.dtd">
<!-- Generated by graphviz version 2.43.0 (0)
 -->
<!-- Title: FrameEngine::LightingUBOData Pages: 1 -->
<svg width="172pt" height="183pt"
 viewBox="0.00 0.00 172.00 183.00" xmlns="http://www.w3.org/2000/svg" xmlns:xlink="http://www.w3.org/1999/xlink">
<g id="graph0" class="graph" transform="scale(1 1) rotate(0) translate(4 179)">
<title>FrameEngine::LightingUBOData</title>
<!-- Node1 -->
<g id="Node000001" class="node">
<title>Node1</title>
<g id="a_Node000001"><a xlink:title=" ">
<polygon fill="#999999" stroke="transparent" points="164,-64 0,-64 0,0 164,0 164,-64"/>
<text text-anchor="start" x="5" y="-52" font-family="Helvetica,sans-Serif" font-size="10.00">FrameEngine::LightingUBOData</text>
<text text-anchor="start" x="26.5" y="-37" font-family="Helvetica,sans-Serif" font-size="10.00">+</text>
<text text-anchor="start" x="62" y="-37" font-family="Helvetica,sans-Serif" font-size="10.00">numLights</text>
<text text-anchor="start" x="26.5" y="-22" font-family="Helvetica,sans-Serif" font-size="10.00">+</text>
<text text-anchor="start" x="62" y="-22" font-family="Helvetica,sans-Serif" font-size="10.00">padding</text>
<text text-anchor="start" x="80" y="-7" font-family="Helvetica,sans-Serif" font-size="10.00"> </text>
<polygon fill="#666666" stroke="#666666" points="0,-47 0,-47 164,-47 164,-47 0,-47"/>
<polygon fill="#666666" stroke="#666666" points="0,-17 0,-17 60,-17 60,-17 0,-17"/>
<polygon fill="#666666" stroke="#666666" points="60,-17 60,-17 164,-17 164,-17 60,-17"/>
<polygon fill="none" stroke="#666666" points="0,0 0,-64 164,-64 164,0 0,0"/>
</a>
</g>
</g>
<!-- Node2 -->
<g id="Node000002" class="node">
<title>Node2</title>
<g id="a_Node000002"><a xlink:href="structFrameEngine_1_1LightData.html" target="_top" xlink:title=" ">
<polygon fill="white" stroke="transparent" points="146,-175 18,-175 18,-111 146,-111 146,-175"/>
<text text-anchor="start" x="23" y="-163" font-family="Helvetica,sans-Serif" font-size="10.00">FrameEngine::LightData</text>
<text text-anchor="start" x="38.5" y="-148" font-family="Helvetica,sans-Serif" font-size="10.00">+</text>
<text text-anchor="start" x="68" y="-148" font-family="Helvetica,sans-Serif" font-size="10.00">position</text>
<text text-anchor="start" x="38.5" y="-133" font-family="Helvetica,sans-Serif" font-size="10.00">+</text>
<text text-anchor="start" x="68" y="-133" font-family="Helvetica,sans-Serif" font-size="10.00">color</text>
<text text-anchor="start" x="80" y="-118" font-family="Helvetica,sans-Serif" font-size="10.00"> </text>
<polygon fill="#bfbfbf" stroke="#bfbfbf" points="18,-158 18,-158 146,-158 146,-158 18,-158"/>
<polygon fill="#bfbfbf" stroke="#bfbfbf" points="18,-128 18,-128 66,-128 66,-128 18,-128"/>
<polygon fill="#bfbfbf" stroke="#bfbfbf" points="66,-128 66,-128 146,-128 146,-128 66,-128"/>
<polygon fill="none" stroke="#bfbfbf" points="18,-111 18,-175 146,-175 146,-111 18,-111"/>
</a>
</g>
</g>
<!-- Node2&#45;&gt;Node1 -->
<g id="edge1_Node000001_Node000002" class="edge">
<title>Node2&#45;&gt;Node1</title>
<g id="a_edge1_Node000001_Node000002"><a xlink:title=" ">
<path fill="none" stroke="#63b8ff" d="M82,-110.76C82,-100.05 82,-87.85 82,-76.35"/>
<polygon fill="none" stroke="#63b8ff" points="82,-76.24 78,-70.24 82,-64.24 86,-70.24 82,-76.24"/>
</a>
</g>
<text text-anchor="middle" x="101.5" y="-85" font-family="Helvetica,sans-Serif" font-size="10.00" fill="grey"> +lights</text>
</g>
</g>
</svg>
