<?xml version="1.0" encoding="UTF-8" standalone="no"?>
<!DOCTYPE svg PUBLIC "-//W3C//DTD SVG 1.1//EN"
 "http://www.w3.org/Graphics/SVG/1.1/DTD/svg11.dtd">
<!-- Generated by graphviz version 2.43.0 (0)
 -->
<!-- Title: include/components/TransformComponent.hpp Pages: 1 -->
<svg width="484pt" height="324pt"
 viewBox="0.00 0.00 483.71 324.00" xmlns="http://www.w3.org/2000/svg" xmlns:xlink="http://www.w3.org/1999/xlink">
<g id="graph0" class="graph" transform="scale(1 1) rotate(0) translate(4 320)">
<title>include/components/TransformComponent.hpp</title>
<!-- Node1 -->
<g id="Node000001" class="node">
<title>Node1</title>
<g id="a_Node000001"><a xlink:title="Defines the TransformComponent for ECS&#45;based spatial transformations.">
<polygon fill="#999999" stroke="#666666" points="225.5,-316 79.5,-316 79.5,-286 225.5,-286 225.5,-316"/>
<text text-anchor="start" x="87.5" y="-304" font-family="Helvetica,sans-Serif" font-size="10.00">include/components</text>
<text text-anchor="middle" x="152.5" y="-293" font-family="Helvetica,sans-Serif" font-size="10.00">/TransformComponent.hpp</text>
</a>
</g>
</g>
<!-- Node2 -->
<g id="Node000002" class="node">
<title>Node2</title>
<g id="a_Node000002"><a xlink:href="Object_8hpp.html" target="_top" xlink:title="Defines the Object class, a special ECS entity wrapper.">
<polygon fill="white" stroke="#666666" points="335.5,-244.5 189.5,-244.5 189.5,-225.5 335.5,-225.5 335.5,-244.5"/>
<text text-anchor="middle" x="262.5" y="-232.5" font-family="Helvetica,sans-Serif" font-size="10.00">include/objects/Object.hpp</text>
</a>
</g>
</g>
<!-- Node1&#45;&gt;Node2 -->
<g id="edge1_Node000001_Node000002" class="edge">
<title>Node1&#45;&gt;Node2</title>
<g id="a_edge1_Node000001_Node000002"><a xlink:title=" ">
<path fill="none" stroke="#63b8ff" d="M185.48,-280.81C206.24,-268.73 232.02,-253.73 247.86,-244.52"/>
<polygon fill="#63b8ff" stroke="#63b8ff" points="183.52,-277.9 176.64,-285.95 187.04,-283.95 183.52,-277.9"/>
</a>
</g>
</g>
<!-- Node8 -->
<g id="Node000008" class="node">
<title>Node8</title>
<g id="a_Node000008"><a xlink:href="LightingSystem_8hpp_source.html" target="_top" xlink:title=" ">
<polygon fill="white" stroke="#666666" points="143,-250 0,-250 0,-220 143,-220 143,-250"/>
<text text-anchor="start" x="8" y="-238" font-family="Helvetica,sans-Serif" font-size="10.00">include/rendering/Lighting</text>
<text text-anchor="middle" x="71.5" y="-227" font-family="Helvetica,sans-Serif" font-size="10.00">System.hpp</text>
</a>
</g>
</g>
<!-- Node1&#45;&gt;Node8 -->
<g id="edge13_Node000001_Node000008" class="edge">
<title>Node1&#45;&gt;Node8</title>
<g id="a_edge13_Node000001_Node000008"><a xlink:title=" ">
<path fill="none" stroke="#63b8ff" d="M126.53,-279.48C114.42,-269.91 100.32,-258.77 89.43,-250.16"/>
<polygon fill="#63b8ff" stroke="#63b8ff" points="124.51,-282.34 134.52,-285.8 128.85,-276.85 124.51,-282.34"/>
</a>
</g>
</g>
<!-- Node3 -->
<g id="Node000003" class="node">
<title>Node3</title>
<g id="a_Node000003"><a xlink:href="FrameEngine_8hpp_source.html" target="_top" xlink:title=" ">
<polygon fill="white" stroke="#666666" points="406.5,-19 266.5,-19 266.5,0 406.5,0 406.5,-19"/>
<text text-anchor="middle" x="336.5" y="-7" font-family="Helvetica,sans-Serif" font-size="10.00">include/FrameEngine.hpp</text>
</a>
</g>
</g>
<!-- Node2&#45;&gt;Node3 -->
<g id="edge2_Node000002_Node000003" class="edge">
<title>Node2&#45;&gt;Node3</title>
<g id="a_edge2_Node000002_Node000003"><a xlink:title=" ">
<path fill="none" stroke="#63b8ff" d="M344.29,-223.94C393.13,-216.06 448.5,-203.18 463.5,-184 511.89,-122.09 394.84,-44.69 351.7,-19.13"/>
<polygon fill="#63b8ff" stroke="#63b8ff" points="343.65,-220.5 334.3,-225.5 344.72,-227.41 343.65,-220.5"/>
</a>
</g>
</g>
<!-- Node4 -->
<g id="Node000004" class="node">
<title>Node4</title>
<g id="a_Node000004"><a xlink:href="PointLight_8hpp_source.html" target="_top" xlink:title=" ">
<polygon fill="white" stroke="#666666" points="454,-184 291,-184 291,-165 454,-165 454,-184"/>
<text text-anchor="middle" x="372.5" y="-172" font-family="Helvetica,sans-Serif" font-size="10.00">include/objects/PointLight.hpp</text>
</a>
</g>
</g>
<!-- Node2&#45;&gt;Node4 -->
<g id="edge3_Node000002_Node000004" class="edge">
<title>Node2&#45;&gt;Node4</title>
<g id="a_edge3_Node000002_Node000004"><a xlink:title=" ">
<path fill="none" stroke="#63b8ff" d="M287.74,-220.58C308.78,-209.38 338.14,-193.77 356.2,-184.17"/>
<polygon fill="#63b8ff" stroke="#63b8ff" points="285.92,-217.58 278.73,-225.37 289.2,-223.76 285.92,-217.58"/>
</a>
</g>
</g>
<!-- Node5 -->
<g id="Node000005" class="node">
<title>Node5</title>
<g id="a_Node000005"><a xlink:href="Renderer_8hpp.html" target="_top" xlink:title="Manages the rendering pipeline and object submission.">
<polygon fill="white" stroke="#666666" points="347,-129 178,-129 178,-110 347,-110 347,-129"/>
<text text-anchor="middle" x="262.5" y="-117" font-family="Helvetica,sans-Serif" font-size="10.00">include/rendering/Renderer.hpp</text>
</a>
</g>
</g>
<!-- Node2&#45;&gt;Node5 -->
<g id="edge12_Node000002_Node000005" class="edge">
<title>Node2&#45;&gt;Node5</title>
<g id="a_edge12_Node000002_Node000005"><a xlink:title=" ">
<path fill="none" stroke="#63b8ff" d="M262.5,-215.15C262.5,-190.24 262.5,-147.38 262.5,-129.13"/>
<polygon fill="#63b8ff" stroke="#63b8ff" points="259,-215.47 262.5,-225.47 266,-215.47 259,-215.47"/>
</a>
</g>
</g>
<!-- Node7 -->
<g id="Node000007" class="node">
<title>Node7</title>
<g id="a_Node000007"><a xlink:href="Camera_8hpp.html" target="_top" xlink:title="Defines the Camera class for view and projection.">
<polygon fill="white" stroke="#666666" points="234.5,-184 70.5,-184 70.5,-165 234.5,-165 234.5,-184"/>
<text text-anchor="middle" x="152.5" y="-172" font-family="Helvetica,sans-Serif" font-size="10.00">include/rendering/Camera.hpp</text>
</a>
</g>
</g>
<!-- Node2&#45;&gt;Node7 -->
<g id="edge9_Node000002_Node000007" class="edge">
<title>Node2&#45;&gt;Node7</title>
<g id="a_edge9_Node000002_Node000007"><a xlink:title=" ">
<path fill="none" stroke="#63b8ff" d="M237.26,-220.58C216.22,-209.38 186.86,-193.77 168.8,-184.17"/>
<polygon fill="#63b8ff" stroke="#63b8ff" points="235.8,-223.76 246.27,-225.37 239.08,-217.58 235.8,-223.76"/>
</a>
</g>
</g>
<!-- Node4&#45;&gt;Node3 -->
<g id="edge4_Node000004_Node000003" class="edge">
<title>Node4&#45;&gt;Node3</title>
<g id="a_edge4_Node000004_Node000003"><a xlink:title=" ">
<path fill="none" stroke="#63b8ff" d="M368.38,-154.83C360.61,-119.67 344.1,-44.9 338.45,-19.31"/>
<polygon fill="#63b8ff" stroke="#63b8ff" points="364.99,-155.73 370.56,-164.74 371.83,-154.22 364.99,-155.73"/>
</a>
</g>
</g>
<!-- Node4&#45;&gt;Node5 -->
<g id="edge5_Node000004_Node000005" class="edge">
<title>Node4&#45;&gt;Node5</title>
<g id="a_edge5_Node000004_Node000005"><a xlink:title=" ">
<path fill="none" stroke="#63b8ff" d="M345.8,-160.63C325.53,-150.87 298.23,-137.71 280.49,-129.17"/>
<polygon fill="#63b8ff" stroke="#63b8ff" points="344.3,-163.8 354.83,-164.98 347.34,-157.49 344.3,-163.8"/>
</a>
</g>
</g>
<!-- Node5&#45;&gt;Node3 -->
<g id="edge8_Node000005_Node000003" class="edge">
<title>Node5&#45;&gt;Node3</title>
<g id="a_edge8_Node000005_Node000003"><a xlink:title=" ">
<path fill="none" stroke="#63b8ff" d="M286.08,-104.21C297.04,-96.5 309.4,-86.07 317.5,-74 329.03,-56.8 333.74,-32.39 335.52,-19.42"/>
<polygon fill="#63b8ff" stroke="#63b8ff" points="284.08,-101.34 277.7,-109.8 287.96,-107.16 284.08,-101.34"/>
</a>
</g>
</g>
<!-- Node6 -->
<g id="Node000006" class="node">
<title>Node6</title>
<g id="a_Node000006"><a xlink:href="Engine_8hpp.html" target="_top" xlink:title="Defines the core Engine class responsible for running simulation.">
<polygon fill="white" stroke="#666666" points="308,-74 199,-74 199,-55 308,-55 308,-74"/>
<text text-anchor="middle" x="253.5" y="-62" font-family="Helvetica,sans-Serif" font-size="10.00">include/Engine.hpp</text>
</a>
</g>
</g>
<!-- Node5&#45;&gt;Node6 -->
<g id="edge6_Node000005_Node000006" class="edge">
<title>Node5&#45;&gt;Node6</title>
<g id="a_edge6_Node000005_Node000006"><a xlink:title=" ">
<path fill="none" stroke="#63b8ff" d="M259.3,-99.66C257.82,-90.93 256.13,-80.99 254.96,-74.09"/>
<polygon fill="#63b8ff" stroke="#63b8ff" points="255.89,-100.48 261.01,-109.75 262.79,-99.3 255.89,-100.48"/>
</a>
</g>
</g>
<!-- Node6&#45;&gt;Node3 -->
<g id="edge7_Node000006_Node000003" class="edge">
<title>Node6&#45;&gt;Node3</title>
<g id="a_edge7_Node000006_Node000003"><a xlink:title=" ">
<path fill="none" stroke="#63b8ff" d="M275.54,-49.42C290.61,-39.81 310.09,-27.37 322.92,-19.17"/>
<polygon fill="#63b8ff" stroke="#63b8ff" points="273.38,-46.65 266.84,-54.98 277.15,-52.55 273.38,-46.65"/>
</a>
</g>
</g>
<!-- Node7&#45;&gt;Node3 -->
<g id="edge10_Node000007_Node000003" class="edge">
<title>Node7&#45;&gt;Node3</title>
<g id="a_edge10_Node000007_Node000003"><a xlink:title=" ">
<path fill="none" stroke="#63b8ff" d="M153.09,-154.76C154.95,-128.58 162.3,-81.33 190.5,-55 211.13,-35.74 239.86,-24.81 266.39,-18.6"/>
<polygon fill="#63b8ff" stroke="#63b8ff" points="149.58,-154.7 152.57,-164.86 156.58,-155.06 149.58,-154.7"/>
</a>
</g>
</g>
<!-- Node7&#45;&gt;Node5 -->
<g id="edge11_Node000007_Node000005" class="edge">
<title>Node7&#45;&gt;Node5</title>
<g id="a_edge11_Node000007_Node000005"><a xlink:title=" ">
<path fill="none" stroke="#63b8ff" d="M179.2,-160.63C199.47,-150.87 226.77,-137.71 244.51,-129.17"/>
<polygon fill="#63b8ff" stroke="#63b8ff" points="177.66,-157.49 170.17,-164.98 180.7,-163.8 177.66,-157.49"/>
</a>
</g>
</g>
<!-- Node8&#45;&gt;Node5 -->
<g id="edge14_Node000008_Node000005" class="edge">
<title>Node8&#45;&gt;Node5</title>
<g id="a_edge14_Node000008_Node000005"><a xlink:title=" ">
<path fill="none" stroke="#63b8ff" d="M59.94,-210.56C54.56,-195.98 51.34,-177.65 61.5,-165 76.35,-146.5 129.85,-135.22 177.92,-128.65"/>
<polygon fill="#63b8ff" stroke="#63b8ff" points="56.78,-212.07 63.87,-219.95 63.24,-209.37 56.78,-212.07"/>
</a>
</g>
</g>
</g>
</svg>
