<?xml version="1.0" encoding="UTF-8" standalone="no"?>
<!DOCTYPE svg PUBLIC "-//W3C//DTD SVG 1.1//EN"
 "http://www.w3.org/Graphics/SVG/1.1/DTD/svg11.dtd">
<!-- Generated by graphviz version 2.43.0 (0)
 -->
<!-- Title: include/components/TransformComponent.hpp Pages: 1 -->
<svg width="642pt" height="324pt"
 viewBox="0.00 0.00 642.00 324.00" xmlns="http://www.w3.org/2000/svg" xmlns:xlink="http://www.w3.org/1999/xlink">
<g id="graph0" class="graph" transform="scale(1 1) rotate(0) translate(4 320)">
<title>include/components/TransformComponent.hpp</title>
<!-- Node1 -->
<g id="Node000001" class="node">
<title>Node1</title>
<g id="a_Node000001"><a xlink:title="Defines the TransformComponent for ECS&#45;based spatial transformations.">
<polygon fill="#999999" stroke="#666666" points="426.5,-316 280.5,-316 280.5,-286 426.5,-286 426.5,-316"/>
<text text-anchor="start" x="288.5" y="-304" font-family="Helvetica,sans-Serif" font-size="10.00">include/components</text>
<text text-anchor="middle" x="353.5" y="-293" font-family="Helvetica,sans-Serif" font-size="10.00">/TransformComponent.hpp</text>
</a>
</g>
</g>
<!-- Node2 -->
<g id="Node000002" class="node">
<title>Node2</title>
<g id="a_Node000002"><a xlink:href="Object_8hpp.html" target="_top" xlink:title="Defines the Object class, a special ECS entity wrapper.">
<polygon fill="white" stroke="#666666" points="426.5,-250 280.5,-250 280.5,-231 426.5,-231 426.5,-250"/>
<text text-anchor="middle" x="353.5" y="-238" font-family="Helvetica,sans-Serif" font-size="10.00">include/objects/Object.hpp</text>
</a>
</g>
</g>
<!-- Node1&#45;&gt;Node2 -->
<g id="edge1_Node000001_Node000002" class="edge">
<title>Node1&#45;&gt;Node2</title>
<g id="a_edge1_Node000001_Node000002"><a xlink:title=" ">
<path fill="none" stroke="#63b8ff" d="M353.5,-275.75C353.5,-266.72 353.5,-257.03 353.5,-250.27"/>
<polygon fill="#63b8ff" stroke="#63b8ff" points="350,-275.84 353.5,-285.84 357,-275.84 350,-275.84"/>
</a>
</g>
</g>
<!-- Node8 -->
<g id="Node000008" class="node">
<title>Node8</title>
<g id="a_Node000008"><a xlink:href="PhysicsSystem_8hpp.html" target="_top" xlink:title="Defines the PhysicsSystem.">
<polygon fill="white" stroke="#666666" points="634,-250 445,-250 445,-231 634,-231 634,-250"/>
<text text-anchor="middle" x="539.5" y="-238" font-family="Helvetica,sans-Serif" font-size="10.00">include/physics/PhysicsSystem.hpp</text>
</a>
</g>
</g>
<!-- Node1&#45;&gt;Node8 -->
<g id="edge13_Node000001_Node000008" class="edge">
<title>Node1&#45;&gt;Node8</title>
<g id="a_edge13_Node000001_Node000008"><a xlink:title=" ">
<path fill="none" stroke="#63b8ff" d="M407.93,-282.88C442.22,-272.09 485.01,-258.64 512.3,-250.05"/>
<polygon fill="#63b8ff" stroke="#63b8ff" points="406.54,-279.65 398.05,-285.99 408.64,-286.33 406.54,-279.65"/>
</a>
</g>
</g>
<!-- Node9 -->
<g id="Node000009" class="node">
<title>Node9</title>
<g id="a_Node000009"><a xlink:href="LightingSystem_8hpp_source.html" target="_top" xlink:title=" ">
<polygon fill="white" stroke="#666666" points="143,-195 0,-195 0,-165 143,-165 143,-195"/>
<text text-anchor="start" x="8" y="-183" font-family="Helvetica,sans-Serif" font-size="10.00">include/rendering/Lighting</text>
<text text-anchor="middle" x="71.5" y="-172" font-family="Helvetica,sans-Serif" font-size="10.00">System.hpp</text>
</a>
</g>
</g>
<!-- Node1&#45;&gt;Node9 -->
<g id="edge14_Node000001_Node000009" class="edge">
<title>Node1&#45;&gt;Node9</title>
<g id="a_edge14_Node000001_Node000009"><a xlink:title=" ">
<path fill="none" stroke="#63b8ff" d="M310.98,-282.06C254.64,-258.28 156.38,-216.82 104.99,-195.13"/>
<polygon fill="#63b8ff" stroke="#63b8ff" points="309.75,-285.34 320.32,-286 312.47,-278.89 309.75,-285.34"/>
</a>
</g>
</g>
<!-- Node3 -->
<g id="Node000003" class="node">
<title>Node3</title>
<g id="a_Node000003"><a xlink:href="FrameEngine_8hpp_source.html" target="_top" xlink:title=" ">
<polygon fill="white" stroke="#666666" points="497.5,-19 357.5,-19 357.5,0 497.5,0 497.5,-19"/>
<text text-anchor="middle" x="427.5" y="-7" font-family="Helvetica,sans-Serif" font-size="10.00">include/FrameEngine.hpp</text>
</a>
</g>
</g>
<!-- Node2&#45;&gt;Node3 -->
<g id="edge2_Node000002_Node000003" class="edge">
<title>Node2&#45;&gt;Node3</title>
<g id="a_edge2_Node000002_Node000003"><a xlink:title=" ">
<path fill="none" stroke="#63b8ff" d="M418.27,-229.29C473.67,-219.9 545.81,-205.82 554.5,-195 606.23,-130.56 484.57,-45.98 441.74,-19.09"/>
<polygon fill="#63b8ff" stroke="#63b8ff" points="417.42,-225.88 408.14,-230.99 418.58,-232.79 417.42,-225.88"/>
</a>
</g>
</g>
<!-- Node4 -->
<g id="Node000004" class="node">
<title>Node4</title>
<g id="a_Node000004"><a xlink:href="PointLight_8hpp_source.html" target="_top" xlink:title=" ">
<polygon fill="white" stroke="#666666" points="545,-189.5 382,-189.5 382,-170.5 545,-170.5 545,-189.5"/>
<text text-anchor="middle" x="463.5" y="-177.5" font-family="Helvetica,sans-Serif" font-size="10.00">include/objects/PointLight.hpp</text>
</a>
</g>
</g>
<!-- Node2&#45;&gt;Node4 -->
<g id="edge3_Node000002_Node000004" class="edge">
<title>Node2&#45;&gt;Node4</title>
<g id="a_edge3_Node000002_Node000004"><a xlink:title=" ">
<path fill="none" stroke="#63b8ff" d="M378.74,-226.08C399.78,-214.88 429.14,-199.27 447.2,-189.67"/>
<polygon fill="#63b8ff" stroke="#63b8ff" points="376.92,-223.08 369.73,-230.87 380.2,-229.26 376.92,-223.08"/>
</a>
</g>
</g>
<!-- Node5 -->
<g id="Node000005" class="node">
<title>Node5</title>
<g id="a_Node000005"><a xlink:href="Renderer_8hpp.html" target="_top" xlink:title="Manages the rendering pipeline and object submission.">
<polygon fill="white" stroke="#666666" points="438,-129 269,-129 269,-110 438,-110 438,-129"/>
<text text-anchor="middle" x="353.5" y="-117" font-family="Helvetica,sans-Serif" font-size="10.00">include/rendering/Renderer.hpp</text>
</a>
</g>
</g>
<!-- Node2&#45;&gt;Node5 -->
<g id="edge12_Node000002_Node000005" class="edge">
<title>Node2&#45;&gt;Node5</title>
<g id="a_edge12_Node000002_Node000005"><a xlink:title=" ">
<path fill="none" stroke="#63b8ff" d="M353.5,-220.86C353.5,-194.81 353.5,-148.56 353.5,-129.3"/>
<polygon fill="#63b8ff" stroke="#63b8ff" points="350,-220.94 353.5,-230.94 357,-220.94 350,-220.94"/>
</a>
</g>
</g>
<!-- Node7 -->
<g id="Node000007" class="node">
<title>Node7</title>
<g id="a_Node000007"><a xlink:href="Camera_8hpp.html" target="_top" xlink:title="Defines the Camera class for view and projection.">
<polygon fill="white" stroke="#666666" points="325.5,-189.5 161.5,-189.5 161.5,-170.5 325.5,-170.5 325.5,-189.5"/>
<text text-anchor="middle" x="243.5" y="-177.5" font-family="Helvetica,sans-Serif" font-size="10.00">include/rendering/Camera.hpp</text>
</a>
</g>
</g>
<!-- Node2&#45;&gt;Node7 -->
<g id="edge9_Node000002_Node000007" class="edge">
<title>Node2&#45;&gt;Node7</title>
<g id="a_edge9_Node000002_Node000007"><a xlink:title=" ">
<path fill="none" stroke="#63b8ff" d="M328.26,-226.08C307.22,-214.88 277.86,-199.27 259.8,-189.67"/>
<polygon fill="#63b8ff" stroke="#63b8ff" points="326.8,-229.26 337.27,-230.87 330.08,-223.08 326.8,-229.26"/>
</a>
</g>
</g>
<!-- Node4&#45;&gt;Node3 -->
<g id="edge4_Node000004_Node000003" class="edge">
<title>Node4&#45;&gt;Node3</title>
<g id="a_edge4_Node000004_Node000003"><a xlink:title=" ">
<path fill="none" stroke="#63b8ff" d="M459.49,-160.24C451.75,-123.98 434.99,-45.54 429.37,-19.27"/>
<polygon fill="#63b8ff" stroke="#63b8ff" points="456.15,-161.36 461.67,-170.41 463,-159.9 456.15,-161.36"/>
</a>
</g>
</g>
<!-- Node4&#45;&gt;Node5 -->
<g id="edge5_Node000004_Node000005" class="edge">
<title>Node4&#45;&gt;Node5</title>
<g id="a_edge5_Node000004_Node000005"><a xlink:title=" ">
<path fill="none" stroke="#63b8ff" d="M438.26,-165.58C417.22,-154.38 387.86,-138.77 369.8,-129.17"/>
<polygon fill="#63b8ff" stroke="#63b8ff" points="436.8,-168.76 447.27,-170.37 440.08,-162.58 436.8,-168.76"/>
</a>
</g>
</g>
<!-- Node5&#45;&gt;Node3 -->
<g id="edge8_Node000005_Node000003" class="edge">
<title>Node5&#45;&gt;Node3</title>
<g id="a_edge8_Node000005_Node000003"><a xlink:title=" ">
<path fill="none" stroke="#63b8ff" d="M377.08,-104.21C388.04,-96.5 400.4,-86.07 408.5,-74 420.03,-56.8 424.74,-32.39 426.52,-19.42"/>
<polygon fill="#63b8ff" stroke="#63b8ff" points="375.08,-101.34 368.7,-109.8 378.96,-107.16 375.08,-101.34"/>
</a>
</g>
</g>
<!-- Node6 -->
<g id="Node000006" class="node">
<title>Node6</title>
<g id="a_Node000006"><a xlink:href="Engine_8hpp.html" target="_top" xlink:title="Defines the core Engine class responsible for running simulation.">
<polygon fill="white" stroke="#666666" points="399,-74 290,-74 290,-55 399,-55 399,-74"/>
<text text-anchor="middle" x="344.5" y="-62" font-family="Helvetica,sans-Serif" font-size="10.00">include/Engine.hpp</text>
</a>
</g>
</g>
<!-- Node5&#45;&gt;Node6 -->
<g id="edge6_Node000005_Node000006" class="edge">
<title>Node5&#45;&gt;Node6</title>
<g id="a_edge6_Node000005_Node000006"><a xlink:title=" ">
<path fill="none" stroke="#63b8ff" d="M350.3,-99.66C348.82,-90.93 347.13,-80.99 345.96,-74.09"/>
<polygon fill="#63b8ff" stroke="#63b8ff" points="346.89,-100.48 352.01,-109.75 353.79,-99.3 346.89,-100.48"/>
</a>
</g>
</g>
<!-- Node6&#45;&gt;Node3 -->
<g id="edge7_Node000006_Node000003" class="edge">
<title>Node6&#45;&gt;Node3</title>
<g id="a_edge7_Node000006_Node000003"><a xlink:title=" ">
<path fill="none" stroke="#63b8ff" d="M366.54,-49.42C381.61,-39.81 401.09,-27.37 413.92,-19.17"/>
<polygon fill="#63b8ff" stroke="#63b8ff" points="364.38,-46.65 357.84,-54.98 368.15,-52.55 364.38,-46.65"/>
</a>
</g>
</g>
<!-- Node7&#45;&gt;Node3 -->
<g id="edge10_Node000007_Node000003" class="edge">
<title>Node7&#45;&gt;Node3</title>
<g id="a_edge10_Node000007_Node000003"><a xlink:title=" ">
<path fill="none" stroke="#63b8ff" d="M243.72,-160.13C245.1,-132.86 251.83,-82.69 281.5,-55 302.13,-35.74 330.86,-24.81 357.39,-18.6"/>
<polygon fill="#63b8ff" stroke="#63b8ff" points="240.22,-160.17 243.4,-170.28 247.21,-160.39 240.22,-160.17"/>
</a>
</g>
</g>
<!-- Node7&#45;&gt;Node5 -->
<g id="edge11_Node000007_Node000005" class="edge">
<title>Node7&#45;&gt;Node5</title>
<g id="a_edge11_Node000007_Node000005"><a xlink:title=" ">
<path fill="none" stroke="#63b8ff" d="M268.74,-165.58C289.78,-154.38 319.14,-138.77 337.2,-129.17"/>
<polygon fill="#63b8ff" stroke="#63b8ff" points="266.92,-162.58 259.73,-170.37 270.2,-168.76 266.92,-162.58"/>
</a>
</g>
</g>
<!-- Node9&#45;&gt;Node5 -->
<g id="edge15_Node000009_Node000005" class="edge">
<title>Node9&#45;&gt;Node5</title>
<g id="a_edge15_Node000009_Node000005"><a xlink:title=" ">
<path fill="none" stroke="#63b8ff" d="M149.05,-162.91C201.82,-151.97 269.56,-137.91 312.27,-129.05"/>
<polygon fill="#63b8ff" stroke="#63b8ff" points="148.13,-159.53 139.05,-164.99 149.55,-166.38 148.13,-159.53"/>
</a>
</g>
</g>
</g>
</svg>
