<?xml version="1.0" encoding="UTF-8" standalone="no"?>
<!DOCTYPE svg PUBLIC "-//W3C//DTD SVG 1.1//EN"
 "http://www.w3.org/Graphics/SVG/1.1/DTD/svg11.dtd">
<!-- Generated by graphviz version 2.43.0 (0)
 -->
<!-- Title: include/math/Vector3.hpp Pages: 1 -->
<svg width="1150pt" height="621pt"
 viewBox="0.00 0.00 1150.00 621.00" xmlns="http://www.w3.org/2000/svg" xmlns:xlink="http://www.w3.org/1999/xlink">
<g id="graph0" class="graph" transform="scale(1 1) rotate(0) translate(4 617)">
<title>include/math/Vector3.hpp</title>
<!-- Node1 -->
<g id="Node000001" class="node">
<title>Node1</title>
<g id="a_Node000001"><a xlink:title="Defines the Vector3 class.">
<polygon fill="#999999" stroke="#666666" points="488.5,-613 347.5,-613 347.5,-594 488.5,-594 488.5,-613"/>
<text text-anchor="middle" x="418" y="-601" font-family="Helvetica,sans-Serif" font-size="10.00">include/math/Vector3.hpp</text>
</a>
</g>
</g>
<!-- Node2 -->
<g id="Node000002" class="node">
<title>Node2</title>
<g id="a_Node000002"><a xlink:href="FrameEngine_8hpp_source.html" target="_top" xlink:title=" ">
<polygon fill="white" stroke="#666666" points="561,-19 421,-19 421,0 561,0 561,-19"/>
<text text-anchor="middle" x="491" y="-7" font-family="Helvetica,sans-Serif" font-size="10.00">include/FrameEngine.hpp</text>
</a>
</g>
</g>
<!-- Node1&#45;&gt;Node2 -->
<g id="edge1_Node000001_Node000002" class="edge">
<title>Node1&#45;&gt;Node2</title>
<g id="a_edge1_Node000001_Node000002"><a xlink:title=" ">
<path fill="none" stroke="#63b8ff" d="M337.34,-598.19C250.27,-592.48 117.98,-580.39 73,-558 31.5,-537.34 0,-529.86 0,-483.5 0,-483.5 0,-483.5 0,-118.5 0,-33.35 285.25,-15.26 420.91,-11.47"/>
<polygon fill="#63b8ff" stroke="#63b8ff" points="337.26,-601.69 347.47,-598.84 337.71,-594.71 337.26,-601.69"/>
</a>
</g>
</g>
<!-- Node3 -->
<g id="Node000003" class="node">
<title>Node3</title>
<g id="a_Node000003"><a xlink:href="LightComponent_8hpp_source.html" target="_top" xlink:title=" ">
<polygon fill="white" stroke="#666666" points="187.5,-437 66.5,-437 66.5,-407 187.5,-407 187.5,-437"/>
<text text-anchor="start" x="74.5" y="-425" font-family="Helvetica,sans-Serif" font-size="10.00">include/components</text>
<text text-anchor="middle" x="127" y="-414" font-family="Helvetica,sans-Serif" font-size="10.00">/LightComponent.hpp</text>
</a>
</g>
</g>
<!-- Node1&#45;&gt;Node3 -->
<g id="edge2_Node000001_Node000003" class="edge">
<title>Node1&#45;&gt;Node3</title>
<g id="a_edge2_Node000001_Node000003"><a xlink:title=" ">
<path fill="none" stroke="#63b8ff" d="M337.37,-592.99C285.32,-585.52 223.45,-573.76 202,-558 159.86,-527.05 138.4,-464.92 130.57,-437.07"/>
<polygon fill="#63b8ff" stroke="#63b8ff" points="336.91,-596.46 347.3,-594.38 337.88,-589.52 336.91,-596.46"/>
</a>
</g>
</g>
<!-- Node4 -->
<g id="Node000004" class="node">
<title>Node4</title>
<g id="a_Node000004"><a xlink:href="PointLight_8hpp_source.html" target="_top" xlink:title=" ">
<polygon fill="white" stroke="#666666" points="219.5,-184 56.5,-184 56.5,-165 219.5,-165 219.5,-184"/>
<text text-anchor="middle" x="138" y="-172" font-family="Helvetica,sans-Serif" font-size="10.00">include/objects/PointLight.hpp</text>
</a>
</g>
</g>
<!-- Node1&#45;&gt;Node4 -->
<g id="edge39_Node000001_Node000004" class="edge">
<title>Node1&#45;&gt;Node4</title>
<g id="a_edge39_Node000001_Node000004"><a xlink:title=" ">
<path fill="none" stroke="#63b8ff" d="M337.2,-593.69C225.62,-579.23 38,-545.68 38,-483.5 38,-483.5 38,-483.5 38,-289 38,-238.84 93.67,-200.35 121.93,-184.03"/>
<polygon fill="#63b8ff" stroke="#63b8ff" points="337.05,-597.2 347.42,-594.98 337.94,-590.25 337.05,-597.2"/>
</a>
</g>
</g>
<!-- Node7 -->
<g id="Node000007" class="node">
<title>Node7</title>
<g id="a_Node000007"><a xlink:href="LightingSystem_8hpp_source.html" target="_top" xlink:title=" ">
<polygon fill="white" stroke="#666666" points="257.5,-371 114.5,-371 114.5,-341 257.5,-341 257.5,-371"/>
<text text-anchor="start" x="122.5" y="-359" font-family="Helvetica,sans-Serif" font-size="10.00">include/rendering/Lighting</text>
<text text-anchor="middle" x="186" y="-348" font-family="Helvetica,sans-Serif" font-size="10.00">System.hpp</text>
</a>
</g>
</g>
<!-- Node1&#45;&gt;Node7 -->
<g id="edge41_Node000001_Node000007" class="edge">
<title>Node1&#45;&gt;Node7</title>
<g id="a_edge41_Node000001_Node000007"><a xlink:title=" ">
<path fill="none" stroke="#63b8ff" d="M398.09,-587.62C362.53,-560.4 286.94,-499.61 235,-437 217.42,-415.82 201.7,-387.74 193.04,-371.1"/>
<polygon fill="#63b8ff" stroke="#63b8ff" points="396.15,-590.54 406.23,-593.8 400.38,-584.97 396.15,-590.54"/>
</a>
</g>
</g>
<!-- Node8 -->
<g id="Node000008" class="node">
<title>Node8</title>
<g id="a_Node000008"><a xlink:href="MaterialComponent_8hpp_source.html" target="_top" xlink:title=" ">
<polygon fill="white" stroke="#666666" points="527.5,-305 390.5,-305 390.5,-275 527.5,-275 527.5,-305"/>
<text text-anchor="start" x="398.5" y="-293" font-family="Helvetica,sans-Serif" font-size="10.00">include/components</text>
<text text-anchor="middle" x="459" y="-282" font-family="Helvetica,sans-Serif" font-size="10.00">/MaterialComponent.hpp</text>
</a>
</g>
</g>
<!-- Node1&#45;&gt;Node8 -->
<g id="edge11_Node000001_Node000008" class="edge">
<title>Node1&#45;&gt;Node8</title>
<g id="a_edge11_Node000001_Node000008"><a xlink:title=" ">
<path fill="none" stroke="#63b8ff" d="M498.55,-594.24C545.59,-587.56 598.47,-576.22 613,-558 643.82,-519.36 650.62,-476.98 575,-407 522.77,-358.67 463.3,-426.68 419,-371 402.57,-350.34 425.6,-321.84 442.93,-305.02"/>
<polygon fill="#63b8ff" stroke="#63b8ff" points="498.06,-590.77 488.62,-595.59 499,-597.71 498.06,-590.77"/>
</a>
</g>
</g>
<!-- Node10 -->
<g id="Node000010" class="node">
<title>Node10</title>
<g id="a_Node000010"><a xlink:href="Camera_8hpp.html" target="_top" xlink:title="Defines the Camera class for view and projection.">
<polygon fill="white" stroke="#666666" points="646,-184 482,-184 482,-165 646,-165 646,-184"/>
<text text-anchor="middle" x="564" y="-172" font-family="Helvetica,sans-Serif" font-size="10.00">include/rendering/Camera.hpp</text>
</a>
</g>
</g>
<!-- Node1&#45;&gt;Node10 -->
<g id="edge40_Node000001_Node000010" class="edge">
<title>Node1&#45;&gt;Node10</title>
<g id="a_edge40_Node000001_Node000010"><a xlink:title=" ">
<path fill="none" stroke="#63b8ff" d="M498.77,-592.72C606.56,-577.37 784,-543.05 784,-483.5 784,-483.5 784,-483.5 784,-421 784,-420.49 611.02,-227.86 571.83,-184.22"/>
<polygon fill="#63b8ff" stroke="#63b8ff" points="497.99,-589.29 488.57,-594.14 498.96,-596.22 497.99,-589.29"/>
</a>
</g>
</g>
<!-- Node11 -->
<g id="Node000011" class="node">
<title>Node11</title>
<g id="a_Node000011"><a xlink:href="PhysicsComponent_8hpp.html" target="_top" xlink:title="Defines the PhysicsComponent for ECS&#45;based physics simulation.">
<polygon fill="white" stroke="#666666" points="984,-558 850,-558 850,-528 984,-528 984,-558"/>
<text text-anchor="start" x="858" y="-546" font-family="Helvetica,sans-Serif" font-size="10.00">include/components</text>
<text text-anchor="middle" x="917" y="-535" font-family="Helvetica,sans-Serif" font-size="10.00">/PhysicsComponent.hpp</text>
</a>
</g>
</g>
<!-- Node1&#45;&gt;Node11 -->
<g id="edge19_Node000001_Node000011" class="edge">
<title>Node1&#45;&gt;Node11</title>
<g id="a_edge19_Node000001_Node000011"><a xlink:title=" ">
<path fill="none" stroke="#63b8ff" d="M498.83,-595.47C583.16,-587.76 719.14,-574.3 836,-558 840.52,-557.37 845.18,-556.68 849.87,-555.95"/>
<polygon fill="#63b8ff" stroke="#63b8ff" points="498.44,-591.99 488.8,-596.38 499.08,-598.96 498.44,-591.99"/>
</a>
</g>
</g>
<!-- Node12 -->
<g id="Node000012" class="node">
<title>Node12</title>
<g id="a_Node000012"><a xlink:href="TransformComponent_8hpp.html" target="_top" xlink:title="Defines the TransformComponent for ECS&#45;based spatial transformations.">
<polygon fill="white" stroke="#666666" points="390,-437 244,-437 244,-407 390,-407 390,-437"/>
<text text-anchor="start" x="252" y="-425" font-family="Helvetica,sans-Serif" font-size="10.00">include/components</text>
<text text-anchor="middle" x="317" y="-414" font-family="Helvetica,sans-Serif" font-size="10.00">/TransformComponent.hpp</text>
</a>
</g>
</g>
<!-- Node1&#45;&gt;Node12 -->
<g id="edge20_Node000001_Node000012" class="edge">
<title>Node1&#45;&gt;Node12</title>
<g id="a_edge20_Node000001_Node000012"><a xlink:title=" ">
<path fill="none" stroke="#63b8ff" d="M408.21,-585.11C388.28,-549.69 343.33,-469.79 325,-437.22"/>
<polygon fill="#63b8ff" stroke="#63b8ff" points="405.17,-586.84 413.13,-593.84 411.28,-583.41 405.17,-586.84"/>
</a>
</g>
</g>
<!-- Node13 -->
<g id="Node000013" class="node">
<title>Node13</title>
<g id="a_Node000013"><a xlink:href="Matrix4_8hpp.html" target="_top" xlink:title="Defines the Matrix4 class for 3D transformation operations.">
<polygon fill="white" stroke="#666666" points="577,-492 435,-492 435,-473 577,-473 577,-492"/>
<text text-anchor="middle" x="506" y="-480" font-family="Helvetica,sans-Serif" font-size="10.00">include/math/Matrix4.hpp</text>
</a>
</g>
</g>
<!-- Node1&#45;&gt;Node13 -->
<g id="edge23_Node000001_Node000013" class="edge">
<title>Node1&#45;&gt;Node13</title>
<g id="a_edge23_Node000001_Node000013"><a xlink:title=" ">
<path fill="none" stroke="#63b8ff" d="M419.02,-583.53C420.71,-567.42 425.2,-544.39 437,-528 448.99,-511.34 469.32,-499.34 484.82,-492.03"/>
<polygon fill="#63b8ff" stroke="#63b8ff" points="415.5,-583.59 418.21,-593.83 422.48,-584.14 415.5,-583.59"/>
</a>
</g>
</g>
<!-- Node14 -->
<g id="Node000014" class="node">
<title>Node14</title>
<g id="a_Node000014"><a xlink:href="Shader_8hpp.html" target="_top" xlink:title="Manages OpenGL shaders.">
<polygon fill="white" stroke="#666666" points="566,-431.5 408,-431.5 408,-412.5 566,-412.5 566,-431.5"/>
<text text-anchor="middle" x="487" y="-419.5" font-family="Helvetica,sans-Serif" font-size="10.00">include/rendering/Shader.hpp</text>
</a>
</g>
</g>
<!-- Node1&#45;&gt;Node14 -->
<g id="edge50_Node000001_Node000014" class="edge">
<title>Node1&#45;&gt;Node14</title>
<g id="a_edge50_Node000001_Node000014"><a xlink:title=" ">
<path fill="none" stroke="#63b8ff" d="M414.5,-583.83C410.52,-557.41 406.84,-508.37 426,-473 436.04,-454.46 456.08,-440.13 470.45,-431.66"/>
<polygon fill="#63b8ff" stroke="#63b8ff" points="411.09,-584.69 416.21,-593.96 417.99,-583.52 411.09,-584.69"/>
</a>
</g>
</g>
<!-- Node15 -->
<g id="Node000015" class="node">
<title>Node15</title>
<g id="a_Node000015"><a xlink:href="Material_8hpp_source.html" target="_top" xlink:title=" ">
<polygon fill="white" stroke="#666666" points="594,-365.5 428,-365.5 428,-346.5 594,-346.5 594,-365.5"/>
<text text-anchor="middle" x="511" y="-353.5" font-family="Helvetica,sans-Serif" font-size="10.00">include/rendering/Material.hpp</text>
</a>
</g>
</g>
<!-- Node1&#45;&gt;Node15 -->
<g id="edge42_Node000001_Node000015" class="edge">
<title>Node1&#45;&gt;Node15</title>
<g id="a_edge42_Node000001_Node000015"><a xlink:title=" ">
<path fill="none" stroke="#63b8ff" d="M498.89,-597.39C556.69,-591.85 627.4,-580.58 646,-558 688.67,-506.2 684.34,-462.08 646,-407 630.51,-384.74 603.9,-372.37 578.38,-365.5"/>
<polygon fill="#63b8ff" stroke="#63b8ff" points="498.27,-593.93 488.63,-598.33 498.91,-600.9 498.27,-593.93"/>
</a>
</g>
</g>
<!-- Node17 -->
<g id="Node000017" class="node">
<title>Node17</title>
<g id="a_Node000017"><a xlink:href="Quaternion_8hpp.html" target="_top" xlink:title="Defines the Quaternion class for representing 3D rotations.">
<polygon fill="white" stroke="#666666" points="604,-552.5 446,-552.5 446,-533.5 604,-533.5 604,-552.5"/>
<text text-anchor="middle" x="525" y="-540.5" font-family="Helvetica,sans-Serif" font-size="10.00">include/math/Quaternion.hpp</text>
</a>
</g>
</g>
<!-- Node1&#45;&gt;Node17 -->
<g id="edge35_Node000001_Node000017" class="edge">
<title>Node1&#45;&gt;Node17</title>
<g id="a_edge35_Node000001_Node000017"><a xlink:title=" ">
<path fill="none" stroke="#63b8ff" d="M442.83,-588.92C463.28,-577.74 491.66,-562.23 509.15,-552.67"/>
<polygon fill="#63b8ff" stroke="#63b8ff" points="440.88,-586 433.79,-593.87 444.24,-592.14 440.88,-586"/>
</a>
</g>
</g>
<!-- Node18 -->
<g id="Node000018" class="node">
<title>Node18</title>
<g id="a_Node000018"><a xlink:href="Mesh_8hpp.html" target="_top" xlink:title="Defines the Mesh class for managing 3D geometry.">
<polygon fill="white" stroke="#666666" points="964,-365.5 812,-365.5 812,-346.5 964,-346.5 964,-365.5"/>
<text text-anchor="middle" x="888" y="-353.5" font-family="Helvetica,sans-Serif" font-size="10.00">include/rendering/Mesh.hpp</text>
</a>
</g>
</g>
<!-- Node1&#45;&gt;Node18 -->
<g id="edge43_Node000001_Node000018" class="edge">
<title>Node1&#45;&gt;Node18</title>
<g id="a_edge43_Node000001_Node000018"><a xlink:title=" ">
<path fill="none" stroke="#63b8ff" d="M498.75,-602.19C595.96,-600.29 751.91,-591.83 798,-558 865.19,-508.68 883.21,-397.6 887.08,-365.71"/>
<polygon fill="#63b8ff" stroke="#63b8ff" points="498.59,-598.7 488.66,-602.37 498.72,-605.69 498.59,-598.7"/>
</a>
</g>
</g>
<!-- Node3&#45;&gt;Node4 -->
<g id="edge3_Node000003_Node000004" class="edge">
<title>Node3&#45;&gt;Node4</title>
<g id="a_edge3_Node000003_Node000004"><a xlink:title=" ">
<path fill="none" stroke="#63b8ff" d="M114.81,-397.38C111.23,-389.24 107.8,-379.92 106,-371 91.53,-299.19 123.29,-211.54 134.37,-184.12"/>
<polygon fill="#63b8ff" stroke="#63b8ff" points="111.73,-399.05 119.15,-406.61 118.07,-396.08 111.73,-399.05"/>
</a>
</g>
</g>
<!-- Node3&#45;&gt;Node7 -->
<g id="edge9_Node000003_Node000007" class="edge">
<title>Node3&#45;&gt;Node7</title>
<g id="a_edge9_Node000003_Node000007"><a xlink:title=" ">
<path fill="none" stroke="#63b8ff" d="M146.94,-399.37C155.52,-390.06 165.31,-379.44 172.94,-371.16"/>
<polygon fill="#63b8ff" stroke="#63b8ff" points="144.3,-397.07 140.09,-406.8 149.45,-401.82 144.3,-397.07"/>
</a>
</g>
</g>
<!-- Node4&#45;&gt;Node2 -->
<g id="edge4_Node000004_Node000002" class="edge">
<title>Node4&#45;&gt;Node2</title>
<g id="a_edge4_Node000004_Node000002"><a xlink:title=" ">
<path fill="none" stroke="#63b8ff" d="M146.16,-155.56C159.3,-128.9 187.81,-79.33 228,-55 259.64,-35.84 354.21,-23.27 420.84,-16.52"/>
<polygon fill="#63b8ff" stroke="#63b8ff" points="142.87,-154.32 141.75,-164.86 149.2,-157.33 142.87,-154.32"/>
</a>
</g>
</g>
<!-- Node5 -->
<g id="Node000005" class="node">
<title>Node5</title>
<g id="a_Node000005"><a xlink:href="Renderer_8hpp.html" target="_top" xlink:title="Manages the rendering pipeline and object submission.">
<polygon fill="white" stroke="#666666" points="384.5,-129 215.5,-129 215.5,-110 384.5,-110 384.5,-129"/>
<text text-anchor="middle" x="300" y="-117" font-family="Helvetica,sans-Serif" font-size="10.00">include/rendering/Renderer.hpp</text>
</a>
</g>
</g>
<!-- Node4&#45;&gt;Node5 -->
<g id="edge5_Node000004_Node000005" class="edge">
<title>Node4&#45;&gt;Node5</title>
<g id="a_edge5_Node000004_Node000005"><a xlink:title=" ">
<path fill="none" stroke="#63b8ff" d="M173.77,-161.8C204,-151.91 246.61,-137.97 273.77,-129.08"/>
<polygon fill="#63b8ff" stroke="#63b8ff" points="172.44,-158.55 164.03,-164.98 174.62,-165.2 172.44,-158.55"/>
</a>
</g>
</g>
<!-- Node5&#45;&gt;Node2 -->
<g id="edge8_Node000005_Node000002" class="edge">
<title>Node5&#45;&gt;Node2</title>
<g id="a_edge8_Node000005_Node000002"><a xlink:title=" ">
<path fill="none" stroke="#63b8ff" d="M320.45,-104.14C339.95,-90.72 370.36,-70.48 398,-55 422.52,-41.27 451.94,-27.64 471.03,-19.16"/>
<polygon fill="#63b8ff" stroke="#63b8ff" points="318.29,-101.39 312.06,-109.96 322.27,-107.14 318.29,-101.39"/>
</a>
</g>
</g>
<!-- Node6 -->
<g id="Node000006" class="node">
<title>Node6</title>
<g id="a_Node000006"><a xlink:href="Engine_8hpp.html" target="_top" xlink:title="Defines the core Engine class responsible for running simulation.">
<polygon fill="white" stroke="#666666" points="345.5,-74 236.5,-74 236.5,-55 345.5,-55 345.5,-74"/>
<text text-anchor="middle" x="291" y="-62" font-family="Helvetica,sans-Serif" font-size="10.00">include/Engine.hpp</text>
</a>
</g>
</g>
<!-- Node5&#45;&gt;Node6 -->
<g id="edge6_Node000005_Node000006" class="edge">
<title>Node5&#45;&gt;Node6</title>
<g id="a_edge6_Node000005_Node000006"><a xlink:title=" ">
<path fill="none" stroke="#63b8ff" d="M296.8,-99.66C295.32,-90.93 293.63,-80.99 292.46,-74.09"/>
<polygon fill="#63b8ff" stroke="#63b8ff" points="293.39,-100.48 298.51,-109.75 300.29,-99.3 293.39,-100.48"/>
</a>
</g>
</g>
<!-- Node6&#45;&gt;Node2 -->
<g id="edge7_Node000006_Node000002" class="edge">
<title>Node6&#45;&gt;Node2</title>
<g id="a_edge7_Node000006_Node000002"><a xlink:title=" ">
<path fill="none" stroke="#63b8ff" d="M333.22,-52.31C370.65,-42.39 424.5,-28.12 458.61,-19.08"/>
<polygon fill="#63b8ff" stroke="#63b8ff" points="331.9,-49.04 323.13,-54.98 333.7,-55.81 331.9,-49.04"/>
</a>
</g>
</g>
<!-- Node7&#45;&gt;Node5 -->
<g id="edge10_Node000007_Node000005" class="edge">
<title>Node7&#45;&gt;Node5</title>
<g id="a_edge10_Node000007_Node000005"><a xlink:title=" ">
<path fill="none" stroke="#63b8ff" d="M197.45,-331.45C222.17,-280.59 279.65,-162.37 295.74,-129.26"/>
<polygon fill="#63b8ff" stroke="#63b8ff" points="194.18,-330.16 192.96,-340.68 200.48,-333.22 194.18,-330.16"/>
</a>
</g>
</g>
<!-- Node9 -->
<g id="Node000009" class="node">
<title>Node9</title>
<g id="a_Node000009"><a xlink:href="Object_8hpp.html" target="_top" xlink:title="Defines the Object class, a special ECS entity wrapper.">
<polygon fill="white" stroke="#666666" points="536,-239 390,-239 390,-220 536,-220 536,-239"/>
<text text-anchor="middle" x="463" y="-227" font-family="Helvetica,sans-Serif" font-size="10.00">include/objects/Object.hpp</text>
</a>
</g>
</g>
<!-- Node8&#45;&gt;Node9 -->
<g id="edge12_Node000008_Node000009" class="edge">
<title>Node8&#45;&gt;Node9</title>
<g id="a_edge12_Node000008_Node000009"><a xlink:title=" ">
<path fill="none" stroke="#63b8ff" d="M460.66,-264.75C461.28,-255.72 461.94,-246.03 462.4,-239.27"/>
<polygon fill="#63b8ff" stroke="#63b8ff" points="457.16,-264.62 459.97,-274.84 464.14,-265.1 457.16,-264.62"/>
</a>
</g>
</g>
<!-- Node9&#45;&gt;Node2 -->
<g id="edge13_Node000009_Node000002" class="edge">
<title>Node9&#45;&gt;Node2</title>
<g id="a_edge13_Node000009_Node000002"><a xlink:title=" ">
<path fill="none" stroke="#63b8ff" d="M465.4,-209.85C471.18,-164.82 485.73,-51.53 489.88,-19.22"/>
<polygon fill="#63b8ff" stroke="#63b8ff" points="461.9,-209.59 464.1,-219.95 468.84,-210.48 461.9,-209.59"/>
</a>
</g>
</g>
<!-- Node9&#45;&gt;Node4 -->
<g id="edge14_Node000009_Node000004" class="edge">
<title>Node9&#45;&gt;Node4</title>
<g id="a_edge14_Node000009_Node000004"><a xlink:title=" ">
<path fill="none" stroke="#63b8ff" d="M400.89,-218.37C339.86,-208.42 247.78,-193.4 190.36,-184.04"/>
<polygon fill="#63b8ff" stroke="#63b8ff" points="400.35,-221.83 410.78,-219.98 401.48,-214.92 400.35,-221.83"/>
</a>
</g>
</g>
<!-- Node9&#45;&gt;Node5 -->
<g id="edge18_Node000009_Node000005" class="edge">
<title>Node9&#45;&gt;Node5</title>
<g id="a_edge18_Node000009_Node000005"><a xlink:title=" ">
<path fill="none" stroke="#63b8ff" d="M441.56,-214.3C407.3,-191.59 341.2,-147.8 313.13,-129.2"/>
<polygon fill="#63b8ff" stroke="#63b8ff" points="439.67,-217.24 449.94,-219.84 443.53,-211.4 439.67,-217.24"/>
</a>
</g>
</g>
<!-- Node9&#45;&gt;Node10 -->
<g id="edge15_Node000009_Node000010" class="edge">
<title>Node9&#45;&gt;Node10</title>
<g id="a_edge15_Node000009_Node000010"><a xlink:title=" ">
<path fill="none" stroke="#63b8ff" d="M488.28,-215.23C506.8,-205.51 531.42,-192.6 547.48,-184.17"/>
<polygon fill="#63b8ff" stroke="#63b8ff" points="486.46,-212.24 479.23,-219.98 489.71,-218.44 486.46,-212.24"/>
</a>
</g>
</g>
<!-- Node10&#45;&gt;Node2 -->
<g id="edge16_Node000010_Node000002" class="edge">
<title>Node10&#45;&gt;Node2</title>
<g id="a_edge16_Node000010_Node000002"><a xlink:title=" ">
<path fill="none" stroke="#63b8ff" d="M555.84,-155.28C540.18,-120.32 506.46,-45.01 494.94,-19.31"/>
<polygon fill="#63b8ff" stroke="#63b8ff" points="552.79,-157.04 560.08,-164.74 559.18,-154.18 552.79,-157.04"/>
</a>
</g>
</g>
<!-- Node10&#45;&gt;Node5 -->
<g id="edge17_Node000010_Node000005" class="edge">
<title>Node10&#45;&gt;Node5</title>
<g id="a_edge17_Node000010_Node000005"><a xlink:title=" ">
<path fill="none" stroke="#63b8ff" d="M511.71,-163C462.22,-153.07 388.83,-138.33 342.75,-129.08"/>
<polygon fill="#63b8ff" stroke="#63b8ff" points="511.09,-166.45 521.58,-164.98 512.47,-159.58 511.09,-166.45"/>
</a>
</g>
</g>
<!-- Node12&#45;&gt;Node7 -->
<g id="edge22_Node000012_Node000007" class="edge">
<title>Node12&#45;&gt;Node7</title>
<g id="a_edge22_Node000012_Node000007"><a xlink:title=" ">
<path fill="none" stroke="#63b8ff" d="M279.16,-402.51C258.61,-392.47 233.61,-380.26 214.68,-371.01"/>
<polygon fill="#63b8ff" stroke="#63b8ff" points="277.73,-405.71 288.25,-406.95 280.8,-399.42 277.73,-405.71"/>
</a>
</g>
</g>
<!-- Node12&#45;&gt;Node9 -->
<g id="edge21_Node000012_Node000009" class="edge">
<title>Node12&#45;&gt;Node9</title>
<g id="a_edge21_Node000012_Node000009"><a xlink:title=" ">
<path fill="none" stroke="#63b8ff" d="M322.61,-396.83C330.94,-365.48 349.24,-310.62 382,-275 397.42,-258.23 420.66,-246.37 438.29,-239.14"/>
<polygon fill="#63b8ff" stroke="#63b8ff" points="319.13,-396.31 320.07,-406.86 325.92,-398.03 319.13,-396.31"/>
</a>
</g>
</g>
<!-- Node13&#45;&gt;Node2 -->
<g id="edge24_Node000013_Node000002" class="edge">
<title>Node13&#45;&gt;Node2</title>
<g id="a_edge24_Node000013_Node000002"><a xlink:title=" ">
<path fill="none" stroke="#63b8ff" d="M540.08,-469.15C558.35,-461.55 580.6,-450.64 598,-437 671.52,-379.33 655.64,-328.85 732,-275 770.26,-248.02 798.87,-273.05 831,-239 851.22,-217.57 850,-204.96 850,-175.5 850,-175.5 850,-175.5 850,-118.5 850,-58.78 665.55,-29.19 561.07,-17.21"/>
<polygon fill="#63b8ff" stroke="#63b8ff" points="538.65,-465.95 530.67,-472.92 541.26,-472.45 538.65,-465.95"/>
</a>
</g>
</g>
<!-- Node13&#45;&gt;Node10 -->
<g id="edge26_Node000013_Node000010" class="edge">
<title>Node13&#45;&gt;Node10</title>
<g id="a_edge26_Node000013_Node000010"><a xlink:title=" ">
<path fill="none" stroke="#63b8ff" d="M534.6,-468.14C548.28,-460.58 564.04,-450.03 575,-437 595.52,-412.62 596.65,-402.22 603,-371 610.55,-333.86 576.64,-217.19 566.68,-184.24"/>
<polygon fill="#63b8ff" stroke="#63b8ff" points="532.77,-465.15 525.54,-472.89 536.02,-471.35 532.77,-465.15"/>
</a>
</g>
</g>
<!-- Node13&#45;&gt;Node12 -->
<g id="edge25_Node000013_Node000012" class="edge">
<title>Node13&#45;&gt;Node12</title>
<g id="a_edge25_Node000013_Node000012"><a xlink:title=" ">
<path fill="none" stroke="#63b8ff" d="M468.7,-469.95C438.2,-460.51 394.96,-447.13 362.44,-437.06"/>
<polygon fill="#63b8ff" stroke="#63b8ff" points="467.93,-473.38 478.52,-472.99 470,-466.69 467.93,-473.38"/>
</a>
</g>
</g>
<!-- Node13&#45;&gt;Node14 -->
<g id="edge27_Node000013_Node000014" class="edge">
<title>Node13&#45;&gt;Node14</title>
<g id="a_edge27_Node000013_Node000014"><a xlink:title=" ">
<path fill="none" stroke="#63b8ff" d="M500.1,-463.32C496.67,-452.78 492.51,-439.98 489.82,-431.67"/>
<polygon fill="#63b8ff" stroke="#63b8ff" points="496.78,-464.44 503.2,-472.87 503.44,-462.28 496.78,-464.44"/>
</a>
</g>
</g>
<!-- Node14&#45;&gt;Node2 -->
<g id="edge28_Node000014_Node000002" class="edge">
<title>Node14&#45;&gt;Node2</title>
<g id="a_edge28_Node000014_Node000002"><a xlink:title=" ">
<path fill="none" stroke="#63b8ff" d="M457.84,-407.84C441.65,-399.3 422.17,-386.81 409,-371 365.31,-318.56 364.66,-286.27 381,-220 401.95,-135.04 464.19,-46.43 484.51,-19.06"/>
<polygon fill="#63b8ff" stroke="#63b8ff" points="456.42,-411.05 466.93,-412.41 459.57,-404.79 456.42,-411.05"/>
</a>
</g>
</g>
<!-- Node14&#45;&gt;Node5 -->
<g id="edge34_Node000014_Node000005" class="edge">
<title>Node14&#45;&gt;Node5</title>
<g id="a_edge34_Node000014_Node000005"><a xlink:title=" ">
<path fill="none" stroke="#63b8ff" d="M418.66,-409.84C393.49,-402.58 366.61,-390.64 348,-371 322.47,-344.05 324,-328.12 324,-291 324,-291 324,-291 324,-228.5 324,-190.66 309.79,-147.1 303.24,-129.04"/>
<polygon fill="#63b8ff" stroke="#63b8ff" points="418,-413.29 428.57,-412.49 419.81,-406.52 418,-413.29"/>
</a>
</g>
</g>
<!-- Node14&#45;&gt;Node15 -->
<g id="edge29_Node000014_Node000015" class="edge">
<title>Node14&#45;&gt;Node15</title>
<g id="a_edge29_Node000014_Node000015"><a xlink:title=" ">
<path fill="none" stroke="#63b8ff" d="M493.82,-402.82C498.35,-390.74 504.1,-375.41 507.66,-365.91"/>
<polygon fill="#63b8ff" stroke="#63b8ff" points="490.47,-401.78 490.24,-412.37 497.03,-404.23 490.47,-401.78"/>
</a>
</g>
</g>
<!-- Node15&#45;&gt;Node8 -->
<g id="edge30_Node000015_Node000008" class="edge">
<title>Node15&#45;&gt;Node8</title>
<g id="a_edge30_Node000015_Node000008"><a xlink:title=" ">
<path fill="none" stroke="#63b8ff" d="M497.63,-338.54C489.29,-328.28 478.66,-315.2 470.67,-305.36"/>
<polygon fill="#63b8ff" stroke="#63b8ff" points="494.96,-340.81 503.99,-346.37 500.4,-336.4 494.96,-340.81"/>
</a>
</g>
</g>
<!-- Node15&#45;&gt;Node9 -->
<g id="edge33_Node000015_Node000009" class="edge">
<title>Node15&#45;&gt;Node9</title>
<g id="a_edge33_Node000015_Node000009"><a xlink:title=" ">
<path fill="none" stroke="#63b8ff" d="M524.37,-337.83C535.69,-321.06 548.4,-295.16 537,-275 527.04,-257.38 507,-245.97 490.29,-239.12"/>
<polygon fill="#63b8ff" stroke="#63b8ff" points="521.4,-335.97 518.39,-346.12 527.08,-340.06 521.4,-335.97"/>
</a>
</g>
</g>
<!-- Node16 -->
<g id="Node000016" class="node">
<title>Node16</title>
<g id="a_Node000016"><a xlink:href="BasicMaterial_8hpp_source.html" target="_top" xlink:title=" ">
<polygon fill="white" stroke="#666666" points="822,-239 630,-239 630,-220 822,-220 822,-239"/>
<text text-anchor="middle" x="726" y="-227" font-family="Helvetica,sans-Serif" font-size="10.00">include/materials/BasicMaterial.hpp</text>
</a>
</g>
</g>
<!-- Node15&#45;&gt;Node16 -->
<g id="edge31_Node000015_Node000016" class="edge">
<title>Node15&#45;&gt;Node16</title>
<g id="a_edge31_Node000015_Node000016"><a xlink:title=" ">
<path fill="none" stroke="#63b8ff" d="M534.45,-341.42C578.93,-315.67 674.34,-260.41 711.12,-239.12"/>
<polygon fill="#63b8ff" stroke="#63b8ff" points="532.68,-338.4 525.78,-346.44 536.19,-344.46 532.68,-338.4"/>
</a>
</g>
</g>
<!-- Node16&#45;&gt;Node2 -->
<g id="edge32_Node000016_Node000002" class="edge">
<title>Node16&#45;&gt;Node2</title>
<g id="a_edge32_Node000016_Node000002"><a xlink:title=" ">
<path fill="none" stroke="#63b8ff" d="M709.46,-213.15C663.64,-170.65 536.12,-52.35 500.4,-19.22"/>
<polygon fill="#63b8ff" stroke="#63b8ff" points="707.08,-215.72 716.79,-219.95 711.84,-210.59 707.08,-215.72"/>
</a>
</g>
</g>
<!-- Node17&#45;&gt;Node2 -->
<g id="edge36_Node000017_Node000002" class="edge">
<title>Node17&#45;&gt;Node2</title>
<g id="a_edge36_Node000017_Node000002"><a xlink:title=" ">
<path fill="none" stroke="#63b8ff" d="M606.43,-531.49C669.43,-518.26 746,-488.67 746,-423 746,-423 746,-423 746,-355 746,-253.28 888,-277.22 888,-175.5 888,-175.5 888,-175.5 888,-118.5 888,-51.54 675.03,-24.73 561.06,-15.18"/>
<polygon fill="#63b8ff" stroke="#63b8ff" points="605.57,-528.09 596.45,-533.48 606.94,-534.96 605.57,-528.09"/>
</a>
</g>
</g>
<!-- Node17&#45;&gt;Node12 -->
<g id="edge37_Node000017_Node000012" class="edge">
<title>Node17&#45;&gt;Node12</title>
<g id="a_edge37_Node000017_Node000012"><a xlink:title=" ">
<path fill="none" stroke="#63b8ff" d="M497.65,-529.07C477.56,-519.36 449.75,-505.47 426,-492 394.64,-474.21 359.61,-451.5 337.93,-437.1"/>
<polygon fill="#63b8ff" stroke="#63b8ff" points="496.31,-532.31 506.84,-533.48 499.34,-526 496.31,-532.31"/>
</a>
</g>
</g>
<!-- Node17&#45;&gt;Node13 -->
<g id="edge38_Node000017_Node000013" class="edge">
<title>Node17&#45;&gt;Node13</title>
<g id="a_edge38_Node000017_Node000013"><a xlink:title=" ">
<path fill="none" stroke="#63b8ff" d="M519.1,-523.82C515.67,-513.28 511.51,-500.48 508.82,-492.17"/>
<polygon fill="#63b8ff" stroke="#63b8ff" points="515.78,-524.94 522.2,-533.37 522.44,-522.78 515.78,-524.94"/>
</a>
</g>
</g>
<!-- Node18&#45;&gt;Node2 -->
<g id="edge44_Node000018_Node000002" class="edge">
<title>Node18&#45;&gt;Node2</title>
<g id="a_edge44_Node000018_Node000002"><a xlink:title=" ">
<path fill="none" stroke="#63b8ff" d="M910.14,-340.59C922.13,-331.69 936.25,-319.27 945,-305 962.87,-275.87 964,-264.67 964,-230.5 964,-230.5 964,-230.5 964,-118.5 964,-79.06 937.47,-72.25 902,-55 843.59,-26.6 662.32,-16.11 561.12,-12.41"/>
<polygon fill="#63b8ff" stroke="#63b8ff" points="908.03,-337.79 901.88,-346.42 912.07,-343.51 908.03,-337.79"/>
</a>
</g>
</g>
<!-- Node18&#45;&gt;Node9 -->
<g id="edge49_Node000018_Node000009" class="edge">
<title>Node18&#45;&gt;Node9</title>
<g id="a_edge49_Node000018_Node000009"><a xlink:title=" ">
<path fill="none" stroke="#63b8ff" d="M849.08,-343.6C764.75,-318.9 566.75,-260.89 492.13,-239.03"/>
<polygon fill="#63b8ff" stroke="#63b8ff" points="848.21,-346.99 858.79,-346.44 850.18,-340.27 848.21,-346.99"/>
</a>
</g>
</g>
<!-- Node19 -->
<g id="Node000019" class="node">
<title>Node19</title>
<g id="a_Node000019"><a xlink:href="MeshGenerator_8hpp_source.html" target="_top" xlink:title=" ">
<polygon fill="white" stroke="#666666" points="1142,-129 992,-129 992,-110 1142,-110 1142,-129"/>
<text text-anchor="middle" x="1067" y="-117" font-family="Helvetica,sans-Serif" font-size="10.00">include/MeshGenerator.hpp</text>
</a>
</g>
</g>
<!-- Node18&#45;&gt;Node19 -->
<g id="edge45_Node000018_Node000019" class="edge">
<title>Node18&#45;&gt;Node19</title>
<g id="a_edge45_Node000018_Node000019"><a xlink:title=" ">
<path fill="none" stroke="#63b8ff" d="M921.34,-342.43C939.89,-334.09 962.33,-321.6 978,-305 1030.24,-249.66 1057.33,-157.91 1064.82,-129.3"/>
<polygon fill="#63b8ff" stroke="#63b8ff" points="919.86,-339.25 912.05,-346.41 922.62,-345.69 919.86,-339.25"/>
</a>
</g>
</g>
<!-- Node20 -->
<g id="Node000020" class="node">
<title>Node20</title>
<g id="a_Node000020"><a xlink:href="MeshComponent_8hpp_source.html" target="_top" xlink:title=" ">
<polygon fill="white" stroke="#666666" points="935.5,-305 812.5,-305 812.5,-275 935.5,-275 935.5,-305"/>
<text text-anchor="start" x="820.5" y="-293" font-family="Helvetica,sans-Serif" font-size="10.00">include/components</text>
<text text-anchor="middle" x="874" y="-282" font-family="Helvetica,sans-Serif" font-size="10.00">/MeshComponent.hpp</text>
</a>
</g>
</g>
<!-- Node18&#45;&gt;Node20 -->
<g id="edge47_Node000018_Node000020" class="edge">
<title>Node18&#45;&gt;Node20</title>
<g id="a_edge47_Node000018_Node000020"><a xlink:title=" ">
<path fill="none" stroke="#63b8ff" d="M883.92,-336.35C881.76,-326.47 879.14,-314.51 877.14,-305.36"/>
<polygon fill="#63b8ff" stroke="#63b8ff" points="880.56,-337.35 886.11,-346.37 887.39,-335.85 880.56,-337.35"/>
</a>
</g>
</g>
<!-- Node19&#45;&gt;Node2 -->
<g id="edge46_Node000019_Node000002" class="edge">
<title>Node19&#45;&gt;Node2</title>
<g id="a_edge46_Node000019_Node000002"><a xlink:title=" ">
<path fill="none" stroke="#63b8ff" d="M1050.34,-102.41C1033.56,-87.29 1006.19,-65.46 978,-55 903.48,-27.34 677.42,-16.34 561.38,-12.42"/>
<polygon fill="#63b8ff" stroke="#63b8ff" points="1048.39,-105.37 1058.1,-109.61 1053.15,-100.24 1048.39,-105.37"/>
</a>
</g>
</g>
<!-- Node20&#45;&gt;Node9 -->
<g id="edge48_Node000020_Node000009" class="edge">
<title>Node20&#45;&gt;Node9</title>
<g id="a_edge48_Node000020_Node000009"><a xlink:title=" ">
<path fill="none" stroke="#63b8ff" d="M801.95,-275.63C800.62,-275.42 799.3,-275.21 798,-275 707.6,-260.68 602.98,-247.29 535.03,-239.01"/>
<polygon fill="#63b8ff" stroke="#63b8ff" points="801.8,-279.16 812.24,-277.36 802.96,-272.25 801.8,-279.16"/>
</a>
</g>
</g>
</g>
</svg>
