<?xml version="1.0" encoding="UTF-8" standalone="no"?>
<!DOCTYPE svg PUBLIC "-//W3C//DTD SVG 1.1//EN"
 "http://www.w3.org/Graphics/SVG/1.1/DTD/svg11.dtd">
<!-- Generated by graphviz version 2.43.0 (0)
 -->
<!-- Title: include/math/Vector3.hpp Pages: 1 -->
<svg width="1269pt" height="621pt"
 viewBox="0.00 0.00 1269.00 621.00" xmlns="http://www.w3.org/2000/svg" xmlns:xlink="http://www.w3.org/1999/xlink">
<g id="graph0" class="graph" transform="scale(1 1) rotate(0) translate(4 617)">
<title>include/math/Vector3.hpp</title>
<!-- Node1 -->
<g id="Node000001" class="node">
<title>Node1</title>
<g id="a_Node000001"><a xlink:title="Defines the Vector3 class.">
<polygon fill="#999999" stroke="#666666" points="727.5,-613 586.5,-613 586.5,-594 727.5,-594 727.5,-613"/>
<text text-anchor="middle" x="657" y="-601" font-family="Helvetica,sans-Serif" font-size="10.00">include/math/Vector3.hpp</text>
</a>
</g>
</g>
<!-- Node2 -->
<g id="Node000002" class="node">
<title>Node2</title>
<g id="a_Node000002"><a xlink:href="FrameEngine_8hpp_source.html" target="_top" xlink:title=" ">
<polygon fill="white" stroke="#666666" points="823,-19 683,-19 683,0 823,0 823,-19"/>
<text text-anchor="middle" x="753" y="-7" font-family="Helvetica,sans-Serif" font-size="10.00">include/FrameEngine.hpp</text>
</a>
</g>
</g>
<!-- Node1&#45;&gt;Node2 -->
<g id="edge1_Node000001_Node000002" class="edge">
<title>Node1&#45;&gt;Node2</title>
<g id="a_edge1_Node000001_Node000002"><a xlink:title=" ">
<path fill="none" stroke="#63b8ff" d="M576.16,-596.87C400.57,-583.56 0,-546.85 0,-489 0,-489 0,-489 0,-118.5 0,-39.51 88.92,-72.28 166,-55 262.61,-33.34 549.22,-18.98 682.89,-13.27"/>
<polygon fill="#63b8ff" stroke="#63b8ff" points="576.14,-600.38 586.38,-597.64 576.67,-593.4 576.14,-600.38"/>
</a>
</g>
</g>
<!-- Node3 -->
<g id="Node000003" class="node">
<title>Node3</title>
<g id="a_Node000003"><a xlink:href="LightComponent_8hpp_source.html" target="_top" xlink:title=" ">
<polygon fill="white" stroke="#666666" points="590.5,-437 469.5,-437 469.5,-407 590.5,-407 590.5,-437"/>
<text text-anchor="start" x="477.5" y="-425" font-family="Helvetica,sans-Serif" font-size="10.00">include/components</text>
<text text-anchor="middle" x="530" y="-414" font-family="Helvetica,sans-Serif" font-size="10.00">/LightComponent.hpp</text>
</a>
</g>
</g>
<!-- Node1&#45;&gt;Node3 -->
<g id="edge2_Node000001_Node000003" class="edge">
<title>Node1&#45;&gt;Node3</title>
<g id="a_edge2_Node000001_Node000003"><a xlink:title=" ">
<path fill="none" stroke="#63b8ff" d="M636.28,-587.58C626.07,-579.56 614.04,-569.07 605,-558 572.6,-518.34 546.8,-462.71 535.78,-437.02"/>
<polygon fill="#63b8ff" stroke="#63b8ff" points="634.25,-590.43 644.33,-593.68 638.48,-584.85 634.25,-590.43"/>
</a>
</g>
</g>
<!-- Node4 -->
<g id="Node000004" class="node">
<title>Node4</title>
<g id="a_Node000004"><a xlink:href="PointLight_8hpp_source.html" target="_top" xlink:title=" ">
<polygon fill="white" stroke="#666666" points="641.5,-184 478.5,-184 478.5,-165 641.5,-165 641.5,-184"/>
<text text-anchor="middle" x="560" y="-172" font-family="Helvetica,sans-Serif" font-size="10.00">include/objects/PointLight.hpp</text>
</a>
</g>
</g>
<!-- Node1&#45;&gt;Node4 -->
<g id="edge39_Node000001_Node000004" class="edge">
<title>Node1&#45;&gt;Node4</title>
<g id="a_edge39_Node000001_Node000004"><a xlink:title=" ">
<path fill="none" stroke="#63b8ff" d="M576.22,-599.15C443.78,-591.42 195,-566.58 195,-489 195,-489 195,-489 195,-421 195,-344.54 220.62,-314.65 286,-275 363.89,-227.76 467.71,-197.76 522.49,-184.11"/>
<polygon fill="#63b8ff" stroke="#63b8ff" points="576.15,-602.65 586.33,-599.72 576.54,-595.66 576.15,-602.65"/>
</a>
</g>
</g>
<!-- Node7 -->
<g id="Node000007" class="node">
<title>Node7</title>
<g id="a_Node000007"><a xlink:href="LightingSystem_8hpp_source.html" target="_top" xlink:title=" ">
<polygon fill="white" stroke="#666666" points="796.5,-371 653.5,-371 653.5,-341 796.5,-341 796.5,-371"/>
<text text-anchor="start" x="661.5" y="-359" font-family="Helvetica,sans-Serif" font-size="10.00">include/rendering/Lighting</text>
<text text-anchor="middle" x="725" y="-348" font-family="Helvetica,sans-Serif" font-size="10.00">System.hpp</text>
</a>
</g>
</g>
<!-- Node1&#45;&gt;Node7 -->
<g id="edge41_Node000001_Node000007" class="edge">
<title>Node1&#45;&gt;Node7</title>
<g id="a_edge41_Node000001_Node000007"><a xlink:title=" ">
<path fill="none" stroke="#63b8ff" d="M654.84,-583.7C651.52,-547.56 648.19,-466.69 676,-407 682.67,-392.68 695.21,-380.01 705.92,-371.01"/>
<polygon fill="#63b8ff" stroke="#63b8ff" points="651.37,-584.19 655.88,-593.78 658.33,-583.48 651.37,-584.19"/>
</a>
</g>
</g>
<!-- Node8 -->
<g id="Node000008" class="node">
<title>Node8</title>
<g id="a_Node000008"><a xlink:href="MaterialComponent_8hpp_source.html" target="_top" xlink:title=" ">
<polygon fill="white" stroke="#666666" points="627.5,-305 490.5,-305 490.5,-275 627.5,-275 627.5,-305"/>
<text text-anchor="start" x="498.5" y="-293" font-family="Helvetica,sans-Serif" font-size="10.00">include/components</text>
<text text-anchor="middle" x="559" y="-282" font-family="Helvetica,sans-Serif" font-size="10.00">/MaterialComponent.hpp</text>
</a>
</g>
</g>
<!-- Node1&#45;&gt;Node8 -->
<g id="edge11_Node000001_Node000008" class="edge">
<title>Node1&#45;&gt;Node8</title>
<g id="a_edge11_Node000001_Node000008"><a xlink:title=" ">
<path fill="none" stroke="#63b8ff" d="M576.16,-592.84C514.83,-580.46 441,-552.4 441,-489 441,-489 441,-489 441,-421 441,-384.46 437.36,-369.69 460,-341 473.12,-324.37 493.25,-312.8 511.93,-305.02"/>
<polygon fill="#63b8ff" stroke="#63b8ff" points="575.8,-596.33 586.27,-594.76 577.1,-589.45 575.8,-596.33"/>
</a>
</g>
</g>
<!-- Node10 -->
<g id="Node000010" class="node">
<title>Node10</title>
<g id="a_Node000010"><a xlink:href="Camera_8hpp.html" target="_top" xlink:title="Defines the Camera class for view and projection.">
<polygon fill="white" stroke="#666666" points="1093,-184 929,-184 929,-165 1093,-165 1093,-184"/>
<text text-anchor="middle" x="1011" y="-172" font-family="Helvetica,sans-Serif" font-size="10.00">include/rendering/Camera.hpp</text>
</a>
</g>
</g>
<!-- Node1&#45;&gt;Node10 -->
<g id="edge40_Node000001_Node000010" class="edge">
<title>Node1&#45;&gt;Node10</title>
<g id="a_edge40_Node000001_Node000010"><a xlink:title=" ">
<path fill="none" stroke="#63b8ff" d="M737.58,-602.89C893.88,-601.45 1223,-586.82 1223,-489 1223,-489 1223,-489 1223,-421 1223,-301.61 1077.61,-211.6 1027.64,-184.18"/>
<polygon fill="#63b8ff" stroke="#63b8ff" points="737.51,-599.39 727.54,-602.96 737.57,-606.39 737.51,-599.39"/>
</a>
</g>
</g>
<!-- Node11 -->
<g id="Node000011" class="node">
<title>Node11</title>
<g id="a_Node000011"><a xlink:href="PhysicsComponent_8hpp.html" target="_top" xlink:title="Defines the PhysicsComponent for ECS&#45;based physics simulation.">
<polygon fill="white" stroke="#666666" points="1195,-503 1061,-503 1061,-473 1195,-473 1195,-503"/>
<text text-anchor="start" x="1069" y="-491" font-family="Helvetica,sans-Serif" font-size="10.00">include/components</text>
<text text-anchor="middle" x="1128" y="-480" font-family="Helvetica,sans-Serif" font-size="10.00">/PhysicsComponent.hpp</text>
</a>
</g>
</g>
<!-- Node1&#45;&gt;Node11 -->
<g id="edge19_Node000001_Node000011" class="edge">
<title>Node1&#45;&gt;Node11</title>
<g id="a_edge19_Node000001_Node000011"><a xlink:title=" ">
<path fill="none" stroke="#63b8ff" d="M738.13,-602.62C813.08,-600.41 926.46,-591.08 1019,-558 1054.64,-545.26 1090.73,-519.27 1111.14,-503.08"/>
<polygon fill="#63b8ff" stroke="#63b8ff" points="737.73,-599.13 727.82,-602.89 737.91,-606.13 737.73,-599.13"/>
</a>
</g>
</g>
<!-- Node13 -->
<g id="Node000013" class="node">
<title>Node13</title>
<g id="a_Node000013"><a xlink:href="TransformComponent_8hpp.html" target="_top" xlink:title="Defines the TransformComponent for ECS&#45;based spatial transformations.">
<polygon fill="white" stroke="#666666" points="1007,-437 861,-437 861,-407 1007,-407 1007,-437"/>
<text text-anchor="start" x="869" y="-425" font-family="Helvetica,sans-Serif" font-size="10.00">include/components</text>
<text text-anchor="middle" x="934" y="-414" font-family="Helvetica,sans-Serif" font-size="10.00">/TransformComponent.hpp</text>
</a>
</g>
</g>
<!-- Node1&#45;&gt;Node13 -->
<g id="edge21_Node000001_Node000013" class="edge">
<title>Node1&#45;&gt;Node13</title>
<g id="a_edge21_Node000001_Node000013"><a xlink:title=" ">
<path fill="none" stroke="#63b8ff" d="M676.76,-588C710.58,-563.38 782.02,-512.27 845,-473 865.6,-460.15 889.64,-446.74 907.54,-437.04"/>
<polygon fill="#63b8ff" stroke="#63b8ff" points="674.64,-585.21 668.63,-593.94 678.77,-590.87 674.64,-585.21"/>
</a>
</g>
</g>
<!-- Node14 -->
<g id="Node000014" class="node">
<title>Node14</title>
<g id="a_Node000014"><a xlink:href="Matrix4_8hpp.html" target="_top" xlink:title="Defines the Matrix4 class for 3D transformation operations.">
<polygon fill="white" stroke="#666666" points="1005,-497.5 863,-497.5 863,-478.5 1005,-478.5 1005,-497.5"/>
<text text-anchor="middle" x="934" y="-485.5" font-family="Helvetica,sans-Serif" font-size="10.00">include/math/Matrix4.hpp</text>
</a>
</g>
</g>
<!-- Node1&#45;&gt;Node14 -->
<g id="edge25_Node000001_Node000014" class="edge">
<title>Node1&#45;&gt;Node14</title>
<g id="a_edge25_Node000001_Node000014"><a xlink:title=" ">
<path fill="none" stroke="#63b8ff" d="M687.29,-590.09C743.87,-566.9 864.27,-517.57 912.94,-497.63"/>
<polygon fill="#63b8ff" stroke="#63b8ff" points="685.75,-586.94 677.82,-593.97 688.4,-593.42 685.75,-586.94"/>
</a>
</g>
</g>
<!-- Node15 -->
<g id="Node000015" class="node">
<title>Node15</title>
<g id="a_Node000015"><a xlink:href="Shader_8hpp.html" target="_top" xlink:title="Manages OpenGL shaders.">
<polygon fill="white" stroke="#666666" points="843,-431.5 685,-431.5 685,-412.5 843,-412.5 843,-431.5"/>
<text text-anchor="middle" x="764" y="-419.5" font-family="Helvetica,sans-Serif" font-size="10.00">include/rendering/Shader.hpp</text>
</a>
</g>
</g>
<!-- Node1&#45;&gt;Node15 -->
<g id="edge50_Node000001_Node000015" class="edge">
<title>Node1&#45;&gt;Node15</title>
<g id="a_edge50_Node000001_Node000015"><a xlink:title=" ">
<path fill="none" stroke="#63b8ff" d="M666.36,-584.81C679.83,-559.62 705.73,-512.13 730,-473 739.19,-458.19 750.75,-441.56 757.75,-431.7"/>
<polygon fill="#63b8ff" stroke="#63b8ff" points="663.15,-583.4 661.54,-593.87 669.33,-586.69 663.15,-583.4"/>
</a>
</g>
</g>
<!-- Node16 -->
<g id="Node000016" class="node">
<title>Node16</title>
<g id="a_Node000016"><a xlink:href="Material_8hpp_source.html" target="_top" xlink:title=" ">
<polygon fill="white" stroke="#666666" points="635,-365.5 469,-365.5 469,-346.5 635,-346.5 635,-365.5"/>
<text text-anchor="middle" x="552" y="-353.5" font-family="Helvetica,sans-Serif" font-size="10.00">include/rendering/Material.hpp</text>
</a>
</g>
</g>
<!-- Node1&#45;&gt;Node16 -->
<g id="edge42_Node000001_Node000016" class="edge">
<title>Node1&#45;&gt;Node16</title>
<g id="a_edge42_Node000001_Node000016"><a xlink:title=" ">
<path fill="none" stroke="#63b8ff" d="M652.84,-584.17C643.02,-541.71 617.87,-437.9 600,-407 590.36,-390.33 574.02,-374.97 563.12,-365.79"/>
<polygon fill="#63b8ff" stroke="#63b8ff" points="649.44,-585.02 655.09,-593.99 656.27,-583.46 649.44,-585.02"/>
</a>
</g>
</g>
<!-- Node17 -->
<g id="Node000017" class="node">
<title>Node17</title>
<g id="a_Node000017"><a xlink:href="Quaternion_8hpp.html" target="_top" xlink:title="Defines the Quaternion class for representing 3D rotations.">
<polygon fill="white" stroke="#666666" points="1010,-558 852,-558 852,-539 1010,-539 1010,-558"/>
<text text-anchor="middle" x="931" y="-546" font-family="Helvetica,sans-Serif" font-size="10.00">include/math/Quaternion.hpp</text>
</a>
</g>
</g>
<!-- Node1&#45;&gt;Node17 -->
<g id="edge35_Node000001_Node000017" class="edge">
<title>Node1&#45;&gt;Node17</title>
<g id="a_edge35_Node000001_Node000017"><a xlink:title=" ">
<path fill="none" stroke="#63b8ff" d="M710.95,-592.07C762.31,-582.13 838.7,-567.35 886.63,-558.08"/>
<polygon fill="#63b8ff" stroke="#63b8ff" points="710.18,-588.65 701.02,-593.98 711.51,-595.52 710.18,-588.65"/>
</a>
</g>
</g>
<!-- Node18 -->
<g id="Node000018" class="node">
<title>Node18</title>
<g id="a_Node000018"><a xlink:href="Mesh_8hpp.html" target="_top" xlink:title="Defines the Mesh class for managing 3D geometry.">
<polygon fill="white" stroke="#666666" points="375,-365.5 223,-365.5 223,-346.5 375,-346.5 375,-365.5"/>
<text text-anchor="middle" x="299" y="-353.5" font-family="Helvetica,sans-Serif" font-size="10.00">include/rendering/Mesh.hpp</text>
</a>
</g>
</g>
<!-- Node1&#45;&gt;Node18 -->
<g id="edge43_Node000001_Node000018" class="edge">
<title>Node1&#45;&gt;Node18</title>
<g id="a_edge43_Node000001_Node000018"><a xlink:title=" ">
<path fill="none" stroke="#63b8ff" d="M576.36,-593.73C520.14,-586.35 451.07,-574.38 427,-558 352.43,-507.27 312.04,-397.18 301.69,-365.62"/>
<polygon fill="#63b8ff" stroke="#63b8ff" points="575.97,-597.21 586.33,-595.01 576.86,-590.26 575.97,-597.21"/>
</a>
</g>
</g>
<!-- Node3&#45;&gt;Node4 -->
<g id="edge3_Node000003_Node000004" class="edge">
<title>Node3&#45;&gt;Node4</title>
<g id="a_edge3_Node000003_Node000004"><a xlink:title=" ">
<path fill="none" stroke="#63b8ff" d="M489.75,-401.7C477.99,-393.91 466.54,-383.72 460,-371 453.9,-359.14 457.86,-354.16 460,-341 464.95,-310.48 467.36,-302.23 482,-275 501.96,-237.88 535.85,-200.47 551.55,-184.09"/>
<polygon fill="#63b8ff" stroke="#63b8ff" points="487.95,-404.7 498.3,-406.94 491.61,-398.73 487.95,-404.7"/>
</a>
</g>
</g>
<!-- Node3&#45;&gt;Node7 -->
<g id="edge9_Node000003_Node000007" class="edge">
<title>Node3&#45;&gt;Node7</title>
<g id="a_edge9_Node000003_Node000007"><a xlink:title=" ">
<path fill="none" stroke="#63b8ff" d="M582.64,-403.72C613.89,-393.47 652.99,-380.63 682.31,-371.01"/>
<polygon fill="#63b8ff" stroke="#63b8ff" points="581.2,-400.51 572.79,-406.95 583.39,-407.16 581.2,-400.51"/>
</a>
</g>
</g>
<!-- Node4&#45;&gt;Node2 -->
<g id="edge4_Node000004_Node000002" class="edge">
<title>Node4&#45;&gt;Node2</title>
<g id="a_edge4_Node000004_Node000002"><a xlink:title=" ">
<path fill="none" stroke="#63b8ff" d="M570.38,-156.13C586.15,-130.98 618.33,-84.24 656,-55 677.22,-38.53 705.52,-26.44 726.08,-19.05"/>
<polygon fill="#63b8ff" stroke="#63b8ff" points="567.24,-154.56 564.99,-164.92 573.2,-158.22 567.24,-154.56"/>
</a>
</g>
</g>
<!-- Node5 -->
<g id="Node000005" class="node">
<title>Node5</title>
<g id="a_Node000005"><a xlink:href="Renderer_8hpp.html" target="_top" xlink:title="Manages the rendering pipeline and object submission.">
<polygon fill="white" stroke="#666666" points="873.5,-129 704.5,-129 704.5,-110 873.5,-110 873.5,-129"/>
<text text-anchor="middle" x="789" y="-117" font-family="Helvetica,sans-Serif" font-size="10.00">include/rendering/Renderer.hpp</text>
</a>
</g>
</g>
<!-- Node4&#45;&gt;Node5 -->
<g id="edge5_Node000004_Node000005" class="edge">
<title>Node4&#45;&gt;Node5</title>
<g id="a_edge5_Node000004_Node000005"><a xlink:title=" ">
<path fill="none" stroke="#63b8ff" d="M606.71,-162.69C649.61,-152.76 712.36,-138.24 751.92,-129.08"/>
<polygon fill="#63b8ff" stroke="#63b8ff" points="605.75,-159.32 596.79,-164.98 607.32,-166.14 605.75,-159.32"/>
</a>
</g>
</g>
<!-- Node5&#45;&gt;Node2 -->
<g id="edge8_Node000005_Node000002" class="edge">
<title>Node5&#45;&gt;Node2</title>
<g id="a_edge8_Node000005_Node000002"><a xlink:title=" ">
<path fill="none" stroke="#63b8ff" d="M804.58,-102.04C814.89,-89.06 825.15,-70.59 817,-55 808.16,-38.09 789.64,-26.31 774.79,-19.13"/>
<polygon fill="#63b8ff" stroke="#63b8ff" points="801.85,-99.84 797.98,-109.7 807.16,-104.41 801.85,-99.84"/>
</a>
</g>
</g>
<!-- Node6 -->
<g id="Node000006" class="node">
<title>Node6</title>
<g id="a_Node000006"><a xlink:href="Engine_8hpp.html" target="_top" xlink:title="Defines the core Engine class responsible for running simulation.">
<polygon fill="white" stroke="#666666" points="807.5,-74 698.5,-74 698.5,-55 807.5,-55 807.5,-74"/>
<text text-anchor="middle" x="753" y="-62" font-family="Helvetica,sans-Serif" font-size="10.00">include/Engine.hpp</text>
</a>
</g>
</g>
<!-- Node5&#45;&gt;Node6 -->
<g id="edge6_Node000005_Node000006" class="edge">
<title>Node5&#45;&gt;Node6</title>
<g id="a_edge6_Node000005_Node000006"><a xlink:title=" ">
<path fill="none" stroke="#63b8ff" d="M777.38,-101.39C771.18,-92.27 763.83,-81.45 758.83,-74.09"/>
<polygon fill="#63b8ff" stroke="#63b8ff" points="774.54,-103.44 783.06,-109.75 780.33,-99.51 774.54,-103.44"/>
</a>
</g>
</g>
<!-- Node6&#45;&gt;Node2 -->
<g id="edge7_Node000006_Node000002" class="edge">
<title>Node6&#45;&gt;Node2</title>
<g id="a_edge7_Node000006_Node000002"><a xlink:title=" ">
<path fill="none" stroke="#63b8ff" d="M753,-44.66C753,-35.93 753,-25.99 753,-19.09"/>
<polygon fill="#63b8ff" stroke="#63b8ff" points="749.5,-44.75 753,-54.75 756.5,-44.75 749.5,-44.75"/>
</a>
</g>
</g>
<!-- Node7&#45;&gt;Node5 -->
<g id="edge10_Node000007_Node000005" class="edge">
<title>Node7&#45;&gt;Node5</title>
<g id="a_edge10_Node000007_Node000005"><a xlink:title=" ">
<path fill="none" stroke="#63b8ff" d="M731.6,-330.82C745.58,-279.61 777.61,-162.23 786.61,-129.26"/>
<polygon fill="#63b8ff" stroke="#63b8ff" points="728.16,-330.12 728.91,-340.68 734.92,-331.96 728.16,-330.12"/>
</a>
</g>
</g>
<!-- Node9 -->
<g id="Node000009" class="node">
<title>Node9</title>
<g id="a_Node000009"><a xlink:href="Object_8hpp.html" target="_top" xlink:title="Defines the Object class, a special ECS entity wrapper.">
<polygon fill="white" stroke="#666666" points="729,-239 583,-239 583,-220 729,-220 729,-239"/>
<text text-anchor="middle" x="656" y="-227" font-family="Helvetica,sans-Serif" font-size="10.00">include/objects/Object.hpp</text>
</a>
</g>
</g>
<!-- Node8&#45;&gt;Node9 -->
<g id="edge12_Node000008_Node000009" class="edge">
<title>Node8&#45;&gt;Node9</title>
<g id="a_edge12_Node000008_Node000009"><a xlink:title=" ">
<path fill="none" stroke="#63b8ff" d="M591.11,-269.64C608.25,-259.3 628.49,-247.09 641.75,-239.09"/>
<polygon fill="#63b8ff" stroke="#63b8ff" points="589.24,-266.68 582.48,-274.84 592.85,-272.67 589.24,-266.68"/>
</a>
</g>
</g>
<!-- Node9&#45;&gt;Node2 -->
<g id="edge13_Node000009_Node000002" class="edge">
<title>Node9&#45;&gt;Node2</title>
<g id="a_edge13_Node000009_Node000002"><a xlink:title=" ">
<path fill="none" stroke="#63b8ff" d="M655.29,-209.42C654.94,-175.54 658.36,-103.86 690,-55 700.55,-38.7 719.36,-26.59 733.69,-19.15"/>
<polygon fill="#63b8ff" stroke="#63b8ff" points="651.8,-209.81 655.53,-219.73 658.8,-209.65 651.8,-209.81"/>
</a>
</g>
</g>
<!-- Node9&#45;&gt;Node4 -->
<g id="edge14_Node000009_Node000004" class="edge">
<title>Node9&#45;&gt;Node4</title>
<g id="a_edge14_Node000009_Node000004"><a xlink:title=" ">
<path fill="none" stroke="#63b8ff" d="M631.48,-214.97C613.94,-205.28 590.83,-192.52 575.7,-184.17"/>
<polygon fill="#63b8ff" stroke="#63b8ff" points="630.13,-218.22 640.58,-219.98 633.51,-212.09 630.13,-218.22"/>
</a>
</g>
</g>
<!-- Node9&#45;&gt;Node5 -->
<g id="edge18_Node000009_Node000005" class="edge">
<title>Node9&#45;&gt;Node5</title>
<g id="a_edge18_Node000009_Node000005"><a xlink:title=" ">
<path fill="none" stroke="#63b8ff" d="M674.83,-213.21C703.16,-190.2 755.82,-147.44 778.34,-129.16"/>
<polygon fill="#63b8ff" stroke="#63b8ff" points="672.44,-210.64 666.88,-219.66 676.85,-216.08 672.44,-210.64"/>
</a>
</g>
</g>
<!-- Node9&#45;&gt;Node10 -->
<g id="edge15_Node000009_Node000010" class="edge">
<title>Node9&#45;&gt;Node10</title>
<g id="a_edge15_Node000009_Node000010"><a xlink:title=" ">
<path fill="none" stroke="#63b8ff" d="M723.02,-218.49C789.67,-208.54 890.83,-193.44 953.81,-184.04"/>
<polygon fill="#63b8ff" stroke="#63b8ff" points="722.41,-215.05 713.04,-219.98 723.44,-221.97 722.41,-215.05"/>
</a>
</g>
</g>
<!-- Node10&#45;&gt;Node2 -->
<g id="edge16_Node000010_Node000002" class="edge">
<title>Node10&#45;&gt;Node2</title>
<g id="a_edge16_Node000010_Node000002"><a xlink:title=" ">
<path fill="none" stroke="#63b8ff" d="M1001.63,-156.03C986.76,-130.02 955.28,-81.34 915,-55 886.31,-36.25 849.83,-25.33 818.76,-19.02"/>
<polygon fill="#63b8ff" stroke="#63b8ff" points="998.58,-157.76 1006.5,-164.8 1004.7,-154.36 998.58,-157.76"/>
</a>
</g>
</g>
<!-- Node10&#45;&gt;Node5 -->
<g id="edge17_Node000010_Node000005" class="edge">
<title>Node10&#45;&gt;Node5</title>
<g id="a_edge17_Node000010_Node000005"><a xlink:title=" ">
<path fill="none" stroke="#63b8ff" d="M965.46,-162.63C923.87,-152.7 863.22,-138.22 824.95,-129.08"/>
<polygon fill="#63b8ff" stroke="#63b8ff" points="964.79,-166.07 975.33,-164.98 966.42,-159.26 964.79,-166.07"/>
</a>
</g>
</g>
<!-- Node12 -->
<g id="Node000012" class="node">
<title>Node12</title>
<g id="a_Node000012"><a xlink:href="PhysicsSystem_8hpp.html" target="_top" xlink:title="Defines the PhysicsSystem.">
<polygon fill="white" stroke="#666666" points="1156.5,-365.5 967.5,-365.5 967.5,-346.5 1156.5,-346.5 1156.5,-365.5"/>
<text text-anchor="middle" x="1062" y="-353.5" font-family="Helvetica,sans-Serif" font-size="10.00">include/physics/PhysicsSystem.hpp</text>
</a>
</g>
</g>
<!-- Node11&#45;&gt;Node12 -->
<g id="edge20_Node000011_Node000012" class="edge">
<title>Node11&#45;&gt;Node12</title>
<g id="a_edge20_Node000011_Node000012"><a xlink:title=" ">
<path fill="none" stroke="#63b8ff" d="M1116.19,-463.73C1101.32,-434.44 1076.5,-385.57 1066.44,-365.75"/>
<polygon fill="#63b8ff" stroke="#63b8ff" points="1113.16,-465.51 1120.81,-472.84 1119.41,-462.34 1113.16,-465.51"/>
</a>
</g>
</g>
<!-- Node13&#45;&gt;Node7 -->
<g id="edge24_Node000013_Node000007" class="edge">
<title>Node13&#45;&gt;Node7</title>
<g id="a_edge24_Node000013_Node000007"><a xlink:title=" ">
<path fill="none" stroke="#63b8ff" d="M878.45,-403.99C844.82,-393.69 802.45,-380.72 770.76,-371.01"/>
<polygon fill="#63b8ff" stroke="#63b8ff" points="877.55,-407.37 888.13,-406.95 879.6,-400.68 877.55,-407.37"/>
</a>
</g>
</g>
<!-- Node13&#45;&gt;Node9 -->
<g id="edge22_Node000013_Node000009" class="edge">
<title>Node13&#45;&gt;Node9</title>
<g id="a_edge22_Node000013_Node000009"><a xlink:title=" ">
<path fill="none" stroke="#63b8ff" d="M904.97,-401.1C845.18,-360.14 710.45,-267.81 668.63,-239.15"/>
<polygon fill="#63b8ff" stroke="#63b8ff" points="903.33,-404.23 913.56,-406.99 907.29,-398.45 903.33,-404.23"/>
</a>
</g>
</g>
<!-- Node13&#45;&gt;Node12 -->
<g id="edge23_Node000013_Node000012" class="edge">
<title>Node13&#45;&gt;Node12</title>
<g id="a_edge23_Node000013_Node000012"><a xlink:title=" ">
<path fill="none" stroke="#63b8ff" d="M971.08,-402.46C995.46,-390.27 1026.2,-374.9 1044.97,-365.52"/>
<polygon fill="#63b8ff" stroke="#63b8ff" points="969.47,-399.35 962.09,-406.95 972.6,-405.61 969.47,-399.35"/>
</a>
</g>
</g>
<!-- Node14&#45;&gt;Node2 -->
<g id="edge26_Node000014_Node000002" class="edge">
<title>Node14&#45;&gt;Node2</title>
<g id="a_edge26_Node000014_Node000002"><a xlink:title=" ">
<path fill="none" stroke="#63b8ff" d="M982.82,-475.74C1035.99,-460.9 1119.62,-429.52 1166,-371 1188.7,-342.36 1185,-327.54 1185,-291 1185,-291 1185,-291 1185,-118.5 1185,-44.86 945.78,-21.01 823.37,-13.63"/>
<polygon fill="#63b8ff" stroke="#63b8ff" points="981.69,-472.42 972.94,-478.41 983.51,-479.18 981.69,-472.42"/>
</a>
</g>
</g>
<!-- Node14&#45;&gt;Node10 -->
<g id="edge28_Node000014_Node000010" class="edge">
<title>Node14&#45;&gt;Node10</title>
<g id="a_edge28_Node000014_Node000010"><a xlink:title=" ">
<path fill="none" stroke="#63b8ff" d="M970.62,-474.39C987.63,-466.49 1006.22,-454.42 1016,-437 1022.53,-425.37 1022.44,-418.68 1016,-407 1001.54,-380.76 973.46,-397.24 959,-371 952.56,-359.32 956.98,-354.18 959,-341 968.5,-279.08 996.89,-208.52 1007.2,-184.24"/>
<polygon fill="#63b8ff" stroke="#63b8ff" points="969.2,-471.2 961.4,-478.37 971.97,-477.62 969.2,-471.2"/>
</a>
</g>
</g>
<!-- Node14&#45;&gt;Node13 -->
<g id="edge27_Node000014_Node000013" class="edge">
<title>Node14&#45;&gt;Node13</title>
<g id="a_edge27_Node000014_Node000013"><a xlink:title=" ">
<path fill="none" stroke="#63b8ff" d="M934,-468.35C934,-458.47 934,-446.51 934,-437.36"/>
<polygon fill="#63b8ff" stroke="#63b8ff" points="930.5,-468.37 934,-478.37 937.5,-468.37 930.5,-468.37"/>
</a>
</g>
</g>
<!-- Node14&#45;&gt;Node15 -->
<g id="edge29_Node000014_Node000015" class="edge">
<title>Node14&#45;&gt;Node15</title>
<g id="a_edge29_Node000014_Node000015"><a xlink:title=" ">
<path fill="none" stroke="#63b8ff" d="M901.7,-474.84C868.11,-462.2 816.4,-442.73 786.83,-431.6"/>
<polygon fill="#63b8ff" stroke="#63b8ff" points="900.48,-478.12 911.07,-478.37 902.95,-471.57 900.48,-478.12"/>
</a>
</g>
</g>
<!-- Node15&#45;&gt;Node2 -->
<g id="edge30_Node000015_Node000002" class="edge">
<title>Node15&#45;&gt;Node2</title>
<g id="a_edge30_Node000015_Node000002"><a xlink:title=" ">
<path fill="none" stroke="#63b8ff" d="M794.57,-408.32C834.95,-389.3 901,-349.28 901,-291 901,-291 901,-291 901,-118.5 901,-62.36 830.65,-32.29 786.95,-19.03"/>
<polygon fill="#63b8ff" stroke="#63b8ff" points="793.06,-405.17 785.41,-412.49 795.96,-411.54 793.06,-405.17"/>
</a>
</g>
</g>
<!-- Node15&#45;&gt;Node5 -->
<g id="edge34_Node000015_Node000005" class="edge">
<title>Node15&#45;&gt;Node5</title>
<g id="a_edge34_Node000015_Node000005"><a xlink:title=" ">
<path fill="none" stroke="#63b8ff" d="M785.71,-406.4C814.85,-384.88 863,-341.65 863,-291 863,-291 863,-291 863,-228.5 863,-184.86 821.38,-145.93 800.56,-129.19"/>
<polygon fill="#63b8ff" stroke="#63b8ff" points="783.46,-403.71 777.35,-412.37 787.52,-409.41 783.46,-403.71"/>
</a>
</g>
</g>
<!-- Node15&#45;&gt;Node16 -->
<g id="edge31_Node000015_Node000016" class="edge">
<title>Node15&#45;&gt;Node16</title>
<g id="a_edge31_Node000015_Node000016"><a xlink:title=" ">
<path fill="none" stroke="#63b8ff" d="M725.59,-409.4C683.78,-396.78 617.9,-376.89 580.48,-365.6"/>
<polygon fill="#63b8ff" stroke="#63b8ff" points="724.82,-412.83 735.41,-412.37 726.85,-406.13 724.82,-412.83"/>
</a>
</g>
</g>
<!-- Node16&#45;&gt;Node8 -->
<g id="edge32_Node000016_Node000008" class="edge">
<title>Node16&#45;&gt;Node8</title>
<g id="a_edge32_Node000016_Node000008"><a xlink:title=" ">
<path fill="none" stroke="#63b8ff" d="M554.04,-336.35C555.12,-326.47 556.43,-314.51 557.43,-305.36"/>
<polygon fill="#63b8ff" stroke="#63b8ff" points="550.55,-336.05 552.94,-346.37 557.51,-336.81 550.55,-336.05"/>
</a>
</g>
</g>
<!-- Node16&#45;&gt;Node9 -->
<g id="edge33_Node000016_Node000009" class="edge">
<title>Node16&#45;&gt;Node9</title>
<g id="a_edge33_Node000016_Node000009"><a xlink:title=" ">
<path fill="none" stroke="#63b8ff" d="M586.31,-342.37C603.9,-334.24 624.24,-321.98 637,-305 652.07,-284.94 655.26,-254.16 655.88,-239.23"/>
<polygon fill="#63b8ff" stroke="#63b8ff" points="584.66,-339.27 576.88,-346.47 587.45,-345.69 584.66,-339.27"/>
</a>
</g>
</g>
<!-- Node17&#45;&gt;Node2 -->
<g id="edge36_Node000017_Node000002" class="edge">
<title>Node17&#45;&gt;Node2</title>
<g id="a_edge36_Node000017_Node000002"><a xlink:title=" ">
<path fill="none" stroke="#63b8ff" d="M958.14,-534.48C974.69,-526.16 996.05,-514.76 1014,-503 1032,-491.2 1034.01,-484.8 1052,-473 1080.26,-454.46 1091.65,-456.86 1119,-437 1153.34,-412.06 1158.35,-401.36 1188,-371 1221.63,-336.57 1261,-339.13 1261,-291 1261,-291 1261,-291 1261,-118.5 1261,-30.03 962.46,-13.73 823.1,-10.94"/>
<polygon fill="#63b8ff" stroke="#63b8ff" points="956.42,-531.42 949.01,-539 959.52,-537.7 956.42,-531.42"/>
</a>
</g>
</g>
<!-- Node17&#45;&gt;Node13 -->
<g id="edge37_Node000017_Node000013" class="edge">
<title>Node17&#45;&gt;Node13</title>
<g id="a_edge37_Node000017_Node000013"><a xlink:title=" ">
<path fill="none" stroke="#63b8ff" d="M892.35,-534.77C877.65,-527.83 862.42,-517.59 854,-503 847.34,-491.45 847.54,-484.66 854,-473 863.05,-456.67 879.91,-444.97 895.82,-437.01"/>
<polygon fill="#63b8ff" stroke="#63b8ff" points="891.29,-538.13 901.86,-538.87 894.07,-531.7 891.29,-538.13"/>
</a>
</g>
</g>
<!-- Node17&#45;&gt;Node14 -->
<g id="edge38_Node000017_Node000014" class="edge">
<title>Node17&#45;&gt;Node14</title>
<g id="a_edge38_Node000017_Node000014"><a xlink:title=" ">
<path fill="none" stroke="#63b8ff" d="M931.97,-528.66C932.5,-518.24 933.14,-505.8 933.56,-497.67"/>
<polygon fill="#63b8ff" stroke="#63b8ff" points="928.46,-528.7 931.44,-538.87 935.45,-529.06 928.46,-528.7"/>
</a>
</g>
</g>
<!-- Node18&#45;&gt;Node2 -->
<g id="edge44_Node000018_Node000002" class="edge">
<title>Node18&#45;&gt;Node2</title>
<g id="a_edge44_Node000018_Node000002"><a xlink:title=" ">
<path fill="none" stroke="#63b8ff" d="M277.83,-340.34C250.39,-319.42 206,-278.22 206,-230.5 206,-230.5 206,-230.5 206,-118.5 206,-22.37 535.29,-10.39 682.89,-9.86"/>
<polygon fill="#63b8ff" stroke="#63b8ff" points="275.94,-343.3 286.07,-346.4 280.09,-337.66 275.94,-343.3"/>
</a>
</g>
</g>
<!-- Node18&#45;&gt;Node9 -->
<g id="edge49_Node000018_Node000009" class="edge">
<title>Node18&#45;&gt;Node9</title>
<g id="a_edge49_Node000018_Node000009"><a xlink:title=" ">
<path fill="none" stroke="#63b8ff" d="M293.54,-336.27C289.53,-318.21 287.07,-291.3 302,-275 320.62,-254.67 484.49,-241.1 582.62,-234.72"/>
<polygon fill="#63b8ff" stroke="#63b8ff" points="290.21,-337.38 296.09,-346.19 296.99,-335.63 290.21,-337.38"/>
</a>
</g>
</g>
<!-- Node19 -->
<g id="Node000019" class="node">
<title>Node19</title>
<g id="a_Node000019"><a xlink:href="MeshGenerator_8hpp_source.html" target="_top" xlink:title=" ">
<polygon fill="white" stroke="#666666" points="178,-239 28,-239 28,-220 178,-220 178,-239"/>
<text text-anchor="middle" x="103" y="-227" font-family="Helvetica,sans-Serif" font-size="10.00">include/MeshGenerator.hpp</text>
</a>
</g>
</g>
<!-- Node18&#45;&gt;Node19 -->
<g id="edge45_Node000018_Node000019" class="edge">
<title>Node18&#45;&gt;Node19</title>
<g id="a_edge45_Node000018_Node000019"><a xlink:title=" ">
<path fill="none" stroke="#63b8ff" d="M266.91,-342.59C245.05,-333.52 215.85,-320.19 192,-305 160.05,-284.65 127.03,-254.01 111.74,-239.17"/>
<polygon fill="#63b8ff" stroke="#63b8ff" points="265.82,-345.92 276.4,-346.45 268.46,-339.44 265.82,-345.92"/>
</a>
</g>
</g>
<!-- Node20 -->
<g id="Node000020" class="node">
<title>Node20</title>
<g id="a_Node000020"><a xlink:href="MeshComponent_8hpp_source.html" target="_top" xlink:title=" ">
<polygon fill="white" stroke="#666666" points="433.5,-305 310.5,-305 310.5,-275 433.5,-275 433.5,-305"/>
<text text-anchor="start" x="318.5" y="-293" font-family="Helvetica,sans-Serif" font-size="10.00">include/components</text>
<text text-anchor="middle" x="372" y="-282" font-family="Helvetica,sans-Serif" font-size="10.00">/MeshComponent.hpp</text>
</a>
</g>
</g>
<!-- Node18&#45;&gt;Node20 -->
<g id="edge47_Node000018_Node000020" class="edge">
<title>Node18&#45;&gt;Node20</title>
<g id="a_edge47_Node000018_Node000020"><a xlink:title=" ">
<path fill="none" stroke="#63b8ff" d="M316.44,-339.71C328.42,-329.21 344.21,-315.36 355.9,-305.12"/>
<polygon fill="#63b8ff" stroke="#63b8ff" points="314.06,-337.14 308.85,-346.37 318.67,-342.41 314.06,-337.14"/>
</a>
</g>
</g>
<!-- Node19&#45;&gt;Node2 -->
<g id="edge46_Node000019_Node000002" class="edge">
<title>Node19&#45;&gt;Node2</title>
<g id="a_edge46_Node000019_Node000002"><a xlink:title=" ">
<path fill="none" stroke="#63b8ff" d="M106.41,-209.79C114.22,-172.99 137.12,-91.59 192,-55 231.96,-28.36 541.48,-16.39 682.91,-12.27"/>
<polygon fill="#63b8ff" stroke="#63b8ff" points="102.96,-209.19 104.46,-219.68 109.83,-210.55 102.96,-209.19"/>
</a>
</g>
</g>
<!-- Node20&#45;&gt;Node9 -->
<g id="edge48_Node000020_Node000009" class="edge">
<title>Node20&#45;&gt;Node9</title>
<g id="a_edge48_Node000020_Node000009"><a xlink:title=" ">
<path fill="none" stroke="#63b8ff" d="M443.49,-274.27C497.55,-263.14 569.87,-248.24 614.67,-239.01"/>
<polygon fill="#63b8ff" stroke="#63b8ff" points="442.71,-270.86 433.62,-276.31 444.12,-277.72 442.71,-270.86"/>
</a>
</g>
</g>
</g>
</svg>
