<?xml version="1.0" encoding="UTF-8" standalone="no"?>
<!DOCTYPE svg PUBLIC "-//W3C//DTD SVG 1.1//EN"
 "http://www.w3.org/Graphics/SVG/1.1/DTD/svg11.dtd">
<!-- Generated by graphviz version 2.43.0 (0)
 -->
<!-- Title: include/math/Vector3.hpp Pages: 1 -->
<svg width="1010pt" height="500pt"
 viewBox="0.00 0.00 1010.05 500.00" xmlns="http://www.w3.org/2000/svg" xmlns:xlink="http://www.w3.org/1999/xlink">
<g id="graph0" class="graph" transform="scale(1 1) rotate(0) translate(4 496)">
<title>include/math/Vector3.hpp</title>
<!-- Node1 -->
<g id="Node000001" class="node">
<title>Node1</title>
<g id="a_Node000001"><a xlink:title="Defines the Vector3 class.">
<polygon fill="#999999" stroke="#666666" points="448.55,-492 307.55,-492 307.55,-473 448.55,-473 448.55,-492"/>
<text text-anchor="middle" x="378.05" y="-480" font-family="Helvetica,sans-Serif" font-size="10.00">include/math/Vector3.hpp</text>
</a>
</g>
</g>
<!-- Node2 -->
<g id="Node000002" class="node">
<title>Node2</title>
<g id="a_Node000002"><a xlink:href="FrameEngine_8hpp_source.html" target="_top" xlink:title=" ">
<polygon fill="white" stroke="#666666" points="533.05,-19 393.05,-19 393.05,0 533.05,0 533.05,-19"/>
<text text-anchor="middle" x="463.05" y="-7" font-family="Helvetica,sans-Serif" font-size="10.00">include/FrameEngine.hpp</text>
</a>
</g>
</g>
<!-- Node1&#45;&gt;Node2 -->
<g id="edge1_Node000001_Node000002" class="edge">
<title>Node1&#45;&gt;Node2</title>
<g id="a_edge1_Node000001_Node000002"><a xlink:title=" ">
<path fill="none" stroke="#63b8ff" d="M297.05,-481.8C204.43,-480.4 60.5,-472.36 21.05,-437 -6.16,-412.61 2.05,-393.54 2.05,-357 2.05,-357 2.05,-357 2.05,-118.5 2.05,-39.18 264.07,-18.07 393.04,-12.49"/>
<polygon fill="#63b8ff" stroke="#63b8ff" points="297.2,-485.3 307.24,-481.93 297.29,-478.3 297.2,-485.3"/>
</a>
</g>
</g>
<!-- Node3 -->
<g id="Node000003" class="node">
<title>Node3</title>
<g id="a_Node000003"><a xlink:href="LightComponent_8hpp_source.html" target="_top" xlink:title=" ">
<polygon fill="white" stroke="#666666" points="151.55,-437 30.55,-437 30.55,-407 151.55,-407 151.55,-437"/>
<text text-anchor="start" x="38.55" y="-425" font-family="Helvetica,sans-Serif" font-size="10.00">include/components</text>
<text text-anchor="middle" x="91.05" y="-414" font-family="Helvetica,sans-Serif" font-size="10.00">/LightComponent.hpp</text>
</a>
</g>
</g>
<!-- Node1&#45;&gt;Node3 -->
<g id="edge2_Node000001_Node000003" class="edge">
<title>Node1&#45;&gt;Node3</title>
<g id="a_edge2_Node000001_Node000003"><a xlink:title=" ">
<path fill="none" stroke="#63b8ff" d="M326.23,-470.94C277.14,-460.93 203.41,-445.9 151.62,-435.35"/>
<polygon fill="#63b8ff" stroke="#63b8ff" points="325.82,-474.43 336.32,-472.99 327.22,-467.57 325.82,-474.43"/>
</a>
</g>
</g>
<!-- Node4 -->
<g id="Node000004" class="node">
<title>Node4</title>
<g id="a_Node000004"><a xlink:href="PhysicsComponent_8hpp.html" target="_top" xlink:title="Defines the PhysicsComponent for ECS&#45;based physics simulation.">
<polygon fill="white" stroke="#666666" points="578.05,-371 444.05,-371 444.05,-341 578.05,-341 578.05,-371"/>
<text text-anchor="start" x="452.05" y="-359" font-family="Helvetica,sans-Serif" font-size="10.00">include/components</text>
<text text-anchor="middle" x="511.05" y="-348" font-family="Helvetica,sans-Serif" font-size="10.00">/PhysicsComponent.hpp</text>
</a>
</g>
</g>
<!-- Node1&#45;&gt;Node4 -->
<g id="edge3_Node000001_Node000004" class="edge">
<title>Node1&#45;&gt;Node4</title>
<g id="a_edge3_Node000001_Node000004"><a xlink:title=" ">
<path fill="none" stroke="#63b8ff" d="M402.92,-467.77C416.41,-459.72 432.94,-448.82 446.05,-437 468.64,-416.62 489.89,-388.03 501.62,-371.12"/>
<polygon fill="#63b8ff" stroke="#63b8ff" points="401.04,-464.82 394.15,-472.87 404.56,-470.87 401.04,-464.82"/>
</a>
</g>
</g>
<!-- Node6 -->
<g id="Node000006" class="node">
<title>Node6</title>
<g id="a_Node000006"><a xlink:href="TransformComponent_8hpp.html" target="_top" xlink:title="Defines the TransformComponent for ECS&#45;based spatial transformations.">
<polygon fill="white" stroke="#666666" points="483.05,-305 337.05,-305 337.05,-275 483.05,-275 483.05,-305"/>
<text text-anchor="start" x="345.05" y="-293" font-family="Helvetica,sans-Serif" font-size="10.00">include/components</text>
<text text-anchor="middle" x="410.05" y="-282" font-family="Helvetica,sans-Serif" font-size="10.00">/TransformComponent.hpp</text>
</a>
</g>
</g>
<!-- Node1&#45;&gt;Node6 -->
<g id="edge5_Node000001_Node000006" class="edge">
<title>Node1&#45;&gt;Node6</title>
<g id="a_edge5_Node000001_Node000006"><a xlink:title=" ">
<path fill="none" stroke="#63b8ff" d="M394.97,-465.45C402.01,-457.62 409.38,-447.62 413.05,-437 428.98,-391 419.33,-331.88 413.51,-305.19"/>
<polygon fill="#63b8ff" stroke="#63b8ff" points="392.36,-463.12 387.94,-472.75 397.4,-467.98 392.36,-463.12"/>
</a>
</g>
</g>
<!-- Node8 -->
<g id="Node000008" class="node">
<title>Node8</title>
<g id="a_Node000008"><a xlink:href="PointLight_8hpp_source.html" target="_top" xlink:title=" ">
<polygon fill="white" stroke="#666666" points="795.55,-184 632.55,-184 632.55,-165 795.55,-165 795.55,-184"/>
<text text-anchor="middle" x="714.05" y="-172" font-family="Helvetica,sans-Serif" font-size="10.00">include/objects/PointLight.hpp</text>
</a>
</g>
</g>
<!-- Node1&#45;&gt;Node8 -->
<g id="edge30_Node000001_Node000008" class="edge">
<title>Node1&#45;&gt;Node8</title>
<g id="a_edge30_Node000001_Node000008"><a xlink:title=" ">
<path fill="none" stroke="#63b8ff" d="M452.34,-471.44C558.8,-454.92 742.05,-417.66 742.05,-357 742.05,-357 742.05,-357 742.05,-289 742.05,-248.81 725.3,-202.89 717.71,-184.15"/>
<polygon fill="#63b8ff" stroke="#63b8ff" points="451.65,-468.01 442.29,-472.98 452.7,-474.93 451.65,-468.01"/>
</a>
</g>
</g>
<!-- Node11 -->
<g id="Node000011" class="node">
<title>Node11</title>
<g id="a_Node000011"><a xlink:href="Camera_8hpp.html" target="_top" xlink:title="Defines the Camera class for view and projection.">
<polygon fill="white" stroke="#666666" points="538.05,-184 374.05,-184 374.05,-165 538.05,-165 538.05,-184"/>
<text text-anchor="middle" x="456.05" y="-172" font-family="Helvetica,sans-Serif" font-size="10.00">include/rendering/Camera.hpp</text>
</a>
</g>
</g>
<!-- Node1&#45;&gt;Node11 -->
<g id="edge31_Node000001_Node000011" class="edge">
<title>Node1&#45;&gt;Node11</title>
<g id="a_edge31_Node000001_Node000011"><a xlink:title=" ">
<path fill="none" stroke="#63b8ff" d="M430.98,-470.4C481.47,-456.65 554.49,-427.73 587.05,-371 617.57,-317.84 564.95,-269.72 520.05,-220 506.27,-204.73 486.29,-191.91 472.33,-184.01"/>
<polygon fill="#63b8ff" stroke="#63b8ff" points="430,-467.04 421.21,-472.96 431.77,-473.82 430,-467.04"/>
</a>
</g>
</g>
<!-- Node12 -->
<g id="Node000012" class="node">
<title>Node12</title>
<g id="a_Node000012"><a xlink:href="Matrix4_8hpp.html" target="_top" xlink:title="Defines the Matrix4 class for 3D transformation operations.">
<polygon fill="white" stroke="#666666" points="350.05,-365.5 208.05,-365.5 208.05,-346.5 350.05,-346.5 350.05,-365.5"/>
<text text-anchor="middle" x="279.05" y="-353.5" font-family="Helvetica,sans-Serif" font-size="10.00">include/math/Matrix4.hpp</text>
</a>
</g>
</g>
<!-- Node1&#45;&gt;Node12 -->
<g id="edge19_Node000001_Node000012" class="edge">
<title>Node1&#45;&gt;Node12</title>
<g id="a_edge19_Node000001_Node000012"><a xlink:title=" ">
<path fill="none" stroke="#63b8ff" d="M297.31,-473.99C274.15,-467.64 251.33,-456.47 237.05,-437 219.53,-413.09 250.77,-380.88 268.33,-365.66"/>
<polygon fill="#63b8ff" stroke="#63b8ff" points="296.68,-477.44 307.23,-476.42 298.35,-470.64 296.68,-477.44"/>
</a>
</g>
</g>
<!-- Node13 -->
<g id="Node000013" class="node">
<title>Node13</title>
<g id="a_Node000013"><a xlink:href="Shader_8hpp.html" target="_top" xlink:title="Manages OpenGL shaders.">
<polygon fill="white" stroke="#666666" points="356.05,-184 198.05,-184 198.05,-165 356.05,-165 356.05,-184"/>
<text text-anchor="middle" x="277.05" y="-172" font-family="Helvetica,sans-Serif" font-size="10.00">include/rendering/Shader.hpp</text>
</a>
</g>
</g>
<!-- Node1&#45;&gt;Node13 -->
<g id="edge37_Node000001_Node000013" class="edge">
<title>Node1&#45;&gt;Node13</title>
<g id="a_edge37_Node000001_Node000013"><a xlink:title=" ">
<path fill="none" stroke="#63b8ff" d="M297.58,-471.07C273,-464.57 247.39,-454.05 228.05,-437 204.02,-415.81 205.64,-402.36 199.05,-371 183.13,-295.18 247.07,-210.87 269.52,-184.12"/>
<polygon fill="#63b8ff" stroke="#63b8ff" points="296.75,-474.47 307.3,-473.44 298.42,-467.67 296.75,-474.47"/>
</a>
</g>
</g>
<!-- Node14 -->
<g id="Node000014" class="node">
<title>Node14</title>
<g id="a_Node000014"><a xlink:href="Quaternion_8hpp.html" target="_top" xlink:title="Defines the Quaternion class for representing 3D rotations.">
<polygon fill="white" stroke="#666666" points="404.05,-431.5 246.05,-431.5 246.05,-412.5 404.05,-412.5 404.05,-431.5"/>
<text text-anchor="middle" x="325.05" y="-419.5" font-family="Helvetica,sans-Serif" font-size="10.00">include/math/Quaternion.hpp</text>
</a>
</g>
</g>
<!-- Node1&#45;&gt;Node14 -->
<g id="edge26_Node000001_Node000014" class="edge">
<title>Node1&#45;&gt;Node14</title>
<g id="a_edge26_Node000001_Node000014"><a xlink:title=" ">
<path fill="none" stroke="#63b8ff" d="M363.35,-465.27C353.49,-454.39 340.9,-440.49 332.91,-431.67"/>
<polygon fill="#63b8ff" stroke="#63b8ff" points="360.92,-467.81 370.23,-472.87 366.11,-463.11 360.92,-467.81"/>
</a>
</g>
</g>
<!-- Node15 -->
<g id="Node000015" class="node">
<title>Node15</title>
<g id="a_Node000015"><a xlink:href="Mesh_8hpp.html" target="_top" xlink:title="Defines the Mesh class for managing 3D geometry.">
<polygon fill="white" stroke="#666666" points="922.05,-299.5 770.05,-299.5 770.05,-280.5 922.05,-280.5 922.05,-299.5"/>
<text text-anchor="middle" x="846.05" y="-287.5" font-family="Helvetica,sans-Serif" font-size="10.00">include/rendering/Mesh.hpp</text>
</a>
</g>
</g>
<!-- Node1&#45;&gt;Node15 -->
<g id="edge32_Node000001_Node000015" class="edge">
<title>Node1&#45;&gt;Node15</title>
<g id="a_edge32_Node000001_Node000015"><a xlink:title=" ">
<path fill="none" stroke="#63b8ff" d="M459.21,-480.1C555.3,-477.06 708.35,-467.43 756.05,-437 809.02,-403.21 835.82,-325.94 843.6,-299.82"/>
<polygon fill="#63b8ff" stroke="#63b8ff" points="458.83,-476.61 448.94,-480.41 459.04,-483.61 458.83,-476.61"/>
</a>
</g>
</g>
<!-- Node5 -->
<g id="Node000005" class="node">
<title>Node5</title>
<g id="a_Node000005"><a xlink:href="PhysicsSystem_8hpp.html" target="_top" xlink:title="Defines the PhysicsSystem.">
<polygon fill="white" stroke="#666666" points="511.55,-239 322.55,-239 322.55,-220 511.55,-220 511.55,-239"/>
<text text-anchor="middle" x="417.05" y="-227" font-family="Helvetica,sans-Serif" font-size="10.00">include/physics/PhysicsSystem.hpp</text>
</a>
</g>
</g>
<!-- Node4&#45;&gt;Node5 -->
<g id="edge4_Node000004_Node000005" class="edge">
<title>Node4&#45;&gt;Node5</title>
<g id="a_edge4_Node000004_Node000005"><a xlink:title=" ">
<path fill="none" stroke="#63b8ff" d="M510.19,-330.62C508.49,-313.6 503.92,-291.13 492.05,-275 479.49,-257.93 458.24,-246.22 441.56,-239.11"/>
<polygon fill="#63b8ff" stroke="#63b8ff" points="506.72,-331.18 510.94,-340.9 513.7,-330.67 506.72,-331.18"/>
</a>
</g>
</g>
<!-- Node6&#45;&gt;Node5 -->
<g id="edge18_Node000006_Node000005" class="edge">
<title>Node6&#45;&gt;Node5</title>
<g id="a_edge18_Node000006_Node000005"><a xlink:title=" ">
<path fill="none" stroke="#63b8ff" d="M412.95,-264.75C414.04,-255.72 415.2,-246.03 416,-239.27"/>
<polygon fill="#63b8ff" stroke="#63b8ff" points="409.46,-264.49 411.75,-274.84 416.41,-265.33 409.46,-264.49"/>
</a>
</g>
</g>
<!-- Node7 -->
<g id="Node000007" class="node">
<title>Node7</title>
<g id="a_Node000007"><a xlink:href="Object_8hpp.html" target="_top" xlink:title="Defines the Object class, a special ECS entity wrapper.">
<polygon fill="white" stroke="#666666" points="714.05,-239 568.05,-239 568.05,-220 714.05,-220 714.05,-239"/>
<text text-anchor="middle" x="641.05" y="-227" font-family="Helvetica,sans-Serif" font-size="10.00">include/objects/Object.hpp</text>
</a>
</g>
</g>
<!-- Node6&#45;&gt;Node7 -->
<g id="edge6_Node000006_Node000007" class="edge">
<title>Node6&#45;&gt;Node7</title>
<g id="a_edge6_Node000006_Node000007"><a xlink:title=" ">
<path fill="none" stroke="#63b8ff" d="M475.2,-272.5C518.18,-261.62 572.73,-247.8 607.28,-239.05"/>
<polygon fill="#63b8ff" stroke="#63b8ff" points="474.22,-269.14 465.38,-274.99 475.94,-275.93 474.22,-269.14"/>
</a>
</g>
</g>
<!-- Node7&#45;&gt;Node2 -->
<g id="edge7_Node000007_Node000002" class="edge">
<title>Node7&#45;&gt;Node2</title>
<g id="a_edge7_Node000007_Node000002"><a xlink:title=" ">
<path fill="none" stroke="#63b8ff" d="M633.94,-210.31C624.3,-186.48 605.87,-143.76 585.05,-110 568.77,-83.59 565.58,-75.23 542.05,-55 524.15,-39.61 500.1,-26.97 483.26,-19.15"/>
<polygon fill="#63b8ff" stroke="#63b8ff" points="630.78,-211.84 637.73,-219.83 637.29,-209.25 630.78,-211.84"/>
</a>
</g>
</g>
<!-- Node7&#45;&gt;Node8 -->
<g id="edge8_Node000007_Node000008" class="edge">
<title>Node7&#45;&gt;Node8</title>
<g id="a_edge8_Node000007_Node000008"><a xlink:title=" ">
<path fill="none" stroke="#63b8ff" d="M661.19,-213.88C674.33,-204.34 691.04,-192.21 702.11,-184.17"/>
<polygon fill="#63b8ff" stroke="#63b8ff" points="658.82,-211.28 652.78,-219.98 662.93,-216.94 658.82,-211.28"/>
</a>
</g>
</g>
<!-- Node9 -->
<g id="Node000009" class="node">
<title>Node9</title>
<g id="a_Node000009"><a xlink:href="Renderer_8hpp.html" target="_top" xlink:title="Manages the rendering pipeline and object submission.">
<polygon fill="white" stroke="#666666" points="576.55,-129 407.55,-129 407.55,-110 576.55,-110 576.55,-129"/>
<text text-anchor="middle" x="492.05" y="-117" font-family="Helvetica,sans-Serif" font-size="10.00">include/rendering/Renderer.hpp</text>
</a>
</g>
</g>
<!-- Node7&#45;&gt;Node9 -->
<g id="edge17_Node000007_Node000009" class="edge">
<title>Node7&#45;&gt;Node9</title>
<g id="a_edge17_Node000007_Node000009"><a xlink:title=" ">
<path fill="none" stroke="#63b8ff" d="M620.65,-213.71C589.11,-190.85 529.49,-147.64 504.05,-129.2"/>
<polygon fill="#63b8ff" stroke="#63b8ff" points="618.96,-216.81 629.11,-219.84 623.07,-211.14 618.96,-216.81"/>
</a>
</g>
</g>
<!-- Node7&#45;&gt;Node11 -->
<g id="edge14_Node000007_Node000011" class="edge">
<title>Node7&#45;&gt;Node11</title>
<g id="a_edge14_Node000007_Node000011"><a xlink:title=" ">
<path fill="none" stroke="#63b8ff" d="M601.55,-217.18C566.95,-207.27 517.43,-193.08 486.01,-184.08"/>
<polygon fill="#63b8ff" stroke="#63b8ff" points="600.75,-220.6 611.33,-219.98 602.68,-213.87 600.75,-220.6"/>
</a>
</g>
</g>
<!-- Node8&#45;&gt;Node2 -->
<g id="edge9_Node000008_Node000002" class="edge">
<title>Node8&#45;&gt;Node2</title>
<g id="a_edge9_Node000008_Node000002"><a xlink:title=" ">
<path fill="none" stroke="#63b8ff" d="M704.64,-156.09C689.73,-130.15 658.19,-81.57 618.05,-55 589.92,-36.38 553.93,-25.43 523.71,-19.05"/>
<polygon fill="#63b8ff" stroke="#63b8ff" points="701.59,-157.81 709.53,-164.83 707.7,-154.4 701.59,-157.81"/>
</a>
</g>
</g>
<!-- Node8&#45;&gt;Node9 -->
<g id="edge10_Node000008_Node000009" class="edge">
<title>Node8&#45;&gt;Node9</title>
<g id="a_edge10_Node000008_Node000009"><a xlink:title=" ">
<path fill="none" stroke="#63b8ff" d="M668.51,-162.63C626.93,-152.7 566.27,-138.22 528,-129.08"/>
<polygon fill="#63b8ff" stroke="#63b8ff" points="667.85,-166.07 678.38,-164.98 669.47,-159.26 667.85,-166.07"/>
</a>
</g>
</g>
<!-- Node9&#45;&gt;Node2 -->
<g id="edge13_Node000009_Node000002" class="edge">
<title>Node9&#45;&gt;Node2</title>
<g id="a_edge13_Node000009_Node000002"><a xlink:title=" ">
<path fill="none" stroke="#63b8ff" d="M509.79,-102.75C521.97,-89.94 534.53,-71.37 526.05,-55 517.31,-38.12 498.88,-26.27 484.2,-19.07"/>
<polygon fill="#63b8ff" stroke="#63b8ff" points="507.17,-100.42 502.45,-109.91 512.05,-105.44 507.17,-100.42"/>
</a>
</g>
</g>
<!-- Node10 -->
<g id="Node000010" class="node">
<title>Node10</title>
<g id="a_Node000010"><a xlink:href="Engine_8hpp.html" target="_top" xlink:title="Defines the core Engine class responsible for running simulation.">
<polygon fill="white" stroke="#666666" points="517.55,-74 408.55,-74 408.55,-55 517.55,-55 517.55,-74"/>
<text text-anchor="middle" x="463.05" y="-62" font-family="Helvetica,sans-Serif" font-size="10.00">include/Engine.hpp</text>
</a>
</g>
</g>
<!-- Node9&#45;&gt;Node10 -->
<g id="edge11_Node000009_Node000010" class="edge">
<title>Node9&#45;&gt;Node10</title>
<g id="a_edge11_Node000009_Node000010"><a xlink:title=" ">
<path fill="none" stroke="#63b8ff" d="M482.38,-100.82C477.45,-91.82 471.7,-81.29 467.75,-74.09"/>
<polygon fill="#63b8ff" stroke="#63b8ff" points="479.39,-102.66 487.26,-109.75 485.53,-99.3 479.39,-102.66"/>
</a>
</g>
</g>
<!-- Node10&#45;&gt;Node2 -->
<g id="edge12_Node000010_Node000002" class="edge">
<title>Node10&#45;&gt;Node2</title>
<g id="a_edge12_Node000010_Node000002"><a xlink:title=" ">
<path fill="none" stroke="#63b8ff" d="M463.05,-44.66C463.05,-35.93 463.05,-25.99 463.05,-19.09"/>
<polygon fill="#63b8ff" stroke="#63b8ff" points="459.55,-44.75 463.05,-54.75 466.55,-44.75 459.55,-44.75"/>
</a>
</g>
</g>
<!-- Node11&#45;&gt;Node2 -->
<g id="edge15_Node000011_Node000002" class="edge">
<title>Node11&#45;&gt;Node2</title>
<g id="a_edge15_Node000011_Node000002"><a xlink:title=" ">
<path fill="none" stroke="#63b8ff" d="M428.69,-159.89C416.99,-152.5 404.54,-142.15 398.05,-129 392.28,-117.3 383.84,-83.48 399.05,-55 408.11,-38.05 426.81,-26.21 441.67,-19.03"/>
<polygon fill="#63b8ff" stroke="#63b8ff" points="426.99,-162.95 437.39,-164.97 430.52,-156.9 426.99,-162.95"/>
</a>
</g>
</g>
<!-- Node11&#45;&gt;Node9 -->
<g id="edge16_Node000011_Node000009" class="edge">
<title>Node11&#45;&gt;Node9</title>
<g id="a_edge16_Node000011_Node000009"><a xlink:title=" ">
<path fill="none" stroke="#63b8ff" d="M467.68,-156.39C473.87,-147.27 481.22,-136.45 486.22,-129.09"/>
<polygon fill="#63b8ff" stroke="#63b8ff" points="464.72,-154.51 462,-164.75 470.51,-158.44 464.72,-154.51"/>
</a>
</g>
</g>
<!-- Node12&#45;&gt;Node2 -->
<g id="edge20_Node000012_Node000002" class="edge">
<title>Node12&#45;&gt;Node2</title>
<g id="a_edge20_Node000012_Node000002"><a xlink:title=" ">
<path fill="none" stroke="#63b8ff" d="M262.28,-339.26C213.19,-291.36 78.06,-145.11 156.05,-55 186.05,-20.34 311.93,-12.1 392.89,-10.47"/>
<polygon fill="#63b8ff" stroke="#63b8ff" points="259.99,-341.92 269.63,-346.32 264.84,-336.87 259.99,-341.92"/>
</a>
</g>
</g>
<!-- Node12&#45;&gt;Node6 -->
<g id="edge21_Node000012_Node000006" class="edge">
<title>Node12&#45;&gt;Node6</title>
<g id="a_edge21_Node000012_Node000006"><a xlink:title=" ">
<path fill="none" stroke="#63b8ff" d="M305.8,-341.93C327.72,-331.22 358.68,-316.1 381.16,-305.12"/>
<polygon fill="#63b8ff" stroke="#63b8ff" points="304.17,-338.83 296.72,-346.37 307.24,-345.12 304.17,-338.83"/>
</a>
</g>
</g>
<!-- Node12&#45;&gt;Node11 -->
<g id="edge22_Node000012_Node000011" class="edge">
<title>Node12&#45;&gt;Node11</title>
<g id="a_edge22_Node000012_Node000011"><a xlink:title=" ">
<path fill="none" stroke="#63b8ff" d="M281.48,-336.31C286.12,-303.34 297.23,-236.72 313.05,-220 330.75,-201.31 356.14,-190.41 380.64,-184.09"/>
<polygon fill="#63b8ff" stroke="#63b8ff" points="277.98,-336.06 280.11,-346.44 284.92,-337 277.98,-336.06"/>
</a>
</g>
</g>
<!-- Node12&#45;&gt;Node13 -->
<g id="edge23_Node000012_Node000013" class="edge">
<title>Node12&#45;&gt;Node13</title>
<g id="a_edge23_Node000012_Node000013"><a xlink:title=" ">
<path fill="none" stroke="#63b8ff" d="M278.84,-336.03C278.41,-297.52 277.45,-211.49 277.15,-184.07"/>
<polygon fill="#63b8ff" stroke="#63b8ff" points="275.35,-336.38 278.96,-346.34 282.34,-336.3 275.35,-336.38"/>
</a>
</g>
</g>
<!-- Node13&#45;&gt;Node2 -->
<g id="edge24_Node000013_Node000002" class="edge">
<title>Node13&#45;&gt;Node2</title>
<g id="a_edge24_Node000013_Node000002"><a xlink:title=" ">
<path fill="none" stroke="#63b8ff" d="M290.05,-157.14C309.76,-132.95 349.18,-87.08 389.05,-55 407.16,-40.43 430.47,-27.19 446.04,-19.01"/>
<polygon fill="#63b8ff" stroke="#63b8ff" points="287.26,-155.02 283.71,-165 292.71,-159.41 287.26,-155.02"/>
</a>
</g>
</g>
<!-- Node13&#45;&gt;Node9 -->
<g id="edge25_Node000013_Node000009" class="edge">
<title>Node13&#45;&gt;Node9</title>
<g id="a_edge25_Node000013_Node000009"><a xlink:title=" ">
<path fill="none" stroke="#63b8ff" d="M321.42,-162.56C361.68,-152.64 420.26,-138.2 457.24,-129.08"/>
<polygon fill="#63b8ff" stroke="#63b8ff" points="320.47,-159.19 311.6,-164.98 322.14,-165.99 320.47,-159.19"/>
</a>
</g>
</g>
<!-- Node14&#45;&gt;Node2 -->
<g id="edge27_Node000014_Node000002" class="edge">
<title>Node14&#45;&gt;Node2</title>
<g id="a_edge27_Node000014_Node000002"><a xlink:title=" ">
<path fill="none" stroke="#63b8ff" d="M257.99,-409.54C235.68,-402.27 212.99,-390.39 199.05,-371 145.55,-296.57 144.72,-245.23 189.05,-165 238.05,-76.33 359.9,-35.04 423.31,-19.02"/>
<polygon fill="#63b8ff" stroke="#63b8ff" points="257.26,-412.97 267.84,-412.47 259.26,-406.26 257.26,-412.97"/>
</a>
</g>
</g>
<!-- Node14&#45;&gt;Node6 -->
<g id="edge28_Node000014_Node000006" class="edge">
<title>Node14&#45;&gt;Node6</title>
<g id="a_edge28_Node000014_Node000006"><a xlink:title=" ">
<path fill="none" stroke="#63b8ff" d="M336.86,-403.91C343.46,-394.29 351.79,-382.03 359.05,-371 374.09,-348.16 391.07,-321.31 401.15,-305.24"/>
<polygon fill="#63b8ff" stroke="#63b8ff" points="333.94,-401.98 331.15,-412.2 339.7,-405.95 333.94,-401.98"/>
</a>
</g>
</g>
<!-- Node14&#45;&gt;Node12 -->
<g id="edge29_Node000014_Node000012" class="edge">
<title>Node14&#45;&gt;Node12</title>
<g id="a_edge29_Node000014_Node000012"><a xlink:title=" ">
<path fill="none" stroke="#63b8ff" d="M312.77,-403.91C303.98,-391.68 292.49,-375.7 285.45,-365.91"/>
<polygon fill="#63b8ff" stroke="#63b8ff" points="310.17,-406.29 318.85,-412.37 315.85,-402.21 310.17,-406.29"/>
</a>
</g>
</g>
<!-- Node15&#45;&gt;Node2 -->
<g id="edge33_Node000015_Node000002" class="edge">
<title>Node15&#45;&gt;Node2</title>
<g id="a_edge33_Node000015_Node000002"><a xlink:title=" ">
<path fill="none" stroke="#63b8ff" d="M840.2,-270.49C833.68,-248.19 824.05,-209.5 824.05,-175.5 824.05,-175.5 824.05,-175.5 824.05,-118.5 824.05,-58.4 638.07,-28.93 533.09,-17.09"/>
<polygon fill="#63b8ff" stroke="#63b8ff" points="836.92,-271.73 843.18,-280.28 843.62,-269.7 836.92,-271.73"/>
</a>
</g>
</g>
<!-- Node15&#45;&gt;Node7 -->
<g id="edge36_Node000015_Node000007" class="edge">
<title>Node15&#45;&gt;Node7</title>
<g id="a_edge36_Node000015_Node000007"><a xlink:title=" ">
<path fill="none" stroke="#63b8ff" d="M806.38,-277.68C766.74,-266.37 706.67,-249.22 670.9,-239.02"/>
<polygon fill="#63b8ff" stroke="#63b8ff" points="805.67,-281.12 816.24,-280.49 807.59,-274.38 805.67,-281.12"/>
</a>
</g>
</g>
<!-- Node16 -->
<g id="Node000016" class="node">
<title>Node16</title>
<g id="a_Node000016"><a xlink:href="MeshGenerator_8hpp_source.html" target="_top" xlink:title=" ">
<polygon fill="white" stroke="#666666" points="1002.05,-129 852.05,-129 852.05,-110 1002.05,-110 1002.05,-129"/>
<text text-anchor="middle" x="927.05" y="-117" font-family="Helvetica,sans-Serif" font-size="10.00">include/MeshGenerator.hpp</text>
</a>
</g>
</g>
<!-- Node15&#45;&gt;Node16 -->
<g id="edge34_Node000015_Node000016" class="edge">
<title>Node15&#45;&gt;Node16</title>
<g id="a_edge34_Node000015_Node000016"><a xlink:title=" ">
<path fill="none" stroke="#63b8ff" d="M854.62,-271.17C871.84,-235.35 910.1,-155.77 922.84,-129.27"/>
<polygon fill="#63b8ff" stroke="#63b8ff" points="851.36,-269.88 850.18,-280.41 857.67,-272.92 851.36,-269.88"/>
</a>
</g>
</g>
<!-- Node16&#45;&gt;Node2 -->
<g id="edge35_Node000016_Node000002" class="edge">
<title>Node16&#45;&gt;Node2</title>
<g id="a_edge35_Node000016_Node000002"><a xlink:title=" ">
<path fill="none" stroke="#63b8ff" d="M910.33,-102.57C893.51,-87.58 866.09,-65.84 838.05,-55 784.01,-34.11 625.83,-20.85 533.08,-14.65"/>
<polygon fill="#63b8ff" stroke="#63b8ff" points="908.38,-105.53 918.12,-109.71 913.11,-100.37 908.38,-105.53"/>
</a>
</g>
</g>
</g>
</svg>
