<?xml version="1.0" encoding="UTF-8" standalone="no"?>
<!DOCTYPE svg PUBLIC "-//W3C//DTD SVG 1.1//EN"
 "http://www.w3.org/Graphics/SVG/1.1/DTD/svg11.dtd">
<!-- Generated by graphviz version 2.43.0 (0)
 -->
<!-- Title: include/math/Vector3.hpp Pages: 1 -->
<svg width="861pt" height="445pt"
 viewBox="0.00 0.00 860.50 445.00" xmlns="http://www.w3.org/2000/svg" xmlns:xlink="http://www.w3.org/1999/xlink">
<g id="graph0" class="graph" transform="scale(1 1) rotate(0) translate(4 441)">
<title>include/math/Vector3.hpp</title>
<!-- Node1 -->
<g id="Node000001" class="node">
<title>Node1</title>
<g id="a_Node000001"><a xlink:title="Defines the Vector3 class.">
<polygon fill="#999999" stroke="#666666" points="524,-437 383,-437 383,-418 524,-418 524,-437"/>
<text text-anchor="middle" x="453.5" y="-425" font-family="Helvetica,sans-Serif" font-size="10.00">include/math/Vector3.hpp</text>
</a>
</g>
</g>
<!-- Node2 -->
<g id="Node000002" class="node">
<title>Node2</title>
<g id="a_Node000002"><a xlink:href="LightComponent_8hpp_source.html" target="_top" xlink:title=" ">
<polygon fill="white" stroke="#666666" points="121,-382 0,-382 0,-352 121,-352 121,-382"/>
<text text-anchor="start" x="8" y="-370" font-family="Helvetica,sans-Serif" font-size="10.00">include/components</text>
<text text-anchor="middle" x="60.5" y="-359" font-family="Helvetica,sans-Serif" font-size="10.00">/LightComponent.hpp</text>
</a>
</g>
</g>
<!-- Node1&#45;&gt;Node2 -->
<g id="edge1_Node000001_Node000002" class="edge">
<title>Node1&#45;&gt;Node2</title>
<g id="a_edge1_Node000001_Node000002"><a xlink:title=" ">
<path fill="none" stroke="#63b8ff" d="M375.97,-416.65C311.49,-408.22 217.36,-395.36 135.5,-382 130.79,-381.23 125.93,-380.4 121.04,-379.55"/>
<polygon fill="#63b8ff" stroke="#63b8ff" points="375.69,-420.15 386.06,-417.97 376.59,-413.2 375.69,-420.15"/>
</a>
</g>
</g>
<!-- Node3 -->
<g id="Node000003" class="node">
<title>Node3</title>
<g id="a_Node000003"><a xlink:href="PhysicsComponent_8hpp.html" target="_top" xlink:title="Defines the PhysicsComponent for ECS&#45;based physics simulation.">
<polygon fill="white" stroke="#666666" points="311.5,-316 177.5,-316 177.5,-286 311.5,-286 311.5,-316"/>
<text text-anchor="start" x="185.5" y="-304" font-family="Helvetica,sans-Serif" font-size="10.00">include/components</text>
<text text-anchor="middle" x="244.5" y="-293" font-family="Helvetica,sans-Serif" font-size="10.00">/PhysicsComponent.hpp</text>
</a>
</g>
</g>
<!-- Node1&#45;&gt;Node3 -->
<g id="edge2_Node000001_Node000003" class="edge">
<title>Node1&#45;&gt;Node3</title>
<g id="a_edge2_Node000001_Node000003"><a xlink:title=" ">
<path fill="none" stroke="#63b8ff" d="M405.47,-415.28C380.43,-408.11 350.01,-397.26 325.5,-382 296.47,-363.93 269.69,-333.75 255.37,-316.08"/>
<polygon fill="#63b8ff" stroke="#63b8ff" points="404.56,-418.66 415.13,-417.94 406.41,-411.91 404.56,-418.66"/>
</a>
</g>
</g>
<!-- Node5 -->
<g id="Node000005" class="node">
<title>Node5</title>
<g id="a_Node000005"><a xlink:href="TransformComponent_8hpp.html" target="_top" xlink:title="Defines the TransformComponent for ECS&#45;based spatial transformations.">
<polygon fill="white" stroke="#666666" points="600.5,-250 454.5,-250 454.5,-220 600.5,-220 600.5,-250"/>
<text text-anchor="start" x="462.5" y="-238" font-family="Helvetica,sans-Serif" font-size="10.00">include/components</text>
<text text-anchor="middle" x="527.5" y="-227" font-family="Helvetica,sans-Serif" font-size="10.00">/TransformComponent.hpp</text>
</a>
</g>
</g>
<!-- Node1&#45;&gt;Node5 -->
<g id="edge4_Node000001_Node000005" class="edge">
<title>Node1&#45;&gt;Node5</title>
<g id="a_edge4_Node000001_Node000005"><a xlink:title=" ">
<path fill="none" stroke="#63b8ff" d="M412.63,-414.21C396.43,-407.3 379.17,-396.97 368.5,-382 343.59,-347.07 332.83,-320.37 358.5,-286 370.45,-270.01 414.13,-257.32 454.09,-248.74"/>
<polygon fill="#63b8ff" stroke="#63b8ff" points="411.39,-417.48 421.98,-417.89 413.96,-410.97 411.39,-417.48"/>
</a>
</g>
</g>
<!-- Node7 -->
<g id="Node000007" class="node">
<title>Node7</title>
<g id="a_Node000007"><a xlink:href="PointLight_8hpp_source.html" target="_top" xlink:title=" ">
<polygon fill="white" stroke="#666666" points="494,-129 331,-129 331,-110 494,-110 494,-129"/>
<text text-anchor="middle" x="412.5" y="-117" font-family="Helvetica,sans-Serif" font-size="10.00">include/objects/PointLight.hpp</text>
</a>
</g>
</g>
<!-- Node1&#45;&gt;Node7 -->
<g id="edge21_Node000001_Node000007" class="edge">
<title>Node1&#45;&gt;Node7</title>
<g id="a_edge21_Node000001_Node000007"><a xlink:title=" ">
<path fill="none" stroke="#63b8ff" d="M399.28,-415.89C311.87,-397.22 149.5,-355.35 149.5,-302 149.5,-302 149.5,-302 149.5,-234 149.5,-153.93 253.52,-129.68 330.73,-122.71"/>
<polygon fill="#63b8ff" stroke="#63b8ff" points="398.79,-419.36 409.3,-418 400.23,-412.51 398.79,-419.36"/>
</a>
</g>
</g>
<!-- Node10 -->
<g id="Node000010" class="node">
<title>Node10</title>
<g id="a_Node000010"><a xlink:href="Camera_8hpp.html" target="_top" xlink:title="Defines the Camera class for view and projection.">
<polygon fill="white" stroke="#666666" points="714.5,-129 550.5,-129 550.5,-110 714.5,-110 714.5,-129"/>
<text text-anchor="middle" x="632.5" y="-117" font-family="Helvetica,sans-Serif" font-size="10.00">include/rendering/Camera.hpp</text>
</a>
</g>
</g>
<!-- Node1&#45;&gt;Node10 -->
<g id="edge22_Node000001_Node000010" class="edge">
<title>Node1&#45;&gt;Node10</title>
<g id="a_edge22_Node000001_Node000010"><a xlink:title=" ">
<path fill="none" stroke="#63b8ff" d="M488.14,-413.98C504.87,-406.63 524.34,-396 538.5,-382 614.65,-306.69 629.42,-165.35 632,-129.13"/>
<polygon fill="#63b8ff" stroke="#63b8ff" points="486.55,-410.85 478.66,-417.93 489.24,-417.31 486.55,-410.85"/>
</a>
</g>
</g>
<!-- Node11 -->
<g id="Node000011" class="node">
<title>Node11</title>
<g id="a_Node000011"><a xlink:href="Matrix4_8hpp.html" target="_top" xlink:title="Defines the Matrix4 class for 3D transformation operations.">
<polygon fill="white" stroke="#666666" points="791.5,-310.5 649.5,-310.5 649.5,-291.5 791.5,-291.5 791.5,-310.5"/>
<text text-anchor="middle" x="720.5" y="-298.5" font-family="Helvetica,sans-Serif" font-size="10.00">include/math/Matrix4.hpp</text>
</a>
</g>
</g>
<!-- Node1&#45;&gt;Node11 -->
<g id="edge13_Node000001_Node000011" class="edge">
<title>Node1&#45;&gt;Node11</title>
<g id="a_edge13_Node000001_Node000011"><a xlink:title=" ">
<path fill="none" stroke="#63b8ff" d="M534.12,-426.15C614.24,-423.89 729.15,-414.8 757.5,-382 776.61,-359.89 746.61,-326.24 730.14,-310.58"/>
<polygon fill="#63b8ff" stroke="#63b8ff" points="533.95,-422.65 524.04,-426.41 534.13,-429.65 533.95,-422.65"/>
</a>
</g>
</g>
<!-- Node12 -->
<g id="Node000012" class="node">
<title>Node12</title>
<g id="a_Node000012"><a xlink:href="Shader_8hpp.html" target="_top" xlink:title="Manages OpenGL shaders.">
<polygon fill="white" stroke="#666666" points="852.5,-244.5 694.5,-244.5 694.5,-225.5 852.5,-225.5 852.5,-244.5"/>
<text text-anchor="middle" x="773.5" y="-232.5" font-family="Helvetica,sans-Serif" font-size="10.00">include/rendering/Shader.hpp</text>
</a>
</g>
</g>
<!-- Node1&#45;&gt;Node12 -->
<g id="edge26_Node000001_Node000012" class="edge">
<title>Node1&#45;&gt;Node12</title>
<g id="a_edge26_Node000001_Node000012"><a xlink:title=" ">
<path fill="none" stroke="#63b8ff" d="M534.16,-424.44C616.83,-420.76 738.26,-410.51 774.5,-382 809.24,-354.67 811.33,-328.86 800.5,-286 796.54,-270.31 786.57,-254.21 779.92,-244.65"/>
<polygon fill="#63b8ff" stroke="#63b8ff" points="533.87,-420.95 524.02,-424.86 534.16,-427.94 533.87,-420.95"/>
</a>
</g>
</g>
<!-- Node13 -->
<g id="Node000013" class="node">
<title>Node13</title>
<g id="a_Node000013"><a xlink:href="Quaternion_8hpp.html" target="_top" xlink:title="Defines the Quaternion class for representing 3D rotations.">
<polygon fill="white" stroke="#666666" points="748.5,-376.5 590.5,-376.5 590.5,-357.5 748.5,-357.5 748.5,-376.5"/>
<text text-anchor="middle" x="669.5" y="-364.5" font-family="Helvetica,sans-Serif" font-size="10.00">include/math/Quaternion.hpp</text>
</a>
</g>
</g>
<!-- Node1&#45;&gt;Node13 -->
<g id="edge18_Node000001_Node000013" class="edge">
<title>Node1&#45;&gt;Node13</title>
<g id="a_edge18_Node000001_Node000013"><a xlink:title=" ">
<path fill="none" stroke="#63b8ff" d="M494.77,-415.32C536.54,-404.01 600.2,-386.77 638.05,-376.52"/>
<polygon fill="#63b8ff" stroke="#63b8ff" points="493.65,-412 484.91,-417.99 495.48,-418.76 493.65,-412"/>
</a>
</g>
</g>
<!-- Node14 -->
<g id="Node000014" class="node">
<title>Node14</title>
<g id="a_Node000014"><a xlink:href="Mesh_8hpp.html" target="_top" xlink:title="Defines the Mesh class for managing 3D geometry.">
<polygon fill="white" stroke="#666666" points="529.5,-376.5 377.5,-376.5 377.5,-357.5 529.5,-357.5 529.5,-376.5"/>
<text text-anchor="middle" x="453.5" y="-364.5" font-family="Helvetica,sans-Serif" font-size="10.00">include/rendering/Mesh.hpp</text>
</a>
</g>
</g>
<!-- Node1&#45;&gt;Node14 -->
<g id="edge23_Node000001_Node000014" class="edge">
<title>Node1&#45;&gt;Node14</title>
<g id="a_edge23_Node000001_Node000014"><a xlink:title=" ">
<path fill="none" stroke="#63b8ff" d="M453.5,-407.66C453.5,-397.24 453.5,-384.8 453.5,-376.67"/>
<polygon fill="#63b8ff" stroke="#63b8ff" points="450,-407.87 453.5,-417.87 457,-407.87 450,-407.87"/>
</a>
</g>
</g>
<!-- Node4 -->
<g id="Node000004" class="node">
<title>Node4</title>
<g id="a_Node000004"><a xlink:href="PhysicsSystem_8hpp.html" target="_top" xlink:title="Defines the PhysicsSystem.">
<polygon fill="white" stroke="#666666" points="424,-184 235,-184 235,-165 424,-165 424,-184"/>
<text text-anchor="middle" x="329.5" y="-172" font-family="Helvetica,sans-Serif" font-size="10.00">include/physics/PhysicsSystem.hpp</text>
</a>
</g>
</g>
<!-- Node3&#45;&gt;Node4 -->
<g id="edge3_Node000003_Node000004" class="edge">
<title>Node3&#45;&gt;Node4</title>
<g id="a_edge3_Node000003_Node000004"><a xlink:title=" ">
<path fill="none" stroke="#63b8ff" d="M259.98,-277.33C279.09,-249.33 310.67,-203.08 323.65,-184.07"/>
<polygon fill="#63b8ff" stroke="#63b8ff" points="257,-275.49 254.25,-285.72 262.78,-279.43 257,-275.49"/>
</a>
</g>
</g>
<!-- Node5&#45;&gt;Node4 -->
<g id="edge12_Node000005_Node000004" class="edge">
<title>Node5&#45;&gt;Node4</title>
<g id="a_edge12_Node000005_Node000004"><a xlink:title=" ">
<path fill="none" stroke="#63b8ff" d="M470.02,-217.02C433.44,-206.21 387.63,-192.67 358.45,-184.05"/>
<polygon fill="#63b8ff" stroke="#63b8ff" points="469.49,-220.51 480.07,-219.99 471.48,-213.8 469.49,-220.51"/>
</a>
</g>
</g>
<!-- Node6 -->
<g id="Node000006" class="node">
<title>Node6</title>
<g id="a_Node000006"><a xlink:href="Object_8hpp.html" target="_top" xlink:title="Defines the Object class, a special ECS entity wrapper.">
<polygon fill="white" stroke="#666666" points="595.5,-184 449.5,-184 449.5,-165 595.5,-165 595.5,-184"/>
<text text-anchor="middle" x="522.5" y="-172" font-family="Helvetica,sans-Serif" font-size="10.00">include/objects/Object.hpp</text>
</a>
</g>
</g>
<!-- Node5&#45;&gt;Node6 -->
<g id="edge5_Node000005_Node000006" class="edge">
<title>Node5&#45;&gt;Node6</title>
<g id="a_edge5_Node000005_Node000006"><a xlink:title=" ">
<path fill="none" stroke="#63b8ff" d="M525.43,-209.75C524.66,-200.72 523.83,-191.03 523.25,-184.27"/>
<polygon fill="#63b8ff" stroke="#63b8ff" points="521.95,-210.17 526.29,-219.84 528.93,-209.58 521.95,-210.17"/>
</a>
</g>
</g>
<!-- Node6&#45;&gt;Node7 -->
<g id="edge6_Node000006_Node000007" class="edge">
<title>Node6&#45;&gt;Node7</title>
<g id="a_edge6_Node000006_Node000007"><a xlink:title=" ">
<path fill="none" stroke="#63b8ff" d="M495.8,-160.63C475.53,-150.87 448.23,-137.71 430.49,-129.17"/>
<polygon fill="#63b8ff" stroke="#63b8ff" points="494.3,-163.8 504.83,-164.98 497.34,-157.49 494.3,-163.8"/>
</a>
</g>
</g>
<!-- Node8 -->
<g id="Node000008" class="node">
<title>Node8</title>
<g id="a_Node000008"><a xlink:href="Renderer_8hpp.html" target="_top" xlink:title="Manages the rendering pipeline and object submission.">
<polygon fill="white" stroke="#666666" points="662,-74 493,-74 493,-55 662,-55 662,-74"/>
<text text-anchor="middle" x="577.5" y="-62" font-family="Helvetica,sans-Serif" font-size="10.00">include/rendering/Renderer.hpp</text>
</a>
</g>
</g>
<!-- Node6&#45;&gt;Node8 -->
<g id="edge11_Node000006_Node000008" class="edge">
<title>Node6&#45;&gt;Node8</title>
<g id="a_edge11_Node000006_Node000008"><a xlink:title=" ">
<path fill="none" stroke="#63b8ff" d="M526.09,-154.76C529.06,-141.71 534.02,-124.17 541.5,-110 548.73,-96.29 560.52,-82.76 568.62,-74.29"/>
<polygon fill="#63b8ff" stroke="#63b8ff" points="522.59,-154.37 523.97,-164.88 529.44,-155.8 522.59,-154.37"/>
</a>
</g>
</g>
<!-- Node6&#45;&gt;Node10 -->
<g id="edge9_Node000006_Node000010" class="edge">
<title>Node6&#45;&gt;Node10</title>
<g id="a_edge9_Node000006_Node000010"><a xlink:title=" ">
<path fill="none" stroke="#63b8ff" d="M549.2,-160.63C569.47,-150.87 596.77,-137.71 614.51,-129.17"/>
<polygon fill="#63b8ff" stroke="#63b8ff" points="547.66,-157.49 540.17,-164.98 550.7,-163.8 547.66,-157.49"/>
</a>
</g>
</g>
<!-- Node7&#45;&gt;Node8 -->
<g id="edge7_Node000007_Node000008" class="edge">
<title>Node7&#45;&gt;Node8</title>
<g id="a_edge7_Node000007_Node000008"><a xlink:title=" ">
<path fill="none" stroke="#63b8ff" d="M448.93,-106.8C479.72,-96.91 523.12,-82.97 550.78,-74.08"/>
<polygon fill="#63b8ff" stroke="#63b8ff" points="447.46,-103.59 439.01,-109.98 449.6,-110.26 447.46,-103.59"/>
</a>
</g>
</g>
<!-- Node9 -->
<g id="Node000009" class="node">
<title>Node9</title>
<g id="a_Node000009"><a xlink:href="Engine_8hpp.html" target="_top" xlink:title="Defines the core Engine class responsible for running simulation.">
<polygon fill="white" stroke="#666666" points="632,-19 523,-19 523,0 632,0 632,-19"/>
<text text-anchor="middle" x="577.5" y="-7" font-family="Helvetica,sans-Serif" font-size="10.00">include/Engine.hpp</text>
</a>
</g>
</g>
<!-- Node8&#45;&gt;Node9 -->
<g id="edge8_Node000008_Node000009" class="edge">
<title>Node8&#45;&gt;Node9</title>
<g id="a_edge8_Node000008_Node000009"><a xlink:title=" ">
<path fill="none" stroke="#63b8ff" d="M577.5,-44.66C577.5,-35.93 577.5,-25.99 577.5,-19.09"/>
<polygon fill="#63b8ff" stroke="#63b8ff" points="574,-44.75 577.5,-54.75 581,-44.75 574,-44.75"/>
</a>
</g>
</g>
<!-- Node10&#45;&gt;Node8 -->
<g id="edge10_Node000010_Node000008" class="edge">
<title>Node10&#45;&gt;Node8</title>
<g id="a_edge10_Node000010_Node000008"><a xlink:title=" ">
<path fill="none" stroke="#63b8ff" d="M616.21,-102.8C606.46,-93.41 594.45,-81.83 586.41,-74.09"/>
<polygon fill="#63b8ff" stroke="#63b8ff" points="613.79,-105.33 623.42,-109.75 618.65,-100.29 613.79,-105.33"/>
</a>
</g>
</g>
<!-- Node11&#45;&gt;Node5 -->
<g id="edge14_Node000011_Node000005" class="edge">
<title>Node11&#45;&gt;Node5</title>
<g id="a_edge14_Node000011_Node000005"><a xlink:title=" ">
<path fill="none" stroke="#63b8ff" d="M684.94,-288.21C652.5,-277.45 604.53,-261.54 570.07,-250.12"/>
<polygon fill="#63b8ff" stroke="#63b8ff" points="683.88,-291.54 694.47,-291.37 686.08,-284.9 683.88,-291.54"/>
</a>
</g>
</g>
<!-- Node11&#45;&gt;Node10 -->
<g id="edge15_Node000011_Node000010" class="edge">
<title>Node11&#45;&gt;Node10</title>
<g id="a_edge15_Node000011_Node000010"><a xlink:title=" ">
<path fill="none" stroke="#63b8ff" d="M707.25,-283.09C700.24,-273.68 691.81,-261.56 685.5,-250 661.87,-206.71 642.39,-150.65 635.34,-129.29"/>
<polygon fill="#63b8ff" stroke="#63b8ff" points="704.57,-285.35 713.41,-291.18 710.13,-281.1 704.57,-285.35"/>
</a>
</g>
</g>
<!-- Node11&#45;&gt;Node12 -->
<g id="edge16_Node000011_Node000012" class="edge">
<title>Node11&#45;&gt;Node12</title>
<g id="a_edge16_Node000011_Node000012"><a xlink:title=" ">
<path fill="none" stroke="#63b8ff" d="M734.06,-283.62C744.26,-271.31 757.85,-254.89 766.13,-244.91"/>
<polygon fill="#63b8ff" stroke="#63b8ff" points="731.33,-281.43 727.65,-291.37 736.72,-285.9 731.33,-281.43"/>
</a>
</g>
</g>
<!-- Node12&#45;&gt;Node8 -->
<g id="edge17_Node000012_Node000008" class="edge">
<title>Node12&#45;&gt;Node8</title>
<g id="a_edge17_Node000012_Node000008"><a xlink:title=" ">
<path fill="none" stroke="#63b8ff" d="M771.06,-215.28C766.54,-188.2 754.35,-138.26 723.5,-110 702.98,-91.2 674.74,-80.34 648.55,-74.06"/>
<polygon fill="#63b8ff" stroke="#63b8ff" points="767.63,-215.98 772.56,-225.35 774.55,-214.95 767.63,-215.98"/>
</a>
</g>
</g>
<!-- Node13&#45;&gt;Node5 -->
<g id="edge19_Node000013_Node000005" class="edge">
<title>Node13&#45;&gt;Node5</title>
<g id="a_edge19_Node000013_Node000005"><a xlink:title=" ">
<path fill="none" stroke="#63b8ff" d="M652.46,-350.4C624.57,-324.87 569.62,-274.56 542.87,-250.07"/>
<polygon fill="#63b8ff" stroke="#63b8ff" points="650.44,-353.3 660.18,-357.47 655.17,-348.14 650.44,-353.3"/>
</a>
</g>
</g>
<!-- Node13&#45;&gt;Node11 -->
<g id="edge20_Node000013_Node000011" class="edge">
<title>Node13&#45;&gt;Node11</title>
<g id="a_edge20_Node000013_Node000011"><a xlink:title=" ">
<path fill="none" stroke="#63b8ff" d="M682.83,-349.27C692.62,-336.99 705.52,-320.8 713.4,-310.91"/>
<polygon fill="#63b8ff" stroke="#63b8ff" points="679.87,-347.37 676.38,-357.37 685.35,-351.73 679.87,-347.37"/>
</a>
</g>
</g>
<!-- Node14&#45;&gt;Node6 -->
<g id="edge25_Node000014_Node000006" class="edge">
<title>Node14&#45;&gt;Node6</title>
<g id="a_edge25_Node000014_Node000006"><a xlink:title=" ">
<path fill="none" stroke="#63b8ff" d="M485.48,-352.82C500.85,-344.66 517.78,-332.54 526.5,-316 532.72,-304.21 533.77,-297.18 526.5,-286 505.03,-252.97 466.97,-283.03 445.5,-250 438.23,-238.82 438.84,-231.55 445.5,-220 455.76,-202.21 476.15,-190.9 493.36,-184.13"/>
<polygon fill="#63b8ff" stroke="#63b8ff" points="483.63,-349.83 476.21,-357.39 486.72,-356.11 483.63,-349.83"/>
</a>
</g>
</g>
<!-- Node15 -->
<g id="Node000015" class="node">
<title>Node15</title>
<g id="a_Node000015"><a xlink:href="MeshGenerator_8hpp_source.html" target="_top" xlink:title=" ">
<polygon fill="white" stroke="#666666" points="517.5,-310.5 367.5,-310.5 367.5,-291.5 517.5,-291.5 517.5,-310.5"/>
<text text-anchor="middle" x="442.5" y="-298.5" font-family="Helvetica,sans-Serif" font-size="10.00">include/MeshGenerator.hpp</text>
</a>
</g>
</g>
<!-- Node14&#45;&gt;Node15 -->
<g id="edge24_Node000014_Node000015" class="edge">
<title>Node14&#45;&gt;Node15</title>
<g id="a_edge24_Node000014_Node000015"><a xlink:title=" ">
<path fill="none" stroke="#63b8ff" d="M450.31,-347.45C448.25,-335.43 445.65,-320.32 444.03,-310.91"/>
<polygon fill="#63b8ff" stroke="#63b8ff" points="446.87,-348.11 452.02,-357.37 453.77,-346.92 446.87,-348.11"/>
</a>
</g>
</g>
</g>
</svg>
