<?xml version="1.0" encoding="UTF-8" standalone="no"?>
<!DOCTYPE svg PUBLIC "-//W3C//DTD SVG 1.1//EN"
 "http://www.w3.org/Graphics/SVG/1.1/DTD/svg11.dtd">
<!-- Generated by graphviz version 12.2.1 (0)
 -->
<!-- Title: include/Window.hpp Pages: 1 -->
<svg width="242pt" height="86pt"
 viewBox="0.00 0.00 241.88 85.50" xmlns="http://www.w3.org/2000/svg" xmlns:xlink="http://www.w3.org/1999/xlink">
<g id="graph0" class="graph" transform="scale(1 1) rotate(0) translate(4 81.5)">
<title>include/Window.hpp</title>
<!-- Node1 -->
<g id="Node000001" class="node">
<title>Node1</title>
<g id="a_Node000001"><a xlink:title="Provides a window for OpenGL rendering using GLFW.">
<polygon fill="#999999" stroke="#666666" points="186.75,-77.5 73.25,-77.5 73.25,-56.75 186.75,-56.75 186.75,-77.5"/>
<text text-anchor="middle" x="130" y="-64" font-family="Helvetica,sans-Serif" font-size="10.00">include/Window.hpp</text>
</a>
</g>
</g>
<!-- Node2 -->
<g id="Node000002" class="node">
<title>Node2</title>
<g id="a_Node000002"><a xlink:title=" ">
<polygon fill="#e0e0e0" stroke="#999999" points="70,-20.75 0,-20.75 0,0 70,0 70,-20.75"/>
<text text-anchor="middle" x="35" y="-7.25" font-family="Helvetica,sans-Serif" font-size="10.00">glad/glad.h</text>
</a>
</g>
</g>
<!-- Node1&#45;&gt;Node2 -->
<g id="edge1_Node000001_Node000002" class="edge">
<title>Node1&#45;&gt;Node2</title>
<g id="a_edge1_Node000001_Node000002"><a xlink:title=" ">
<path fill="none" stroke="#63b8ff" d="M113.02,-56.34C98.7,-48.08 77.96,-36.13 61.46,-26.63"/>
<polygon fill="#63b8ff" stroke="#63b8ff" points="63.56,-23.8 53.15,-21.83 60.06,-29.86 63.56,-23.8"/>
</a>
</g>
</g>
<!-- Node3 -->
<g id="Node000003" class="node">
<title>Node3</title>
<g id="a_Node000003"><a xlink:title=" ">
<polygon fill="#e0e0e0" stroke="#999999" points="171.75,-20.75 88.25,-20.75 88.25,0 171.75,0 171.75,-20.75"/>
<text text-anchor="middle" x="130" y="-7.25" font-family="Helvetica,sans-Serif" font-size="10.00">GLFW/glfw3.h</text>
</a>
</g>
</g>
<!-- Node1&#45;&gt;Node3 -->
<g id="edge2_Node000001_Node000003" class="edge">
<title>Node1&#45;&gt;Node3</title>
<g id="a_edge2_Node000001_Node000003"><a xlink:title=" ">
<path fill="none" stroke="#63b8ff" d="M130,-56.34C130,-49.72 130,-40.72 130,-32.52"/>
<polygon fill="#63b8ff" stroke="#63b8ff" points="133.5,-32.59 130,-22.59 126.5,-32.59 133.5,-32.59"/>
</a>
</g>
</g>
<!-- Node4 -->
<g id="Node000004" class="node">
<title>Node4</title>
<g id="a_Node000004"><a xlink:title=" ">
<polygon fill="#e0e0e0" stroke="#999999" points="233.88,-20.75 190.12,-20.75 190.12,0 233.88,0 233.88,-20.75"/>
<text text-anchor="middle" x="212" y="-7.25" font-family="Helvetica,sans-Serif" font-size="10.00">string</text>
</a>
</g>
</g>
<!-- Node1&#45;&gt;Node4 -->
<g id="edge3_Node000001_Node000004" class="edge">
<title>Node1&#45;&gt;Node4</title>
<g id="a_edge3_Node000001_Node000004"><a xlink:title=" ">
<path fill="none" stroke="#63b8ff" d="M144.66,-56.34C156.67,-48.32 173.91,-36.81 187.94,-27.44"/>
<polygon fill="#63b8ff" stroke="#63b8ff" points="189.84,-30.38 196.21,-21.92 185.95,-24.56 189.84,-30.38"/>
</a>
</g>
</g>
</g>
</svg>
