<?xml version="1.0" encoding="UTF-8" standalone="no"?>
<!DOCTYPE svg PUBLIC "-//W3C//DTD SVG 1.1//EN"
 "http://www.w3.org/Graphics/SVG/1.1/DTD/svg11.dtd">
<!-- Generated by graphviz version 2.43.0 (0)
 -->
<!-- Title: include/Window.hpp Pages: 1 -->
<svg width="243pt" height="82pt"
 viewBox="0.00 0.00 242.50 82.00" xmlns="http://www.w3.org/2000/svg" xmlns:xlink="http://www.w3.org/1999/xlink">
<g id="graph0" class="graph" transform="scale(1 1) rotate(0) translate(4 78)">
<title>include/Window.hpp</title>
<!-- Node1 -->
<g id="Node000001" class="node">
<title>Node1</title>
<g id="a_Node000001"><a xlink:title="Provides a window for OpenGL rendering using GLFW.">
<polygon fill="#999999" stroke="#666666" points="187.5,-74 73.5,-74 73.5,-55 187.5,-55 187.5,-74"/>
<text text-anchor="middle" x="130.5" y="-62" font-family="Helvetica,sans-Serif" font-size="10.00">include/Window.hpp</text>
</a>
</g>
</g>
<!-- Node2 -->
<g id="Node000002" class="node">
<title>Node2</title>
<g id="a_Node000002"><a xlink:title=" ">
<polygon fill="#e0e0e0" stroke="#999999" points="71,-19 0,-19 0,0 71,0 71,-19"/>
<text text-anchor="middle" x="35.5" y="-7" font-family="Helvetica,sans-Serif" font-size="10.00">glad/glad.h</text>
</a>
</g>
</g>
<!-- Node1&#45;&gt;Node2 -->
<g id="edge1_Node000001_Node000002" class="edge">
<title>Node1&#45;&gt;Node2</title>
<g id="a_edge1_Node000001_Node000002"><a xlink:title=" ">
<path fill="none" stroke="#63b8ff" d="M115.24,-54.98C100.37,-46.69 77.52,-33.94 60.08,-24.22"/>
<polygon fill="#63b8ff" stroke="#63b8ff" points="61.48,-20.99 51.04,-19.17 58.07,-27.1 61.48,-20.99"/>
</a>
</g>
</g>
<!-- Node3 -->
<g id="Node000003" class="node">
<title>Node3</title>
<g id="a_Node000003"><a xlink:title=" ">
<polygon fill="#e0e0e0" stroke="#999999" points="172,-19 89,-19 89,0 172,0 172,-19"/>
<text text-anchor="middle" x="130.5" y="-7" font-family="Helvetica,sans-Serif" font-size="10.00">GLFW/glfw3.h</text>
</a>
</g>
</g>
<!-- Node1&#45;&gt;Node3 -->
<g id="edge2_Node000001_Node000003" class="edge">
<title>Node1&#45;&gt;Node3</title>
<g id="a_edge2_Node000001_Node000003"><a xlink:title=" ">
<path fill="none" stroke="#63b8ff" d="M130.5,-54.75C130.5,-47.8 130.5,-37.85 130.5,-29.13"/>
<polygon fill="#63b8ff" stroke="#63b8ff" points="134,-29.09 130.5,-19.09 127,-29.09 134,-29.09"/>
</a>
</g>
</g>
<!-- Node4 -->
<g id="Node000004" class="node">
<title>Node4</title>
<g id="a_Node000004"><a xlink:title=" ">
<polygon fill="#e0e0e0" stroke="#999999" points="234.5,-19 190.5,-19 190.5,0 234.5,0 234.5,-19"/>
<text text-anchor="middle" x="212.5" y="-7" font-family="Helvetica,sans-Serif" font-size="10.00">string</text>
</a>
</g>
</g>
<!-- Node1&#45;&gt;Node4 -->
<g id="edge3_Node000001_Node000004" class="edge">
<title>Node1&#45;&gt;Node4</title>
<g id="a_edge3_Node000001_Node000004"><a xlink:title=" ">
<path fill="none" stroke="#63b8ff" d="M143.67,-54.98C156.27,-46.84 175.5,-34.41 190.44,-24.76"/>
<polygon fill="#63b8ff" stroke="#63b8ff" points="192.59,-27.54 199.09,-19.17 188.79,-21.66 192.59,-27.54"/>
</a>
</g>
</g>
</g>
</svg>
