<?xml version="1.0" encoding="UTF-8" standalone="no"?>
<!DOCTYPE svg PUBLIC "-//W3C//DTD SVG 1.1//EN"
 "http://www.w3.org/Graphics/SVG/1.1/DTD/svg11.dtd">
<!-- Generated by graphviz version 2.43.0 (0)
 -->
<!-- Title: include/Window.hpp Pages: 1 -->
<svg width="262pt" height="192pt"
 viewBox="0.00 0.00 261.50 192.00" xmlns="http://www.w3.org/2000/svg" xmlns:xlink="http://www.w3.org/1999/xlink">
<g id="graph0" class="graph" transform="scale(1 1) rotate(0) translate(4 188)">
<title>include/Window.hpp</title>
<!-- Node1 -->
<g id="Node000001" class="node">
<title>Node1</title>
<g id="a_Node000001"><a xlink:title="Provides a window for OpenGL rendering using GLFW.">
<polygon fill="#999999" stroke="#666666" points="114,-184 0,-184 0,-165 114,-165 114,-184"/>
<text text-anchor="middle" x="57" y="-172" font-family="Helvetica,sans-Serif" font-size="10.00">include/Window.hpp</text>
</a>
</g>
</g>
<!-- Node2 -->
<g id="Node000002" class="node">
<title>Node2</title>
<g id="a_Node000002"><a xlink:href="Engine_8hpp.html" target="_top" xlink:title="Defines the core Engine class responsible for running simulation.">
<polygon fill="white" stroke="#666666" points="148.5,-74 39.5,-74 39.5,-55 148.5,-55 148.5,-74"/>
<text text-anchor="middle" x="94" y="-62" font-family="Helvetica,sans-Serif" font-size="10.00">include/Engine.hpp</text>
</a>
</g>
</g>
<!-- Node1&#45;&gt;Node2 -->
<g id="edge1_Node000001_Node000002" class="edge">
<title>Node1&#45;&gt;Node2</title>
<g id="a_edge1_Node000001_Node000002"><a xlink:title=" ">
<path fill="none" stroke="#63b8ff" d="M62.06,-154.92C65.65,-142.18 70.75,-124.95 76,-110 80.42,-97.42 86.34,-83.18 90.17,-74.27"/>
<polygon fill="#63b8ff" stroke="#63b8ff" points="58.63,-154.22 59.33,-164.79 65.37,-156.09 58.63,-154.22"/>
</a>
</g>
</g>
<!-- Node3 -->
<g id="Node000003" class="node">
<title>Node3</title>
<g id="a_Node000003"><a xlink:href="FrameEngine_8hpp_source.html" target="_top" xlink:title=" ">
<polygon fill="white" stroke="#666666" points="164,-19 24,-19 24,0 164,0 164,-19"/>
<text text-anchor="middle" x="94" y="-7" font-family="Helvetica,sans-Serif" font-size="10.00">include/FrameEngine.hpp</text>
</a>
</g>
</g>
<!-- Node1&#45;&gt;Node3 -->
<g id="edge3_Node000001_Node000003" class="edge">
<title>Node1&#45;&gt;Node3</title>
<g id="a_edge3_Node000001_Node000003"><a xlink:title=" ">
<path fill="none" stroke="#63b8ff" d="M46.06,-156.29C32.35,-132.34 12.65,-88.2 30,-55 38.84,-38.09 57.36,-26.31 72.21,-19.13"/>
<polygon fill="#63b8ff" stroke="#63b8ff" points="43.11,-158.18 51.27,-164.95 49.11,-154.58 43.11,-158.18"/>
</a>
</g>
</g>
<!-- Node4 -->
<g id="Node000004" class="node">
<title>Node4</title>
<g id="a_Node000004"><a xlink:href="Renderer_8hpp.html" target="_top" xlink:title="Manages the rendering pipeline and object submission.">
<polygon fill="white" stroke="#666666" points="253.5,-129 84.5,-129 84.5,-110 253.5,-110 253.5,-129"/>
<text text-anchor="middle" x="169" y="-117" font-family="Helvetica,sans-Serif" font-size="10.00">include/rendering/Renderer.hpp</text>
</a>
</g>
</g>
<!-- Node1&#45;&gt;Node4 -->
<g id="edge4_Node000001_Node000004" class="edge">
<title>Node1&#45;&gt;Node4</title>
<g id="a_edge4_Node000001_Node000004"><a xlink:title=" ">
<path fill="none" stroke="#63b8ff" d="M84.19,-160.63C104.82,-150.87 132.62,-137.71 150.68,-129.17"/>
<polygon fill="#63b8ff" stroke="#63b8ff" points="82.54,-157.54 74.99,-164.98 85.53,-163.87 82.54,-157.54"/>
</a>
</g>
</g>
<!-- Node2&#45;&gt;Node3 -->
<g id="edge2_Node000002_Node000003" class="edge">
<title>Node2&#45;&gt;Node3</title>
<g id="a_edge2_Node000002_Node000003"><a xlink:title=" ">
<path fill="none" stroke="#63b8ff" d="M94,-44.66C94,-35.93 94,-25.99 94,-19.09"/>
<polygon fill="#63b8ff" stroke="#63b8ff" points="90.5,-44.75 94,-54.75 97.5,-44.75 90.5,-44.75"/>
</a>
</g>
</g>
<!-- Node4&#45;&gt;Node2 -->
<g id="edge5_Node000004_Node000002" class="edge">
<title>Node4&#45;&gt;Node2</title>
<g id="a_edge5_Node000004_Node000002"><a xlink:title=" ">
<path fill="none" stroke="#63b8ff" d="M148.69,-104.15C135.14,-94.57 117.76,-82.29 106.27,-74.17"/>
<polygon fill="#63b8ff" stroke="#63b8ff" points="146.76,-107.07 156.95,-109.98 150.8,-101.36 146.76,-107.07"/>
</a>
</g>
</g>
<!-- Node4&#45;&gt;Node3 -->
<g id="edge6_Node000004_Node000003" class="edge">
<title>Node4&#45;&gt;Node3</title>
<g id="a_edge6_Node000004_Node000003"><a xlink:title=" ">
<path fill="none" stroke="#63b8ff" d="M169.47,-99.56C168.95,-86.16 166.46,-68.28 158,-55 147.45,-38.45 128.32,-26.37 113.71,-19.01"/>
<polygon fill="#63b8ff" stroke="#63b8ff" points="165.97,-99.97 169.52,-109.95 172.97,-99.94 165.97,-99.97"/>
</a>
</g>
</g>
</g>
</svg>
