<?xml version="1.0" encoding="UTF-8" standalone="no"?>
<!DOCTYPE svg PUBLIC "-//W3C//DTD SVG 1.1//EN"
 "http://www.w3.org/Graphics/SVG/1.1/DTD/svg11.dtd">
<!-- Generated by graphviz version 12.2.1 (0)
 -->
<!-- Title: include/rendering/Camera.hpp Pages: 1 -->
<svg width="1353pt" height="369pt"
 viewBox="0.00 0.00 1353.25 369.25" xmlns="http://www.w3.org/2000/svg" xmlns:xlink="http://www.w3.org/1999/xlink">
<g id="graph0" class="graph" transform="scale(1 1) rotate(0) translate(4 365.25)">
<title>include/rendering/Camera.hpp</title>
<!-- Node1 -->
<g id="Node000001" class="node">
<title>Node1</title>
<g id="a_Node000001"><a xlink:title="Defines the Camera class for view and projection.">
<polygon fill="#999999" stroke="#666666" points="334,-361.25 171,-361.25 171,-340.5 334,-340.5 334,-361.25"/>
<text text-anchor="middle" x="252.5" y="-347.75" font-family="Helvetica,sans-Serif" font-size="10.00">include/rendering/Camera.hpp</text>
</a>
</g>
</g>
<!-- Node2 -->
<g id="Node000002" class="node">
<title>Node2</title>
<g id="a_Node000002"><a xlink:href="Matrix4_8hpp.html" target="_top" xlink:title="Defines the Matrix4 class for 3D transformation operations.">
<polygon fill="white" stroke="#666666" points="172,-191 69,-191 69,-170.25 172,-170.25 172,-191"/>
<text text-anchor="middle" x="120.5" y="-177.5" font-family="Helvetica,sans-Serif" font-size="10.00">math/Matrix4.hpp</text>
</a>
</g>
</g>
<!-- Node1&#45;&gt;Node2 -->
<g id="edge1_Node000001_Node000002" class="edge">
<title>Node1&#45;&gt;Node2</title>
<g id="a_edge1_Node000001_Node000002"><a xlink:title=" ">
<path fill="none" stroke="#63b8ff" d="M175.48,-340.04C119.05,-328.35 46.16,-302.92 9.5,-247.75 -7.6,-222.01 25.84,-204.83 60.38,-194.44"/>
<polygon fill="#63b8ff" stroke="#63b8ff" points="60.95,-197.92 69.63,-191.85 59.05,-191.18 60.95,-197.92"/>
</a>
</g>
</g>
<!-- Node4 -->
<g id="Node000004" class="node">
<title>Node4</title>
<g id="a_Node000004"><a xlink:href="Vector3_8hpp.html" target="_top" xlink:title="Defines the Vector3 class.">
<polygon fill="white" stroke="#666666" points="221.75,-77.5 147.25,-77.5 147.25,-56.75 221.75,-56.75 221.75,-77.5"/>
<text text-anchor="middle" x="184.5" y="-64" font-family="Helvetica,sans-Serif" font-size="10.00">Vector3.hpp</text>
</a>
</g>
</g>
<!-- Node1&#45;&gt;Node4 -->
<g id="edge11_Node000001_Node000004" class="edge">
<title>Node1&#45;&gt;Node4</title>
<g id="a_edge11_Node000001_Node000004"><a xlink:title=" ">
<path fill="none" stroke="#63b8ff" d="M252.5,-340.03C252.5,-320.6 252.5,-275.93 252.5,-238.38 252.5,-238.38 252.5,-238.38 252.5,-179.62 252.5,-141.93 223.82,-106.17 203.71,-85.73"/>
<polygon fill="#63b8ff" stroke="#63b8ff" points="206.42,-83.48 196.81,-79 201.53,-88.49 206.42,-83.48"/>
</a>
</g>
</g>
<!-- Node9 -->
<g id="Node000009" class="node">
<title>Node9</title>
<g id="a_Node000009"><a xlink:href="Object_8hpp.html" target="_top" xlink:title="Defines the Object class, a special ECS entity wrapper.">
<polygon fill="white" stroke="#666666" points="387.88,-304.5 281.12,-304.5 281.12,-283.75 387.88,-283.75 387.88,-304.5"/>
<text text-anchor="middle" x="334.5" y="-291" font-family="Helvetica,sans-Serif" font-size="10.00">objects/Object.hpp</text>
</a>
</g>
</g>
<!-- Node1&#45;&gt;Node9 -->
<g id="edge12_Node000001_Node000009" class="edge">
<title>Node1&#45;&gt;Node9</title>
<g id="a_edge12_Node000001_Node000009"><a xlink:title=" ">
<path fill="none" stroke="#63b8ff" d="M267.16,-340.09C279.17,-332.07 296.41,-320.56 310.44,-311.19"/>
<polygon fill="#63b8ff" stroke="#63b8ff" points="312.34,-314.13 318.71,-305.67 308.45,-308.31 312.34,-314.13"/>
</a>
</g>
</g>
<!-- Node3 -->
<g id="Node000003" class="node">
<title>Node3</title>
<g id="a_Node000003"><a xlink:href="Quaternion_8hpp.html" target="_top" xlink:title="Defines the Quaternion class for representing 3D rotations.">
<polygon fill="white" stroke="#666666" points="91,-134.25 0,-134.25 0,-113.5 91,-113.5 91,-134.25"/>
<text text-anchor="middle" x="45.5" y="-120.75" font-family="Helvetica,sans-Serif" font-size="10.00">Quaternion.hpp</text>
</a>
</g>
</g>
<!-- Node2&#45;&gt;Node3 -->
<g id="edge2_Node000002_Node000003" class="edge">
<title>Node2&#45;&gt;Node3</title>
<g id="a_edge2_Node000002_Node000003"><a xlink:title=" ">
<path fill="none" stroke="#63b8ff" d="M107.09,-169.84C96.21,-161.9 80.64,-150.53 67.88,-141.21"/>
<polygon fill="#63b8ff" stroke="#63b8ff" points="70.16,-138.54 60.01,-135.47 66.03,-144.19 70.16,-138.54"/>
</a>
</g>
</g>
<!-- Node2&#45;&gt;Node4 -->
<g id="edge8_Node000002_Node000004" class="edge">
<title>Node2&#45;&gt;Node4</title>
<g id="a_edge8_Node000002_Node000004"><a xlink:title=" ">
<path fill="none" stroke="#63b8ff" d="M125.96,-170.12C136.39,-151.94 159.36,-111.92 173.22,-87.77"/>
<polygon fill="#63b8ff" stroke="#63b8ff" points="176.18,-89.65 178.12,-79.24 170.11,-86.17 176.18,-89.65"/>
</a>
</g>
</g>
<!-- Node6 -->
<g id="Node000006" class="node">
<title>Node6</title>
<g id="a_Node000006"><a xlink:title=" ">
<polygon fill="#e0e0e0" stroke="#999999" points="212.38,-20.75 156.62,-20.75 156.62,0 212.38,0 212.38,-20.75"/>
<text text-anchor="middle" x="184.5" y="-7.25" font-family="Helvetica,sans-Serif" font-size="10.00">sstream</text>
</a>
</g>
</g>
<!-- Node2&#45;&gt;Node6 -->
<g id="edge10_Node000002_Node000006" class="edge">
<title>Node2&#45;&gt;Node6</title>
<g id="a_edge10_Node000002_Node000006"><a xlink:title=" ">
<path fill="none" stroke="#63b8ff" d="M119.9,-169.76C118.99,-148.04 119.11,-95.02 138.5,-56.75 143.99,-45.91 153.08,-36.11 161.73,-28.42"/>
<polygon fill="#63b8ff" stroke="#63b8ff" points="163.79,-31.26 169.25,-22.18 159.32,-25.87 163.79,-31.26"/>
</a>
</g>
</g>
<!-- Node8 -->
<g id="Node000008" class="node">
<title>Node8</title>
<g id="a_Node000008"><a xlink:title=" ">
<polygon fill="#e0e0e0" stroke="#999999" points="897.38,-77.5 841.62,-77.5 841.62,-56.75 897.38,-56.75 897.38,-77.5"/>
<text text-anchor="middle" x="869.5" y="-64" font-family="Helvetica,sans-Serif" font-size="10.00">iomanip</text>
</a>
</g>
</g>
<!-- Node2&#45;&gt;Node8 -->
<g id="edge9_Node000002_Node000008" class="edge">
<title>Node2&#45;&gt;Node8</title>
<g id="a_edge9_Node000002_Node000008"><a xlink:title=" ">
<path fill="none" stroke="#63b8ff" d="M172.42,-178.71C267.76,-176.26 476.79,-167.24 649.5,-134.25 715.27,-121.69 789.39,-97.16 832.63,-81.77"/>
<polygon fill="#63b8ff" stroke="#63b8ff" points="833.54,-85.16 841.76,-78.48 831.17,-78.57 833.54,-85.16"/>
</a>
</g>
</g>
<!-- Node3&#45;&gt;Node4 -->
<g id="edge3_Node000003_Node000004" class="edge">
<title>Node3&#45;&gt;Node4</title>
<g id="a_edge3_Node000003_Node000004"><a xlink:title=" ">
<path fill="none" stroke="#63b8ff" d="M70.35,-113.09C92.39,-104.41 124.82,-91.63 149.48,-81.92"/>
<polygon fill="#63b8ff" stroke="#63b8ff" points="150.43,-85.3 158.46,-78.38 147.87,-78.79 150.43,-85.3"/>
</a>
</g>
</g>
<!-- Node5 -->
<g id="Node000005" class="node">
<title>Node5</title>
<g id="a_Node000005"><a xlink:title=" ">
<polygon fill="#e0e0e0" stroke="#999999" points="121.88,-20.75 75.12,-20.75 75.12,0 121.88,0 121.88,-20.75"/>
<text text-anchor="middle" x="98.5" y="-7.25" font-family="Helvetica,sans-Serif" font-size="10.00">cmath</text>
</a>
</g>
</g>
<!-- Node3&#45;&gt;Node5 -->
<g id="edge7_Node000003_Node000005" class="edge">
<title>Node3&#45;&gt;Node5</title>
<g id="a_edge7_Node000003_Node000005"><a xlink:title=" ">
<path fill="none" stroke="#63b8ff" d="M50.02,-113.37C58.62,-95.27 77.51,-55.53 89.01,-31.35"/>
<polygon fill="#63b8ff" stroke="#63b8ff" points="92.06,-33.08 93.19,-22.54 85.74,-30.07 92.06,-33.08"/>
</a>
</g>
</g>
<!-- Node4&#45;&gt;Node5 -->
<g id="edge4_Node000004_Node000005" class="edge">
<title>Node4&#45;&gt;Node5</title>
<g id="a_edge4_Node000004_Node000005"><a xlink:title=" ">
<path fill="none" stroke="#63b8ff" d="M169.12,-56.34C156.41,-48.24 138.1,-36.58 123.31,-27.17"/>
<polygon fill="#63b8ff" stroke="#63b8ff" points="125.33,-24.31 115.02,-21.89 121.57,-30.21 125.33,-24.31"/>
</a>
</g>
</g>
<!-- Node4&#45;&gt;Node6 -->
<g id="edge5_Node000004_Node000006" class="edge">
<title>Node4&#45;&gt;Node6</title>
<g id="a_edge5_Node000004_Node000006"><a xlink:title=" ">
<path fill="none" stroke="#63b8ff" d="M184.5,-56.34C184.5,-49.72 184.5,-40.72 184.5,-32.52"/>
<polygon fill="#63b8ff" stroke="#63b8ff" points="188,-32.59 184.5,-22.59 181,-32.59 188,-32.59"/>
</a>
</g>
</g>
<!-- Node7 -->
<g id="Node000007" class="node">
<title>Node7</title>
<g id="a_Node000007"><a xlink:title=" ">
<polygon fill="#e0e0e0" stroke="#999999" points="359.38,-20.75 315.62,-20.75 315.62,0 359.38,0 359.38,-20.75"/>
<text text-anchor="middle" x="337.5" y="-7.25" font-family="Helvetica,sans-Serif" font-size="10.00">string</text>
</a>
</g>
</g>
<!-- Node4&#45;&gt;Node7 -->
<g id="edge6_Node000004_Node000007" class="edge">
<title>Node4&#45;&gt;Node7</title>
<g id="a_edge6_Node000004_Node000007"><a xlink:title=" ">
<path fill="none" stroke="#63b8ff" d="M211.85,-56.34C237.84,-47.04 276.95,-33.04 304.62,-23.14"/>
<polygon fill="#63b8ff" stroke="#63b8ff" points="305.68,-26.48 313.92,-19.81 303.32,-19.89 305.68,-26.48"/>
</a>
</g>
</g>
<!-- Node10 -->
<g id="Node000010" class="node">
<title>Node10</title>
<g id="a_Node000010"><a xlink:href="Entity_8hpp.html" target="_top" xlink:title="Defines the Entity class, which serves as a wrapper for ECS entities.">
<polygon fill="white" stroke="#666666" points="867.5,-191 803.5,-191 803.5,-170.25 867.5,-170.25 867.5,-191"/>
<text text-anchor="middle" x="835.5" y="-177.5" font-family="Helvetica,sans-Serif" font-size="10.00">Entity.hpp</text>
</a>
</g>
</g>
<!-- Node9&#45;&gt;Node10 -->
<g id="edge13_Node000009_Node000010" class="edge">
<title>Node9&#45;&gt;Node10</title>
<g id="a_edge13_Node000009_Node000010"><a xlink:title=" ">
<path fill="none" stroke="#63b8ff" d="M378.52,-283.33C473.65,-262.16 697.41,-212.36 792.03,-191.3"/>
<polygon fill="#63b8ff" stroke="#63b8ff" points="792.7,-194.74 801.7,-189.15 791.18,-187.9 792.7,-194.74"/>
</a>
</g>
</g>
<!-- Node24 -->
<g id="Node000024" class="node">
<title>Node24</title>
<g id="a_Node000024"><a xlink:href="TransformComponent_8hpp.html" target="_top" xlink:title="Defines the TransformComponent for ECS&#45;based spatial transformations.">
<polygon fill="white" stroke="#666666" points="224.38,-247.75 18.62,-247.75 18.62,-227 224.38,-227 224.38,-247.75"/>
<text text-anchor="middle" x="121.5" y="-234.25" font-family="Helvetica,sans-Serif" font-size="10.00">components/TransformComponent.hpp</text>
</a>
</g>
</g>
<!-- Node9&#45;&gt;Node24 -->
<g id="edge31_Node000009_Node000024" class="edge">
<title>Node9&#45;&gt;Node24</title>
<g id="a_edge31_Node000009_Node000024"><a xlink:title=" ">
<path fill="none" stroke="#63b8ff" d="M296.42,-283.34C261.24,-274.29 208.79,-260.81 170.5,-250.97"/>
<polygon fill="#63b8ff" stroke="#63b8ff" points="171.63,-247.65 161.07,-248.55 169.89,-254.43 171.63,-247.65"/>
</a>
</g>
</g>
<!-- Node25 -->
<g id="Node000025" class="node">
<title>Node25</title>
<g id="a_Node000025"><a xlink:href="Mesh_8hpp.html" target="_top" xlink:title="Defines the Mesh class for managing 3D geometry.">
<polygon fill="white" stroke="#666666" points="392.88,-134.25 280.12,-134.25 280.12,-113.5 392.88,-113.5 392.88,-134.25"/>
<text text-anchor="middle" x="336.5" y="-120.75" font-family="Helvetica,sans-Serif" font-size="10.00">rendering/Mesh.hpp</text>
</a>
</g>
</g>
<!-- Node9&#45;&gt;Node25 -->
<g id="edge35_Node000009_Node000025" class="edge">
<title>Node9&#45;&gt;Node25</title>
<g id="a_edge35_Node000009_Node000025"><a xlink:title=" ">
<path fill="none" stroke="#63b8ff" d="M334.61,-283.6C334.93,-257.23 335.81,-182.83 336.25,-146.03"/>
<polygon fill="#63b8ff" stroke="#63b8ff" points="339.75,-146.27 336.36,-136.23 332.75,-146.19 339.75,-146.27"/>
</a>
</g>
</g>
<!-- Node11 -->
<g id="Node000011" class="node">
<title>Node11</title>
<g id="a_Node000011"><a xlink:href="Logger_8hpp.html" target="_top" xlink:title="Provides logging functionality.">
<polygon fill="white" stroke="#666666" points="1104.5,-134.25 1034.5,-134.25 1034.5,-113.5 1104.5,-113.5 1104.5,-134.25"/>
<text text-anchor="middle" x="1069.5" y="-120.75" font-family="Helvetica,sans-Serif" font-size="10.00">Logger.hpp</text>
</a>
</g>
</g>
<!-- Node10&#45;&gt;Node11 -->
<g id="edge14_Node000010_Node000011" class="edge">
<title>Node10&#45;&gt;Node11</title>
<g id="a_edge14_Node000010_Node000011"><a xlink:title=" ">
<path fill="none" stroke="#63b8ff" d="M867.55,-172.13C907.7,-162.73 976.82,-146.56 1022.85,-135.79"/>
<polygon fill="#63b8ff" stroke="#63b8ff" points="1023.61,-139.21 1032.55,-133.52 1022.01,-132.39 1023.61,-139.21"/>
</a>
</g>
</g>
<!-- Node15 -->
<g id="Node000015" class="node">
<title>Node15</title>
<g id="a_Node000015"><a xlink:title=" ">
<polygon fill="#e0e0e0" stroke="#999999" points="1345.25,-77.5 1285.75,-77.5 1285.75,-56.75 1345.25,-56.75 1345.25,-77.5"/>
<text text-anchor="middle" x="1315.5" y="-64" font-family="Helvetica,sans-Serif" font-size="10.00">iostream</text>
</a>
</g>
</g>
<!-- Node10&#45;&gt;Node15 -->
<g id="edge30_Node000010_Node000015" class="edge">
<title>Node10&#45;&gt;Node15</title>
<g id="a_edge30_Node000010_Node000015"><a xlink:title=" ">
<path fill="none" stroke="#63b8ff" d="M867.93,-175.98C920.14,-169.75 1025.84,-155.62 1113.5,-134.25 1172.49,-119.87 1239.09,-96.66 1279.16,-81.91"/>
<polygon fill="#63b8ff" stroke="#63b8ff" points="1280.15,-85.28 1288.3,-78.52 1277.71,-78.71 1280.15,-85.28"/>
</a>
</g>
</g>
<!-- Node17 -->
<g id="Node000017" class="node">
<title>Node17</title>
<g id="a_Node000017"><a xlink:href="Registry_8hpp.html" target="_top" xlink:title="Defines the Registry class for managing ECS entities and components.">
<polygon fill="white" stroke="#666666" points="640.5,-134.25 564.5,-134.25 564.5,-113.5 640.5,-113.5 640.5,-134.25"/>
<text text-anchor="middle" x="602.5" y="-120.75" font-family="Helvetica,sans-Serif" font-size="10.00">Registry.hpp</text>
</a>
</g>
</g>
<!-- Node10&#45;&gt;Node17 -->
<g id="edge23_Node000010_Node000017" class="edge">
<title>Node10&#45;&gt;Node17</title>
<g id="a_edge23_Node000010_Node000017"><a xlink:title=" ">
<path fill="none" stroke="#63b8ff" d="M803.1,-172.01C763.91,-162.8 697.52,-147.2 651.93,-136.49"/>
<polygon fill="#63b8ff" stroke="#63b8ff" points="652.82,-133.1 642.29,-134.22 651.22,-139.92 652.82,-133.1"/>
</a>
</g>
</g>
<!-- Node11&#45;&gt;Node6 -->
<g id="edge21_Node000011_Node000006" class="edge">
<title>Node11&#45;&gt;Node6</title>
<g id="a_edge21_Node000011_Node000006"><a xlink:title=" ">
<path fill="none" stroke="#63b8ff" d="M1038.42,-113.05C1012.8,-104.61 975.75,-91.61 944.5,-77.5 926.96,-69.58 924.99,-62.07 906.5,-56.75 778.12,-19.85 439.76,-29.87 306.5,-20.75 278.94,-18.86 247.9,-16.48 224.03,-14.58"/>
<polygon fill="#63b8ff" stroke="#63b8ff" points="224.35,-11.1 214.1,-13.79 223.79,-18.07 224.35,-11.1"/>
</a>
</g>
</g>
<!-- Node11&#45;&gt;Node7 -->
<g id="edge22_Node000011_Node000007" class="edge">
<title>Node11&#45;&gt;Node7</title>
<g id="a_edge22_Node000011_Node000007"><a xlink:title=" ">
<path fill="none" stroke="#63b8ff" d="M1104.99,-114.22C1143.41,-103.29 1196.1,-82.72 1171.5,-56.75 1143.53,-27.22 523.66,-14.59 371.16,-11.93"/>
<polygon fill="#63b8ff" stroke="#63b8ff" points="371.39,-8.43 361.33,-11.76 371.27,-15.43 371.39,-8.43"/>
</a>
</g>
</g>
<!-- Node11&#45;&gt;Node8 -->
<g id="edge18_Node000011_Node000008" class="edge">
<title>Node11&#45;&gt;Node8</title>
<g id="a_edge18_Node000011_Node000008"><a xlink:title=" ">
<path fill="none" stroke="#63b8ff" d="M1034.2,-113.21C998.94,-103.56 944.86,-88.76 908.38,-78.77"/>
<polygon fill="#63b8ff" stroke="#63b8ff" points="909.7,-75.5 899.13,-76.24 907.85,-82.25 909.7,-75.5"/>
</a>
</g>
</g>
<!-- Node12 -->
<g id="Node000012" class="node">
<title>Node12</title>
<g id="a_Node000012"><a xlink:title=" ">
<polygon fill="#e0e0e0" stroke="#999999" points="1268,-77.5 1219,-77.5 1219,-56.75 1268,-56.75 1268,-77.5"/>
<text text-anchor="middle" x="1243.5" y="-64" font-family="Helvetica,sans-Serif" font-size="10.00">chrono</text>
</a>
</g>
</g>
<!-- Node11&#45;&gt;Node12 -->
<g id="edge15_Node000011_Node000012" class="edge">
<title>Node11&#45;&gt;Node12</title>
<g id="a_edge15_Node000011_Node000012"><a xlink:title=" ">
<path fill="none" stroke="#63b8ff" d="M1100.61,-113.09C1130.64,-103.64 1176.09,-89.34 1207.64,-79.41"/>
<polygon fill="#63b8ff" stroke="#63b8ff" points="1208.64,-82.76 1217.13,-76.42 1206.54,-76.09 1208.64,-82.76"/>
</a>
</g>
</g>
<!-- Node13 -->
<g id="Node000013" class="node">
<title>Node13</title>
<g id="a_Node000013"><a xlink:title=" ">
<polygon fill="#e0e0e0" stroke="#999999" points="1023.88,-77.5 953.12,-77.5 953.12,-56.75 1023.88,-56.75 1023.88,-77.5"/>
<text text-anchor="middle" x="988.5" y="-64" font-family="Helvetica,sans-Serif" font-size="10.00">fmt/printf.h</text>
</a>
</g>
</g>
<!-- Node11&#45;&gt;Node13 -->
<g id="edge16_Node000011_Node000013" class="edge">
<title>Node11&#45;&gt;Node13</title>
<g id="a_edge16_Node000011_Node000013"><a xlink:title=" ">
<path fill="none" stroke="#63b8ff" d="M1055.02,-113.09C1043.15,-105.07 1026.13,-93.56 1012.27,-84.19"/>
<polygon fill="#63b8ff" stroke="#63b8ff" points="1014.35,-81.38 1004.11,-78.68 1010.43,-87.18 1014.35,-81.38"/>
</a>
</g>
</g>
<!-- Node14 -->
<g id="Node000014" class="node">
<title>Node14</title>
<g id="a_Node000014"><a xlink:title=" ">
<polygon fill="#e0e0e0" stroke="#999999" points="1096.62,-77.5 1042.38,-77.5 1042.38,-56.75 1096.62,-56.75 1096.62,-77.5"/>
<text text-anchor="middle" x="1069.5" y="-64" font-family="Helvetica,sans-Serif" font-size="10.00">fstream</text>
</a>
</g>
</g>
<!-- Node11&#45;&gt;Node14 -->
<g id="edge17_Node000011_Node000014" class="edge">
<title>Node11&#45;&gt;Node14</title>
<g id="a_edge17_Node000011_Node000014"><a xlink:title=" ">
<path fill="none" stroke="#63b8ff" d="M1069.5,-113.09C1069.5,-106.47 1069.5,-97.47 1069.5,-89.27"/>
<polygon fill="#63b8ff" stroke="#63b8ff" points="1073,-89.34 1069.5,-79.34 1066,-89.34 1073,-89.34"/>
</a>
</g>
</g>
<!-- Node11&#45;&gt;Node15 -->
<g id="edge19_Node000011_Node000015" class="edge">
<title>Node11&#45;&gt;Node15</title>
<g id="a_edge19_Node000011_Node000015"><a xlink:title=" ">
<path fill="none" stroke="#63b8ff" d="M1104.9,-115.46C1144.16,-107.17 1209.65,-93.14 1274.78,-78.09"/>
<polygon fill="#63b8ff" stroke="#63b8ff" points="1275.22,-81.58 1284.17,-75.91 1273.64,-74.76 1275.22,-81.58"/>
</a>
</g>
</g>
<!-- Node16 -->
<g id="Node000016" class="node">
<title>Node16</title>
<g id="a_Node000016"><a xlink:title=" ">
<polygon fill="#e0e0e0" stroke="#999999" points="1162.25,-77.5 1114.75,-77.5 1114.75,-56.75 1162.25,-56.75 1162.25,-77.5"/>
<text text-anchor="middle" x="1138.5" y="-64" font-family="Helvetica,sans-Serif" font-size="10.00">mutex</text>
</a>
</g>
</g>
<!-- Node11&#45;&gt;Node16 -->
<g id="edge20_Node000011_Node000016" class="edge">
<title>Node11&#45;&gt;Node16</title>
<g id="a_edge20_Node000011_Node000016"><a xlink:title=" ">
<path fill="none" stroke="#63b8ff" d="M1081.84,-113.09C1091.75,-105.22 1105.89,-94 1117.56,-84.74"/>
<polygon fill="#63b8ff" stroke="#63b8ff" points="1119.43,-87.73 1125.09,-78.77 1115.08,-82.24 1119.43,-87.73"/>
</a>
</g>
</g>
<!-- Node18 -->
<g id="Node000018" class="node">
<title>Node18</title>
<g id="a_Node000018"><a xlink:title=" ">
<polygon fill="#e0e0e0" stroke="#999999" points="493.12,-77.5 429.88,-77.5 429.88,-56.75 493.12,-56.75 493.12,-77.5"/>
<text text-anchor="middle" x="461.5" y="-64" font-family="Helvetica,sans-Serif" font-size="10.00">algorithm</text>
</a>
</g>
</g>
<!-- Node17&#45;&gt;Node18 -->
<g id="edge24_Node000017_Node000018" class="edge">
<title>Node17&#45;&gt;Node18</title>
<g id="a_edge24_Node000017_Node000018"><a xlink:title=" ">
<path fill="none" stroke="#63b8ff" d="M577.29,-113.09C554.94,-104.41 522.04,-91.63 497.02,-81.92"/>
<polygon fill="#63b8ff" stroke="#63b8ff" points="498.49,-78.73 487.9,-78.38 495.96,-85.26 498.49,-78.73"/>
</a>
</g>
</g>
<!-- Node19 -->
<g id="Node000019" class="node">
<title>Node19</title>
<g id="a_Node000019"><a xlink:title=" ">
<polygon fill="#e0e0e0" stroke="#999999" points="555.38,-77.5 511.62,-77.5 511.62,-56.75 555.38,-56.75 555.38,-77.5"/>
<text text-anchor="middle" x="533.5" y="-64" font-family="Helvetica,sans-Serif" font-size="10.00">bitset</text>
</a>
</g>
</g>
<!-- Node17&#45;&gt;Node19 -->
<g id="edge25_Node000017_Node000019" class="edge">
<title>Node17&#45;&gt;Node19</title>
<g id="a_edge25_Node000017_Node000019"><a xlink:title=" ">
<path fill="none" stroke="#63b8ff" d="M590.16,-113.09C580.25,-105.22 566.11,-94 554.44,-84.74"/>
<polygon fill="#63b8ff" stroke="#63b8ff" points="556.92,-82.24 546.91,-78.77 552.57,-87.73 556.92,-82.24"/>
</a>
</g>
</g>
<!-- Node20 -->
<g id="Node000020" class="node">
<title>Node20</title>
<g id="a_Node000020"><a xlink:title=" ">
<polygon fill="#e0e0e0" stroke="#999999" points="631.12,-77.5 573.88,-77.5 573.88,-56.75 631.12,-56.75 631.12,-77.5"/>
<text text-anchor="middle" x="602.5" y="-64" font-family="Helvetica,sans-Serif" font-size="10.00">memory</text>
</a>
</g>
</g>
<!-- Node17&#45;&gt;Node20 -->
<g id="edge26_Node000017_Node000020" class="edge">
<title>Node17&#45;&gt;Node20</title>
<g id="a_edge26_Node000017_Node000020"><a xlink:title=" ">
<path fill="none" stroke="#63b8ff" d="M602.5,-113.09C602.5,-106.47 602.5,-97.47 602.5,-89.27"/>
<polygon fill="#63b8ff" stroke="#63b8ff" points="606,-89.34 602.5,-79.34 599,-89.34 606,-89.34"/>
</a>
</g>
</g>
<!-- Node21 -->
<g id="Node000021" class="node">
<title>Node21</title>
<g id="a_Node000021"><a xlink:title=" ">
<polygon fill="#e0e0e0" stroke="#999999" points="713.5,-77.5 649.5,-77.5 649.5,-56.75 713.5,-56.75 713.5,-77.5"/>
<text text-anchor="middle" x="681.5" y="-64" font-family="Helvetica,sans-Serif" font-size="10.00">stdexcept</text>
</a>
</g>
</g>
<!-- Node17&#45;&gt;Node21 -->
<g id="edge27_Node000017_Node000021" class="edge">
<title>Node17&#45;&gt;Node21</title>
<g id="a_edge27_Node000017_Node000021"><a xlink:title=" ">
<path fill="none" stroke="#63b8ff" d="M616.62,-113.09C628.19,-105.07 644.8,-93.56 658.32,-84.19"/>
<polygon fill="#63b8ff" stroke="#63b8ff" points="660.03,-87.26 666.25,-78.69 656.04,-81.51 660.03,-87.26"/>
</a>
</g>
</g>
<!-- Node22 -->
<g id="Node000022" class="node">
<title>Node22</title>
<g id="a_Node000022"><a xlink:title=" ">
<polygon fill="#e0e0e0" stroke="#999999" points="823.75,-77.5 731.25,-77.5 731.25,-56.75 823.75,-56.75 823.75,-77.5"/>
<text text-anchor="middle" x="777.5" y="-64" font-family="Helvetica,sans-Serif" font-size="10.00">unordered_map</text>
</a>
</g>
</g>
<!-- Node17&#45;&gt;Node22 -->
<g id="edge28_Node000017_Node000022" class="edge">
<title>Node17&#45;&gt;Node22</title>
<g id="a_edge28_Node000017_Node000022"><a xlink:title=" ">
<path fill="none" stroke="#63b8ff" d="M633.79,-113.09C662.19,-104.2 704.31,-91.02 735.61,-81.23"/>
<polygon fill="#63b8ff" stroke="#63b8ff" points="736.25,-84.7 744.75,-78.37 734.16,-78.02 736.25,-84.7"/>
</a>
</g>
</g>
<!-- Node23 -->
<g id="Node000023" class="node">
<title>Node23</title>
<g id="a_Node000023"><a xlink:title=" ">
<polygon fill="#e0e0e0" stroke="#999999" points="411.88,-77.5 365.12,-77.5 365.12,-56.75 411.88,-56.75 411.88,-77.5"/>
<text text-anchor="middle" x="388.5" y="-64" font-family="Helvetica,sans-Serif" font-size="10.00">vector</text>
</a>
</g>
</g>
<!-- Node17&#45;&gt;Node23 -->
<g id="edge29_Node000017_Node000023" class="edge">
<title>Node17&#45;&gt;Node23</title>
<g id="a_edge29_Node000017_Node000023"><a xlink:title=" ">
<path fill="none" stroke="#63b8ff" d="M564.04,-113.77C529.43,-105.46 476.93,-92.61 423.03,-78.11"/>
<polygon fill="#63b8ff" stroke="#63b8ff" points="424.26,-74.82 413.7,-75.59 422.44,-81.58 424.26,-74.82"/>
</a>
</g>
</g>
<!-- Node24&#45;&gt;Node2 -->
<g id="edge32_Node000024_Node000002" class="edge">
<title>Node24&#45;&gt;Node2</title>
<g id="a_edge32_Node000024_Node000002"><a xlink:title=" ">
<path fill="none" stroke="#63b8ff" d="M121.32,-226.59C121.2,-219.97 121.04,-210.97 120.89,-202.77"/>
<polygon fill="#63b8ff" stroke="#63b8ff" points="124.39,-202.78 120.7,-192.84 117.39,-202.9 124.39,-202.78"/>
</a>
</g>
</g>
<!-- Node24&#45;&gt;Node3 -->
<g id="edge33_Node000024_Node000003" class="edge">
<title>Node24&#45;&gt;Node3</title>
<g id="a_edge33_Node000024_Node000003"><a xlink:title=" ">
<path fill="none" stroke="#63b8ff" d="M101.78,-226.57C88.13,-218.78 70.65,-206.6 60.5,-191 51.75,-177.56 48.06,-159.69 46.53,-145.91"/>
<polygon fill="#63b8ff" stroke="#63b8ff" points="50.04,-145.86 45.76,-136.17 43.06,-146.41 50.04,-145.86"/>
</a>
</g>
</g>
<!-- Node24&#45;&gt;Node4 -->
<g id="edge34_Node000024_Node000004" class="edge">
<title>Node24&#45;&gt;Node4</title>
<g id="a_edge34_Node000024_Node000004"><a xlink:title=" ">
<path fill="none" stroke="#63b8ff" d="M142.75,-226.56C156.48,-218.97 173.28,-207.04 181.5,-191 198.16,-158.51 193.89,-114.57 189.23,-88.99"/>
<polygon fill="#63b8ff" stroke="#63b8ff" points="192.66,-88.32 187.23,-79.22 185.8,-89.72 192.66,-88.32"/>
</a>
</g>
</g>
<!-- Node25&#45;&gt;Node4 -->
<g id="edge36_Node000025_Node000004" class="edge">
<title>Node25&#45;&gt;Node4</title>
<g id="a_edge36_Node000025_Node000004"><a xlink:title=" ">
<path fill="none" stroke="#63b8ff" d="M309.33,-113.09C285.08,-104.36 249.35,-91.48 222.32,-81.75"/>
<polygon fill="#63b8ff" stroke="#63b8ff" points="223.71,-78.53 213.12,-78.43 221.34,-85.12 223.71,-78.53"/>
</a>
</g>
</g>
<!-- Node25&#45;&gt;Node7 -->
<g id="edge38_Node000025_Node000007" class="edge">
<title>Node25&#45;&gt;Node7</title>
<g id="a_edge38_Node000025_Node000007"><a xlink:title=" ">
<path fill="none" stroke="#63b8ff" d="M336.59,-113.37C336.74,-95.6 337.09,-56.97 337.31,-32.68"/>
<polygon fill="#63b8ff" stroke="#63b8ff" points="340.81,-32.72 337.4,-22.69 333.81,-32.66 340.81,-32.72"/>
</a>
</g>
</g>
<!-- Node25&#45;&gt;Node23 -->
<g id="edge39_Node000025_Node000023" class="edge">
<title>Node25&#45;&gt;Node23</title>
<g id="a_edge39_Node000025_Node000023"><a xlink:title=" ">
<path fill="none" stroke="#63b8ff" d="M345.8,-113.09C352.9,-105.61 362.87,-95.11 371.4,-86.13"/>
<polygon fill="#63b8ff" stroke="#63b8ff" points="373.89,-88.59 378.24,-78.93 368.82,-83.77 373.89,-88.59"/>
</a>
</g>
</g>
<!-- Node26 -->
<g id="Node000026" class="node">
<title>Node26</title>
<g id="a_Node000026"><a xlink:title=" ">
<polygon fill="#e0e0e0" stroke="#999999" points="309.5,-77.5 239.5,-77.5 239.5,-56.75 309.5,-56.75 309.5,-77.5"/>
<text text-anchor="middle" x="274.5" y="-64" font-family="Helvetica,sans-Serif" font-size="10.00">glad/glad.h</text>
</a>
</g>
</g>
<!-- Node25&#45;&gt;Node26 -->
<g id="edge37_Node000025_Node000026" class="edge">
<title>Node25&#45;&gt;Node26</title>
<g id="a_edge37_Node000025_Node000026"><a xlink:title=" ">
<path fill="none" stroke="#63b8ff" d="M325.42,-113.09C316.69,-105.38 304.31,-94.45 293.94,-85.29"/>
<polygon fill="#63b8ff" stroke="#63b8ff" points="296.44,-82.83 286.62,-78.83 291.8,-88.07 296.44,-82.83"/>
</a>
</g>
</g>
</g>
</svg>
