<?xml version="1.0" encoding="UTF-8" standalone="no"?>
<!DOCTYPE svg PUBLIC "-//W3C//DTD SVG 1.1//EN"
 "http://www.w3.org/Graphics/SVG/1.1/DTD/svg11.dtd">
<!-- Generated by graphviz version 12.2.1 (0)
 -->
<!-- Title: Camera Pages: 1 -->
<svg width="133pt" height="544pt"
 viewBox="0.00 0.00 133.25 544.25" xmlns="http://www.w3.org/2000/svg" xmlns:xlink="http://www.w3.org/1999/xlink">
<g id="graph0" class="graph" transform="scale(1 1) rotate(0) translate(4 540.25)">
<title>Camera</title>
<!-- Node1 -->
<g id="Node000001" class="node">
<title>Node1</title>
<g id="a_Node000001"><a xlink:title="A camera.">
<polygon fill="#999999" stroke="none" points="124.5,-138 0.75,-138 0.75,0 124.5,0 124.5,-138"/>
<text text-anchor="start" x="43.5" y="-124.5" font-family="Helvetica,sans-Serif" font-size="10.00">Camera</text>
<text text-anchor="start" x="59.62" y="-107.75" font-family="Helvetica,sans-Serif" font-size="10.00"> </text>
<text text-anchor="start" x="4.75" y="-91" font-family="Helvetica,sans-Serif" font-size="10.00">+</text>
<text text-anchor="start" x="17" y="-91" font-family="Helvetica,sans-Serif" font-size="10.00">Camera()</text>
<text text-anchor="start" x="4.75" y="-74.25" font-family="Helvetica,sans-Serif" font-size="10.00">+</text>
<text text-anchor="start" x="17" y="-74.25" font-family="Helvetica,sans-Serif" font-size="10.00">getViewMatrix()</text>
<text text-anchor="start" x="4.75" y="-57.5" font-family="Helvetica,sans-Serif" font-size="10.00">+</text>
<text text-anchor="start" x="17" y="-57.5" font-family="Helvetica,sans-Serif" font-size="10.00">updateViewMatrix()</text>
<text text-anchor="start" x="4.75" y="-40.75" font-family="Helvetica,sans-Serif" font-size="10.00">+</text>
<text text-anchor="start" x="17" y="-40.75" font-family="Helvetica,sans-Serif" font-size="10.00">getProjectionMatrix()</text>
<text text-anchor="start" x="4.75" y="-24" font-family="Helvetica,sans-Serif" font-size="10.00">+</text>
<text text-anchor="start" x="17" y="-24" font-family="Helvetica,sans-Serif" font-size="10.00">setProjection()</text>
<text text-anchor="start" x="4.75" y="-7.25" font-family="Helvetica,sans-Serif" font-size="10.00">+</text>
<text text-anchor="start" x="17" y="-7.25" font-family="Helvetica,sans-Serif" font-size="10.00">getFrontVector()</text>
<polygon fill="#666666" stroke="#666666" points="0.75,-119.25 0.75,-119.25 124.5,-119.25 124.5,-119.25 0.75,-119.25"/>
<polygon fill="#666666" stroke="#666666" points="0.75,-102.5 0.75,-102.5 124.5,-102.5 124.5,-102.5 0.75,-102.5"/>
<polygon fill="none" stroke="#666666" points="0.75,0 0.75,-138 124.5,-138 124.5,0 0.75,0"/>
</a>
</g>
</g>
<!-- Node2 -->
<g id="Node000002" class="node">
<title>Node2</title>
<g id="a_Node000002"><a xlink:href="classObject.html" target="_top" xlink:title="A high&#45;level ECS entity wrapper with default components.">
<polygon fill="white" stroke="none" points="109.88,-362.25 15.38,-362.25 15.38,-174 109.88,-174 109.88,-362.25"/>
<text text-anchor="start" x="46.88" y="-348.75" font-family="Helvetica,sans-Serif" font-size="10.00">Object</text>
<text text-anchor="start" x="19.38" y="-332" font-family="Helvetica,sans-Serif" font-size="10.00">+</text>
<text text-anchor="start" x="31.62" y="-332" font-family="Helvetica,sans-Serif" font-size="10.00">transform</text>
<text text-anchor="start" x="19.38" y="-315.25" font-family="Helvetica,sans-Serif" font-size="10.00">+</text>
<text text-anchor="start" x="31.62" y="-315.25" font-family="Helvetica,sans-Serif" font-size="10.00">Object()</text>
<text text-anchor="start" x="19.38" y="-298.5" font-family="Helvetica,sans-Serif" font-size="10.00">+</text>
<text text-anchor="start" x="31.62" y="-298.5" font-family="Helvetica,sans-Serif" font-size="10.00">rotate()</text>
<text text-anchor="start" x="19.38" y="-281.75" font-family="Helvetica,sans-Serif" font-size="10.00">+</text>
<text text-anchor="start" x="31.62" y="-281.75" font-family="Helvetica,sans-Serif" font-size="10.00">move()</text>
<text text-anchor="start" x="19.38" y="-265" font-family="Helvetica,sans-Serif" font-size="10.00">+</text>
<text text-anchor="start" x="31.62" y="-265" font-family="Helvetica,sans-Serif" font-size="10.00">render()</text>
<text text-anchor="start" x="19.38" y="-248.25" font-family="Helvetica,sans-Serif" font-size="10.00">+</text>
<text text-anchor="start" x="31.62" y="-248.25" font-family="Helvetica,sans-Serif" font-size="10.00">getColor()</text>
<text text-anchor="start" x="19.38" y="-231.5" font-family="Helvetica,sans-Serif" font-size="10.00">+</text>
<text text-anchor="start" x="31.62" y="-231.5" font-family="Helvetica,sans-Serif" font-size="10.00">setColor()</text>
<text text-anchor="start" x="19.38" y="-214.75" font-family="Helvetica,sans-Serif" font-size="10.00">+</text>
<text text-anchor="start" x="31.62" y="-214.75" font-family="Helvetica,sans-Serif" font-size="10.00">lookAt()</text>
<text text-anchor="start" x="19.38" y="-198" font-family="Helvetica,sans-Serif" font-size="10.00">+</text>
<text text-anchor="start" x="31.62" y="-198" font-family="Helvetica,sans-Serif" font-size="10.00">setWireframe()</text>
<text text-anchor="start" x="19.38" y="-181.25" font-family="Helvetica,sans-Serif" font-size="10.00">+</text>
<text text-anchor="start" x="31.62" y="-181.25" font-family="Helvetica,sans-Serif" font-size="10.00">isWireframe()</text>
<polygon fill="#666666" stroke="#666666" points="15.38,-343.5 15.38,-343.5 109.88,-343.5 109.88,-343.5 15.38,-343.5"/>
<polygon fill="#666666" stroke="#666666" points="15.38,-326.75 15.38,-326.75 29.62,-326.75 29.62,-326.75 15.38,-326.75"/>
<polygon fill="#666666" stroke="#666666" points="29.62,-326.75 29.62,-326.75 109.88,-326.75 109.88,-326.75 29.62,-326.75"/>
<polygon fill="none" stroke="#666666" points="15.38,-174 15.38,-362.25 109.88,-362.25 109.88,-174 15.38,-174"/>
</a>
</g>
</g>
<!-- Node2&#45;&gt;Node1 -->
<g id="edge1_Node000001_Node000002" class="edge">
<title>Node2&#45;&gt;Node1</title>
<g id="a_edge1_Node000001_Node000002"><a xlink:title=" ">
<path fill="none" stroke="#63b8ff" d="M62.62,-162.63C62.62,-154.28 62.62,-145.97 62.62,-137.97"/>
<polygon fill="none" stroke="#63b8ff" points="59.13,-162.53 62.63,-172.53 66.13,-162.53 59.13,-162.53"/>
</a>
</g>
</g>
<!-- Node3 -->
<g id="Node000003" class="node">
<title>Node3</title>
<g id="a_Node000003"><a xlink:href="classEntity.html" target="_top" xlink:title="A high&#45;level ECS entity wrapper.">
<polygon fill="white" stroke="none" points="125.25,-536.25 0,-536.25 0,-398.25 125.25,-398.25 125.25,-536.25"/>
<text text-anchor="start" x="48.38" y="-522.75" font-family="Helvetica,sans-Serif" font-size="10.00">Entity</text>
<text text-anchor="start" x="4" y="-506" font-family="Helvetica,sans-Serif" font-size="10.00">#</text>
<text text-anchor="start" x="16.25" y="-506" font-family="Helvetica,sans-Serif" font-size="10.00">id_</text>
<text text-anchor="start" x="4" y="-489.25" font-family="Helvetica,sans-Serif" font-size="10.00">#</text>
<text text-anchor="start" x="16.25" y="-489.25" font-family="Helvetica,sans-Serif" font-size="10.00">registry_</text>
<text text-anchor="start" x="4" y="-472.5" font-family="Helvetica,sans-Serif" font-size="10.00">+</text>
<text text-anchor="start" x="16.25" y="-472.5" font-family="Helvetica,sans-Serif" font-size="10.00">Entity()</text>
<text text-anchor="start" x="4" y="-455.75" font-family="Helvetica,sans-Serif" font-size="10.00">+</text>
<text text-anchor="start" x="16.25" y="-455.75" font-family="Helvetica,sans-Serif" font-size="10.00">add_component()</text>
<text text-anchor="start" x="4" y="-439" font-family="Helvetica,sans-Serif" font-size="10.00">+</text>
<text text-anchor="start" x="16.25" y="-439" font-family="Helvetica,sans-Serif" font-size="10.00">remove_component()</text>
<text text-anchor="start" x="4" y="-422.25" font-family="Helvetica,sans-Serif" font-size="10.00">+</text>
<text text-anchor="start" x="16.25" y="-422.25" font-family="Helvetica,sans-Serif" font-size="10.00">get_component()</text>
<text text-anchor="start" x="4" y="-405.5" font-family="Helvetica,sans-Serif" font-size="10.00">+</text>
<text text-anchor="start" x="16.25" y="-405.5" font-family="Helvetica,sans-Serif" font-size="10.00">id()</text>
<polygon fill="#666666" stroke="#666666" points="0,-517.5 0,-517.5 125.25,-517.5 125.25,-517.5 0,-517.5"/>
<polygon fill="#666666" stroke="#666666" points="0,-484 0,-484 14.25,-484 14.25,-484 0,-484"/>
<polygon fill="#666666" stroke="#666666" points="14.25,-484 14.25,-484 125.25,-484 125.25,-484 14.25,-484"/>
<polygon fill="none" stroke="#666666" points="0,-398.25 0,-536.25 125.25,-536.25 125.25,-398.25 0,-398.25"/>
</a>
</g>
</g>
<!-- Node3&#45;&gt;Node2 -->
<g id="edge2_Node000002_Node000003" class="edge">
<title>Node3&#45;&gt;Node2</title>
<g id="a_edge2_Node000002_Node000003"><a xlink:title=" ">
<path fill="none" stroke="#63b8ff" d="M62.62,-387C62.62,-378.83 62.62,-370.47 62.62,-362.16"/>
<polygon fill="none" stroke="#63b8ff" points="59.13,-386.9 62.63,-396.9 66.13,-386.9 59.13,-386.9"/>
</a>
</g>
</g>
</g>
</svg>
