<?xml version="1.0" encoding="UTF-8" standalone="no"?>
<!DOCTYPE svg PUBLIC "-//W3C//DTD SVG 1.1//EN"
 "http://www.w3.org/Graphics/SVG/1.1/DTD/svg11.dtd">
<!-- Generated by graphviz version 12.2.1 (0)
 -->
<!-- Title: Object Pages: 1 -->
<svg width="236pt" height="544pt"
 viewBox="0.00 0.00 236.00 544.25" xmlns="http://www.w3.org/2000/svg" xmlns:xlink="http://www.w3.org/1999/xlink">
<g id="graph0" class="graph" transform="scale(1 1) rotate(0) translate(4 540.25)">
<title>Object</title>
<!-- Node1 -->
<g id="Node000001" class="node">
<title>Node1</title>
<g id="a_Node000001"><a xlink:title="A high&#45;level ECS entity wrapper with default components.">
<polygon fill="#999999" stroke="none" points="170.12,-362.25 75.62,-362.25 75.62,-174 170.12,-174 170.12,-362.25"/>
<text text-anchor="start" x="107.12" y="-348.75" font-family="Helvetica,sans-Serif" font-size="10.00">Object</text>
<text text-anchor="start" x="79.62" y="-332" font-family="Helvetica,sans-Serif" font-size="10.00">+</text>
<text text-anchor="start" x="91.88" y="-332" font-family="Helvetica,sans-Serif" font-size="10.00">transform</text>
<text text-anchor="start" x="79.62" y="-315.25" font-family="Helvetica,sans-Serif" font-size="10.00">+</text>
<text text-anchor="start" x="91.88" y="-315.25" font-family="Helvetica,sans-Serif" font-size="10.00">Object()</text>
<text text-anchor="start" x="79.62" y="-298.5" font-family="Helvetica,sans-Serif" font-size="10.00">+</text>
<text text-anchor="start" x="91.88" y="-298.5" font-family="Helvetica,sans-Serif" font-size="10.00">rotate()</text>
<text text-anchor="start" x="79.62" y="-281.75" font-family="Helvetica,sans-Serif" font-size="10.00">+</text>
<text text-anchor="start" x="91.88" y="-281.75" font-family="Helvetica,sans-Serif" font-size="10.00">move()</text>
<text text-anchor="start" x="79.62" y="-265" font-family="Helvetica,sans-Serif" font-size="10.00">+</text>
<text text-anchor="start" x="91.88" y="-265" font-family="Helvetica,sans-Serif" font-size="10.00">render()</text>
<text text-anchor="start" x="79.62" y="-248.25" font-family="Helvetica,sans-Serif" font-size="10.00">+</text>
<text text-anchor="start" x="91.88" y="-248.25" font-family="Helvetica,sans-Serif" font-size="10.00">getColor()</text>
<text text-anchor="start" x="79.62" y="-231.5" font-family="Helvetica,sans-Serif" font-size="10.00">+</text>
<text text-anchor="start" x="91.88" y="-231.5" font-family="Helvetica,sans-Serif" font-size="10.00">setColor()</text>
<text text-anchor="start" x="79.62" y="-214.75" font-family="Helvetica,sans-Serif" font-size="10.00">+</text>
<text text-anchor="start" x="91.88" y="-214.75" font-family="Helvetica,sans-Serif" font-size="10.00">lookAt()</text>
<text text-anchor="start" x="79.62" y="-198" font-family="Helvetica,sans-Serif" font-size="10.00">+</text>
<text text-anchor="start" x="91.88" y="-198" font-family="Helvetica,sans-Serif" font-size="10.00">setWireframe()</text>
<text text-anchor="start" x="79.62" y="-181.25" font-family="Helvetica,sans-Serif" font-size="10.00">+</text>
<text text-anchor="start" x="91.88" y="-181.25" font-family="Helvetica,sans-Serif" font-size="10.00">isWireframe()</text>
<polygon fill="#666666" stroke="#666666" points="75.62,-343.5 75.62,-343.5 170.12,-343.5 170.12,-343.5 75.62,-343.5"/>
<polygon fill="#666666" stroke="#666666" points="75.62,-326.75 75.62,-326.75 89.88,-326.75 89.88,-326.75 75.62,-326.75"/>
<polygon fill="#666666" stroke="#666666" points="89.88,-326.75 89.88,-326.75 170.12,-326.75 170.12,-326.75 89.88,-326.75"/>
<polygon fill="none" stroke="#666666" points="75.62,-174 75.62,-362.25 170.12,-362.25 170.12,-174 75.62,-174"/>
</a>
</g>
</g>
<!-- Node3 -->
<g id="Node000003" class="node">
<title>Node3</title>
<g id="a_Node000003"><a xlink:href="classCamera.html" target="_top" xlink:title="A camera.">
<polygon fill="white" stroke="none" points="123.75,-138 0,-138 0,0 123.75,0 123.75,-138"/>
<text text-anchor="start" x="42.75" y="-124.5" font-family="Helvetica,sans-Serif" font-size="10.00">Camera</text>
<text text-anchor="start" x="58.88" y="-107.75" font-family="Helvetica,sans-Serif" font-size="10.00"> </text>
<text text-anchor="start" x="4" y="-91" font-family="Helvetica,sans-Serif" font-size="10.00">+</text>
<text text-anchor="start" x="16.25" y="-91" font-family="Helvetica,sans-Serif" font-size="10.00">Camera()</text>
<text text-anchor="start" x="4" y="-74.25" font-family="Helvetica,sans-Serif" font-size="10.00">+</text>
<text text-anchor="start" x="16.25" y="-74.25" font-family="Helvetica,sans-Serif" font-size="10.00">getViewMatrix()</text>
<text text-anchor="start" x="4" y="-57.5" font-family="Helvetica,sans-Serif" font-size="10.00">+</text>
<text text-anchor="start" x="16.25" y="-57.5" font-family="Helvetica,sans-Serif" font-size="10.00">updateViewMatrix()</text>
<text text-anchor="start" x="4" y="-40.75" font-family="Helvetica,sans-Serif" font-size="10.00">+</text>
<text text-anchor="start" x="16.25" y="-40.75" font-family="Helvetica,sans-Serif" font-size="10.00">getProjectionMatrix()</text>
<text text-anchor="start" x="4" y="-24" font-family="Helvetica,sans-Serif" font-size="10.00">+</text>
<text text-anchor="start" x="16.25" y="-24" font-family="Helvetica,sans-Serif" font-size="10.00">setProjection()</text>
<text text-anchor="start" x="4" y="-7.25" font-family="Helvetica,sans-Serif" font-size="10.00">+</text>
<text text-anchor="start" x="16.25" y="-7.25" font-family="Helvetica,sans-Serif" font-size="10.00">getFrontVector()</text>
<polygon fill="#666666" stroke="#666666" points="0,-119.25 0,-119.25 123.75,-119.25 123.75,-119.25 0,-119.25"/>
<polygon fill="#666666" stroke="#666666" points="0,-102.5 0,-102.5 123.75,-102.5 123.75,-102.5 0,-102.5"/>
<polygon fill="none" stroke="#666666" points="0,0 0,-138 123.75,-138 123.75,0 0,0"/>
</a>
</g>
</g>
<!-- Node1&#45;&gt;Node3 -->
<g id="edge2_Node000001_Node000003" class="edge">
<title>Node1&#45;&gt;Node3</title>
<g id="a_edge2_Node000001_Node000003"><a xlink:title=" ">
<path fill="none" stroke="#63b8ff" d="M90.72,-163.2C88.07,-154.65 85.44,-146.16 82.91,-137.97"/>
<polygon fill="none" stroke="#63b8ff" points="87.32,-164.08 93.62,-172.6 94.01,-162.01 87.32,-164.08"/>
</a>
</g>
</g>
<!-- Node4 -->
<g id="Node000004" class="node">
<title>Node4</title>
<g id="a_Node000004"><a xlink:href="classPointLight.html" target="_top" xlink:title="An ECS entity representing a point light source.">
<polygon fill="white" stroke="none" points="228,-129.62 141.75,-129.62 141.75,-8.38 228,-8.38 228,-129.62"/>
<text text-anchor="start" x="160.5" y="-116.12" font-family="Helvetica,sans-Serif" font-size="10.00">PointLight</text>
<text text-anchor="start" x="181.88" y="-99.38" font-family="Helvetica,sans-Serif" font-size="10.00"> </text>
<text text-anchor="start" x="145.75" y="-82.62" font-family="Helvetica,sans-Serif" font-size="10.00">+</text>
<text text-anchor="start" x="158" y="-82.62" font-family="Helvetica,sans-Serif" font-size="10.00">PointLight()</text>
<text text-anchor="start" x="145.75" y="-65.88" font-family="Helvetica,sans-Serif" font-size="10.00">+</text>
<text text-anchor="start" x="158" y="-65.88" font-family="Helvetica,sans-Serif" font-size="10.00">getColor()</text>
<text text-anchor="start" x="145.75" y="-49.12" font-family="Helvetica,sans-Serif" font-size="10.00">+</text>
<text text-anchor="start" x="158" y="-49.12" font-family="Helvetica,sans-Serif" font-size="10.00">setColor()</text>
<text text-anchor="start" x="145.75" y="-32.38" font-family="Helvetica,sans-Serif" font-size="10.00">+</text>
<text text-anchor="start" x="158" y="-32.38" font-family="Helvetica,sans-Serif" font-size="10.00">getIntensity()</text>
<text text-anchor="start" x="145.75" y="-15.62" font-family="Helvetica,sans-Serif" font-size="10.00">+</text>
<text text-anchor="start" x="158" y="-15.62" font-family="Helvetica,sans-Serif" font-size="10.00">setIntensity()</text>
<polygon fill="#666666" stroke="#666666" points="141.75,-110.88 141.75,-110.88 228,-110.88 228,-110.88 141.75,-110.88"/>
<polygon fill="#666666" stroke="#666666" points="141.75,-94.12 141.75,-94.12 228,-94.12 228,-94.12 141.75,-94.12"/>
<polygon fill="none" stroke="#666666" points="141.75,-8.38 141.75,-129.62 228,-129.62 228,-8.38 141.75,-8.38"/>
</a>
</g>
</g>
<!-- Node1&#45;&gt;Node4 -->
<g id="edge3_Node000001_Node000004" class="edge">
<title>Node1&#45;&gt;Node4</title>
<g id="a_edge3_Node000001_Node000004"><a xlink:title=" ">
<path fill="none" stroke="#63b8ff" d="M155.5,-163.38C159.15,-151.78 162.77,-140.27 166.16,-129.51"/>
<polygon fill="none" stroke="#63b8ff" points="152.27,-162.01 152.6,-172.6 158.94,-164.11 152.27,-162.01"/>
</a>
</g>
</g>
<!-- Node2 -->
<g id="Node000002" class="node">
<title>Node2</title>
<g id="a_Node000002"><a xlink:href="classEntity.html" target="_top" xlink:title="A high&#45;level ECS entity wrapper.">
<polygon fill="white" stroke="none" points="185.5,-536.25 60.25,-536.25 60.25,-398.25 185.5,-398.25 185.5,-536.25"/>
<text text-anchor="start" x="108.62" y="-522.75" font-family="Helvetica,sans-Serif" font-size="10.00">Entity</text>
<text text-anchor="start" x="64.25" y="-506" font-family="Helvetica,sans-Serif" font-size="10.00">#</text>
<text text-anchor="start" x="76.5" y="-506" font-family="Helvetica,sans-Serif" font-size="10.00">id_</text>
<text text-anchor="start" x="64.25" y="-489.25" font-family="Helvetica,sans-Serif" font-size="10.00">#</text>
<text text-anchor="start" x="76.5" y="-489.25" font-family="Helvetica,sans-Serif" font-size="10.00">registry_</text>
<text text-anchor="start" x="64.25" y="-472.5" font-family="Helvetica,sans-Serif" font-size="10.00">+</text>
<text text-anchor="start" x="76.5" y="-472.5" font-family="Helvetica,sans-Serif" font-size="10.00">Entity()</text>
<text text-anchor="start" x="64.25" y="-455.75" font-family="Helvetica,sans-Serif" font-size="10.00">+</text>
<text text-anchor="start" x="76.5" y="-455.75" font-family="Helvetica,sans-Serif" font-size="10.00">add_component()</text>
<text text-anchor="start" x="64.25" y="-439" font-family="Helvetica,sans-Serif" font-size="10.00">+</text>
<text text-anchor="start" x="76.5" y="-439" font-family="Helvetica,sans-Serif" font-size="10.00">remove_component()</text>
<text text-anchor="start" x="64.25" y="-422.25" font-family="Helvetica,sans-Serif" font-size="10.00">+</text>
<text text-anchor="start" x="76.5" y="-422.25" font-family="Helvetica,sans-Serif" font-size="10.00">get_component()</text>
<text text-anchor="start" x="64.25" y="-405.5" font-family="Helvetica,sans-Serif" font-size="10.00">+</text>
<text text-anchor="start" x="76.5" y="-405.5" font-family="Helvetica,sans-Serif" font-size="10.00">id()</text>
<polygon fill="#666666" stroke="#666666" points="60.25,-517.5 60.25,-517.5 185.5,-517.5 185.5,-517.5 60.25,-517.5"/>
<polygon fill="#666666" stroke="#666666" points="60.25,-484 60.25,-484 74.5,-484 74.5,-484 60.25,-484"/>
<polygon fill="#666666" stroke="#666666" points="74.5,-484 74.5,-484 185.5,-484 185.5,-484 74.5,-484"/>
<polygon fill="none" stroke="#666666" points="60.25,-398.25 60.25,-536.25 185.5,-536.25 185.5,-398.25 60.25,-398.25"/>
</a>
</g>
</g>
<!-- Node2&#45;&gt;Node1 -->
<g id="edge1_Node000001_Node000002" class="edge">
<title>Node2&#45;&gt;Node1</title>
<g id="a_edge1_Node000001_Node000002"><a xlink:title=" ">
<path fill="none" stroke="#63b8ff" d="M122.88,-387C122.88,-378.83 122.88,-370.47 122.88,-362.16"/>
<polygon fill="none" stroke="#63b8ff" points="119.38,-386.9 122.88,-396.9 126.38,-386.9 119.38,-386.9"/>
</a>
</g>
</g>
</g>
</svg>
