<?xml version="1.0" encoding="UTF-8" standalone="no"?>
<!DOCTYPE svg PUBLIC "-//W3C//DTD SVG 1.1//EN"
 "http://www.w3.org/Graphics/SVG/1.1/DTD/svg11.dtd">
<!-- Generated by graphviz version 12.2.1 (0)
 -->
<!-- Title: Mesh Pages: 1 -->
<svg width="141pt" height="196pt"
 viewBox="0.00 0.00 140.75 196.25" xmlns="http://www.w3.org/2000/svg" xmlns:xlink="http://www.w3.org/1999/xlink">
<g id="graph0" class="graph" transform="scale(1 1) rotate(0) translate(4 192.25)">
<title>Mesh</title>
<!-- Node1 -->
<g id="Node000001" class="node">
<title>Node1</title>
<g id="a_Node000001"><a xlink:title=" ">
<polygon fill="#999999" stroke="none" points="132.75,-188.25 0,-188.25 0,0 132.75,0 132.75,-188.25"/>
<text text-anchor="start" x="53.25" y="-174.75" font-family="Helvetica,sans-Serif" font-size="10.00">Mesh</text>
<text text-anchor="start" x="63.38" y="-158" font-family="Helvetica,sans-Serif" font-size="10.00"> </text>
<text text-anchor="start" x="4" y="-141.25" font-family="Helvetica,sans-Serif" font-size="10.00">+</text>
<text text-anchor="start" x="16.25" y="-141.25" font-family="Helvetica,sans-Serif" font-size="10.00">Mesh()</text>
<text text-anchor="start" x="4" y="-124.5" font-family="Helvetica,sans-Serif" font-size="10.00">+</text>
<text text-anchor="start" x="16.25" y="-124.5" font-family="Helvetica,sans-Serif" font-size="10.00">~Mesh()</text>
<text text-anchor="start" x="4" y="-107.75" font-family="Helvetica,sans-Serif" font-size="10.00">+</text>
<text text-anchor="start" x="16.25" y="-107.75" font-family="Helvetica,sans-Serif" font-size="10.00">draw()</text>
<text text-anchor="start" x="4" y="-91" font-family="Helvetica,sans-Serif" font-size="10.00">+</text>
<text text-anchor="start" x="16.25" y="-91" font-family="Helvetica,sans-Serif" font-size="10.00">getVertexData()</text>
<text text-anchor="start" x="4" y="-74.25" font-family="Helvetica,sans-Serif" font-size="10.00">+</text>
<text text-anchor="start" x="16.25" y="-74.25" font-family="Helvetica,sans-Serif" font-size="10.00">getVAO()</text>
<text text-anchor="start" x="4" y="-57.5" font-family="Helvetica,sans-Serif" font-size="10.00">+</text>
<text text-anchor="start" x="16.25" y="-57.5" font-family="Helvetica,sans-Serif" font-size="10.00">getVBO()</text>
<text text-anchor="start" x="4" y="-40.75" font-family="Helvetica,sans-Serif" font-size="10.00">+</text>
<text text-anchor="start" x="16.25" y="-40.75" font-family="Helvetica,sans-Serif" font-size="10.00">updateVertexPosition()</text>
<text text-anchor="start" x="4" y="-24" font-family="Helvetica,sans-Serif" font-size="10.00">+</text>
<text text-anchor="start" x="16.25" y="-24" font-family="Helvetica,sans-Serif" font-size="10.00">updateBuffer()</text>
<text text-anchor="start" x="4" y="-7.25" font-family="Helvetica,sans-Serif" font-size="10.00">+</text>
<text text-anchor="start" x="16.25" y="-7.25" font-family="Helvetica,sans-Serif" font-size="10.00">loadFromOBJ()</text>
<polygon fill="#666666" stroke="#666666" points="0,-169.5 0,-169.5 132.75,-169.5 132.75,-169.5 0,-169.5"/>
<polygon fill="#666666" stroke="#666666" points="0,-152.75 0,-152.75 132.75,-152.75 132.75,-152.75 0,-152.75"/>
<polygon fill="none" stroke="#666666" points="0,0 0,-188.25 132.75,-188.25 132.75,0 0,0"/>
</a>
</g>
</g>
</g>
</svg>
