<?xml version="1.0" encoding="UTF-8" standalone="no"?>
<!DOCTYPE svg PUBLIC "-//W3C//DTD SVG 1.1//EN"
 "http://www.w3.org/Graphics/SVG/1.1/DTD/svg11.dtd">
<!-- Generated by graphviz version 12.2.1 (0)
 -->
<!-- Title: include/math/Matrix4.hpp Pages: 1 -->
<svg width="582pt" height="325pt"
 viewBox="0.00 0.00 582.38 325.25" xmlns="http://www.w3.org/2000/svg" xmlns:xlink="http://www.w3.org/1999/xlink">
<g id="graph0" class="graph" transform="scale(1 1) rotate(0) translate(4 321.25)">
<title>include/math/Matrix4.hpp</title>
<!-- Node1 -->
<g id="Node000001" class="node">
<title>Node1</title>
<g id="a_Node000001"><a xlink:title="Defines the Matrix4 class for 3D transformation operations.">
<polygon fill="#999999" stroke="#666666" points="458.75,-317.25 317.5,-317.25 317.5,-296.5 458.75,-296.5 458.75,-317.25"/>
<text text-anchor="middle" x="388.12" y="-303.75" font-family="Helvetica,sans-Serif" font-size="10.00">include/math/Matrix4.hpp</text>
</a>
</g>
</g>
<!-- Node2 -->
<g id="Node000002" class="node">
<title>Node2</title>
<g id="a_Node000002"><a xlink:href="TransformComponent_8hpp.html" target="_top" xlink:title="Defines the TransformComponent for ECS&#45;based spatial transformations.">
<polygon fill="white" stroke="#666666" points="339,-260.5 193.25,-260.5 193.25,-227 339,-227 339,-260.5"/>
<text text-anchor="start" x="201.25" y="-247" font-family="Helvetica,sans-Serif" font-size="10.00">include/components</text>
<text text-anchor="middle" x="266.12" y="-234.25" font-family="Helvetica,sans-Serif" font-size="10.00">/TransformComponent.hpp</text>
</a>
</g>
</g>
<!-- Node1&#45;&gt;Node2 -->
<g id="edge1_Node000001_Node000002" class="edge">
<title>Node1&#45;&gt;Node2</title>
<g id="a_edge1_Node000001_Node000002"><a xlink:title=" ">
<path fill="none" stroke="#63b8ff" d="M358.25,-290.91C340.16,-281.84 317.07,-270.27 298.53,-260.98"/>
<polygon fill="#63b8ff" stroke="#63b8ff" points="356.66,-294.03 367.17,-295.38 359.8,-287.77 356.66,-294.03"/>
</a>
</g>
</g>
<!-- Node7 -->
<g id="Node000007" class="node">
<title>Node7</title>
<g id="a_Node000007"><a xlink:href="Camera_8hpp.html" target="_top" xlink:title="Defines the Camera class for view and projection.">
<polygon fill="white" stroke="#666666" points="381.62,-134.25 218.62,-134.25 218.62,-113.5 381.62,-113.5 381.62,-134.25"/>
<text text-anchor="middle" x="300.12" y="-120.75" font-family="Helvetica,sans-Serif" font-size="10.00">include/rendering/Camera.hpp</text>
</a>
</g>
</g>
<!-- Node1&#45;&gt;Node7 -->
<g id="edge10_Node000001_Node000007" class="edge">
<title>Node1&#45;&gt;Node7</title>
<g id="a_edge10_Node000001_Node000007"><a xlink:title=" ">
<path fill="none" stroke="#63b8ff" d="M390.27,-284.8C392.09,-256.48 391.5,-205.62 369.12,-170.25 358.78,-153.89 340.15,-142.17 324.86,-134.74"/>
<polygon fill="#63b8ff" stroke="#63b8ff" points="386.8,-284.32 389.46,-294.58 393.78,-284.9 386.8,-284.32"/>
</a>
</g>
</g>
<!-- Node9 -->
<g id="Node000009" class="node">
<title>Node9</title>
<g id="a_Node000009"><a xlink:href="Shader_8hpp.html" target="_top" xlink:title="Manages OpenGL shaders.">
<polygon fill="white" stroke="#666666" points="574.38,-254.12 415.88,-254.12 415.88,-233.38 574.38,-233.38 574.38,-254.12"/>
<text text-anchor="middle" x="495.12" y="-240.62" font-family="Helvetica,sans-Serif" font-size="10.00">include/rendering/Shader.hpp</text>
</a>
</g>
</g>
<!-- Node1&#45;&gt;Node9 -->
<g id="edge11_Node000001_Node000009" class="edge">
<title>Node1&#45;&gt;Node9</title>
<g id="a_edge11_Node000001_Node000009"><a xlink:title=" ">
<path fill="none" stroke="#63b8ff" d="M415.24,-290.38C434.96,-279.12 461.07,-264.21 477.98,-254.55"/>
<polygon fill="#63b8ff" stroke="#63b8ff" points="413.58,-287.3 406.63,-295.3 417.05,-293.38 413.58,-287.3"/>
</a>
</g>
</g>
<!-- Node3 -->
<g id="Node000003" class="node">
<title>Node3</title>
<g id="a_Node000003"><a xlink:href="Object_8hpp.html" target="_top" xlink:title="Defines the Object class, a special ECS entity wrapper.">
<polygon fill="white" stroke="#666666" points="153.62,-191 8.62,-191 8.62,-170.25 153.62,-170.25 153.62,-191"/>
<text text-anchor="middle" x="81.12" y="-177.5" font-family="Helvetica,sans-Serif" font-size="10.00">include/objects/Object.hpp</text>
</a>
</g>
</g>
<!-- Node2&#45;&gt;Node3 -->
<g id="edge2_Node000002_Node000003" class="edge">
<title>Node2&#45;&gt;Node3</title>
<g id="a_edge2_Node000002_Node000003"><a xlink:title=" ">
<path fill="none" stroke="#63b8ff" d="M206.44,-223.03C174.46,-212.46 136.46,-199.91 110.76,-191.42"/>
<polygon fill="#63b8ff" stroke="#63b8ff" points="205,-226.24 215.6,-226.06 207.2,-219.59 205,-226.24"/>
</a>
</g>
</g>
<!-- Node8 -->
<g id="Node000008" class="node">
<title>Node8</title>
<g id="a_Node000008"><a xlink:href="PhysicsSystem_8hpp.html" target="_top" xlink:title="Defines the PhysicsSystem.">
<polygon fill="white" stroke="#666666" points="360.38,-191 171.88,-191 171.88,-170.25 360.38,-170.25 360.38,-191"/>
<text text-anchor="middle" x="266.12" y="-177.5" font-family="Helvetica,sans-Serif" font-size="10.00">include/physics/PhysicsSystem.hpp</text>
</a>
</g>
</g>
<!-- Node2&#45;&gt;Node8 -->
<g id="edge9_Node000002_Node000008" class="edge">
<title>Node2&#45;&gt;Node8</title>
<g id="a_edge9_Node000002_Node000008"><a xlink:title=" ">
<path fill="none" stroke="#63b8ff" d="M266.12,-215.19C266.12,-206.71 266.12,-197.92 266.12,-191.47"/>
<polygon fill="#63b8ff" stroke="#63b8ff" points="262.63,-215.18 266.13,-225.18 269.63,-215.18 262.63,-215.18"/>
</a>
</g>
</g>
<!-- Node4 -->
<g id="Node000004" class="node">
<title>Node4</title>
<g id="a_Node000004"><a xlink:href="PointLight_8hpp_source.html" target="_top" xlink:title=" ">
<polygon fill="white" stroke="#666666" points="162.25,-134.25 0,-134.25 0,-113.5 162.25,-113.5 162.25,-134.25"/>
<text text-anchor="middle" x="81.12" y="-120.75" font-family="Helvetica,sans-Serif" font-size="10.00">include/objects/PointLight.hpp</text>
</a>
</g>
</g>
<!-- Node3&#45;&gt;Node4 -->
<g id="edge3_Node000003_Node000004" class="edge">
<title>Node3&#45;&gt;Node4</title>
<g id="a_edge3_Node000003_Node000004"><a xlink:title=" ">
<path fill="none" stroke="#63b8ff" d="M81.12,-158.38C81.12,-150.16 81.12,-141.18 81.12,-134.58"/>
<polygon fill="#63b8ff" stroke="#63b8ff" points="77.63,-158.32 81.13,-168.32 84.63,-158.32 77.63,-158.32"/>
</a>
</g>
</g>
<!-- Node5 -->
<g id="Node000005" class="node">
<title>Node5</title>
<g id="a_Node000005"><a xlink:href="Renderer_8hpp.html" target="_top" xlink:title="Manages the rendering pipeline and object submission.">
<polygon fill="white" stroke="#666666" points="329.62,-77.5 160.62,-77.5 160.62,-56.75 329.62,-56.75 329.62,-77.5"/>
<text text-anchor="middle" x="245.12" y="-64" font-family="Helvetica,sans-Serif" font-size="10.00">include/rendering/Renderer.hpp</text>
</a>
</g>
</g>
<!-- Node3&#45;&gt;Node5 -->
<g id="edge8_Node000003_Node000005" class="edge">
<title>Node3&#45;&gt;Node5</title>
<g id="a_edge8_Node000003_Node000005"><a xlink:title=" ">
<path fill="none" stroke="#63b8ff" d="M114.9,-165.17C132.31,-157.09 153.52,-146.24 171.12,-134.25 196.47,-116.98 222.34,-91.76 235.76,-77.99"/>
<polygon fill="#63b8ff" stroke="#63b8ff" points="113.66,-161.89 106,-169.2 116.55,-168.27 113.66,-161.89"/>
</a>
</g>
</g>
<!-- Node3&#45;&gt;Node7 -->
<g id="edge6_Node000003_Node000007" class="edge">
<title>Node3&#45;&gt;Node7</title>
<g id="a_edge6_Node000003_Node000007"><a xlink:title=" ">
<path fill="none" stroke="#63b8ff" d="M131.7,-166.98C170.94,-157.17 224.56,-143.77 260.67,-134.74"/>
<polygon fill="#63b8ff" stroke="#63b8ff" points="130.85,-163.59 122,-169.41 132.55,-170.38 130.85,-163.59"/>
</a>
</g>
</g>
<!-- Node4&#45;&gt;Node5 -->
<g id="edge4_Node000004_Node000005" class="edge">
<title>Node4&#45;&gt;Node5</title>
<g id="a_edge4_Node000004_Node000005"><a xlink:title=" ">
<path fill="none" stroke="#63b8ff" d="M121.13,-109.52C150.38,-99.76 189.39,-86.73 215.78,-77.92"/>
<polygon fill="#63b8ff" stroke="#63b8ff" points="120.26,-106.12 111.88,-112.61 122.47,-112.76 120.26,-106.12"/>
</a>
</g>
</g>
<!-- Node6 -->
<g id="Node000006" class="node">
<title>Node6</title>
<g id="a_Node000006"><a xlink:href="Engine_8hpp.html" target="_top" xlink:title="Defines the core Engine class responsible for running simulation.">
<polygon fill="white" stroke="#666666" points="299.25,-20.75 191,-20.75 191,0 299.25,0 299.25,-20.75"/>
<text text-anchor="middle" x="245.12" y="-7.25" font-family="Helvetica,sans-Serif" font-size="10.00">include/Engine.hpp</text>
</a>
</g>
</g>
<!-- Node5&#45;&gt;Node6 -->
<g id="edge5_Node000005_Node000006" class="edge">
<title>Node5&#45;&gt;Node6</title>
<g id="a_edge5_Node000005_Node000006"><a xlink:title=" ">
<path fill="none" stroke="#63b8ff" d="M245.12,-44.88C245.12,-36.66 245.12,-27.68 245.12,-21.08"/>
<polygon fill="#63b8ff" stroke="#63b8ff" points="241.63,-44.82 245.13,-54.82 248.63,-44.82 241.63,-44.82"/>
</a>
</g>
</g>
<!-- Node7&#45;&gt;Node5 -->
<g id="edge7_Node000007_Node000005" class="edge">
<title>Node7&#45;&gt;Node5</title>
<g id="a_edge7_Node000007_Node000005"><a xlink:title=" ">
<path fill="none" stroke="#63b8ff" d="M282.22,-105.05C273.13,-96 262.44,-85.36 254.87,-77.83"/>
<polygon fill="#63b8ff" stroke="#63b8ff" points="279.66,-107.44 289.22,-112.02 284.6,-102.48 279.66,-107.44"/>
</a>
</g>
</g>
<!-- Node9&#45;&gt;Node5 -->
<g id="edge12_Node000009_Node000005" class="edge">
<title>Node9&#45;&gt;Node5</title>
<g id="a_edge12_Node000009_Node000005"><a xlink:title=" ">
<path fill="none" stroke="#63b8ff" d="M484.43,-223.09C468.03,-194.76 434.01,-142.67 391.12,-113.5 365.01,-95.74 331.62,-84.68 303.37,-77.94"/>
<polygon fill="#63b8ff" stroke="#63b8ff" points="481.31,-224.69 489.27,-231.69 487.41,-221.26 481.31,-224.69"/>
</a>
</g>
</g>
</g>
</svg>
