<?xml version="1.0" encoding="UTF-8" standalone="no"?>
<!DOCTYPE svg PUBLIC "-//W3C//DTD SVG 1.1//EN"
 "http://www.w3.org/Graphics/SVG/1.1/DTD/svg11.dtd">
<!-- Generated by graphviz version 12.2.1 (0)
 -->
<!-- Title: include/rendering/Mesh.hpp Pages: 1 -->
<svg width="340pt" height="142pt"
 viewBox="0.00 0.00 339.75 142.25" xmlns="http://www.w3.org/2000/svg" xmlns:xlink="http://www.w3.org/1999/xlink">
<g id="graph0" class="graph" transform="scale(1 1) rotate(0) translate(4 138.25)">
<title>include/rendering/Mesh.hpp</title>
<!-- Node1 -->
<g id="Node000001" class="node">
<title>Node1</title>
<g id="a_Node000001"><a xlink:title="Defines the Mesh class for managing 3D geometry.">
<polygon fill="#999999" stroke="#666666" points="275.88,-134.25 124.88,-134.25 124.88,-113.5 275.88,-113.5 275.88,-134.25"/>
<text text-anchor="middle" x="200.38" y="-120.75" font-family="Helvetica,sans-Serif" font-size="10.00">include/rendering/Mesh.hpp</text>
</a>
</g>
</g>
<!-- Node2 -->
<g id="Node000002" class="node">
<title>Node2</title>
<g id="a_Node000002"><a xlink:href="Vector3_8hpp.html" target="_top" xlink:title="Defines the Vector3 class.">
<polygon fill="white" stroke="#666666" points="140.88,-77.5 37.88,-77.5 37.88,-56.75 140.88,-56.75 140.88,-77.5"/>
<text text-anchor="middle" x="89.38" y="-64" font-family="Helvetica,sans-Serif" font-size="10.00">math/Vector3.hpp</text>
</a>
</g>
</g>
<!-- Node1&#45;&gt;Node2 -->
<g id="edge1_Node000001_Node000002" class="edge">
<title>Node1&#45;&gt;Node2</title>
<g id="a_edge1_Node000001_Node000002"><a xlink:title=" ">
<path fill="none" stroke="#63b8ff" d="M180.53,-113.09C163.48,-104.68 138.65,-92.43 119.21,-82.84"/>
<polygon fill="#63b8ff" stroke="#63b8ff" points="120.92,-79.78 110.41,-78.5 117.83,-86.06 120.92,-79.78"/>
</a>
</g>
</g>
<!-- Node5 -->
<g id="Node000005" class="node">
<title>Node5</title>
<g id="a_Node000005"><a xlink:title=" ">
<polygon fill="#e0e0e0" stroke="#999999" points="188.25,-20.75 144.5,-20.75 144.5,0 188.25,0 188.25,-20.75"/>
<text text-anchor="middle" x="166.38" y="-7.25" font-family="Helvetica,sans-Serif" font-size="10.00">string</text>
</a>
</g>
</g>
<!-- Node1&#45;&gt;Node5 -->
<g id="edge6_Node000001_Node000005" class="edge">
<title>Node1&#45;&gt;Node5</title>
<g id="a_edge6_Node000001_Node000005"><a xlink:title=" ">
<path fill="none" stroke="#63b8ff" d="M197.48,-113.37C192.01,-95.44 180.06,-56.25 172.67,-32.01"/>
<polygon fill="#63b8ff" stroke="#63b8ff" points="176.07,-31.17 169.8,-22.62 169.37,-33.21 176.07,-31.17"/>
</a>
</g>
</g>
<!-- Node6 -->
<g id="Node000006" class="node">
<title>Node6</title>
<g id="a_Node000006"><a xlink:title=" ">
<polygon fill="#e0e0e0" stroke="#999999" points="267.38,-77.5 197.38,-77.5 197.38,-56.75 267.38,-56.75 267.38,-77.5"/>
<text text-anchor="middle" x="232.38" y="-64" font-family="Helvetica,sans-Serif" font-size="10.00">glad/glad.h</text>
</a>
</g>
</g>
<!-- Node1&#45;&gt;Node6 -->
<g id="edge5_Node000001_Node000006" class="edge">
<title>Node1&#45;&gt;Node6</title>
<g id="a_edge5_Node000001_Node000006"><a xlink:title=" ">
<path fill="none" stroke="#63b8ff" d="M206.1,-113.09C210.24,-106 215.97,-96.19 221.03,-87.54"/>
<polygon fill="#63b8ff" stroke="#63b8ff" points="223.92,-89.53 225.94,-79.14 217.87,-86 223.92,-89.53"/>
</a>
</g>
</g>
<!-- Node7 -->
<g id="Node000007" class="node">
<title>Node7</title>
<g id="a_Node000007"><a xlink:title=" ">
<polygon fill="#e0e0e0" stroke="#999999" points="331.75,-77.5 285,-77.5 285,-56.75 331.75,-56.75 331.75,-77.5"/>
<text text-anchor="middle" x="308.38" y="-64" font-family="Helvetica,sans-Serif" font-size="10.00">vector</text>
</a>
</g>
</g>
<!-- Node1&#45;&gt;Node7 -->
<g id="edge7_Node000001_Node000007" class="edge">
<title>Node1&#45;&gt;Node7</title>
<g id="a_edge7_Node000001_Node000007"><a xlink:title=" ">
<path fill="none" stroke="#63b8ff" d="M219.68,-113.09C236.19,-104.72 260.21,-92.54 279.08,-82.97"/>
<polygon fill="#63b8ff" stroke="#63b8ff" points="280.55,-86.16 287.88,-78.51 277.38,-79.91 280.55,-86.16"/>
</a>
</g>
</g>
<!-- Node3 -->
<g id="Node000003" class="node">
<title>Node3</title>
<g id="a_Node000003"><a xlink:title=" ">
<polygon fill="#e0e0e0" stroke="#999999" points="46.75,-20.75 0,-20.75 0,0 46.75,0 46.75,-20.75"/>
<text text-anchor="middle" x="23.38" y="-7.25" font-family="Helvetica,sans-Serif" font-size="10.00">cmath</text>
</a>
</g>
</g>
<!-- Node2&#45;&gt;Node3 -->
<g id="edge2_Node000002_Node000003" class="edge">
<title>Node2&#45;&gt;Node3</title>
<g id="a_edge2_Node000002_Node000003"><a xlink:title=" ">
<path fill="none" stroke="#63b8ff" d="M77.58,-56.34C68.19,-48.55 54.84,-37.47 43.73,-28.26"/>
<polygon fill="#63b8ff" stroke="#63b8ff" points="46.17,-25.74 36.24,-22.04 41.7,-31.12 46.17,-25.74"/>
</a>
</g>
</g>
<!-- Node4 -->
<g id="Node000004" class="node">
<title>Node4</title>
<g id="a_Node000004"><a xlink:title=" ">
<polygon fill="#e0e0e0" stroke="#999999" points="120.25,-20.75 64.5,-20.75 64.5,0 120.25,0 120.25,-20.75"/>
<text text-anchor="middle" x="92.38" y="-7.25" font-family="Helvetica,sans-Serif" font-size="10.00">sstream</text>
</a>
</g>
</g>
<!-- Node2&#45;&gt;Node4 -->
<g id="edge3_Node000002_Node000004" class="edge">
<title>Node2&#45;&gt;Node4</title>
<g id="a_edge3_Node000002_Node000004"><a xlink:title=" ">
<path fill="none" stroke="#63b8ff" d="M89.91,-56.34C90.27,-49.72 90.77,-40.72 91.22,-32.52"/>
<polygon fill="#63b8ff" stroke="#63b8ff" points="94.71,-32.77 91.76,-22.59 87.72,-32.38 94.71,-32.77"/>
</a>
</g>
</g>
<!-- Node2&#45;&gt;Node5 -->
<g id="edge4_Node000002_Node000005" class="edge">
<title>Node2&#45;&gt;Node5</title>
<g id="a_edge4_Node000002_Node000005"><a xlink:title=" ">
<path fill="none" stroke="#63b8ff" d="M103.14,-56.34C114.31,-48.4 130.29,-37.03 143.4,-27.71"/>
<polygon fill="#63b8ff" stroke="#63b8ff" points="145.37,-30.6 151.49,-21.96 141.32,-24.9 145.37,-30.6"/>
</a>
</g>
</g>
</g>
</svg>
