<?xml version="1.0" encoding="UTF-8" standalone="no"?>
<!DOCTYPE svg PUBLIC "-//W3C//DTD SVG 1.1//EN"
 "http://www.w3.org/Graphics/SVG/1.1/DTD/svg11.dtd">
<!-- Generated by graphviz version 12.2.1 (0)
 -->
<!-- Title: include/objects/Object.hpp Pages: 1 -->
<svg width="390pt" height="199pt"
 viewBox="0.00 0.00 389.62 199.00" xmlns="http://www.w3.org/2000/svg" xmlns:xlink="http://www.w3.org/1999/xlink">
<g id="graph0" class="graph" transform="scale(1 1) rotate(0) translate(4 195)">
<title>include/objects/Object.hpp</title>
<!-- Node1 -->
<g id="Node000001" class="node">
<title>Node1</title>
<g id="a_Node000001"><a xlink:title="Defines the Object class, a special ECS entity wrapper.">
<polygon fill="#999999" stroke="#666666" points="262.62,-191 117.62,-191 117.62,-170.25 262.62,-170.25 262.62,-191"/>
<text text-anchor="middle" x="190.12" y="-177.5" font-family="Helvetica,sans-Serif" font-size="10.00">include/objects/Object.hpp</text>
</a>
</g>
</g>
<!-- Node2 -->
<g id="Node000002" class="node">
<title>Node2</title>
<g id="a_Node000002"><a xlink:href="PointLight_8hpp_source.html" target="_top" xlink:title=" ">
<polygon fill="white" stroke="#666666" points="162.25,-134.25 0,-134.25 0,-113.5 162.25,-113.5 162.25,-134.25"/>
<text text-anchor="middle" x="81.12" y="-120.75" font-family="Helvetica,sans-Serif" font-size="10.00">include/objects/PointLight.hpp</text>
</a>
</g>
</g>
<!-- Node1&#45;&gt;Node2 -->
<g id="edge1_Node000001_Node000002" class="edge">
<title>Node1&#45;&gt;Node2</title>
<g id="a_edge1_Node000001_Node000002"><a xlink:title=" ">
<path fill="none" stroke="#63b8ff" d="M160.37,-164.68C141.28,-155.09 117.05,-142.92 100.44,-134.58"/>
<polygon fill="#63b8ff" stroke="#63b8ff" points="158.78,-167.8 169.29,-169.16 161.92,-161.54 158.78,-167.8"/>
</a>
</g>
</g>
<!-- Node3 -->
<g id="Node000003" class="node">
<title>Node3</title>
<g id="a_Node000003"><a xlink:href="Renderer_8hpp.html" target="_top" xlink:title="Manages the rendering pipeline and object submission.">
<polygon fill="white" stroke="#666666" points="274.62,-77.5 105.62,-77.5 105.62,-56.75 274.62,-56.75 274.62,-77.5"/>
<text text-anchor="middle" x="190.12" y="-64" font-family="Helvetica,sans-Serif" font-size="10.00">include/rendering/Renderer.hpp</text>
</a>
</g>
</g>
<!-- Node1&#45;&gt;Node3 -->
<g id="edge6_Node000001_Node000003" class="edge">
<title>Node1&#45;&gt;Node3</title>
<g id="a_edge6_Node000001_Node000003"><a xlink:title=" ">
<path fill="none" stroke="#63b8ff" d="M190.12,-158.72C190.12,-134.59 190.12,-95.92 190.12,-77.93"/>
<polygon fill="#63b8ff" stroke="#63b8ff" points="186.63,-158.6 190.13,-168.61 193.63,-158.61 186.63,-158.6"/>
</a>
</g>
</g>
<!-- Node5 -->
<g id="Node000005" class="node">
<title>Node5</title>
<g id="a_Node000005"><a xlink:href="Camera_8hpp.html" target="_top" xlink:title="Defines the Camera class for view and projection.">
<polygon fill="white" stroke="#666666" points="381.62,-134.25 218.62,-134.25 218.62,-113.5 381.62,-113.5 381.62,-134.25"/>
<text text-anchor="middle" x="300.12" y="-120.75" font-family="Helvetica,sans-Serif" font-size="10.00">include/rendering/Camera.hpp</text>
</a>
</g>
</g>
<!-- Node1&#45;&gt;Node5 -->
<g id="edge4_Node000001_Node000005" class="edge">
<title>Node1&#45;&gt;Node5</title>
<g id="a_edge4_Node000001_Node000005"><a xlink:title=" ">
<path fill="none" stroke="#63b8ff" d="M219.89,-164.81C239.19,-155.2 263.79,-142.96 280.63,-134.58"/>
<polygon fill="#63b8ff" stroke="#63b8ff" points="218.54,-161.57 211.15,-169.16 221.66,-167.84 218.54,-161.57"/>
</a>
</g>
</g>
<!-- Node2&#45;&gt;Node3 -->
<g id="edge2_Node000002_Node000003" class="edge">
<title>Node2&#45;&gt;Node3</title>
<g id="a_edge2_Node000002_Node000003"><a xlink:title=" ">
<path fill="none" stroke="#63b8ff" d="M110.88,-107.93C129.97,-98.34 154.2,-86.17 170.81,-77.83"/>
<polygon fill="#63b8ff" stroke="#63b8ff" points="109.33,-104.79 101.96,-112.41 112.47,-111.05 109.33,-104.79"/>
</a>
</g>
</g>
<!-- Node4 -->
<g id="Node000004" class="node">
<title>Node4</title>
<g id="a_Node000004"><a xlink:href="Engine_8hpp.html" target="_top" xlink:title="Defines the core Engine class responsible for running simulation.">
<polygon fill="white" stroke="#666666" points="244.25,-20.75 136,-20.75 136,0 244.25,0 244.25,-20.75"/>
<text text-anchor="middle" x="190.12" y="-7.25" font-family="Helvetica,sans-Serif" font-size="10.00">include/Engine.hpp</text>
</a>
</g>
</g>
<!-- Node3&#45;&gt;Node4 -->
<g id="edge3_Node000003_Node000004" class="edge">
<title>Node3&#45;&gt;Node4</title>
<g id="a_edge3_Node000003_Node000004"><a xlink:title=" ">
<path fill="none" stroke="#63b8ff" d="M190.12,-44.88C190.12,-36.66 190.12,-27.68 190.12,-21.08"/>
<polygon fill="#63b8ff" stroke="#63b8ff" points="186.63,-44.82 190.13,-54.82 193.63,-44.82 186.63,-44.82"/>
</a>
</g>
</g>
<!-- Node5&#45;&gt;Node3 -->
<g id="edge5_Node000005_Node000003" class="edge">
<title>Node5&#45;&gt;Node3</title>
<g id="a_edge5_Node000005_Node000003"><a xlink:title=" ">
<path fill="none" stroke="#63b8ff" d="M270.36,-108.06C251.06,-98.45 226.46,-86.21 209.62,-77.83"/>
<polygon fill="#63b8ff" stroke="#63b8ff" points="268.59,-111.09 279.1,-112.41 271.71,-104.82 268.59,-111.09"/>
</a>
</g>
</g>
</g>
</svg>
