<?xml version="1.0" encoding="UTF-8" standalone="no"?>
<!DOCTYPE svg PUBLIC "-//W3C//DTD SVG 1.1//EN"
 "http://www.w3.org/Graphics/SVG/1.1/DTD/svg11.dtd">
<!-- Generated by graphviz version 12.2.1 (0)
 -->
<!-- Title: include/objects/Object.hpp Pages: 1 -->
<svg width="1301pt" height="313pt"
 viewBox="0.00 0.00 1301.12 312.50" xmlns="http://www.w3.org/2000/svg" xmlns:xlink="http://www.w3.org/1999/xlink">
<g id="graph0" class="graph" transform="scale(1 1) rotate(0) translate(4 308.5)">
<title>include/objects/Object.hpp</title>
<!-- Node1 -->
<g id="Node000001" class="node">
<title>Node1</title>
<g id="a_Node000001"><a xlink:title="Defines the Object class, a special ECS entity wrapper.">
<polygon fill="#999999" stroke="#666666" points="1154.25,-304.5 1009.25,-304.5 1009.25,-283.75 1154.25,-283.75 1154.25,-304.5"/>
<text text-anchor="middle" x="1081.75" y="-291" font-family="Helvetica,sans-Serif" font-size="10.00">include/objects/Object.hpp</text>
</a>
</g>
</g>
<!-- Node2 -->
<g id="Node000002" class="node">
<title>Node2</title>
<g id="a_Node000002"><a xlink:href="Entity_8hpp.html" target="_top" xlink:title="Defines the Entity class, which serves as a wrapper for ECS entities.">
<polygon fill="white" stroke="#666666" points="514.75,-191 450.75,-191 450.75,-170.25 514.75,-170.25 514.75,-191"/>
<text text-anchor="middle" x="482.75" y="-177.5" font-family="Helvetica,sans-Serif" font-size="10.00">Entity.hpp</text>
</a>
</g>
</g>
<!-- Node1&#45;&gt;Node2 -->
<g id="edge1_Node000001_Node000002" class="edge">
<title>Node1&#45;&gt;Node2</title>
<g id="a_edge1_Node000001_Node000002"><a xlink:title=" ">
<path fill="none" stroke="#63b8ff" d="M1028.86,-283.28C912.03,-261.53 633.85,-209.75 526.27,-189.73"/>
<polygon fill="#63b8ff" stroke="#63b8ff" points="527.17,-186.33 516.69,-187.94 525.88,-193.21 527.17,-186.33"/>
</a>
</g>
</g>
<!-- Node19 -->
<g id="Node000019" class="node">
<title>Node19</title>
<g id="a_Node000019"><a xlink:href="TransformComponent_8hpp.html" target="_top" xlink:title="Defines the TransformComponent for ECS&#45;based spatial transformations.">
<polygon fill="white" stroke="#666666" points="1184.62,-247.75 978.88,-247.75 978.88,-227 1184.62,-227 1184.62,-247.75"/>
<text text-anchor="middle" x="1081.75" y="-234.25" font-family="Helvetica,sans-Serif" font-size="10.00">components/TransformComponent.hpp</text>
</a>
</g>
</g>
<!-- Node1&#45;&gt;Node19 -->
<g id="edge19_Node000001_Node000019" class="edge">
<title>Node1&#45;&gt;Node19</title>
<g id="a_edge19_Node000001_Node000019"><a xlink:title=" ">
<path fill="none" stroke="#63b8ff" d="M1081.75,-283.34C1081.75,-276.72 1081.75,-267.72 1081.75,-259.52"/>
<polygon fill="#63b8ff" stroke="#63b8ff" points="1085.25,-259.59 1081.75,-249.59 1078.25,-259.59 1085.25,-259.59"/>
</a>
</g>
</g>
<!-- Node24 -->
<g id="Node000024" class="node">
<title>Node24</title>
<g id="a_Node000024"><a xlink:href="Mesh_8hpp.html" target="_top" xlink:title="Defines the Mesh class for managing 3D geometry.">
<polygon fill="white" stroke="#666666" points="1293.12,-134.25 1180.38,-134.25 1180.38,-113.5 1293.12,-113.5 1293.12,-134.25"/>
<text text-anchor="middle" x="1236.75" y="-120.75" font-family="Helvetica,sans-Serif" font-size="10.00">rendering/Mesh.hpp</text>
</a>
</g>
</g>
<!-- Node1&#45;&gt;Node24 -->
<g id="edge32_Node000001_Node000024" class="edge">
<title>Node1&#45;&gt;Node24</title>
<g id="a_edge32_Node000001_Node000024"><a xlink:title=" ">
<path fill="none" stroke="#63b8ff" d="M1129.69,-283.32C1151.76,-276.62 1176.75,-265.6 1193.75,-247.75 1220.94,-219.22 1231.04,-172.54 1234.72,-145.68"/>
<polygon fill="#63b8ff" stroke="#63b8ff" points="1238.15,-146.4 1235.84,-136.06 1231.2,-145.59 1238.15,-146.4"/>
</a>
</g>
</g>
<!-- Node3 -->
<g id="Node000003" class="node">
<title>Node3</title>
<g id="a_Node000003"><a xlink:href="Logger_8hpp.html" target="_top" xlink:title="Provides logging functionality.">
<polygon fill="white" stroke="#666666" points="364.75,-134.25 294.75,-134.25 294.75,-113.5 364.75,-113.5 364.75,-134.25"/>
<text text-anchor="middle" x="329.75" y="-120.75" font-family="Helvetica,sans-Serif" font-size="10.00">Logger.hpp</text>
</a>
</g>
</g>
<!-- Node2&#45;&gt;Node3 -->
<g id="edge2_Node000002_Node000003" class="edge">
<title>Node2&#45;&gt;Node3</title>
<g id="a_edge2_Node000002_Node000003"><a xlink:title=" ">
<path fill="none" stroke="#63b8ff" d="M455.4,-169.84C431,-161.11 395.03,-148.23 367.82,-138.5"/>
<polygon fill="#63b8ff" stroke="#63b8ff" points="369.14,-135.25 358.55,-135.18 366.79,-141.85 369.14,-135.25"/>
</a>
</g>
</g>
<!-- Node8 -->
<g id="Node000008" class="node">
<title>Node8</title>
<g id="a_Node000008"><a xlink:title=" ">
<polygon fill="#e0e0e0" stroke="#999999" points="59.5,-77.5 0,-77.5 0,-56.75 59.5,-56.75 59.5,-77.5"/>
<text text-anchor="middle" x="29.75" y="-64" font-family="Helvetica,sans-Serif" font-size="10.00">iostream</text>
</a>
</g>
</g>
<!-- Node2&#45;&gt;Node8 -->
<g id="edge18_Node000002_Node000008" class="edge">
<title>Node2&#45;&gt;Node8</title>
<g id="a_edge18_Node000002_Node000008"><a xlink:title=" ">
<path fill="none" stroke="#63b8ff" d="M450.27,-172.42C411.17,-163.68 343.54,-148.37 285.75,-134.25 209.63,-115.66 121.2,-92.46 70.72,-79.06"/>
<polygon fill="#63b8ff" stroke="#63b8ff" points="71.66,-75.69 61.1,-76.51 69.87,-82.46 71.66,-75.69"/>
</a>
</g>
</g>
<!-- Node12 -->
<g id="Node000012" class="node">
<title>Node12</title>
<g id="a_Node000012"><a xlink:href="Registry_8hpp.html" target="_top" xlink:title="Defines the Registry class for managing ECS entities and components.">
<polygon fill="white" stroke="#666666" points="732.75,-134.25 656.75,-134.25 656.75,-113.5 732.75,-113.5 732.75,-134.25"/>
<text text-anchor="middle" x="694.75" y="-120.75" font-family="Helvetica,sans-Serif" font-size="10.00">Registry.hpp</text>
</a>
</g>
</g>
<!-- Node2&#45;&gt;Node12 -->
<g id="edge11_Node000002_Node000012" class="edge">
<title>Node2&#45;&gt;Node12</title>
<g id="a_edge11_Node000002_Node000012"><a xlink:title=" ">
<path fill="none" stroke="#63b8ff" d="M514.95,-171.31C549.78,-162.31 605.73,-147.87 645.96,-137.47"/>
<polygon fill="#63b8ff" stroke="#63b8ff" points="646.59,-140.93 655.4,-135.04 644.84,-134.15 646.59,-140.93"/>
</a>
</g>
</g>
<!-- Node4 -->
<g id="Node000004" class="node">
<title>Node4</title>
<g id="a_Node000004"><a xlink:title=" ">
<polygon fill="#e0e0e0" stroke="#999999" points="126.25,-77.5 77.25,-77.5 77.25,-56.75 126.25,-56.75 126.25,-77.5"/>
<text text-anchor="middle" x="101.75" y="-64" font-family="Helvetica,sans-Serif" font-size="10.00">chrono</text>
</a>
</g>
</g>
<!-- Node3&#45;&gt;Node4 -->
<g id="edge3_Node000003_Node000004" class="edge">
<title>Node3&#45;&gt;Node4</title>
<g id="a_edge3_Node000003_Node000004"><a xlink:title=" ">
<path fill="none" stroke="#63b8ff" d="M294.6,-115.09C257.87,-106.86 198.29,-93.24 137.55,-77.88"/>
<polygon fill="#63b8ff" stroke="#63b8ff" points="138.62,-74.54 128.07,-75.47 136.9,-81.33 138.62,-74.54"/>
</a>
</g>
</g>
<!-- Node5 -->
<g id="Node000005" class="node">
<title>Node5</title>
<g id="a_Node000005"><a xlink:title=" ">
<polygon fill="#e0e0e0" stroke="#999999" points="215.12,-77.5 144.38,-77.5 144.38,-56.75 215.12,-56.75 215.12,-77.5"/>
<text text-anchor="middle" x="179.75" y="-64" font-family="Helvetica,sans-Serif" font-size="10.00">fmt/printf.h</text>
</a>
</g>
</g>
<!-- Node3&#45;&gt;Node5 -->
<g id="edge4_Node000003_Node000005" class="edge">
<title>Node3&#45;&gt;Node5</title>
<g id="a_edge4_Node000003_Node000005"><a xlink:title=" ">
<path fill="none" stroke="#63b8ff" d="M302.93,-113.09C279.01,-104.36 243.75,-91.48 217.07,-81.75"/>
<polygon fill="#63b8ff" stroke="#63b8ff" points="218.6,-78.58 208.01,-78.44 216.2,-85.16 218.6,-78.58"/>
</a>
</g>
</g>
<!-- Node6 -->
<g id="Node000006" class="node">
<title>Node6</title>
<g id="a_Node000006"><a xlink:title=" ">
<polygon fill="#e0e0e0" stroke="#999999" points="287.88,-77.5 233.62,-77.5 233.62,-56.75 287.88,-56.75 287.88,-77.5"/>
<text text-anchor="middle" x="260.75" y="-64" font-family="Helvetica,sans-Serif" font-size="10.00">fstream</text>
</a>
</g>
</g>
<!-- Node3&#45;&gt;Node6 -->
<g id="edge5_Node000003_Node000006" class="edge">
<title>Node3&#45;&gt;Node6</title>
<g id="a_edge5_Node000003_Node000006"><a xlink:title=" ">
<path fill="none" stroke="#63b8ff" d="M317.41,-113.09C307.5,-105.22 293.36,-94 281.69,-84.74"/>
<polygon fill="#63b8ff" stroke="#63b8ff" points="284.17,-82.24 274.16,-78.77 279.82,-87.73 284.17,-82.24"/>
</a>
</g>
</g>
<!-- Node7 -->
<g id="Node000007" class="node">
<title>Node7</title>
<g id="a_Node000007"><a xlink:title=" ">
<polygon fill="#e0e0e0" stroke="#999999" points="503.62,-77.5 447.88,-77.5 447.88,-56.75 503.62,-56.75 503.62,-77.5"/>
<text text-anchor="middle" x="475.75" y="-64" font-family="Helvetica,sans-Serif" font-size="10.00">iomanip</text>
</a>
</g>
</g>
<!-- Node3&#45;&gt;Node7 -->
<g id="edge6_Node000003_Node000007" class="edge">
<title>Node3&#45;&gt;Node7</title>
<g id="a_edge6_Node000003_Node000007"><a xlink:title=" ">
<path fill="none" stroke="#63b8ff" d="M355.85,-113.09C379.1,-104.37 413.37,-91.52 439.32,-81.79"/>
<polygon fill="#63b8ff" stroke="#63b8ff" points="440.32,-85.15 448.46,-78.36 437.86,-78.59 440.32,-85.15"/>
</a>
</g>
</g>
<!-- Node3&#45;&gt;Node8 -->
<g id="edge7_Node000003_Node000008" class="edge">
<title>Node3&#45;&gt;Node8</title>
<g id="a_edge7_Node000003_Node000008"><a xlink:title=" ">
<path fill="none" stroke="#63b8ff" d="M294.58,-117.49C246.43,-109.96 157.06,-95.42 71.21,-77.9"/>
<polygon fill="#63b8ff" stroke="#63b8ff" points="71.92,-74.48 61.42,-75.89 70.51,-81.33 71.92,-74.48"/>
</a>
</g>
</g>
<!-- Node9 -->
<g id="Node000009" class="node">
<title>Node9</title>
<g id="a_Node000009"><a xlink:title=" ">
<polygon fill="#e0e0e0" stroke="#999999" points="353.5,-77.5 306,-77.5 306,-56.75 353.5,-56.75 353.5,-77.5"/>
<text text-anchor="middle" x="329.75" y="-64" font-family="Helvetica,sans-Serif" font-size="10.00">mutex</text>
</a>
</g>
</g>
<!-- Node3&#45;&gt;Node9 -->
<g id="edge8_Node000003_Node000009" class="edge">
<title>Node3&#45;&gt;Node9</title>
<g id="a_edge8_Node000003_Node000009"><a xlink:title=" ">
<path fill="none" stroke="#63b8ff" d="M329.75,-113.09C329.75,-106.47 329.75,-97.47 329.75,-89.27"/>
<polygon fill="#63b8ff" stroke="#63b8ff" points="333.25,-89.34 329.75,-79.34 326.25,-89.34 333.25,-89.34"/>
</a>
</g>
</g>
<!-- Node10 -->
<g id="Node000010" class="node">
<title>Node10</title>
<g id="a_Node000010"><a xlink:title=" ">
<polygon fill="#e0e0e0" stroke="#999999" points="1034.62,-20.75 978.88,-20.75 978.88,0 1034.62,0 1034.62,-20.75"/>
<text text-anchor="middle" x="1006.75" y="-7.25" font-family="Helvetica,sans-Serif" font-size="10.00">sstream</text>
</a>
</g>
</g>
<!-- Node3&#45;&gt;Node10 -->
<g id="edge9_Node000003_Node000010" class="edge">
<title>Node3&#45;&gt;Node10</title>
<g id="a_edge9_Node000003_Node000010"><a xlink:title=" ">
<path fill="none" stroke="#63b8ff" d="M337.36,-113.07C349.79,-97.89 376.06,-69.15 405.75,-56.75 507.73,-14.15 850.64,-10.96 967.42,-11.14"/>
<polygon fill="#63b8ff" stroke="#63b8ff" points="967.11,-14.64 977.12,-11.17 967.13,-7.64 967.11,-14.64"/>
</a>
</g>
</g>
<!-- Node11 -->
<g id="Node000011" class="node">
<title>Node11</title>
<g id="a_Node000011"><a xlink:title=" ">
<polygon fill="#e0e0e0" stroke="#999999" points="1096.62,-20.75 1052.88,-20.75 1052.88,0 1096.62,0 1096.62,-20.75"/>
<text text-anchor="middle" x="1074.75" y="-7.25" font-family="Helvetica,sans-Serif" font-size="10.00">string</text>
</a>
</g>
</g>
<!-- Node3&#45;&gt;Node11 -->
<g id="edge10_Node000003_Node000011" class="edge">
<title>Node3&#45;&gt;Node11</title>
<g id="a_edge10_Node000003_Node000011"><a xlink:title=" ">
<path fill="none" stroke="#63b8ff" d="M345.38,-113.26C374.91,-95.11 436.19,-57.55 438.75,-56.75 692.38,22.36 776.28,-65.59 1041.42,-20.71"/>
<polygon fill="#63b8ff" stroke="#63b8ff" points="1041.81,-24.2 1051.06,-19.03 1040.61,-17.3 1041.81,-24.2"/>
</a>
</g>
</g>
<!-- Node13 -->
<g id="Node000013" class="node">
<title>Node13</title>
<g id="a_Node000013"><a xlink:title=" ">
<polygon fill="#e0e0e0" stroke="#999999" points="585.38,-77.5 522.12,-77.5 522.12,-56.75 585.38,-56.75 585.38,-77.5"/>
<text text-anchor="middle" x="553.75" y="-64" font-family="Helvetica,sans-Serif" font-size="10.00">algorithm</text>
</a>
</g>
</g>
<!-- Node12&#45;&gt;Node13 -->
<g id="edge12_Node000012_Node000013" class="edge">
<title>Node12&#45;&gt;Node13</title>
<g id="a_edge12_Node000012_Node000013"><a xlink:title=" ">
<path fill="none" stroke="#63b8ff" d="M669.54,-113.09C647.19,-104.41 614.29,-91.63 589.27,-81.92"/>
<polygon fill="#63b8ff" stroke="#63b8ff" points="590.74,-78.73 580.15,-78.38 588.21,-85.26 590.74,-78.73"/>
</a>
</g>
</g>
<!-- Node14 -->
<g id="Node000014" class="node">
<title>Node14</title>
<g id="a_Node000014"><a xlink:title=" ">
<polygon fill="#e0e0e0" stroke="#999999" points="647.62,-77.5 603.88,-77.5 603.88,-56.75 647.62,-56.75 647.62,-77.5"/>
<text text-anchor="middle" x="625.75" y="-64" font-family="Helvetica,sans-Serif" font-size="10.00">bitset</text>
</a>
</g>
</g>
<!-- Node12&#45;&gt;Node14 -->
<g id="edge13_Node000012_Node000014" class="edge">
<title>Node12&#45;&gt;Node14</title>
<g id="a_edge13_Node000012_Node000014"><a xlink:title=" ">
<path fill="none" stroke="#63b8ff" d="M682.41,-113.09C672.5,-105.22 658.36,-94 646.69,-84.74"/>
<polygon fill="#63b8ff" stroke="#63b8ff" points="649.17,-82.24 639.16,-78.77 644.82,-87.73 649.17,-82.24"/>
</a>
</g>
</g>
<!-- Node15 -->
<g id="Node000015" class="node">
<title>Node15</title>
<g id="a_Node000015"><a xlink:title=" ">
<polygon fill="#e0e0e0" stroke="#999999" points="723.38,-77.5 666.12,-77.5 666.12,-56.75 723.38,-56.75 723.38,-77.5"/>
<text text-anchor="middle" x="694.75" y="-64" font-family="Helvetica,sans-Serif" font-size="10.00">memory</text>
</a>
</g>
</g>
<!-- Node12&#45;&gt;Node15 -->
<g id="edge14_Node000012_Node000015" class="edge">
<title>Node12&#45;&gt;Node15</title>
<g id="a_edge14_Node000012_Node000015"><a xlink:title=" ">
<path fill="none" stroke="#63b8ff" d="M694.75,-113.09C694.75,-106.47 694.75,-97.47 694.75,-89.27"/>
<polygon fill="#63b8ff" stroke="#63b8ff" points="698.25,-89.34 694.75,-79.34 691.25,-89.34 698.25,-89.34"/>
</a>
</g>
</g>
<!-- Node16 -->
<g id="Node000016" class="node">
<title>Node16</title>
<g id="a_Node000016"><a xlink:title=" ">
<polygon fill="#e0e0e0" stroke="#999999" points="805.75,-77.5 741.75,-77.5 741.75,-56.75 805.75,-56.75 805.75,-77.5"/>
<text text-anchor="middle" x="773.75" y="-64" font-family="Helvetica,sans-Serif" font-size="10.00">stdexcept</text>
</a>
</g>
</g>
<!-- Node12&#45;&gt;Node16 -->
<g id="edge15_Node000012_Node000016" class="edge">
<title>Node12&#45;&gt;Node16</title>
<g id="a_edge15_Node000012_Node000016"><a xlink:title=" ">
<path fill="none" stroke="#63b8ff" d="M708.87,-113.09C720.44,-105.07 737.05,-93.56 750.57,-84.19"/>
<polygon fill="#63b8ff" stroke="#63b8ff" points="752.28,-87.26 758.5,-78.69 748.29,-81.51 752.28,-87.26"/>
</a>
</g>
</g>
<!-- Node17 -->
<g id="Node000017" class="node">
<title>Node17</title>
<g id="a_Node000017"><a xlink:title=" ">
<polygon fill="#e0e0e0" stroke="#999999" points="916,-77.5 823.5,-77.5 823.5,-56.75 916,-56.75 916,-77.5"/>
<text text-anchor="middle" x="869.75" y="-64" font-family="Helvetica,sans-Serif" font-size="10.00">unordered_map</text>
</a>
</g>
</g>
<!-- Node12&#45;&gt;Node17 -->
<g id="edge16_Node000012_Node000017" class="edge">
<title>Node12&#45;&gt;Node17</title>
<g id="a_edge16_Node000012_Node000017"><a xlink:title=" ">
<path fill="none" stroke="#63b8ff" d="M726.04,-113.09C754.44,-104.2 796.56,-91.02 827.86,-81.23"/>
<polygon fill="#63b8ff" stroke="#63b8ff" points="828.5,-84.7 837,-78.37 826.41,-78.02 828.5,-84.7"/>
</a>
</g>
</g>
<!-- Node18 -->
<g id="Node000018" class="node">
<title>Node18</title>
<g id="a_Node000018"><a xlink:title=" ">
<polygon fill="#e0e0e0" stroke="#999999" points="981.12,-77.5 934.38,-77.5 934.38,-56.75 981.12,-56.75 981.12,-77.5"/>
<text text-anchor="middle" x="957.75" y="-64" font-family="Helvetica,sans-Serif" font-size="10.00">vector</text>
</a>
</g>
</g>
<!-- Node12&#45;&gt;Node18 -->
<g id="edge17_Node000012_Node000018" class="edge">
<title>Node12&#45;&gt;Node18</title>
<g id="a_edge17_Node000012_Node000018"><a xlink:title=" ">
<path fill="none" stroke="#63b8ff" d="M733.21,-116.28C776.82,-108.59 850.25,-94.98 922.85,-77.79"/>
<polygon fill="#63b8ff" stroke="#63b8ff" points="923.64,-81.2 932.55,-75.47 922.01,-74.4 923.64,-81.2"/>
</a>
</g>
</g>
<!-- Node20 -->
<g id="Node000020" class="node">
<title>Node20</title>
<g id="a_Node000020"><a xlink:href="Matrix4_8hpp.html" target="_top" xlink:title="Defines the Matrix4 class for 3D transformation operations.">
<polygon fill="white" stroke="#666666" points="1053.25,-191 950.25,-191 950.25,-170.25 1053.25,-170.25 1053.25,-191"/>
<text text-anchor="middle" x="1001.75" y="-177.5" font-family="Helvetica,sans-Serif" font-size="10.00">math/Matrix4.hpp</text>
</a>
</g>
</g>
<!-- Node19&#45;&gt;Node20 -->
<g id="edge20_Node000019_Node000020" class="edge">
<title>Node19&#45;&gt;Node20</title>
<g id="a_edge20_Node000019_Node000020"><a xlink:title=" ">
<path fill="none" stroke="#63b8ff" d="M1067.45,-226.59C1055.73,-218.57 1038.91,-207.06 1025.22,-197.69"/>
<polygon fill="#63b8ff" stroke="#63b8ff" points="1027.41,-194.94 1017.18,-192.18 1023.45,-200.72 1027.41,-194.94"/>
</a>
</g>
</g>
<!-- Node21 -->
<g id="Node000021" class="node">
<title>Node21</title>
<g id="a_Node000021"><a xlink:href="Quaternion_8hpp.html" target="_top" xlink:title="Defines the Quaternion class for representing 3D rotations.">
<polygon fill="white" stroke="#666666" points="1124.25,-134.25 1033.25,-134.25 1033.25,-113.5 1124.25,-113.5 1124.25,-134.25"/>
<text text-anchor="middle" x="1078.75" y="-120.75" font-family="Helvetica,sans-Serif" font-size="10.00">Quaternion.hpp</text>
</a>
</g>
</g>
<!-- Node19&#45;&gt;Node21 -->
<g id="edge30_Node000019_Node000021" class="edge">
<title>Node19&#45;&gt;Node21</title>
<g id="a_edge30_Node000019_Node000021"><a xlink:title=" ">
<path fill="none" stroke="#63b8ff" d="M1081.49,-226.87C1081.02,-209.1 1079.98,-170.47 1079.32,-146.18"/>
<polygon fill="#63b8ff" stroke="#63b8ff" points="1082.82,-146.09 1079.05,-136.19 1075.82,-146.28 1082.82,-146.09"/>
</a>
</g>
</g>
<!-- Node22 -->
<g id="Node000022" class="node">
<title>Node22</title>
<g id="a_Node000022"><a xlink:href="Vector3_8hpp.html" target="_top" xlink:title="Defines the Vector3 class.">
<polygon fill="white" stroke="#666666" points="1112,-77.5 1037.5,-77.5 1037.5,-56.75 1112,-56.75 1112,-77.5"/>
<text text-anchor="middle" x="1074.75" y="-64" font-family="Helvetica,sans-Serif" font-size="10.00">Vector3.hpp</text>
</a>
</g>
</g>
<!-- Node19&#45;&gt;Node22 -->
<g id="edge31_Node000019_Node000022" class="edge">
<title>Node19&#45;&gt;Node22</title>
<g id="a_edge31_Node000019_Node000022"><a xlink:title=" ">
<path fill="none" stroke="#63b8ff" d="M1091.67,-226.65C1111.82,-205.65 1154.01,-154.65 1133.75,-113.5 1127.66,-101.13 1116.39,-91.18 1105.32,-83.79"/>
<polygon fill="#63b8ff" stroke="#63b8ff" points="1107.43,-80.98 1097.07,-78.75 1103.78,-86.95 1107.43,-80.98"/>
</a>
</g>
</g>
<!-- Node20&#45;&gt;Node7 -->
<g id="edge28_Node000020_Node000007" class="edge">
<title>Node20&#45;&gt;Node7</title>
<g id="a_edge28_Node000020_Node000007"><a xlink:title=" ">
<path fill="none" stroke="#63b8ff" d="M950.03,-176.88C880.43,-172.31 753.18,-160.86 647.75,-134.25 596.81,-121.39 540.44,-97.82 506.58,-82.57"/>
<polygon fill="#63b8ff" stroke="#63b8ff" points="508.33,-79.52 497.78,-78.56 505.43,-85.89 508.33,-79.52"/>
</a>
</g>
</g>
<!-- Node20&#45;&gt;Node10 -->
<g id="edge29_Node000020_Node000010" class="edge">
<title>Node20&#45;&gt;Node10</title>
<g id="a_edge29_Node000020_Node000010"><a xlink:title=" ">
<path fill="none" stroke="#63b8ff" d="M1002.03,-170.1C1002.82,-143.73 1005.03,-69.33 1006.12,-32.53"/>
<polygon fill="#63b8ff" stroke="#63b8ff" points="1009.61,-32.83 1006.41,-22.73 1002.62,-32.62 1009.61,-32.83"/>
</a>
</g>
</g>
<!-- Node20&#45;&gt;Node21 -->
<g id="edge21_Node000020_Node000021" class="edge">
<title>Node20&#45;&gt;Node21</title>
<g id="a_edge21_Node000020_Node000021"><a xlink:title=" ">
<path fill="none" stroke="#63b8ff" d="M1015.52,-169.84C1026.68,-161.9 1042.67,-150.53 1055.77,-141.21"/>
<polygon fill="#63b8ff" stroke="#63b8ff" points="1057.75,-144.1 1063.87,-135.46 1053.69,-138.4 1057.75,-144.1"/>
</a>
</g>
</g>
<!-- Node20&#45;&gt;Node22 -->
<g id="edge27_Node000020_Node000022" class="edge">
<title>Node20&#45;&gt;Node22</title>
<g id="a_edge27_Node000020_Node000022"><a xlink:title=" ">
<path fill="none" stroke="#63b8ff" d="M1003.53,-169.98C1006.36,-156.47 1012.82,-131.55 1024.75,-113.5 1031.93,-102.65 1042.28,-92.67 1051.71,-84.86"/>
<polygon fill="#63b8ff" stroke="#63b8ff" points="1053.78,-87.68 1059.48,-78.75 1049.46,-82.18 1053.78,-87.68"/>
</a>
</g>
</g>
<!-- Node21&#45;&gt;Node22 -->
<g id="edge22_Node000021_Node000022" class="edge">
<title>Node21&#45;&gt;Node22</title>
<g id="a_edge22_Node000021_Node000022"><a xlink:title=" ">
<path fill="none" stroke="#63b8ff" d="M1078.03,-113.09C1077.55,-106.47 1076.89,-97.47 1076.29,-89.27"/>
<polygon fill="#63b8ff" stroke="#63b8ff" points="1079.79,-89.06 1075.57,-79.34 1072.81,-89.57 1079.79,-89.06"/>
</a>
</g>
</g>
<!-- Node23 -->
<g id="Node000023" class="node">
<title>Node23</title>
<g id="a_Node000023"><a xlink:title=" ">
<polygon fill="#e0e0e0" stroke="#999999" points="1162.12,-20.75 1115.38,-20.75 1115.38,0 1162.12,0 1162.12,-20.75"/>
<text text-anchor="middle" x="1138.75" y="-7.25" font-family="Helvetica,sans-Serif" font-size="10.00">cmath</text>
</a>
</g>
</g>
<!-- Node21&#45;&gt;Node23 -->
<g id="edge26_Node000021_Node000023" class="edge">
<title>Node21&#45;&gt;Node23</title>
<g id="a_edge26_Node000021_Node000023"><a xlink:title=" ">
<path fill="none" stroke="#63b8ff" d="M1090.37,-113.22C1099.86,-104.74 1112.94,-91.58 1120.75,-77.5 1128.61,-63.32 1133.21,-45.5 1135.78,-31.93"/>
<polygon fill="#63b8ff" stroke="#63b8ff" points="1139.18,-32.82 1137.37,-22.39 1132.28,-31.68 1139.18,-32.82"/>
</a>
</g>
</g>
<!-- Node22&#45;&gt;Node10 -->
<g id="edge24_Node000022_Node000010" class="edge">
<title>Node22&#45;&gt;Node10</title>
<g id="a_edge24_Node000022_Node000010"><a xlink:title=" ">
<path fill="none" stroke="#63b8ff" d="M1062.59,-56.34C1052.92,-48.55 1039.17,-37.47 1027.73,-28.26"/>
<polygon fill="#63b8ff" stroke="#63b8ff" points="1029.96,-25.57 1019.98,-22.03 1025.57,-31.03 1029.96,-25.57"/>
</a>
</g>
</g>
<!-- Node22&#45;&gt;Node11 -->
<g id="edge25_Node000022_Node000011" class="edge">
<title>Node22&#45;&gt;Node11</title>
<g id="a_edge25_Node000022_Node000011"><a xlink:title=" ">
<path fill="none" stroke="#63b8ff" d="M1074.75,-56.34C1074.75,-49.72 1074.75,-40.72 1074.75,-32.52"/>
<polygon fill="#63b8ff" stroke="#63b8ff" points="1078.25,-32.59 1074.75,-22.59 1071.25,-32.59 1078.25,-32.59"/>
</a>
</g>
</g>
<!-- Node22&#45;&gt;Node23 -->
<g id="edge23_Node000022_Node000023" class="edge">
<title>Node22&#45;&gt;Node23</title>
<g id="a_edge23_Node000022_Node000023"><a xlink:title=" ">
<path fill="none" stroke="#63b8ff" d="M1086.19,-56.34C1095.2,-48.63 1107.98,-37.7 1118.68,-28.54"/>
<polygon fill="#63b8ff" stroke="#63b8ff" points="1120.93,-31.22 1126.26,-22.06 1116.38,-25.9 1120.93,-31.22"/>
</a>
</g>
</g>
<!-- Node24&#45;&gt;Node11 -->
<g id="edge35_Node000024_Node000011" class="edge">
<title>Node24&#45;&gt;Node11</title>
<g id="a_edge35_Node000024_Node000011"><a xlink:title=" ">
<path fill="none" stroke="#63b8ff" d="M1222.66,-113.18C1194.77,-93.98 1132.31,-50.99 1098.15,-27.48"/>
<polygon fill="#63b8ff" stroke="#63b8ff" points="1100.39,-24.78 1090.17,-21.99 1096.43,-30.54 1100.39,-24.78"/>
</a>
</g>
</g>
<!-- Node24&#45;&gt;Node18 -->
<g id="edge36_Node000024_Node000018" class="edge">
<title>Node24&#45;&gt;Node18</title>
<g id="a_edge36_Node000024_Node000018"><a xlink:title=" ">
<path fill="none" stroke="#63b8ff" d="M1186.55,-113.02C1130.6,-102.05 1041.6,-84.58 992.73,-74.99"/>
<polygon fill="#63b8ff" stroke="#63b8ff" points="993.47,-71.57 982.98,-73.08 992.12,-78.44 993.47,-71.57"/>
</a>
</g>
</g>
<!-- Node24&#45;&gt;Node22 -->
<g id="edge33_Node000024_Node000022" class="edge">
<title>Node24&#45;&gt;Node22</title>
<g id="a_edge33_Node000024_Node000022"><a xlink:title=" ">
<path fill="none" stroke="#63b8ff" d="M1207.79,-113.09C1181.72,-104.28 1143.19,-91.25 1114.29,-81.49"/>
<polygon fill="#63b8ff" stroke="#63b8ff" points="1115.76,-78.29 1105.17,-78.41 1113.52,-84.92 1115.76,-78.29"/>
</a>
</g>
</g>
<!-- Node25 -->
<g id="Node000025" class="node">
<title>Node25</title>
<g id="a_Node000025"><a xlink:title=" ">
<polygon fill="#e0e0e0" stroke="#999999" points="1275.75,-77.5 1205.75,-77.5 1205.75,-56.75 1275.75,-56.75 1275.75,-77.5"/>
<text text-anchor="middle" x="1240.75" y="-64" font-family="Helvetica,sans-Serif" font-size="10.00">glad/glad.h</text>
</a>
</g>
</g>
<!-- Node24&#45;&gt;Node25 -->
<g id="edge34_Node000024_Node000025" class="edge">
<title>Node24&#45;&gt;Node25</title>
<g id="a_edge34_Node000024_Node000025"><a xlink:title=" ">
<path fill="none" stroke="#63b8ff" d="M1237.47,-113.09C1237.95,-106.47 1238.61,-97.47 1239.21,-89.27"/>
<polygon fill="#63b8ff" stroke="#63b8ff" points="1242.69,-89.57 1239.93,-79.34 1235.71,-89.06 1242.69,-89.57"/>
</a>
</g>
</g>
</g>
</svg>
