<?xml version="1.0" encoding="UTF-8" standalone="no"?>
<!DOCTYPE svg PUBLIC "-//W3C//DTD SVG 1.1//EN"
 "http://www.w3.org/Graphics/SVG/1.1/DTD/svg11.dtd">
<!-- Generated by graphviz version 12.2.1 (0)
 -->
<!-- Title: include/math/Quaternion.hpp Pages: 1 -->
<svg width="212pt" height="142pt"
 viewBox="0.00 0.00 211.75 142.25" xmlns="http://www.w3.org/2000/svg" xmlns:xlink="http://www.w3.org/1999/xlink">
<g id="graph0" class="graph" transform="scale(1 1) rotate(0) translate(4 138.25)">
<title>include/math/Quaternion.hpp</title>
<!-- Node1 -->
<g id="Node000001" class="node">
<title>Node1</title>
<g id="a_Node000001"><a xlink:title="Defines the Quaternion class for representing 3D rotations.">
<polygon fill="#999999" stroke="#666666" points="157.75,-134.25 0,-134.25 0,-113.5 157.75,-113.5 157.75,-134.25"/>
<text text-anchor="middle" x="78.88" y="-120.75" font-family="Helvetica,sans-Serif" font-size="10.00">include/math/Quaternion.hpp</text>
</a>
</g>
</g>
<!-- Node2 -->
<g id="Node000002" class="node">
<title>Node2</title>
<g id="a_Node000002"><a xlink:href="Vector3_8hpp.html" target="_top" xlink:title="Defines the Vector3 class.">
<polygon fill="white" stroke="#666666" points="150.12,-77.5 75.62,-77.5 75.62,-56.75 150.12,-56.75 150.12,-77.5"/>
<text text-anchor="middle" x="112.88" y="-64" font-family="Helvetica,sans-Serif" font-size="10.00">Vector3.hpp</text>
</a>
</g>
</g>
<!-- Node1&#45;&gt;Node2 -->
<g id="edge1_Node000001_Node000002" class="edge">
<title>Node1&#45;&gt;Node2</title>
<g id="a_edge1_Node000001_Node000002"><a xlink:title=" ">
<path fill="none" stroke="#63b8ff" d="M84.95,-113.09C89.35,-106 95.45,-96.19 100.82,-87.54"/>
<polygon fill="#63b8ff" stroke="#63b8ff" points="103.75,-89.46 106.05,-79.11 97.8,-85.76 103.75,-89.46"/>
</a>
</g>
</g>
<!-- Node3 -->
<g id="Node000003" class="node">
<title>Node3</title>
<g id="a_Node000003"><a xlink:title=" ">
<polygon fill="#e0e0e0" stroke="#999999" points="68.25,-20.75 21.5,-20.75 21.5,0 68.25,0 68.25,-20.75"/>
<text text-anchor="middle" x="44.88" y="-7.25" font-family="Helvetica,sans-Serif" font-size="10.00">cmath</text>
</a>
</g>
</g>
<!-- Node1&#45;&gt;Node3 -->
<g id="edge5_Node000001_Node000003" class="edge">
<title>Node1&#45;&gt;Node3</title>
<g id="a_edge5_Node000001_Node000003"><a xlink:title=" ">
<path fill="none" stroke="#63b8ff" d="M75.98,-113.37C70.51,-95.44 58.56,-56.25 51.17,-32.01"/>
<polygon fill="#63b8ff" stroke="#63b8ff" points="54.57,-31.17 48.3,-22.62 47.87,-33.21 54.57,-31.17"/>
</a>
</g>
</g>
<!-- Node2&#45;&gt;Node3 -->
<g id="edge2_Node000002_Node000003" class="edge">
<title>Node2&#45;&gt;Node3</title>
<g id="a_edge2_Node000002_Node000003"><a xlink:title=" ">
<path fill="none" stroke="#63b8ff" d="M100.72,-56.34C91.05,-48.55 77.29,-37.47 65.85,-28.26"/>
<polygon fill="#63b8ff" stroke="#63b8ff" points="68.09,-25.57 58.11,-22.03 63.7,-31.03 68.09,-25.57"/>
</a>
</g>
</g>
<!-- Node4 -->
<g id="Node000004" class="node">
<title>Node4</title>
<g id="a_Node000004"><a xlink:title=" ">
<polygon fill="#e0e0e0" stroke="#999999" points="141.75,-20.75 86,-20.75 86,0 141.75,0 141.75,-20.75"/>
<text text-anchor="middle" x="113.88" y="-7.25" font-family="Helvetica,sans-Serif" font-size="10.00">sstream</text>
</a>
</g>
</g>
<!-- Node2&#45;&gt;Node4 -->
<g id="edge3_Node000002_Node000004" class="edge">
<title>Node2&#45;&gt;Node4</title>
<g id="a_edge3_Node000002_Node000004"><a xlink:title=" ">
<path fill="none" stroke="#63b8ff" d="M113.05,-56.34C113.17,-49.72 113.34,-40.72 113.49,-32.52"/>
<polygon fill="#63b8ff" stroke="#63b8ff" points="116.99,-32.65 113.67,-22.59 109.99,-32.53 116.99,-32.65"/>
</a>
</g>
</g>
<!-- Node5 -->
<g id="Node000005" class="node">
<title>Node5</title>
<g id="a_Node000005"><a xlink:title=" ">
<polygon fill="#e0e0e0" stroke="#999999" points="203.75,-20.75 160,-20.75 160,0 203.75,0 203.75,-20.75"/>
<text text-anchor="middle" x="181.88" y="-7.25" font-family="Helvetica,sans-Serif" font-size="10.00">string</text>
</a>
</g>
</g>
<!-- Node2&#45;&gt;Node5 -->
<g id="edge4_Node000002_Node000005" class="edge">
<title>Node2&#45;&gt;Node5</title>
<g id="a_edge4_Node000002_Node000005"><a xlink:title=" ">
<path fill="none" stroke="#63b8ff" d="M125.21,-56.34C135.12,-48.47 149.26,-37.25 160.94,-27.99"/>
<polygon fill="#63b8ff" stroke="#63b8ff" points="162.8,-30.98 168.46,-22.02 158.45,-25.49 162.8,-30.98"/>
</a>
</g>
</g>
</g>
</svg>
