<?xml version="1.0" encoding="UTF-8" standalone="no"?>
<!DOCTYPE svg PUBLIC "-//W3C//DTD SVG 1.1//EN"
 "http://www.w3.org/Graphics/SVG/1.1/DTD/svg11.dtd">
<!-- Generated by graphviz version 12.2.1 (0)
 -->
<!-- Title: include/math/Quaternion.hpp Pages: 1 -->
<svg width="582pt" height="382pt"
 viewBox="0.00 0.00 582.38 382.00" xmlns="http://www.w3.org/2000/svg" xmlns:xlink="http://www.w3.org/1999/xlink">
<g id="graph0" class="graph" transform="scale(1 1) rotate(0) translate(4 378)">
<title>include/math/Quaternion.hpp</title>
<!-- Node1 -->
<g id="Node000001" class="node">
<title>Node1</title>
<g id="a_Node000001"><a xlink:title="Defines the Quaternion class for representing 3D rotations.">
<polygon fill="#999999" stroke="#666666" points="406,-374 248.25,-374 248.25,-353.25 406,-353.25 406,-374"/>
<text text-anchor="middle" x="327.12" y="-360.5" font-family="Helvetica,sans-Serif" font-size="10.00">include/math/Quaternion.hpp</text>
</a>
</g>
</g>
<!-- Node2 -->
<g id="Node000002" class="node">
<title>Node2</title>
<g id="a_Node000002"><a xlink:href="TransformComponent_8hpp.html" target="_top" xlink:title="Defines the TransformComponent for ECS&#45;based spatial transformations.">
<polygon fill="white" stroke="#666666" points="350,-260.5 204.25,-260.5 204.25,-227 350,-227 350,-260.5"/>
<text text-anchor="start" x="212.25" y="-247" font-family="Helvetica,sans-Serif" font-size="10.00">include/components</text>
<text text-anchor="middle" x="277.12" y="-234.25" font-family="Helvetica,sans-Serif" font-size="10.00">/TransformComponent.hpp</text>
</a>
</g>
</g>
<!-- Node1&#45;&gt;Node2 -->
<g id="edge1_Node000001_Node000002" class="edge">
<title>Node1&#45;&gt;Node2</title>
<g id="a_edge1_Node000001_Node000002"><a xlink:title=" ">
<path fill="none" stroke="#63b8ff" d="M312.73,-343.77C307.24,-335.9 301.31,-326.46 297.12,-317.25 288.7,-298.71 283.11,-275.84 280.04,-260.81"/>
<polygon fill="#63b8ff" stroke="#63b8ff" points="309.89,-345.82 318.61,-351.84 315.55,-341.69 309.89,-345.82"/>
</a>
</g>
</g>
<!-- Node9 -->
<g id="Node000009" class="node">
<title>Node9</title>
<g id="a_Node000009"><a xlink:href="Matrix4_8hpp.html" target="_top" xlink:title="Defines the Matrix4 class for 3D transformation operations.">
<polygon fill="white" stroke="#666666" points="447.75,-317.25 306.5,-317.25 306.5,-296.5 447.75,-296.5 447.75,-317.25"/>
<text text-anchor="middle" x="377.12" y="-303.75" font-family="Helvetica,sans-Serif" font-size="10.00">include/math/Matrix4.hpp</text>
</a>
</g>
</g>
<!-- Node1&#45;&gt;Node9 -->
<g id="edge10_Node000001_Node000009" class="edge">
<title>Node1&#45;&gt;Node9</title>
<g id="a_edge10_Node000001_Node000009"><a xlink:title=" ">
<path fill="none" stroke="#63b8ff" d="M343.66,-344.52C351.87,-335.53 361.46,-325.03 368.26,-317.58"/>
<polygon fill="#63b8ff" stroke="#63b8ff" points="341.24,-341.97 337.08,-351.72 346.41,-346.7 341.24,-341.97"/>
</a>
</g>
</g>
<!-- Node3 -->
<g id="Node000003" class="node">
<title>Node3</title>
<g id="a_Node000003"><a xlink:href="Object_8hpp.html" target="_top" xlink:title="Defines the Object class, a special ECS entity wrapper.">
<polygon fill="white" stroke="#666666" points="153.62,-191 8.62,-191 8.62,-170.25 153.62,-170.25 153.62,-191"/>
<text text-anchor="middle" x="81.12" y="-177.5" font-family="Helvetica,sans-Serif" font-size="10.00">include/objects/Object.hpp</text>
</a>
</g>
</g>
<!-- Node2&#45;&gt;Node3 -->
<g id="edge2_Node000002_Node000003" class="edge">
<title>Node2&#45;&gt;Node3</title>
<g id="a_edge2_Node000002_Node000003"><a xlink:title=" ">
<path fill="none" stroke="#63b8ff" d="M214.34,-223.17C180.36,-212.57 139.87,-199.94 112.52,-191.42"/>
<polygon fill="#63b8ff" stroke="#63b8ff" points="213.08,-226.44 223.67,-226.08 215.17,-219.76 213.08,-226.44"/>
</a>
</g>
</g>
<!-- Node8 -->
<g id="Node000008" class="node">
<title>Node8</title>
<g id="a_Node000008"><a xlink:href="PhysicsSystem_8hpp.html" target="_top" xlink:title="Defines the PhysicsSystem.">
<polygon fill="white" stroke="#666666" points="360.38,-191 171.88,-191 171.88,-170.25 360.38,-170.25 360.38,-191"/>
<text text-anchor="middle" x="266.12" y="-177.5" font-family="Helvetica,sans-Serif" font-size="10.00">include/physics/PhysicsSystem.hpp</text>
</a>
</g>
</g>
<!-- Node2&#45;&gt;Node8 -->
<g id="edge9_Node000002_Node000008" class="edge">
<title>Node2&#45;&gt;Node8</title>
<g id="a_edge9_Node000002_Node000008"><a xlink:title=" ">
<path fill="none" stroke="#63b8ff" d="M272.22,-215.48C270.68,-206.91 269.07,-198 267.9,-191.47"/>
<polygon fill="#63b8ff" stroke="#63b8ff" points="268.75,-215.98 273.97,-225.2 275.64,-214.74 268.75,-215.98"/>
</a>
</g>
</g>
<!-- Node4 -->
<g id="Node000004" class="node">
<title>Node4</title>
<g id="a_Node000004"><a xlink:href="PointLight_8hpp_source.html" target="_top" xlink:title=" ">
<polygon fill="white" stroke="#666666" points="162.25,-134.25 0,-134.25 0,-113.5 162.25,-113.5 162.25,-134.25"/>
<text text-anchor="middle" x="81.12" y="-120.75" font-family="Helvetica,sans-Serif" font-size="10.00">include/objects/PointLight.hpp</text>
</a>
</g>
</g>
<!-- Node3&#45;&gt;Node4 -->
<g id="edge3_Node000003_Node000004" class="edge">
<title>Node3&#45;&gt;Node4</title>
<g id="a_edge3_Node000003_Node000004"><a xlink:title=" ">
<path fill="none" stroke="#63b8ff" d="M81.12,-158.38C81.12,-150.16 81.12,-141.18 81.12,-134.58"/>
<polygon fill="#63b8ff" stroke="#63b8ff" points="77.63,-158.32 81.13,-168.32 84.63,-158.32 77.63,-158.32"/>
</a>
</g>
</g>
<!-- Node5 -->
<g id="Node000005" class="node">
<title>Node5</title>
<g id="a_Node000005"><a xlink:href="Renderer_8hpp.html" target="_top" xlink:title="Manages the rendering pipeline and object submission.">
<polygon fill="white" stroke="#666666" points="329.62,-77.5 160.62,-77.5 160.62,-56.75 329.62,-56.75 329.62,-77.5"/>
<text text-anchor="middle" x="245.12" y="-64" font-family="Helvetica,sans-Serif" font-size="10.00">include/rendering/Renderer.hpp</text>
</a>
</g>
</g>
<!-- Node3&#45;&gt;Node5 -->
<g id="edge8_Node000003_Node000005" class="edge">
<title>Node3&#45;&gt;Node5</title>
<g id="a_edge8_Node000003_Node000005"><a xlink:title=" ">
<path fill="none" stroke="#63b8ff" d="M114.9,-165.17C132.31,-157.09 153.52,-146.24 171.12,-134.25 196.47,-116.98 222.34,-91.76 235.76,-77.99"/>
<polygon fill="#63b8ff" stroke="#63b8ff" points="113.66,-161.89 106,-169.2 116.55,-168.27 113.66,-161.89"/>
</a>
</g>
</g>
<!-- Node7 -->
<g id="Node000007" class="node">
<title>Node7</title>
<g id="a_Node000007"><a xlink:href="Camera_8hpp.html" target="_top" xlink:title="Defines the Camera class for view and projection.">
<polygon fill="white" stroke="#666666" points="381.62,-134.25 218.62,-134.25 218.62,-113.5 381.62,-113.5 381.62,-134.25"/>
<text text-anchor="middle" x="300.12" y="-120.75" font-family="Helvetica,sans-Serif" font-size="10.00">include/rendering/Camera.hpp</text>
</a>
</g>
</g>
<!-- Node3&#45;&gt;Node7 -->
<g id="edge6_Node000003_Node000007" class="edge">
<title>Node3&#45;&gt;Node7</title>
<g id="a_edge6_Node000003_Node000007"><a xlink:title=" ">
<path fill="none" stroke="#63b8ff" d="M131.7,-166.98C170.94,-157.17 224.56,-143.77 260.67,-134.74"/>
<polygon fill="#63b8ff" stroke="#63b8ff" points="130.85,-163.59 122,-169.41 132.55,-170.38 130.85,-163.59"/>
</a>
</g>
</g>
<!-- Node4&#45;&gt;Node5 -->
<g id="edge4_Node000004_Node000005" class="edge">
<title>Node4&#45;&gt;Node5</title>
<g id="a_edge4_Node000004_Node000005"><a xlink:title=" ">
<path fill="none" stroke="#63b8ff" d="M121.13,-109.52C150.38,-99.76 189.39,-86.73 215.78,-77.92"/>
<polygon fill="#63b8ff" stroke="#63b8ff" points="120.26,-106.12 111.88,-112.61 122.47,-112.76 120.26,-106.12"/>
</a>
</g>
</g>
<!-- Node6 -->
<g id="Node000006" class="node">
<title>Node6</title>
<g id="a_Node000006"><a xlink:href="Engine_8hpp.html" target="_top" xlink:title="Defines the core Engine class responsible for running simulation.">
<polygon fill="white" stroke="#666666" points="299.25,-20.75 191,-20.75 191,0 299.25,0 299.25,-20.75"/>
<text text-anchor="middle" x="245.12" y="-7.25" font-family="Helvetica,sans-Serif" font-size="10.00">include/Engine.hpp</text>
</a>
</g>
</g>
<!-- Node5&#45;&gt;Node6 -->
<g id="edge5_Node000005_Node000006" class="edge">
<title>Node5&#45;&gt;Node6</title>
<g id="a_edge5_Node000005_Node000006"><a xlink:title=" ">
<path fill="none" stroke="#63b8ff" d="M245.12,-44.88C245.12,-36.66 245.12,-27.68 245.12,-21.08"/>
<polygon fill="#63b8ff" stroke="#63b8ff" points="241.63,-44.82 245.13,-54.82 248.63,-44.82 241.63,-44.82"/>
</a>
</g>
</g>
<!-- Node7&#45;&gt;Node5 -->
<g id="edge7_Node000007_Node000005" class="edge">
<title>Node7&#45;&gt;Node5</title>
<g id="a_edge7_Node000007_Node000005"><a xlink:title=" ">
<path fill="none" stroke="#63b8ff" d="M282.22,-105.05C273.13,-96 262.44,-85.36 254.87,-77.83"/>
<polygon fill="#63b8ff" stroke="#63b8ff" points="279.66,-107.44 289.22,-112.02 284.6,-102.48 279.66,-107.44"/>
</a>
</g>
</g>
<!-- Node9&#45;&gt;Node2 -->
<g id="edge11_Node000009_Node000002" class="edge">
<title>Node9&#45;&gt;Node2</title>
<g id="a_edge11_Node000009_Node000002"><a xlink:title=" ">
<path fill="none" stroke="#63b8ff" d="M351.59,-290.27C336.92,-281.3 318.52,-270.05 303.69,-260.98"/>
<polygon fill="#63b8ff" stroke="#63b8ff" points="349.41,-293.04 359.77,-295.26 353.06,-287.06 349.41,-293.04"/>
</a>
</g>
</g>
<!-- Node9&#45;&gt;Node7 -->
<g id="edge12_Node000009_Node000007" class="edge">
<title>Node9&#45;&gt;Node7</title>
<g id="a_edge12_Node000009_Node000007"><a xlink:title=" ">
<path fill="none" stroke="#63b8ff" d="M381.35,-284.97C385.89,-256.84 389.9,-206.2 369.12,-170.25 359.51,-153.62 341.06,-141.96 325.65,-134.64"/>
<polygon fill="#63b8ff" stroke="#63b8ff" points="377.93,-284.22 379.59,-294.68 384.82,-285.47 377.93,-284.22"/>
</a>
</g>
</g>
<!-- Node10 -->
<g id="Node000010" class="node">
<title>Node10</title>
<g id="a_Node000010"><a xlink:href="Shader_8hpp.html" target="_top" xlink:title="Manages OpenGL shaders.">
<polygon fill="white" stroke="#666666" points="574.38,-254.12 415.88,-254.12 415.88,-233.38 574.38,-233.38 574.38,-254.12"/>
<text text-anchor="middle" x="495.12" y="-240.62" font-family="Helvetica,sans-Serif" font-size="10.00">include/rendering/Shader.hpp</text>
</a>
</g>
</g>
<!-- Node9&#45;&gt;Node10 -->
<g id="edge13_Node000009_Node000010" class="edge">
<title>Node9&#45;&gt;Node10</title>
<g id="a_edge13_Node000009_Node000010"><a xlink:title=" ">
<path fill="none" stroke="#63b8ff" d="M406.13,-290.85C427.98,-279.53 457.31,-264.34 476.21,-254.55"/>
<polygon fill="#63b8ff" stroke="#63b8ff" points="404.7,-287.65 397.43,-295.36 407.92,-293.87 404.7,-287.65"/>
</a>
</g>
</g>
<!-- Node10&#45;&gt;Node5 -->
<g id="edge14_Node000010_Node000005" class="edge">
<title>Node10&#45;&gt;Node5</title>
<g id="a_edge14_Node000010_Node000005"><a xlink:title=" ">
<path fill="none" stroke="#63b8ff" d="M484.43,-223.09C468.03,-194.76 434.01,-142.67 391.12,-113.5 365.01,-95.74 331.62,-84.68 303.37,-77.94"/>
<polygon fill="#63b8ff" stroke="#63b8ff" points="481.31,-224.69 489.27,-231.69 487.41,-221.26 481.31,-224.69"/>
</a>
</g>
</g>
</g>
</svg>
