<?xml version="1.0" encoding="UTF-8" standalone="no"?>
<!DOCTYPE svg PUBLIC "-//W3C//DTD SVG 1.1//EN"
 "http://www.w3.org/Graphics/SVG/1.1/DTD/svg11.dtd">
<!-- Generated by graphviz version 12.2.1 (0)
 -->
<!-- Title: include/Registry.hpp Pages: 1 -->
<svg width="662pt" height="313pt"
 viewBox="0.00 0.00 662.25 312.50" xmlns="http://www.w3.org/2000/svg" xmlns:xlink="http://www.w3.org/1999/xlink">
<g id="graph0" class="graph" transform="scale(1 1) rotate(0) translate(4 308.5)">
<title>include/Registry.hpp</title>
<!-- Node1 -->
<g id="Node000001" class="node">
<title>Node1</title>
<g id="a_Node000001"><a xlink:title="Defines the Registry class for managing ECS entities and components.">
<polygon fill="#999999" stroke="#666666" points="467.12,-304.5 352.88,-304.5 352.88,-283.75 467.12,-283.75 467.12,-304.5"/>
<text text-anchor="middle" x="410" y="-291" font-family="Helvetica,sans-Serif" font-size="10.00">include/Registry.hpp</text>
</a>
</g>
</g>
<!-- Node2 -->
<g id="Node000002" class="node">
<title>Node2</title>
<g id="a_Node000002"><a xlink:href="Engine_8hpp.html" target="_top" xlink:title="Defines the core Engine class responsible for running simulation.">
<polygon fill="white" stroke="#666666" points="163.12,-20.75 54.88,-20.75 54.88,0 163.12,0 163.12,-20.75"/>
<text text-anchor="middle" x="109" y="-7.25" font-family="Helvetica,sans-Serif" font-size="10.00">include/Engine.hpp</text>
</a>
</g>
</g>
<!-- Node1&#45;&gt;Node2 -->
<g id="edge1_Node000001_Node000002" class="edge">
<title>Node1&#45;&gt;Node2</title>
<g id="a_edge1_Node000001_Node000002"><a xlink:title=" ">
<path fill="none" stroke="#63b8ff" d="M341.27,-288.6C224.52,-279.02 0,-251.5 0,-181.62 0,-181.62 0,-181.62 0,-122.88 0,-73.2 56,-37.45 87.72,-21.19"/>
<polygon fill="#63b8ff" stroke="#63b8ff" points="340.8,-292.08 351.05,-289.38 341.36,-285.1 340.8,-292.08"/>
</a>
</g>
</g>
<!-- Node3 -->
<g id="Node000003" class="node">
<title>Node3</title>
<g id="a_Node000003"><a xlink:href="Entity_8hpp.html" target="_top" xlink:title="Defines the Entity class, which serves as a wrapper for ECS entities.">
<polygon fill="white" stroke="#666666" points="351.12,-247.75 248.88,-247.75 248.88,-227 351.12,-227 351.12,-247.75"/>
<text text-anchor="middle" x="300" y="-234.25" font-family="Helvetica,sans-Serif" font-size="10.00">include/Entity.hpp</text>
</a>
</g>
</g>
<!-- Node1&#45;&gt;Node3 -->
<g id="edge2_Node000001_Node000003" class="edge">
<title>Node1&#45;&gt;Node3</title>
<g id="a_edge2_Node000001_Node000003"><a xlink:title=" ">
<path fill="none" stroke="#63b8ff" d="M380.24,-278.31C360.94,-268.7 336.34,-256.46 319.5,-248.08"/>
<polygon fill="#63b8ff" stroke="#63b8ff" points="378.47,-281.34 388.98,-282.66 381.59,-275.07 378.47,-281.34"/>
</a>
</g>
</g>
<!-- Node6 -->
<g id="Node000006" class="node">
<title>Node6</title>
<g id="a_Node000006"><a xlink:href="Renderer_8hpp.html" target="_top" xlink:title="Manages the rendering pipeline and object submission.">
<polygon fill="white" stroke="#666666" points="302.5,-77.5 133.5,-77.5 133.5,-56.75 302.5,-56.75 302.5,-77.5"/>
<text text-anchor="middle" x="218" y="-64" font-family="Helvetica,sans-Serif" font-size="10.00">include/rendering/Renderer.hpp</text>
</a>
</g>
</g>
<!-- Node1&#45;&gt;Node6 -->
<g id="edge11_Node000001_Node000006" class="edge">
<title>Node1&#45;&gt;Node6</title>
<g id="a_edge11_Node000001_Node000006"><a xlink:title=" ">
<path fill="none" stroke="#63b8ff" d="M418.77,-272.97C433.03,-236.72 456.14,-159.95 419,-113.5 404.2,-94.99 350.88,-83.48 302.87,-76.69"/>
<polygon fill="#63b8ff" stroke="#63b8ff" points="415.53,-271.63 414.95,-282.21 422,-274.31 415.53,-271.63"/>
</a>
</g>
</g>
<!-- Node8 -->
<g id="Node000008" class="node">
<title>Node8</title>
<g id="a_Node000008"><a xlink:href="PhysicsSystem_8hpp.html" target="_top" xlink:title="Defines the PhysicsSystem.">
<polygon fill="white" stroke="#666666" points="654.25,-247.75 465.75,-247.75 465.75,-227 654.25,-227 654.25,-247.75"/>
<text text-anchor="middle" x="560" y="-234.25" font-family="Helvetica,sans-Serif" font-size="10.00">include/physics/PhysicsSystem.hpp</text>
</a>
</g>
</g>
<!-- Node1&#45;&gt;Node8 -->
<g id="edge10_Node000001_Node000008" class="edge">
<title>Node1&#45;&gt;Node8</title>
<g id="a_edge10_Node000001_Node000008"><a xlink:title=" ">
<path fill="none" stroke="#63b8ff" d="M447.3,-279.51C473.97,-269.78 509.23,-256.9 533.16,-248.17"/>
<polygon fill="#63b8ff" stroke="#63b8ff" points="446.43,-276.1 438.24,-282.82 448.83,-282.68 446.43,-276.1"/>
</a>
</g>
</g>
<!-- Node4 -->
<g id="Node000004" class="node">
<title>Node4</title>
<g id="a_Node000004"><a xlink:href="Object_8hpp.html" target="_top" xlink:title="Defines the Object class, a special ECS entity wrapper.">
<polygon fill="white" stroke="#666666" points="317.5,-191 172.5,-191 172.5,-170.25 317.5,-170.25 317.5,-191"/>
<text text-anchor="middle" x="245" y="-177.5" font-family="Helvetica,sans-Serif" font-size="10.00">include/objects/Object.hpp</text>
</a>
</g>
</g>
<!-- Node3&#45;&gt;Node4 -->
<g id="edge3_Node000003_Node000004" class="edge">
<title>Node3&#45;&gt;Node4</title>
<g id="a_edge3_Node000003_Node000004"><a xlink:title=" ">
<path fill="none" stroke="#63b8ff" d="M282.09,-218.55C273,-209.5 262.31,-198.86 254.75,-191.33"/>
<polygon fill="#63b8ff" stroke="#63b8ff" points="279.54,-220.94 289.09,-225.52 284.48,-215.98 279.54,-220.94"/>
</a>
</g>
</g>
<!-- Node5 -->
<g id="Node000005" class="node">
<title>Node5</title>
<g id="a_Node000005"><a xlink:href="PointLight_8hpp_source.html" target="_top" xlink:title=" ">
<polygon fill="white" stroke="#666666" points="190.12,-134.25 27.88,-134.25 27.88,-113.5 190.12,-113.5 190.12,-134.25"/>
<text text-anchor="middle" x="109" y="-120.75" font-family="Helvetica,sans-Serif" font-size="10.00">include/objects/PointLight.hpp</text>
</a>
</g>
</g>
<!-- Node4&#45;&gt;Node5 -->
<g id="edge4_Node000004_Node000005" class="edge">
<title>Node4&#45;&gt;Node5</title>
<g id="a_edge4_Node000004_Node000005"><a xlink:title=" ">
<path fill="none" stroke="#63b8ff" d="M210.18,-165.61C186.04,-155.89 154.5,-143.19 133.1,-134.58"/>
<polygon fill="#63b8ff" stroke="#63b8ff" points="208.7,-168.78 219.28,-169.27 211.31,-162.29 208.7,-168.78"/>
</a>
</g>
</g>
<!-- Node4&#45;&gt;Node6 -->
<g id="edge9_Node000004_Node000006" class="edge">
<title>Node4&#45;&gt;Node6</title>
<g id="a_edge9_Node000004_Node000006"><a xlink:title=" ">
<path fill="none" stroke="#63b8ff" d="M240.02,-159.05C234.18,-134.95 224.75,-96 220.37,-77.93"/>
<polygon fill="#63b8ff" stroke="#63b8ff" points="236.59,-159.75 242.34,-168.65 243.39,-158.1 236.59,-159.75"/>
</a>
</g>
</g>
<!-- Node7 -->
<g id="Node000007" class="node">
<title>Node7</title>
<g id="a_Node000007"><a xlink:href="Camera_8hpp.html" target="_top" xlink:title="Defines the Camera class for view and projection.">
<polygon fill="white" stroke="#666666" points="409.5,-134.25 246.5,-134.25 246.5,-113.5 409.5,-113.5 409.5,-134.25"/>
<text text-anchor="middle" x="328" y="-120.75" font-family="Helvetica,sans-Serif" font-size="10.00">include/rendering/Camera.hpp</text>
</a>
</g>
</g>
<!-- Node4&#45;&gt;Node7 -->
<g id="edge7_Node000004_Node000007" class="edge">
<title>Node4&#45;&gt;Node7</title>
<g id="a_edge7_Node000004_Node000007"><a xlink:title=" ">
<path fill="none" stroke="#63b8ff" d="M269.09,-163.73C283.39,-154.3 301.05,-142.65 313.29,-134.58"/>
<polygon fill="#63b8ff" stroke="#63b8ff" points="267.52,-160.58 261.1,-169 271.38,-166.42 267.52,-160.58"/>
</a>
</g>
</g>
<!-- Node5&#45;&gt;Node6 -->
<g id="edge5_Node000005_Node000006" class="edge">
<title>Node5&#45;&gt;Node6</title>
<g id="a_edge5_Node000005_Node000006"><a xlink:title=" ">
<path fill="none" stroke="#63b8ff" d="M138.76,-107.93C157.84,-98.34 182.07,-86.17 198.68,-77.83"/>
<polygon fill="#63b8ff" stroke="#63b8ff" points="137.2,-104.79 129.84,-112.41 140.35,-111.05 137.2,-104.79"/>
</a>
</g>
</g>
<!-- Node6&#45;&gt;Node2 -->
<g id="edge6_Node000006_Node000002" class="edge">
<title>Node6&#45;&gt;Node2</title>
<g id="a_edge6_Node000006_Node000002"><a xlink:title=" ">
<path fill="none" stroke="#63b8ff" d="M188.24,-51.18C169.16,-41.59 144.93,-29.42 128.32,-21.08"/>
<polygon fill="#63b8ff" stroke="#63b8ff" points="186.65,-54.3 197.16,-55.66 189.8,-48.04 186.65,-54.3"/>
</a>
</g>
</g>
<!-- Node7&#45;&gt;Node6 -->
<g id="edge8_Node000007_Node000006" class="edge">
<title>Node7&#45;&gt;Node6</title>
<g id="a_edge8_Node000007_Node000006"><a xlink:title=" ">
<path fill="none" stroke="#63b8ff" d="M298.24,-108.06C278.94,-98.45 254.34,-86.21 237.5,-77.83"/>
<polygon fill="#63b8ff" stroke="#63b8ff" points="296.47,-111.09 306.98,-112.41 299.59,-104.82 296.47,-111.09"/>
</a>
</g>
</g>
</g>
</svg>
