<?xml version="1.0" encoding="UTF-8" standalone="no"?>
<!DOCTYPE svg PUBLIC "-//W3C//DTD SVG 1.1//EN"
 "http://www.w3.org/Graphics/SVG/1.1/DTD/svg11.dtd">
<!-- Generated by graphviz version 12.2.1 (0)
 -->
<!-- Title: include/components/TransformComponent.hpp Pages: 1 -->
<svg width="265pt" height="269pt"
 viewBox="0.00 0.00 265.31 268.50" xmlns="http://www.w3.org/2000/svg" xmlns:xlink="http://www.w3.org/1999/xlink">
<g id="graph0" class="graph" transform="scale(1 1) rotate(0) translate(4 264.5)">
<title>include/components/TransformComponent.hpp</title>
<!-- Node1 -->
<g id="Node000001" class="node">
<title>Node1</title>
<g id="a_Node000001"><a xlink:title="Defines the TransformComponent for ECS&#45;based spatial transformations.">
<polygon fill="#999999" stroke="#666666" points="192.38,-260.5 46.62,-260.5 46.62,-227 192.38,-227 192.38,-260.5"/>
<text text-anchor="start" x="54.62" y="-247" font-family="Helvetica,sans-Serif" font-size="10.00">include/components</text>
<text text-anchor="middle" x="119.5" y="-234.25" font-family="Helvetica,sans-Serif" font-size="10.00">/TransformComponent.hpp</text>
</a>
</g>
</g>
<!-- Node2 -->
<g id="Node000002" class="node">
<title>Node2</title>
<g id="a_Node000002"><a xlink:href="Matrix4_8hpp.html" target="_top" xlink:title="Defines the Matrix4 class for 3D transformation operations.">
<polygon fill="white" stroke="#666666" points="251,-191 148,-191 148,-170.25 251,-170.25 251,-191"/>
<text text-anchor="middle" x="199.5" y="-177.5" font-family="Helvetica,sans-Serif" font-size="10.00">math/Matrix4.hpp</text>
</a>
</g>
</g>
<!-- Node1&#45;&gt;Node2 -->
<g id="edge1_Node000001_Node000002" class="edge">
<title>Node1&#45;&gt;Node2</title>
<g id="a_edge1_Node000001_Node000002"><a xlink:title=" ">
<path fill="none" stroke="#63b8ff" d="M140.52,-226.69C151.95,-217.96 166.07,-207.17 177.63,-198.34"/>
<polygon fill="#63b8ff" stroke="#63b8ff" points="179.6,-201.24 185.42,-192.39 175.35,-195.68 179.6,-201.24"/>
</a>
</g>
</g>
<!-- Node3 -->
<g id="Node000003" class="node">
<title>Node3</title>
<g id="a_Node000003"><a xlink:href="Quaternion_8hpp.html" target="_top" xlink:title="Defines the Quaternion class for representing 3D rotations.">
<polygon fill="white" stroke="#666666" points="91,-134.25 0,-134.25 0,-113.5 91,-113.5 91,-134.25"/>
<text text-anchor="middle" x="45.5" y="-120.75" font-family="Helvetica,sans-Serif" font-size="10.00">Quaternion.hpp</text>
</a>
</g>
</g>
<!-- Node1&#45;&gt;Node3 -->
<g id="edge11_Node000001_Node000003" class="edge">
<title>Node1&#45;&gt;Node3</title>
<g id="a_edge11_Node000001_Node000003"><a xlink:title=" ">
<path fill="none" stroke="#63b8ff" d="M109.52,-226.85C96.1,-205.48 72.26,-167.5 57.76,-144.41"/>
<polygon fill="#63b8ff" stroke="#63b8ff" points="60.74,-142.57 52.46,-135.96 54.81,-146.3 60.74,-142.57"/>
</a>
</g>
</g>
<!-- Node4 -->
<g id="Node000004" class="node">
<title>Node4</title>
<g id="a_Node000004"><a xlink:href="Vector3_8hpp.html" target="_top" xlink:title="Defines the Vector3 class.">
<polygon fill="white" stroke="#666666" points="156.75,-77.5 82.25,-77.5 82.25,-56.75 156.75,-56.75 156.75,-77.5"/>
<text text-anchor="middle" x="119.5" y="-64" font-family="Helvetica,sans-Serif" font-size="10.00">Vector3.hpp</text>
</a>
</g>
</g>
<!-- Node1&#45;&gt;Node4 -->
<g id="edge12_Node000001_Node000004" class="edge">
<title>Node1&#45;&gt;Node4</title>
<g id="a_edge12_Node000001_Node000004"><a xlink:title=" ">
<path fill="none" stroke="#63b8ff" d="M119.5,-226.63C119.5,-194.9 119.5,-124.34 119.5,-89.06"/>
<polygon fill="#63b8ff" stroke="#63b8ff" points="123,-89.31 119.5,-79.31 116,-89.31 123,-89.31"/>
</a>
</g>
</g>
<!-- Node2&#45;&gt;Node3 -->
<g id="edge2_Node000002_Node000003" class="edge">
<title>Node2&#45;&gt;Node3</title>
<g id="a_edge2_Node000002_Node000003"><a xlink:title=" ">
<path fill="none" stroke="#63b8ff" d="M171.97,-169.84C147.41,-161.11 111.2,-148.23 83.82,-138.5"/>
<polygon fill="#63b8ff" stroke="#63b8ff" points="85.07,-135.23 74.48,-135.18 82.73,-141.83 85.07,-135.23"/>
</a>
</g>
</g>
<!-- Node2&#45;&gt;Node4 -->
<g id="edge8_Node000002_Node000004" class="edge">
<title>Node2&#45;&gt;Node4</title>
<g id="a_edge8_Node000002_Node000004"><a xlink:title=" ">
<path fill="none" stroke="#63b8ff" d="M192.68,-170.12C179.52,-151.78 150.41,-111.2 133.13,-87.12"/>
<polygon fill="#63b8ff" stroke="#63b8ff" points="136.09,-85.24 127.41,-79.15 130.4,-89.32 136.09,-85.24"/>
</a>
</g>
</g>
<!-- Node6 -->
<g id="Node000006" class="node">
<title>Node6</title>
<g id="a_Node000006"><a xlink:title=" ">
<polygon fill="#e0e0e0" stroke="#999999" points="256.38,-20.75 200.62,-20.75 200.62,0 256.38,0 256.38,-20.75"/>
<text text-anchor="middle" x="228.5" y="-7.25" font-family="Helvetica,sans-Serif" font-size="10.00">sstream</text>
</a>
</g>
</g>
<!-- Node2&#45;&gt;Node6 -->
<g id="edge10_Node000002_Node000006" class="edge">
<title>Node2&#45;&gt;Node6</title>
<g id="a_edge10_Node000002_Node000006"><a xlink:title=" ">
<path fill="none" stroke="#63b8ff" d="M216.73,-169.78C228.67,-161.89 243.61,-149.6 250.5,-134.25 265.81,-100.13 250.48,-56.17 238.87,-31.15"/>
<polygon fill="#63b8ff" stroke="#63b8ff" points="242.14,-29.87 234.58,-22.44 235.86,-32.96 242.14,-29.87"/>
</a>
</g>
</g>
<!-- Node8 -->
<g id="Node000008" class="node">
<title>Node8</title>
<g id="a_Node000008"><a xlink:title=" ">
<polygon fill="#e0e0e0" stroke="#999999" points="241.38,-134.25 185.62,-134.25 185.62,-113.5 241.38,-113.5 241.38,-134.25"/>
<text text-anchor="middle" x="213.5" y="-120.75" font-family="Helvetica,sans-Serif" font-size="10.00">iomanip</text>
</a>
</g>
</g>
<!-- Node2&#45;&gt;Node8 -->
<g id="edge9_Node000002_Node000008" class="edge">
<title>Node2&#45;&gt;Node8</title>
<g id="a_edge9_Node000002_Node000008"><a xlink:title=" ">
<path fill="none" stroke="#63b8ff" d="M202,-169.84C203.72,-163.14 206.05,-154.01 208.17,-145.73"/>
<polygon fill="#63b8ff" stroke="#63b8ff" points="211.56,-146.6 210.64,-136.04 204.78,-144.87 211.56,-146.6"/>
</a>
</g>
</g>
<!-- Node3&#45;&gt;Node4 -->
<g id="edge3_Node000003_Node000004" class="edge">
<title>Node3&#45;&gt;Node4</title>
<g id="a_edge3_Node000003_Node000004"><a xlink:title=" ">
<path fill="none" stroke="#63b8ff" d="M58.73,-113.09C69.46,-105.15 84.82,-93.78 97.42,-84.46"/>
<polygon fill="#63b8ff" stroke="#63b8ff" points="99.21,-87.49 105.17,-78.73 95.05,-81.86 99.21,-87.49"/>
</a>
</g>
</g>
<!-- Node5 -->
<g id="Node000005" class="node">
<title>Node5</title>
<g id="a_Node000005"><a xlink:title=" ">
<polygon fill="#e0e0e0" stroke="#999999" points="78.88,-20.75 32.12,-20.75 32.12,0 78.88,0 78.88,-20.75"/>
<text text-anchor="middle" x="55.5" y="-7.25" font-family="Helvetica,sans-Serif" font-size="10.00">cmath</text>
</a>
</g>
</g>
<!-- Node3&#45;&gt;Node5 -->
<g id="edge7_Node000003_Node000005" class="edge">
<title>Node3&#45;&gt;Node5</title>
<g id="a_edge7_Node000003_Node000005"><a xlink:title=" ">
<path fill="none" stroke="#63b8ff" d="M46.35,-113.37C47.95,-95.52 51.44,-56.61 53.62,-32.34"/>
<polygon fill="#63b8ff" stroke="#63b8ff" points="57.08,-32.96 54.49,-22.68 50.11,-32.33 57.08,-32.96"/>
</a>
</g>
</g>
<!-- Node4&#45;&gt;Node5 -->
<g id="edge4_Node000004_Node000005" class="edge">
<title>Node4&#45;&gt;Node5</title>
<g id="a_edge4_Node000004_Node000005"><a xlink:title=" ">
<path fill="none" stroke="#63b8ff" d="M108.06,-56.34C99.05,-48.63 86.27,-37.7 75.57,-28.54"/>
<polygon fill="#63b8ff" stroke="#63b8ff" points="77.87,-25.9 67.99,-22.06 73.32,-31.22 77.87,-25.9"/>
</a>
</g>
</g>
<!-- Node4&#45;&gt;Node6 -->
<g id="edge5_Node000004_Node000006" class="edge">
<title>Node4&#45;&gt;Node6</title>
<g id="a_edge5_Node000004_Node000006"><a xlink:title=" ">
<path fill="none" stroke="#63b8ff" d="M138.99,-56.34C155.65,-47.97 179.88,-35.79 198.94,-26.22"/>
<polygon fill="#63b8ff" stroke="#63b8ff" points="200.46,-29.37 207.83,-21.76 197.32,-23.12 200.46,-29.37"/>
</a>
</g>
</g>
<!-- Node7 -->
<g id="Node000007" class="node">
<title>Node7</title>
<g id="a_Node000007"><a xlink:title=" ">
<polygon fill="#e0e0e0" stroke="#999999" points="141.38,-20.75 97.62,-20.75 97.62,0 141.38,0 141.38,-20.75"/>
<text text-anchor="middle" x="119.5" y="-7.25" font-family="Helvetica,sans-Serif" font-size="10.00">string</text>
</a>
</g>
</g>
<!-- Node4&#45;&gt;Node7 -->
<g id="edge6_Node000004_Node000007" class="edge">
<title>Node4&#45;&gt;Node7</title>
<g id="a_edge6_Node000004_Node000007"><a xlink:title=" ">
<path fill="none" stroke="#63b8ff" d="M119.5,-56.34C119.5,-49.72 119.5,-40.72 119.5,-32.52"/>
<polygon fill="#63b8ff" stroke="#63b8ff" points="123,-32.59 119.5,-22.59 116,-32.59 123,-32.59"/>
</a>
</g>
</g>
</g>
</svg>
