<?xml version="1.0" encoding="UTF-8" standalone="no"?>
<!DOCTYPE svg PUBLIC "-//W3C//DTD SVG 1.1//EN"
 "http://www.w3.org/Graphics/SVG/1.1/DTD/svg11.dtd">
<!-- Generated by graphviz version 12.2.1 (0)
 -->
<!-- Title: include/math/Vector3.hpp Pages: 1 -->
<svg width="859pt" height="464pt"
 viewBox="0.00 0.00 859.38 464.25" xmlns="http://www.w3.org/2000/svg" xmlns:xlink="http://www.w3.org/1999/xlink">
<g id="graph0" class="graph" transform="scale(1 1) rotate(0) translate(4 460.25)">
<title>include/math/Vector3.hpp</title>
<!-- Node1 -->
<g id="Node000001" class="node">
<title>Node1</title>
<g id="a_Node000001"><a xlink:title="Defines the Vector3 class.">
<polygon fill="#999999" stroke="#666666" points="522.75,-456.25 381.5,-456.25 381.5,-435.5 522.75,-435.5 522.75,-456.25"/>
<text text-anchor="middle" x="452.12" y="-442.75" font-family="Helvetica,sans-Serif" font-size="10.00">include/math/Vector3.hpp</text>
</a>
</g>
</g>
<!-- Node2 -->
<g id="Node000002" class="node">
<title>Node2</title>
<g id="a_Node000002"><a xlink:href="LightComponent_8hpp_source.html" target="_top" xlink:title=" ">
<polygon fill="white" stroke="#666666" points="120.25,-399.5 0,-399.5 0,-366 120.25,-366 120.25,-399.5"/>
<text text-anchor="start" x="8" y="-386" font-family="Helvetica,sans-Serif" font-size="10.00">include/components</text>
<text text-anchor="middle" x="60.12" y="-373.25" font-family="Helvetica,sans-Serif" font-size="10.00">/LightComponent.hpp</text>
</a>
</g>
</g>
<!-- Node1&#45;&gt;Node2 -->
<g id="edge1_Node000001_Node000002" class="edge">
<title>Node1&#45;&gt;Node2</title>
<g id="a_edge1_Node000001_Node000002"><a xlink:title=" ">
<path fill="none" stroke="#63b8ff" d="M369.89,-434.7C305.54,-426.36 213.89,-413.66 134.12,-399.5 129.73,-398.72 125.19,-397.87 120.64,-396.98"/>
<polygon fill="#63b8ff" stroke="#63b8ff" points="369.31,-438.16 379.67,-435.96 370.2,-431.21 369.31,-438.16"/>
</a>
</g>
</g>
<!-- Node3 -->
<g id="Node000003" class="node">
<title>Node3</title>
<g id="a_Node000003"><a xlink:href="PhysicsComponent_8hpp.html" target="_top" xlink:title="Defines the PhysicsComponent for ECS&#45;based physics simulation.">
<polygon fill="white" stroke="#666666" points="309.62,-330 176.62,-330 176.62,-296.5 309.62,-296.5 309.62,-330"/>
<text text-anchor="start" x="184.62" y="-316.5" font-family="Helvetica,sans-Serif" font-size="10.00">include/components</text>
<text text-anchor="middle" x="243.12" y="-303.75" font-family="Helvetica,sans-Serif" font-size="10.00">/PhysicsComponent.hpp</text>
</a>
</g>
</g>
<!-- Node1&#45;&gt;Node3 -->
<g id="edge2_Node000001_Node000003" class="edge">
<title>Node1&#45;&gt;Node3</title>
<g id="a_edge2_Node000001_Node000003"><a xlink:title=" ">
<path fill="none" stroke="#63b8ff" d="M397.9,-431.81C374.07,-424.56 346.49,-414.02 324.12,-399.5 295.01,-380.6 268.85,-349.21 254.55,-330.25"/>
<polygon fill="#63b8ff" stroke="#63b8ff" points="396.87,-435.16 407.45,-434.59 398.83,-428.44 396.87,-435.16"/>
</a>
</g>
</g>
<!-- Node5 -->
<g id="Node000005" class="node">
<title>Node5</title>
<g id="a_Node000005"><a xlink:href="TransformComponent_8hpp.html" target="_top" xlink:title="Defines the TransformComponent for ECS&#45;based spatial transformations.">
<polygon fill="white" stroke="#666666" points="599,-260.5 453.25,-260.5 453.25,-227 599,-227 599,-260.5"/>
<text text-anchor="start" x="461.25" y="-247" font-family="Helvetica,sans-Serif" font-size="10.00">include/components</text>
<text text-anchor="middle" x="526.12" y="-234.25" font-family="Helvetica,sans-Serif" font-size="10.00">/TransformComponent.hpp</text>
</a>
</g>
</g>
<!-- Node1&#45;&gt;Node5 -->
<g id="edge4_Node000001_Node000005" class="edge">
<title>Node1&#45;&gt;Node5</title>
<g id="a_edge4_Node000001_Node000005"><a xlink:title=" ">
<path fill="none" stroke="#63b8ff" d="M408.63,-430.59C393.57,-423.53 378.01,-413.46 368.12,-399.5 341.52,-361.93 329.75,-333.51 357.12,-296.5 379.2,-266.65 418.17,-253.46 453.12,-247.84"/>
<polygon fill="#63b8ff" stroke="#63b8ff" points="406.94,-433.68 417.51,-434.41 409.71,-427.24 406.94,-433.68"/>
</a>
</g>
</g>
<!-- Node7 -->
<g id="Node000007" class="node">
<title>Node7</title>
<g id="a_Node000007"><a xlink:href="PointLight_8hpp_source.html" target="_top" xlink:title=" ">
<polygon fill="white" stroke="#666666" points="493.25,-134.25 331,-134.25 331,-113.5 493.25,-113.5 493.25,-134.25"/>
<text text-anchor="middle" x="412.12" y="-120.75" font-family="Helvetica,sans-Serif" font-size="10.00">include/objects/PointLight.hpp</text>
</a>
</g>
</g>
<!-- Node1&#45;&gt;Node7 -->
<g id="edge21_Node000001_Node000007" class="edge">
<title>Node1&#45;&gt;Node7</title>
<g id="a_edge21_Node000001_Node000007"><a xlink:title=" ">
<path fill="none" stroke="#63b8ff" d="M369.92,-443.45C279.89,-437.02 148.12,-411.07 148.12,-314.25 148.12,-314.25 148.12,-314.25 148.12,-242.75 148.12,-161.69 253.19,-135.99 330.76,-128.06"/>
<polygon fill="#63b8ff" stroke="#63b8ff" points="369.52,-446.94 379.72,-444.08 369.97,-439.95 369.52,-446.94"/>
</a>
</g>
</g>
<!-- Node10 -->
<g id="Node000010" class="node">
<title>Node10</title>
<g id="a_Node000010"><a xlink:href="Camera_8hpp.html" target="_top" xlink:title="Defines the Camera class for view and projection.">
<polygon fill="white" stroke="#666666" points="712.62,-134.25 549.62,-134.25 549.62,-113.5 712.62,-113.5 712.62,-134.25"/>
<text text-anchor="middle" x="631.12" y="-120.75" font-family="Helvetica,sans-Serif" font-size="10.00">include/rendering/Camera.hpp</text>
</a>
</g>
</g>
<!-- Node1&#45;&gt;Node10 -->
<g id="edge22_Node000001_Node000010" class="edge">
<title>Node1&#45;&gt;Node10</title>
<g id="a_edge22_Node000001_Node000010"><a xlink:title=" ">
<path fill="none" stroke="#63b8ff" d="M490.28,-430.56C506.23,-423.14 524.05,-412.81 537.12,-399.5 614.98,-320.22 628.46,-173.77 630.7,-134.68"/>
<polygon fill="#63b8ff" stroke="#63b8ff" points="489.27,-427.18 481.52,-434.4 492.09,-433.59 489.27,-427.18"/>
</a>
</g>
</g>
<!-- Node11 -->
<g id="Node000011" class="node">
<title>Node11</title>
<g id="a_Node000011"><a xlink:href="Matrix4_8hpp.html" target="_top" xlink:title="Defines the Matrix4 class for 3D transformation operations.">
<polygon fill="white" stroke="#666666" points="789.75,-323.62 648.5,-323.62 648.5,-302.88 789.75,-302.88 789.75,-323.62"/>
<text text-anchor="middle" x="719.12" y="-310.12" font-family="Helvetica,sans-Serif" font-size="10.00">include/math/Matrix4.hpp</text>
</a>
</g>
</g>
<!-- Node1&#45;&gt;Node11 -->
<g id="edge13_Node000001_Node000011" class="edge">
<title>Node1&#45;&gt;Node11</title>
<g id="a_edge13_Node000001_Node000011"><a xlink:title=" ">
<path fill="none" stroke="#63b8ff" d="M534.1,-444.24C614.16,-441.67 727.97,-432.17 756.12,-399.5 776.03,-376.4 746.38,-340.94 729.49,-323.96"/>
<polygon fill="#63b8ff" stroke="#63b8ff" points="534.44,-440.73 524.55,-444.52 534.65,-447.73 534.44,-440.73"/>
</a>
</g>
</g>
<!-- Node12 -->
<g id="Node000012" class="node">
<title>Node12</title>
<g id="a_Node000012"><a xlink:href="Shader_8hpp.html" target="_top" xlink:title="Manages OpenGL shaders.">
<polygon fill="white" stroke="#666666" points="851.38,-254.12 692.88,-254.12 692.88,-233.38 851.38,-233.38 851.38,-254.12"/>
<text text-anchor="middle" x="772.12" y="-240.62" font-family="Helvetica,sans-Serif" font-size="10.00">include/rendering/Shader.hpp</text>
</a>
</g>
</g>
<!-- Node1&#45;&gt;Node12 -->
<g id="edge26_Node000001_Node000012" class="edge">
<title>Node1&#45;&gt;Node12</title>
<g id="a_edge26_Node000001_Node000012"><a xlink:title=" ">
<path fill="none" stroke="#63b8ff" d="M534.52,-442.62C617.24,-438.74 737.39,-428.19 773.12,-399.5 809.94,-369.94 810.37,-342.36 799.12,-296.5 795.26,-280.75 785.68,-264.47 779.04,-254.48"/>
<polygon fill="#63b8ff" stroke="#63b8ff" points="534.45,-439.12 524.62,-443.06 534.76,-446.11 534.45,-439.12"/>
</a>
</g>
</g>
<!-- Node13 -->
<g id="Node000013" class="node">
<title>Node13</title>
<g id="a_Node000013"><a xlink:href="Quaternion_8hpp.html" target="_top" xlink:title="Defines the Quaternion class for representing 3D rotations.">
<polygon fill="white" stroke="#666666" points="747,-393.12 589.25,-393.12 589.25,-372.38 747,-372.38 747,-393.12"/>
<text text-anchor="middle" x="668.12" y="-379.62" font-family="Helvetica,sans-Serif" font-size="10.00">include/math/Quaternion.hpp</text>
</a>
</g>
</g>
<!-- Node1&#45;&gt;Node13 -->
<g id="edge18_Node000001_Node000013" class="edge">
<title>Node1&#45;&gt;Node13</title>
<g id="a_edge18_Node000001_Node000013"><a xlink:title=" ">
<path fill="none" stroke="#63b8ff" d="M497.76,-431.96C538.31,-420.49 596.7,-403.96 633.51,-393.55"/>
<polygon fill="#63b8ff" stroke="#63b8ff" points="496.95,-428.55 488.29,-434.64 498.86,-435.29 496.95,-428.55"/>
</a>
</g>
</g>
<!-- Node14 -->
<g id="Node000014" class="node">
<title>Node14</title>
<g id="a_Node000014"><a xlink:href="Mesh_8hpp.html" target="_top" xlink:title="Defines the Mesh class for managing 3D geometry.">
<polygon fill="white" stroke="#666666" points="527.62,-393.12 376.62,-393.12 376.62,-372.38 527.62,-372.38 527.62,-393.12"/>
<text text-anchor="middle" x="452.12" y="-379.62" font-family="Helvetica,sans-Serif" font-size="10.00">include/rendering/Mesh.hpp</text>
</a>
</g>
</g>
<!-- Node1&#45;&gt;Node14 -->
<g id="edge23_Node000001_Node000014" class="edge">
<title>Node1&#45;&gt;Node14</title>
<g id="a_edge23_Node000001_Node000014"><a xlink:title=" ">
<path fill="none" stroke="#63b8ff" d="M452.12,-423.61C452.12,-413.3 452.12,-401.43 452.12,-393.34"/>
<polygon fill="#63b8ff" stroke="#63b8ff" points="448.63,-423.54 452.13,-433.54 455.63,-423.54 448.63,-423.54"/>
</a>
</g>
</g>
<!-- Node4 -->
<g id="Node000004" class="node">
<title>Node4</title>
<g id="a_Node000004"><a xlink:href="PhysicsSystem_8hpp.html" target="_top" xlink:title="Defines the PhysicsSystem.">
<polygon fill="white" stroke="#666666" points="422.38,-191 233.88,-191 233.88,-170.25 422.38,-170.25 422.38,-191"/>
<text text-anchor="middle" x="328.12" y="-177.5" font-family="Helvetica,sans-Serif" font-size="10.00">include/physics/PhysicsSystem.hpp</text>
</a>
</g>
</g>
<!-- Node3&#45;&gt;Node4 -->
<g id="edge3_Node000003_Node000004" class="edge">
<title>Node3&#45;&gt;Node4</title>
<g id="a_edge3_Node000003_Node000004"><a xlink:title=" ">
<path fill="none" stroke="#63b8ff" d="M259.74,-286.72C278.69,-257.6 308.72,-211.45 321.74,-191.43"/>
<polygon fill="#63b8ff" stroke="#63b8ff" points="256.89,-284.67 254.37,-294.96 262.76,-288.49 256.89,-284.67"/>
</a>
</g>
</g>
<!-- Node5&#45;&gt;Node4 -->
<g id="edge12_Node000005_Node000004" class="edge">
<title>Node5&#45;&gt;Node4</title>
<g id="a_edge12_Node000005_Node000004"><a xlink:title=" ">
<path fill="none" stroke="#63b8ff" d="M462.7,-223.17C428.37,-212.57 387.47,-199.94 359.84,-191.42"/>
<polygon fill="#63b8ff" stroke="#63b8ff" points="461.55,-226.48 472.14,-226.08 463.62,-219.79 461.55,-226.48"/>
</a>
</g>
</g>
<!-- Node6 -->
<g id="Node000006" class="node">
<title>Node6</title>
<g id="a_Node000006"><a xlink:href="Object_8hpp.html" target="_top" xlink:title="Defines the Object class, a special ECS entity wrapper.">
<polygon fill="white" stroke="#666666" points="593.62,-191 448.62,-191 448.62,-170.25 593.62,-170.25 593.62,-191"/>
<text text-anchor="middle" x="521.12" y="-177.5" font-family="Helvetica,sans-Serif" font-size="10.00">include/objects/Object.hpp</text>
</a>
</g>
</g>
<!-- Node5&#45;&gt;Node6 -->
<g id="edge5_Node000005_Node000006" class="edge">
<title>Node5&#45;&gt;Node6</title>
<g id="a_edge5_Node000005_Node000006"><a xlink:title=" ">
<path fill="none" stroke="#63b8ff" d="M523.89,-215.48C523.19,-206.91 522.46,-198 521.93,-191.47"/>
<polygon fill="#63b8ff" stroke="#63b8ff" points="520.38,-215.5 524.69,-225.18 527.36,-214.93 520.38,-215.5"/>
</a>
</g>
</g>
<!-- Node6&#45;&gt;Node7 -->
<g id="edge6_Node000006_Node000007" class="edge">
<title>Node6&#45;&gt;Node7</title>
<g id="a_edge6_Node000006_Node000007"><a xlink:title=" ">
<path fill="none" stroke="#63b8ff" d="M491.37,-164.68C472.28,-155.09 448.05,-142.92 431.44,-134.58"/>
<polygon fill="#63b8ff" stroke="#63b8ff" points="489.78,-167.8 500.29,-169.16 492.92,-161.54 489.78,-167.8"/>
</a>
</g>
</g>
<!-- Node8 -->
<g id="Node000008" class="node">
<title>Node8</title>
<g id="a_Node000008"><a xlink:href="Renderer_8hpp.html" target="_top" xlink:title="Manages the rendering pipeline and object submission.">
<polygon fill="white" stroke="#666666" points="660.62,-77.5 491.62,-77.5 491.62,-56.75 660.62,-56.75 660.62,-77.5"/>
<text text-anchor="middle" x="576.12" y="-64" font-family="Helvetica,sans-Serif" font-size="10.00">include/rendering/Renderer.hpp</text>
</a>
</g>
</g>
<!-- Node6&#45;&gt;Node8 -->
<g id="edge11_Node000006_Node000008" class="edge">
<title>Node6&#45;&gt;Node8</title>
<g id="a_edge11_Node000006_Node000008"><a xlink:title=" ">
<path fill="none" stroke="#63b8ff" d="M525.36,-158.85C528.58,-145.43 533.73,-127.87 541.12,-113.5 548.05,-100.05 559.09,-86.58 566.92,-77.85"/>
<polygon fill="#63b8ff" stroke="#63b8ff" points="522.01,-157.79 523.26,-168.31 528.84,-159.3 522.01,-157.79"/>
</a>
</g>
</g>
<!-- Node6&#45;&gt;Node10 -->
<g id="edge9_Node000006_Node000010" class="edge">
<title>Node6&#45;&gt;Node10</title>
<g id="a_edge9_Node000006_Node000010"><a xlink:title=" ">
<path fill="none" stroke="#63b8ff" d="M550.89,-164.81C570.19,-155.2 594.79,-142.96 611.63,-134.58"/>
<polygon fill="#63b8ff" stroke="#63b8ff" points="549.54,-161.57 542.15,-169.16 552.66,-167.84 549.54,-161.57"/>
</a>
</g>
</g>
<!-- Node7&#45;&gt;Node8 -->
<g id="edge7_Node000007_Node000008" class="edge">
<title>Node7&#45;&gt;Node8</title>
<g id="a_edge7_Node000007_Node000008"><a xlink:title=" ">
<path fill="none" stroke="#63b8ff" d="M452.13,-109.52C481.38,-99.76 520.39,-86.73 546.78,-77.92"/>
<polygon fill="#63b8ff" stroke="#63b8ff" points="451.26,-106.12 442.88,-112.61 453.47,-112.76 451.26,-106.12"/>
</a>
</g>
</g>
<!-- Node9 -->
<g id="Node000009" class="node">
<title>Node9</title>
<g id="a_Node000009"><a xlink:href="Engine_8hpp.html" target="_top" xlink:title="Defines the core Engine class responsible for running simulation.">
<polygon fill="white" stroke="#666666" points="630.25,-20.75 522,-20.75 522,0 630.25,0 630.25,-20.75"/>
<text text-anchor="middle" x="576.12" y="-7.25" font-family="Helvetica,sans-Serif" font-size="10.00">include/Engine.hpp</text>
</a>
</g>
</g>
<!-- Node8&#45;&gt;Node9 -->
<g id="edge8_Node000008_Node000009" class="edge">
<title>Node8&#45;&gt;Node9</title>
<g id="a_edge8_Node000008_Node000009"><a xlink:title=" ">
<path fill="none" stroke="#63b8ff" d="M576.12,-44.88C576.12,-36.66 576.12,-27.68 576.12,-21.08"/>
<polygon fill="#63b8ff" stroke="#63b8ff" points="572.63,-44.82 576.13,-54.82 579.63,-44.82 572.63,-44.82"/>
</a>
</g>
</g>
<!-- Node10&#45;&gt;Node8 -->
<g id="edge10_Node000010_Node000008" class="edge">
<title>Node10&#45;&gt;Node8</title>
<g id="a_edge10_Node000010_Node000008"><a xlink:title=" ">
<path fill="none" stroke="#63b8ff" d="M613.22,-105.05C604.13,-96 593.44,-85.36 585.87,-77.83"/>
<polygon fill="#63b8ff" stroke="#63b8ff" points="610.66,-107.44 620.22,-112.02 615.6,-102.48 610.66,-107.44"/>
</a>
</g>
</g>
<!-- Node11&#45;&gt;Node5 -->
<g id="edge14_Node000011_Node000005" class="edge">
<title>Node11&#45;&gt;Node5</title>
<g id="a_edge14_Node000011_Node000005"><a xlink:title=" ">
<path fill="none" stroke="#63b8ff" d="M680.22,-298.64C649.12,-287.77 605.44,-272.49 572.52,-260.98"/>
<polygon fill="#63b8ff" stroke="#63b8ff" points="679.04,-301.94 689.63,-301.94 681.35,-295.33 679.04,-301.94"/>
</a>
</g>
</g>
<!-- Node11&#45;&gt;Node10 -->
<g id="edge15_Node000011_Node000010" class="edge">
<title>Node11&#45;&gt;Node10</title>
<g id="a_edge15_Node000011_Node000010"><a xlink:title=" ">
<path fill="none" stroke="#63b8ff" d="M704.93,-293.46C698.11,-283.91 690.12,-271.92 684.12,-260.5 660.5,-215.51 641.3,-157.56 634.14,-134.74"/>
<polygon fill="#63b8ff" stroke="#63b8ff" points="702.1,-295.52 710.84,-301.51 707.75,-291.38 702.1,-295.52"/>
</a>
</g>
</g>
<!-- Node11&#45;&gt;Node12 -->
<g id="edge16_Node000011_Node000012" class="edge">
<title>Node11&#45;&gt;Node12</title>
<g id="a_edge16_Node000011_Node000012"><a xlink:title=" ">
<path fill="none" stroke="#63b8ff" d="M733.67,-293.72C743.66,-281 756.52,-264.62 764.55,-254.4"/>
<polygon fill="#63b8ff" stroke="#63b8ff" points="731.08,-291.36 727.65,-301.39 736.58,-295.68 731.08,-291.36"/>
</a>
</g>
</g>
<!-- Node12&#45;&gt;Node8 -->
<g id="edge17_Node000012_Node000008" class="edge">
<title>Node12&#45;&gt;Node8</title>
<g id="a_edge17_Node000012_Node000008"><a xlink:title=" ">
<path fill="none" stroke="#63b8ff" d="M769.66,-221.68C765.22,-193.18 753.22,-142.56 722.12,-113.5 702.73,-95.38 676.21,-84.49 651.09,-77.95"/>
<polygon fill="#63b8ff" stroke="#63b8ff" points="766.19,-222.13 771.01,-231.57 773.13,-221.19 766.19,-222.13"/>
</a>
</g>
</g>
<!-- Node13&#45;&gt;Node5 -->
<g id="edge19_Node000013_Node000005" class="edge">
<title>Node13&#45;&gt;Node5</title>
<g id="a_edge19_Node000013_Node000005"><a xlink:title=" ">
<path fill="none" stroke="#63b8ff" d="M649.8,-364.07C621.93,-337.18 569.32,-286.43 542.6,-260.65"/>
<polygon fill="#63b8ff" stroke="#63b8ff" points="647.2,-366.42 656.82,-370.85 652.06,-361.38 647.2,-366.42"/>
</a>
</g>
</g>
<!-- Node13&#45;&gt;Node11 -->
<g id="edge20_Node000013_Node000011" class="edge">
<title>Node13&#45;&gt;Node11</title>
<g id="a_edge20_Node000013_Node000011"><a xlink:title=" ">
<path fill="none" stroke="#63b8ff" d="M682.12,-363.22C691.74,-350.5 704.11,-334.12 711.83,-323.9"/>
<polygon fill="#63b8ff" stroke="#63b8ff" points="679.58,-360.78 676.34,-370.87 685.17,-365 679.58,-360.78"/>
</a>
</g>
</g>
<!-- Node14&#45;&gt;Node6 -->
<g id="edge25_Node000014_Node000006" class="edge">
<title>Node14&#45;&gt;Node6</title>
<g id="a_edge25_Node000014_Node000006"><a xlink:title=" ">
<path fill="none" stroke="#63b8ff" d="M486.25,-366.65C501.04,-358.17 516.84,-346.03 525.12,-330 531.96,-316.77 533.24,-308.98 525.12,-296.5 503.66,-263.47 465.59,-293.53 444.12,-260.5 436.01,-248.02 436.74,-239.93 444.12,-227 453.98,-209.76 473.23,-198.41 490.02,-191.38"/>
<polygon fill="#63b8ff" stroke="#63b8ff" points="484.81,-363.45 477.61,-371.23 488.09,-369.64 484.81,-363.45"/>
</a>
</g>
</g>
<!-- Node15 -->
<g id="Node000015" class="node">
<title>Node15</title>
<g id="a_Node000015"><a xlink:href="MeshGenerator_8hpp_source.html" target="_top" xlink:title=" ">
<polygon fill="white" stroke="#666666" points="516.25,-323.62 366,-323.62 366,-302.88 516.25,-302.88 516.25,-323.62"/>
<text text-anchor="middle" x="441.12" y="-310.12" font-family="Helvetica,sans-Serif" font-size="10.00">include/MeshGenerator.hpp</text>
</a>
</g>
</g>
<!-- Node14&#45;&gt;Node15 -->
<g id="edge24_Node000014_Node000015" class="edge">
<title>Node14&#45;&gt;Node15</title>
<g id="a_edge24_Node000014_Node000015"><a xlink:title=" ">
<path fill="none" stroke="#63b8ff" d="M448.73,-360.94C446.72,-348.59 444.27,-333.52 442.7,-323.9"/>
<polygon fill="#63b8ff" stroke="#63b8ff" points="445.24,-361.28 450.31,-370.59 452.15,-360.15 445.24,-361.28"/>
</a>
</g>
</g>
</g>
</svg>
